<svg width="32" height="32" viewBox="0 0 32 32" fill="none" xmlns="http://www.w3.org/2000/svg">
<path d="M26.0181 13.9594L15.2681 6.19556" stroke="#169BFC"/>
<path d="M8.57936 20.5289L12.4016 7.03175" stroke="#169BFC"/>
<path d="M25.8988 17.1844L10.3711 22.3205" stroke="#169BFC"/>
<path d="M10.6321 5.55815C9.93352 4.25977 10.4197 2.64088 11.7181 1.94225C13.0165 1.24362 14.6354 1.72981 15.334 3.02819C16.0326 4.32657 15.5464 5.94546 14.248 6.64409C12.9497 7.34272 11.3308 6.85653 10.6321 5.55815Z" stroke="#169BFC"/>
<path d="M28.1949 12.9922C29.6636 12.8621 30.9596 13.9473 31.0896 15.4159C31.2197 16.8846 30.1345 18.1806 28.6659 18.3107C27.1972 18.4407 25.9012 17.3556 25.7712 15.8869C25.6411 14.4182 26.7263 13.1222 28.1949 12.9922Z" stroke="#169BFC"/>
<path d="M9.61634 25.1351C8.60051 26.2037 6.91073 26.2465 5.84211 25.2307C4.77349 24.2149 4.73069 22.5251 5.74652 21.4565C6.76235 20.3879 8.45214 20.3451 9.52076 21.3609C10.5894 22.3767 10.6322 24.0665 9.61634 25.1351Z" stroke="#169BFC"/>
</svg>
