<svg width="40" height="40" viewBox="0 0 40 40" fill="none" xmlns="http://www.w3.org/2000/svg">
<path d="M23.952 12.1494C26.1795 12.1494 28.0267 10.3565 28.0267 8.0747C28.0267 5.79287 26.2338 4 23.952 4C21.6702 4 19.9316 5.79287 19.9316 8.0747V31.9253C19.9316 34.1528 21.7245 36 24.0063 36C26.2882 36 28.081 34.2071 28.081 31.9253C28.081 31.708 28.081 31.4907 28.0267 31.3277" stroke="#161616" stroke-linecap="round" stroke-linejoin="round"/>
<path d="M28.0278 8.23782C28.3538 8.12916 28.7341 8.07483 29.1144 8.07483C31.3419 8.07483 33.1891 9.8677 33.1891 12.1495C33.1891 13.5621 32.4828 14.8117 31.3419 15.518" stroke="#161616" stroke-linecap="round" stroke-linejoin="round"/>
<path d="M27.4292 19.5925C27.4292 17.365 29.2221 15.5178 31.5039 15.5178C33.7857 15.5178 35.5243 17.3107 35.5243 19.5925C35.5243 21.8744 33.7314 23.6672 31.4496 23.6672C31.0149 23.6672 30.5803 23.6129 30.1457 23.4499" stroke="#161616" stroke-linecap="round" stroke-linejoin="round"/>
<path d="M28.7886 23.1782C31.0161 23.1782 32.8633 24.9711 32.8633 27.2529C32.8633 29.5348 31.0704 31.3276 28.7886 31.3276C26.5067 31.3276 24.7139 29.5348 24.7139 27.2529" stroke="#161616" stroke-linecap="round" stroke-linejoin="round"/>
<path d="M15.8579 12.1494C13.6304 12.1494 11.7832 10.3565 11.7832 8.0747C11.7832 5.79287 13.5761 4 15.8579 4C18.1397 4 19.9326 5.79287 19.9326 8.0747V31.9253C19.9326 34.1528 18.1397 36 15.8579 36C13.5761 36 11.7832 34.2071 11.7832 31.9253C11.7832 31.708 11.7832 31.4907 11.8375 31.2733" stroke="#161616" stroke-linecap="round" stroke-linejoin="round"/>
<path d="M11.7824 8.23782C11.4021 8.12916 11.0761 8.07483 10.6958 8.07483C8.46829 8.07483 6.62109 9.8677 6.62109 12.1495C6.62109 13.5621 7.32738 14.8117 8.46829 15.518" stroke="#161616" stroke-linecap="round" stroke-linejoin="round"/>
<path d="M12.4351 19.5925C12.4351 17.365 10.6422 15.5178 8.36035 15.5178C6.07851 15.5178 4.28564 17.3107 4.28564 19.5925C4.28564 21.8744 6.07851 23.6672 8.36035 23.6672C8.79498 23.6672 9.22962 23.6129 9.66425 23.4499" stroke="#161616" stroke-linecap="round" stroke-linejoin="round"/>
<path d="M11.0234 23.1782C8.79593 23.1782 6.94873 24.9711 6.94873 27.2529C6.94873 29.5348 8.7416 31.3276 11.0234 31.3276C13.3053 31.3276 15.0981 29.5348 15.0981 27.2529" stroke="#161616" stroke-linecap="round" stroke-linejoin="round"/>
</svg>
