<svg width="40" height="40" viewBox="0 0 40 40" fill="none" xmlns="http://www.w3.org/2000/svg">
<circle cx="5" cy="20" r="2.5" stroke="#FA842E"/>
<path d="M16.5 12C16.5 13.3807 15.3807 14.5 14 14.5C12.6193 14.5 11.5 13.3807 11.5 12C11.5 10.6193 12.6193 9.5 14 9.5C15.3807 9.5 16.5 10.6193 16.5 12Z" stroke="#FA842E"/>
<path d="M26.5 15C26.5 16.3807 25.3807 17.5 24 17.5C22.6193 17.5 21.5 16.3807 21.5 15C21.5 13.6193 22.6193 12.5 24 12.5C25.3807 12.5 26.5 13.6193 26.5 15Z" stroke="#FA842E"/>
<path d="M35.5 5C35.5 6.38071 34.3807 7.5 33 7.5C31.6193 7.5 30.5 6.38071 30.5 5C30.5 3.61929 31.6193 2.5 33 2.5C34.3807 2.5 35.5 3.61929 35.5 5Z" stroke="#FA842E"/>
<rect x="3.5" y="28.5" width="5" height="9" rx="0.5" stroke="#FA842E"/>
<rect x="11.8335" y="19.5" width="5" height="18" rx="0.5" stroke="#FA842E"/>
<rect x="21.8335" y="23.5" width="5" height="14" rx="0.5" stroke="#FA842E"/>
<rect x="31.8335" y="13.5" width="5" height="24" rx="0.5" stroke="#FA842E"/>
<line x1="0.5" y1="37.5" x2="39.5" y2="37.5" stroke="#FA842E" stroke-linecap="round"/>
<line x1="6.64645" y1="18.6464" x2="11.6464" y2="13.6464" stroke="#FA842E"/>
<line x1="16.1857" y1="12.5358" x2="21.1857" y2="14.5358" stroke="#FA842E"/>
<line x1="25.6204" y1="13.6746" x2="31.6204" y2="6.6746" stroke="#FA842E"/>
</svg>
