<svg width="40" height="40" viewBox="0 0 40 40" fill="none" xmlns="http://www.w3.org/2000/svg">
<path d="M9.0361 37.9338H4.43739C2.5366 37.9338 0.942383 36.2709 0.942383 34.2882V21.4327C0.942383 19.45 2.5366 17.7871 4.43739 17.7871H9.0361C10.9369 17.7871 12.5311 19.45 12.5311 21.4327V34.3522C12.4698 36.3348 10.9369 37.9338 9.0361 37.9338Z" stroke="#FA842E" stroke-width="1.3"/>
<path d="M11.8564 35.951C11.8564 35.951 13.512 38.3175 17.4362 38.3175C21.3604 38.3175 31.7841 38.3175 31.7841 38.3175C31.7841 38.3175 35.8923 38.8931 35.2791 33.073C35.2791 33.073 38.7743 31.7298 36.996 27.5087C36.996 27.5087 40.8588 26.4214 37.9157 22.1362C37.9157 22.1362 45.4576 13.1821 25.4073 15.0369C25.4073 15.0369 28.657 2.11744 20.7472 1.66973C19.7662 1.60578 18.9691 2.50118 19.0304 3.52451C19.337 7.04217 19.0304 15.3567 11.8564 19.0023" stroke="#FA842E" stroke-width="1.3"/>
</svg>
