<svg width="40" height="40" viewBox="0 0 40 40" fill="none" xmlns="http://www.w3.org/2000/svg">
<path d="M26.6759 26.5H26.5429L26.4274 26.5661L21.0642 29.6375V27V26.5H20.5642H16.0889C14.7082 26.5 13.5889 25.3807 13.5889 24V7C13.5889 5.61929 14.7082 4.5 16.0889 4.5H37.0002C38.3809 4.5 39.5002 5.61929 39.5002 7V24C39.5002 25.3807 38.3809 26.5 37.0002 26.5H26.6759Z" fill="white" stroke="#FA842E"/>
<line x1="19.7007" y1="10.5" x2="33.6514" y2="10.5" stroke="#FA842E" stroke-linecap="round"/>
<line x1="19.7007" y1="14.5" x2="33.6514" y2="14.5" stroke="#FA842E" stroke-linecap="round"/>
<line x1="19.7007" y1="18.5" x2="33.6514" y2="18.5" stroke="#FA842E" stroke-linecap="round"/>
<path d="M13.5871 32.5H13.454L13.3386 32.5661L7.97536 35.6375V33V32.5H7.47536H3C1.61929 32.5 0.5 31.3807 0.5 30V13C0.5 11.6193 1.61929 10.5 3 10.5H23.9113C25.292 10.5 26.4113 11.6193 26.4113 13V30C26.4113 31.3807 25.292 32.5 23.9113 32.5H13.5871Z" fill="white" stroke="#FA842E"/>
<line x1="6.61182" y1="16.5" x2="20.5625" y2="16.5" stroke="#FA842E" stroke-linecap="round"/>
<line x1="6.61182" y1="20.5" x2="20.5625" y2="20.5" stroke="#FA842E" stroke-linecap="round"/>
<line x1="6.61182" y1="24.5" x2="20.5625" y2="24.5" stroke="#FA842E" stroke-linecap="round"/>
</svg>
