<svg width="40" height="40" viewBox="0 0 40 40" fill="none" xmlns="http://www.w3.org/2000/svg">
<g clip-path="url(#clip0_81:1996)">
<path d="M39.4163 20.0889C39.4163 21.7084 37.2453 23.0178 36.8251 24.5338C36.4049 26.0844 37.5955 28.2896 36.7901 29.6334C35.9848 31.0117 33.4286 31.0806 32.3081 32.2177C31.1875 33.3203 31.0825 35.8356 29.6819 36.6281C28.3162 37.4206 26.0752 36.2491 24.4995 36.6626C22.9938 37.0761 21.6282 39.2123 19.9824 39.2123C18.3366 39.2123 17.006 37.0761 15.4653 36.6626C13.8896 36.2491 11.6486 37.4206 10.283 36.6281C8.88232 35.8356 8.81228 33.3203 7.65673 32.2177C6.53624 31.115 3.98006 31.0117 3.17468 29.6334C2.36932 28.2896 3.55986 26.0844 3.13967 24.5338C2.75449 23.0522 0.583496 21.7084 0.583496 20.0889C0.583496 18.4695 2.75449 17.1601 3.17468 15.6441C3.59488 14.0935 2.40433 11.8883 3.2097 10.5445C4.01507 9.16622 6.57126 9.0973 7.69175 7.96021C8.81228 6.85763 8.91734 4.34229 10.318 3.54979C11.6836 2.75729 13.9246 3.92881 15.5004 3.51533C17.006 3.13631 18.3366 1 19.9824 1C21.6282 1 22.9588 3.13631 24.4995 3.54979C26.0752 3.96327 28.3162 2.79174 29.6819 3.58424C31.0825 4.37675 31.1525 6.89209 32.3081 7.99468C33.4286 9.0973 35.9848 9.20068 36.7901 10.5789C37.5955 11.9227 36.4049 14.1279 36.8251 15.6785C37.2453 17.1601 39.4163 18.4695 39.4163 20.0889Z" stroke="#161616" stroke-width="1.2973" stroke-miterlimit="10" stroke-linecap="round"/>
<path d="M12.979 21.4673L17.391 28.4275L26.9854 12.2329" stroke="#161616" stroke-width="1.2973" stroke-linecap="round" stroke-linejoin="round"/>
</g>
<defs>
<clipPath id="clip0_81:1996">
<rect width="40" height="40" fill="white"/>
</clipPath>
</defs>
</svg>
