<svg width="32" height="32" viewBox="0 0 32 32" fill="none" xmlns="http://www.w3.org/2000/svg">
<path d="M0.500003 8C0.500004 3.85786 3.85787 0.5 8 0.5H24C28.1421 0.5 31.5 3.85786 31.5 8V24C31.5 28.1421 28.1421 31.5 24 31.5L0.5 31.5L0.500003 8Z" stroke="#FA842E"/>
<path d="M15.7549 23.2549C15.7549 23.531 15.9787 23.7549 16.2549 23.7549C16.531 23.7549 16.7549 23.531 16.7549 23.2549H15.7549ZM16.6084 7.90133C16.4132 7.70607 16.0966 7.70607 15.9013 7.90133L12.7193 11.0833C12.5241 11.2786 12.5241 11.5952 12.7193 11.7904C12.9146 11.9857 13.2312 11.9857 13.4265 11.7904L16.2549 8.96199L19.0833 11.7904C19.2786 11.9857 19.5952 11.9857 19.7904 11.7904C19.9857 11.5952 19.9857 11.2786 19.7904 11.0833L16.6084 7.90133ZM16.7549 23.2549V8.25488H15.7549L15.7549 23.2549H16.7549Z" fill="#FA842E"/>
</svg>
