<svg width="366" height="157" viewBox="0 0 366 157" fill="none" xmlns="http://www.w3.org/2000/svg">
<g clip-path="url(#clip0_676:450)">
<path d="M376.631 0H4.85976C2.17579 0 0 2.16948 0 4.84568V152.154C0 154.831 2.17579 157 4.85976 157H376.631C379.315 157 381.491 154.831 381.491 152.154V4.84568C381.491 2.16948 379.315 0 376.631 0Z" fill="white" fill-opacity="0.6"/>
<path d="M361.506 0H4.43422C1.98527 0 0 2.06739 0 4.61765V152.382C0 154.933 1.98527 157 4.43422 157H361.506C363.955 157 365.94 154.933 365.94 152.382V4.61765C365.94 2.06739 363.955 0 361.506 0Z" stroke="white"/>
<path d="M204.109 21.321C204.109 13.2924 210.637 6.78394 218.689 6.78394H335.323C343.375 6.78394 349.902 13.2924 349.902 21.321V152.154H204.109V21.321Z" fill="#FFE6D3"/>
<path d="M303.758 26.1667L303.753 23.2011L302.277 25.6724H302.009L300.533 23.2186V26.1667H299.974V22.0963H300.452L302.155 24.9572L303.834 22.0963H304.312L304.318 26.1667H303.758ZM307.106 24.7595V26.1667H306.529V24.7479L304.908 22.0963H305.532L306.838 24.242L308.15 22.0963H308.728L307.106 24.7595ZM313.632 24.0559C313.869 24.1218 314.056 24.242 314.192 24.4164C314.328 24.587 314.396 24.8041 314.396 25.0677C314.396 25.4205 314.262 25.6918 313.994 25.8818C313.729 26.0717 313.342 26.1667 312.833 26.1667H310.885V22.0963H312.716C313.183 22.0963 313.543 22.1894 313.795 22.3754C314.052 22.5615 314.18 22.8193 314.18 23.1488C314.18 23.362 314.13 23.5461 314.029 23.7012C313.931 23.8563 313.799 23.9745 313.632 24.0559ZM311.468 22.5673V23.8698H312.664C312.963 23.8698 313.193 23.8156 313.352 23.707C313.515 23.5946 313.597 23.4318 313.597 23.2186C313.597 23.0054 313.515 22.8445 313.352 22.736C313.193 22.6235 312.963 22.5673 312.664 22.5673H311.468ZM312.81 25.6957C313.14 25.6957 313.389 25.6414 313.556 25.5329C313.723 25.4243 313.807 25.2538 313.807 25.0212C313.807 24.5676 313.475 24.3408 312.81 24.3408H311.468V25.6957H312.81ZM318.261 25.6608V26.1667H315.299V22.0963H318.18V22.6022H315.882V23.8524H317.929V24.3467H315.882V25.6608H318.261ZM320.016 22.6022H318.617V22.0963H321.993V22.6022H320.594V26.1667H320.016V22.6022ZM323.767 26.2132C323.46 26.2132 323.162 26.1667 322.875 26.0737C322.591 25.9767 322.367 25.8527 322.204 25.7015L322.42 25.248C322.575 25.3875 322.774 25.5019 323.015 25.591C323.26 25.6763 323.51 25.719 323.767 25.719C324.105 25.719 324.358 25.6627 324.525 25.5503C324.692 25.434 324.776 25.2809 324.776 25.091C324.776 24.9514 324.729 24.839 324.636 24.7537C324.547 24.6645 324.434 24.5967 324.298 24.5502C324.166 24.5037 323.977 24.4513 323.732 24.3932C323.425 24.3195 323.176 24.2459 322.986 24.1722C322.799 24.0986 322.638 23.9861 322.502 23.835C322.369 23.6799 322.303 23.4725 322.303 23.2128C322.303 22.9957 322.36 22.7999 322.472 22.6255C322.589 22.451 322.764 22.3115 322.997 22.2068C323.231 22.1021 323.52 22.0498 323.866 22.0498C324.107 22.0498 324.344 22.0808 324.578 22.1428C324.811 22.2049 325.011 22.294 325.178 22.4103L324.986 22.8755C324.815 22.767 324.632 22.6856 324.438 22.6313C324.243 22.5731 324.053 22.5441 323.866 22.5441C323.536 22.5441 323.287 22.6041 323.12 22.7243C322.956 22.8445 322.875 22.9996 322.875 23.1895C322.875 23.3291 322.921 23.4434 323.015 23.5326C323.108 23.6179 323.223 23.6857 323.359 23.7361C323.499 23.7826 323.687 23.833 323.925 23.8873C324.232 23.9609 324.479 24.0346 324.665 24.1082C324.852 24.1819 325.011 24.2943 325.143 24.4455C325.279 24.5967 325.347 24.8002 325.347 25.0561C325.347 25.2693 325.289 25.465 325.172 25.6434C325.056 25.8178 324.879 25.9574 324.642 26.062C324.405 26.1628 324.113 26.2132 323.767 26.2132Z" fill="black"/>
<path d="M225.728 42.9326V47.003H225.25L222.801 43.9677V47.003H222.218V42.9326H222.696L225.145 45.968V42.9326H225.728ZM227.994 43.8921C228.422 43.8921 228.748 43.9967 228.974 44.2061C229.203 44.4154 229.318 44.7275 229.318 45.1423V47.003H228.787V46.596C228.694 46.7394 228.56 46.8499 228.385 46.9274C228.214 47.0011 228.01 47.0379 227.772 47.0379C227.426 47.0379 227.148 46.9545 226.939 46.7878C226.732 46.6212 226.629 46.4021 226.629 46.1308C226.629 45.8594 226.729 45.6423 226.927 45.4795C227.125 45.3128 227.44 45.2295 227.872 45.2295H228.758V45.119C228.758 44.8786 228.688 44.6945 228.548 44.5666C228.408 44.4387 228.202 44.3747 227.93 44.3747C227.747 44.3747 227.568 44.4057 227.393 44.4677C227.218 44.5259 227.071 44.6053 226.95 44.7061L226.717 44.2875C226.876 44.1595 227.067 44.0626 227.288 43.9967C227.51 43.927 227.745 43.8921 227.994 43.8921ZM227.866 46.6076C228.08 46.6076 228.264 46.5611 228.42 46.468C228.575 46.3711 228.688 46.2354 228.758 46.061V45.6307H227.895C227.421 45.6307 227.183 45.7896 227.183 46.1075C227.183 46.2626 227.244 46.3847 227.364 46.4738C227.485 46.563 227.652 46.6076 227.866 46.6076ZM234.22 43.8921C234.609 43.8921 234.916 44.0045 235.142 44.2293C235.371 44.4542 235.486 44.7875 235.486 45.2295V47.003H234.926V45.2934C234.926 44.9949 234.856 44.7701 234.716 44.6189C234.58 44.4677 234.384 44.3921 234.127 44.3921C233.843 44.3921 233.618 44.4813 233.451 44.6596C233.283 44.8341 233.2 45.086 233.2 45.4155V47.003H232.64V45.2934C232.64 44.9949 232.57 44.7701 232.43 44.6189C232.294 44.4677 232.098 44.3921 231.841 44.3921C231.557 44.3921 231.332 44.4813 231.165 44.6596C230.997 44.8341 230.914 45.086 230.914 45.4155V47.003H230.354V43.9211H230.89V44.3805C231.003 44.2216 231.151 44.1014 231.334 44.02C231.516 43.9347 231.724 43.8921 231.958 43.8921C232.199 43.8921 232.413 43.9405 232.599 44.0374C232.786 44.1343 232.93 44.2758 233.031 44.4619C233.147 44.2836 233.309 44.144 233.515 44.0432C233.725 43.9425 233.96 43.8921 234.22 43.8921ZM239.327 45.4795C239.327 45.5222 239.323 45.5784 239.315 45.6481H236.807C236.842 45.9195 236.961 46.1385 237.163 46.3052C237.369 46.468 237.624 46.5494 237.927 46.5494C238.296 46.5494 238.594 46.4254 238.819 46.1773L239.128 46.5378C238.988 46.7006 238.813 46.8247 238.603 46.91C238.397 46.9952 238.166 47.0379 237.909 47.0379C237.583 47.0379 237.293 46.972 237.04 46.8402C236.788 46.7045 236.591 46.5165 236.451 46.2761C236.315 46.0358 236.247 45.7644 236.247 45.4621C236.247 45.1636 236.313 44.8942 236.446 44.6538C236.582 44.4135 236.766 44.2274 237 44.0956C237.237 43.9599 237.503 43.8921 237.799 43.8921C238.094 43.8921 238.357 43.9599 238.586 44.0956C238.819 44.2274 239 44.4135 239.128 44.6538C239.26 44.8942 239.327 45.1694 239.327 45.4795ZM237.799 44.3631C237.53 44.3631 237.305 44.4445 237.122 44.6073C236.943 44.7701 236.838 44.9833 236.807 45.2469H238.79C238.759 44.9872 238.652 44.7759 238.469 44.6131C238.29 44.4464 238.067 44.3631 237.799 44.3631Z" fill="#717171"/>
<path d="M258.01 44.8922C258.248 44.9581 258.434 45.0783 258.57 45.2527C258.706 45.4233 258.774 45.6404 258.774 45.904C258.774 46.2568 258.64 46.5281 258.372 46.7181C258.108 46.908 257.721 47.003 257.211 47.003H255.264V42.9326H257.095C257.561 42.9326 257.921 43.0257 258.174 43.2117C258.43 43.3978 258.559 43.6556 258.559 43.9851C258.559 44.1983 258.508 44.3824 258.407 44.5375C258.31 44.6926 258.178 44.8108 258.01 44.8922ZM255.847 43.4036V44.7061H257.042C257.342 44.7061 257.571 44.6519 257.73 44.5433C257.894 44.4309 257.975 44.2681 257.975 44.0549C257.975 43.8417 257.894 43.6808 257.73 43.5722C257.571 43.4598 257.342 43.4036 257.042 43.4036H255.847ZM257.188 46.532C257.519 46.532 257.767 46.4777 257.935 46.3692C258.102 46.2606 258.185 46.0901 258.185 45.8575C258.185 45.4039 257.853 45.1771 257.188 45.1771H255.847V46.532H257.188ZM262.389 45.4795C262.389 45.5222 262.385 45.5784 262.377 45.6481H259.87C259.905 45.9195 260.023 46.1385 260.225 46.3052C260.432 46.468 260.686 46.5494 260.989 46.5494C261.359 46.5494 261.656 46.4254 261.882 46.1773L262.191 46.5378C262.051 46.7006 261.876 46.8247 261.666 46.91C261.46 46.9952 261.229 47.0379 260.972 47.0379C260.645 47.0379 260.356 46.972 260.103 46.8402C259.85 46.7045 259.654 46.5165 259.514 46.2761C259.378 46.0358 259.31 45.7644 259.31 45.4621C259.31 45.1636 259.376 44.8942 259.508 44.6538C259.644 44.4135 259.829 44.2274 260.062 44.0956C260.299 43.9599 260.566 43.8921 260.861 43.8921C261.157 43.8921 261.419 43.9599 261.648 44.0956C261.882 44.2274 262.062 44.4135 262.191 44.6538C262.323 44.8942 262.389 45.1694 262.389 45.4795ZM260.861 44.3631C260.593 44.3631 260.367 44.4445 260.185 44.6073C260.006 44.7701 259.901 44.9833 259.87 45.2469H261.853C261.821 44.9872 261.715 44.7759 261.532 44.6131C261.353 44.4464 261.129 44.3631 260.861 44.3631ZM264.904 46.8227C264.823 46.8925 264.722 46.9468 264.601 46.9855C264.481 47.0204 264.356 47.0379 264.228 47.0379C263.917 47.0379 263.676 46.9545 263.505 46.7878C263.334 46.6212 263.248 46.3827 263.248 46.0726V44.3805H262.723V43.9211H263.248V43.2466H263.808V43.9211H264.695V44.3805H263.808V46.0494C263.808 46.2161 263.849 46.344 263.931 46.4331C264.016 46.5223 264.137 46.5669 264.292 46.5669C264.463 46.5669 264.609 46.5184 264.73 46.4215L264.904 46.8227Z" fill="#717171"/>
<path d="M289.666 47.0496C289.254 47.0496 288.883 46.9604 288.553 46.7821C288.222 46.5999 287.962 46.3499 287.771 46.032C287.585 45.7141 287.491 45.3594 287.491 44.9679C287.491 44.5764 287.585 44.2216 287.771 43.9038C287.962 43.5859 288.222 43.3378 288.553 43.1595C288.883 42.9773 289.254 42.8862 289.666 42.8862C290.075 42.8862 290.444 42.9773 290.774 43.1595C291.105 43.3378 291.363 43.5859 291.55 43.9038C291.737 44.2178 291.83 44.5725 291.83 44.9679C291.83 45.3633 291.737 45.7199 291.55 46.0378C291.363 46.3518 291.105 46.5999 290.774 46.7821C290.444 46.9604 290.075 47.0496 289.666 47.0496ZM289.666 46.5321C289.966 46.5321 290.234 46.4642 290.471 46.3285C290.712 46.1929 290.901 46.0068 291.037 45.7703C291.177 45.53 291.247 45.2625 291.247 44.9679C291.247 44.6733 291.177 44.4077 291.037 44.1713C290.901 43.9309 290.712 43.7429 290.471 43.6072C290.234 43.4715 289.966 43.4037 289.666 43.4037C289.367 43.4037 289.095 43.4715 288.85 43.6072C288.609 43.7429 288.418 43.9309 288.278 44.1713C288.142 44.4077 288.074 44.6733 288.074 44.9679C288.074 45.2625 288.142 45.53 288.278 45.7703C288.418 46.0068 288.609 46.1929 288.85 46.3285C289.095 46.4642 289.367 46.5321 289.666 46.5321ZM295.555 42.6885V47.0031H295.019V46.5146C294.895 46.6852 294.737 46.815 294.547 46.9042C294.356 46.9934 294.146 47.0379 293.917 47.0379C293.617 47.0379 293.349 46.972 293.112 46.8402C292.875 46.7084 292.688 46.5243 292.552 46.2878C292.42 46.0475 292.354 45.7723 292.354 45.4621C292.354 45.152 292.42 44.8787 292.552 44.6422C292.688 44.4058 292.875 44.2216 293.112 44.0898C293.349 43.958 293.617 43.8921 293.917 43.8921C294.138 43.8921 294.342 43.9348 294.529 44.0201C294.716 44.1015 294.871 44.2236 294.996 44.3864V42.6885H295.555ZM293.963 46.5495C294.158 46.5495 294.335 46.5049 294.494 46.4158C294.654 46.3227 294.778 46.1948 294.867 46.032C294.957 45.8653 295.001 45.6753 295.001 45.4621C295.001 45.2489 294.957 45.0609 294.867 44.8981C294.778 44.7314 294.654 44.6035 294.494 44.5143C294.335 44.4252 294.158 44.3806 293.963 44.3806C293.765 44.3806 293.586 44.4252 293.427 44.5143C293.271 44.6035 293.147 44.7314 293.054 44.8981C292.964 45.0609 292.92 45.2489 292.92 45.4621C292.92 45.6753 292.964 45.8653 293.054 46.032C293.147 46.1948 293.271 46.3227 293.427 46.4158C293.586 46.5049 293.765 46.5495 293.963 46.5495ZM299.531 42.6885V47.0031H298.994V46.5146C298.87 46.6852 298.712 46.815 298.522 46.9042C298.331 46.9934 298.121 47.0379 297.892 47.0379C297.593 47.0379 297.324 46.972 297.087 46.8402C296.85 46.7084 296.664 46.5243 296.527 46.2878C296.395 46.0475 296.329 45.7723 296.329 45.4621C296.329 45.152 296.395 44.8787 296.527 44.6422C296.664 44.4058 296.85 44.2216 297.087 44.0898C297.324 43.958 297.593 43.8921 297.892 43.8921C298.114 43.8921 298.318 43.9348 298.504 44.0201C298.691 44.1015 298.847 44.2236 298.971 44.3864V42.6885H299.531ZM297.939 46.5495C298.133 46.5495 298.31 46.5049 298.469 46.4158C298.629 46.3227 298.753 46.1948 298.843 46.032C298.932 45.8653 298.977 45.6753 298.977 45.4621C298.977 45.2489 298.932 45.0609 298.843 44.8981C298.753 44.7314 298.629 44.6035 298.469 44.5143C298.31 44.4252 298.133 44.3806 297.939 44.3806C297.74 44.3806 297.562 44.4252 297.402 44.5143C297.247 44.6035 297.122 44.7314 297.029 44.8981C296.94 45.0609 296.895 45.2489 296.895 45.4621C296.895 45.6753 296.94 45.8653 297.029 46.032C297.122 46.1948 297.247 46.3227 297.402 46.4158C297.562 46.5049 297.74 46.5495 297.939 46.5495Z" fill="#717171"/>
<path d="M322.264 42.9328L320.899 47.0031H320.287L319.173 43.7527L318.059 47.0031H317.435L316.07 42.9328H316.671L317.773 46.2414L318.922 42.9328H319.459L320.584 46.2588L321.71 42.9328H322.264ZM322.901 43.9213H323.461V47.0031H322.901V43.9213ZM323.181 43.3282C323.072 43.3282 322.981 43.2933 322.907 43.2235C322.837 43.1537 322.802 43.0684 322.802 42.9676C322.802 42.8669 322.837 42.7816 322.907 42.7118C322.981 42.6381 323.072 42.6013 323.181 42.6013C323.29 42.6013 323.379 42.6362 323.449 42.706C323.523 42.7719 323.56 42.8552 323.56 42.956C323.56 43.0607 323.523 43.1498 323.449 43.2235C323.379 43.2933 323.29 43.3282 323.181 43.3282ZM326.18 43.8922C326.573 43.8922 326.884 44.0066 327.113 44.2353C327.346 44.4601 327.463 44.7916 327.463 45.2296V47.0031H326.903V45.2936C326.903 44.9951 326.831 44.7702 326.687 44.6191C326.544 44.4679 326.338 44.3923 326.069 44.3923C325.766 44.3923 325.527 44.4814 325.352 44.6598C325.177 44.8342 325.09 45.0862 325.09 45.4157V47.0031H324.53V43.9213H325.066V44.3865C325.179 44.2275 325.331 44.1054 325.521 44.0201C325.715 43.9348 325.935 43.8922 326.18 43.8922Z" fill="#717171"/>
<path d="M332.651 14.7793H221.362C216.263 14.7793 212.129 18.9013 212.129 23.9861C212.129 29.0709 216.263 33.1929 221.362 33.1929H332.651C337.75 33.1929 341.884 29.0709 341.884 23.9861C341.884 18.9013 337.75 14.7793 332.651 14.7793Z" stroke="white"/>
<path d="M270.446 16.2329H221.363C217.068 16.2329 213.587 19.7041 213.587 23.986C213.587 28.2679 217.068 31.7391 221.363 31.7391H270.446C274.74 31.7391 278.222 28.2679 278.222 23.986C278.222 19.7041 274.74 16.2329 270.446 16.2329Z" fill="#FFAA6C" stroke="#FFDABE"/>
<path d="M235.024 25.1491H232.854L232.405 26.1667H231.805L233.653 22.0963H234.231L236.085 26.1667H235.473L235.024 25.1491ZM234.82 24.6839L233.939 22.6894L233.058 24.6839H234.82ZM236.694 22.0963H237.277V25.6608H239.487V26.1667H236.694V22.0963ZM240.157 22.0963H240.74V25.6608H242.95V26.1667H240.157V22.0963ZM247.932 24.0559C248.169 24.1218 248.356 24.242 248.492 24.4164C248.628 24.587 248.696 24.8041 248.696 25.0677C248.696 25.4205 248.562 25.6918 248.294 25.8818C248.029 26.0717 247.643 26.1667 247.133 26.1667H245.186V22.0963H247.017C247.483 22.0963 247.843 22.1894 248.096 22.3754C248.352 22.5615 248.48 22.8193 248.48 23.1488C248.48 23.362 248.43 23.5461 248.329 23.7012C248.232 23.8563 248.099 23.9745 247.932 24.0559ZM245.769 22.5673V23.8698H246.964C247.264 23.8698 247.493 23.8156 247.652 23.707C247.816 23.5946 247.897 23.4318 247.897 23.2186C247.897 23.0054 247.816 22.8445 247.652 22.736C247.493 22.6235 247.264 22.5673 246.964 22.5673H245.769ZM247.11 25.6957C247.44 25.6957 247.689 25.6414 247.856 25.5329C248.024 25.4243 248.107 25.2538 248.107 25.0212C248.107 24.5676 247.775 24.3408 247.11 24.3408H245.769V25.6957H247.11ZM252.562 25.6608V26.1667H249.599V22.0963H252.48V22.6022H250.182V23.8524H252.229V24.3467H250.182V25.6608H252.562ZM254.317 22.6022H252.917V22.0963H256.294V22.6022H254.894V26.1667H254.317V22.6022ZM258.067 26.2132C257.76 26.2132 257.462 26.1667 257.175 26.0737C256.891 25.9767 256.667 25.8527 256.504 25.7015L256.72 25.248C256.875 25.3875 257.073 25.5019 257.315 25.591C257.559 25.6763 257.81 25.719 258.067 25.719C258.405 25.719 258.658 25.6627 258.825 25.5503C258.992 25.434 259.076 25.2809 259.076 25.091C259.076 24.9514 259.029 24.839 258.936 24.7537C258.846 24.6645 258.734 24.5967 258.598 24.5502C258.465 24.5037 258.277 24.4513 258.032 24.3932C257.725 24.3195 257.476 24.2459 257.285 24.1722C257.099 24.0986 256.937 23.9861 256.801 23.835C256.669 23.6799 256.603 23.4725 256.603 23.2128C256.603 22.9957 256.659 22.7999 256.772 22.6255C256.889 22.451 257.064 22.3115 257.297 22.2068C257.53 22.1021 257.82 22.0498 258.166 22.0498C258.407 22.0498 258.644 22.0808 258.877 22.1428C259.111 22.2049 259.311 22.294 259.478 22.4103L259.286 22.8755C259.115 22.767 258.932 22.6856 258.737 22.6313C258.543 22.5731 258.353 22.5441 258.166 22.5441C257.835 22.5441 257.587 22.6041 257.419 22.7243C257.256 22.8445 257.175 22.9996 257.175 23.1895C257.175 23.3291 257.221 23.4434 257.315 23.5326C257.408 23.6179 257.523 23.6857 257.659 23.7361C257.799 23.7826 257.987 23.833 258.224 23.8873C258.531 23.9609 258.778 24.0346 258.965 24.1082C259.152 24.1819 259.311 24.2943 259.443 24.4455C259.579 24.5967 259.647 24.8002 259.647 25.0561C259.647 25.2693 259.589 25.465 259.472 25.6434C259.356 25.8178 259.179 25.9574 258.942 26.062C258.704 26.1628 258.413 26.2132 258.067 26.2132Z" fill="black"/>
<path d="M340.183 52.3333H213.83C212.756 52.3333 211.886 53.201 211.886 54.2715V64.932C211.886 66.0025 212.756 66.8703 213.83 66.8703H340.183C341.257 66.8703 342.127 66.0025 342.127 64.932V54.2715C342.127 53.201 341.257 52.3333 340.183 52.3333Z" fill="#FFC783"/>
<path d="M223.261 58.4293C223.689 58.4293 224.015 58.5339 224.241 58.7433C224.47 58.9526 224.585 59.2647 224.585 59.6794V61.5402H224.054V61.1331C223.961 61.2766 223.827 61.3871 223.652 61.4646C223.481 61.5382 223.277 61.5751 223.039 61.5751C222.693 61.5751 222.415 61.4917 222.206 61.325C222 61.1583 221.896 60.9393 221.896 60.668C221.896 60.3966 221.996 60.1795 222.194 60.0167C222.392 59.85 222.707 59.7667 223.139 59.7667H224.025V59.6562C224.025 59.4158 223.955 59.2317 223.815 59.1038C223.675 58.9758 223.469 58.9119 223.197 58.9119C223.014 58.9119 222.835 58.9429 222.66 59.0049C222.485 59.0631 222.338 59.1425 222.217 59.2433L221.984 58.8247C222.143 58.6967 222.334 58.5998 222.555 58.5339C222.777 58.4641 223.012 58.4293 223.261 58.4293ZM223.133 61.1448C223.347 61.1448 223.531 61.0983 223.687 61.0052C223.842 60.9083 223.955 60.7726 224.025 60.5982V60.1679H223.162C222.688 60.1679 222.45 60.3268 222.45 60.6447C222.45 60.7998 222.511 60.9219 222.631 61.011C222.752 61.1002 222.919 61.1448 223.133 61.1448ZM226.459 58.3071L227.153 58.6967L226.972 59.0165L226.266 58.6037L226.272 59.3945H225.922L225.928 58.6037L225.223 59.0165L225.042 58.6967L225.742 58.3071L225.042 57.9234L225.223 57.5977L225.928 58.0106L225.922 57.2256H226.272L226.266 58.0106L226.972 57.5977L227.153 57.9234L226.459 58.3071ZM228.908 58.3071L229.602 58.6967L229.421 59.0165L228.715 58.6037L228.721 59.3945H228.371L228.377 58.6037L227.671 59.0165L227.491 58.6967L228.19 58.3071L227.491 57.9234L227.671 57.5977L228.377 58.0106L228.371 57.2256H228.721L228.715 58.0106L229.421 57.5977L229.602 57.9234L228.908 58.3071ZM231.356 58.3071L232.05 58.6967L231.87 59.0165L231.164 58.6037L231.17 59.3945H230.82L230.826 58.6037L230.12 59.0165L229.939 58.6967L230.639 58.3071L229.939 57.9234L230.12 57.5977L230.826 58.0106L230.82 57.2256H231.17L231.164 58.0106L231.87 57.5977L232.05 57.9234L231.356 58.3071ZM233.805 58.3071L234.499 58.6967L234.319 59.0165L233.613 58.6037L233.619 59.3945H233.269L233.275 58.6037L232.569 59.0165L232.388 58.6967L233.088 58.3071L232.388 57.9234L232.569 57.5977L233.275 58.0106L233.269 57.2256H233.619L233.613 58.0106L234.319 57.5977L234.499 57.9234L233.805 58.3071ZM236.147 58.9758C236.244 58.7975 236.388 58.6618 236.578 58.5688C236.769 58.4758 237 58.4293 237.272 58.4293V58.97C237.241 58.9662 237.198 58.9642 237.144 58.9642C236.841 58.9642 236.602 59.0553 236.427 59.2375C236.256 59.4158 236.17 59.6717 236.17 60.0051V61.5402H235.61V58.4583H236.147V58.9758Z" fill="white"/>
<path d="M257.801 61.0344V61.5402H254.867V61.1448L256.53 59.5458C256.732 59.3519 256.868 59.1852 256.938 59.0457C257.008 58.9022 257.043 58.7588 257.043 58.6154C257.043 58.4022 256.967 58.2374 256.815 58.1211C256.668 58.0009 256.454 57.9409 256.174 57.9409C255.723 57.9409 255.375 58.0882 255.13 58.3828L254.733 58.0397C254.893 57.8459 255.101 57.6947 255.357 57.5862C255.618 57.4776 255.907 57.4233 256.226 57.4233C256.654 57.4233 256.994 57.5261 257.247 57.7315C257.5 57.9331 257.626 58.2083 257.626 58.5572C257.626 58.7743 257.579 58.9798 257.486 59.1736C257.393 59.3674 257.216 59.5884 256.955 59.8365L255.707 61.0344H257.801ZM261.514 61.5868C261.192 61.5868 260.904 61.5054 260.651 61.3425C260.402 61.1758 260.206 60.9355 260.062 60.6215C259.918 60.3075 259.846 59.9354 259.846 59.5051C259.846 59.0748 259.918 58.7026 260.062 58.3886C260.206 58.0746 260.402 57.8362 260.651 57.6734C260.904 57.5067 261.192 57.4233 261.514 57.4233C261.833 57.4233 262.117 57.5067 262.366 57.6734C262.618 57.8362 262.817 58.0746 262.96 58.3886C263.104 58.7026 263.176 59.0748 263.176 59.5051C263.176 59.9354 263.104 60.3075 262.96 60.6215C262.817 60.9355 262.618 61.1758 262.366 61.3425C262.117 61.5054 261.833 61.5868 261.514 61.5868ZM261.514 61.0692C261.841 61.0692 262.101 60.9355 262.296 60.668C262.494 60.4005 262.593 60.0129 262.593 59.5051C262.593 58.9972 262.494 58.6096 262.296 58.3421C262.101 58.0746 261.841 57.9409 261.514 57.9409C261.184 57.9409 260.919 58.0746 260.721 58.3421C260.527 58.6096 260.43 58.9972 260.43 59.5051C260.43 60.0129 260.527 60.4005 260.721 60.668C260.919 60.9355 261.184 61.0692 261.514 61.0692ZM265.404 61.5868C265.081 61.5868 264.794 61.5054 264.541 61.3425C264.292 61.1758 264.096 60.9355 263.952 60.6215C263.808 60.3075 263.736 59.9354 263.736 59.5051C263.736 59.0748 263.808 58.7026 263.952 58.3886C264.096 58.0746 264.292 57.8362 264.541 57.6734C264.794 57.5067 265.081 57.4233 265.404 57.4233C265.723 57.4233 266.007 57.5067 266.255 57.6734C266.508 57.8362 266.706 58.0746 266.85 58.3886C266.994 58.7026 267.066 59.0748 267.066 59.5051C267.066 59.9354 266.994 60.3075 266.85 60.6215C266.706 60.9355 266.508 61.1758 266.255 61.3425C266.007 61.5054 265.723 61.5868 265.404 61.5868ZM265.404 61.0692C265.731 61.0692 265.991 60.9355 266.185 60.668C266.384 60.4005 266.483 60.0129 266.483 59.5051C266.483 58.9972 266.384 58.6096 266.185 58.3421C265.991 58.0746 265.731 57.9409 265.404 57.9409C265.074 57.9409 264.809 58.0746 264.611 58.3421C264.416 58.6096 264.319 58.9972 264.319 59.5051C264.319 60.0129 264.416 60.4005 264.611 60.668C264.809 60.9355 265.074 61.0692 265.404 61.0692ZM269.294 61.5868C268.971 61.5868 268.683 61.5054 268.431 61.3425C268.182 61.1758 267.985 60.9355 267.842 60.6215C267.698 60.3075 267.626 59.9354 267.626 59.5051C267.626 59.0748 267.698 58.7026 267.842 58.3886C267.985 58.0746 268.182 57.8362 268.431 57.6734C268.683 57.5067 268.971 57.4233 269.294 57.4233C269.613 57.4233 269.896 57.5067 270.145 57.6734C270.398 57.8362 270.596 58.0746 270.74 58.3886C270.884 58.7026 270.956 59.0748 270.956 59.5051C270.956 59.9354 270.884 60.3075 270.74 60.6215C270.596 60.9355 270.398 61.1758 270.145 61.3425C269.896 61.5054 269.613 61.5868 269.294 61.5868ZM269.294 61.0692C269.62 61.0692 269.881 60.9355 270.075 60.668C270.273 60.4005 270.373 60.0129 270.373 59.5051C270.373 58.9972 270.273 58.6096 270.075 58.3421C269.881 58.0746 269.62 57.9409 269.294 57.9409C268.963 57.9409 268.699 58.0746 268.501 58.3421C268.306 58.6096 268.209 58.9972 268.209 59.5051C268.209 60.0129 268.306 60.4005 268.501 60.668C268.699 60.9355 268.963 61.0692 269.294 61.0692Z" fill="white"/>
<path d="M287.212 59.7493H290.128V60.1389H287.212V59.7493Z" fill="white"/>
<path d="M315.885 59.7493H318.801V60.1389H315.885V59.7493Z" fill="white"/>
<path d="M340.183 68.8086H213.83C212.756 68.8086 211.886 69.6764 211.886 70.7469V81.4074C211.886 82.4778 212.756 83.3456 213.83 83.3456H340.183C341.257 83.3456 342.127 82.4778 342.127 81.4074V70.7469C342.127 69.6764 341.257 68.8086 340.183 68.8086Z" fill="#FFC783"/>
<path d="M224.929 76.492C224.929 76.5347 224.925 76.5909 224.917 76.6607H222.409C222.444 76.932 222.563 77.151 222.765 77.3177C222.971 77.4806 223.226 77.562 223.529 77.562C223.898 77.562 224.196 77.4379 224.421 77.1898L224.73 77.5503C224.591 77.7131 224.416 77.8372 224.206 77.9225C224 78.0078 223.768 78.0504 223.512 78.0504C223.185 78.0504 222.895 77.9845 222.643 77.8527C222.39 77.717 222.194 77.529 222.054 77.2887C221.918 77.0483 221.85 76.777 221.85 76.4746C221.85 76.1761 221.916 75.9067 222.048 75.6663C222.184 75.426 222.369 75.2399 222.602 75.1081C222.839 74.9724 223.105 74.9046 223.401 74.9046C223.696 74.9046 223.959 74.9724 224.188 75.1081C224.421 75.2399 224.602 75.426 224.73 75.6663C224.863 75.9067 224.929 76.1819 224.929 76.492ZM223.401 75.3756C223.133 75.3756 222.907 75.457 222.724 75.6198C222.546 75.7826 222.441 75.9958 222.409 76.2594H224.392C224.361 75.9997 224.254 75.7884 224.071 75.6256C223.893 75.4589 223.669 75.3756 223.401 75.3756ZM226.589 74.7825L227.283 75.1721L227.103 75.4919L226.397 75.079L226.403 75.8699H226.053L226.059 75.079L225.353 75.4919L225.172 75.1721L225.872 74.7825L225.172 74.3987L225.353 74.0731L226.059 74.4859L226.053 73.7009H226.403L226.397 74.4859L227.103 74.0731L227.283 74.3987L226.589 74.7825ZM229.038 74.7825L229.732 75.1721L229.551 75.4919L228.846 75.079L228.852 75.8699H228.502L228.507 75.079L227.802 75.4919L227.621 75.1721L228.321 74.7825L227.621 74.3987L227.802 74.0731L228.507 74.4859L228.502 73.7009H228.852L228.846 74.4859L229.551 74.0731L229.732 74.3987L229.038 74.7825ZM231.487 74.7825L232.181 75.1721L232 75.4919L231.295 75.079L231.3 75.8699H230.95L230.956 75.079L230.251 75.4919L230.07 75.1721L230.77 74.7825L230.07 74.3987L230.251 74.0731L230.956 74.4859L230.95 73.7009H231.3L231.295 74.4859L232 74.0731L232.181 74.3987L231.487 74.7825ZM233.936 74.7825L234.63 75.1721L234.449 75.4919L233.743 75.079L233.749 75.8699H233.399L233.405 75.079L232.7 75.4919L232.519 75.1721L233.219 74.7825L232.519 74.3987L232.7 74.0731L233.405 74.4859L233.399 73.7009H233.749L233.743 74.4859L234.449 74.0731L234.63 74.3987L233.936 74.7825ZM236.16 78.0504C235.907 78.0504 235.664 78.0175 235.431 77.9516C235.198 77.8818 235.015 77.7946 234.883 77.6899L235.116 77.248C235.252 77.3449 235.418 77.4224 235.612 77.4806C235.806 77.5387 236.003 77.5678 236.201 77.5678C236.691 77.5678 236.936 77.4282 236.936 77.1491C236.936 77.0561 236.903 76.9824 236.837 76.9281C236.771 76.8739 236.687 76.8351 236.586 76.8119C236.489 76.7847 236.349 76.7556 236.166 76.7246C235.917 76.6859 235.713 76.6413 235.554 76.5909C235.398 76.5405 235.264 76.4552 235.151 76.335C235.039 76.2149 234.982 76.0462 234.982 75.8292C234.982 75.55 235.099 75.3271 235.332 75.1604C235.565 74.9899 235.878 74.9046 236.271 74.9046C236.477 74.9046 236.683 74.9298 236.889 74.9802C237.095 75.0306 237.264 75.0984 237.396 75.1837L237.157 75.6256C236.905 75.4628 236.607 75.3814 236.265 75.3814C236.028 75.3814 235.847 75.4202 235.723 75.4977C235.598 75.5752 235.536 75.678 235.536 75.8059C235.536 75.9067 235.571 75.9862 235.641 76.0443C235.711 76.1024 235.797 76.1451 235.898 76.1722C236.003 76.1994 236.149 76.2304 236.335 76.2653C236.584 76.3079 236.784 76.3544 236.936 76.4048C237.091 76.4513 237.223 76.5327 237.332 76.649C237.441 76.7653 237.496 76.9281 237.496 77.1375C237.496 77.4166 237.375 77.6395 237.134 77.8062C236.897 77.969 236.572 78.0504 236.16 78.0504Z" fill="white"/>
<path d="M256.197 73.9452V78.0156H255.62V74.4511H254.698V73.9452H256.197ZM262.208 77.0154H261.432V78.0156H260.866V77.0154H258.598V76.6084L260.685 73.9452H261.315L259.315 76.5154H260.884V75.6315H261.432V76.5154H262.208V77.0154ZM264.225 78.0621C263.902 78.0621 263.614 77.9807 263.362 77.8179C263.113 77.6512 262.917 77.4108 262.773 77.0968C262.629 76.7828 262.557 76.4107 262.557 75.9804C262.557 75.5501 262.629 75.1779 262.773 74.8639C262.917 74.5499 263.113 74.3115 263.362 74.1487C263.614 73.982 263.902 73.8987 264.225 73.8987C264.544 73.8987 264.827 73.982 265.076 74.1487C265.329 74.3115 265.527 74.5499 265.671 74.8639C265.815 75.1779 265.887 75.5501 265.887 75.9804C265.887 76.4107 265.815 76.7828 265.671 77.0968C265.527 77.4108 265.329 77.6512 265.076 77.8179C264.827 77.9807 264.544 78.0621 264.225 78.0621ZM264.225 77.5446C264.551 77.5446 264.812 77.4108 265.006 77.1434C265.205 76.8759 265.304 76.4882 265.304 75.9804C265.304 75.4726 265.205 75.0849 265.006 74.8174C264.812 74.5499 264.551 74.4162 264.225 74.4162C263.894 74.4162 263.63 74.5499 263.432 74.8174C263.237 75.0849 263.14 75.4726 263.14 75.9804C263.14 76.4882 263.237 76.8759 263.432 77.1434C263.63 77.4108 263.894 77.5446 264.225 77.5446ZM268.115 78.0621C267.792 78.0621 267.504 77.9807 267.251 77.8179C267.003 77.6512 266.806 77.4108 266.662 77.0968C266.519 76.7828 266.447 76.4107 266.447 75.9804C266.447 75.5501 266.519 75.1779 266.662 74.8639C266.806 74.5499 267.003 74.3115 267.251 74.1487C267.504 73.982 267.792 73.8987 268.115 73.8987C268.433 73.8987 268.717 73.982 268.966 74.1487C269.219 74.3115 269.417 74.5499 269.561 74.8639C269.705 75.1779 269.777 75.5501 269.777 75.9804C269.777 76.4107 269.705 76.7828 269.561 77.0968C269.417 77.4108 269.219 77.6512 268.966 77.8179C268.717 77.9807 268.433 78.0621 268.115 78.0621ZM268.115 77.5446C268.441 77.5446 268.702 77.4108 268.896 77.1434C269.094 76.8759 269.193 76.4882 269.193 75.9804C269.193 75.4726 269.094 75.0849 268.896 74.8174C268.702 74.5499 268.441 74.4162 268.115 74.4162C267.784 74.4162 267.52 74.5499 267.321 74.8174C267.127 75.0849 267.03 75.4726 267.03 75.9804C267.03 76.4882 267.127 76.8759 267.321 77.1434C267.52 77.4108 267.784 77.5446 268.115 77.5446Z" fill="white"/>
<path d="M287.212 76.2246H290.128V76.6142H287.212V76.2246Z" fill="white"/>
<path d="M315.885 76.2246H318.801V76.6142H315.885V76.2246Z" fill="white"/>
<path d="M340.183 85.2839H213.83C212.756 85.2839 211.886 86.1517 211.886 87.2222V97.8827C211.886 98.9532 212.756 99.821 213.83 99.821H340.183C341.257 99.821 342.127 98.9532 342.127 97.8827V87.2222C342.127 86.1517 341.257 85.2839 340.183 85.2839Z" fill="#FFC783"/>
<path d="M225.051 90.1763V94.4909H224.515V94.0024C224.39 94.173 224.233 94.3029 224.042 94.392C223.852 94.4812 223.642 94.5258 223.413 94.5258C223.113 94.5258 222.845 94.4599 222.608 94.3281C222.371 94.1963 222.184 94.0121 222.048 93.7757C221.916 93.5353 221.85 93.2601 221.85 92.9499C221.85 92.6398 221.916 92.3665 222.048 92.1301C222.184 91.8936 222.371 91.7095 222.608 91.5776C222.845 91.4458 223.113 91.3799 223.413 91.3799C223.634 91.3799 223.838 91.4226 224.025 91.5079C224.211 91.5893 224.367 91.7114 224.491 91.8742V90.1763H225.051ZM223.459 94.0373C223.654 94.0373 223.83 93.9927 223.99 93.9036C224.149 93.8105 224.274 93.6826 224.363 93.5198C224.452 93.3531 224.497 93.1632 224.497 92.9499C224.497 92.7367 224.452 92.5487 224.363 92.3859C224.274 92.2192 224.149 92.0913 223.99 92.0021C223.83 91.913 223.654 91.8684 223.459 91.8684C223.261 91.8684 223.082 91.913 222.923 92.0021C222.767 92.0913 222.643 92.2192 222.549 92.3859C222.46 92.5487 222.415 92.7367 222.415 92.9499C222.415 93.1632 222.46 93.3531 222.549 93.5198C222.643 93.6826 222.767 93.8105 222.923 93.9036C223.082 93.9927 223.261 94.0373 223.459 94.0373ZM227.108 91.2578L227.802 91.6474L227.621 91.9672L226.915 91.5544L226.921 92.3452H226.571L226.577 91.5544L225.872 91.9672L225.691 91.6474L226.391 91.2578L225.691 90.874L225.872 90.5484L226.577 90.9613L226.571 90.1763H226.921L226.915 90.9613L227.621 90.5484L227.802 90.874L227.108 91.2578ZM229.557 91.2578L230.251 91.6474L230.07 91.9672L229.364 91.5544L229.37 92.3452H229.02L229.026 91.5544L228.32 91.9672L228.14 91.6474L228.839 91.2578L228.14 90.874L228.32 90.5484L229.026 90.9613L229.02 90.1763H229.37L229.364 90.9613L230.07 90.5484L230.251 90.874L229.557 91.2578ZM232.006 91.2578L232.7 91.6474L232.519 91.9672L231.813 91.5544L231.819 92.3452H231.469L231.475 91.5544L230.769 91.9672L230.588 91.6474L231.288 91.2578L230.588 90.874L230.769 90.5484L231.475 90.9613L231.469 90.1763H231.819L231.813 90.9613L232.519 90.5484L232.7 90.874L232.006 91.2578ZM234.454 91.2578L235.148 91.6474L234.968 91.9672L234.262 91.5544L234.268 92.3452H233.918L233.924 91.5544L233.218 91.9672L233.037 91.6474L233.737 91.2578L233.037 90.874L233.218 90.5484L233.924 90.9613L233.918 90.1763H234.268L234.262 90.9613L234.968 90.5484L235.148 90.874L234.454 91.2578ZM236.679 94.5258C236.426 94.5258 236.183 94.4928 235.95 94.4269C235.716 94.3571 235.534 94.2699 235.402 94.1652L235.635 93.7233C235.771 93.8202 235.936 93.8978 236.131 93.9559C236.325 94.0141 236.521 94.0431 236.72 94.0431C237.209 94.0431 237.454 93.9036 237.454 93.6245C237.454 93.5314 237.421 93.4578 237.355 93.4035C237.289 93.3492 237.205 93.3105 237.104 93.2872C237.007 93.2601 236.867 93.231 236.685 93.2C236.436 93.1612 236.232 93.1166 236.072 93.0662C235.917 93.0158 235.783 92.9306 235.67 92.8104C235.557 92.6902 235.501 92.5216 235.501 92.3045C235.501 92.0254 235.617 91.8025 235.851 91.6358C236.084 91.4652 236.397 91.3799 236.789 91.3799C236.996 91.3799 237.202 91.4051 237.408 91.4555C237.614 91.5059 237.783 91.5738 237.915 91.6591L237.676 92.101C237.423 91.9382 237.126 91.8568 236.784 91.8568C236.547 91.8568 236.366 91.8955 236.241 91.9731C236.117 92.0506 236.055 92.1533 236.055 92.2812C236.055 92.382 236.09 92.4615 236.16 92.5197C236.23 92.5778 236.315 92.6204 236.416 92.6476C236.521 92.6747 236.667 92.7057 236.854 92.7406C237.102 92.7833 237.303 92.8298 237.454 92.8802C237.61 92.9267 237.742 93.0081 237.851 93.1244C237.96 93.2407 238.014 93.4035 238.014 93.6128C238.014 93.8919 237.894 94.1148 237.653 94.2815C237.415 94.4444 237.091 94.5258 236.679 94.5258Z" fill="white"/>
<path d="M256.693 92.0196C256.961 92.0196 257.2 92.07 257.41 92.1708C257.624 92.2716 257.791 92.417 257.912 92.6069C258.032 92.793 258.092 93.0081 258.092 93.2524C258.092 93.5082 258.028 93.7331 257.9 93.9269C257.776 94.1207 257.603 94.2719 257.381 94.3804C257.163 94.4851 256.918 94.5374 256.646 94.5374C256.098 94.5374 255.674 94.3611 255.375 94.0083C255.079 93.6555 254.932 93.1555 254.932 92.5081C254.932 92.0545 255.011 91.6688 255.171 91.3509C255.334 91.0292 255.56 90.7869 255.847 90.6241C256.139 90.4574 256.477 90.374 256.862 90.374C257.06 90.374 257.247 90.3953 257.422 90.438C257.597 90.4768 257.748 90.5349 257.877 90.6124L257.655 91.066C257.461 90.9381 257.2 90.8741 256.874 90.8741C256.45 90.8741 256.117 91.0059 255.876 91.2695C255.635 91.5292 255.515 91.9091 255.515 92.4092C255.515 92.4712 255.517 92.5197 255.521 92.5546C255.637 92.3801 255.797 92.2483 255.999 92.1592C256.205 92.0661 256.436 92.0196 256.693 92.0196ZM256.623 94.0664C256.891 94.0664 257.109 93.9947 257.276 93.8513C257.443 93.7079 257.527 93.516 257.527 93.2756C257.527 93.0353 257.441 92.8453 257.27 92.7058C257.103 92.5623 256.877 92.4906 256.594 92.4906C256.411 92.4906 256.248 92.5255 256.104 92.5953C255.964 92.6651 255.853 92.76 255.771 92.8802C255.694 93.0004 255.655 93.1341 255.655 93.2814C255.655 93.4249 255.692 93.5567 255.766 93.6769C255.843 93.7932 255.954 93.8881 256.098 93.9618C256.246 94.0316 256.421 94.0664 256.623 94.0664ZM260.199 94.5374C259.876 94.5374 259.588 94.456 259.336 94.2932C259.087 94.1265 258.89 93.8862 258.747 93.5722C258.603 93.2582 258.531 92.886 258.531 92.4557C258.531 92.0254 258.603 91.6533 258.747 91.3393C258.89 91.0253 259.087 90.7869 259.336 90.6241C259.588 90.4574 259.876 90.374 260.199 90.374C260.517 90.374 260.801 90.4574 261.05 90.6241C261.303 90.7869 261.501 91.0253 261.645 91.3393C261.789 91.6533 261.861 92.0254 261.861 92.4557C261.861 92.886 261.789 93.2582 261.645 93.5722C261.501 93.8862 261.303 94.1265 261.05 94.2932C260.801 94.456 260.517 94.5374 260.199 94.5374ZM260.199 94.0199C260.525 94.0199 260.786 93.8862 260.98 93.6187C261.178 93.3512 261.278 92.9636 261.278 92.4557C261.278 91.9479 261.178 91.5602 260.98 91.2928C260.786 91.0253 260.525 90.8915 260.199 90.8915C259.868 90.8915 259.604 91.0253 259.406 91.2928C259.211 91.5602 259.114 91.9479 259.114 92.4557C259.114 92.9636 259.211 93.3512 259.406 93.6187C259.604 93.8862 259.868 94.0199 260.199 94.0199ZM264.088 94.5374C263.766 94.5374 263.478 94.456 263.225 94.2932C262.977 94.1265 262.78 93.8862 262.636 93.5722C262.492 93.2582 262.421 92.886 262.421 92.4557C262.421 92.0254 262.492 91.6533 262.636 91.3393C262.78 91.0253 262.977 90.7869 263.225 90.6241C263.478 90.4574 263.766 90.374 264.088 90.374C264.407 90.374 264.691 90.4574 264.94 90.6241C265.193 90.7869 265.391 91.0253 265.535 91.3393C265.679 91.6533 265.75 92.0254 265.75 92.4557C265.75 92.886 265.679 93.2582 265.535 93.5722C265.391 93.8862 265.193 94.1265 264.94 94.2932C264.691 94.456 264.407 94.5374 264.088 94.5374ZM264.088 94.0199C264.415 94.0199 264.675 93.8862 264.87 93.6187C265.068 93.3512 265.167 92.9636 265.167 92.4557C265.167 91.9479 265.068 91.5602 264.87 91.2928C264.675 91.0253 264.415 90.8915 264.088 90.8915C263.758 90.8915 263.494 91.0253 263.295 91.2928C263.101 91.5602 263.004 91.9479 263.004 92.4557C263.004 92.9636 263.101 93.3512 263.295 93.6187C263.494 93.8862 263.758 94.0199 264.088 94.0199Z" fill="white"/>
<path d="M287.212 92.6997H290.128V93.0893H287.212V92.6997Z" fill="white"/>
<path d="M315.885 92.6997H318.801V93.0893H315.885V92.6997Z" fill="white"/>
<path d="M340.183 101.759H213.83C212.756 101.759 211.886 102.627 211.886 103.698V114.358C211.886 115.429 212.756 116.296 213.83 116.296H340.183C341.257 116.296 342.127 115.429 342.127 114.358V103.698C342.127 102.627 341.257 101.759 340.183 101.759Z" fill="#FFC783"/>
<path d="M223.261 107.855C223.689 107.855 224.015 107.96 224.241 108.169C224.47 108.379 224.585 108.691 224.585 109.105V110.966H224.054V110.559C223.961 110.703 223.827 110.813 223.652 110.891C223.481 110.964 223.277 111.001 223.039 111.001C222.693 111.001 222.416 110.918 222.206 110.751C222 110.584 221.896 110.365 221.896 110.094C221.896 109.823 221.996 109.606 222.194 109.443C222.392 109.276 222.707 109.193 223.139 109.193H224.025V109.082C224.025 108.842 223.955 108.658 223.815 108.53C223.675 108.402 223.469 108.338 223.197 108.338C223.014 108.338 222.835 108.369 222.66 108.431C222.485 108.489 222.338 108.569 222.217 108.669L221.984 108.251C222.143 108.123 222.334 108.026 222.555 107.96C222.777 107.89 223.012 107.855 223.261 107.855ZM223.133 110.571C223.347 110.571 223.531 110.524 223.687 110.431C223.842 110.334 223.955 110.199 224.025 110.024V109.594H223.162C222.688 109.594 222.45 109.753 222.45 110.071C222.45 110.226 222.511 110.348 222.631 110.437C222.752 110.526 222.919 110.571 223.133 110.571ZM226.459 107.733L227.153 108.123L226.972 108.443L226.266 108.03L226.272 108.821H225.922L225.928 108.03L225.223 108.443L225.042 108.123L225.742 107.733L225.042 107.349L225.223 107.024L225.928 107.437L225.922 106.652H226.272L226.266 107.437L226.972 107.024L227.153 107.349L226.459 107.733ZM228.908 107.733L229.602 108.123L229.421 108.443L228.715 108.03L228.721 108.821H228.371L228.377 108.03L227.671 108.443L227.491 108.123L228.19 107.733L227.491 107.349L227.671 107.024L228.377 107.437L228.371 106.652H228.721L228.715 107.437L229.421 107.024L229.602 107.349L228.908 107.733ZM231.357 107.733L232.05 108.123L231.87 108.443L231.164 108.03L231.17 108.821H230.82L230.826 108.03L230.12 108.443L229.939 108.123L230.639 107.733L229.939 107.349L230.12 107.024L230.826 107.437L230.82 106.652H231.17L231.164 107.437L231.87 107.024L232.05 107.349L231.357 107.733ZM233.805 107.733L234.499 108.123L234.319 108.443L233.613 108.03L233.619 108.821H233.269L233.275 108.03L232.569 108.443L232.388 108.123L233.088 107.733L232.388 107.349L232.569 107.024L233.275 107.437L233.269 106.652H233.619L233.613 107.437L234.319 107.024L234.499 107.349L233.805 107.733ZM237.839 109.443C237.839 109.485 237.836 109.542 237.828 109.611H235.32C235.355 109.883 235.474 110.102 235.676 110.268C235.882 110.431 236.137 110.513 236.44 110.513C236.809 110.513 237.107 110.389 237.332 110.141L237.641 110.501C237.501 110.664 237.326 110.788 237.116 110.873C236.91 110.958 236.679 111.001 236.422 111.001C236.096 111.001 235.806 110.935 235.553 110.803C235.301 110.668 235.104 110.48 234.964 110.239C234.828 109.999 234.76 109.728 234.76 109.425C234.76 109.127 234.826 108.857 234.959 108.617C235.095 108.377 235.279 108.191 235.513 108.059C235.75 107.923 236.016 107.855 236.312 107.855C236.607 107.855 236.869 107.923 237.099 108.059C237.332 108.191 237.513 108.377 237.641 108.617C237.773 108.857 237.839 109.133 237.839 109.443ZM236.312 108.326C236.043 108.326 235.818 108.408 235.635 108.571C235.456 108.733 235.351 108.947 235.32 109.21H237.303C237.272 108.95 237.165 108.739 236.982 108.576C236.803 108.41 236.58 108.326 236.312 108.326Z" fill="white"/>
<path d="M257.801 110.46V110.966H254.867V110.571L256.53 108.972C256.732 108.778 256.868 108.611 256.938 108.471C257.008 108.328 257.043 108.185 257.043 108.041C257.043 107.828 256.967 107.663 256.815 107.547C256.668 107.427 256.454 107.367 256.174 107.367C255.723 107.367 255.375 107.514 255.13 107.809L254.733 107.465C254.893 107.272 255.101 107.12 255.357 107.012C255.618 106.903 255.907 106.849 256.226 106.849C256.654 106.849 256.994 106.952 257.247 107.157C257.5 107.359 257.626 107.634 257.626 107.983C257.626 108.2 257.579 108.406 257.486 108.599C257.393 108.793 257.216 109.014 256.955 109.262L255.707 110.46H257.801ZM262.82 106.896V107.291L261.17 110.966H260.552L262.167 107.402H260.301V108.128H259.741V106.896H262.82ZM264.886 111.013C264.563 111.013 264.276 110.931 264.023 110.768C263.774 110.602 263.578 110.361 263.434 110.047C263.29 109.733 263.218 109.361 263.218 108.931C263.218 108.501 263.29 108.128 263.434 107.814C263.578 107.5 263.774 107.262 264.023 107.099C264.276 106.932 264.563 106.849 264.886 106.849C265.205 106.849 265.488 106.932 265.737 107.099C265.99 107.262 266.188 107.5 266.332 107.814C266.476 108.128 266.548 108.501 266.548 108.931C266.548 109.361 266.476 109.733 266.332 110.047C266.188 110.361 265.99 110.602 265.737 110.768C265.488 110.931 265.205 111.013 264.886 111.013ZM264.886 110.495C265.212 110.495 265.473 110.361 265.667 110.094C265.866 109.826 265.965 109.439 265.965 108.931C265.965 108.423 265.866 108.035 265.667 107.768C265.473 107.5 265.212 107.367 264.886 107.367C264.555 107.367 264.291 107.5 264.093 107.768C263.898 108.035 263.801 108.423 263.801 108.931C263.801 109.439 263.898 109.826 264.093 110.094C264.291 110.361 264.555 110.495 264.886 110.495ZM268.776 111.013C268.453 111.013 268.165 110.931 267.913 110.768C267.664 110.602 267.467 110.361 267.324 110.047C267.18 109.733 267.108 109.361 267.108 108.931C267.108 108.501 267.18 108.128 267.324 107.814C267.467 107.5 267.664 107.262 267.913 107.099C268.165 106.932 268.453 106.849 268.776 106.849C269.094 106.849 269.378 106.932 269.627 107.099C269.88 107.262 270.078 107.5 270.222 107.814C270.366 108.128 270.438 108.501 270.438 108.931C270.438 109.361 270.366 109.733 270.222 110.047C270.078 110.361 269.88 110.602 269.627 110.768C269.378 110.931 269.094 111.013 268.776 111.013ZM268.776 110.495C269.102 110.495 269.363 110.361 269.557 110.094C269.755 109.826 269.854 109.439 269.854 108.931C269.854 108.423 269.755 108.035 269.557 107.768C269.363 107.5 269.102 107.367 268.776 107.367C268.445 107.367 268.181 107.5 267.983 107.768C267.788 108.035 267.691 108.423 267.691 108.931C267.691 109.439 267.788 109.826 267.983 110.094C268.181 110.361 268.445 110.495 268.776 110.495Z" fill="white"/>
<path d="M287.212 109.175H290.128V109.565H287.212V109.175Z" fill="white"/>
<path d="M315.885 109.175H318.801V109.565H315.885V109.175Z" fill="white"/>
<path d="M340.184 118.477H213.83C212.89 118.477 212.129 119.236 212.129 120.173V130.833C212.129 131.77 212.89 132.529 213.83 132.529H340.184C341.123 132.529 341.884 131.77 341.884 130.833V120.173C341.884 119.236 341.123 118.477 340.184 118.477Z" fill="#FFC783" stroke="#439F15"/>
<path d="M223.022 127.476C222.77 127.476 222.527 127.443 222.293 127.377C222.06 127.308 221.877 127.22 221.745 127.116L221.978 126.674C222.114 126.771 222.28 126.848 222.474 126.906C222.668 126.965 222.865 126.994 223.063 126.994C223.553 126.994 223.798 126.854 223.798 126.575C223.798 126.482 223.765 126.408 223.699 126.354C223.633 126.3 223.549 126.261 223.448 126.238C223.351 126.211 223.211 126.181 223.028 126.15C222.779 126.112 222.575 126.067 222.416 126.017C222.26 125.966 222.126 125.881 222.013 125.761C221.901 125.641 221.844 125.472 221.844 125.255C221.844 124.976 221.961 124.753 222.194 124.586C222.427 124.416 222.74 124.33 223.133 124.33C223.339 124.33 223.545 124.356 223.751 124.406C223.957 124.456 224.126 124.524 224.259 124.609L224.019 125.051C223.767 124.889 223.469 124.807 223.127 124.807C222.89 124.807 222.709 124.846 222.585 124.923C222.46 125.001 222.398 125.104 222.398 125.232C222.398 125.332 222.433 125.412 222.503 125.47C222.573 125.528 222.659 125.571 222.76 125.598C222.865 125.625 223.011 125.656 223.197 125.691C223.446 125.734 223.646 125.78 223.798 125.831C223.953 125.877 224.086 125.959 224.194 126.075C224.303 126.191 224.358 126.354 224.358 126.563C224.358 126.842 224.237 127.065 223.996 127.232C223.759 127.395 223.434 127.476 223.022 127.476ZM226.055 124.208L226.749 124.598L226.568 124.918L225.862 124.505L225.868 125.296H225.518L225.524 124.505L224.818 124.918L224.638 124.598L225.337 124.208L224.638 123.824L224.818 123.499L225.524 123.912L225.518 123.127H225.868L225.862 123.912L226.568 123.499L226.749 123.824L226.055 124.208ZM228.504 124.208L229.198 124.598L229.017 124.918L228.311 124.505L228.317 125.296H227.967L227.973 124.505L227.267 124.918L227.086 124.598L227.786 124.208L227.086 123.824L227.267 123.499L227.973 123.912L227.967 123.127H228.317L228.311 123.912L229.017 123.499L229.198 123.824L228.504 124.208ZM230.952 124.208L231.646 124.598L231.466 124.918L230.76 124.505L230.766 125.296H230.416L230.422 124.505L229.716 124.918L229.535 124.598L230.235 124.208L229.535 123.824L229.716 123.499L230.422 123.912L230.416 123.127H230.766L230.76 123.912L231.466 123.499L231.646 123.824L230.952 124.208ZM233.401 124.208L234.095 124.598L233.914 124.918L233.209 124.505L233.215 125.296H232.865L232.871 124.505L232.165 124.918L231.984 124.598L232.684 124.208L231.984 123.824L232.165 123.499L232.871 123.912L232.865 123.127H233.215L233.209 123.912L233.914 123.499L234.095 123.824L233.401 124.208ZM239.661 124.359L238.506 127.441H237.97L237.078 125.104L236.174 127.441H235.637L234.488 124.359H235.019L235.917 126.813L236.85 124.359H237.323L238.238 126.825L239.16 124.359H239.661Z" fill="white"/>
<path d="M257.427 125.307C257.661 125.396 257.84 125.524 257.964 125.691C258.088 125.858 258.151 126.057 258.151 126.29C258.151 126.534 258.085 126.747 257.952 126.93C257.82 127.108 257.632 127.246 257.387 127.342C257.142 127.439 256.854 127.488 256.524 127.488C256.197 127.488 255.911 127.439 255.666 127.342C255.425 127.246 255.239 127.108 255.106 126.93C254.974 126.747 254.908 126.534 254.908 126.29C254.908 126.057 254.968 125.858 255.089 125.691C255.213 125.524 255.392 125.396 255.626 125.307C255.439 125.218 255.297 125.1 255.2 124.953C255.103 124.805 255.054 124.631 255.054 124.429C255.054 124.204 255.114 124.009 255.235 123.842C255.359 123.675 255.532 123.547 255.754 123.458C255.975 123.369 256.232 123.324 256.524 123.324C256.819 123.324 257.078 123.369 257.299 123.458C257.525 123.547 257.698 123.675 257.818 123.842C257.943 124.009 258.005 124.204 258.005 124.429C258.005 124.627 257.954 124.801 257.853 124.953C257.756 125.1 257.614 125.218 257.427 125.307ZM256.524 123.795C256.248 123.795 256.03 123.856 255.87 123.976C255.711 124.092 255.631 124.251 255.631 124.453C255.631 124.654 255.709 124.813 255.865 124.929C256.024 125.046 256.244 125.104 256.524 125.104C256.807 125.104 257.029 125.046 257.188 124.929C257.352 124.813 257.433 124.654 257.433 124.453C257.433 124.251 257.35 124.092 257.183 123.976C257.019 123.856 256.8 123.795 256.524 123.795ZM256.524 127.017C256.846 127.017 257.101 126.951 257.288 126.819C257.474 126.683 257.567 126.501 257.567 126.273C257.567 126.048 257.474 125.871 257.288 125.743C257.101 125.612 256.846 125.546 256.524 125.546C256.201 125.546 255.948 125.612 255.765 125.743C255.583 125.871 255.491 126.048 255.491 126.273C255.491 126.501 255.583 126.683 255.765 126.819C255.948 126.951 256.201 127.017 256.524 127.017ZM261.813 125.081C262.214 125.119 262.519 125.243 262.729 125.453C262.939 125.658 263.044 125.922 263.044 126.244C263.044 126.476 262.986 126.687 262.869 126.877C262.752 127.063 262.577 127.213 262.344 127.325C262.115 127.434 261.833 127.488 261.499 127.488C261.207 127.488 260.927 127.445 260.659 127.36C260.391 127.271 260.171 127.149 260 126.994L260.268 126.534C260.408 126.666 260.587 126.773 260.805 126.854C261.022 126.932 261.254 126.97 261.499 126.97C261.802 126.97 262.037 126.906 262.204 126.778C262.375 126.651 262.461 126.474 262.461 126.249C262.461 126.024 262.377 125.85 262.21 125.726C262.043 125.602 261.79 125.54 261.452 125.54H261.125V125.133L262.152 123.877H260.186V123.371H262.881V123.766L261.813 125.081ZM265.256 127.488C264.933 127.488 264.646 127.406 264.393 127.244C264.144 127.077 263.948 126.837 263.804 126.523C263.66 126.209 263.588 125.836 263.588 125.406C263.588 124.976 263.66 124.604 263.804 124.29C263.948 123.976 264.144 123.737 264.393 123.575C264.646 123.408 264.933 123.324 265.256 123.324C265.575 123.324 265.859 123.408 266.108 123.575C266.36 123.737 266.559 123.976 266.702 124.29C266.846 124.604 266.918 124.976 266.918 125.406C266.918 125.836 266.846 126.209 266.702 126.523C266.559 126.837 266.36 127.077 266.108 127.244C265.859 127.406 265.575 127.488 265.256 127.488ZM265.256 126.97C265.583 126.97 265.843 126.837 266.038 126.569C266.236 126.302 266.335 125.914 266.335 125.406C266.335 124.898 266.236 124.511 266.038 124.243C265.843 123.976 265.583 123.842 265.256 123.842C264.926 123.842 264.661 123.976 264.463 124.243C264.269 124.511 264.171 124.898 264.171 125.406C264.171 125.914 264.269 126.302 264.463 126.569C264.661 126.837 264.926 126.97 265.256 126.97ZM269.145 127.488C268.823 127.488 268.535 127.406 268.282 127.244C268.033 127.077 267.837 126.837 267.693 126.523C267.549 126.209 267.477 125.836 267.477 125.406C267.477 124.976 267.549 124.604 267.693 124.29C267.837 123.976 268.033 123.737 268.282 123.575C268.535 123.408 268.823 123.324 269.145 123.324C269.464 123.324 269.748 123.408 269.997 123.575C270.249 123.737 270.448 123.976 270.592 124.29C270.735 124.604 270.807 124.976 270.807 125.406C270.807 125.836 270.735 126.209 270.592 126.523C270.448 126.837 270.249 127.077 269.997 127.244C269.748 127.406 269.464 127.488 269.145 127.488ZM269.145 126.97C269.472 126.97 269.732 126.837 269.927 126.569C270.125 126.302 270.224 125.914 270.224 125.406C270.224 124.898 270.125 124.511 269.927 124.243C269.732 123.976 269.472 123.842 269.145 123.842C268.815 123.842 268.551 123.976 268.352 124.243C268.158 124.511 268.061 124.898 268.061 125.406C268.061 125.914 268.158 126.302 268.352 126.569C268.551 126.837 268.815 126.97 269.145 126.97Z" fill="white"/>
<path d="M290.36 126.935V127.441H287.427V127.046L289.089 125.447C289.291 125.253 289.427 125.086 289.497 124.947C289.567 124.803 289.602 124.66 289.602 124.516C289.602 124.303 289.527 124.139 289.375 124.022C289.227 123.902 289.013 123.842 288.733 123.842C288.282 123.842 287.934 123.989 287.69 124.284L287.293 123.941C287.452 123.747 287.66 123.596 287.917 123.487C288.177 123.379 288.467 123.324 288.786 123.324C289.214 123.324 289.554 123.427 289.806 123.633C290.059 123.834 290.185 124.109 290.185 124.458C290.185 124.675 290.139 124.881 290.046 125.075C289.952 125.269 289.775 125.49 289.515 125.738L288.267 126.935H290.36ZM291.282 127.476C291.173 127.476 291.08 127.439 291.002 127.366C290.924 127.288 290.885 127.191 290.885 127.075C290.885 126.963 290.924 126.87 291.002 126.796C291.08 126.718 291.173 126.68 291.282 126.68C291.391 126.68 291.482 126.716 291.556 126.79C291.63 126.864 291.667 126.959 291.667 127.075C291.667 127.191 291.628 127.288 291.55 127.366C291.476 127.439 291.387 127.476 291.282 127.476ZM295.718 126.441H294.943V127.441H294.377V126.441H292.109V126.034L294.196 123.371H294.826L292.826 125.941H294.395V125.057H294.943V125.941H295.718V126.441Z" fill="#439F15"/>
<path d="M318.062 126.935V127.441H315.128V127.046L316.79 125.447C316.992 125.253 317.129 125.086 317.198 124.947C317.268 124.803 317.303 124.66 317.303 124.516C317.303 124.303 317.228 124.139 317.076 124.022C316.928 123.902 316.714 123.842 316.435 123.842C315.984 123.842 315.636 123.989 315.391 124.284L314.994 123.941C315.154 123.747 315.362 123.596 315.618 123.487C315.879 123.379 316.168 123.324 316.487 123.324C316.915 123.324 317.255 123.427 317.508 123.633C317.76 123.834 317.887 124.109 317.887 124.458C317.887 124.675 317.84 124.881 317.747 125.075C317.653 125.269 317.476 125.49 317.216 125.738L315.968 126.935H318.062ZM320.104 125.081C320.505 125.119 320.81 125.243 321.02 125.453C321.23 125.658 321.335 125.922 321.335 126.244C321.335 126.476 321.276 126.687 321.16 126.877C321.043 127.063 320.868 127.213 320.635 127.325C320.405 127.434 320.124 127.488 319.789 127.488C319.498 127.488 319.218 127.445 318.949 127.36C318.681 127.271 318.462 127.149 318.29 126.994L318.559 126.534C318.699 126.666 318.878 126.773 319.095 126.854C319.313 126.932 319.544 126.97 319.789 126.97C320.092 126.97 320.328 126.906 320.495 126.778C320.666 126.651 320.751 126.474 320.751 126.249C320.751 126.024 320.668 125.85 320.501 125.726C320.334 125.602 320.081 125.54 319.743 125.54H319.416V125.133L320.442 123.877H318.477V123.371H321.171V123.766L320.104 125.081ZM325.007 125.081C325.408 125.119 325.713 125.243 325.923 125.453C326.133 125.658 326.238 125.922 326.238 126.244C326.238 126.476 326.179 126.687 326.063 126.877C325.946 127.063 325.771 127.213 325.538 127.325C325.308 127.434 325.027 127.488 324.692 127.488C324.401 127.488 324.121 127.445 323.852 127.36C323.584 127.271 323.365 127.149 323.193 126.994L323.462 126.534C323.602 126.666 323.781 126.773 323.998 126.854C324.216 126.932 324.447 126.97 324.692 126.97C324.996 126.97 325.231 126.906 325.398 126.778C325.569 126.651 325.654 126.474 325.654 126.249C325.654 126.024 325.571 125.85 325.404 125.726C325.237 125.602 324.984 125.54 324.646 125.54H324.319V125.133L325.345 123.877H323.38V123.371H326.074V123.766L325.007 125.081ZM329.622 126.935V127.441H326.689V127.046L328.351 125.447C328.553 125.253 328.689 125.086 328.759 124.947C328.829 124.803 328.864 124.66 328.864 124.516C328.864 124.303 328.789 124.139 328.637 124.022C328.489 123.902 328.275 123.842 327.995 123.842C327.544 123.842 327.196 123.989 326.952 124.284L326.555 123.941C326.714 123.747 326.922 123.596 327.179 123.487C327.439 123.379 327.729 123.324 328.048 123.324C328.476 123.324 328.816 123.427 329.068 123.633C329.321 123.834 329.448 124.109 329.448 124.458C329.448 124.675 329.401 124.881 329.308 125.075C329.214 125.269 329.037 125.49 328.777 125.738L327.529 126.935H329.622ZM331.753 127.488C331.43 127.488 331.143 127.406 330.89 127.244C330.641 127.077 330.445 126.837 330.301 126.523C330.157 126.209 330.085 125.836 330.085 125.406C330.085 124.976 330.157 124.604 330.301 124.29C330.445 123.976 330.641 123.737 330.89 123.575C331.143 123.408 331.43 123.324 331.753 123.324C332.072 123.324 332.356 123.408 332.604 123.575C332.857 123.737 333.055 123.976 333.199 124.29C333.343 124.604 333.415 124.976 333.415 125.406C333.415 125.836 333.343 126.209 333.199 126.523C333.055 126.837 332.857 127.077 332.604 127.244C332.356 127.406 332.072 127.488 331.753 127.488ZM331.753 126.97C332.08 126.97 332.34 126.837 332.534 126.569C332.733 126.302 332.832 125.914 332.832 125.406C332.832 124.898 332.733 124.511 332.534 124.243C332.34 123.976 332.08 123.842 331.753 123.842C331.423 123.842 331.158 123.976 330.96 124.243C330.765 124.511 330.668 124.898 330.668 125.406C330.668 125.914 330.765 126.302 330.96 126.569C331.158 126.837 331.423 126.97 331.753 126.97Z" fill="#439F15"/>
<path d="M340.183 134.71H213.83C212.756 134.71 211.886 135.578 211.886 136.648V147.309C211.886 148.379 212.756 149.247 213.83 149.247H340.183C341.257 149.247 342.127 148.379 342.127 147.309V136.648C342.127 135.578 341.257 134.71 340.183 134.71Z" fill="#FFC783"/>
<path d="M223.261 140.806C223.689 140.806 224.015 140.91 224.241 141.12C224.47 141.329 224.585 141.641 224.585 142.056V143.917H224.054V143.51C223.961 143.653 223.827 143.764 223.652 143.841C223.481 143.915 223.277 143.952 223.039 143.952C222.693 143.952 222.415 143.868 222.206 143.702C222 143.535 221.896 143.316 221.896 143.044C221.896 142.773 221.996 142.556 222.194 142.393C222.392 142.226 222.707 142.143 223.139 142.143H224.025V142.033C224.025 141.792 223.955 141.608 223.815 141.48C223.675 141.352 223.469 141.288 223.197 141.288C223.014 141.288 222.835 141.319 222.66 141.381C222.485 141.44 222.338 141.519 222.217 141.62L221.984 141.201C222.143 141.073 222.334 140.976 222.555 140.91C222.777 140.841 223.012 140.806 223.261 140.806ZM223.133 143.521C223.347 143.521 223.531 143.475 223.687 143.382C223.842 143.285 223.955 143.149 224.025 142.975V142.544H223.162C222.688 142.544 222.45 142.703 222.45 143.021C222.45 143.176 222.511 143.298 222.631 143.387C222.752 143.477 222.919 143.521 223.133 143.521ZM226.459 140.684L227.153 141.073L226.972 141.393L226.266 140.98L226.272 141.771H225.922L225.928 140.98L225.223 141.393L225.042 141.073L225.742 140.684L225.042 140.3L225.223 139.974L225.928 140.387L225.922 139.602H226.272L226.266 140.387L226.972 139.974L227.153 140.3L226.459 140.684ZM228.908 140.684L229.602 141.073L229.421 141.393L228.715 140.98L228.721 141.771H228.371L228.377 140.98L227.671 141.393L227.491 141.073L228.19 140.684L227.491 140.3L227.671 139.974L228.377 140.387L228.371 139.602H228.721L228.715 140.387L229.421 139.974L229.602 140.3L228.908 140.684ZM231.356 140.684L232.05 141.073L231.87 141.393L231.164 140.98L231.17 141.771H230.82L230.826 140.98L230.12 141.393L229.939 141.073L230.639 140.684L229.939 140.3L230.12 139.974L230.826 140.387L230.82 139.602H231.17L231.164 140.387L231.87 139.974L232.05 140.3L231.356 140.684ZM233.805 140.684L234.499 141.073L234.319 141.393L233.613 140.98L233.619 141.771H233.269L233.275 140.98L232.569 141.393L232.388 141.073L233.088 140.684L232.388 140.3L232.569 139.974L233.275 140.387L233.269 139.602H233.619L233.613 140.387L234.319 139.974L234.499 140.3L233.805 140.684ZM236.147 141.352C236.244 141.174 236.388 141.038 236.578 140.945C236.769 140.852 237 140.806 237.272 140.806V141.347C237.241 141.343 237.198 141.341 237.144 141.341C236.841 141.341 236.602 141.432 236.427 141.614C236.256 141.792 236.17 142.048 236.17 142.382V143.917H235.61V140.835H236.147V141.352Z" fill="white"/>
<path d="M257.801 143.411V143.917H254.867V143.521L256.53 141.922C256.732 141.728 256.868 141.562 256.938 141.422C257.008 141.279 257.043 141.135 257.043 140.992C257.043 140.779 256.967 140.614 256.815 140.498C256.668 140.377 256.454 140.317 256.174 140.317C255.723 140.317 255.375 140.465 255.13 140.759L254.733 140.416C254.893 140.222 255.101 140.071 255.357 139.963C255.618 139.854 255.907 139.8 256.226 139.8C256.654 139.8 256.994 139.903 257.247 140.108C257.5 140.31 257.626 140.585 257.626 140.934C257.626 141.151 257.579 141.356 257.486 141.55C257.393 141.744 257.216 141.965 256.955 142.213L255.707 143.411H257.801ZM261.514 143.963C261.192 143.963 260.904 143.882 260.651 143.719C260.402 143.552 260.206 143.312 260.062 142.998C259.918 142.684 259.846 142.312 259.846 141.882C259.846 141.451 259.918 141.079 260.062 140.765C260.206 140.451 260.402 140.213 260.651 140.05C260.904 139.883 261.192 139.8 261.514 139.8C261.833 139.8 262.117 139.883 262.366 140.05C262.618 140.213 262.817 140.451 262.96 140.765C263.104 141.079 263.176 141.451 263.176 141.882C263.176 142.312 263.104 142.684 262.96 142.998C262.817 143.312 262.618 143.552 262.366 143.719C262.117 143.882 261.833 143.963 261.514 143.963ZM261.514 143.446C261.841 143.446 262.101 143.312 262.296 143.044C262.494 142.777 262.593 142.389 262.593 141.882C262.593 141.374 262.494 140.986 262.296 140.719C262.101 140.451 261.841 140.317 261.514 140.317C261.184 140.317 260.919 140.451 260.721 140.719C260.527 140.986 260.43 141.374 260.43 141.882C260.43 142.389 260.527 142.777 260.721 143.044C260.919 143.312 261.184 143.446 261.514 143.446ZM265.404 143.963C265.081 143.963 264.794 143.882 264.541 143.719C264.292 143.552 264.096 143.312 263.952 142.998C263.808 142.684 263.736 142.312 263.736 141.882C263.736 141.451 263.808 141.079 263.952 140.765C264.096 140.451 264.292 140.213 264.541 140.05C264.794 139.883 265.081 139.8 265.404 139.8C265.723 139.8 266.007 139.883 266.255 140.05C266.508 140.213 266.706 140.451 266.85 140.765C266.994 141.079 267.066 141.451 267.066 141.882C267.066 142.312 266.994 142.684 266.85 142.998C266.706 143.312 266.508 143.552 266.255 143.719C266.007 143.882 265.723 143.963 265.404 143.963ZM265.404 143.446C265.731 143.446 265.991 143.312 266.185 143.044C266.384 142.777 266.483 142.389 266.483 141.882C266.483 141.374 266.384 140.986 266.185 140.719C265.991 140.451 265.731 140.317 265.404 140.317C265.074 140.317 264.809 140.451 264.611 140.719C264.416 140.986 264.319 141.374 264.319 141.882C264.319 142.389 264.416 142.777 264.611 143.044C264.809 143.312 265.074 143.446 265.404 143.446ZM269.294 143.963C268.971 143.963 268.683 143.882 268.431 143.719C268.182 143.552 267.985 143.312 267.842 142.998C267.698 142.684 267.626 142.312 267.626 141.882C267.626 141.451 267.698 141.079 267.842 140.765C267.985 140.451 268.182 140.213 268.431 140.05C268.683 139.883 268.971 139.8 269.294 139.8C269.613 139.8 269.896 139.883 270.145 140.05C270.398 140.213 270.596 140.451 270.74 140.765C270.884 141.079 270.956 141.451 270.956 141.882C270.956 142.312 270.884 142.684 270.74 142.998C270.596 143.312 270.398 143.552 270.145 143.719C269.896 143.882 269.613 143.963 269.294 143.963ZM269.294 143.446C269.62 143.446 269.881 143.312 270.075 143.044C270.273 142.777 270.373 142.389 270.373 141.882C270.373 141.374 270.273 140.986 270.075 140.719C269.881 140.451 269.62 140.317 269.294 140.317C268.963 140.317 268.699 140.451 268.501 140.719C268.306 140.986 268.209 141.374 268.209 141.882C268.209 142.389 268.306 142.777 268.501 143.044C268.699 143.312 268.963 143.446 269.294 143.446Z" fill="white"/>
<path d="M287.212 142.126H290.128V142.515H287.212V142.126Z" fill="white"/>
<path d="M315.885 142.126H318.801V142.515H315.885V142.126Z" fill="white"/>
<path d="M345.894 52.6968V101.396" stroke="#FFD7A7" stroke-width="1.5" stroke-linecap="round"/>
<path d="M188.072 34.4043H23.8126C17.9078 34.4043 13.1211 39.1772 13.1211 45.0648V112.904C13.1211 118.792 17.9078 123.565 23.8126 123.565H188.072C193.977 123.565 198.764 118.792 198.764 112.904V45.0648C198.764 39.1772 193.977 34.4043 188.072 34.4043Z" fill="#D8E7FF"/>
<path d="M121.737 123.566V34.4043" stroke="#FA842E"/>
<g filter="url(#filter676)">
<path d="M159.643 90.1297C172.392 90.1297 182.727 79.8246 182.727 67.1127C182.727 54.4008 172.392 44.0957 159.643 44.0957C146.895 44.0957 136.56 54.4008 136.56 67.1127C136.56 79.8246 146.895 90.1297 159.643 90.1297Z" fill="url(#linear_676)"/>
<path d="M159.644 89.8873C172.258 89.8873 182.484 79.6907 182.484 67.1126C182.484 54.5345 172.258 44.3379 159.644 44.3379C147.029 44.3379 136.803 54.5345 136.803 67.1126C136.803 79.6907 147.029 89.8873 159.644 89.8873Z" stroke="#EEEEEE"/>
</g>
<path d="M156.927 67.6669C157.165 67.7328 157.351 67.8529 157.487 68.0274C157.623 68.198 157.691 68.415 157.691 68.6786C157.691 69.0314 157.557 69.3028 157.289 69.4927C157.025 69.6827 156.638 69.7776 156.128 69.7776H154.181V65.7073H156.012C156.478 65.7073 156.838 65.8003 157.091 65.9864C157.347 66.1725 157.476 66.4302 157.476 66.7598C157.476 66.973 157.425 67.1571 157.324 67.3122C157.227 67.4672 157.095 67.5855 156.927 67.6669ZM154.764 66.1783V67.4808H155.959C156.259 67.4808 156.488 67.4265 156.647 67.318C156.811 67.2056 156.892 67.0427 156.892 66.8295C156.892 66.6163 156.811 66.4554 156.647 66.3469C156.488 66.2345 156.259 66.1783 155.959 66.1783H154.764ZM156.105 69.3066C156.436 69.3066 156.684 69.2524 156.852 69.1438C157.019 69.0353 157.102 68.8647 157.102 68.6321C157.102 68.1786 156.77 67.9518 156.105 67.9518H154.764V69.3066H156.105ZM161.557 69.2717V69.7776H158.594V65.7073H161.475V66.2132H159.177V67.4633H161.224V67.9576H159.177V69.2717H161.557ZM163.312 66.2132H161.912V65.7073H165.289V66.2132H163.889V69.7776H163.312V66.2132Z" fill="white"/>
<path d="M137.531 101.032C137.531 98.49 135.464 96.429 132.915 96.429C130.365 96.429 128.298 98.49 128.298 101.032V111.208C128.298 113.751 130.365 115.812 132.915 115.812C135.464 115.812 137.531 113.751 137.531 111.208V101.032Z" fill="#C2FFD3"/>
<path d="M132.914 105.636C135.195 105.636 137.045 103.792 137.045 101.517C137.045 99.2423 135.195 97.3982 132.914 97.3982C130.633 97.3982 128.783 99.2423 128.783 101.517C128.783 103.792 130.633 105.636 132.914 105.636Z" fill="white"/>
<path d="M40.0932 115.812C42.643 115.812 44.71 113.751 44.71 111.208C44.71 108.666 42.643 106.605 40.0932 106.605H29.8877C27.3379 106.605 25.2709 108.666 25.2709 111.208C25.2709 113.751 27.3379 115.812 29.8877 115.812H40.0932Z" fill="#C2FFD3"/>
<path d="M35.4767 111.208C35.4767 113.483 37.3261 115.327 39.6075 115.327C41.8889 115.327 43.7383 113.483 43.7383 111.208C43.7383 108.934 41.8889 107.09 39.6075 107.09C37.3261 107.09 35.4767 108.934 35.4767 111.208Z" fill="white"/>
<path d="M143.879 99.3728H141.89L141.478 100.306H140.928L142.622 96.5745H143.152L144.851 100.306H144.29L143.879 99.3728ZM143.691 98.9464L142.884 97.1181L142.077 98.9464H143.691ZM147.923 97.4806V100.306H147.437V99.8792C147.334 100.025 147.196 100.138 147.025 100.22C146.858 100.298 146.674 100.338 146.475 100.338C146.097 100.338 145.8 100.234 145.582 100.028C145.365 99.8186 145.256 99.5114 145.256 99.1063V97.4806H145.769V99.0477C145.769 99.3215 145.835 99.5293 145.967 99.6713C146.099 99.8099 146.288 99.8792 146.533 99.8792C146.805 99.8792 147.018 99.7973 147.175 99.634C147.332 99.4707 147.41 99.2396 147.41 98.9411V97.4806H147.923ZM150.494 100.14C150.419 100.204 150.326 100.254 150.216 100.29C150.105 100.322 149.991 100.338 149.874 100.338C149.588 100.338 149.367 100.261 149.211 100.108C149.054 99.9558 148.975 99.7372 148.975 99.4528V97.9017H148.494V97.4806H148.975V96.8623H149.489V97.4806H150.301V97.9017H149.489V99.4315C149.489 99.5841 149.526 99.7014 149.601 99.7833C149.679 99.8652 149.789 99.9059 149.932 99.9059C150.089 99.9059 150.222 99.8613 150.333 99.7726L150.494 100.14ZM152.233 100.338C151.952 100.338 151.699 100.276 151.474 100.151C151.25 100.027 151.073 99.8559 150.945 99.6393C150.82 99.4189 150.758 99.1703 150.758 98.8931C150.758 98.6159 150.82 98.3688 150.945 98.1522C151.073 97.9317 151.25 97.7612 151.474 97.6405C151.699 97.516 151.952 97.4539 152.233 97.4539C152.515 97.4539 152.766 97.516 152.987 97.6405C153.212 97.7612 153.386 97.9317 153.511 98.1522C153.639 98.3688 153.704 98.6159 153.704 98.8931C153.704 99.1703 153.639 99.4189 153.511 99.6393C153.386 99.8559 153.212 100.027 152.987 100.151C152.766 100.276 152.515 100.338 152.233 100.338ZM152.233 99.8899C152.415 99.8899 152.578 99.8492 152.72 99.7673C152.866 99.682 152.98 99.5647 153.062 99.4155C153.144 99.2628 153.185 99.0884 153.185 98.8931C153.185 98.6978 153.144 98.5253 153.062 98.3761C152.98 98.2234 152.866 98.1062 152.72 98.0243C152.578 97.9424 152.415 97.9017 152.233 97.9017C152.052 97.9017 151.888 97.9424 151.742 98.0243C151.599 98.1062 151.485 98.2234 151.4 98.3761C151.317 98.5253 151.277 98.6978 151.277 98.8931C151.277 99.0884 151.317 99.2628 151.4 99.4155C151.485 99.5647 151.599 99.682 151.742 99.7673C151.888 99.8492 152.052 99.8899 152.233 99.8899ZM157.597 100.348C157.222 100.348 156.884 100.266 156.581 100.103C156.282 99.9359 156.046 99.7086 155.875 99.4208C155.704 99.1296 155.619 98.8025 155.619 98.44C155.619 98.0776 155.704 97.7524 155.875 97.4646C156.046 97.1734 156.284 96.9456 156.586 96.7823C156.89 96.6152 157.228 96.5318 157.602 96.5318C157.895 96.5318 158.162 96.5817 158.404 96.6811C158.646 96.777 158.853 96.9209 159.024 97.1128L158.677 97.4486C158.395 97.1535 158.044 97.0062 157.623 97.0062C157.345 97.0062 157.094 97.0682 156.87 97.1928C156.645 97.3173 156.469 97.4893 156.34 97.7098C156.216 97.9264 156.153 98.1701 156.153 98.44C156.153 98.7099 156.216 98.9551 156.34 99.1756C156.469 99.3922 156.645 99.5628 156.87 99.6873C157.094 99.8119 157.345 99.8739 157.623 99.8739C158.04 99.8739 158.392 99.7246 158.677 99.4261L159.024 99.7619C158.853 99.9538 158.644 100.1 158.399 100.199C158.157 100.298 157.889 100.348 157.597 100.348ZM160.707 97.4539C161.099 97.4539 161.398 97.5499 161.605 97.7418C161.815 97.9337 161.92 98.2196 161.92 98.5999V100.306H161.434V99.9325C161.348 100.064 161.225 100.165 161.065 100.236C160.909 100.304 160.722 100.338 160.504 100.338C160.187 100.338 159.932 100.261 159.739 100.108C159.551 99.9558 159.456 99.7547 159.456 99.5061C159.456 99.2575 159.547 99.0583 159.729 98.9091C159.91 98.7565 160.199 98.6799 160.595 98.6799H161.407V98.5786C161.407 98.3582 161.343 98.1895 161.215 98.0723C161.086 97.955 160.898 97.8964 160.648 97.8964C160.481 97.8964 160.317 97.9249 160.156 97.9816C159.996 98.0349 159.861 98.1076 159.75 98.2002L159.536 97.8164C159.683 97.6991 159.857 97.6105 160.06 97.5499C160.263 97.4859 160.479 97.4539 160.707 97.4539ZM160.589 99.9432C160.786 99.9432 160.955 99.9005 161.097 99.8152C161.24 99.7266 161.343 99.602 161.407 99.4421V99.0477H160.616C160.182 99.0477 159.964 99.1935 159.964 99.4848C159.964 99.6267 160.019 99.7387 160.13 99.8206C160.24 99.9025 160.393 99.9432 160.589 99.9432ZM163.683 100.338C163.451 100.338 163.229 100.308 163.015 100.247C162.801 100.183 162.633 100.103 162.512 100.007L162.726 99.602C162.851 99.6907 163.002 99.7619 163.181 99.8152C163.358 99.8685 163.539 99.8952 163.72 99.8952C164.17 99.8952 164.394 99.7673 164.394 99.5114C164.394 99.4261 164.363 99.3588 164.303 99.3089C164.242 99.259 164.166 99.2236 164.073 99.2023C163.984 99.1776 163.856 99.1509 163.688 99.1223C163.46 99.0869 163.273 99.0457 163.127 98.9997C162.984 98.9537 162.861 98.8752 162.758 98.7652C162.655 98.6552 162.603 98.5006 162.603 98.3015C162.603 98.0456 162.71 97.8411 162.924 97.6885C163.138 97.532 163.425 97.4539 163.785 97.4539C163.973 97.4539 164.162 97.4772 164.351 97.5232C164.54 97.5693 164.695 97.6318 164.816 97.7098L164.597 98.1149C164.365 97.9657 164.093 97.891 163.779 97.891C163.562 97.891 163.396 97.9264 163.282 97.9976C163.168 98.0689 163.111 98.1629 163.111 98.2801C163.111 98.3727 163.143 98.4454 163.207 98.4987C163.271 98.552 163.35 98.5912 163.442 98.6159C163.539 98.6407 163.672 98.6692 163.843 98.7012C164.071 98.7405 164.255 98.7831 164.394 98.8292C164.536 98.8718 164.657 98.9464 164.758 99.053C164.857 99.1596 164.907 99.3089 164.907 99.5008C164.907 99.7566 164.796 99.9611 164.576 100.114C164.358 100.263 164.061 100.338 163.683 100.338ZM167.061 97.4539C167.421 97.4539 167.706 97.5586 167.916 97.7684C168.13 97.9744 168.237 98.2782 168.237 98.6799V100.306H167.724V98.7385C167.724 98.4648 167.658 98.2588 167.526 98.1202C167.394 97.9816 167.205 97.9123 166.96 97.9123C166.682 97.9123 166.462 97.9942 166.302 98.1575C166.142 98.3174 166.061 98.5486 166.061 98.8505V100.306H165.548V96.3506H166.061V97.8804C166.168 97.7452 166.307 97.6405 166.478 97.5659C166.653 97.4913 166.847 97.4539 167.061 97.4539ZM170.416 100.338C170.135 100.338 169.882 100.276 169.657 100.151C169.433 100.027 169.256 99.8559 169.128 99.6393C169.003 99.4189 168.941 99.1703 168.941 98.8931C168.941 98.6159 169.003 98.3688 169.128 98.1522C169.256 97.9317 169.433 97.7612 169.657 97.6405C169.882 97.516 170.135 97.4539 170.416 97.4539C170.698 97.4539 170.949 97.516 171.17 97.6405C171.395 97.7612 171.569 97.9317 171.694 98.1522C171.822 98.3688 171.886 98.6159 171.886 98.8931C171.886 99.1703 171.822 99.4189 171.694 99.6393C171.569 99.8559 171.395 100.027 171.17 100.151C170.949 100.276 170.698 100.338 170.416 100.338ZM170.416 99.8899C170.598 99.8899 170.76 99.8492 170.903 99.7673C171.049 99.682 171.163 99.5647 171.245 99.4155C171.327 99.2628 171.368 99.0884 171.368 98.8931C171.368 98.6978 171.327 98.5253 171.245 98.3761C171.163 98.2234 171.049 98.1062 170.903 98.0243C170.76 97.9424 170.598 97.9017 170.416 97.9017C170.234 97.9017 170.071 97.9424 169.924 98.0243C169.782 98.1062 169.668 98.2234 169.582 98.3761C169.5 98.5253 169.459 98.6978 169.459 98.8931C169.459 99.0884 169.5 99.2628 169.582 99.4155C169.668 99.5647 169.782 99.682 169.924 99.7673C170.071 99.8492 170.234 99.8899 170.416 99.8899ZM175.237 97.4806V100.306H174.75V99.8792C174.647 100.025 174.51 100.138 174.339 100.22C174.171 100.298 173.988 100.338 173.788 100.338C173.41 100.338 173.113 100.234 172.895 100.028C172.678 99.8186 172.569 99.5114 172.569 99.1063V97.4806H173.082V99.0477C173.082 99.3215 173.148 99.5293 173.28 99.6713C173.412 99.8099 173.601 99.8792 173.847 99.8792C174.118 99.8792 174.332 99.7973 174.488 99.634C174.645 99.4707 174.723 99.2396 174.723 98.9411V97.4806H175.237ZM177.807 100.14C177.732 100.204 177.639 100.254 177.529 100.29C177.418 100.322 177.304 100.338 177.187 100.338C176.902 100.338 176.68 100.261 176.524 100.108C176.367 99.9558 176.289 99.7372 176.289 99.4528V97.9017H175.808V97.4806H176.289V96.8623H176.802V97.4806H177.615V97.9017H176.802V99.4315C176.802 99.5841 176.839 99.7014 176.914 99.7833C176.992 99.8652 177.103 99.9059 177.246 99.9059C177.402 99.9059 177.536 99.8613 177.647 99.7726L177.807 100.14Z" fill="#717171"/>
<path d="M50.0856 111.972H48.097L47.6854 112.905H47.1348L48.8294 109.173H49.3586L51.0585 112.905H50.4972L50.0856 111.972ZM49.8985 111.545L49.0913 109.717L48.2841 111.545H49.8985ZM54.1304 110.079V112.905H53.6439V112.478C53.5409 112.624 53.4034 112.737 53.2323 112.819C53.0651 112.897 52.8814 112.937 52.6817 112.937C52.3041 112.937 52.0067 112.833 51.789 112.627C51.5717 112.418 51.4629 112.11 51.4629 111.705V110.079H51.9761V111.647C51.9761 111.92 52.0422 112.128 52.1739 112.27C52.306 112.409 52.4946 112.478 52.7405 112.478C53.0117 112.478 53.2255 112.396 53.382 112.233C53.539 112.07 53.6172 111.838 53.6172 111.54V110.079H54.1304ZM56.7007 112.739C56.6259 112.803 56.5331 112.853 56.4227 112.889C56.3119 112.921 56.1982 112.937 56.0806 112.937C55.7953 112.937 55.5742 112.86 55.4177 112.707C55.2608 112.555 55.1825 112.336 55.1825 112.052V110.501H54.7014V110.079H55.1825V109.461H55.6957V110.079H56.5083V110.501H55.6957V112.03C55.6957 112.183 55.7331 112.3 55.808 112.382C55.8862 112.464 55.9965 112.505 56.1394 112.505C56.2959 112.505 56.4295 112.46 56.5403 112.371L56.7007 112.739ZM58.4405 112.937C58.1591 112.937 57.9059 112.874 57.6814 112.75C57.4569 112.625 57.2805 112.455 57.1522 112.238C57.0273 112.018 56.9651 111.769 56.9651 111.492C56.9651 111.215 57.0273 110.968 57.1522 110.751C57.2805 110.531 57.4569 110.36 57.6814 110.239C57.9059 110.115 58.1591 110.053 58.4405 110.053C58.7219 110.053 58.9731 110.115 59.1943 110.239C59.4188 110.36 59.5932 110.531 59.7181 110.751C59.8464 110.968 59.9106 111.215 59.9106 111.492C59.9106 111.769 59.8464 112.018 59.7181 112.238C59.5932 112.455 59.4188 112.625 59.1943 112.75C58.9731 112.874 58.7219 112.937 58.4405 112.937ZM58.4405 112.489C58.6223 112.489 58.7846 112.448 58.927 112.366C59.0732 112.281 59.187 112.164 59.2691 112.014C59.3512 111.862 59.392 111.687 59.392 111.492C59.392 111.297 59.3512 111.124 59.2691 110.975C59.187 110.822 59.0732 110.705 58.927 110.623C58.7846 110.541 58.6223 110.501 58.4405 110.501C58.2588 110.501 58.095 110.541 57.9487 110.623C57.8063 110.705 57.6921 110.822 57.6066 110.975C57.5244 111.124 57.4836 111.297 57.4836 111.492C57.4836 111.687 57.5244 111.862 57.6066 112.014C57.6921 112.164 57.8063 112.281 57.9487 112.366C58.095 112.448 58.2588 112.489 58.4405 112.489ZM62.1223 110.053C62.3968 110.053 62.6427 110.113 62.86 110.234C63.0777 110.355 63.2468 110.524 63.3678 110.74C63.4927 110.957 63.5549 111.208 63.5549 111.492C63.5549 111.776 63.4927 112.028 63.3678 112.249C63.2468 112.466 63.0777 112.635 62.86 112.755C62.6427 112.876 62.3968 112.937 62.1223 112.937C61.9123 112.937 61.7199 112.896 61.5449 112.814C61.3705 112.732 61.2261 112.613 61.1119 112.457V112.905H60.6201V108.949H61.1333V110.506C61.2475 110.357 61.3899 110.245 61.561 110.17C61.732 110.092 61.9191 110.053 62.1223 110.053ZM62.0795 112.489C62.2612 112.489 62.4236 112.448 62.566 112.366C62.7122 112.281 62.8264 112.164 62.9081 112.014C62.9936 111.862 63.0364 111.687 63.0364 111.492C63.0364 111.297 62.9936 111.124 62.9081 110.975C62.8264 110.822 62.7122 110.705 62.566 110.623C62.4236 110.541 62.2612 110.501 62.0795 110.501C61.9016 110.501 61.7393 110.541 61.593 110.623C61.4472 110.705 61.333 110.822 61.2509 110.975C61.1693 111.124 61.128 111.297 61.128 111.492C61.128 111.687 61.1693 111.862 61.2509 112.014C61.333 112.164 61.4472 112.281 61.593 112.366C61.7393 112.448 61.9016 112.489 62.0795 112.489ZM66.8246 111.508C66.8246 111.547 66.8212 111.599 66.8139 111.663H64.5152C64.5473 111.911 64.6561 112.112 64.8413 112.265C65.0303 112.414 65.2636 112.489 65.5416 112.489C65.8803 112.489 66.1529 112.375 66.3595 112.148L66.6428 112.478C66.5145 112.627 66.3541 112.741 66.1617 112.819C65.9731 112.897 65.7608 112.937 65.5256 112.937C65.2262 112.937 64.9608 112.876 64.729 112.755C64.4977 112.631 64.3174 112.459 64.1891 112.238C64.0647 112.018 64.002 111.769 64.002 111.492C64.002 111.218 64.0628 110.972 64.1838 110.751C64.3087 110.531 64.4778 110.36 64.6916 110.239C64.9093 110.115 65.1533 110.053 65.424 110.053C65.6952 110.053 65.9357 110.115 66.1457 110.239C66.3595 110.36 66.5252 110.531 66.6428 110.751C66.7643 110.972 66.8246 111.224 66.8246 111.508ZM65.424 110.485C65.1781 110.485 64.9715 110.559 64.8039 110.708C64.6401 110.858 64.5439 111.053 64.5152 111.295H66.3328C66.3046 111.057 66.2064 110.863 66.0387 110.714C65.875 110.561 65.6699 110.485 65.424 110.485ZM69.1305 112.739C69.0557 112.803 68.9629 112.853 68.8525 112.889C68.7417 112.921 68.628 112.937 68.5104 112.937C68.2251 112.937 68.004 112.86 67.8475 112.707C67.6906 112.555 67.6123 112.336 67.6123 112.052V110.501H67.1312V110.079H67.6123V109.461H68.1255V110.079H68.9381V110.501H68.1255V112.03C68.1255 112.183 68.1629 112.3 68.2378 112.382C68.316 112.464 68.4263 112.505 68.5692 112.505C68.7257 112.505 68.8593 112.46 68.9701 112.371L69.1305 112.739Z" fill="#717171"/>
<path d="M180.54 103.698H147.007C143.652 103.698 140.933 106.409 140.933 109.755C140.933 113.1 143.652 115.812 147.007 115.812H180.54C183.895 115.812 186.614 113.1 186.614 109.755C186.614 106.409 183.895 103.698 180.54 103.698Z" fill="#9DCEFF"/>
<path d="M147.008 114.843C149.826 114.843 152.111 112.565 152.111 109.755C152.111 106.945 149.826 104.667 147.008 104.667C144.19 104.667 141.905 106.945 141.905 109.755C141.905 112.565 144.19 114.843 147.008 114.843Z" fill="white"/>
<path d="M180.54 114.843C183.358 114.843 185.643 112.565 185.643 109.755C185.643 106.945 183.358 104.667 180.54 104.667C177.722 104.667 175.438 106.945 175.438 109.755C175.438 112.565 177.722 114.843 180.54 114.843Z" fill="white"/>
<path d="M144.092 109.755H150.409" stroke="#717171" stroke-linecap="round"/>
<path d="M177.624 109.755H183.942" stroke="#717171" stroke-linecap="round"/>
<path d="M181.026 112.662V106.363" stroke="#717171" stroke-linecap="round"/>
<path d="M162.51 110.06V110.482H160.066V110.152L161.451 108.819C161.62 108.658 161.733 108.519 161.791 108.403C161.849 108.283 161.879 108.164 161.879 108.044C161.879 107.866 161.815 107.729 161.689 107.632C161.566 107.532 161.388 107.482 161.154 107.482C160.779 107.482 160.489 107.605 160.285 107.85L159.954 107.564C160.087 107.403 160.26 107.277 160.474 107.186C160.691 107.096 160.932 107.051 161.198 107.051C161.554 107.051 161.838 107.137 162.049 107.308C162.259 107.476 162.365 107.705 162.365 107.996C162.365 108.176 162.326 108.348 162.248 108.509C162.17 108.671 162.023 108.855 161.806 109.062L160.766 110.06H162.51ZM163.882 108.441C164.368 108.441 164.724 108.534 164.951 108.718C165.181 108.898 165.296 109.148 165.296 109.464C165.296 109.664 165.247 109.845 165.15 110.007C165.056 110.165 164.912 110.291 164.718 110.385C164.527 110.475 164.29 110.52 164.008 110.52C163.769 110.52 163.537 110.485 163.313 110.414C163.09 110.34 162.905 110.238 162.759 110.108L162.983 109.726C163.099 109.836 163.249 109.924 163.43 109.992C163.612 110.057 163.803 110.089 164.003 110.089C164.259 110.089 164.457 110.036 164.596 109.929C164.739 109.819 164.81 109.671 164.81 109.483C164.81 109.28 164.732 109.126 164.577 109.023C164.421 108.916 164.156 108.863 163.78 108.863H163.007L163.187 107.09H165.106V107.511H163.595L163.503 108.441H163.882ZM167.09 110.52C166.821 110.52 166.582 110.452 166.371 110.317C166.164 110.178 166 109.978 165.88 109.716C165.761 109.454 165.7 109.144 165.7 108.786C165.7 108.427 165.761 108.117 165.88 107.855C166 107.593 166.164 107.395 166.371 107.259C166.582 107.12 166.821 107.051 167.09 107.051C167.356 107.051 167.593 107.12 167.8 107.259C168.011 107.395 168.176 107.593 168.295 107.855C168.415 108.117 168.475 108.427 168.475 108.786C168.475 109.144 168.415 109.454 168.295 109.716C168.176 109.978 168.011 110.178 167.8 110.317C167.593 110.452 167.356 110.52 167.09 110.52ZM167.09 110.089C167.362 110.089 167.58 109.978 167.741 109.755C167.907 109.532 167.989 109.209 167.989 108.786C167.989 108.363 167.907 108.039 167.741 107.816C167.58 107.593 167.362 107.482 167.09 107.482C166.815 107.482 166.594 107.593 166.429 107.816C166.267 108.039 166.186 108.363 166.186 108.786C166.186 109.209 166.267 109.532 166.429 109.755C166.594 109.978 166.815 110.089 167.09 110.089Z" fill="white"/>
<path d="M155.513 113.147H172.522" stroke="#E0EBFF"/>
<path d="M98.4099 44.0957H34.747C29.5133 44.0957 25.2705 48.3262 25.2705 53.5448C25.2705 58.7634 29.5133 62.9939 34.747 62.9939H98.4099C103.644 62.9939 107.886 58.7634 107.886 53.5448C107.886 48.3262 103.644 44.0957 98.4099 44.0957Z" fill="#9DCEFF"/>
<path d="M34.9897 59.3596C38.3447 59.3596 41.0644 56.6477 41.0644 53.3025C41.0644 49.9572 38.3447 47.2454 34.9897 47.2454C31.6348 47.2454 28.915 49.9572 28.915 53.3025C28.915 56.6477 31.6348 59.3596 34.9897 59.3596Z" stroke="#EEEEEE"/>
<path d="M98.1673 59.6019C101.656 59.6019 104.485 56.7816 104.485 53.3026C104.485 49.8235 101.656 47.0032 98.1673 47.0032C94.6781 47.0032 91.8496 49.8235 91.8496 53.3026C91.8496 56.7816 94.6781 59.6019 98.1673 59.6019Z" fill="white"/>
<path d="M31.8311 53.5447H38.1487" stroke="#EEEEEE" stroke-linecap="round"/>
<path d="M95.0078 53.0601H101.325" stroke="#717171" stroke-linecap="round"/>
<path d="M98.167 56.2098V49.9104" stroke="#717171" stroke-linecap="round"/>
<path d="M60.4071 50.3949V57.1789H59.4449V51.2381H57.9092V50.3949H60.4071ZM64.6749 57.2564C64.1374 57.2564 63.6578 57.1207 63.2364 56.8494C62.8219 56.5717 62.4948 56.171 62.2548 55.6476C62.0152 55.1243 61.8952 54.504 61.8952 53.7869C61.8952 53.0697 62.0152 52.4495 62.2548 51.9261C62.4948 51.4028 62.8219 51.0055 63.2364 50.7341C63.6578 50.4565 64.1374 50.3174 64.6749 50.3174C65.2066 50.3174 65.6794 50.4565 66.094 50.7341C66.5153 51.0055 66.8458 51.4028 67.0854 51.9261C67.3254 52.4495 67.445 53.0697 67.445 53.7869C67.445 54.504 67.3254 55.1243 67.0854 55.6476C66.8458 56.171 66.5153 56.5717 66.094 56.8494C65.6794 57.1207 65.2066 57.2564 64.6749 57.2564ZM64.6749 56.3939C65.2192 56.3939 65.6537 56.171 65.9773 55.7252C66.3078 55.2794 66.473 54.6334 66.473 53.7869C66.473 52.9403 66.3078 52.2944 65.9773 51.8486C65.6537 51.4028 65.2192 51.1799 64.6749 51.1799C64.1243 51.1799 63.6835 51.4028 63.3531 51.8486C63.0294 52.2944 62.8671 52.9403 62.8671 53.7869C62.8671 54.6334 63.0294 55.2794 63.3531 55.7252C63.6835 56.171 64.1243 56.3939 64.6749 56.3939ZM71.1578 57.2564C70.6204 57.2564 70.1407 57.1207 69.7194 56.8494C69.3048 56.5717 68.9778 56.171 68.7377 55.6476C68.4981 55.1243 68.3781 54.504 68.3781 53.7869C68.3781 53.0697 68.4981 52.4495 68.7377 51.9261C68.9778 51.4028 69.3048 51.0055 69.7194 50.7341C70.1407 50.4565 70.6204 50.3174 71.1578 50.3174C71.6895 50.3174 72.1624 50.4565 72.5769 50.7341C72.9982 51.0055 73.3287 51.4028 73.5683 51.9261C73.8084 52.4495 73.9279 53.0697 73.9279 53.7869C73.9279 54.504 73.8084 55.1243 73.5683 55.6476C73.3287 56.171 72.9982 56.5717 72.5769 56.8494C72.1624 57.1207 71.6895 57.2564 71.1578 57.2564ZM71.1578 56.3939C71.7021 56.3939 72.1366 56.171 72.4603 55.7252C72.7907 55.2794 72.956 54.6334 72.956 53.7869C72.956 52.9403 72.7907 52.2944 72.4603 51.8486C72.1366 51.4028 71.7021 51.1799 71.1578 51.1799C70.6072 51.1799 70.1665 51.4028 69.836 51.8486C69.5123 52.2944 69.35 52.9403 69.35 53.7869C69.35 54.6334 69.5123 55.2794 69.836 55.7252C70.1665 56.171 70.6072 56.3939 71.1578 56.3939Z" fill="white"/>
<path d="M57.8309 67.8396H32.0742C28.3166 67.8396 25.2705 70.8769 25.2705 74.6235C25.2705 78.3702 28.3166 81.4075 32.0742 81.4075H57.8309C61.5884 81.4075 64.6346 78.3702 64.6346 74.6235C64.6346 70.8769 61.5884 67.8396 57.8309 67.8396Z" fill="#9DCEFF"/>
<path d="M38.8626 74.2669C39.6401 74.2669 40.2103 74.4142 40.5732 74.7088C40.9412 74.9981 41.1253 75.3964 41.1253 75.9028C41.1253 76.2231 41.0475 76.5129 40.892 76.7711C40.7417 77.0246 40.511 77.2261 40.2 77.3759C39.8942 77.5208 39.5157 77.593 39.0647 77.593C38.6812 77.593 38.3105 77.5363 37.9528 77.4224C37.5951 77.3037 37.2997 77.1409 37.0664 76.934L37.4241 76.3215C37.6107 76.4974 37.8492 76.6393 38.1394 76.7479C38.4297 76.8511 38.7356 76.9029 39.057 76.9029C39.4665 76.9029 39.7827 76.8176 40.0056 76.6471C40.2337 76.4712 40.3477 76.2337 40.3477 75.9338C40.3477 75.6082 40.2233 75.3625 39.9745 75.1973C39.7257 75.0267 39.3006 74.9414 38.6993 74.9414H37.463L37.7507 72.1038H40.822V72.7783H38.4038L38.2561 74.2669H38.8626ZM43.9962 77.593C43.5659 77.593 43.1823 77.4844 42.8454 77.2673C42.5136 77.0449 42.2519 76.7246 42.06 76.3059C41.8682 75.8873 41.7723 75.3911 41.7723 74.8174C41.7723 74.2436 41.8682 73.7474 42.06 73.3288C42.2519 72.9101 42.5136 72.5922 42.8454 72.3751C43.1823 72.1527 43.5659 72.0417 43.9962 72.0417C44.4213 72.0417 44.7996 72.1527 45.1314 72.3751C45.4683 72.5922 45.7327 72.9101 45.9245 73.3288C46.1163 73.7474 46.2122 74.2436 46.2122 74.8174C46.2122 75.3911 46.1163 75.8873 45.9245 76.3059C45.7327 76.7246 45.4683 77.0449 45.1314 77.2673C44.7996 77.4844 44.4213 77.593 43.9962 77.593ZM43.9962 76.9029C44.4316 76.9029 44.7789 76.7246 45.0381 76.368C45.3025 76.0113 45.4347 75.4943 45.4347 74.8174C45.4347 74.1404 45.3025 73.6234 45.0381 73.2667C44.7789 72.9101 44.4316 72.7318 43.9962 72.7318C43.5555 72.7318 43.2031 72.9101 42.9387 73.2667C42.6795 73.6234 42.5499 74.1404 42.5499 74.8174C42.5499 75.4943 42.6795 76.0113 42.9387 76.368C43.2031 76.7246 43.5555 76.9029 43.9962 76.9029ZM49.1823 77.593C48.7522 77.593 48.3686 77.4844 48.0317 77.2673C47.6999 77.0449 47.4381 76.7246 47.2463 76.3059C47.0545 75.8873 46.9586 75.3911 46.9586 74.8174C46.9586 74.2436 47.0545 73.7474 47.2463 73.3288C47.4381 72.9101 47.6999 72.5922 48.0317 72.3751C48.3686 72.1527 48.7522 72.0417 49.1823 72.0417C49.6075 72.0417 49.9861 72.1527 50.3175 72.3751C50.6548 72.5922 50.9191 72.9101 51.1106 73.3288C51.3026 73.7474 51.3983 74.2436 51.3983 74.8174C51.3983 75.3911 51.3026 75.8873 51.1106 76.3059C50.9191 76.7246 50.6548 77.0449 50.3175 77.2673C49.9861 77.4844 49.6075 77.593 49.1823 77.593ZM49.1823 76.9029C49.6177 76.9029 49.9652 76.7246 50.2242 76.368C50.4886 76.0113 50.6208 75.4943 50.6208 74.8174C50.6208 74.1404 50.4886 73.6234 50.2242 73.2667C49.9652 72.9101 49.6177 72.7318 49.1823 72.7318C48.742 72.7318 48.3893 72.9101 48.125 73.2667C47.8658 73.6234 47.7362 74.1404 47.7362 74.8174C47.7362 75.4943 47.8658 76.0113 48.125 76.368C48.3893 76.7246 48.742 76.9029 49.1823 76.9029Z" fill="white"/>
<path d="M101.083 67.8396H75.3261C71.5686 67.8396 68.5225 70.8769 68.5225 74.6235C68.5225 78.3702 71.5686 81.4075 75.3261 81.4075H101.083C104.84 81.4075 107.887 78.3702 107.887 74.6235C107.887 70.8769 104.84 67.8396 101.083 67.8396Z" fill="#9DCEFF"/>
<path d="M80.302 72.1038V77.5309H79.5323V72.7783H78.3037V72.1038H80.302ZM85.8047 77.593C85.3742 77.593 84.9907 77.4844 84.654 77.2673C84.322 77.0449 84.0601 76.7246 83.8686 76.3059C83.6766 75.8873 83.5809 75.3911 83.5809 74.8174C83.5809 74.2436 83.6766 73.7474 83.8686 73.3288C84.0601 72.9101 84.322 72.5922 84.654 72.3751C84.9907 72.1527 85.3742 72.0417 85.8047 72.0417C86.2295 72.0417 86.6081 72.1527 86.94 72.3751C87.2768 72.5922 87.5411 72.9101 87.7331 73.3288C87.9246 73.7474 88.0208 74.2436 88.0208 74.8174C88.0208 75.3911 87.9246 75.8873 87.7331 76.3059C87.5411 76.7246 87.2768 77.0449 86.94 77.2673C86.6081 77.4844 86.2295 77.593 85.8047 77.593ZM85.8047 76.9029C86.2402 76.9029 86.5872 76.7246 86.8467 76.368C87.111 76.0113 87.2432 75.4943 87.2432 74.8174C87.2432 74.1404 87.111 73.6234 86.8467 73.2667C86.5872 72.9101 86.2402 72.7318 85.8047 72.7318C85.364 72.7318 85.0116 72.9101 84.7473 73.2667C84.4877 73.6234 84.3585 74.1404 84.3585 74.8174C84.3585 75.4943 84.4877 76.0113 84.7473 76.368C85.0116 76.7246 85.364 76.9029 85.8047 76.9029ZM90.9911 77.593C90.5605 77.593 90.1771 77.4844 89.8403 77.2673C89.5084 77.0449 89.2464 76.7246 89.0549 76.3059C88.863 75.8873 88.7672 75.3911 88.7672 74.8174C88.7672 74.2436 88.863 73.7474 89.0549 73.3288C89.2464 72.9101 89.5084 72.5922 89.8403 72.3751C90.1771 72.1527 90.5605 72.0417 90.9911 72.0417C91.4158 72.0417 91.7944 72.1527 92.1263 72.3751C92.4631 72.5922 92.7275 72.9101 92.9194 73.3288C93.1109 73.7474 93.2071 74.2436 93.2071 74.8174C93.2071 75.3911 93.1109 75.8873 92.9194 76.3059C92.7275 76.7246 92.4631 77.0449 92.1263 77.2673C91.7944 77.4844 91.4158 77.593 90.9911 77.593ZM90.9911 76.9029C91.4265 76.9029 91.7735 76.7246 92.033 76.368C92.2974 76.0113 92.4296 75.4943 92.4296 74.8174C92.4296 74.1404 92.2974 73.6234 92.033 73.2667C91.7735 72.9101 91.4265 72.7318 90.9911 72.7318C90.5503 72.7318 90.198 72.9101 89.9336 73.2667C89.6741 73.6234 89.5448 74.1404 89.5448 74.8174C89.5448 75.4943 89.6741 76.0113 89.9336 76.368C90.198 76.7246 90.5503 76.9029 90.9911 76.9029ZM96.1774 77.593C95.7468 77.593 95.3634 77.4844 95.0266 77.2673C94.6947 77.0449 94.4327 76.7246 94.2413 76.3059C94.0493 75.8873 93.9536 75.3911 93.9536 74.8174C93.9536 74.2436 94.0493 73.7474 94.2413 73.3288C94.4327 72.9101 94.6947 72.5922 95.0266 72.3751C95.3634 72.1527 95.7468 72.0417 96.1774 72.0417C96.6021 72.0417 96.9807 72.1527 97.3126 72.3751C97.6494 72.5922 97.9138 72.9101 98.1057 73.3288C98.2972 73.7474 98.3934 74.2436 98.3934 74.8174C98.3934 75.3911 98.2972 75.8873 98.1057 76.3059C97.9138 76.7246 97.6494 77.0449 97.3126 77.2673C96.9807 77.4844 96.6021 77.593 96.1774 77.593ZM96.1774 76.9029C96.6128 76.9029 96.9598 76.7246 97.2193 76.368C97.4837 76.0113 97.6159 75.4943 97.6159 74.8174C97.6159 74.1404 97.4837 73.6234 97.2193 73.2667C96.9598 72.9101 96.6128 72.7318 96.1774 72.7318C95.7366 72.7318 95.3843 72.9101 95.1199 73.2667C94.8604 73.6234 94.7311 74.1404 94.7311 74.8174C94.7311 75.4943 94.8604 76.0113 95.1199 76.368C95.3843 76.7246 95.7366 76.9029 96.1774 76.9029Z" fill="white"/>
<path d="M57.8309 87.2222H32.0742C28.3166 87.2222 25.2705 90.2595 25.2705 94.0061C25.2705 97.7528 28.3166 100.79 32.0742 100.79H57.8309C61.5884 100.79 64.6346 97.7528 64.6346 94.0061C64.6346 90.2595 61.5884 87.2222 57.8309 87.2222Z" fill="#9DCEFF"/>
<path d="M36.9182 93.6497C37.6958 93.6497 38.266 93.797 38.6289 94.0916C38.9969 94.3809 39.1809 94.7792 39.1809 95.2856C39.1809 95.6059 39.1032 95.8957 38.9477 96.154C38.7974 96.4074 38.5667 96.609 38.2556 96.7587C37.9498 96.9036 37.5714 96.9758 37.1204 96.9758C36.7368 96.9758 36.3662 96.9191 36.0085 96.8052C35.6508 96.6865 35.3553 96.5237 35.1221 96.3168L35.4797 95.7043C35.6664 95.8802 35.9048 96.0222 36.1951 96.1307C36.4854 96.2339 36.7912 96.2858 37.1126 96.2858C37.5222 96.2858 37.8383 96.2005 38.0613 96.0299C38.2893 95.854 38.4034 95.6166 38.4034 95.3166C38.4034 94.991 38.279 94.7453 38.0301 94.5801C37.7813 94.4095 37.3562 94.3242 36.7549 94.3242H35.5186L35.8063 91.4866H38.8777V92.1611H36.4595L36.3117 93.6497H36.9182ZM44.14 96.9758C43.7098 96.9758 43.3262 96.8672 42.9892 96.6502C42.6575 96.4277 42.3957 96.1074 42.2039 95.6888C42.0121 95.2701 41.9162 94.7739 41.9162 94.2002C41.9162 93.6264 42.0121 93.1302 42.2039 92.7116C42.3957 92.2929 42.6575 91.975 42.9892 91.7579C43.3262 91.5355 43.7098 91.4246 44.14 91.4246C44.5651 91.4246 44.9435 91.5355 45.2753 91.7579C45.6122 91.975 45.8766 92.2929 46.0684 92.7116C46.2602 93.1302 46.3561 93.6264 46.3561 94.2002C46.3561 94.7739 46.2602 95.2701 46.0684 95.6888C45.8766 96.1074 45.6122 96.4277 45.2753 96.6502C44.9435 96.8672 44.5651 96.9758 44.14 96.9758ZM44.14 96.2858C44.5755 96.2858 44.9227 96.1074 45.182 95.7508C45.4463 95.3942 45.5785 94.8771 45.5785 94.2002C45.5785 93.5232 45.4463 93.0062 45.182 92.6496C44.9227 92.2929 44.5755 92.1146 44.14 92.1146C43.6994 92.1146 43.3469 92.2929 43.0825 92.6496C42.8233 93.0062 42.6938 93.5232 42.6938 94.2002C42.6938 94.8771 42.8233 95.3942 43.0825 95.7508C43.3469 96.1074 43.6994 96.2858 44.14 96.2858ZM49.3262 96.9758C48.8961 96.9758 48.5125 96.8672 48.1755 96.6502C47.8438 96.4277 47.582 96.1074 47.3902 95.6888C47.1984 95.2701 47.1025 94.7739 47.1025 94.2002C47.1025 93.6264 47.1984 93.1302 47.3902 92.7116C47.582 92.2929 47.8438 91.975 48.1755 91.7579C48.5125 91.5355 48.8961 91.4246 49.3262 91.4246C49.7514 91.4246 50.13 91.5355 50.4614 91.7579C50.7987 91.975 51.0631 92.2929 51.2545 92.7116C51.4465 93.1302 51.5422 93.6264 51.5422 94.2002C51.5422 94.7739 51.4465 95.2701 51.2545 95.6888C51.0631 96.1074 50.7987 96.4277 50.4614 96.6502C50.13 96.8672 49.7514 96.9758 49.3262 96.9758ZM49.3262 96.2858C49.7616 96.2858 50.1091 96.1074 50.3681 95.7508C50.6325 95.3942 50.7647 94.8771 50.7647 94.2002C50.7647 93.5232 50.6325 93.0062 50.3681 92.6496C50.1091 92.2929 49.7616 92.1146 49.3262 92.1146C48.8859 92.1146 48.5332 92.2929 48.2688 92.6496C48.0096 93.0062 47.8801 93.5232 47.8801 94.2002C47.8801 94.8771 48.0096 95.3942 48.2688 95.7508C48.5332 96.1074 48.8859 96.2858 49.3262 96.2858ZM54.5125 96.9758C54.0824 96.9758 53.6985 96.8672 53.3617 96.6502C53.0298 96.4277 52.7683 96.1074 52.5764 95.6888C52.3844 95.2701 52.2887 94.7739 52.2887 94.2002C52.2887 93.6264 52.3844 93.1302 52.5764 92.7116C52.7683 92.2929 53.0298 91.975 53.3617 91.7579C53.6985 91.5355 54.0824 91.4246 54.5125 91.4246C54.9377 91.4246 55.3158 91.5355 55.6478 91.7579C55.9845 91.975 56.2489 92.2929 56.4409 92.7116C56.6328 93.1302 56.7286 93.6264 56.7286 94.2002C56.7286 94.7739 56.6328 95.2701 56.4409 95.6888C56.2489 96.1074 55.9845 96.4277 55.6478 96.6502C55.3158 96.8672 54.9377 96.9758 54.5125 96.9758ZM54.5125 96.2858C54.9479 96.2858 55.2954 96.1074 55.5544 95.7508C55.8188 95.3942 55.951 94.8771 55.951 94.2002C55.951 93.5232 55.8188 93.0062 55.5544 92.6496C55.2954 92.2929 54.9479 92.1146 54.5125 92.1146C54.0717 92.1146 53.7194 92.2929 53.455 92.6496C53.196 93.0062 53.0662 93.5232 53.0662 94.2002C53.0662 94.8771 53.196 95.3942 53.455 95.7508C53.7194 96.1074 54.0717 96.2858 54.5125 96.2858Z" fill="white"/>
<path d="M101.083 87.2222H75.3261C71.5686 87.2222 68.5225 90.2595 68.5225 94.0061C68.5225 97.7528 71.5686 100.79 75.3261 100.79H101.083C104.84 100.79 107.887 97.7528 107.887 94.0061C107.887 90.2595 104.84 87.2222 101.083 87.2222Z" fill="#9DCEFF"/>
<path d="M83.449 95.2417H80.918L80.3941 96.4289H79.6934L81.8501 91.6801H82.5237L84.6872 96.4289H83.9729L83.449 95.2417ZM83.2109 94.699L82.1835 92.3721L81.1562 94.699H83.2109ZM85.3025 91.3952H85.9556V96.4289H85.3025V91.3952ZM87.2027 91.3952H87.8558V96.4289H87.2027V91.3952ZM90.9301 92.8334H91.5832V96.4289H90.9301V92.8334ZM91.2567 92.1415C91.1298 92.1415 91.0229 92.1007 90.9369 92.0193C90.8553 91.9379 90.8144 91.8386 90.8144 91.7208C90.8144 91.6031 90.8553 91.5038 90.9369 91.4224C91.0229 91.3366 91.1298 91.2935 91.2567 91.2935C91.3835 91.2935 91.488 91.3342 91.5696 91.4156C91.6557 91.4926 91.6989 91.5895 91.6989 91.7073C91.6989 91.8294 91.6557 91.9336 91.5696 92.0193C91.488 92.1007 91.3835 92.1415 91.2567 92.1415ZM94.7557 92.7995C95.214 92.7995 95.5765 92.9328 95.8443 93.1997C96.1164 93.4619 96.2525 93.8486 96.2525 94.3598V96.4289H95.5994V94.4344C95.5994 94.086 95.5153 93.8239 95.3476 93.6475C95.18 93.4711 94.9394 93.3829 94.6264 93.3829C94.2726 93.3829 93.9937 93.4871 93.7896 93.695C93.5855 93.8985 93.4834 94.1926 93.4834 94.5769V96.4289H92.8303V92.8334H93.4562V93.3761C93.5879 93.1905 93.7648 93.0481 93.9869 92.9487C94.2138 92.8494 94.4699 92.7995 94.7557 92.7995Z" fill="white"/>
</g>
<defs>
<filter id="filter676" x="136.303" y="43.8379" width="46.6816" height="50.5493" filterUnits="userSpaceOnUse" color-interpolation-filters="sRGB">
<feFlood flood-opacity="0" result="BackgroundImageFix"/>
<feBlend mode="normal" in="SourceGraphic" in2="BackgroundImageFix" result="shape"/>
<feColorMatrix in="SourceAlpha" type="matrix" values="0 0 0 0 0 0 0 0 0 0 0 0 0 0 0 0 0 0 127 0" result="hardAlpha"/>
<feOffset dy="4"/>
<feGaussianBlur stdDeviation="2"/>
<feComposite in2="hardAlpha" operator="arithmetic" k2="-1" k3="1"/>
<feColorMatrix type="matrix" values="0 0 0 0 0 0 0 0 0 0.4 0 0 0 0 1 0 0 0 0.33 0"/>
<feBlend mode="normal" in2="shape" result="effect1_innerShadow_676:450"/>
</filter>
<linearGradient id="linear_676" x1="150.167" y1="46.2763" x2="169.512" y2="90.1712" gradientUnits="userSpaceOnUse">
<stop stop-color="#99D4FF"/>
<stop offset="1" stop-color="#1C69B6"/>
</linearGradient>
<clipPath id="clip0_676:450">
<rect width="365.94" height="157" rx="6" fill="white"/>
</clipPath>
</defs>
</svg>
