<svg width="785" height="324" viewBox="0 0 785 324" fill="none" xmlns="http://www.w3.org/2000/svg">
<defs>
	<filter id="filter613" x="-10" y="-10" width="805" height="344" filterUnits="userSpaceOnUse" color-interpolation-filters="sRGB">
		<feFlood flood-opacity="0" result="BackgroundImageFix"/>
		<feGaussianBlur in="BackgroundImage" stdDeviation="5"/>
		<feComposite in2="SourceAlpha" operator="in" result="effect1_backgroundBlur_614:529"/>
		<feBlend mode="normal" in="SourceGraphic" in2="effect1_backgroundBlur_614:529" result="shape"/>
	</filter>
	<filter id="filter614" x="277" y="91" width="103" height="103" filterUnits="userSpaceOnUse" color-interpolation-filters="sRGB">
		<feFlood flood-opacity="0" result="BackgroundImageFix"/>
		<feColorMatrix in="SourceAlpha" type="matrix" values="0 0 0 0 0 0 0 0 0 0 0 0 0 0 0 0 0 0 127 0" result="hardAlpha"/>
		<feOffset dy="4"/>
		<feGaussianBlur stdDeviation="2"/>
		<feComposite in2="hardAlpha" operator="out"/>
		<feColorMatrix type="matrix" values="0 0 0 0 0 0 0 0 0 0.4 0 0 0 0 1 0 0 0 0.33 0"/>
		<feBlend mode="normal" in2="BackgroundImageFix" result="effect1_dropShadow_614:529"/>
		<feBlend mode="normal" in="SourceGraphic" in2="effect1_dropShadow_614:529" result="shape"/>
	</filter>
	<linearGradient id="linear_614" x1="309" y1="95.5" x2="349" y2="186" gradientUnits="userSpaceOnUse">
		<stop stop-color="#99D4FF"/>
		<stop offset="1" stop-color="#1C69B6"/>
	</linearGradient>
</defs>
<g filter="url(#filter613)">
<rect width="785" height="324" rx="10" fill="white" fill-opacity="0.6"/>
<rect x="0.5" y="0.5" width="784" height="323" rx="9.5" stroke="white"/>
</g>
<path d="M420 44C420 27.4315 433.431 14 450 14H690C706.569 14 720 27.4315 720 44V314H420V44Z" fill="#FFE6D3"/>
<path d="M625.048 54L625.036 47.88L622 52.98H621.448L618.412 47.916V54H617.26V45.6H618.244L621.748 51.504L625.204 45.6H626.188L626.2 54H625.048ZM631.937 51.096V54H630.749V51.072L627.413 45.6H628.697L631.385 50.028L634.085 45.6H635.273L631.937 51.096ZM645.365 49.644C645.853 49.78 646.237 50.028 646.517 50.388C646.797 50.74 646.937 51.188 646.937 51.732C646.937 52.46 646.661 53.02 646.109 53.412C645.565 53.804 644.769 54 643.721 54H639.713V45.6H643.481C644.441 45.6 645.181 45.792 645.701 46.176C646.229 46.56 646.493 47.092 646.493 47.772C646.493 48.212 646.389 48.592 646.181 48.912C645.981 49.232 645.709 49.476 645.365 49.644ZM640.913 46.572V49.26H643.373C643.989 49.26 644.461 49.148 644.789 48.924C645.125 48.692 645.293 48.356 645.293 47.916C645.293 47.476 645.125 47.144 644.789 46.92C644.461 46.688 643.989 46.572 643.373 46.572H640.913ZM643.673 53.028C644.353 53.028 644.865 52.916 645.209 52.692C645.553 52.468 645.725 52.116 645.725 51.636C645.725 50.7 645.041 50.232 643.673 50.232H640.913V53.028H643.673ZM654.891 52.956V54H648.795V45.6H654.723V46.644H649.995V49.224H654.207V50.244H649.995V52.956H654.891ZM658.502 46.644H655.622V45.6H662.57V46.644H659.69V54H658.502V46.644ZM666.22 54.096C665.588 54.096 664.976 54 664.384 53.808C663.8 53.608 663.34 53.352 663.004 53.04L663.448 52.104C663.768 52.392 664.176 52.628 664.672 52.812C665.176 52.988 665.692 53.076 666.22 53.076C666.916 53.076 667.436 52.96 667.78 52.728C668.124 52.488 668.296 52.172 668.296 51.78C668.296 51.492 668.2 51.26 668.008 51.084C667.824 50.9 667.592 50.76 667.312 50.664C667.04 50.568 666.652 50.46 666.148 50.34C665.516 50.188 665.004 50.036 664.612 49.884C664.228 49.732 663.896 49.5 663.616 49.188C663.344 48.868 663.208 48.44 663.208 47.904C663.208 47.456 663.324 47.052 663.556 46.692C663.796 46.332 664.156 46.044 664.636 45.828C665.116 45.612 665.712 45.504 666.424 45.504C666.92 45.504 667.408 45.568 667.888 45.696C668.368 45.824 668.78 46.008 669.124 46.248L668.728 47.208C668.376 46.984 668 46.816 667.6 46.704C667.2 46.584 666.808 46.524 666.424 46.524C665.744 46.524 665.232 46.648 664.888 46.896C664.552 47.144 664.384 47.464 664.384 47.856C664.384 48.144 664.48 48.38 664.672 48.564C664.864 48.74 665.1 48.88 665.38 48.984C665.668 49.08 666.056 49.184 666.544 49.296C667.176 49.448 667.684 49.6 668.068 49.752C668.452 49.904 668.78 50.136 669.052 50.448C669.332 50.76 669.472 51.18 669.472 51.708C669.472 52.148 669.352 52.552 669.112 52.92C668.872 53.28 668.508 53.568 668.02 53.784C667.532 53.992 666.932 54.096 666.22 54.096Z" fill="black"/>
<path d="M464.484 88.6V97H463.5L458.46 90.736V97H457.26V88.6H458.244L463.284 94.864V88.6H464.484ZM469.146 90.58C470.026 90.58 470.698 90.796 471.162 91.228C471.634 91.66 471.87 92.304 471.87 93.16V97H470.778V96.16C470.586 96.456 470.31 96.684 469.95 96.844C469.598 96.996 469.178 97.072 468.69 97.072C467.978 97.072 467.406 96.9 466.974 96.556C466.55 96.212 466.338 95.76 466.338 95.2C466.338 94.64 466.542 94.192 466.95 93.856C467.358 93.512 468.006 93.34 468.894 93.34H470.718V93.112C470.718 92.616 470.574 92.236 470.286 91.972C469.998 91.708 469.574 91.576 469.014 91.576C468.638 91.576 468.27 91.64 467.91 91.768C467.55 91.888 467.246 92.052 466.998 92.26L466.518 91.396C466.846 91.132 467.238 90.932 467.694 90.796C468.15 90.652 468.634 90.58 469.146 90.58ZM468.882 96.184C469.322 96.184 469.702 96.088 470.022 95.896C470.342 95.696 470.574 95.416 470.718 95.056V94.168H468.942C467.966 94.168 467.478 94.496 467.478 95.152C467.478 95.472 467.602 95.724 467.85 95.908C468.098 96.092 468.442 96.184 468.882 96.184ZM481.958 90.58C482.758 90.58 483.39 90.812 483.854 91.276C484.326 91.74 484.562 92.428 484.562 93.34V97H483.41V93.472C483.41 92.856 483.266 92.392 482.978 92.08C482.698 91.768 482.294 91.612 481.766 91.612C481.182 91.612 480.718 91.796 480.374 92.164C480.03 92.524 479.858 93.044 479.858 93.724V97H478.706V93.472C478.706 92.856 478.562 92.392 478.274 92.08C477.994 91.768 477.59 91.612 477.062 91.612C476.478 91.612 476.014 91.796 475.67 92.164C475.326 92.524 475.154 93.044 475.154 93.724V97H474.002V90.64H475.106V91.588C475.338 91.26 475.642 91.012 476.018 90.844C476.394 90.668 476.822 90.58 477.302 90.58C477.798 90.58 478.238 90.68 478.622 90.88C479.006 91.08 479.302 91.372 479.51 91.756C479.75 91.388 480.082 91.1 480.506 90.892C480.938 90.684 481.422 90.58 481.958 90.58ZM492.465 93.856C492.465 93.944 492.457 94.06 492.441 94.204H487.281C487.353 94.764 487.597 95.216 488.013 95.56C488.437 95.896 488.961 96.064 489.585 96.064C490.345 96.064 490.957 95.808 491.421 95.296L492.057 96.04C491.769 96.376 491.409 96.632 490.977 96.808C490.553 96.984 490.077 97.072 489.549 97.072C488.877 97.072 488.281 96.936 487.761 96.664C487.241 96.384 486.837 95.996 486.549 95.5C486.269 95.004 486.129 94.444 486.129 93.82C486.129 93.204 486.265 92.648 486.537 92.152C486.817 91.656 487.197 91.272 487.677 91C488.165 90.72 488.713 90.58 489.321 90.58C489.929 90.58 490.469 90.72 490.941 91C491.421 91.272 491.793 91.656 492.057 92.152C492.329 92.648 492.465 93.216 492.465 93.856ZM489.321 91.552C488.769 91.552 488.305 91.72 487.929 92.056C487.561 92.392 487.345 92.832 487.281 93.376H491.361C491.297 92.84 491.077 92.404 490.701 92.068C490.333 91.724 489.873 91.552 489.321 91.552Z" fill="#717171"/>
<path d="M530.912 92.644C531.4 92.78 531.784 93.028 532.064 93.388C532.344 93.74 532.484 94.188 532.484 94.732C532.484 95.46 532.208 96.02 531.656 96.412C531.112 96.804 530.316 97 529.268 97H525.26V88.6H529.028C529.988 88.6 530.728 88.792 531.248 89.176C531.776 89.56 532.04 90.092 532.04 90.772C532.04 91.212 531.936 91.592 531.728 91.912C531.528 92.232 531.256 92.476 530.912 92.644ZM526.46 89.572V92.26H528.92C529.536 92.26 530.008 92.148 530.336 91.924C530.672 91.692 530.84 91.356 530.84 90.916C530.84 90.476 530.672 90.144 530.336 89.92C530.008 89.688 529.536 89.572 528.92 89.572H526.46ZM529.22 96.028C529.9 96.028 530.412 95.916 530.756 95.692C531.1 95.468 531.272 95.116 531.272 94.636C531.272 93.7 530.588 93.232 529.22 93.232H526.46V96.028H529.22ZM539.922 93.856C539.922 93.944 539.914 94.06 539.898 94.204H534.738C534.81 94.764 535.054 95.216 535.47 95.56C535.894 95.896 536.418 96.064 537.042 96.064C537.802 96.064 538.414 95.808 538.878 95.296L539.514 96.04C539.226 96.376 538.866 96.632 538.434 96.808C538.01 96.984 537.534 97.072 537.006 97.072C536.334 97.072 535.738 96.936 535.218 96.664C534.698 96.384 534.294 95.996 534.006 95.5C533.726 95.004 533.586 94.444 533.586 93.82C533.586 93.204 533.722 92.648 533.994 92.152C534.274 91.656 534.654 91.272 535.134 91C535.622 90.72 536.17 90.58 536.778 90.58C537.386 90.58 537.926 90.72 538.398 91C538.878 91.272 539.25 91.656 539.514 92.152C539.786 92.648 539.922 93.216 539.922 93.856ZM536.778 91.552C536.226 91.552 535.762 91.72 535.386 92.056C535.018 92.392 534.802 92.832 534.738 93.376H538.818C538.754 92.84 538.534 92.404 538.158 92.068C537.79 91.724 537.33 91.552 536.778 91.552ZM545.098 96.628C544.93 96.772 544.722 96.884 544.474 96.964C544.226 97.036 543.97 97.072 543.706 97.072C543.066 97.072 542.57 96.9 542.218 96.556C541.866 96.212 541.69 95.72 541.69 95.08V91.588H540.61V90.64H541.69V89.248H542.842V90.64H544.666V91.588H542.842V95.032C542.842 95.376 542.926 95.64 543.094 95.824C543.27 96.008 543.518 96.1 543.838 96.1C544.19 96.1 544.49 96 544.738 95.8L545.098 96.628Z" fill="#717171"/>
<path d="M596.052 97.096C595.204 97.096 594.44 96.912 593.76 96.544C593.08 96.168 592.544 95.652 592.152 94.996C591.768 94.34 591.576 93.608 591.576 92.8C591.576 91.992 591.768 91.26 592.152 90.604C592.544 89.948 593.08 89.436 593.76 89.068C594.44 88.692 595.204 88.504 596.052 88.504C596.892 88.504 597.652 88.692 598.332 89.068C599.012 89.436 599.544 89.948 599.928 90.604C600.312 91.252 600.504 91.984 600.504 92.8C600.504 93.616 600.312 94.352 599.928 95.008C599.544 95.656 599.012 96.168 598.332 96.544C597.652 96.912 596.892 97.096 596.052 97.096ZM596.052 96.028C596.668 96.028 597.22 95.888 597.708 95.608C598.204 95.328 598.592 94.944 598.872 94.456C599.16 93.96 599.304 93.408 599.304 92.8C599.304 92.192 599.16 91.644 598.872 91.156C598.592 90.66 598.204 90.272 597.708 89.992C597.22 89.712 596.668 89.572 596.052 89.572C595.436 89.572 594.876 89.712 594.372 89.992C593.876 90.272 593.484 90.66 593.196 91.156C592.916 91.644 592.776 92.192 592.776 92.8C592.776 93.408 592.916 93.96 593.196 94.456C593.484 94.944 593.876 95.328 594.372 95.608C594.876 95.888 595.436 96.028 596.052 96.028ZM608.17 88.096V97H607.066V95.992C606.81 96.344 606.486 96.612 606.094 96.796C605.702 96.98 605.27 97.072 604.798 97.072C604.182 97.072 603.63 96.936 603.142 96.664C602.654 96.392 602.27 96.012 601.99 95.524C601.718 95.028 601.582 94.46 601.582 93.82C601.582 93.18 601.718 92.616 601.99 92.128C602.27 91.64 602.654 91.26 603.142 90.988C603.63 90.716 604.182 90.58 604.798 90.58C605.254 90.58 605.674 90.668 606.058 90.844C606.442 91.012 606.762 91.264 607.018 91.6V88.096H608.17ZM604.894 96.064C605.294 96.064 605.658 95.972 605.986 95.788C606.314 95.596 606.57 95.332 606.754 94.996C606.938 94.652 607.03 94.26 607.03 93.82C607.03 93.38 606.938 92.992 606.754 92.656C606.57 92.312 606.314 92.048 605.986 91.864C605.658 91.68 605.294 91.588 604.894 91.588C604.486 91.588 604.118 91.68 603.79 91.864C603.47 92.048 603.214 92.312 603.022 92.656C602.838 92.992 602.746 93.38 602.746 93.82C602.746 94.26 602.838 94.652 603.022 94.996C603.214 95.332 603.47 95.596 603.79 95.788C604.118 95.972 604.486 96.064 604.894 96.064ZM616.35 88.096V97H615.246V95.992C614.99 96.344 614.666 96.612 614.274 96.796C613.882 96.98 613.45 97.072 612.978 97.072C612.362 97.072 611.81 96.936 611.322 96.664C610.834 96.392 610.45 96.012 610.17 95.524C609.898 95.028 609.762 94.46 609.762 93.82C609.762 93.18 609.898 92.616 610.17 92.128C610.45 91.64 610.834 91.26 611.322 90.988C611.81 90.716 612.362 90.58 612.978 90.58C613.434 90.58 613.854 90.668 614.238 90.844C614.622 91.012 614.942 91.264 615.198 91.6V88.096H616.35ZM613.074 96.064C613.474 96.064 613.838 95.972 614.166 95.788C614.494 95.596 614.75 95.332 614.934 94.996C615.118 94.652 615.21 94.26 615.21 93.82C615.21 93.38 615.118 92.992 614.934 92.656C614.75 92.312 614.494 92.048 614.166 91.864C613.838 91.68 613.474 91.588 613.074 91.588C612.666 91.588 612.298 91.68 611.97 91.864C611.65 92.048 611.394 92.312 611.202 92.656C611.018 92.992 610.926 93.38 610.926 93.82C610.926 94.26 611.018 94.652 611.202 94.996C611.394 95.332 611.65 95.596 611.97 95.788C612.298 95.972 612.666 96.064 613.074 96.064Z" fill="#717171"/>
<path d="M663.128 88.6L660.32 97H659.06L656.768 90.292L654.476 97H653.192L650.384 88.6H651.62L653.888 95.428L656.252 88.6H657.356L659.672 95.464L661.988 88.6H663.128ZM664.44 90.64H665.592V97H664.44V90.64ZM665.016 89.416C664.792 89.416 664.604 89.344 664.452 89.2C664.308 89.056 664.236 88.88 664.236 88.672C664.236 88.464 664.308 88.288 664.452 88.144C664.604 87.992 664.792 87.916 665.016 87.916C665.24 87.916 665.424 87.988 665.568 88.132C665.72 88.268 665.796 88.44 665.796 88.648C665.796 88.864 665.72 89.048 665.568 89.2C665.424 89.344 665.24 89.416 665.016 89.416ZM671.187 90.58C671.995 90.58 672.635 90.816 673.107 91.288C673.587 91.752 673.827 92.436 673.827 93.34V97H672.675V93.472C672.675 92.856 672.527 92.392 672.231 92.08C671.935 91.768 671.511 91.612 670.959 91.612C670.335 91.612 669.843 91.796 669.483 92.164C669.123 92.524 668.943 93.044 668.943 93.724V97H667.791V90.64H668.895V91.6C669.127 91.272 669.439 91.02 669.831 90.844C670.231 90.668 670.683 90.58 671.187 90.58Z" fill="#717171"/>
<rect x="436.5" y="30.5" width="267" height="38" rx="19" stroke="white"/>
<rect x="439.5" y="33.5" width="133" height="32" rx="16" fill="#FFAA6C" stroke="#FFDABE"/>
<path d="M483.612 51.9H479.148L478.224 54H476.988L480.792 45.6H481.98L485.796 54H484.536L483.612 51.9ZM483.192 50.94L481.38 46.824L479.568 50.94H483.192ZM487.049 45.6H488.249V52.956H492.797V54H487.049V45.6ZM494.174 45.6H495.374V52.956H499.922V54H494.174V45.6ZM510.174 49.644C510.662 49.78 511.046 50.028 511.326 50.388C511.606 50.74 511.746 51.188 511.746 51.732C511.746 52.46 511.47 53.02 510.918 53.412C510.374 53.804 509.578 54 508.53 54H504.522V45.6H508.29C509.25 45.6 509.99 45.792 510.51 46.176C511.038 46.56 511.302 47.092 511.302 47.772C511.302 48.212 511.198 48.592 510.99 48.912C510.79 49.232 510.518 49.476 510.174 49.644ZM505.722 46.572V49.26H508.182C508.798 49.26 509.27 49.148 509.598 48.924C509.934 48.692 510.102 48.356 510.102 47.916C510.102 47.476 509.934 47.144 509.598 46.92C509.27 46.688 508.798 46.572 508.182 46.572H505.722ZM508.482 53.028C509.162 53.028 509.674 52.916 510.018 52.692C510.362 52.468 510.534 52.116 510.534 51.636C510.534 50.7 509.85 50.232 508.482 50.232H505.722V53.028H508.482ZM519.7 52.956V54H513.604V45.6H519.532V46.644H514.804V49.224H519.016V50.244H514.804V52.956H519.7ZM523.311 46.644H520.431V45.6H527.379V46.644H524.499V54H523.311V46.644ZM531.028 54.096C530.396 54.096 529.784 54 529.192 53.808C528.608 53.608 528.148 53.352 527.812 53.04L528.256 52.104C528.576 52.392 528.984 52.628 529.48 52.812C529.984 52.988 530.5 53.076 531.028 53.076C531.724 53.076 532.244 52.96 532.588 52.728C532.932 52.488 533.104 52.172 533.104 51.78C533.104 51.492 533.008 51.26 532.816 51.084C532.632 50.9 532.4 50.76 532.12 50.664C531.848 50.568 531.46 50.46 530.956 50.34C530.324 50.188 529.812 50.036 529.42 49.884C529.036 49.732 528.704 49.5 528.424 49.188C528.152 48.868 528.016 48.44 528.016 47.904C528.016 47.456 528.132 47.052 528.364 46.692C528.604 46.332 528.964 46.044 529.444 45.828C529.924 45.612 530.52 45.504 531.232 45.504C531.728 45.504 532.216 45.568 532.696 45.696C533.176 45.824 533.588 46.008 533.932 46.248L533.536 47.208C533.184 46.984 532.808 46.816 532.408 46.704C532.008 46.584 531.616 46.524 531.232 46.524C530.552 46.524 530.04 46.648 529.696 46.896C529.36 47.144 529.192 47.464 529.192 47.856C529.192 48.144 529.288 48.38 529.48 48.564C529.672 48.74 529.908 48.88 530.188 48.984C530.476 49.08 530.864 49.184 531.352 49.296C531.984 49.448 532.492 49.6 532.876 49.752C533.26 49.904 533.588 50.136 533.86 50.448C534.14 50.76 534.28 51.18 534.28 51.708C534.28 52.148 534.16 52.552 533.92 52.92C533.68 53.28 533.316 53.568 532.828 53.784C532.34 53.992 531.74 54.096 531.028 54.096Z" fill="black"/>
<rect x="436" y="108" width="268" height="30" rx="4" fill="#FFC783"/>
<path d="M459.408 120.58C460.288 120.58 460.96 120.796 461.424 121.228C461.896 121.66 462.132 122.304 462.132 123.16V127H461.04V126.16C460.848 126.456 460.572 126.684 460.212 126.844C459.86 126.996 459.44 127.072 458.952 127.072C458.24 127.072 457.668 126.9 457.236 126.556C456.812 126.212 456.6 125.76 456.6 125.2C456.6 124.64 456.804 124.192 457.212 123.856C457.62 123.512 458.268 123.34 459.156 123.34H460.98V123.112C460.98 122.616 460.836 122.236 460.548 121.972C460.26 121.708 459.836 121.576 459.276 121.576C458.9 121.576 458.532 121.64 458.172 121.768C457.812 121.888 457.508 122.052 457.26 122.26L456.78 121.396C457.108 121.132 457.5 120.932 457.956 120.796C458.412 120.652 458.896 120.58 459.408 120.58ZM459.144 126.184C459.584 126.184 459.964 126.088 460.284 125.896C460.604 125.696 460.836 125.416 460.98 125.056V124.168H459.204C458.228 124.168 457.74 124.496 457.74 125.152C457.74 125.472 457.864 125.724 458.112 125.908C458.36 126.092 458.704 126.184 459.144 126.184ZM465.988 120.328L467.416 121.132L467.044 121.792L465.592 120.94L465.604 122.572H464.884L464.896 120.94L463.444 121.792L463.072 121.132L464.512 120.328L463.072 119.536L463.444 118.864L464.896 119.716L464.884 118.096H465.604L465.592 119.716L467.044 118.864L467.416 119.536L465.988 120.328ZM471.027 120.328L472.455 121.132L472.083 121.792L470.631 120.94L470.643 122.572H469.923L469.935 120.94L468.483 121.792L468.111 121.132L469.551 120.328L468.111 119.536L468.483 118.864L469.935 119.716L469.923 118.096H470.643L470.631 119.716L472.083 118.864L472.455 119.536L471.027 120.328ZM476.066 120.328L477.494 121.132L477.122 121.792L475.67 120.94L475.682 122.572H474.962L474.974 120.94L473.522 121.792L473.15 121.132L474.59 120.328L473.15 119.536L473.522 118.864L474.974 119.716L474.962 118.096H475.682L475.67 119.716L477.122 118.864L477.494 119.536L476.066 120.328ZM481.105 120.328L482.533 121.132L482.161 121.792L480.709 120.94L480.721 122.572H480.001L480.013 120.94L478.561 121.792L478.189 121.132L479.629 120.328L478.189 119.536L478.561 118.864L480.013 119.716L480.001 118.096H480.721L480.709 119.716L482.161 118.864L482.533 119.536L481.105 120.328ZM485.923 121.708C486.123 121.34 486.419 121.06 486.811 120.868C487.203 120.676 487.679 120.58 488.239 120.58V121.696C488.175 121.688 488.087 121.684 487.975 121.684C487.351 121.684 486.859 121.872 486.499 122.248C486.147 122.616 485.971 123.144 485.971 123.832V127H484.819V120.64H485.923V121.708Z" fill="white"/>
<path d="M530.48 125.956V127H524.444V126.184L527.864 122.884C528.28 122.484 528.56 122.14 528.704 121.852C528.848 121.556 528.92 121.26 528.92 120.964C528.92 120.524 528.764 120.184 528.452 119.944C528.148 119.696 527.708 119.572 527.132 119.572C526.204 119.572 525.488 119.876 524.984 120.484L524.168 119.776C524.496 119.376 524.924 119.064 525.452 118.84C525.988 118.616 526.584 118.504 527.24 118.504C528.12 118.504 528.82 118.716 529.34 119.14C529.86 119.556 530.12 120.124 530.12 120.844C530.12 121.292 530.024 121.716 529.832 122.116C529.64 122.516 529.276 122.972 528.74 123.484L526.172 125.956H530.48ZM538.121 127.096C537.457 127.096 536.865 126.928 536.345 126.592C535.833 126.248 535.429 125.752 535.133 125.104C534.837 124.456 534.689 123.688 534.689 122.8C534.689 121.912 534.837 121.144 535.133 120.496C535.429 119.848 535.833 119.356 536.345 119.02C536.865 118.676 537.457 118.504 538.121 118.504C538.777 118.504 539.361 118.676 539.873 119.02C540.393 119.356 540.801 119.848 541.097 120.496C541.393 121.144 541.541 121.912 541.541 122.8C541.541 123.688 541.393 124.456 541.097 125.104C540.801 125.752 540.393 126.248 539.873 126.592C539.361 126.928 538.777 127.096 538.121 127.096ZM538.121 126.028C538.793 126.028 539.329 125.752 539.729 125.2C540.137 124.648 540.341 123.848 540.341 122.8C540.341 121.752 540.137 120.952 539.729 120.4C539.329 119.848 538.793 119.572 538.121 119.572C537.441 119.572 536.897 119.848 536.489 120.4C536.089 120.952 535.889 121.752 535.889 122.8C535.889 123.848 536.089 124.648 536.489 125.2C536.897 125.752 537.441 126.028 538.121 126.028ZM546.125 127.096C545.461 127.096 544.869 126.928 544.349 126.592C543.837 126.248 543.433 125.752 543.137 125.104C542.841 124.456 542.693 123.688 542.693 122.8C542.693 121.912 542.841 121.144 543.137 120.496C543.433 119.848 543.837 119.356 544.349 119.02C544.869 118.676 545.461 118.504 546.125 118.504C546.781 118.504 547.365 118.676 547.877 119.02C548.397 119.356 548.805 119.848 549.101 120.496C549.397 121.144 549.545 121.912 549.545 122.8C549.545 123.688 549.397 124.456 549.101 125.104C548.805 125.752 548.397 126.248 547.877 126.592C547.365 126.928 546.781 127.096 546.125 127.096ZM546.125 126.028C546.797 126.028 547.333 125.752 547.733 125.2C548.141 124.648 548.345 123.848 548.345 122.8C548.345 121.752 548.141 120.952 547.733 120.4C547.333 119.848 546.797 119.572 546.125 119.572C545.445 119.572 544.901 119.848 544.493 120.4C544.093 120.952 543.893 121.752 543.893 122.8C543.893 123.848 544.093 124.648 544.493 125.2C544.901 125.752 545.445 126.028 546.125 126.028ZM554.129 127.096C553.465 127.096 552.873 126.928 552.353 126.592C551.841 126.248 551.437 125.752 551.141 125.104C550.845 124.456 550.697 123.688 550.697 122.8C550.697 121.912 550.845 121.144 551.141 120.496C551.437 119.848 551.841 119.356 552.353 119.02C552.873 118.676 553.465 118.504 554.129 118.504C554.785 118.504 555.369 118.676 555.881 119.02C556.401 119.356 556.809 119.848 557.105 120.496C557.401 121.144 557.549 121.912 557.549 122.8C557.549 123.688 557.401 124.456 557.105 125.104C556.809 125.752 556.401 126.248 555.881 126.592C555.369 126.928 554.785 127.096 554.129 127.096ZM554.129 126.028C554.801 126.028 555.337 125.752 555.737 125.2C556.145 124.648 556.349 123.848 556.349 122.8C556.349 121.752 556.145 120.952 555.737 120.4C555.337 119.848 554.801 119.572 554.129 119.572C553.449 119.572 552.905 119.848 552.497 120.4C552.097 120.952 551.897 121.752 551.897 122.8C551.897 123.848 552.097 124.648 552.497 125.2C552.905 125.752 553.449 126.028 554.129 126.028Z" fill="white"/>
<path d="M591 123.304H597V124.108H591V123.304Z" fill="white"/>
<path d="M650 123.304H656V124.108H650V123.304Z" fill="white"/>
<rect x="436" y="142" width="268" height="30" rx="4" fill="#FFC783"/>
<path d="M462.84 157.856C462.84 157.944 462.832 158.06 462.816 158.204H457.656C457.728 158.764 457.972 159.216 458.388 159.56C458.812 159.896 459.336 160.064 459.96 160.064C460.72 160.064 461.332 159.808 461.796 159.296L462.432 160.04C462.144 160.376 461.784 160.632 461.352 160.808C460.928 160.984 460.452 161.072 459.924 161.072C459.252 161.072 458.656 160.936 458.136 160.664C457.616 160.384 457.212 159.996 456.924 159.5C456.644 159.004 456.504 158.444 456.504 157.82C456.504 157.204 456.64 156.648 456.912 156.152C457.192 155.656 457.572 155.272 458.052 155C458.54 154.72 459.088 154.58 459.696 154.58C460.304 154.58 460.844 154.72 461.316 155C461.796 155.272 462.168 155.656 462.432 156.152C462.704 156.648 462.84 157.216 462.84 157.856ZM459.696 155.552C459.144 155.552 458.68 155.72 458.304 156.056C457.936 156.392 457.72 156.832 457.656 157.376H461.736C461.672 156.84 461.452 156.404 461.076 156.068C460.708 155.724 460.248 155.552 459.696 155.552ZM466.257 154.328L467.685 155.132L467.313 155.792L465.861 154.94L465.873 156.572H465.153L465.165 154.94L463.713 155.792L463.341 155.132L464.781 154.328L463.341 153.536L463.713 152.864L465.165 153.716L465.153 152.096H465.873L465.861 153.716L467.313 152.864L467.685 153.536L466.257 154.328ZM471.296 154.328L472.724 155.132L472.352 155.792L470.9 154.94L470.912 156.572H470.192L470.204 154.94L468.752 155.792L468.38 155.132L469.82 154.328L468.38 153.536L468.752 152.864L470.204 153.716L470.192 152.096H470.912L470.9 153.716L472.352 152.864L472.724 153.536L471.296 154.328ZM476.335 154.328L477.763 155.132L477.391 155.792L475.939 154.94L475.951 156.572H475.231L475.243 154.94L473.791 155.792L473.419 155.132L474.859 154.328L473.419 153.536L473.791 152.864L475.243 153.716L475.231 152.096H475.951L475.939 153.716L477.391 152.864L477.763 153.536L476.335 154.328ZM481.374 154.328L482.802 155.132L482.43 155.792L480.978 154.94L480.99 156.572H480.27L480.282 154.94L478.83 155.792L478.458 155.132L479.898 154.328L478.458 153.536L478.83 152.864L480.282 153.716L480.27 152.096H480.99L480.978 153.716L482.43 152.864L482.802 153.536L481.374 154.328ZM485.951 161.072C485.431 161.072 484.931 161.004 484.451 160.868C483.971 160.724 483.595 160.544 483.323 160.328L483.803 159.416C484.083 159.616 484.423 159.776 484.823 159.896C485.223 160.016 485.627 160.076 486.035 160.076C487.043 160.076 487.547 159.788 487.547 159.212C487.547 159.02 487.479 158.868 487.343 158.756C487.207 158.644 487.035 158.564 486.827 158.516C486.627 158.46 486.339 158.4 485.963 158.336C485.451 158.256 485.031 158.164 484.703 158.06C484.383 157.956 484.107 157.78 483.875 157.532C483.643 157.284 483.527 156.936 483.527 156.488C483.527 155.912 483.767 155.452 484.247 155.108C484.727 154.756 485.371 154.58 486.179 154.58C486.603 154.58 487.027 154.632 487.451 154.736C487.875 154.84 488.223 154.98 488.495 155.156L488.003 156.068C487.483 155.732 486.871 155.564 486.167 155.564C485.679 155.564 485.307 155.644 485.051 155.804C484.795 155.964 484.667 156.176 484.667 156.44C484.667 156.648 484.739 156.812 484.883 156.932C485.027 157.052 485.203 157.14 485.411 157.196C485.627 157.252 485.927 157.316 486.311 157.388C486.823 157.476 487.235 157.572 487.547 157.676C487.867 157.772 488.139 157.94 488.363 158.18C488.587 158.42 488.699 158.756 488.699 159.188C488.699 159.764 488.451 160.224 487.955 160.568C487.467 160.904 486.799 161.072 485.951 161.072Z" fill="white"/>
<path d="M527.18 152.6V161H525.992V153.644H524.096V152.6H527.18ZM539.548 158.936H537.952V161H536.788V158.936H532.12V158.096L536.416 152.6H537.712L533.596 157.904H536.824V156.08H537.952V157.904H539.548V158.936ZM543.699 161.096C543.035 161.096 542.443 160.928 541.923 160.592C541.411 160.248 541.007 159.752 540.711 159.104C540.415 158.456 540.267 157.688 540.267 156.8C540.267 155.912 540.415 155.144 540.711 154.496C541.007 153.848 541.411 153.356 541.923 153.02C542.443 152.676 543.035 152.504 543.699 152.504C544.355 152.504 544.939 152.676 545.451 153.02C545.971 153.356 546.379 153.848 546.675 154.496C546.971 155.144 547.119 155.912 547.119 156.8C547.119 157.688 546.971 158.456 546.675 159.104C546.379 159.752 545.971 160.248 545.451 160.592C544.939 160.928 544.355 161.096 543.699 161.096ZM543.699 160.028C544.371 160.028 544.907 159.752 545.307 159.2C545.715 158.648 545.919 157.848 545.919 156.8C545.919 155.752 545.715 154.952 545.307 154.4C544.907 153.848 544.371 153.572 543.699 153.572C543.019 153.572 542.475 153.848 542.067 154.4C541.667 154.952 541.467 155.752 541.467 156.8C541.467 157.848 541.667 158.648 542.067 159.2C542.475 159.752 543.019 160.028 543.699 160.028ZM551.703 161.096C551.039 161.096 550.447 160.928 549.927 160.592C549.415 160.248 549.011 159.752 548.715 159.104C548.419 158.456 548.271 157.688 548.271 156.8C548.271 155.912 548.419 155.144 548.715 154.496C549.011 153.848 549.415 153.356 549.927 153.02C550.447 152.676 551.039 152.504 551.703 152.504C552.359 152.504 552.943 152.676 553.455 153.02C553.975 153.356 554.383 153.848 554.679 154.496C554.975 155.144 555.123 155.912 555.123 156.8C555.123 157.688 554.975 158.456 554.679 159.104C554.383 159.752 553.975 160.248 553.455 160.592C552.943 160.928 552.359 161.096 551.703 161.096ZM551.703 160.028C552.375 160.028 552.911 159.752 553.311 159.2C553.719 158.648 553.923 157.848 553.923 156.8C553.923 155.752 553.719 154.952 553.311 154.4C552.911 153.848 552.375 153.572 551.703 153.572C551.023 153.572 550.479 153.848 550.071 154.4C549.671 154.952 549.471 155.752 549.471 156.8C549.471 157.848 549.671 158.648 550.071 159.2C550.479 159.752 551.023 160.028 551.703 160.028Z" fill="white"/>
<path d="M591 157.304H597V158.108H591V157.304Z" fill="white"/>
<path d="M650 157.304H656V158.108H650V157.304Z" fill="white"/>
<rect x="436" y="176" width="268" height="30" rx="4" fill="#FFC783"/>
<path d="M463.092 186.096V195H461.988V193.992C461.732 194.344 461.408 194.612 461.016 194.796C460.624 194.98 460.192 195.072 459.72 195.072C459.104 195.072 458.552 194.936 458.064 194.664C457.576 194.392 457.192 194.012 456.912 193.524C456.64 193.028 456.504 192.46 456.504 191.82C456.504 191.18 456.64 190.616 456.912 190.128C457.192 189.64 457.576 189.26 458.064 188.988C458.552 188.716 459.104 188.58 459.72 188.58C460.176 188.58 460.596 188.668 460.98 188.844C461.364 189.012 461.684 189.264 461.94 189.6V186.096H463.092ZM459.816 194.064C460.216 194.064 460.58 193.972 460.908 193.788C461.236 193.596 461.492 193.332 461.676 192.996C461.86 192.652 461.952 192.26 461.952 191.82C461.952 191.38 461.86 190.992 461.676 190.656C461.492 190.312 461.236 190.048 460.908 189.864C460.58 189.68 460.216 189.588 459.816 189.588C459.408 189.588 459.04 189.68 458.712 189.864C458.392 190.048 458.136 190.312 457.944 190.656C457.76 190.992 457.668 191.38 457.668 191.82C457.668 192.26 457.76 192.652 457.944 192.996C458.136 193.332 458.392 193.596 458.712 193.788C459.04 193.972 459.408 194.064 459.816 194.064ZM467.324 188.328L468.752 189.132L468.38 189.792L466.928 188.94L466.94 190.572H466.22L466.232 188.94L464.78 189.792L464.408 189.132L465.848 188.328L464.408 187.536L464.78 186.864L466.232 187.716L466.22 186.096H466.94L466.928 187.716L468.38 186.864L468.752 187.536L467.324 188.328ZM472.363 188.328L473.791 189.132L473.419 189.792L471.967 188.94L471.979 190.572H471.259L471.271 188.94L469.819 189.792L469.447 189.132L470.887 188.328L469.447 187.536L469.819 186.864L471.271 187.716L471.259 186.096H471.979L471.967 187.716L473.419 186.864L473.791 187.536L472.363 188.328ZM477.402 188.328L478.83 189.132L478.458 189.792L477.006 188.94L477.018 190.572H476.298L476.31 188.94L474.858 189.792L474.486 189.132L475.926 188.328L474.486 187.536L474.858 186.864L476.31 187.716L476.298 186.096H477.018L477.006 187.716L478.458 186.864L478.83 187.536L477.402 188.328ZM482.441 188.328L483.869 189.132L483.497 189.792L482.045 188.94L482.057 190.572H481.337L481.349 188.94L479.897 189.792L479.525 189.132L480.965 188.328L479.525 187.536L479.897 186.864L481.349 187.716L481.337 186.096H482.057L482.045 187.716L483.497 186.864L483.869 187.536L482.441 188.328ZM487.018 195.072C486.498 195.072 485.998 195.004 485.518 194.868C485.038 194.724 484.662 194.544 484.39 194.328L484.87 193.416C485.15 193.616 485.49 193.776 485.89 193.896C486.29 194.016 486.694 194.076 487.102 194.076C488.11 194.076 488.614 193.788 488.614 193.212C488.614 193.02 488.546 192.868 488.41 192.756C488.274 192.644 488.102 192.564 487.894 192.516C487.694 192.46 487.406 192.4 487.03 192.336C486.518 192.256 486.098 192.164 485.77 192.06C485.45 191.956 485.174 191.78 484.942 191.532C484.71 191.284 484.594 190.936 484.594 190.488C484.594 189.912 484.834 189.452 485.314 189.108C485.794 188.756 486.438 188.58 487.246 188.58C487.67 188.58 488.094 188.632 488.518 188.736C488.942 188.84 489.29 188.98 489.562 189.156L489.07 190.068C488.55 189.732 487.938 189.564 487.234 189.564C486.746 189.564 486.374 189.644 486.118 189.804C485.862 189.964 485.734 190.176 485.734 190.44C485.734 190.648 485.806 190.812 485.95 190.932C486.094 191.052 486.27 191.14 486.478 191.196C486.694 191.252 486.994 191.316 487.378 191.388C487.89 191.476 488.302 191.572 488.614 191.676C488.934 191.772 489.206 191.94 489.43 192.18C489.654 192.42 489.766 192.756 489.766 193.188C489.766 193.764 489.518 194.224 489.022 194.568C488.534 194.904 487.866 195.072 487.018 195.072Z" fill="white"/>
<path d="M528.2 189.9C528.752 189.9 529.244 190.004 529.676 190.212C530.116 190.42 530.46 190.72 530.708 191.112C530.956 191.496 531.08 191.94 531.08 192.444C531.08 192.972 530.948 193.436 530.684 193.836C530.428 194.236 530.072 194.548 529.616 194.772C529.168 194.988 528.664 195.096 528.104 195.096C526.976 195.096 526.104 194.732 525.488 194.004C524.88 193.276 524.576 192.244 524.576 190.908C524.576 189.972 524.74 189.176 525.068 188.52C525.404 187.856 525.868 187.356 526.46 187.02C527.06 186.676 527.756 186.504 528.548 186.504C528.956 186.504 529.34 186.548 529.7 186.636C530.06 186.716 530.372 186.836 530.636 186.996L530.18 187.932C529.78 187.668 529.244 187.536 528.572 187.536C527.7 187.536 527.016 187.808 526.52 188.352C526.024 188.888 525.776 189.672 525.776 190.704C525.776 190.832 525.78 190.932 525.788 191.004C526.028 190.644 526.356 190.372 526.772 190.188C527.196 189.996 527.672 189.9 528.2 189.9ZM528.056 194.124C528.608 194.124 529.056 193.976 529.4 193.68C529.744 193.384 529.916 192.988 529.916 192.492C529.916 191.996 529.74 191.604 529.388 191.316C529.044 191.02 528.58 190.872 527.996 190.872C527.62 190.872 527.284 190.944 526.988 191.088C526.7 191.232 526.472 191.428 526.304 191.676C526.144 191.924 526.064 192.2 526.064 192.504C526.064 192.8 526.14 193.072 526.292 193.32C526.452 193.56 526.68 193.756 526.976 193.908C527.28 194.052 527.64 194.124 528.056 194.124ZM535.414 195.096C534.75 195.096 534.158 194.928 533.638 194.592C533.126 194.248 532.722 193.752 532.426 193.104C532.13 192.456 531.982 191.688 531.982 190.8C531.982 189.912 532.13 189.144 532.426 188.496C532.722 187.848 533.126 187.356 533.638 187.02C534.158 186.676 534.75 186.504 535.414 186.504C536.07 186.504 536.654 186.676 537.166 187.02C537.686 187.356 538.094 187.848 538.39 188.496C538.686 189.144 538.834 189.912 538.834 190.8C538.834 191.688 538.686 192.456 538.39 193.104C538.094 193.752 537.686 194.248 537.166 194.592C536.654 194.928 536.07 195.096 535.414 195.096ZM535.414 194.028C536.086 194.028 536.622 193.752 537.022 193.2C537.43 192.648 537.634 191.848 537.634 190.8C537.634 189.752 537.43 188.952 537.022 188.4C536.622 187.848 536.086 187.572 535.414 187.572C534.734 187.572 534.19 187.848 533.782 188.4C533.382 188.952 533.182 189.752 533.182 190.8C533.182 191.848 533.382 192.648 533.782 193.2C534.19 193.752 534.734 194.028 535.414 194.028ZM543.418 195.096C542.754 195.096 542.162 194.928 541.642 194.592C541.13 194.248 540.726 193.752 540.43 193.104C540.134 192.456 539.986 191.688 539.986 190.8C539.986 189.912 540.134 189.144 540.43 188.496C540.726 187.848 541.13 187.356 541.642 187.02C542.162 186.676 542.754 186.504 543.418 186.504C544.074 186.504 544.658 186.676 545.17 187.02C545.69 187.356 546.098 187.848 546.394 188.496C546.69 189.144 546.838 189.912 546.838 190.8C546.838 191.688 546.69 192.456 546.394 193.104C546.098 193.752 545.69 194.248 545.17 194.592C544.658 194.928 544.074 195.096 543.418 195.096ZM543.418 194.028C544.09 194.028 544.626 193.752 545.026 193.2C545.434 192.648 545.638 191.848 545.638 190.8C545.638 189.752 545.434 188.952 545.026 188.4C544.626 187.848 544.09 187.572 543.418 187.572C542.738 187.572 542.194 187.848 541.786 188.4C541.386 188.952 541.186 189.752 541.186 190.8C541.186 191.848 541.386 192.648 541.786 193.2C542.194 193.752 542.738 194.028 543.418 194.028Z" fill="white"/>
<path d="M591 191.304H597V192.108H591V191.304Z" fill="white"/>
<path d="M650 191.304H656V192.108H650V191.304Z" fill="white"/>
<rect x="436" y="210" width="268" height="30" rx="4" fill="#FFC783"/>
<path d="M459.408 222.58C460.288 222.58 460.96 222.796 461.424 223.228C461.896 223.66 462.132 224.304 462.132 225.16V229H461.04V228.16C460.848 228.456 460.572 228.684 460.212 228.844C459.86 228.996 459.44 229.072 458.952 229.072C458.24 229.072 457.668 228.9 457.236 228.556C456.812 228.212 456.6 227.76 456.6 227.2C456.6 226.64 456.804 226.192 457.212 225.856C457.62 225.512 458.268 225.34 459.156 225.34H460.98V225.112C460.98 224.616 460.836 224.236 460.548 223.972C460.26 223.708 459.836 223.576 459.276 223.576C458.9 223.576 458.532 223.64 458.172 223.768C457.812 223.888 457.508 224.052 457.26 224.26L456.78 223.396C457.108 223.132 457.5 222.932 457.956 222.796C458.412 222.652 458.896 222.58 459.408 222.58ZM459.144 228.184C459.584 228.184 459.964 228.088 460.284 227.896C460.604 227.696 460.836 227.416 460.98 227.056V226.168H459.204C458.228 226.168 457.74 226.496 457.74 227.152C457.74 227.472 457.864 227.724 458.112 227.908C458.36 228.092 458.704 228.184 459.144 228.184ZM465.988 222.328L467.416 223.132L467.044 223.792L465.592 222.94L465.604 224.572H464.884L464.896 222.94L463.444 223.792L463.072 223.132L464.512 222.328L463.072 221.536L463.444 220.864L464.896 221.716L464.884 220.096H465.604L465.592 221.716L467.044 220.864L467.416 221.536L465.988 222.328ZM471.027 222.328L472.455 223.132L472.083 223.792L470.631 222.94L470.643 224.572H469.923L469.935 222.94L468.483 223.792L468.111 223.132L469.551 222.328L468.111 221.536L468.483 220.864L469.935 221.716L469.923 220.096H470.643L470.631 221.716L472.083 220.864L472.455 221.536L471.027 222.328ZM476.066 222.328L477.494 223.132L477.122 223.792L475.67 222.94L475.682 224.572H474.962L474.974 222.94L473.522 223.792L473.15 223.132L474.59 222.328L473.15 221.536L473.522 220.864L474.974 221.716L474.962 220.096H475.682L475.67 221.716L477.122 220.864L477.494 221.536L476.066 222.328ZM481.105 222.328L482.533 223.132L482.161 223.792L480.709 222.94L480.721 224.572H480.001L480.013 222.94L478.561 223.792L478.189 223.132L479.629 222.328L478.189 221.536L478.561 220.864L480.013 221.716L480.001 220.096H480.721L480.709 221.716L482.161 220.864L482.533 221.536L481.105 222.328ZM489.406 225.856C489.406 225.944 489.398 226.06 489.382 226.204H484.222C484.294 226.764 484.538 227.216 484.954 227.56C485.378 227.896 485.902 228.064 486.526 228.064C487.286 228.064 487.898 227.808 488.362 227.296L488.998 228.04C488.71 228.376 488.35 228.632 487.918 228.808C487.494 228.984 487.018 229.072 486.49 229.072C485.818 229.072 485.222 228.936 484.702 228.664C484.182 228.384 483.778 227.996 483.49 227.5C483.21 227.004 483.07 226.444 483.07 225.82C483.07 225.204 483.206 224.648 483.478 224.152C483.758 223.656 484.138 223.272 484.618 223C485.106 222.72 485.654 222.58 486.262 222.58C486.87 222.58 487.41 222.72 487.882 223C488.362 223.272 488.734 223.656 488.998 224.152C489.27 224.648 489.406 225.216 489.406 225.856ZM486.262 223.552C485.71 223.552 485.246 223.72 484.87 224.056C484.502 224.392 484.286 224.832 484.222 225.376H488.302C488.238 224.84 488.018 224.404 487.642 224.068C487.274 223.724 486.814 223.552 486.262 223.552Z" fill="white"/>
<path d="M530.48 227.956V229H524.444V228.184L527.864 224.884C528.28 224.484 528.56 224.14 528.704 223.852C528.848 223.556 528.92 223.26 528.92 222.964C528.92 222.524 528.764 222.184 528.452 221.944C528.148 221.696 527.708 221.572 527.132 221.572C526.204 221.572 525.488 221.876 524.984 222.484L524.168 221.776C524.496 221.376 524.924 221.064 525.452 220.84C525.988 220.616 526.584 220.504 527.24 220.504C528.12 220.504 528.82 220.716 529.34 221.14C529.86 221.556 530.12 222.124 530.12 222.844C530.12 223.292 530.024 223.716 529.832 224.116C529.64 224.516 529.276 224.972 528.74 225.484L526.172 227.956H530.48ZM540.809 220.6V221.416L537.413 229H536.141L539.465 221.644H535.625V223.144H534.473V220.6H540.809ZM545.059 229.096C544.395 229.096 543.803 228.928 543.283 228.592C542.771 228.248 542.367 227.752 542.071 227.104C541.775 226.456 541.627 225.688 541.627 224.8C541.627 223.912 541.775 223.144 542.071 222.496C542.367 221.848 542.771 221.356 543.283 221.02C543.803 220.676 544.395 220.504 545.059 220.504C545.715 220.504 546.299 220.676 546.811 221.02C547.331 221.356 547.739 221.848 548.035 222.496C548.331 223.144 548.479 223.912 548.479 224.8C548.479 225.688 548.331 226.456 548.035 227.104C547.739 227.752 547.331 228.248 546.811 228.592C546.299 228.928 545.715 229.096 545.059 229.096ZM545.059 228.028C545.731 228.028 546.267 227.752 546.667 227.2C547.075 226.648 547.279 225.848 547.279 224.8C547.279 223.752 547.075 222.952 546.667 222.4C546.267 221.848 545.731 221.572 545.059 221.572C544.379 221.572 543.835 221.848 543.427 222.4C543.027 222.952 542.827 223.752 542.827 224.8C542.827 225.848 543.027 226.648 543.427 227.2C543.835 227.752 544.379 228.028 545.059 228.028ZM553.063 229.096C552.399 229.096 551.807 228.928 551.287 228.592C550.775 228.248 550.371 227.752 550.075 227.104C549.779 226.456 549.631 225.688 549.631 224.8C549.631 223.912 549.779 223.144 550.075 222.496C550.371 221.848 550.775 221.356 551.287 221.02C551.807 220.676 552.399 220.504 553.063 220.504C553.719 220.504 554.303 220.676 554.815 221.02C555.335 221.356 555.743 221.848 556.039 222.496C556.335 223.144 556.483 223.912 556.483 224.8C556.483 225.688 556.335 226.456 556.039 227.104C555.743 227.752 555.335 228.248 554.815 228.592C554.303 228.928 553.719 229.096 553.063 229.096ZM553.063 228.028C553.735 228.028 554.271 227.752 554.671 227.2C555.079 226.648 555.283 225.848 555.283 224.8C555.283 223.752 555.079 222.952 554.671 222.4C554.271 221.848 553.735 221.572 553.063 221.572C552.383 221.572 551.839 221.848 551.431 222.4C551.031 222.952 550.831 223.752 550.831 224.8C550.831 225.848 551.031 226.648 551.431 227.2C551.839 227.752 552.383 228.028 553.063 228.028Z" fill="white"/>
<path d="M591 225.304H597V226.108H591V225.304Z" fill="white"/>
<path d="M650 225.304H656V226.108H650V225.304Z" fill="white"/>
<rect x="436.5" y="244.5" width="267" height="29" rx="3.5" fill="#FFC783" stroke="#439F15"/>
<path d="M458.916 263.072C458.396 263.072 457.896 263.004 457.416 262.868C456.936 262.724 456.56 262.544 456.288 262.328L456.768 261.416C457.048 261.616 457.388 261.776 457.788 261.896C458.188 262.016 458.592 262.076 459 262.076C460.008 262.076 460.512 261.788 460.512 261.212C460.512 261.02 460.444 260.868 460.308 260.756C460.172 260.644 460 260.564 459.792 260.516C459.592 260.46 459.304 260.4 458.928 260.336C458.416 260.256 457.996 260.164 457.668 260.06C457.348 259.956 457.072 259.78 456.84 259.532C456.608 259.284 456.492 258.936 456.492 258.488C456.492 257.912 456.732 257.452 457.212 257.108C457.692 256.756 458.336 256.58 459.144 256.58C459.568 256.58 459.992 256.632 460.416 256.736C460.84 256.84 461.188 256.98 461.46 257.156L460.968 258.068C460.448 257.732 459.836 257.564 459.132 257.564C458.644 257.564 458.272 257.644 458.016 257.804C457.76 257.964 457.632 258.176 457.632 258.44C457.632 258.648 457.704 258.812 457.848 258.932C457.992 259.052 458.168 259.14 458.376 259.196C458.592 259.252 458.892 259.316 459.276 259.388C459.788 259.476 460.2 259.572 460.512 259.676C460.832 259.772 461.104 259.94 461.328 260.18C461.552 260.42 461.664 260.756 461.664 261.188C461.664 261.764 461.416 262.224 460.92 262.568C460.432 262.904 459.764 263.072 458.916 263.072ZM465.156 256.328L466.584 257.132L466.212 257.792L464.76 256.94L464.772 258.572H464.052L464.064 256.94L462.612 257.792L462.24 257.132L463.68 256.328L462.24 255.536L462.612 254.864L464.064 255.716L464.052 254.096H464.772L464.76 255.716L466.212 254.864L466.584 255.536L465.156 256.328ZM470.195 256.328L471.623 257.132L471.251 257.792L469.799 256.94L469.811 258.572H469.091L469.103 256.94L467.651 257.792L467.279 257.132L468.719 256.328L467.279 255.536L467.651 254.864L469.103 255.716L469.091 254.096H469.811L469.799 255.716L471.251 254.864L471.623 255.536L470.195 256.328ZM475.234 256.328L476.662 257.132L476.29 257.792L474.838 256.94L474.85 258.572H474.13L474.142 256.94L472.69 257.792L472.318 257.132L473.758 256.328L472.318 255.536L472.69 254.864L474.142 255.716L474.13 254.096H474.85L474.838 255.716L476.29 254.864L476.662 255.536L475.234 256.328ZM480.273 256.328L481.701 257.132L481.329 257.792L479.877 256.94L479.889 258.572H479.169L479.181 256.94L477.729 257.792L477.357 257.132L478.797 256.328L477.357 255.536L477.729 254.864L479.181 255.716L479.169 254.096H479.889L479.877 255.716L481.329 254.864L481.701 255.536L480.273 256.328ZM493.154 256.64L490.778 263H489.674L487.838 258.176L485.978 263H484.874L482.51 256.64H483.602L485.45 261.704L487.37 256.64H488.342L490.226 261.728L492.122 256.64H493.154Z" fill="white"/>
<path d="M529.712 258.596C530.192 258.78 530.56 259.044 530.816 259.388C531.072 259.732 531.2 260.144 531.2 260.624C531.2 261.128 531.064 261.568 530.792 261.944C530.52 262.312 530.132 262.596 529.628 262.796C529.124 262.996 528.532 263.096 527.852 263.096C527.18 263.096 526.592 262.996 526.088 262.796C525.592 262.596 525.208 262.312 524.936 261.944C524.664 261.568 524.528 261.128 524.528 260.624C524.528 260.144 524.652 259.732 524.9 259.388C525.156 259.044 525.524 258.78 526.004 258.596C525.62 258.412 525.328 258.168 525.128 257.864C524.928 257.56 524.828 257.2 524.828 256.784C524.828 256.32 524.952 255.916 525.2 255.572C525.456 255.228 525.812 254.964 526.268 254.78C526.724 254.596 527.252 254.504 527.852 254.504C528.46 254.504 528.992 254.596 529.448 254.78C529.912 254.964 530.268 255.228 530.516 255.572C530.772 255.916 530.9 256.32 530.9 256.784C530.9 257.192 530.796 257.552 530.588 257.864C530.388 258.168 530.096 258.412 529.712 258.596ZM527.852 255.476C527.284 255.476 526.836 255.6 526.508 255.848C526.18 256.088 526.016 256.416 526.016 256.832C526.016 257.248 526.176 257.576 526.496 257.816C526.824 258.056 527.276 258.176 527.852 258.176C528.436 258.176 528.892 258.056 529.22 257.816C529.556 257.576 529.724 257.248 529.724 256.832C529.724 256.416 529.552 256.088 529.208 255.848C528.872 255.6 528.42 255.476 527.852 255.476ZM527.852 262.124C528.516 262.124 529.04 261.988 529.424 261.716C529.808 261.436 530 261.06 530 260.588C530 260.124 529.808 259.76 529.424 259.496C529.04 259.224 528.516 259.088 527.852 259.088C527.188 259.088 526.668 259.224 526.292 259.496C525.916 259.76 525.728 260.124 525.728 260.588C525.728 261.06 525.916 261.436 526.292 261.716C526.668 261.988 527.188 262.124 527.852 262.124ZM538.737 258.128C539.561 258.208 540.189 258.464 540.621 258.896C541.053 259.32 541.269 259.864 541.269 260.528C541.269 261.008 541.149 261.444 540.909 261.836C540.669 262.22 540.309 262.528 539.829 262.76C539.357 262.984 538.777 263.096 538.089 263.096C537.489 263.096 536.913 263.008 536.361 262.832C535.809 262.648 535.357 262.396 535.005 262.076L535.557 261.128C535.845 261.4 536.213 261.62 536.661 261.788C537.109 261.948 537.585 262.028 538.089 262.028C538.713 262.028 539.197 261.896 539.541 261.632C539.893 261.368 540.069 261.004 540.069 260.54C540.069 260.076 539.897 259.716 539.553 259.46C539.209 259.204 538.689 259.076 537.993 259.076H537.321V258.236L539.433 255.644H535.389V254.6H540.933V255.416L538.737 258.128ZM545.821 263.096C545.157 263.096 544.565 262.928 544.045 262.592C543.533 262.248 543.129 261.752 542.833 261.104C542.537 260.456 542.389 259.688 542.389 258.8C542.389 257.912 542.537 257.144 542.833 256.496C543.129 255.848 543.533 255.356 544.045 255.02C544.565 254.676 545.157 254.504 545.821 254.504C546.477 254.504 547.061 254.676 547.573 255.02C548.093 255.356 548.501 255.848 548.797 256.496C549.093 257.144 549.241 257.912 549.241 258.8C549.241 259.688 549.093 260.456 548.797 261.104C548.501 261.752 548.093 262.248 547.573 262.592C547.061 262.928 546.477 263.096 545.821 263.096ZM545.821 262.028C546.493 262.028 547.029 261.752 547.429 261.2C547.837 260.648 548.041 259.848 548.041 258.8C548.041 257.752 547.837 256.952 547.429 256.4C547.029 255.848 546.493 255.572 545.821 255.572C545.141 255.572 544.597 255.848 544.189 256.4C543.789 256.952 543.589 257.752 543.589 258.8C543.589 259.848 543.789 260.648 544.189 261.2C544.597 261.752 545.141 262.028 545.821 262.028ZM553.824 263.096C553.16 263.096 552.568 262.928 552.048 262.592C551.536 262.248 551.132 261.752 550.836 261.104C550.54 260.456 550.392 259.688 550.392 258.8C550.392 257.912 550.54 257.144 550.836 256.496C551.132 255.848 551.536 255.356 552.048 255.02C552.568 254.676 553.16 254.504 553.824 254.504C554.48 254.504 555.064 254.676 555.576 255.02C556.096 255.356 556.504 255.848 556.8 256.496C557.096 257.144 557.244 257.912 557.244 258.8C557.244 259.688 557.096 260.456 556.8 261.104C556.504 261.752 556.096 262.248 555.576 262.592C555.064 262.928 554.48 263.096 553.824 263.096ZM553.824 262.028C554.496 262.028 555.032 261.752 555.432 261.2C555.84 260.648 556.044 259.848 556.044 258.8C556.044 257.752 555.84 256.952 555.432 256.4C555.032 255.848 554.496 255.572 553.824 255.572C553.144 255.572 552.6 255.848 552.192 256.4C551.792 256.952 551.592 257.752 551.592 258.8C551.592 259.848 551.792 260.648 552.192 261.2C552.6 261.752 553.144 262.028 553.824 262.028Z" fill="white"/>
<path d="M597.48 261.956V263H591.444V262.184L594.864 258.884C595.28 258.484 595.56 258.14 595.704 257.852C595.848 257.556 595.92 257.26 595.92 256.964C595.92 256.524 595.764 256.184 595.452 255.944C595.148 255.696 594.708 255.572 594.132 255.572C593.204 255.572 592.488 255.876 591.984 256.484L591.168 255.776C591.496 255.376 591.924 255.064 592.452 254.84C592.988 254.616 593.584 254.504 594.24 254.504C595.12 254.504 595.82 254.716 596.34 255.14C596.86 255.556 597.12 256.124 597.12 256.844C597.12 257.292 597.024 257.716 596.832 258.116C596.64 258.516 596.276 258.972 595.74 259.484L593.172 261.956H597.48ZM599.376 263.072C599.152 263.072 598.96 262.996 598.8 262.844C598.64 262.684 598.56 262.484 598.56 262.244C598.56 262.012 598.64 261.82 598.8 261.668C598.96 261.508 599.152 261.428 599.376 261.428C599.6 261.428 599.788 261.504 599.94 261.656C600.092 261.808 600.168 262.004 600.168 262.244C600.168 262.484 600.088 262.684 599.928 262.844C599.776 262.996 599.592 263.072 599.376 263.072ZM608.505 260.936H606.909V263H605.745V260.936H601.077V260.096L605.373 254.6H606.669L602.553 259.904H605.781V258.08H606.909V259.904H608.505V260.936Z" fill="#439F15"/>
<path d="M654.48 261.956V263H648.444V262.184L651.864 258.884C652.28 258.484 652.56 258.14 652.704 257.852C652.848 257.556 652.92 257.26 652.92 256.964C652.92 256.524 652.764 256.184 652.452 255.944C652.148 255.696 651.708 255.572 651.132 255.572C650.204 255.572 649.488 255.876 648.984 256.484L648.168 255.776C648.496 255.376 648.924 255.064 649.452 254.84C649.988 254.616 650.584 254.504 651.24 254.504C652.12 254.504 652.82 254.716 653.34 255.14C653.86 255.556 654.12 256.124 654.12 256.844C654.12 257.292 654.024 257.716 653.832 258.116C653.64 258.516 653.276 258.972 652.74 259.484L650.172 261.956H654.48ZM658.683 258.128C659.507 258.208 660.135 258.464 660.567 258.896C660.999 259.32 661.215 259.864 661.215 260.528C661.215 261.008 661.095 261.444 660.855 261.836C660.615 262.22 660.255 262.528 659.775 262.76C659.303 262.984 658.723 263.096 658.035 263.096C657.435 263.096 656.859 263.008 656.307 262.832C655.755 262.648 655.303 262.396 654.951 262.076L655.503 261.128C655.791 261.4 656.159 261.62 656.607 261.788C657.055 261.948 657.531 262.028 658.035 262.028C658.659 262.028 659.143 261.896 659.487 261.632C659.839 261.368 660.015 261.004 660.015 260.54C660.015 260.076 659.843 259.716 659.499 259.46C659.155 259.204 658.635 259.076 657.939 259.076H657.267V258.236L659.379 255.644H655.335V254.6H660.879V255.416L658.683 258.128ZM668.772 258.128C669.596 258.208 670.224 258.464 670.656 258.896C671.088 259.32 671.304 259.864 671.304 260.528C671.304 261.008 671.184 261.444 670.944 261.836C670.704 262.22 670.344 262.528 669.864 262.76C669.392 262.984 668.812 263.096 668.124 263.096C667.524 263.096 666.948 263.008 666.396 262.832C665.844 262.648 665.392 262.396 665.04 262.076L665.592 261.128C665.88 261.4 666.248 261.62 666.696 261.788C667.144 261.948 667.62 262.028 668.124 262.028C668.748 262.028 669.232 261.896 669.576 261.632C669.928 261.368 670.104 261.004 670.104 260.54C670.104 260.076 669.932 259.716 669.588 259.46C669.244 259.204 668.724 259.076 668.028 259.076H667.356V258.236L669.468 255.644H665.424V254.6H670.968V255.416L668.772 258.128ZM678.269 261.956V263H672.233V262.184L675.653 258.884C676.069 258.484 676.349 258.14 676.493 257.852C676.637 257.556 676.709 257.26 676.709 256.964C676.709 256.524 676.553 256.184 676.241 255.944C675.937 255.696 675.497 255.572 674.921 255.572C673.993 255.572 673.277 255.876 672.773 256.484L671.957 255.776C672.285 255.376 672.713 255.064 673.241 254.84C673.777 254.616 674.373 254.504 675.029 254.504C675.909 254.504 676.609 254.716 677.129 255.14C677.649 255.556 677.909 256.124 677.909 256.844C677.909 257.292 677.813 257.716 677.621 258.116C677.429 258.516 677.065 258.972 676.529 259.484L673.961 261.956H678.269ZM682.653 263.096C681.989 263.096 681.397 262.928 680.877 262.592C680.365 262.248 679.961 261.752 679.665 261.104C679.369 260.456 679.221 259.688 679.221 258.8C679.221 257.912 679.369 257.144 679.665 256.496C679.961 255.848 680.365 255.356 680.877 255.02C681.397 254.676 681.989 254.504 682.653 254.504C683.309 254.504 683.893 254.676 684.405 255.02C684.925 255.356 685.333 255.848 685.629 256.496C685.925 257.144 686.073 257.912 686.073 258.8C686.073 259.688 685.925 260.456 685.629 261.104C685.333 261.752 684.925 262.248 684.405 262.592C683.893 262.928 683.309 263.096 682.653 263.096ZM682.653 262.028C683.325 262.028 683.861 261.752 684.261 261.2C684.669 260.648 684.873 259.848 684.873 258.8C684.873 257.752 684.669 256.952 684.261 256.4C683.861 255.848 683.325 255.572 682.653 255.572C681.973 255.572 681.429 255.848 681.021 256.4C680.621 256.952 680.421 257.752 680.421 258.8C680.421 259.848 680.621 260.648 681.021 261.2C681.429 261.752 681.973 262.028 682.653 262.028Z" fill="#439F15"/>
<rect x="436" y="278" width="268" height="30" rx="4" fill="#FFC783"/>
<path d="M459.408 290.58C460.288 290.58 460.96 290.796 461.424 291.228C461.896 291.66 462.132 292.304 462.132 293.16V297H461.04V296.16C460.848 296.456 460.572 296.684 460.212 296.844C459.86 296.996 459.44 297.072 458.952 297.072C458.24 297.072 457.668 296.9 457.236 296.556C456.812 296.212 456.6 295.76 456.6 295.2C456.6 294.64 456.804 294.192 457.212 293.856C457.62 293.512 458.268 293.34 459.156 293.34H460.98V293.112C460.98 292.616 460.836 292.236 460.548 291.972C460.26 291.708 459.836 291.576 459.276 291.576C458.9 291.576 458.532 291.64 458.172 291.768C457.812 291.888 457.508 292.052 457.26 292.26L456.78 291.396C457.108 291.132 457.5 290.932 457.956 290.796C458.412 290.652 458.896 290.58 459.408 290.58ZM459.144 296.184C459.584 296.184 459.964 296.088 460.284 295.896C460.604 295.696 460.836 295.416 460.98 295.056V294.168H459.204C458.228 294.168 457.74 294.496 457.74 295.152C457.74 295.472 457.864 295.724 458.112 295.908C458.36 296.092 458.704 296.184 459.144 296.184ZM465.988 290.328L467.416 291.132L467.044 291.792L465.592 290.94L465.604 292.572H464.884L464.896 290.94L463.444 291.792L463.072 291.132L464.512 290.328L463.072 289.536L463.444 288.864L464.896 289.716L464.884 288.096H465.604L465.592 289.716L467.044 288.864L467.416 289.536L465.988 290.328ZM471.027 290.328L472.455 291.132L472.083 291.792L470.631 290.94L470.643 292.572H469.923L469.935 290.94L468.483 291.792L468.111 291.132L469.551 290.328L468.111 289.536L468.483 288.864L469.935 289.716L469.923 288.096H470.643L470.631 289.716L472.083 288.864L472.455 289.536L471.027 290.328ZM476.066 290.328L477.494 291.132L477.122 291.792L475.67 290.94L475.682 292.572H474.962L474.974 290.94L473.522 291.792L473.15 291.132L474.59 290.328L473.15 289.536L473.522 288.864L474.974 289.716L474.962 288.096H475.682L475.67 289.716L477.122 288.864L477.494 289.536L476.066 290.328ZM481.105 290.328L482.533 291.132L482.161 291.792L480.709 290.94L480.721 292.572H480.001L480.013 290.94L478.561 291.792L478.189 291.132L479.629 290.328L478.189 289.536L478.561 288.864L480.013 289.716L480.001 288.096H480.721L480.709 289.716L482.161 288.864L482.533 289.536L481.105 290.328ZM485.923 291.708C486.123 291.34 486.419 291.06 486.811 290.868C487.203 290.676 487.679 290.58 488.239 290.58V291.696C488.175 291.688 488.087 291.684 487.975 291.684C487.351 291.684 486.859 291.872 486.499 292.248C486.147 292.616 485.971 293.144 485.971 293.832V297H484.819V290.64H485.923V291.708Z" fill="white"/>
<path d="M530.48 295.956V297H524.444V296.184L527.864 292.884C528.28 292.484 528.56 292.14 528.704 291.852C528.848 291.556 528.92 291.26 528.92 290.964C528.92 290.524 528.764 290.184 528.452 289.944C528.148 289.696 527.708 289.572 527.132 289.572C526.204 289.572 525.488 289.876 524.984 290.484L524.168 289.776C524.496 289.376 524.924 289.064 525.452 288.84C525.988 288.616 526.584 288.504 527.24 288.504C528.12 288.504 528.82 288.716 529.34 289.14C529.86 289.556 530.12 290.124 530.12 290.844C530.12 291.292 530.024 291.716 529.832 292.116C529.64 292.516 529.276 292.972 528.74 293.484L526.172 295.956H530.48ZM538.121 297.096C537.457 297.096 536.865 296.928 536.345 296.592C535.833 296.248 535.429 295.752 535.133 295.104C534.837 294.456 534.689 293.688 534.689 292.8C534.689 291.912 534.837 291.144 535.133 290.496C535.429 289.848 535.833 289.356 536.345 289.02C536.865 288.676 537.457 288.504 538.121 288.504C538.777 288.504 539.361 288.676 539.873 289.02C540.393 289.356 540.801 289.848 541.097 290.496C541.393 291.144 541.541 291.912 541.541 292.8C541.541 293.688 541.393 294.456 541.097 295.104C540.801 295.752 540.393 296.248 539.873 296.592C539.361 296.928 538.777 297.096 538.121 297.096ZM538.121 296.028C538.793 296.028 539.329 295.752 539.729 295.2C540.137 294.648 540.341 293.848 540.341 292.8C540.341 291.752 540.137 290.952 539.729 290.4C539.329 289.848 538.793 289.572 538.121 289.572C537.441 289.572 536.897 289.848 536.489 290.4C536.089 290.952 535.889 291.752 535.889 292.8C535.889 293.848 536.089 294.648 536.489 295.2C536.897 295.752 537.441 296.028 538.121 296.028ZM546.125 297.096C545.461 297.096 544.869 296.928 544.349 296.592C543.837 296.248 543.433 295.752 543.137 295.104C542.841 294.456 542.693 293.688 542.693 292.8C542.693 291.912 542.841 291.144 543.137 290.496C543.433 289.848 543.837 289.356 544.349 289.02C544.869 288.676 545.461 288.504 546.125 288.504C546.781 288.504 547.365 288.676 547.877 289.02C548.397 289.356 548.805 289.848 549.101 290.496C549.397 291.144 549.545 291.912 549.545 292.8C549.545 293.688 549.397 294.456 549.101 295.104C548.805 295.752 548.397 296.248 547.877 296.592C547.365 296.928 546.781 297.096 546.125 297.096ZM546.125 296.028C546.797 296.028 547.333 295.752 547.733 295.2C548.141 294.648 548.345 293.848 548.345 292.8C548.345 291.752 548.141 290.952 547.733 290.4C547.333 289.848 546.797 289.572 546.125 289.572C545.445 289.572 544.901 289.848 544.493 290.4C544.093 290.952 543.893 291.752 543.893 292.8C543.893 293.848 544.093 294.648 544.493 295.2C544.901 295.752 545.445 296.028 546.125 296.028ZM554.129 297.096C553.465 297.096 552.873 296.928 552.353 296.592C551.841 296.248 551.437 295.752 551.141 295.104C550.845 294.456 550.697 293.688 550.697 292.8C550.697 291.912 550.845 291.144 551.141 290.496C551.437 289.848 551.841 289.356 552.353 289.02C552.873 288.676 553.465 288.504 554.129 288.504C554.785 288.504 555.369 288.676 555.881 289.02C556.401 289.356 556.809 289.848 557.105 290.496C557.401 291.144 557.549 291.912 557.549 292.8C557.549 293.688 557.401 294.456 557.105 295.104C556.809 295.752 556.401 296.248 555.881 296.592C555.369 296.928 554.785 297.096 554.129 297.096ZM554.129 296.028C554.801 296.028 555.337 295.752 555.737 295.2C556.145 294.648 556.349 293.848 556.349 292.8C556.349 291.752 556.145 290.952 555.737 290.4C555.337 289.848 554.801 289.572 554.129 289.572C553.449 289.572 552.905 289.848 552.497 290.4C552.097 290.952 551.897 291.752 551.897 292.8C551.897 293.848 552.097 294.648 552.497 295.2C552.905 295.752 553.449 296.028 554.129 296.028Z" fill="white"/>
<path d="M591 293.304H597V294.108H591V293.304Z" fill="white"/>
<path d="M650 293.304H656V294.108H650V293.304Z" fill="white"/>
<line x1="711.75" y1="108.75" x2="711.75" y2="209.25" stroke="#FFD7A7" stroke-width="1.5" stroke-linecap="round"/>
<rect x="27" y="71" width="382" height="184" rx="22" fill="#D8E7FF"/>
<line x1="250.5" y1="255.003" x2="250.5" y2="71" stroke="#FA842E"/>
<g filter="url(#filter614)">
<circle cx="328.5" cy="138.5" r="47.5" fill="url(#linear_614)"/>
<circle cx="328.5" cy="138.5" r="47" stroke="#EEEEEE"/>
</g>
<path d="M322.912 139.644C323.4 139.78 323.784 140.028 324.064 140.388C324.344 140.74 324.484 141.188 324.484 141.732C324.484 142.46 324.208 143.02 323.656 143.412C323.112 143.804 322.316 144 321.268 144H317.26V135.6H321.028C321.988 135.6 322.728 135.792 323.248 136.176C323.776 136.56 324.04 137.092 324.04 137.772C324.04 138.212 323.936 138.592 323.728 138.912C323.528 139.232 323.256 139.476 322.912 139.644ZM318.46 136.572V139.26H320.92C321.536 139.26 322.008 139.148 322.336 138.924C322.672 138.692 322.84 138.356 322.84 137.916C322.84 137.476 322.672 137.144 322.336 136.92C322.008 136.688 321.536 136.572 320.92 136.572H318.46ZM321.22 143.028C321.9 143.028 322.412 142.916 322.756 142.692C323.1 142.468 323.272 142.116 323.272 141.636C323.272 140.7 322.588 140.232 321.22 140.232H318.46V143.028H321.22ZM332.438 142.956V144H326.342V135.6H332.27V136.644H327.542V139.224H331.754V140.244H327.542V142.956H332.438ZM336.049 136.644H333.169V135.6H340.117V136.644H337.237V144H336.049V136.644Z" fill="white"/>
<rect x="264" y="199" width="19" height="40" rx="9.5" fill="#C2FFD3"/>
<circle cx="273.5" cy="209.5" r="8.5" fill="white"/>
<rect x="92" y="220" width="19" height="40" rx="9.5" transform="rotate(90 92 220)" fill="#C2FFD3"/>
<circle cx="81.5" cy="229.5" r="8.5" transform="rotate(90 81.5 229.5)" fill="white"/>
<path d="M296.061 205.075H291.969L291.122 207H289.989L293.476 199.3H294.565L298.063 207H296.908L296.061 205.075ZM295.676 204.195L294.015 200.422L292.354 204.195H295.676ZM304.384 201.17V207H303.383V206.12C303.171 206.421 302.888 206.655 302.536 206.824C302.192 206.985 301.814 207.066 301.403 207.066C300.626 207.066 300.014 206.853 299.566 206.428C299.119 205.995 298.895 205.361 298.895 204.525V201.17H299.951V204.404C299.951 204.969 300.087 205.398 300.358 205.691C300.63 205.977 301.018 206.12 301.524 206.12C302.082 206.12 302.522 205.951 302.844 205.614C303.167 205.277 303.328 204.8 303.328 204.184V201.17H304.384ZM309.673 206.659C309.519 206.791 309.328 206.894 309.101 206.967C308.873 207.033 308.639 207.066 308.397 207.066C307.81 207.066 307.355 206.908 307.033 206.593C306.71 206.278 306.549 205.827 306.549 205.24V202.039H305.559V201.17H306.549V199.894H307.605V201.17H309.277V202.039H307.605V205.196C307.605 205.511 307.682 205.753 307.836 205.922C307.997 206.091 308.224 206.175 308.518 206.175C308.84 206.175 309.115 206.083 309.343 205.9L309.673 206.659ZM313.253 207.066C312.674 207.066 312.153 206.938 311.691 206.681C311.229 206.424 310.866 206.072 310.602 205.625C310.345 205.17 310.217 204.657 310.217 204.085C310.217 203.513 310.345 203.003 310.602 202.556C310.866 202.101 311.229 201.749 311.691 201.5C312.153 201.243 312.674 201.115 313.253 201.115C313.832 201.115 314.349 201.243 314.804 201.5C315.266 201.749 315.625 202.101 315.882 202.556C316.146 203.003 316.278 203.513 316.278 204.085C316.278 204.657 316.146 205.17 315.882 205.625C315.625 206.072 315.266 206.424 314.804 206.681C314.349 206.938 313.832 207.066 313.253 207.066ZM313.253 206.142C313.627 206.142 313.961 206.058 314.254 205.889C314.555 205.713 314.789 205.471 314.958 205.163C315.127 204.848 315.211 204.488 315.211 204.085C315.211 203.682 315.127 203.326 314.958 203.018C314.789 202.703 314.555 202.461 314.254 202.292C313.961 202.123 313.627 202.039 313.253 202.039C312.879 202.039 312.542 202.123 312.241 202.292C311.948 202.461 311.713 202.703 311.537 203.018C311.368 203.326 311.284 203.682 311.284 204.085C311.284 204.488 311.368 204.848 311.537 205.163C311.713 205.471 311.948 205.713 312.241 205.889C312.542 206.058 312.879 206.142 313.253 206.142ZM324.289 207.088C323.519 207.088 322.823 206.919 322.199 206.582C321.583 206.237 321.099 205.768 320.747 205.174C320.395 204.573 320.219 203.898 320.219 203.15C320.219 202.402 320.395 201.731 320.747 201.137C321.099 200.536 321.587 200.066 322.21 199.729C322.834 199.384 323.53 199.212 324.3 199.212C324.902 199.212 325.452 199.315 325.95 199.52C326.449 199.718 326.874 200.015 327.226 200.411L326.511 201.104C325.932 200.495 325.21 200.191 324.344 200.191C323.772 200.191 323.255 200.319 322.793 200.576C322.331 200.833 321.968 201.188 321.704 201.643C321.448 202.09 321.319 202.593 321.319 203.15C321.319 203.707 321.448 204.213 321.704 204.668C321.968 205.115 322.331 205.467 322.793 205.724C323.255 205.981 323.772 206.109 324.344 206.109C325.202 206.109 325.925 205.801 326.511 205.185L327.226 205.878C326.874 206.274 326.445 206.575 325.939 206.78C325.441 206.985 324.891 207.088 324.289 207.088ZM330.689 201.115C331.496 201.115 332.112 201.313 332.537 201.709C332.97 202.105 333.186 202.695 333.186 203.48V207H332.185V206.23C332.009 206.501 331.756 206.71 331.426 206.857C331.104 206.996 330.719 207.066 330.271 207.066C329.619 207.066 329.094 206.908 328.698 206.593C328.31 206.278 328.115 205.863 328.115 205.35C328.115 204.837 328.302 204.426 328.676 204.118C329.05 203.803 329.644 203.645 330.458 203.645H332.13V203.436C332.13 202.981 331.998 202.633 331.734 202.391C331.47 202.149 331.082 202.028 330.568 202.028C330.224 202.028 329.886 202.087 329.556 202.204C329.226 202.314 328.948 202.464 328.72 202.655L328.28 201.863C328.581 201.621 328.94 201.438 329.358 201.313C329.776 201.181 330.22 201.115 330.689 201.115ZM330.447 206.252C330.851 206.252 331.199 206.164 331.492 205.988C331.786 205.805 331.998 205.548 332.13 205.218V204.404H330.502C329.608 204.404 329.16 204.705 329.16 205.306C329.16 205.599 329.274 205.83 329.501 205.999C329.729 206.168 330.044 206.252 330.447 206.252ZM336.813 207.066C336.336 207.066 335.878 207.004 335.438 206.879C334.998 206.747 334.653 206.582 334.404 206.384L334.844 205.548C335.1 205.731 335.412 205.878 335.779 205.988C336.145 206.098 336.516 206.153 336.89 206.153C337.814 206.153 338.276 205.889 338.276 205.361C338.276 205.185 338.213 205.046 338.089 204.943C337.964 204.84 337.806 204.767 337.616 204.723C337.432 204.672 337.168 204.617 336.824 204.558C336.354 204.485 335.969 204.4 335.669 204.305C335.375 204.21 335.122 204.048 334.91 203.821C334.697 203.594 334.591 203.275 334.591 202.864C334.591 202.336 334.811 201.914 335.251 201.599C335.691 201.276 336.281 201.115 337.022 201.115C337.41 201.115 337.799 201.163 338.188 201.258C338.576 201.353 338.895 201.482 339.145 201.643L338.694 202.479C338.217 202.171 337.656 202.017 337.011 202.017C336.563 202.017 336.222 202.09 335.988 202.237C335.753 202.384 335.636 202.578 335.636 202.82C335.636 203.011 335.702 203.161 335.834 203.271C335.966 203.381 336.127 203.462 336.318 203.513C336.516 203.564 336.791 203.623 337.143 203.689C337.612 203.77 337.99 203.858 338.276 203.953C338.569 204.041 338.818 204.195 339.024 204.415C339.229 204.635 339.332 204.943 339.332 205.339C339.332 205.867 339.104 206.289 338.65 206.604C338.202 206.912 337.59 207.066 336.813 207.066ZM343.764 201.115C344.505 201.115 345.092 201.331 345.524 201.764C345.964 202.189 346.184 202.816 346.184 203.645V207H345.128V203.766C345.128 203.201 344.993 202.776 344.721 202.49C344.45 202.204 344.061 202.061 343.555 202.061C342.983 202.061 342.532 202.23 342.202 202.567C341.872 202.897 341.707 203.374 341.707 203.997V207H340.651V198.838H341.707V201.995C341.927 201.716 342.213 201.5 342.565 201.346C342.925 201.192 343.324 201.115 343.764 201.115ZM350.668 207.066C350.089 207.066 349.568 206.938 349.106 206.681C348.644 206.424 348.281 206.072 348.017 205.625C347.76 205.17 347.632 204.657 347.632 204.085C347.632 203.513 347.76 203.003 348.017 202.556C348.281 202.101 348.644 201.749 349.106 201.5C349.568 201.243 350.089 201.115 350.668 201.115C351.247 201.115 351.764 201.243 352.219 201.5C352.681 201.749 353.04 202.101 353.297 202.556C353.561 203.003 353.693 203.513 353.693 204.085C353.693 204.657 353.561 205.17 353.297 205.625C353.04 206.072 352.681 206.424 352.219 206.681C351.764 206.938 351.247 207.066 350.668 207.066ZM350.668 206.142C351.042 206.142 351.376 206.058 351.669 205.889C351.97 205.713 352.204 205.471 352.373 205.163C352.542 204.848 352.626 204.488 352.626 204.085C352.626 203.682 352.542 203.326 352.373 203.018C352.204 202.703 351.97 202.461 351.669 202.292C351.376 202.123 351.042 202.039 350.668 202.039C350.294 202.039 349.957 202.123 349.656 202.292C349.363 202.461 349.128 202.703 348.952 203.018C348.783 203.326 348.699 203.682 348.699 204.085C348.699 204.488 348.783 204.848 348.952 205.163C349.128 205.471 349.363 205.713 349.656 205.889C349.957 206.058 350.294 206.142 350.668 206.142ZM360.587 201.17V207H359.586V206.12C359.374 206.421 359.091 206.655 358.739 206.824C358.395 206.985 358.017 207.066 357.606 207.066C356.829 207.066 356.217 206.853 355.769 206.428C355.322 205.995 355.098 205.361 355.098 204.525V201.17H356.154V204.404C356.154 204.969 356.29 205.398 356.561 205.691C356.833 205.977 357.221 206.12 357.727 206.12C358.285 206.12 358.725 205.951 359.047 205.614C359.37 205.277 359.531 204.8 359.531 204.184V201.17H360.587ZM365.876 206.659C365.722 206.791 365.531 206.894 365.304 206.967C365.076 207.033 364.842 207.066 364.6 207.066C364.013 207.066 363.558 206.908 363.236 206.593C362.913 206.278 362.752 205.827 362.752 205.24V202.039H361.762V201.17H362.752V199.894H363.808V201.17H365.48V202.039H363.808V205.196C363.808 205.511 363.885 205.753 364.039 205.922C364.2 206.091 364.427 206.175 364.721 206.175C365.043 206.175 365.318 206.083 365.546 205.9L365.876 206.659Z" fill="#717171"/>
<path d="M103.061 231.075H98.969L98.122 233H96.989L100.476 225.3H101.565L105.063 233H103.908L103.061 231.075ZM102.676 230.195L101.015 226.422L99.354 230.195H102.676ZM111.384 227.17V233H110.383V232.12C110.171 232.421 109.888 232.655 109.536 232.824C109.192 232.985 108.814 233.066 108.403 233.066C107.626 233.066 107.014 232.853 106.566 232.428C106.119 231.995 105.895 231.361 105.895 230.525V227.17H106.951V230.404C106.951 230.969 107.087 231.398 107.358 231.691C107.63 231.977 108.018 232.12 108.524 232.12C109.082 232.12 109.522 231.951 109.844 231.614C110.167 231.277 110.328 230.8 110.328 230.184V227.17H111.384ZM116.673 232.659C116.519 232.791 116.328 232.894 116.101 232.967C115.873 233.033 115.639 233.066 115.397 233.066C114.81 233.066 114.355 232.908 114.033 232.593C113.71 232.278 113.549 231.827 113.549 231.24V228.039H112.559V227.17H113.549V225.894H114.605V227.17H116.277V228.039H114.605V231.196C114.605 231.511 114.682 231.753 114.836 231.922C114.997 232.091 115.224 232.175 115.518 232.175C115.84 232.175 116.115 232.083 116.343 231.9L116.673 232.659ZM120.253 233.066C119.674 233.066 119.153 232.938 118.691 232.681C118.229 232.424 117.866 232.072 117.602 231.625C117.345 231.17 117.217 230.657 117.217 230.085C117.217 229.513 117.345 229.003 117.602 228.556C117.866 228.101 118.229 227.749 118.691 227.5C119.153 227.243 119.674 227.115 120.253 227.115C120.832 227.115 121.349 227.243 121.804 227.5C122.266 227.749 122.625 228.101 122.882 228.556C123.146 229.003 123.278 229.513 123.278 230.085C123.278 230.657 123.146 231.17 122.882 231.625C122.625 232.072 122.266 232.424 121.804 232.681C121.349 232.938 120.832 233.066 120.253 233.066ZM120.253 232.142C120.627 232.142 120.961 232.058 121.254 231.889C121.555 231.713 121.789 231.471 121.958 231.163C122.127 230.848 122.211 230.488 122.211 230.085C122.211 229.682 122.127 229.326 121.958 229.018C121.789 228.703 121.555 228.461 121.254 228.292C120.961 228.123 120.627 228.039 120.253 228.039C119.879 228.039 119.542 228.123 119.241 228.292C118.948 228.461 118.713 228.703 118.537 229.018C118.368 229.326 118.284 229.682 118.284 230.085C118.284 230.488 118.368 230.848 118.537 231.163C118.713 231.471 118.948 231.713 119.241 231.889C119.542 232.058 119.879 232.142 120.253 232.142ZM127.829 227.115C128.394 227.115 128.9 227.24 129.347 227.489C129.795 227.738 130.143 228.087 130.392 228.534C130.649 228.981 130.777 229.498 130.777 230.085C130.777 230.672 130.649 231.192 130.392 231.647C130.143 232.094 129.795 232.443 129.347 232.692C128.9 232.941 128.394 233.066 127.829 233.066C127.397 233.066 127.001 232.982 126.641 232.813C126.282 232.644 125.985 232.399 125.75 232.076V233H124.738V224.838H125.794V228.05C126.029 227.742 126.322 227.511 126.674 227.357C127.026 227.196 127.411 227.115 127.829 227.115ZM127.741 232.142C128.115 232.142 128.449 232.058 128.742 231.889C129.043 231.713 129.278 231.471 129.446 231.163C129.622 230.848 129.71 230.488 129.71 230.085C129.71 229.682 129.622 229.326 129.446 229.018C129.278 228.703 129.043 228.461 128.742 228.292C128.449 228.123 128.115 228.039 127.741 228.039C127.375 228.039 127.041 228.123 126.74 228.292C126.44 228.461 126.205 228.703 126.036 229.018C125.868 229.326 125.783 229.682 125.783 230.085C125.783 230.488 125.868 230.848 126.036 231.163C126.205 231.471 126.44 231.713 126.74 231.889C127.041 232.058 127.375 232.142 127.741 232.142ZM137.505 230.118C137.505 230.199 137.498 230.305 137.483 230.437H132.753C132.819 230.95 133.043 231.365 133.424 231.68C133.813 231.988 134.293 232.142 134.865 232.142C135.562 232.142 136.123 231.907 136.548 231.438L137.131 232.12C136.867 232.428 136.537 232.663 136.141 232.824C135.753 232.985 135.316 233.066 134.832 233.066C134.216 233.066 133.67 232.941 133.193 232.692C132.717 232.435 132.346 232.08 132.082 231.625C131.826 231.17 131.697 230.657 131.697 230.085C131.697 229.52 131.822 229.011 132.071 228.556C132.328 228.101 132.676 227.749 133.116 227.5C133.564 227.243 134.066 227.115 134.623 227.115C135.181 227.115 135.676 227.243 136.108 227.5C136.548 227.749 136.889 228.101 137.131 228.556C137.381 229.011 137.505 229.531 137.505 230.118ZM134.623 228.006C134.117 228.006 133.692 228.16 133.347 228.468C133.01 228.776 132.812 229.179 132.753 229.678H136.493C136.435 229.187 136.233 228.787 135.888 228.479C135.551 228.164 135.129 228.006 134.623 228.006ZM142.25 232.659C142.096 232.791 141.905 232.894 141.678 232.967C141.45 233.033 141.216 233.066 140.974 233.066C140.387 233.066 139.932 232.908 139.61 232.593C139.287 232.278 139.126 231.827 139.126 231.24V228.039H138.136V227.17H139.126V225.894H140.182V227.17H141.854V228.039H140.182V231.196C140.182 231.511 140.259 231.753 140.413 231.922C140.574 232.091 140.801 232.175 141.095 232.175C141.417 232.175 141.692 232.083 141.92 231.9L142.25 232.659Z" fill="#717171"/>
<rect x="290" y="214" width="94" height="25" rx="12.5" fill="#9DCEFF"/>
<circle cx="302.5" cy="226.5" r="10.5" fill="white"/>
<circle cx="371.5" cy="226.5" r="10.5" fill="white"/>
<line x1="296.5" y1="226.5" x2="309.5" y2="226.5" stroke="#717171" stroke-linecap="round"/>
<line x1="365.5" y1="226.5" x2="378.5" y2="226.5" stroke="#717171" stroke-linecap="round"/>
<line x1="372.5" y1="232.5" x2="372.5" y2="219.5" stroke="#717171" stroke-linecap="round"/>
<path d="M334.4 227.13V228H329.37V227.32L332.22 224.57C332.567 224.237 332.8 223.95 332.92 223.71C333.04 223.463 333.1 223.217 333.1 222.97C333.1 222.603 332.97 222.32 332.71 222.12C332.457 221.913 332.09 221.81 331.61 221.81C330.837 221.81 330.24 222.063 329.82 222.57L329.14 221.98C329.413 221.647 329.77 221.387 330.21 221.2C330.657 221.013 331.153 220.92 331.7 220.92C332.433 220.92 333.017 221.097 333.45 221.45C333.883 221.797 334.1 222.27 334.1 222.87C334.1 223.243 334.02 223.597 333.86 223.93C333.7 224.263 333.397 224.643 332.95 225.07L330.81 227.13H334.4ZM337.222 223.79C338.222 223.79 338.956 223.98 339.422 224.36C339.896 224.733 340.132 225.247 340.132 225.9C340.132 226.313 340.032 226.687 339.832 227.02C339.639 227.347 339.342 227.607 338.942 227.8C338.549 227.987 338.062 228.08 337.482 228.08C336.989 228.08 336.512 228.007 336.052 227.86C335.592 227.707 335.212 227.497 334.912 227.23L335.372 226.44C335.612 226.667 335.919 226.85 336.292 226.99C336.666 227.123 337.059 227.19 337.472 227.19C337.999 227.19 338.406 227.08 338.692 226.86C338.986 226.633 339.132 226.327 339.132 225.94C339.132 225.52 338.972 225.203 338.652 224.99C338.332 224.77 337.786 224.66 337.012 224.66H335.422L335.792 221H339.742V221.87H336.632L336.442 223.79H337.222ZM343.824 228.08C343.271 228.08 342.778 227.94 342.344 227.66C341.918 227.373 341.581 226.96 341.334 226.42C341.088 225.88 340.964 225.24 340.964 224.5C340.964 223.76 341.088 223.12 341.334 222.58C341.581 222.04 341.918 221.63 342.344 221.35C342.778 221.063 343.271 220.92 343.824 220.92C344.371 220.92 344.858 221.063 345.284 221.35C345.718 221.63 346.058 222.04 346.304 222.58C346.551 223.12 346.674 223.76 346.674 224.5C346.674 225.24 346.551 225.88 346.304 226.42C346.058 226.96 345.718 227.373 345.284 227.66C344.858 227.94 344.371 228.08 343.824 228.08ZM343.824 227.19C344.384 227.19 344.831 226.96 345.164 226.5C345.504 226.04 345.674 225.373 345.674 224.5C345.674 223.627 345.504 222.96 345.164 222.5C344.831 222.04 344.384 221.81 343.824 221.81C343.258 221.81 342.804 222.04 342.464 222.5C342.131 222.96 341.964 223.627 341.964 224.5C341.964 225.373 342.131 226.04 342.464 226.5C342.804 226.96 343.258 227.19 343.824 227.19Z" fill="white"/>
<line x1="320" y1="233.5" x2="355" y2="233.5" stroke="#E0EBFF"/>
<rect x="52" y="91" width="170" height="39" rx="19.5" fill="#9DCEFF"/>
<circle cx="72" cy="110" r="12.5" stroke="#EEEEEE"/>
<circle cx="202" cy="110" r="13" fill="white"/>
<line x1="65.5" y1="110.5" x2="78.5" y2="110.5" stroke="#EEEEEE" stroke-linecap="round"/>
<line x1="195.5" y1="109.5" x2="208.5" y2="109.5" stroke="#717171" stroke-linecap="round"/>
<line x1="202" y1="116" x2="202" y2="103" stroke="#717171" stroke-linecap="round"/>
<path d="M124.3 104V118H122.32V105.74H119.16V104H124.3ZM133.082 118.16C131.976 118.16 130.989 117.88 130.122 117.32C129.269 116.747 128.596 115.92 128.102 114.84C127.609 113.76 127.362 112.48 127.362 111C127.362 109.52 127.609 108.24 128.102 107.16C128.596 106.08 129.269 105.26 130.122 104.7C130.989 104.127 131.976 103.84 133.082 103.84C134.176 103.84 135.149 104.127 136.002 104.7C136.869 105.26 137.549 106.08 138.042 107.16C138.536 108.24 138.782 109.52 138.782 111C138.782 112.48 138.536 113.76 138.042 114.84C137.549 115.92 136.869 116.747 136.002 117.32C135.149 117.88 134.176 118.16 133.082 118.16ZM133.082 116.38C134.202 116.38 135.096 115.92 135.762 115C136.442 114.08 136.782 112.747 136.782 111C136.782 109.253 136.442 107.92 135.762 107C135.096 106.08 134.202 105.62 133.082 105.62C131.949 105.62 131.042 106.08 130.362 107C129.696 107.92 129.362 109.253 129.362 111C129.362 112.747 129.696 114.08 130.362 115C131.042 115.92 131.949 116.38 133.082 116.38ZM146.422 118.16C145.316 118.16 144.329 117.88 143.462 117.32C142.609 116.747 141.936 115.92 141.442 114.84C140.949 113.76 140.702 112.48 140.702 111C140.702 109.52 140.949 108.24 141.442 107.16C141.936 106.08 142.609 105.26 143.462 104.7C144.329 104.127 145.316 103.84 146.422 103.84C147.516 103.84 148.489 104.127 149.342 104.7C150.209 105.26 150.889 106.08 151.382 107.16C151.876 108.24 152.122 109.52 152.122 111C152.122 112.48 151.876 113.76 151.382 114.84C150.889 115.92 150.209 116.747 149.342 117.32C148.489 117.88 147.516 118.16 146.422 118.16ZM146.422 116.38C147.542 116.38 148.436 115.92 149.102 115C149.782 114.08 150.122 112.747 150.122 111C150.122 109.253 149.782 107.92 149.102 107C148.436 106.08 147.542 105.62 146.422 105.62C145.289 105.62 144.382 106.08 143.702 107C143.036 107.92 142.702 109.253 142.702 111C142.702 112.747 143.036 114.08 143.702 115C144.382 115.92 145.289 116.38 146.422 116.38Z" fill="white"/>
<rect x="52" y="140" width="81" height="28" rx="14" fill="#9DCEFF"/>
<path d="M79.968 153.264C81.568 153.264 82.7413 153.568 83.488 154.176C84.2453 154.773 84.624 155.595 84.624 156.64C84.624 157.301 84.464 157.899 84.144 158.432C83.8347 158.955 83.36 159.371 82.72 159.68C82.0907 159.979 81.312 160.128 80.384 160.128C79.5947 160.128 78.832 160.011 78.096 159.776C77.36 159.531 76.752 159.195 76.272 158.768L77.008 157.504C77.392 157.867 77.8827 158.16 78.48 158.384C79.0773 158.597 79.7067 158.704 80.368 158.704C81.2107 158.704 81.8613 158.528 82.32 158.176C82.7893 157.813 83.024 157.323 83.024 156.704C83.024 156.032 82.768 155.525 82.256 155.184C81.744 154.832 80.8693 154.656 79.632 154.656H77.088L77.68 148.8H84V150.192H79.024L78.72 153.264H79.968ZM90.5315 160.128C89.6462 160.128 88.8568 159.904 88.1635 159.456C87.4808 158.997 86.9422 158.336 86.5475 157.472C86.1528 156.608 85.9555 155.584 85.9555 154.4C85.9555 153.216 86.1528 152.192 86.5475 151.328C86.9422 150.464 87.4808 149.808 88.1635 149.36C88.8568 148.901 89.6462 148.672 90.5315 148.672C91.4062 148.672 92.1848 148.901 92.8675 149.36C93.5608 149.808 94.1048 150.464 94.4995 151.328C94.8942 152.192 95.0915 153.216 95.0915 154.4C95.0915 155.584 94.8942 156.608 94.4995 157.472C94.1048 158.336 93.5608 158.997 92.8675 159.456C92.1848 159.904 91.4062 160.128 90.5315 160.128ZM90.5315 158.704C91.4275 158.704 92.1422 158.336 92.6755 157.6C93.2195 156.864 93.4915 155.797 93.4915 154.4C93.4915 153.003 93.2195 151.936 92.6755 151.2C92.1422 150.464 91.4275 150.096 90.5315 150.096C89.6248 150.096 88.8995 150.464 88.3555 151.2C87.8222 151.936 87.5555 153.003 87.5555 154.4C87.5555 155.797 87.8222 156.864 88.3555 157.6C88.8995 158.336 89.6248 158.704 90.5315 158.704ZM101.203 160.128C100.318 160.128 99.5287 159.904 98.8354 159.456C98.1527 158.997 97.614 158.336 97.2194 157.472C96.8247 156.608 96.6274 155.584 96.6274 154.4C96.6274 153.216 96.8247 152.192 97.2194 151.328C97.614 150.464 98.1527 149.808 98.8354 149.36C99.5287 148.901 100.318 148.672 101.203 148.672C102.078 148.672 102.857 148.901 103.539 149.36C104.233 149.808 104.777 150.464 105.171 151.328C105.566 152.192 105.763 153.216 105.763 154.4C105.763 155.584 105.566 156.608 105.171 157.472C104.777 158.336 104.233 158.997 103.539 159.456C102.857 159.904 102.078 160.128 101.203 160.128ZM101.203 158.704C102.099 158.704 102.814 158.336 103.347 157.6C103.891 156.864 104.163 155.797 104.163 154.4C104.163 153.003 103.891 151.936 103.347 151.2C102.814 150.464 102.099 150.096 101.203 150.096C100.297 150.096 99.5714 150.464 99.0274 151.2C98.494 151.936 98.2274 153.003 98.2274 154.4C98.2274 155.797 98.494 156.864 99.0274 157.6C99.5714 158.336 100.297 158.704 101.203 158.704Z" fill="white"/>
<rect x="141" y="140" width="81" height="28" rx="14" fill="#9DCEFF"/>
<path d="M165.24 148.8V160H163.656V150.192H161.128V148.8H165.24ZM176.563 160.128C175.677 160.128 174.888 159.904 174.195 159.456C173.512 158.997 172.973 158.336 172.579 157.472C172.184 156.608 171.987 155.584 171.987 154.4C171.987 153.216 172.184 152.192 172.579 151.328C172.973 150.464 173.512 149.808 174.195 149.36C174.888 148.901 175.677 148.672 176.563 148.672C177.437 148.672 178.216 148.901 178.899 149.36C179.592 149.808 180.136 150.464 180.531 151.328C180.925 152.192 181.123 153.216 181.123 154.4C181.123 155.584 180.925 156.608 180.531 157.472C180.136 158.336 179.592 158.997 178.899 159.456C178.216 159.904 177.437 160.128 176.563 160.128ZM176.563 158.704C177.459 158.704 178.173 158.336 178.707 157.6C179.251 156.864 179.523 155.797 179.523 154.4C179.523 153.003 179.251 151.936 178.707 151.2C178.173 150.464 177.459 150.096 176.563 150.096C175.656 150.096 174.931 150.464 174.387 151.2C173.853 151.936 173.587 153.003 173.587 154.4C173.587 155.797 173.853 156.864 174.387 157.6C174.931 158.336 175.656 158.704 176.563 158.704ZM187.235 160.128C186.349 160.128 185.56 159.904 184.867 159.456C184.184 158.997 183.645 158.336 183.251 157.472C182.856 156.608 182.659 155.584 182.659 154.4C182.659 153.216 182.856 152.192 183.251 151.328C183.645 150.464 184.184 149.808 184.867 149.36C185.56 148.901 186.349 148.672 187.235 148.672C188.109 148.672 188.888 148.901 189.571 149.36C190.264 149.808 190.808 150.464 191.203 151.328C191.597 152.192 191.795 153.216 191.795 154.4C191.795 155.584 191.597 156.608 191.203 157.472C190.808 158.336 190.264 158.997 189.571 159.456C188.888 159.904 188.109 160.128 187.235 160.128ZM187.235 158.704C188.131 158.704 188.845 158.336 189.379 157.6C189.923 156.864 190.195 155.797 190.195 154.4C190.195 153.003 189.923 151.936 189.379 151.2C188.845 150.464 188.131 150.096 187.235 150.096C186.328 150.096 185.603 150.464 185.059 151.2C184.525 151.936 184.259 153.003 184.259 154.4C184.259 155.797 184.525 156.864 185.059 157.6C185.603 158.336 186.328 158.704 187.235 158.704ZM197.907 160.128C197.021 160.128 196.232 159.904 195.539 159.456C194.856 158.997 194.317 158.336 193.923 157.472C193.528 156.608 193.331 155.584 193.331 154.4C193.331 153.216 193.528 152.192 193.923 151.328C194.317 150.464 194.856 149.808 195.539 149.36C196.232 148.901 197.021 148.672 197.907 148.672C198.781 148.672 199.56 148.901 200.243 149.36C200.936 149.808 201.48 150.464 201.875 151.328C202.269 152.192 202.467 153.216 202.467 154.4C202.467 155.584 202.269 156.608 201.875 157.472C201.48 158.336 200.936 158.997 200.243 159.456C199.56 159.904 198.781 160.128 197.907 160.128ZM197.907 158.704C198.803 158.704 199.517 158.336 200.051 157.6C200.595 156.864 200.867 155.797 200.867 154.4C200.867 153.003 200.595 151.936 200.051 151.2C199.517 150.464 198.803 150.096 197.907 150.096C197 150.096 196.275 150.464 195.731 151.2C195.197 151.936 194.931 153.003 194.931 154.4C194.931 155.797 195.197 156.864 195.731 157.6C196.275 158.336 197 158.704 197.907 158.704Z" fill="white"/>
<rect x="52" y="180" width="81" height="28" rx="14" fill="#9DCEFF"/>
<path d="M75.968 193.264C77.568 193.264 78.7413 193.568 79.488 194.176C80.2453 194.773 80.624 195.595 80.624 196.64C80.624 197.301 80.464 197.899 80.144 198.432C79.8347 198.955 79.36 199.371 78.72 199.68C78.0907 199.979 77.312 200.128 76.384 200.128C75.5947 200.128 74.832 200.011 74.096 199.776C73.36 199.531 72.752 199.195 72.272 198.768L73.008 197.504C73.392 197.867 73.8827 198.16 74.48 198.384C75.0773 198.597 75.7067 198.704 76.368 198.704C77.2107 198.704 77.8613 198.528 78.32 198.176C78.7893 197.813 79.024 197.323 79.024 196.704C79.024 196.032 78.768 195.525 78.256 195.184C77.744 194.832 76.8693 194.656 75.632 194.656H73.088L73.68 188.8H80V190.192H75.024L74.72 193.264H75.968ZM90.8284 200.128C89.943 200.128 89.1537 199.904 88.4604 199.456C87.7777 198.997 87.239 198.336 86.8444 197.472C86.4497 196.608 86.2524 195.584 86.2524 194.4C86.2524 193.216 86.4497 192.192 86.8444 191.328C87.239 190.464 87.7777 189.808 88.4604 189.36C89.1537 188.901 89.943 188.672 90.8284 188.672C91.703 188.672 92.4817 188.901 93.1644 189.36C93.8577 189.808 94.4017 190.464 94.7964 191.328C95.191 192.192 95.3884 193.216 95.3884 194.4C95.3884 195.584 95.191 196.608 94.7964 197.472C94.4017 198.336 93.8577 198.997 93.1644 199.456C92.4817 199.904 91.703 200.128 90.8284 200.128ZM90.8284 198.704C91.7244 198.704 92.439 198.336 92.9724 197.6C93.5164 196.864 93.7884 195.797 93.7884 194.4C93.7884 193.003 93.5164 191.936 92.9724 191.2C92.439 190.464 91.7244 190.096 90.8284 190.096C89.9217 190.096 89.1964 190.464 88.6524 191.2C88.119 191.936 87.8524 193.003 87.8524 194.4C87.8524 195.797 88.119 196.864 88.6524 197.6C89.1964 198.336 89.9217 198.704 90.8284 198.704ZM101.5 200.128C100.615 200.128 99.8256 199.904 99.1323 199.456C98.4496 198.997 97.9109 198.336 97.5163 197.472C97.1216 196.608 96.9243 195.584 96.9243 194.4C96.9243 193.216 97.1216 192.192 97.5163 191.328C97.9109 190.464 98.4496 189.808 99.1323 189.36C99.8256 188.901 100.615 188.672 101.5 188.672C102.375 188.672 103.154 188.901 103.836 189.36C104.53 189.808 105.074 190.464 105.468 191.328C105.863 192.192 106.06 193.216 106.06 194.4C106.06 195.584 105.863 196.608 105.468 197.472C105.074 198.336 104.53 198.997 103.836 199.456C103.154 199.904 102.375 200.128 101.5 200.128ZM101.5 198.704C102.396 198.704 103.111 198.336 103.644 197.6C104.188 196.864 104.46 195.797 104.46 194.4C104.46 193.003 104.188 191.936 103.644 191.2C103.111 190.464 102.396 190.096 101.5 190.096C100.594 190.096 99.8683 190.464 99.3243 191.2C98.7909 191.936 98.5243 193.003 98.5243 194.4C98.5243 195.797 98.7909 196.864 99.3243 197.6C99.8683 198.336 100.594 198.704 101.5 198.704ZM112.172 200.128C111.287 200.128 110.497 199.904 109.804 199.456C109.121 198.997 108.583 198.336 108.188 197.472C107.793 196.608 107.596 195.584 107.596 194.4C107.596 193.216 107.793 192.192 108.188 191.328C108.583 190.464 109.121 189.808 109.804 189.36C110.497 188.901 111.287 188.672 112.172 188.672C113.047 188.672 113.825 188.901 114.508 189.36C115.201 189.808 115.745 190.464 116.14 191.328C116.535 192.192 116.732 193.216 116.732 194.4C116.732 195.584 116.535 196.608 116.14 197.472C115.745 198.336 115.201 198.997 114.508 199.456C113.825 199.904 113.047 200.128 112.172 200.128ZM112.172 198.704C113.068 198.704 113.783 198.336 114.316 197.6C114.86 196.864 115.132 195.797 115.132 194.4C115.132 193.003 114.86 191.936 114.316 191.2C113.783 190.464 113.068 190.096 112.172 190.096C111.265 190.096 110.54 190.464 109.996 191.2C109.463 191.936 109.196 193.003 109.196 194.4C109.196 195.797 109.463 196.864 109.996 197.6C110.54 198.336 111.265 198.704 112.172 198.704Z" fill="white"/>
<rect x="141" y="180" width="81" height="28" rx="14" fill="#9DCEFF"/>
<path d="M171.714 196.55H166.506L165.428 199H163.986L168.424 189.2H169.81L174.262 199H172.792L171.714 196.55ZM171.224 195.43L169.11 190.628L166.996 195.43H171.224ZM175.528 188.612H176.872V199H175.528V188.612ZM179.438 188.612H180.782V199H179.438V188.612ZM187.108 191.58H188.452V199H187.108V191.58ZM187.78 190.152C187.519 190.152 187.299 190.068 187.122 189.9C186.954 189.732 186.87 189.527 186.87 189.284C186.87 189.041 186.954 188.836 187.122 188.668C187.299 188.491 187.519 188.402 187.78 188.402C188.041 188.402 188.256 188.486 188.424 188.654C188.601 188.813 188.69 189.013 188.69 189.256C188.69 189.508 188.601 189.723 188.424 189.9C188.256 190.068 188.041 190.152 187.78 190.152ZM194.98 191.51C195.923 191.51 196.669 191.785 197.22 192.336C197.78 192.877 198.06 193.675 198.06 194.73V199H196.716V194.884C196.716 194.165 196.543 193.624 196.198 193.26C195.853 192.896 195.358 192.714 194.714 192.714C193.986 192.714 193.412 192.929 192.992 193.358C192.572 193.778 192.362 194.385 192.362 195.178V199H191.018V191.58H192.306V192.7C192.577 192.317 192.941 192.023 193.398 191.818C193.865 191.613 194.392 191.51 194.98 191.51Z" fill="white"/>
</svg>
