<svg width="378" height="300" viewBox="0 0 378 300" fill="none" xmlns="http://www.w3.org/2000/svg">
<path d="M359.739 0H18.2609C8.17567 0 0 8.14028 0 18.1818V280C0 290.042 8.17567 298.182 18.2609 298.182H359.739C369.824 298.182 378 290.042 378 280V18.1818C378 8.14028 369.824 0 359.739 0Z" fill="#F8FBFF"/>
<path d="M285.544 32.8361C284.557 32.8361 283.674 32.5755 282.896 32.0543C282.129 31.533 281.526 30.7875 281.088 29.8179C280.661 28.8361 280.449 27.6846 280.449 26.3634C280.449 25.0421 280.661 23.8966 281.088 22.927C281.526 21.9452 282.129 21.1937 282.896 20.6724C283.674 20.1512 284.557 19.8906 285.544 19.8906C286.53 19.8906 287.406 20.1512 288.173 20.6724C288.951 21.1937 289.561 21.9452 289.999 22.927C290.437 23.8966 290.657 25.0421 290.657 26.3634C290.657 27.6846 290.437 28.8361 289.999 29.8179C289.561 30.7875 288.951 31.533 288.173 32.0543C287.406 32.5755 286.53 32.8361 285.544 32.8361ZM285.544 31.6361C286.285 31.6361 286.937 31.4301 287.497 31.0179C288.069 30.6057 288.513 30.0057 288.83 29.2179C289.146 28.4301 289.305 27.4784 289.305 26.3634C289.305 25.2483 289.146 24.2966 288.83 23.5088C288.513 22.721 288.069 22.121 287.497 21.7088C286.937 21.2966 286.285 21.0906 285.544 21.0906C284.8 21.0906 284.143 21.2966 283.571 21.7088C283.011 22.121 282.572 22.721 282.257 23.5088C281.939 24.2966 281.782 25.2483 281.782 26.3634C281.782 27.4784 281.939 28.4301 282.257 29.2179C282.572 30.0057 283.011 30.6057 283.571 31.0179C284.143 31.4301 284.8 31.6361 285.544 31.6361ZM293.328 32.8179C293.062 32.8179 292.83 32.721 292.634 32.527C292.452 32.333 292.36 32.0966 292.36 31.8179C292.36 31.5392 292.452 31.3088 292.634 31.127C292.83 30.933 293.062 30.8361 293.328 30.8361C293.597 30.8361 293.828 30.933 294.022 31.127C294.217 31.3088 294.314 31.5392 294.314 31.8179C294.314 32.0966 294.217 32.333 294.022 32.527C293.828 32.721 293.597 32.8179 293.328 32.8179ZM301.111 32.8361C300.125 32.8361 299.243 32.5755 298.463 32.0543C297.696 31.533 297.094 30.7875 296.655 29.8179C296.23 28.8361 296.016 27.6846 296.016 26.3634C296.016 25.0421 296.23 23.8966 296.655 22.927C297.094 21.9452 297.696 21.1937 298.463 20.6724C299.243 20.1512 300.125 19.8906 301.111 19.8906C302.097 19.8906 302.974 20.1512 303.74 20.6724C304.52 21.1937 305.128 21.9452 305.567 22.927C306.005 23.8966 306.224 25.0421 306.224 26.3634C306.224 27.6846 306.005 28.8361 305.567 29.8179C305.128 30.7875 304.52 31.533 303.74 32.0543C302.974 32.5755 302.097 32.8361 301.111 32.8361ZM301.111 31.6361C301.854 31.6361 302.504 31.4301 303.065 31.0179C303.636 30.6057 304.082 30.0057 304.398 29.2179C304.714 28.4301 304.873 27.4784 304.873 26.3634C304.873 25.2483 304.714 24.2966 304.398 23.5088C304.082 22.721 303.636 22.121 303.065 21.7088C302.504 21.2966 301.854 21.0906 301.111 21.0906C300.368 21.0906 299.71 21.2966 299.139 21.7088C298.578 22.121 298.14 22.721 297.824 23.5088C297.508 24.2966 297.349 25.2483 297.349 26.3634C297.349 27.4784 297.508 28.4301 297.824 29.2179C298.14 30.0057 298.578 30.6057 299.139 31.0179C299.71 31.4301 300.368 31.6361 301.111 31.6361ZM312.274 25.4543C313.614 25.527 314.629 25.8906 315.323 26.5452C316.03 27.1875 316.382 28.0301 316.382 29.0724C316.382 29.7997 316.207 30.4483 315.853 31.0179C315.5 31.5755 314.976 32.0179 314.282 32.3452C313.589 32.6724 312.743 32.8361 311.744 32.8361C310.82 32.8361 309.944 32.6906 309.115 32.3997C308.3 32.0966 307.643 31.6966 307.142 31.1997L307.782 30.1634C308.209 30.5997 308.775 30.9574 309.48 31.2361C310.187 31.5028 310.941 31.6361 311.744 31.6361C312.792 31.6361 313.601 31.4119 314.173 30.9634C314.746 30.5028 315.031 29.8724 315.031 29.0724C315.031 28.2846 314.746 27.6664 314.173 27.2179C313.601 26.7694 312.738 26.5452 311.58 26.5452H310.667V25.5815L314.209 21.1634H307.672V19.9997H315.889V20.927L312.274 25.4543ZM323.532 25.1088C324.372 25.1088 325.115 25.2664 325.759 25.5815C326.417 25.8966 326.928 26.3452 327.293 26.927C327.659 27.4966 327.841 28.1634 327.841 28.927C327.841 29.7028 327.653 30.3875 327.275 30.9815C326.897 31.5755 326.375 32.0361 325.705 32.3634C325.047 32.6784 324.304 32.8361 323.477 32.8361C321.784 32.8361 320.488 32.2846 319.587 31.1815C318.687 30.0664 318.236 28.4966 318.236 26.4724C318.236 25.0543 318.479 23.8543 318.966 22.8724C319.454 21.8906 320.135 21.1512 321.012 20.6543C321.888 20.1452 322.911 19.8906 324.079 19.8906C325.345 19.8906 326.357 20.121 327.111 20.5815L326.581 21.6361C325.973 21.2361 325.144 21.0361 324.098 21.0361C322.686 21.0361 321.578 21.4846 320.774 22.3815C319.971 23.2664 319.569 24.5574 319.569 26.2543C319.569 26.5574 319.587 26.9028 319.624 27.2906C319.94 26.5997 320.446 26.0664 321.139 25.6906C321.833 25.3028 322.631 25.1088 323.532 25.1088ZM323.422 31.727C324.348 31.727 325.097 31.4784 325.668 30.9815C326.252 30.4724 326.545 29.7997 326.545 28.9634C326.545 28.127 326.252 27.4603 325.668 26.9634C325.097 26.4664 324.317 26.2179 323.331 26.2179C322.686 26.2179 322.113 26.3392 321.614 26.5815C321.127 26.8239 320.743 27.1574 320.464 27.5815C320.184 28.0057 320.044 28.4784 320.044 28.9997C320.044 29.4846 320.172 29.933 320.427 30.3452C320.696 30.7574 321.085 31.0906 321.596 31.3452C322.107 31.5997 322.715 31.727 323.422 31.727ZM331.709 26.8179C330.845 26.8179 330.146 26.5028 329.609 25.8724C329.087 25.2301 328.824 24.3937 328.824 23.3634C328.824 22.333 329.087 21.5028 329.609 20.8724C330.146 20.2301 330.845 19.9088 331.709 19.9088C332.562 19.9088 333.256 20.2239 333.791 20.8543C334.327 21.4846 334.594 22.321 334.594 23.3634C334.594 24.4057 334.327 25.2421 333.791 25.8724C333.256 26.5028 332.562 26.8179 331.709 26.8179ZM339.451 19.9997H340.529L331.8 32.727H330.723L339.451 19.9997ZM331.709 25.9997C332.306 25.9997 332.781 25.7694 333.133 25.3088C333.498 24.8361 333.681 24.1875 333.681 23.3634C333.681 22.5392 333.498 21.8966 333.133 21.4361C332.781 20.9634 332.306 20.727 331.709 20.727C331.101 20.727 330.62 20.9634 330.266 21.4361C329.914 21.9088 329.737 22.5512 329.737 23.3634C329.737 24.1755 329.914 24.8179 330.266 25.2906C330.62 25.7634 331.101 25.9997 331.709 25.9997ZM339.543 32.8179C338.692 32.8179 337.998 32.5028 337.461 31.8724C336.926 31.2301 336.658 30.3937 336.658 29.3634C336.658 28.333 336.926 27.5028 337.461 26.8724C337.998 26.2301 338.692 25.9088 339.543 25.9088C340.408 25.9088 341.102 26.2301 341.624 26.8724C342.161 27.5028 342.428 28.333 342.428 29.3634C342.428 30.3937 342.161 31.2301 341.624 31.8724C341.102 32.5028 340.408 32.8179 339.543 32.8179ZM339.543 31.9997C340.153 31.9997 340.633 31.7634 340.985 31.2906C341.34 30.8179 341.515 30.1755 341.515 29.3634C341.515 28.5512 341.34 27.9088 340.985 27.4361C340.633 26.9634 340.153 26.727 339.543 26.727C338.947 26.727 338.465 26.9634 338.1 27.4361C337.748 27.8966 337.571 28.5392 337.571 29.3634C337.571 30.1875 337.748 30.8361 338.1 31.3088C338.465 31.7694 338.947 31.9997 339.543 31.9997Z" fill="black"/>
<path d="M23.9762 31.1455V32.7273H14.6997V20H23.7206V21.5818H16.5258V25.4909H22.9354V27.0364H16.5258V31.1455H23.9762ZM28.3574 24.7091C28.6618 24.1515 29.1123 23.7273 29.7087 23.4364C30.3053 23.1455 31.0297 23 31.8817 23V24.6909C31.7844 24.6787 31.6505 24.6727 31.48 24.6727C30.5304 24.6727 29.7817 24.9576 29.2339 25.5273C28.6983 26.0849 28.4304 26.8849 28.4304 27.9273V32.7273H26.6774V23.0909H28.3574V24.7091ZM35.7224 24.7091C36.0268 24.1515 36.4773 23.7273 37.0737 23.4364C37.6702 23.1455 38.3946 23 39.2467 23V24.6909C39.1494 24.6787 39.0155 24.6727 38.845 24.6727C37.8954 24.6727 37.1467 24.9576 36.5989 25.5273C36.0633 26.0849 35.7954 26.8849 35.7954 27.9273V32.7273H34.0424V23.0909H35.7224V24.7091ZM45.4634 32.8364C44.5016 32.8364 43.6373 32.6242 42.8704 32.2C42.1034 31.7758 41.5008 31.194 41.0626 30.4545C40.6365 29.7031 40.4234 28.8545 40.4234 27.9091C40.4234 26.9636 40.6365 26.1213 41.0626 25.3818C41.5008 24.6304 42.1034 24.0485 42.8704 23.6364C43.6373 23.2122 44.5016 23 45.4634 23C46.4252 23 47.2835 23.2122 48.0382 23.6364C48.8052 24.0485 49.4018 24.6304 49.8278 25.3818C50.266 26.1213 50.4852 26.9636 50.4852 27.9091C50.4852 28.8545 50.266 29.7031 49.8278 30.4545C49.4018 31.194 48.8052 31.7758 48.0382 32.2C47.2835 32.6242 46.4252 32.8364 45.4634 32.8364ZM45.4634 31.3091C46.0843 31.3091 46.6382 31.1696 47.1252 30.8909C47.6242 30.6 48.0139 30.2 48.2939 29.6909C48.5738 29.1696 48.7139 28.5758 48.7139 27.9091C48.7139 27.2424 48.5738 26.6545 48.2939 26.1455C48.0139 25.6242 47.6242 25.2242 47.1252 24.9455C46.6382 24.6667 46.0843 24.5273 45.4634 24.5273C44.8426 24.5273 44.2825 24.6667 43.7834 24.9455C43.2964 25.2242 42.9069 25.6242 42.6147 26.1455C42.3348 26.6545 42.1947 27.2424 42.1947 27.9091C42.1947 28.5758 42.3348 29.1696 42.6147 29.6909C42.9069 30.2 43.2964 30.6 43.7834 30.8909C44.2825 31.1696 44.8426 31.3091 45.4634 31.3091ZM54.5897 24.7091C54.8939 24.1515 55.3444 23.7273 55.941 23.4364C56.5374 23.1455 57.2618 23 58.114 23V24.6909C58.0165 24.6787 57.8827 24.6727 57.7123 24.6727C56.7627 24.6727 56.014 24.9576 55.4662 25.5273C54.9304 26.0849 54.6627 26.8849 54.6627 27.9273V32.7273H52.9097V23.0909H54.5897V24.7091ZM66.9835 24.7091C67.2877 24.1515 67.7382 23.7273 68.3348 23.4364C68.9312 23.1455 69.6556 23 70.5079 23V24.6909C70.4103 24.6787 70.2765 24.6727 70.1061 24.6727C69.1566 24.6727 68.4078 24.9576 67.86 25.5273C67.3242 26.0849 67.0565 26.8849 67.0565 27.9273V32.7273H65.3035V23.0909H66.9835V24.7091ZM76.1749 23C77.514 23 78.5366 23.3273 79.2428 23.9818C79.961 24.6364 80.3202 25.6122 80.3202 26.9091V32.7273H78.6584V31.4545C78.3662 31.9031 77.9462 32.2485 77.3984 32.4909C76.8628 32.7213 76.2237 32.8364 75.481 32.8364C74.3976 32.8364 73.5271 32.5758 72.8697 32.0545C72.2246 31.5333 71.9019 30.8485 71.9019 30C71.9019 29.1515 72.2123 28.4727 72.8332 27.9636C73.4541 27.4424 74.4402 27.1818 75.7915 27.1818H78.5671V26.8364C78.5671 26.0849 78.348 25.5091 77.9097 25.1091C77.4715 24.7091 76.8263 24.5091 75.9741 24.5091C75.4019 24.5091 74.8419 24.606 74.2941 24.8C73.7462 24.9818 73.2837 25.2304 72.9062 25.5455L72.1758 24.2364C72.6749 23.8364 73.2715 23.5333 73.9654 23.3273C74.6593 23.1091 75.3957 23 76.1749 23ZM75.7732 31.4909C76.4428 31.4909 77.021 31.3455 77.508 31.0545C77.995 30.7515 78.348 30.3273 78.5671 29.7818V28.4364H75.8645C74.3793 28.4364 73.6367 28.9333 73.6367 29.9273C73.6367 30.4122 73.8253 30.794 74.2028 31.0727C74.5802 31.3515 75.1036 31.4909 75.7732 31.4909ZM89.0061 32.1636C88.7505 32.3818 88.4338 32.5515 88.0565 32.6727C87.6791 32.7818 87.2896 32.8364 86.8879 32.8364C85.9138 32.8364 85.1591 32.5758 84.6235 32.0545C84.0877 31.5333 83.82 30.7878 83.82 29.8182V24.5273H82.1765V23.0909H83.82V20.9818H85.5731V23.0909H88.3487V24.5273H85.5731V29.7455C85.5731 30.2667 85.7009 30.6667 85.9566 30.9455C86.2243 31.2242 86.6017 31.3636 87.0887 31.3636C87.6243 31.3636 88.0808 31.2122 88.4583 30.9091L89.0061 32.1636ZM99.5514 27.9636C99.5514 28.0969 99.5392 28.2727 99.5149 28.4909H91.6627C91.7723 29.3395 92.1435 30.0242 92.7766 30.5455C93.4218 31.0545 94.2192 31.3091 95.1688 31.3091C96.3253 31.3091 97.2566 30.9213 97.9627 30.1455L98.9305 31.2727C98.4923 31.7818 97.9445 32.1696 97.2871 32.4364C96.6419 32.7031 95.9175 32.8364 95.114 32.8364C94.0914 32.8364 93.1844 32.6304 92.3931 32.2182C91.6019 31.794 90.9871 31.206 90.5488 30.4545C90.1228 29.7031 89.9097 28.8545 89.9097 27.9091C89.9097 26.9758 90.1166 26.1333 90.5305 25.3818C90.9566 24.6304 91.5349 24.0485 92.2653 23.6364C93.008 23.2122 93.8418 23 94.7671 23C95.6923 23 96.5141 23.2122 97.2323 23.6364C97.9627 24.0485 98.5288 24.6304 98.9305 25.3818C99.3445 26.1333 99.5514 26.994 99.5514 27.9636ZM94.7671 24.4727C93.9271 24.4727 93.2209 24.7273 92.6488 25.2364C92.0887 25.7455 91.76 26.4122 91.6627 27.2364H97.8714C97.7741 26.4242 97.4392 25.7636 96.8671 25.2545C96.307 24.7333 95.6071 24.4727 94.7671 24.4727Z" fill="black"/>
<path d="M279.031 50.0071H273.334L272.107 52.7271H270.982L275.657 42.5453H276.723L281.398 52.7271H280.258L279.031 50.0071ZM278.637 49.1344L276.183 43.6653L273.728 49.1344H278.637ZM291.063 42.5453L286.535 52.7271H285.468L280.94 42.5453H282.108L286.023 51.3889L289.968 42.5453H291.063ZM299.779 51.7962V52.7271H292.548V42.5453H299.56V43.4762H293.629V47.098H298.917V48.0144H293.629V51.7962H299.779ZM309.304 52.7271L306.967 49.4544C306.704 49.4835 306.43 49.498 306.149 49.498H303.402V52.7271H302.321V42.5453H306.149C307.453 42.5453 308.475 42.8556 309.217 43.4762C309.956 44.0967 310.327 44.9502 310.327 46.0362C310.327 46.8313 310.122 47.5053 309.713 48.058C309.313 48.6011 308.738 48.9938 307.989 49.2362L310.488 52.7271H309.304ZM306.119 48.5816C307.131 48.5816 307.905 48.3586 308.442 47.9126C308.977 47.4666 309.246 46.8411 309.246 46.0362C309.246 45.212 308.977 44.5816 308.442 44.1453C307.905 43.6993 307.131 43.4762 306.119 43.4762H303.402V48.5816H306.119ZM319.291 50.0071H313.594L312.367 52.7271H311.242L315.916 42.5453H316.983L321.658 52.7271H320.518L319.291 50.0071ZM318.897 49.1344L316.442 43.6653L313.988 49.1344H318.897ZM330.408 47.6362H331.446V51.5198C330.969 51.9367 330.403 52.2567 329.751 52.4798C329.099 52.7029 328.412 52.8144 327.691 52.8144C326.668 52.8144 325.748 52.5913 324.93 52.1453C324.112 51.6993 323.469 51.0835 323.002 50.298C322.534 49.5029 322.3 48.6156 322.3 47.6362C322.3 46.6567 322.534 45.7744 323.002 44.9889C323.469 44.1938 324.112 43.5731 324.93 43.1271C325.748 42.6811 326.674 42.458 327.706 42.458C328.485 42.458 329.201 42.584 329.853 42.8362C330.505 43.0786 331.057 43.4422 331.504 43.9271L330.832 44.6107C330.023 43.8156 328.997 43.418 327.749 43.418C326.922 43.418 326.172 43.6022 325.5 43.9707C324.837 44.3295 324.316 44.8338 323.937 45.4835C323.557 46.1235 323.367 46.8411 323.367 47.6362C323.367 48.4313 323.557 49.1489 323.937 49.7889C324.316 50.4289 324.837 50.9331 325.5 51.3016C326.163 51.6702 326.908 51.8544 327.735 51.8544C328.787 51.8544 329.678 51.5926 330.408 51.0689V47.6362ZM341.737 51.7962V52.7271H334.506V42.5453H341.518V43.4762H335.587V47.098H340.875V48.0144H335.587V51.7962H341.737Z" fill="black"/>
<path d="M20.0871 276.364C24.1211 276.364 27.3914 273.108 27.3914 269.091C27.3914 265.074 24.1211 261.818 20.0871 261.818C16.053 261.818 12.7827 265.074 12.7827 269.091C12.7827 273.108 16.053 276.364 20.0871 276.364Z" fill="#C2FFD3"/>
<path d="M56.1613 263.637L51.8518 276.364H50.4274L46.6839 265.509L42.9222 276.364H41.5161L37.2065 263.637H38.5944L42.2831 274.582L46.0996 263.637H47.3596L51.1213 274.637L54.8648 263.637H56.1613ZM65.9974 271.982H57.9626C58.0356 272.977 58.4191 273.782 59.113 274.4C59.8069 275.006 60.6834 275.309 61.7426 275.309C62.3392 275.309 62.887 275.206 63.3861 275C63.8851 274.782 64.3174 274.468 64.6826 274.055L65.413 274.891C64.987 275.4 64.4512 275.788 63.8061 276.055C63.173 276.322 62.473 276.455 61.7061 276.455C60.72 276.455 59.8434 276.249 59.0765 275.837C58.3218 275.413 57.7312 274.831 57.3052 274.091C56.8792 273.351 56.6661 272.515 56.6661 271.582C56.6661 270.649 56.8669 269.813 57.2687 269.073C57.6826 268.333 58.2425 267.758 58.9487 267.346C59.6669 266.933 60.4703 266.728 61.3591 266.728C62.2479 266.728 63.0451 266.933 63.7513 267.346C64.4574 267.758 65.0113 268.333 65.413 269.073C65.8148 269.8 66.0156 270.637 66.0156 271.582L65.9974 271.982ZM61.3591 267.837C60.4338 267.837 59.6548 268.133 59.0217 268.728C58.4008 269.309 58.0479 270.073 57.9626 271.018H64.7739C64.6886 270.073 64.3296 269.309 63.6965 268.728C63.0756 268.133 62.2964 267.837 61.3591 267.837ZM73.6032 266.728C74.5042 266.728 75.3197 266.933 76.0502 267.346C76.7806 267.746 77.3529 268.315 77.7667 269.055C78.1807 269.795 78.3876 270.637 78.3876 271.582C78.3876 272.528 78.1807 273.369 77.7667 274.109C77.3529 274.849 76.7806 275.424 76.0502 275.837C75.3197 276.249 74.5042 276.455 73.6032 276.455C72.7997 276.455 72.0755 276.286 71.4302 275.946C70.7972 275.606 70.2859 275.115 69.8962 274.473V276.364H68.6545V262.873H69.951V268.618C70.3528 268 70.8641 267.533 71.4849 267.218C72.118 266.891 72.8242 266.728 73.6032 266.728ZM73.5119 275.309C74.1815 275.309 74.7902 275.158 75.338 274.855C75.8858 274.54 76.312 274.097 76.6162 273.528C76.9329 272.958 77.091 272.309 77.091 271.582C77.091 270.855 76.9329 270.206 76.6162 269.637C76.312 269.068 75.8858 268.631 75.338 268.328C74.7902 268.013 74.1815 267.855 73.5119 267.855C72.8302 267.855 72.2154 268.013 71.6675 268.328C71.132 268.631 70.7059 269.068 70.3893 269.637C70.0851 270.206 69.9328 270.855 69.9328 271.582C69.9328 272.309 70.0851 272.958 70.3893 273.528C70.7059 274.097 71.132 274.54 71.6675 274.855C72.2154 275.158 72.8302 275.309 73.5119 275.309ZM94.1733 271.982H86.1386C86.2116 272.977 86.5951 273.782 87.289 274.4C87.9829 275.006 88.8594 275.309 89.9186 275.309C90.515 275.309 91.0628 275.206 91.562 275C92.0611 274.782 92.4933 274.468 92.8586 274.055L93.589 274.891C93.1628 275.4 92.6272 275.788 91.982 276.055C91.3489 276.322 90.649 276.455 89.882 276.455C88.896 276.455 88.0194 276.249 87.2525 275.837C86.4976 275.413 85.9072 274.831 85.4812 274.091C85.055 273.351 84.842 272.515 84.842 271.582C84.842 270.649 85.0429 269.813 85.4446 269.073C85.8584 268.333 86.4185 267.758 87.1246 267.346C87.8428 266.933 88.6463 266.728 89.5351 266.728C90.4237 266.728 91.2211 266.933 91.9273 267.346C92.6332 267.758 93.1873 268.333 93.589 269.073C93.9907 269.8 94.1916 270.637 94.1916 271.582L94.1733 271.982ZM89.5351 267.837C88.6098 267.837 87.8306 268.133 87.1977 268.728C86.5768 269.309 86.2237 270.073 86.1386 271.018H92.9499C92.8646 270.073 92.5054 269.309 91.8725 268.728C91.2516 268.133 90.4724 267.837 89.5351 267.837ZM98.0722 268.673C98.3766 268.031 98.8271 267.546 99.4235 267.218C100.032 266.891 100.781 266.728 101.67 266.728V267.982L101.359 267.964C100.349 267.964 99.5576 268.273 98.9853 268.891C98.4132 269.509 98.127 270.377 98.127 271.491V276.364H96.8305V266.8H98.0722V268.673ZM105.259 268.673C105.563 268.031 106.014 267.546 106.61 267.218C107.219 266.891 107.968 266.728 108.856 266.728V267.982L108.546 267.964C107.535 267.964 106.744 268.273 106.172 268.891C105.6 269.509 105.314 270.377 105.314 271.491V276.364H104.017V266.8H105.259V268.673ZM115.041 276.455C114.116 276.455 113.282 276.249 112.539 275.837C111.796 275.413 111.212 274.831 110.786 274.091C110.36 273.351 110.147 272.515 110.147 271.582C110.147 270.649 110.36 269.813 110.786 269.073C111.212 268.333 111.796 267.758 112.539 267.346C113.282 266.933 114.116 266.728 115.041 266.728C115.966 266.728 116.8 266.933 117.543 267.346C118.285 267.758 118.863 268.333 119.277 269.073C119.703 269.813 119.916 270.649 119.916 271.582C119.916 272.515 119.703 273.351 119.277 274.091C118.863 274.831 118.285 275.413 117.543 275.837C116.8 276.249 115.966 276.455 115.041 276.455ZM115.041 275.309C115.722 275.309 116.331 275.158 116.867 274.855C117.415 274.54 117.841 274.097 118.145 273.528C118.45 272.958 118.602 272.309 118.602 271.582C118.602 270.855 118.45 270.206 118.145 269.637C117.841 269.068 117.415 268.631 116.867 268.328C116.331 268.013 115.722 267.855 115.041 267.855C114.359 267.855 113.744 268.013 113.196 268.328C112.661 268.631 112.235 269.068 111.918 269.637C111.614 270.206 111.462 270.855 111.462 271.582C111.462 272.309 111.614 272.958 111.918 273.528C112.235 274.097 112.661 274.54 113.196 274.855C113.744 275.158 114.359 275.309 115.041 275.309ZM123.805 268.673C124.109 268.031 124.56 267.546 125.156 267.218C125.765 266.891 126.514 266.728 127.402 266.728V267.982L127.092 267.964C126.082 267.964 125.29 268.273 124.718 268.891C124.146 269.509 123.86 270.377 123.86 271.491V276.364H122.563V266.8H123.805V268.673ZM132.396 276.455C131.617 276.455 130.868 276.346 130.15 276.128C129.444 275.897 128.89 275.613 128.488 275.273L129.073 274.255C129.474 274.569 129.98 274.831 130.588 275.037C131.197 275.231 131.83 275.328 132.487 275.328C133.364 275.328 134.009 275.195 134.423 274.928C134.849 274.649 135.062 274.26 135.062 273.764C135.062 273.413 134.947 273.14 134.715 272.946C134.484 272.74 134.192 272.588 133.839 272.491C133.486 272.382 133.017 272.278 132.433 272.182C131.654 272.037 131.027 271.891 130.552 271.746C130.077 271.588 129.669 271.328 129.328 270.964C129 270.6 128.835 270.097 128.835 269.455C128.835 268.655 129.17 268 129.84 267.491C130.509 266.982 131.44 266.728 132.633 266.728C133.254 266.728 133.875 266.813 134.496 266.982C135.117 267.14 135.628 267.351 136.03 267.618L135.464 268.655C134.673 268.109 133.729 267.837 132.633 267.837C131.806 267.837 131.179 267.982 130.753 268.273C130.339 268.564 130.132 268.946 130.132 269.418C130.132 269.782 130.248 270.073 130.479 270.291C130.722 270.509 131.02 270.673 131.373 270.782C131.727 270.878 132.213 270.982 132.834 271.091C133.601 271.237 134.216 271.382 134.679 271.528C135.141 271.673 135.537 271.922 135.866 272.273C136.194 272.624 136.359 273.109 136.359 273.728C136.359 274.564 136.006 275.231 135.3 275.728C134.606 276.213 133.638 276.455 132.396 276.455Z" fill="black"/>
<path d="M160.695 276.364C164.73 276.364 168 273.108 168 269.091C168 265.074 164.73 261.818 160.695 261.818C156.661 261.818 153.391 265.074 153.391 269.091C153.391 273.108 156.661 276.364 160.695 276.364Z" fill="#FFDCF9"/>
<path d="M188.004 272.964H180.882L179.348 276.364H177.942L183.786 263.637H185.119L190.963 276.364H189.538L188.004 272.964ZM187.511 271.873L184.444 265.037L181.375 271.873H187.511ZM192.803 262.873H194.1V276.364H192.803V262.873ZM197.706 262.873H199.003V276.364H197.706V262.873ZM215.754 271.982H207.719C207.792 272.977 208.175 273.782 208.869 274.4C209.563 275.006 210.44 275.309 211.499 275.309C212.096 275.309 212.644 275.206 213.142 275C213.641 274.782 214.074 274.468 214.439 274.055L215.169 274.891C214.744 275.4 214.207 275.788 213.562 276.055C212.929 276.322 212.229 276.455 211.462 276.455C210.476 276.455 209.6 276.249 208.833 275.837C208.079 275.413 207.487 274.831 207.062 274.091C206.636 273.351 206.422 272.515 206.422 271.582C206.422 270.649 206.623 269.813 207.025 269.073C207.44 268.333 207.998 267.758 208.705 267.346C209.423 266.933 210.226 266.728 211.115 266.728C212.005 266.728 212.801 266.933 213.508 267.346C214.214 267.758 214.768 268.333 215.169 269.073C215.571 269.8 215.772 270.637 215.772 271.582L215.754 271.982ZM211.115 267.837C210.19 267.837 209.412 268.133 208.778 268.728C208.157 269.309 207.805 270.073 207.719 271.018H214.53C214.444 270.073 214.086 269.309 213.453 268.728C212.832 268.133 212.052 267.837 211.115 267.837ZM219.652 268.673C219.957 268.031 220.408 267.546 221.004 267.218C221.614 266.891 222.362 266.728 223.25 266.728V267.982L222.939 267.964C221.93 267.964 221.139 268.273 220.565 268.891C219.994 269.509 219.707 270.377 219.707 271.491V276.364H218.411V266.8H219.652V268.673ZM226.84 268.673C227.143 268.031 227.594 267.546 228.191 267.218C228.799 266.891 229.548 266.728 230.437 266.728V267.982L230.127 267.964C229.115 267.964 228.324 268.273 227.753 268.891C227.18 269.509 226.895 270.377 226.895 271.491V276.364H225.598V266.8H226.84V268.673ZM236.62 276.455C235.696 276.455 234.862 276.249 234.119 275.837C233.377 275.413 232.793 274.831 232.366 274.091C231.94 273.351 231.726 272.515 231.726 271.582C231.726 270.649 231.94 269.813 232.366 269.073C232.793 268.333 233.377 267.758 234.119 267.346C234.862 266.933 235.696 266.728 236.62 266.728C237.546 266.728 238.381 266.933 239.122 267.346C239.865 267.758 240.444 268.333 240.857 269.073C241.284 269.813 241.496 270.649 241.496 271.582C241.496 272.515 241.284 273.351 240.857 274.091C240.444 274.831 239.865 275.413 239.122 275.837C238.381 276.249 237.546 276.455 236.62 276.455ZM236.62 275.309C237.303 275.309 237.911 275.158 238.446 274.855C238.994 274.54 239.422 274.097 239.725 273.528C240.03 272.958 240.181 272.309 240.181 271.582C240.181 270.855 240.03 270.206 239.725 269.637C239.422 269.068 238.994 268.631 238.446 268.328C237.911 268.013 237.303 267.855 236.62 267.855C235.939 267.855 235.324 268.013 234.776 268.328C234.241 268.631 233.816 269.068 233.498 269.637C233.195 270.206 233.041 270.855 233.041 271.582C233.041 272.309 233.195 272.958 233.498 273.528C233.816 274.097 234.241 274.54 234.776 274.855C235.324 275.158 235.939 275.309 236.62 275.309ZM245.386 268.673C245.691 268.031 246.14 267.546 246.737 267.218C247.345 266.891 248.094 266.728 248.983 266.728V267.982L248.673 267.964C247.663 267.964 246.87 268.273 246.299 268.891C245.727 269.509 245.44 270.377 245.44 271.491V276.364H244.144V266.8H245.386V268.673ZM253.977 276.455C253.198 276.455 252.449 276.346 251.731 276.128C251.025 275.897 250.471 275.613 250.069 275.273L250.654 274.255C251.056 274.569 251.56 274.831 252.17 275.037C252.778 275.231 253.411 275.328 254.069 275.328C254.945 275.328 255.59 275.195 256.004 274.928C256.43 274.649 256.643 274.26 256.643 273.764C256.643 273.413 256.527 273.14 256.296 272.946C256.065 272.74 255.772 272.588 255.42 272.491C255.066 272.382 254.598 272.278 254.014 272.182C253.234 272.037 252.608 271.891 252.133 271.746C251.658 271.588 251.249 271.328 250.91 270.964C250.581 270.6 250.416 270.097 250.416 269.455C250.416 268.655 250.751 268 251.421 267.491C252.089 266.982 253.02 266.728 254.215 266.728C254.836 266.728 255.456 266.813 256.077 266.982C256.698 267.14 257.21 267.351 257.611 267.618L257.045 268.655C256.253 268.109 255.31 267.837 254.215 267.837C253.386 267.837 252.759 267.982 252.334 268.273C251.919 268.564 251.713 268.946 251.713 269.418C251.713 269.782 251.828 270.073 252.06 270.291C252.303 270.509 252.6 270.673 252.955 270.782C253.307 270.878 253.795 270.982 254.416 271.091C255.183 271.237 255.796 271.382 256.26 271.528C256.722 271.673 257.118 271.922 257.447 272.273C257.776 272.624 257.94 273.109 257.94 273.728C257.94 274.564 257.586 275.231 256.881 275.728C256.187 276.213 255.219 276.455 253.977 276.455Z" fill="black"/>
<path d="M17.6183 192.814C16.8294 192.814 16.1233 192.605 15.5 192.189C14.8865 191.773 14.4044 191.176 14.0538 190.4C13.7129 189.614 13.5425 188.693 13.5425 187.636C13.5425 186.58 13.7129 185.663 14.0538 184.887C14.4044 184.102 14.8865 183.5 15.5 183.083C16.1233 182.667 16.8294 182.458 17.6183 182.458C18.4072 182.458 19.1084 182.667 19.722 183.083C20.3452 183.5 20.8322 184.102 21.1828 184.887C21.5334 185.663 21.7087 186.58 21.7087 187.636C21.7087 188.693 21.5334 189.614 21.1828 190.4C20.8322 191.176 20.3452 191.773 19.722 192.189C19.1084 192.605 18.4072 192.814 17.6183 192.814ZM17.6183 191.854C18.2124 191.854 18.7335 191.689 19.1814 191.36C19.6392 191.031 19.9946 190.551 20.2479 189.92C20.5012 189.289 20.6277 188.529 20.6277 187.636C20.6277 186.743 20.5012 185.983 20.2479 185.353C19.9946 184.722 19.6392 184.242 19.1814 183.913C18.7335 183.583 18.2124 183.418 17.6183 183.418C17.0242 183.418 16.4983 183.583 16.0406 183.913C15.5926 184.242 15.242 184.722 14.9887 185.353C14.7355 185.983 14.6089 186.743 14.6089 187.636C14.6089 188.529 14.7355 189.289 14.9887 189.92C15.242 190.551 15.5926 191.031 16.0406 191.36C16.4983 191.689 17.0242 191.854 17.6183 191.854ZM25.3772 188C24.6856 188 24.1256 187.747 23.6972 187.243C23.2783 186.729 23.069 186.06 23.069 185.236C23.069 184.413 23.2783 183.747 23.6972 183.243C24.1256 182.729 24.6856 182.473 25.3772 182.473C26.0588 182.473 26.614 182.725 27.0426 183.229C27.471 183.733 27.6853 184.402 27.6853 185.236C27.6853 186.071 27.471 186.74 27.0426 187.243C26.614 187.747 26.0588 188 25.3772 188ZM31.5713 182.545H32.4332L25.4502 192.727H24.5883L31.5713 182.545ZM25.3772 187.345C25.8543 187.345 26.2342 187.162 26.5166 186.793C26.8088 186.414 26.9549 185.896 26.9549 185.236C26.9549 184.576 26.8088 184.063 26.5166 183.694C26.2342 183.316 25.8543 183.127 25.3772 183.127C24.8902 183.127 24.5054 183.316 24.2231 183.694C23.9406 184.073 23.7994 184.587 23.7994 185.236C23.7994 185.885 23.9406 186.4 24.2231 186.778C24.5054 187.156 24.8902 187.345 25.3772 187.345ZM31.6443 192.8C30.9624 192.8 30.4073 192.547 29.9789 192.043C29.5503 191.529 29.3361 190.86 29.3361 190.036C29.3361 189.213 29.5503 188.547 29.9789 188.043C30.4073 187.529 30.9624 187.273 31.6443 187.273C32.3357 187.273 32.8908 187.529 33.3097 188.043C33.7381 188.547 33.9525 189.213 33.9525 190.036C33.9525 190.86 33.7381 191.529 33.3097 192.043C32.8908 192.547 32.3357 192.8 31.6443 192.8ZM31.6443 192.145C32.1311 192.145 32.5159 191.956 32.7984 191.578C33.0807 191.2 33.222 190.685 33.222 190.036C33.222 189.387 33.0807 188.873 32.7984 188.494C32.5159 188.116 32.1311 187.927 31.6443 187.927C31.167 187.927 30.7824 188.116 30.4902 188.494C30.2077 188.863 30.0666 189.376 30.0666 190.036C30.0666 190.696 30.2077 191.214 30.4902 191.593C30.7824 191.962 31.167 192.145 31.6443 192.145Z" fill="#717171"/>
<path d="M17.6183 174.633C16.8294 174.633 16.1233 174.424 15.5 174.007C14.8865 173.59 14.4044 172.994 14.0538 172.218C13.7129 171.433 13.5425 170.511 13.5425 169.455C13.5425 168.398 13.7129 167.481 14.0538 166.705C14.4044 165.92 14.8865 165.319 15.5 164.902C16.1233 164.485 16.8294 164.276 17.6183 164.276C18.4072 164.276 19.1084 164.485 19.722 164.902C20.3452 165.319 20.8322 165.92 21.1828 166.705C21.5334 167.481 21.7087 168.398 21.7087 169.455C21.7087 170.511 21.5334 171.433 21.1828 172.218C20.8322 172.994 20.3452 173.59 19.722 174.007C19.1084 174.424 18.4072 174.633 17.6183 174.633ZM17.6183 173.673C18.2124 173.673 18.7335 173.508 19.1814 173.178C19.6392 172.849 19.9946 172.369 20.2479 171.738C20.5012 171.108 20.6277 170.347 20.6277 169.455C20.6277 168.562 20.5012 167.801 20.2479 167.171C19.9946 166.541 19.6392 166.061 19.1814 165.731C18.7335 165.401 18.2124 165.236 17.6183 165.236C17.0242 165.236 16.4983 165.401 16.0406 165.731C15.5926 166.061 15.242 166.541 14.9887 167.171C14.7355 167.801 14.6089 168.562 14.6089 169.455C14.6089 170.347 14.7355 171.108 14.9887 171.738C15.242 172.369 15.5926 172.849 16.0406 173.178C16.4983 173.508 17.0242 173.673 17.6183 173.673ZM23.8469 174.618C23.6327 174.618 23.4477 174.541 23.2918 174.385C23.1457 174.23 23.0726 174.041 23.0726 173.818C23.0726 173.595 23.1457 173.411 23.2918 173.265C23.4477 173.11 23.6327 173.033 23.8469 173.033C24.0613 173.033 24.2463 173.11 24.402 173.265C24.558 173.411 24.6358 173.595 24.6358 173.818C24.6358 174.041 24.558 174.23 24.402 174.385C24.2463 174.541 24.0613 174.618 23.8469 174.618ZM30.0728 174.633C29.2839 174.633 28.5778 174.424 27.9545 174.007C27.3409 173.59 26.8589 172.994 26.5082 172.218C26.1673 171.433 25.9969 170.511 25.9969 169.455C25.9969 168.398 26.1673 167.481 26.5082 166.705C26.8589 165.92 27.3409 165.319 27.9545 164.902C28.5778 164.485 29.2839 164.276 30.0728 164.276C30.8616 164.276 31.5629 164.485 32.1764 164.902C32.7997 165.319 33.2867 165.92 33.6373 166.705C33.9879 167.481 34.1632 168.398 34.1632 169.455C34.1632 170.511 33.9879 171.433 33.6373 172.218C33.2867 172.994 32.7997 173.59 32.1764 174.007C31.5629 174.424 30.8616 174.633 30.0728 174.633ZM30.0728 173.673C30.6668 173.673 31.188 173.508 31.6359 173.178C32.0937 172.849 32.4491 172.369 32.7023 171.738C32.9556 171.108 33.0822 170.347 33.0822 169.455C33.0822 168.562 32.9556 167.801 32.7023 167.171C32.4491 166.541 32.0937 166.061 31.6359 165.731C31.188 165.401 30.6668 165.236 30.0728 165.236C29.4787 165.236 28.9528 165.401 28.495 165.731C28.0471 166.061 27.6965 166.541 27.4432 167.171C27.1899 167.801 27.0634 168.562 27.0634 169.455C27.0634 170.347 27.1899 171.108 27.4432 171.738C27.6965 172.369 28.0471 172.849 28.495 173.178C28.9528 173.508 29.4787 173.673 30.0728 173.673ZM38.4751 164.364V174.545H37.4233V165.295H35.0129V164.364H38.4751ZM43.0816 169.818C42.3901 169.818 41.8302 169.566 41.4016 169.062C40.9829 168.548 40.7735 167.879 40.7735 167.055C40.7735 166.23 40.9829 165.566 41.4016 165.062C41.8302 164.548 42.3901 164.291 43.0816 164.291C43.7633 164.291 44.3184 164.543 44.747 165.047C45.1756 165.551 45.3898 166.221 45.3898 167.055C45.3898 167.889 45.1756 168.558 44.747 169.062C44.3184 169.566 43.7633 169.818 43.0816 169.818ZM49.2757 164.364H50.1376L43.1547 174.545H42.2928L49.2757 164.364ZM43.0816 169.164C43.5588 169.164 43.9386 168.979 44.2211 168.611C44.5133 168.233 44.6594 167.714 44.6594 167.055C44.6594 166.395 44.5133 165.881 44.2211 165.513C43.9386 165.135 43.5588 164.945 43.0816 164.945C42.5946 164.945 42.21 165.135 41.9275 165.513C41.645 165.891 41.5039 166.405 41.5039 167.055C41.5039 167.704 41.645 168.218 41.9275 168.596C42.21 168.975 42.5946 169.164 43.0816 169.164ZM49.3488 174.618C48.6671 174.618 48.1119 174.366 47.6834 173.862C47.2548 173.348 47.0406 172.679 47.0406 171.855C47.0406 171.03 47.2548 170.366 47.6834 169.862C48.1119 169.348 48.6671 169.091 49.3488 169.091C50.0403 169.091 50.5954 169.348 51.0141 169.862C51.4427 170.366 51.6569 171.03 51.6569 171.855C51.6569 172.679 51.4427 173.348 51.0141 173.862C50.5954 174.366 50.0403 174.618 49.3488 174.618ZM49.3488 173.964C49.8358 173.964 50.2204 173.775 50.5028 173.396C50.7853 173.018 50.9265 172.504 50.9265 171.855C50.9265 171.205 50.7853 170.691 50.5028 170.313C50.2204 169.935 49.8358 169.745 49.3488 169.745C48.8716 169.745 48.4868 169.935 48.1947 170.313C47.9122 170.681 47.771 171.195 47.771 171.855C47.771 172.514 47.9122 173.033 48.1947 173.411C48.4868 173.779 48.8716 173.964 49.3488 173.964Z" fill="#717171"/>
<path d="M17.6183 158.269C16.8294 158.269 16.1233 158.06 15.5 157.644C14.8865 157.227 14.4044 156.63 14.0538 155.854C13.7129 155.069 13.5425 154.148 13.5425 153.091C13.5425 152.034 13.7129 151.118 14.0538 150.342C14.4044 149.556 14.8865 148.955 15.5 148.538C16.1233 148.121 16.8294 147.913 17.6183 147.913C18.4072 147.913 19.1084 148.121 19.722 148.538C20.3452 148.955 20.8322 149.556 21.1828 150.342C21.5334 151.118 21.7087 152.034 21.7087 153.091C21.7087 154.148 21.5334 155.069 21.1828 155.854C20.8322 156.63 20.3452 157.227 19.722 157.644C19.1084 158.06 18.4072 158.269 17.6183 158.269ZM17.6183 157.309C18.2124 157.309 18.7335 157.144 19.1814 156.814C19.6392 156.485 19.9946 156.005 20.2479 155.374C20.5012 154.744 20.6277 153.983 20.6277 153.091C20.6277 152.199 20.5012 151.438 20.2479 150.807C19.9946 150.177 19.6392 149.697 19.1814 149.367C18.7335 149.038 18.2124 148.873 17.6183 148.873C17.0242 148.873 16.4983 149.038 16.0406 149.367C15.5926 149.697 15.242 150.177 14.9887 150.807C14.7355 151.438 14.6089 152.199 14.6089 153.091C14.6089 153.983 14.7355 154.744 14.9887 155.374C15.242 156.005 15.5926 156.485 16.0406 156.814C16.4983 157.144 17.0242 157.309 17.6183 157.309ZM23.8469 158.254C23.6327 158.254 23.4477 158.177 23.2918 158.022C23.1457 157.867 23.0726 157.678 23.0726 157.454C23.0726 157.231 23.1457 157.047 23.2918 156.902C23.4477 156.747 23.6327 156.669 23.8469 156.669C24.0613 156.669 24.2463 156.747 24.402 156.902C24.558 157.047 24.6358 157.231 24.6358 157.454C24.6358 157.678 24.558 157.867 24.402 158.022C24.2463 158.177 24.0613 158.254 23.8469 158.254ZM30.0728 158.269C29.2839 158.269 28.5778 158.06 27.9545 157.644C27.3409 157.227 26.8589 156.63 26.5082 155.854C26.1673 155.069 25.9969 154.148 25.9969 153.091C25.9969 152.034 26.1673 151.118 26.5082 150.342C26.8589 149.556 27.3409 148.955 27.9545 148.538C28.5778 148.121 29.2839 147.913 30.0728 147.913C30.8616 147.913 31.5629 148.121 32.1764 148.538C32.7997 148.955 33.2867 149.556 33.6373 150.342C33.9879 151.118 34.1632 152.034 34.1632 153.091C34.1632 154.148 33.9879 155.069 33.6373 155.854C33.2867 156.63 32.7997 157.227 32.1764 157.644C31.5629 158.06 30.8616 158.269 30.0728 158.269ZM30.0728 157.309C30.6668 157.309 31.188 157.144 31.6359 156.814C32.0937 156.485 32.4491 156.005 32.7023 155.374C32.9556 154.744 33.0822 153.983 33.0822 153.091C33.0822 152.199 32.9556 151.438 32.7023 150.807C32.4491 150.177 32.0937 149.697 31.6359 149.367C31.188 149.038 30.6668 148.873 30.0728 148.873C29.4787 148.873 28.9528 149.038 28.495 149.367C28.0471 149.697 27.6965 150.177 27.4432 150.807C27.1899 151.438 27.0634 152.199 27.0634 153.091C27.0634 153.983 27.1899 154.744 27.4432 155.374C27.6965 156.005 28.0471 156.485 28.495 156.814C28.9528 157.144 29.4787 157.309 30.0728 157.309ZM42.624 157.251V158.182H35.4511V157.44L39.7023 153.294C40.2379 152.771 40.5982 152.32 40.7833 151.942C40.978 151.554 41.0755 151.166 41.0755 150.778C41.0755 150.177 40.866 149.711 40.4473 149.382C40.0383 149.042 39.449 148.873 38.6797 148.873C37.4818 148.873 36.5515 149.251 35.8894 150.007L35.1444 149.367C35.5435 148.902 36.0501 148.543 36.6637 148.291C37.2869 148.039 37.9881 147.913 38.7673 147.913C39.8093 147.913 40.6323 148.16 41.2362 148.654C41.8498 149.139 42.1565 149.808 42.1565 150.662C42.1565 151.185 42.0397 151.69 41.8059 152.174C41.5722 152.659 41.129 153.217 40.4765 153.847L36.9997 157.251H42.624ZM46.2488 153.454C45.5573 153.454 44.9972 153.202 44.5688 152.698C44.1499 152.184 43.9406 151.515 43.9406 150.691C43.9406 149.867 44.1499 149.202 44.5688 148.698C44.9972 148.184 45.5573 147.927 46.2488 147.927C46.9305 147.927 47.4856 148.179 47.9142 148.684C48.3426 149.188 48.557 149.857 48.557 150.691C48.557 151.525 48.3426 152.194 47.9142 152.698C47.4856 153.202 46.9305 153.454 46.2488 153.454ZM52.4429 148H53.3048L46.3218 158.182H45.4599L52.4429 148ZM46.2488 152.8C46.726 152.8 47.1058 152.616 47.3883 152.247C47.6804 151.869 47.8265 151.35 47.8265 150.691C47.8265 150.031 47.6804 149.518 47.3883 149.149C47.1058 148.771 46.726 148.582 46.2488 148.582C45.7618 148.582 45.377 148.771 45.0947 149.149C44.8122 149.527 44.6711 150.041 44.6711 150.691C44.6711 151.34 44.8122 151.854 45.0947 152.233C45.377 152.611 45.7618 152.8 46.2488 152.8ZM52.5159 158.254C51.8341 158.254 51.2789 158.002 50.8505 157.498C50.422 156.984 50.2078 156.315 50.2078 155.491C50.2078 154.667 50.422 154.002 50.8505 153.498C51.2789 152.984 51.8341 152.727 52.5159 152.727C53.2073 152.727 53.7624 152.984 54.1813 153.498C54.6097 154.002 54.8241 154.667 54.8241 155.491C54.8241 156.315 54.6097 156.984 54.1813 157.498C53.7624 158.002 53.2073 158.254 52.5159 158.254ZM52.5159 157.6C53.0028 157.6 53.3875 157.411 53.67 157.033C53.9523 156.654 54.0937 156.14 54.0937 155.491C54.0937 154.841 53.9523 154.327 53.67 153.949C53.3875 153.571 53.0028 153.382 52.5159 153.382C52.0386 153.382 51.654 153.571 51.3618 153.949C51.0793 154.318 50.9382 154.831 50.9382 155.491C50.9382 156.15 51.0793 156.669 51.3618 157.047C51.654 157.416 52.0386 157.6 52.5159 157.6Z" fill="#717171"/>
<path d="M17.6183 140.087C16.8294 140.087 16.1233 139.879 15.5 139.462C14.8865 139.045 14.4044 138.449 14.0538 137.673C13.7129 136.887 13.5425 135.966 13.5425 134.909C13.5425 133.852 13.7129 132.936 14.0538 132.16C14.4044 131.375 14.8865 130.773 15.5 130.356C16.1233 129.94 16.8294 129.731 17.6183 129.731C18.4072 129.731 19.1084 129.94 19.722 130.356C20.3452 130.773 20.8322 131.375 21.1828 132.16C21.5334 132.936 21.7087 133.852 21.7087 134.909C21.7087 135.966 21.5334 136.887 21.1828 137.673C20.8322 138.449 20.3452 139.045 19.722 139.462C19.1084 139.879 18.4072 140.087 17.6183 140.087ZM17.6183 139.127C18.2124 139.127 18.7335 138.962 19.1814 138.633C19.6392 138.303 19.9946 137.823 20.2479 137.193C20.5012 136.562 20.6277 135.801 20.6277 134.909C20.6277 134.017 20.5012 133.256 20.2479 132.626C19.9946 131.995 19.6392 131.515 19.1814 131.186C18.7335 130.856 18.2124 130.691 17.6183 130.691C17.0242 130.691 16.4983 130.856 16.0406 131.186C15.5926 131.515 15.242 131.995 14.9887 132.626C14.7355 133.256 14.6089 134.017 14.6089 134.909C14.6089 135.801 14.7355 136.562 14.9887 137.193C15.242 137.823 15.5926 138.303 16.0406 138.633C16.4983 138.962 17.0242 139.127 17.6183 139.127ZM23.8469 140.073C23.6327 140.073 23.4477 139.995 23.2918 139.84C23.1457 139.685 23.0726 139.496 23.0726 139.273C23.0726 139.05 23.1457 138.865 23.2918 138.72C23.4477 138.565 23.6327 138.487 23.8469 138.487C24.0613 138.487 24.2463 138.565 24.402 138.72C24.558 138.865 24.6358 139.05 24.6358 139.273C24.6358 139.496 24.558 139.685 24.402 139.84C24.2463 139.995 24.0613 140.073 23.8469 140.073ZM30.0728 140.087C29.2839 140.087 28.5778 139.879 27.9545 139.462C27.3409 139.045 26.8589 138.449 26.5082 137.673C26.1673 136.887 25.9969 135.966 25.9969 134.909C25.9969 133.852 26.1673 132.936 26.5082 132.16C26.8589 131.375 27.3409 130.773 27.9545 130.356C28.5778 129.94 29.2839 129.731 30.0728 129.731C30.8616 129.731 31.5629 129.94 32.1764 130.356C32.7997 130.773 33.2867 131.375 33.6373 132.16C33.9879 132.936 34.1632 133.852 34.1632 134.909C34.1632 135.966 33.9879 136.887 33.6373 137.673C33.2867 138.449 32.7997 139.045 32.1764 139.462C31.5629 139.879 30.8616 140.087 30.0728 140.087ZM30.0728 139.127C30.6668 139.127 31.188 138.962 31.6359 138.633C32.0937 138.303 32.4491 137.823 32.7023 137.193C32.9556 136.562 33.0822 135.801 33.0822 134.909C33.0822 134.017 32.9556 133.256 32.7023 132.626C32.4491 131.995 32.0937 131.515 31.6359 131.186C31.188 130.856 30.6668 130.691 30.0728 130.691C29.4787 130.691 28.9528 130.856 28.495 131.186C28.0471 131.515 27.6965 131.995 27.4432 132.626C27.1899 133.256 27.0634 134.017 27.0634 134.909C27.0634 135.801 27.1899 136.562 27.4432 137.193C27.6965 137.823 28.0471 138.303 28.495 138.633C28.9528 138.962 29.4787 139.127 30.0728 139.127ZM39.0038 134.182C40.075 134.24 40.8883 134.531 41.4434 135.055C42.0083 135.569 42.2908 136.242 42.2908 137.076C42.2908 137.658 42.1494 138.177 41.8671 138.633C41.5846 139.079 41.1659 139.433 40.6108 139.695C40.0556 139.956 39.3787 140.087 38.5801 140.087C37.8398 140.087 37.1386 139.971 36.4765 139.738C35.8238 139.496 35.2979 139.176 34.8988 138.778L35.4101 137.949C35.7508 138.298 36.2037 138.584 36.7687 138.807C37.3335 139.021 37.9374 139.127 38.5801 139.127C39.4176 139.127 40.0653 138.948 40.5231 138.589C40.9807 138.221 41.2097 137.716 41.2097 137.076C41.2097 136.446 40.9807 135.951 40.5231 135.593C40.0653 135.234 39.3738 135.055 38.4487 135.055H37.7182V134.284L40.5523 130.749H35.3224V129.818H41.8963V130.56L39.0038 134.182ZM45.7923 135.273C45.1007 135.273 44.5407 135.021 44.1123 134.516C43.6934 134.002 43.4841 133.333 43.4841 132.509C43.4841 131.685 43.6934 131.021 44.1123 130.516C44.5407 130.002 45.1007 129.746 45.7923 129.746C46.4739 129.746 47.0291 129.998 47.4577 130.502C47.8861 131.006 48.1004 131.675 48.1004 132.509C48.1004 133.343 47.8861 134.012 47.4577 134.516C47.0291 135.021 46.4739 135.273 45.7923 135.273ZM51.9864 129.818H52.8483L45.8653 140H45.0034L51.9864 129.818ZM45.7923 134.618C46.2694 134.618 46.6493 134.434 46.9318 134.066C47.2239 133.687 47.37 133.169 47.37 132.509C47.37 131.85 47.2239 131.336 46.9318 130.967C46.6493 130.589 46.2694 130.4 45.7923 130.4C45.3053 130.4 44.9205 130.589 44.6382 130.967C44.3557 131.346 44.2145 131.86 44.2145 132.509C44.2145 133.159 44.3557 133.673 44.6382 134.051C44.9205 134.429 45.3053 134.618 45.7923 134.618ZM52.0594 140.073C51.3775 140.073 50.8224 139.821 50.394 139.316C49.9654 138.802 49.7512 138.133 49.7512 137.309C49.7512 136.485 49.9654 135.821 50.394 135.316C50.8224 134.802 51.3775 134.546 52.0594 134.546C52.7508 134.546 53.3059 134.802 53.7248 135.316C54.1532 135.821 54.3676 136.485 54.3676 137.309C54.3676 138.133 54.1532 138.802 53.7248 139.316C53.3059 139.821 52.7508 140.073 52.0594 140.073ZM52.0594 139.418C52.5462 139.418 52.931 139.229 53.2135 138.851C53.4958 138.473 53.6371 137.959 53.6371 137.309C53.6371 136.659 53.4958 136.145 53.2135 135.767C52.931 135.389 52.5462 135.2 52.0594 135.2C51.5821 135.2 51.1975 135.389 50.9053 135.767C50.6228 136.136 50.4817 136.65 50.4817 137.309C50.4817 137.969 50.6228 138.487 50.9053 138.865C51.1975 139.234 51.5821 139.418 52.0594 139.418Z" fill="#717171"/>
<path d="M17.6183 121.906C16.8294 121.906 16.1233 121.697 15.5 121.28C14.8865 120.863 14.4044 120.267 14.0538 119.491C13.7129 118.706 13.5425 117.784 13.5425 116.727C13.5425 115.671 13.7129 114.754 14.0538 113.978C14.4044 113.193 14.8865 112.592 15.5 112.175C16.1233 111.758 16.8294 111.549 17.6183 111.549C18.4072 111.549 19.1084 111.758 19.722 112.175C20.3452 112.592 20.8322 113.193 21.1828 113.978C21.5334 114.754 21.7087 115.671 21.7087 116.727C21.7087 117.784 21.5334 118.706 21.1828 119.491C20.8322 120.267 20.3452 120.863 19.722 121.28C19.1084 121.697 18.4072 121.906 17.6183 121.906ZM17.6183 120.946C18.2124 120.946 18.7335 120.781 19.1814 120.451C19.6392 120.121 19.9946 119.641 20.2479 119.011C20.5012 118.381 20.6277 117.62 20.6277 116.727C20.6277 115.835 20.5012 115.074 20.2479 114.444C19.9946 113.813 19.6392 113.333 19.1814 113.004C18.7335 112.674 18.2124 112.509 17.6183 112.509C17.0242 112.509 16.4983 112.674 16.0406 113.004C15.5926 113.333 15.242 113.813 14.9887 114.444C14.7355 115.074 14.6089 115.835 14.6089 116.727C14.6089 117.62 14.7355 118.381 14.9887 119.011C15.242 119.641 15.5926 120.121 16.0406 120.451C16.4983 120.781 17.0242 120.946 17.6183 120.946ZM23.8469 121.891C23.6327 121.891 23.4477 121.813 23.2918 121.658C23.1457 121.503 23.0726 121.314 23.0726 121.091C23.0726 120.868 23.1457 120.684 23.2918 120.538C23.4477 120.383 23.6327 120.306 23.8469 120.306C24.0613 120.306 24.2463 120.383 24.402 120.538C24.558 120.684 24.6358 120.868 24.6358 121.091C24.6358 121.314 24.558 121.503 24.402 121.658C24.2463 121.813 24.0613 121.891 23.8469 121.891ZM30.0728 121.906C29.2839 121.906 28.5778 121.697 27.9545 121.28C27.3409 120.863 26.8589 120.267 26.5082 119.491C26.1673 118.706 25.9969 117.784 25.9969 116.727C25.9969 115.671 26.1673 114.754 26.5082 113.978C26.8589 113.193 27.3409 112.592 27.9545 112.175C28.5778 111.758 29.2839 111.549 30.0728 111.549C30.8616 111.549 31.5629 111.758 32.1764 112.175C32.7997 112.592 33.2867 113.193 33.6373 113.978C33.9879 114.754 34.1632 115.671 34.1632 116.727C34.1632 117.784 33.9879 118.706 33.6373 119.491C33.2867 120.267 32.7997 120.863 32.1764 121.28C31.5629 121.697 30.8616 121.906 30.0728 121.906ZM30.0728 120.946C30.6668 120.946 31.188 120.781 31.6359 120.451C32.0937 120.121 32.4491 119.641 32.7023 119.011C32.9556 118.381 33.0822 117.62 33.0822 116.727C33.0822 115.835 32.9556 115.074 32.7023 114.444C32.4491 113.813 32.0937 113.333 31.6359 113.004C31.188 112.674 30.6668 112.509 30.0728 112.509C29.4787 112.509 28.9528 112.674 28.495 113.004C28.0471 113.333 27.6965 113.813 27.4432 114.444C27.1899 115.074 27.0634 115.835 27.0634 116.727C27.0634 117.62 27.1899 118.381 27.4432 119.011C27.6965 119.641 28.0471 120.121 28.495 120.451C28.9528 120.781 29.4787 120.946 30.0728 120.946ZM44.3617 119.142H42.3165V121.818H41.2647V119.142H35.4942V118.386L40.9141 111.637H42.0828L36.8528 118.211H41.2939V115.855H42.3165V118.211H44.3617V119.142ZM47.0477 117.091C46.3562 117.091 45.7961 116.839 45.3677 116.335C44.9488 115.821 44.7395 115.152 44.7395 114.327C44.7395 113.503 44.9488 112.839 45.3677 112.335C45.7961 111.821 46.3562 111.564 47.0477 111.564C47.7294 111.564 48.2845 111.816 48.7131 112.32C49.1415 112.824 49.3559 113.493 49.3559 114.327C49.3559 115.161 49.1415 115.831 48.7131 116.335C48.2845 116.839 47.7294 117.091 47.0477 117.091ZM53.2418 111.637H54.1037L47.1208 121.818H46.2588L53.2418 111.637ZM47.0477 116.437C47.5249 116.437 47.9047 116.252 48.1872 115.884C48.4794 115.506 48.6254 114.987 48.6254 114.327C48.6254 113.668 48.4794 113.154 48.1872 112.786C47.9047 112.407 47.5249 112.218 47.0477 112.218C46.5607 112.218 46.1759 112.407 45.8936 112.786C45.6111 113.164 45.47 113.678 45.47 114.327C45.47 114.977 45.6111 115.491 45.8936 115.869C46.1759 116.247 46.5607 116.437 47.0477 116.437ZM53.3148 121.891C52.633 121.891 52.0778 121.639 51.6494 121.135C51.2209 120.621 51.0067 119.952 51.0067 119.127C51.0067 118.303 51.2209 117.639 51.6494 117.135C52.0778 116.621 52.633 116.364 53.3148 116.364C54.0062 116.364 54.5613 116.621 54.9802 117.135C55.4086 117.639 55.623 118.303 55.623 119.127C55.623 119.952 55.4086 120.621 54.9802 121.135C54.5613 121.639 54.0062 121.891 53.3148 121.891ZM53.3148 121.237C53.8017 121.237 54.1864 121.047 54.4689 120.669C54.7512 120.291 54.8926 119.777 54.8926 119.127C54.8926 118.478 54.7512 117.964 54.4689 117.586C54.1864 117.207 53.8017 117.018 53.3148 117.018C52.8375 117.018 52.4529 117.207 52.1608 117.586C51.8783 117.954 51.7371 118.468 51.7371 119.127C51.7371 119.787 51.8783 120.306 52.1608 120.684C52.4529 121.052 52.8375 121.237 53.3148 121.237Z" fill="#717171"/>
<path d="M17.6183 103.724C16.8294 103.724 16.1233 103.515 15.5 103.098C14.8865 102.681 14.4044 102.085 14.0538 101.309C13.7129 100.524 13.5425 99.6023 13.5425 98.5454C13.5425 97.4885 13.7129 96.5721 14.0538 95.7963C14.4044 95.0108 14.8865 94.4095 15.5 93.9926C16.1233 93.5757 16.8294 93.3672 17.6183 93.3672C18.4072 93.3672 19.1084 93.5757 19.722 93.9926C20.3452 94.4095 20.8322 95.0108 21.1828 95.7963C21.5334 96.5721 21.7087 97.4885 21.7087 98.5454C21.7087 99.6023 21.5334 100.524 21.1828 101.309C20.8322 102.085 20.3452 102.681 19.722 103.098C19.1084 103.515 18.4072 103.724 17.6183 103.724ZM17.6183 102.764C18.2124 102.764 18.7335 102.599 19.1814 102.269C19.6392 101.939 19.9946 101.459 20.2479 100.829C20.5012 100.199 20.6277 99.4376 20.6277 98.5454C20.6277 97.6532 20.5012 96.8921 20.2479 96.2617C19.9946 95.6314 19.6392 95.1514 19.1814 94.8217C18.7335 94.4921 18.2124 94.3272 17.6183 94.3272C17.0242 94.3272 16.4983 94.4921 16.0406 94.8217C15.5926 95.1514 15.242 95.6314 14.9887 96.2617C14.7355 96.8921 14.6089 97.6532 14.6089 98.5454C14.6089 99.4376 14.7355 100.199 14.9887 100.829C15.242 101.459 15.5926 101.939 16.0406 102.269C16.4983 102.599 17.0242 102.764 17.6183 102.764ZM23.8469 103.709C23.6327 103.709 23.4477 103.631 23.2918 103.476C23.1457 103.321 23.0726 103.132 23.0726 102.909C23.0726 102.686 23.1457 102.502 23.2918 102.356C23.4477 102.201 23.6327 102.124 23.8469 102.124C24.0613 102.124 24.2463 102.201 24.402 102.356C24.558 102.502 24.6358 102.686 24.6358 102.909C24.6358 103.132 24.558 103.321 24.402 103.476C24.2463 103.631 24.0613 103.709 23.8469 103.709ZM30.0728 103.724C29.2839 103.724 28.5777 103.515 27.9545 103.098C27.3409 102.681 26.8589 102.085 26.5082 101.309C26.1673 100.524 25.9969 99.6023 25.9969 98.5454C25.9969 97.4885 26.1673 96.5721 26.5082 95.7963C26.8589 95.0108 27.3409 94.4095 27.9545 93.9926C28.5777 93.5757 29.2839 93.3672 30.0728 93.3672C30.8616 93.3672 31.5629 93.5757 32.1764 93.9926C32.7997 94.4095 33.2867 95.0108 33.6373 95.7963C33.9879 96.5721 34.1632 97.4885 34.1632 98.5454C34.1632 99.6023 33.9879 100.524 33.6373 101.309C33.2867 102.085 32.7997 102.681 32.1764 103.098C31.5629 103.515 30.8616 103.724 30.0728 103.724ZM30.0728 102.764C30.6668 102.764 31.188 102.599 31.6359 102.269C32.0937 101.939 32.4491 101.459 32.7023 100.829C32.9556 100.199 33.0822 99.4376 33.0822 98.5454C33.0822 97.6532 32.9556 96.8921 32.7023 96.2617C32.4491 95.6314 32.0937 95.1514 31.6359 94.8217C31.188 94.4921 30.6668 94.3272 30.0728 94.3272C29.4787 94.3272 28.9528 94.4921 28.495 94.8217C28.0471 95.1514 27.6965 95.6314 27.4432 96.2617C27.1899 96.8921 27.0634 97.6532 27.0634 98.5454C27.0634 99.4376 27.1899 100.199 27.4432 100.829C27.6965 101.459 28.0471 101.939 28.495 102.269C28.9528 102.599 29.4787 102.764 30.0728 102.764ZM38.3575 97.629C39.8379 97.629 40.9141 97.8957 41.5861 98.429C42.2677 98.9526 42.6087 99.6896 42.6087 100.64C42.6087 101.231 42.4675 101.76 42.185 102.225C41.9124 102.691 41.4984 103.059 40.9433 103.331C40.3881 103.593 39.7065 103.724 38.8981 103.724C38.1676 103.724 37.4713 103.607 36.809 103.374C36.1566 103.132 35.6306 102.812 35.2313 102.414L35.7426 101.585C36.0835 101.934 36.5315 102.22 37.0866 102.444C37.6417 102.657 38.2407 102.764 38.8834 102.764C39.7308 102.764 40.3832 102.574 40.841 102.196C41.3085 101.818 41.5422 101.314 41.5422 100.684C41.5422 99.9854 41.2793 99.4568 40.7534 99.0981C40.2371 98.7394 39.3606 98.5599 38.1238 98.5599H35.9471L36.473 93.4545H42.0681V94.3854H37.3934L37.0428 97.629H38.3575ZM45.9634 98.909C45.2718 98.909 44.712 98.6568 44.2834 98.1526C43.8646 97.6386 43.6552 96.9696 43.6552 96.1454C43.6552 95.3212 43.8646 94.6568 44.2834 94.1526C44.712 93.6386 45.2718 93.3817 45.9634 93.3817C46.6451 93.3817 47.2002 93.6339 47.6288 94.1381C48.0573 94.6423 48.2715 95.3114 48.2715 96.1454C48.2715 96.9794 48.0573 97.6485 47.6288 98.1526C47.2002 98.6568 46.6451 98.909 45.9634 98.909ZM52.1575 93.4545H53.0194L46.0364 103.636H45.1745L52.1575 93.4545ZM45.9634 98.2545C46.4405 98.2545 46.8204 98.0703 47.1029 97.7017C47.395 97.3236 47.5411 96.8048 47.5411 96.1454C47.5411 95.4859 47.395 94.9721 47.1029 94.6036C46.8204 94.2254 46.4405 94.0363 45.9634 94.0363C45.4764 94.0363 45.0918 94.2254 44.8093 94.6036C44.5268 94.9817 44.3856 95.4957 44.3856 96.1454C44.3856 96.795 44.5268 97.309 44.8093 97.6872C45.0918 98.0654 45.4764 98.2545 45.9634 98.2545ZM52.2305 103.709C51.5488 103.709 50.9937 103.457 50.5651 102.953C50.1365 102.439 49.9223 101.77 49.9223 100.945C49.9223 100.121 50.1365 99.4568 50.5651 98.9526C50.9937 98.4386 51.5488 98.1817 52.2305 98.1817C52.922 98.1817 53.4772 98.4386 53.8959 98.9526C54.3245 99.4568 54.5387 100.121 54.5387 100.945C54.5387 101.77 54.3245 102.439 53.8959 102.953C53.4772 103.457 52.922 103.709 52.2305 103.709ZM52.2305 103.054C52.7175 103.054 53.1021 102.865 53.3846 102.487C53.6671 102.109 53.8082 101.595 53.8082 100.945C53.8082 100.296 53.6671 99.7817 53.3846 99.4036C53.1021 99.0254 52.7175 98.8363 52.2305 98.8363C51.7533 98.8363 51.3686 99.0254 51.0764 99.4036C50.7939 99.7721 50.6528 100.286 50.6528 100.945C50.6528 101.605 50.7939 102.124 51.0764 102.502C51.3686 102.87 51.7533 103.054 52.2305 103.054Z" fill="#717171"/>
<path d="M17.6183 85.5419C16.8294 85.5419 16.1233 85.3334 15.5 84.9165C14.8865 84.4995 14.4044 83.9032 14.0538 83.1274C13.7129 82.3419 13.5425 81.4206 13.5425 80.3637C13.5425 79.3068 13.7129 78.3905 14.0538 77.6146C14.4044 76.8292 14.8865 76.2279 15.5 75.811C16.1233 75.3941 16.8294 75.1855 17.6183 75.1855C18.4072 75.1855 19.1084 75.3941 19.722 75.811C20.3452 76.2279 20.8322 76.8292 21.1828 77.6146C21.5334 78.3905 21.7087 79.3068 21.7087 80.3637C21.7087 81.4206 21.5334 82.3419 21.1828 83.1274C20.8322 83.9032 20.3452 84.4995 19.722 84.9165C19.1084 85.3334 18.4072 85.5419 17.6183 85.5419ZM17.6183 84.5819C18.2124 84.5819 18.7335 84.417 19.1814 84.0874C19.6392 83.7577 19.9946 83.2777 20.2479 82.6474C20.5012 82.017 20.6277 81.2559 20.6277 80.3637C20.6277 79.4715 20.5012 78.7105 20.2479 78.0801C19.9946 77.4497 19.6392 76.9697 19.1814 76.6401C18.7335 76.3105 18.2124 76.1455 17.6183 76.1455C17.0242 76.1455 16.4983 76.3105 16.0406 76.6401C15.5926 76.9697 15.242 77.4497 14.9887 78.0801C14.7355 78.7105 14.6089 79.4715 14.6089 80.3637C14.6089 81.2559 14.7355 82.017 14.9887 82.6474C15.242 83.2777 15.5926 83.7577 16.0406 84.0874C16.4983 84.417 17.0242 84.5819 17.6183 84.5819ZM23.8469 85.5274C23.6327 85.5274 23.4477 85.4497 23.2918 85.2946C23.1457 85.1395 23.0726 84.9505 23.0726 84.7274C23.0726 84.5043 23.1457 84.3201 23.2918 84.1746C23.4477 84.0195 23.6327 83.9419 23.8469 83.9419C24.0613 83.9419 24.2463 84.0195 24.402 84.1746C24.558 84.3201 24.6358 84.5043 24.6358 84.7274C24.6358 84.9505 24.558 85.1395 24.402 85.2946C24.2463 85.4497 24.0613 85.5274 23.8469 85.5274ZM30.0728 85.5419C29.2839 85.5419 28.5777 85.3334 27.9545 84.9165C27.3409 84.4995 26.8589 83.9032 26.5082 83.1274C26.1673 82.3419 25.9969 81.4206 25.9969 80.3637C25.9969 79.3068 26.1673 78.3905 26.5082 77.6146C26.8589 76.8292 27.3409 76.2279 27.9545 75.811C28.5777 75.3941 29.2839 75.1855 30.0728 75.1855C30.8616 75.1855 31.5629 75.3941 32.1764 75.811C32.7997 76.2279 33.2867 76.8292 33.6373 77.6146C33.9879 78.3905 34.1632 79.3068 34.1632 80.3637C34.1632 81.4206 33.9879 82.3419 33.6373 83.1274C33.2867 83.9032 32.7997 84.4995 32.1764 84.9165C31.5629 85.3334 30.8616 85.5419 30.0728 85.5419ZM30.0728 84.5819C30.6668 84.5819 31.188 84.417 31.6359 84.0874C32.0937 83.7577 32.4491 83.2777 32.7023 82.6474C32.9556 82.017 33.0822 81.2559 33.0822 80.3637C33.0822 79.4715 32.9556 78.7105 32.7023 78.0801C32.4491 77.4497 32.0937 76.9697 31.6359 76.6401C31.188 76.3105 30.6668 76.1455 30.0728 76.1455C29.4787 76.1455 28.9528 76.3105 28.495 76.6401C28.0471 76.9697 27.6965 77.4497 27.4432 78.0801C27.1899 78.7105 27.0634 79.4715 27.0634 80.3637C27.0634 81.2559 27.1899 82.017 27.4432 82.6474C27.6965 83.2777 28.0471 83.7577 28.495 84.0874C28.9528 84.417 29.4787 84.5819 30.0728 84.5819ZM39.9061 79.3601C40.5781 79.3601 41.1721 79.4861 41.6883 79.7383C42.2142 79.9905 42.6233 80.3492 42.9154 80.8146C43.2076 81.2705 43.3537 81.8037 43.3537 82.4146C43.3537 83.0352 43.2027 83.5832 42.9008 84.0583C42.599 84.5334 42.1801 84.9019 41.6445 85.1637C41.1186 85.4159 40.5246 85.5419 39.8622 85.5419C38.5086 85.5419 37.4713 85.1006 36.7506 84.2183C36.0298 83.3261 35.6695 82.0705 35.6695 80.451C35.6695 79.3165 35.8644 78.3565 36.2539 77.571C36.6434 76.7855 37.1888 76.1941 37.8901 75.7965C38.5913 75.3892 39.4094 75.1855 40.3443 75.1855C41.3573 75.1855 42.1655 75.3697 42.7694 75.7383L42.3457 76.5819C41.8587 76.2619 41.1966 76.1019 40.3589 76.1019C39.2291 76.1019 38.3429 76.4606 37.7001 77.1783C37.0574 77.8861 36.736 78.9188 36.736 80.2765C36.736 80.5188 36.7506 80.7952 36.7798 81.1055C37.0331 80.5528 37.4372 80.1261 37.9923 79.8255C38.5475 79.5152 39.1853 79.3601 39.9061 79.3601ZM39.8184 84.6546C40.5585 84.6546 41.1575 84.4559 41.6153 84.0583C42.0828 83.651 42.3165 83.1128 42.3165 82.4437C42.3165 81.7746 42.0828 81.2414 41.6153 80.8437C41.1575 80.4461 40.5342 80.2474 39.7454 80.2474C39.2291 80.2474 38.7715 80.3443 38.3721 80.5383C37.9826 80.7323 37.6759 80.9988 37.4518 81.3383C37.2277 81.6777 37.1158 82.0559 37.1158 82.4728C37.1158 82.8606 37.2181 83.2195 37.4226 83.5492C37.6368 83.8788 37.9485 84.1455 38.3575 84.3492C38.7666 84.5528 39.2536 84.6546 39.8184 84.6546ZM46.4484 80.7274C45.757 80.7274 45.197 80.4752 44.7684 79.971C44.3497 79.457 44.1402 78.7879 44.1402 77.9637C44.1402 77.1395 44.3497 76.4752 44.7684 75.971C45.197 75.457 45.757 75.2001 46.4484 75.2001C47.1302 75.2001 47.6854 75.4523 48.1138 75.9565C48.5424 76.4606 48.7566 77.1297 48.7566 77.9637C48.7566 78.7977 48.5424 79.4668 48.1138 79.971C47.6854 80.4752 47.1302 80.7274 46.4484 80.7274ZM52.6425 75.2728H53.5044L46.5214 85.4546H45.6595L52.6425 75.2728ZM46.4484 80.0728C46.9257 80.0728 47.3055 79.8886 47.5879 79.5201C47.88 79.1419 48.0261 78.6232 48.0261 77.9637C48.0261 77.3043 47.88 76.7905 47.5879 76.4219C47.3055 76.0437 46.9257 75.8546 46.4484 75.8546C45.9615 75.8546 45.5768 76.0437 45.2943 76.4219C45.012 76.8001 44.8706 77.3141 44.8706 77.9637C44.8706 78.6134 45.012 79.1274 45.2943 79.5055C45.5768 79.8837 45.9615 80.0728 46.4484 80.0728ZM52.7155 85.5274C52.0338 85.5274 51.4787 85.2752 51.0501 84.771C50.6217 84.257 50.4073 83.5879 50.4073 82.7637C50.4073 81.9395 50.6217 81.2752 51.0501 80.771C51.4787 80.257 52.0338 80.0001 52.7155 80.0001C53.4071 80.0001 53.9622 80.257 54.3809 80.771C54.8095 81.2752 55.0237 81.9395 55.0237 82.7637C55.0237 83.5879 54.8095 84.257 54.3809 84.771C53.9622 85.2752 53.4071 85.5274 52.7155 85.5274ZM52.7155 84.8728C53.2025 84.8728 53.5873 84.6837 53.8696 84.3055C54.1521 83.9274 54.2932 83.4134 54.2932 82.7637C54.2932 82.1141 54.1521 81.6001 53.8696 81.2219C53.5873 80.8437 53.2025 80.6546 52.7155 80.6546C52.2384 80.6546 51.8536 80.8437 51.5614 81.2219C51.2791 81.5905 51.1378 82.1043 51.1378 82.7637C51.1378 83.4232 51.2791 83.9419 51.5614 84.3201C51.8536 84.6886 52.2384 84.8728 52.7155 84.8728Z" fill="#717171"/>
<path d="M232.077 220.087C231.493 220.087 230.952 219.962 230.456 219.709C229.959 219.456 229.556 219.098 229.243 218.632L229.886 217.905C230.45 218.74 231.186 219.156 232.092 219.156C233.357 219.156 233.991 218.409 233.991 216.916V210.749H230.251V209.818H235.058V216.872C235.058 217.94 234.804 218.743 234.298 219.287C233.801 219.82 233.062 220.087 232.077 220.087ZM245.006 212.349V220H244.013V218.603C243.741 219.069 243.364 219.432 242.888 219.694C242.411 219.947 241.865 220.072 241.252 220.072C240.249 220.072 239.455 219.796 238.87 219.243C238.295 218.682 238.008 217.862 238.008 216.785V212.349H239.046V216.683C239.046 217.489 239.245 218.1 239.645 218.516C240.045 218.932 240.614 219.142 241.354 219.142C242.163 219.142 242.8 218.9 243.268 218.414C243.735 217.92 243.969 217.236 243.969 216.363V212.349H245.006ZM247.911 209.207H248.949V220H247.911V209.207ZM257.805 209.818V220H256.753V210.749H254.343V209.818H257.805ZM267.233 219.069V220H260.06V219.258L264.311 215.112C264.846 214.589 265.206 214.138 265.392 213.76C265.586 213.372 265.685 212.983 265.685 212.596C265.685 211.994 265.475 211.529 265.056 211.2C264.647 210.86 264.058 210.691 263.289 210.691C262.091 210.691 261.16 211.069 260.499 211.825L259.754 211.185C260.152 210.72 260.659 210.362 261.273 210.109C261.896 209.856 262.597 209.731 263.376 209.731C264.417 209.731 265.241 209.978 265.845 210.472C266.459 210.958 266.766 211.627 266.766 212.48C266.766 213.003 266.649 213.507 266.415 213.992C266.181 214.478 265.738 215.034 265.086 215.665L261.609 219.069H267.233ZM269.499 218.487C269.722 218.487 269.908 218.565 270.054 218.72C270.201 218.865 270.274 219.049 270.274 219.272C270.274 219.389 270.254 219.514 270.215 219.651C270.186 219.787 270.137 219.942 270.069 220.116L269.456 222.123H268.754L269.251 220.014C269.094 219.965 268.968 219.878 268.871 219.752C268.773 219.616 268.725 219.456 268.725 219.272C268.725 219.049 268.798 218.865 268.944 218.72C269.09 218.565 269.275 218.487 269.499 218.487ZM220.378 234.632C219.589 234.632 218.882 234.423 218.259 234.007C217.646 233.591 217.164 232.994 216.813 232.218C216.472 231.432 216.302 230.511 216.302 229.454C216.302 228.398 216.472 227.482 216.813 226.705C217.164 225.92 217.646 225.318 218.259 224.902C218.882 224.485 219.589 224.276 220.378 224.276C221.166 224.276 221.868 224.485 222.481 224.902C223.104 225.318 223.592 225.92 223.942 226.705C224.293 227.482 224.468 228.398 224.468 229.454C224.468 230.511 224.293 231.432 223.942 232.218C223.592 232.994 223.104 233.591 222.481 234.007C221.868 234.423 221.166 234.632 220.378 234.632ZM220.378 233.672C220.971 233.672 221.493 233.507 221.941 233.178C222.399 232.849 222.753 232.369 223.007 231.738C223.261 231.107 223.387 230.347 223.387 229.454C223.387 228.562 223.261 227.802 223.007 227.171C222.753 226.54 222.399 226.06 221.941 225.731C221.493 225.402 220.971 225.236 220.378 225.236C219.784 225.236 219.258 225.402 218.8 225.731C218.352 226.06 218.002 226.54 217.748 227.171C217.494 227.802 217.368 228.562 217.368 229.454C217.368 230.347 217.494 231.107 217.748 231.738C218.002 232.369 218.352 232.849 218.8 233.178C219.258 233.507 219.784 233.672 220.378 233.672ZM230.211 228.451C230.883 228.451 231.477 228.576 231.993 228.829C232.519 229.082 232.928 229.44 233.22 229.905C233.513 230.362 233.659 230.894 233.659 231.505C233.659 232.125 233.507 232.674 233.206 233.149C232.905 233.623 232.485 233.992 231.949 234.254C231.424 234.507 230.83 234.632 230.167 234.632C228.814 234.632 227.777 234.191 227.056 233.309C226.334 232.416 225.975 231.162 225.975 229.542C225.975 228.407 226.17 227.447 226.559 226.662C226.948 225.876 227.494 225.285 228.195 224.887C228.896 224.48 229.714 224.276 230.649 224.276C231.663 224.276 232.47 224.46 233.074 224.829L232.651 225.672C232.163 225.352 231.502 225.192 230.664 225.192C229.534 225.192 228.648 225.551 228.005 226.269C227.362 226.976 227.041 228.009 227.041 229.367C227.041 229.609 227.056 229.885 227.085 230.196C227.339 229.643 227.742 229.216 228.297 228.916C228.852 228.605 229.49 228.451 230.211 228.451ZM230.123 233.745C230.863 233.745 231.462 233.547 231.92 233.149C232.388 232.742 232.622 232.203 232.622 231.534C232.622 230.865 232.388 230.332 231.92 229.934C231.462 229.536 230.839 229.338 230.05 229.338C229.534 229.338 229.077 229.434 228.677 229.629C228.288 229.823 227.981 230.089 227.757 230.429C227.532 230.769 227.421 231.147 227.421 231.563C227.421 231.951 227.523 232.311 227.728 232.64C227.941 232.969 228.254 233.236 228.663 233.44C229.072 233.643 229.559 233.745 230.123 233.745ZM235.666 228.422C235.452 228.422 235.266 228.343 235.11 228.189C234.964 228.034 234.891 227.845 234.891 227.622C234.891 227.398 234.964 227.214 235.11 227.069C235.266 226.914 235.452 226.836 235.666 226.836C235.879 226.836 236.065 226.914 236.221 227.069C236.376 227.214 236.454 227.398 236.454 227.622C236.454 227.845 236.376 228.034 236.221 228.189C236.065 228.343 235.879 228.422 235.666 228.422ZM235.666 234.618C235.452 234.618 235.266 234.54 235.11 234.385C234.964 234.231 234.891 234.042 234.891 233.818C234.891 233.594 234.964 233.411 235.11 233.265C235.266 233.111 235.452 233.032 235.666 233.032C235.879 233.032 236.065 233.111 236.221 233.265C236.376 233.411 236.454 233.594 236.454 233.818C236.454 234.042 236.376 234.231 236.221 234.385C236.065 234.54 235.879 234.618 235.666 234.618ZM242.048 234.632C241.259 234.632 240.554 234.423 239.929 234.007C239.316 233.591 238.834 232.994 238.483 232.218C238.144 231.432 237.972 230.511 237.972 229.454C237.972 228.398 238.144 227.482 238.483 226.705C238.834 225.92 239.316 225.318 239.929 224.902C240.554 224.485 241.259 224.276 242.048 224.276C242.837 224.276 243.538 224.485 244.151 224.902C244.776 225.318 245.262 225.92 245.612 226.705C245.963 227.482 246.138 228.398 246.138 229.454C246.138 230.511 245.963 231.432 245.612 232.218C245.262 232.994 244.776 233.591 244.151 234.007C243.538 234.423 242.837 234.632 242.048 234.632ZM242.048 233.672C242.643 233.672 243.164 233.507 243.611 233.178C244.069 232.849 244.425 232.369 244.677 231.738C244.931 231.107 245.057 230.347 245.057 229.454C245.057 228.562 244.931 227.802 244.677 227.171C244.425 226.54 244.069 226.06 243.611 225.731C243.164 225.402 242.643 225.236 242.048 225.236C241.454 225.236 240.928 225.402 240.47 225.731C240.023 226.06 239.672 226.54 239.418 227.171C239.166 227.802 239.038 228.562 239.038 229.454C239.038 230.347 239.166 231.107 239.418 231.738C239.672 232.369 240.023 232.849 240.47 233.178C240.928 233.507 241.454 233.672 242.048 233.672ZM251.721 234.632C250.932 234.632 250.227 234.423 249.602 234.007C248.989 233.591 248.507 232.994 248.156 232.218C247.816 231.432 247.645 230.511 247.645 229.454C247.645 228.398 247.816 227.482 248.156 226.705C248.507 225.92 248.989 225.318 249.602 224.902C250.227 224.485 250.932 224.276 251.721 224.276C252.509 224.276 253.211 224.485 253.824 224.902C254.449 225.318 254.934 225.92 255.285 226.705C255.636 227.482 255.811 228.398 255.811 229.454C255.811 230.511 255.636 231.432 255.285 232.218C254.934 232.994 254.449 233.591 253.824 234.007C253.211 234.423 252.509 234.632 251.721 234.632ZM251.721 233.672C252.316 233.672 252.836 233.507 253.284 233.178C253.742 232.849 254.098 232.369 254.35 231.738C254.604 231.107 254.73 230.347 254.73 229.454C254.73 228.562 254.604 227.802 254.35 227.171C254.098 226.54 253.742 226.06 253.284 225.731C252.836 225.402 252.316 225.236 251.721 225.236C251.127 225.236 250.601 225.402 250.143 225.731C249.695 226.06 249.345 226.54 249.091 227.171C248.839 227.802 248.711 228.562 248.711 229.454C248.711 230.347 248.839 231.107 249.091 231.738C249.345 232.369 249.695 232.849 250.143 233.178C250.601 233.507 251.127 233.672 251.721 233.672ZM268.46 231.825H262.763L261.536 234.545H260.411L265.086 224.363H266.152L270.827 234.545H269.687L268.46 231.825ZM268.066 230.952L265.612 225.483L263.157 230.952H268.066ZM283.138 224.363V234.545H282.101V226.4L278.084 233.251H277.572L273.555 226.443V234.545H272.518V224.363H273.409L277.85 231.912L282.247 224.363H283.138Z" fill="black"/>
<path d="M314.252 220.087C313.667 220.087 313.127 219.962 312.63 219.709C312.133 219.456 311.73 219.098 311.418 218.632L312.06 217.905C312.625 218.74 313.361 219.156 314.266 219.156C315.532 219.156 316.165 218.409 316.165 216.916V210.749H312.426V209.818H317.232V216.872C317.232 217.94 316.978 218.743 316.472 219.287C315.975 219.82 315.236 220.087 314.252 220.087ZM327.18 212.349V220H326.187V218.603C325.915 219.069 325.539 219.432 325.062 219.694C324.585 219.947 324.039 220.072 323.426 220.072C322.423 220.072 321.629 219.796 321.045 219.243C320.469 218.682 320.183 217.862 320.183 216.785V212.349H321.22V216.683C321.22 217.489 321.419 218.1 321.819 218.516C322.219 218.932 322.789 219.142 323.528 219.142C324.337 219.142 324.974 218.9 325.442 218.414C325.909 217.92 326.143 217.236 326.143 216.363V212.349H327.18ZM330.086 209.207H331.123V220H330.086V209.207ZM339.979 209.818V220H338.928V210.749H336.517V209.818H339.979ZM349.407 219.069V220H342.235V219.258L346.486 215.112C347.021 214.589 347.381 214.138 347.567 213.76C347.76 213.372 347.859 212.983 347.859 212.596C347.859 211.994 347.649 211.529 347.231 211.2C346.822 210.86 346.232 210.691 345.463 210.691C344.265 210.691 343.334 211.069 342.673 211.825L341.928 211.185C342.326 210.72 342.834 210.362 343.447 210.109C344.07 209.856 344.771 209.731 345.551 209.731C346.592 209.731 347.415 209.978 348.02 210.472C348.633 210.958 348.94 211.627 348.94 212.48C348.94 213.003 348.823 213.507 348.589 213.992C348.356 214.478 347.912 215.034 347.26 215.665L343.783 219.069H349.407ZM351.674 218.487C351.896 218.487 352.083 218.565 352.229 218.72C352.375 218.865 352.448 219.049 352.448 219.272C352.448 219.389 352.428 219.514 352.389 219.651C352.36 219.787 352.311 219.942 352.243 220.116L351.63 222.123H350.929L351.425 220.014C351.268 219.965 351.142 219.878 351.045 219.752C350.947 219.616 350.899 219.456 350.899 219.272C350.899 219.049 350.972 218.865 351.119 218.72C351.265 218.565 351.449 218.487 351.674 218.487ZM302.552 234.632C301.763 234.632 301.056 234.423 300.434 234.007C299.82 233.591 299.338 232.994 298.987 232.218C298.646 231.432 298.476 230.511 298.476 229.454C298.476 228.398 298.646 227.482 298.987 226.705C299.338 225.92 299.82 225.318 300.434 224.902C301.056 224.485 301.763 224.276 302.552 224.276C303.341 224.276 304.042 224.485 304.656 224.902C305.278 225.318 305.766 225.92 306.116 226.705C306.467 227.482 306.642 228.398 306.642 229.454C306.642 230.511 306.467 231.432 306.116 232.218C305.766 232.994 305.278 233.591 304.656 234.007C304.042 234.423 303.341 234.632 302.552 234.632ZM302.552 233.672C303.145 233.672 303.668 233.507 304.115 233.178C304.573 232.849 304.928 232.369 305.181 231.738C305.435 231.107 305.561 230.347 305.561 229.454C305.561 228.562 305.435 227.802 305.181 227.171C304.928 226.54 304.573 226.06 304.115 225.731C303.668 225.402 303.145 225.236 302.552 225.236C301.958 225.236 301.433 225.402 300.974 225.731C300.527 226.06 300.176 226.54 299.922 227.171C299.668 227.802 299.543 228.562 299.543 229.454C299.543 230.347 299.668 231.107 299.922 231.738C300.176 232.369 300.527 232.849 300.974 233.178C301.433 233.507 301.958 233.672 302.552 233.672ZM311.334 224.276C312.687 224.276 313.724 224.722 314.445 225.614C315.167 226.496 315.526 227.747 315.526 229.367C315.526 230.502 315.331 231.462 314.942 232.247C314.553 233.032 314.007 233.629 313.306 234.036C312.605 234.434 311.786 234.632 310.851 234.632C309.838 234.632 309.031 234.449 308.426 234.08L308.85 233.236C309.338 233.556 309.999 233.716 310.837 233.716C311.967 233.716 312.853 233.362 313.496 232.654C314.138 231.936 314.46 230.9 314.46 229.542C314.46 229.289 314.445 229.012 314.416 228.712C314.162 229.265 313.759 229.696 313.203 230.007C312.648 230.307 312.011 230.458 311.29 230.458C310.618 230.458 310.019 230.332 309.493 230.08C308.976 229.827 308.573 229.474 308.28 229.018C307.988 228.552 307.842 228.014 307.842 227.403C307.842 226.783 307.994 226.234 308.295 225.76C308.596 225.285 309.011 224.922 309.537 224.669C310.072 224.407 310.671 224.276 311.334 224.276ZM311.45 229.571C311.967 229.571 312.42 229.474 312.809 229.28C313.209 229.085 313.519 228.82 313.744 228.48C313.969 228.14 314.08 227.762 314.08 227.345C314.08 226.958 313.972 226.598 313.759 226.269C313.554 225.94 313.247 225.672 312.838 225.469C312.429 225.265 311.942 225.163 311.377 225.163C310.638 225.163 310.033 225.367 309.566 225.774C309.108 226.172 308.879 226.705 308.879 227.374C308.879 228.043 309.108 228.576 309.566 228.974C310.033 229.372 310.662 229.571 311.45 229.571ZM317.84 228.422C317.626 228.422 317.44 228.343 317.285 228.189C317.139 228.034 317.066 227.845 317.066 227.622C317.066 227.398 317.139 227.214 317.285 227.069C317.44 226.914 317.626 226.836 317.84 226.836C318.054 226.836 318.24 226.914 318.395 227.069C318.55 227.214 318.629 227.398 318.629 227.622C318.629 227.845 318.55 228.034 318.395 228.189C318.24 228.343 318.054 228.422 317.84 228.422ZM317.84 234.618C317.626 234.618 317.44 234.54 317.285 234.385C317.139 234.231 317.066 234.042 317.066 233.818C317.066 233.594 317.139 233.411 317.285 233.265C317.44 233.111 317.626 233.032 317.84 233.032C318.054 233.032 318.24 233.111 318.395 233.265C318.55 233.411 318.629 233.594 318.629 233.818C318.629 234.042 318.55 234.231 318.395 234.385C318.24 234.54 318.054 234.618 317.84 234.618ZM324.222 234.632C323.433 234.632 322.728 234.423 322.104 234.007C321.49 233.591 321.008 232.994 320.658 232.218C320.318 231.432 320.146 230.511 320.146 229.454C320.146 228.398 320.318 227.482 320.658 226.705C321.008 225.92 321.49 225.318 322.104 224.902C322.728 224.485 323.433 224.276 324.222 224.276C325.011 224.276 325.712 224.485 326.326 224.902C326.95 225.318 327.436 225.92 327.787 226.705C328.137 227.482 328.313 228.398 328.313 229.454C328.313 230.511 328.137 231.432 327.787 232.218C327.436 232.994 326.95 233.591 326.326 234.007C325.712 234.423 325.011 234.632 324.222 234.632ZM324.222 233.672C324.817 233.672 325.338 233.507 325.785 233.178C326.244 232.849 326.6 232.369 326.852 231.738C327.105 231.107 327.231 230.347 327.231 229.454C327.231 228.562 327.105 227.802 326.852 227.171C326.6 226.54 326.244 226.06 325.785 225.731C325.338 225.402 324.817 225.236 324.222 225.236C323.629 225.236 323.103 225.402 322.644 225.731C322.197 226.06 321.846 226.54 321.593 227.171C321.341 227.802 321.213 228.562 321.213 229.454C321.213 230.347 321.341 231.107 321.593 231.738C321.846 232.369 322.197 232.849 322.644 233.178C323.103 233.507 323.629 233.672 324.222 233.672ZM333.895 234.632C333.106 234.632 332.401 234.423 331.777 234.007C331.163 233.591 330.681 232.994 330.33 232.218C329.991 231.432 329.819 230.511 329.819 229.454C329.819 228.398 329.991 227.482 330.33 226.705C330.681 225.92 331.163 225.318 331.777 224.902C332.401 224.485 333.106 224.276 333.895 224.276C334.684 224.276 335.385 224.485 335.999 224.902C336.623 225.318 337.109 225.92 337.459 226.705C337.81 227.482 337.985 228.398 337.985 229.454C337.985 230.511 337.81 231.432 337.459 232.218C337.109 232.994 336.623 233.591 335.999 234.007C335.385 234.423 334.684 234.632 333.895 234.632ZM333.895 233.672C334.49 233.672 335.011 233.507 335.458 233.178C335.916 232.849 336.272 232.369 336.524 231.738C336.778 231.107 336.904 230.347 336.904 229.454C336.904 228.562 336.778 227.802 336.524 227.171C336.272 226.54 335.916 226.06 335.458 225.731C335.011 225.402 334.49 225.236 333.895 225.236C333.301 225.236 332.775 225.402 332.317 225.731C331.87 226.06 331.519 226.54 331.265 227.171C331.013 227.802 330.885 228.562 330.885 229.454C330.885 230.347 331.013 231.107 331.265 231.738C331.519 232.369 331.87 232.849 332.317 233.178C332.775 233.507 333.301 233.672 333.895 233.672ZM350.635 231.825H344.937L343.71 234.545H342.585L347.26 224.363H348.326L353.001 234.545H351.862L350.635 231.825ZM350.24 230.952L347.786 225.483L345.332 230.952H350.24ZM365.313 224.363V234.545H364.275V226.4L360.258 233.251H359.747L355.729 226.443V234.545H354.692V224.363H355.583L360.024 231.912L364.422 224.363H365.313Z" fill="black"/>
<path d="M142.357 220.087C141.773 220.087 141.232 219.962 140.735 219.709C140.239 219.456 139.835 219.098 139.523 218.632L140.166 217.905C140.73 218.74 141.466 219.156 142.371 219.156C143.638 219.156 144.271 218.409 144.271 216.916V210.749H140.531V209.818H145.337V216.872C145.337 217.94 145.084 218.743 144.577 219.287C144.081 219.82 143.341 220.087 142.357 220.087ZM155.285 212.349V220H154.292V218.603C154.019 219.069 153.644 219.432 153.167 219.694C152.69 219.947 152.144 220.072 151.531 220.072C150.528 220.072 149.734 219.796 149.15 219.243C148.575 218.682 148.288 217.862 148.288 216.785V212.349H149.325V216.683C149.325 217.489 149.525 218.1 149.924 218.516C150.323 218.932 150.893 219.142 151.633 219.142C152.441 219.142 153.079 218.9 153.547 218.414C154.014 217.92 154.248 217.236 154.248 216.363V212.349H155.285ZM158.19 209.207H159.227V220H158.19V209.207ZM168.084 209.818V220H167.032V210.749H164.622V209.818H168.084ZM173.363 209.818V220H172.311V210.749H169.901V209.818H173.363ZM176.611 218.487C176.835 218.487 177.02 218.565 177.166 218.72C177.312 218.865 177.385 219.049 177.385 219.272C177.385 219.389 177.366 219.514 177.327 219.651C177.297 219.787 177.249 219.942 177.181 220.116L176.567 222.123H175.866L176.362 220.014C176.207 219.965 176.08 219.878 175.983 219.752C175.885 219.616 175.837 219.456 175.837 219.272C175.837 219.049 175.91 218.865 176.056 218.72C176.202 218.565 176.387 218.487 176.611 218.487ZM129.138 234.632C128.349 234.632 127.643 234.423 127.02 234.007C126.406 233.591 125.924 232.994 125.573 232.218C125.232 231.432 125.062 230.511 125.062 229.454C125.062 228.398 125.232 227.482 125.573 226.705C125.924 225.92 126.406 225.318 127.02 224.902C127.643 224.485 128.349 224.276 129.138 224.276C129.927 224.276 130.628 224.485 131.241 224.902C131.865 225.318 132.352 225.92 132.702 226.705C133.053 227.482 133.228 228.398 133.228 229.454C133.228 230.511 133.053 231.432 132.702 232.218C132.352 232.994 131.865 233.591 131.241 234.007C130.628 234.423 129.927 234.632 129.138 234.632ZM129.138 233.672C129.732 233.672 130.253 233.507 130.701 233.178C131.159 232.849 131.514 232.369 131.767 231.738C132.021 231.107 132.147 230.347 132.147 229.454C132.147 228.562 132.021 227.802 131.767 227.171C131.514 226.54 131.159 226.06 130.701 225.731C130.253 225.402 129.732 225.236 129.138 225.236C128.544 225.236 128.018 225.402 127.56 225.731C127.112 226.06 126.762 226.54 126.508 227.171C126.255 227.802 126.128 228.562 126.128 229.454C126.128 230.347 126.255 231.107 126.508 231.738C126.762 232.369 127.112 232.849 127.56 233.178C128.018 233.507 128.544 233.672 129.138 233.672ZM137.919 224.276C139.273 224.276 140.31 224.722 141.031 225.614C141.752 226.496 142.112 227.747 142.112 229.367C142.112 230.502 141.917 231.462 141.528 232.247C141.138 233.032 140.593 233.629 139.891 234.036C139.19 234.434 138.372 234.632 137.437 234.632C136.424 234.632 135.616 234.449 135.012 234.08L135.436 233.236C135.923 233.556 136.585 233.716 137.423 233.716C138.552 233.716 139.439 233.362 140.081 232.654C140.724 231.936 141.046 230.9 141.046 229.542C141.046 229.289 141.031 229.012 141.002 228.712C140.748 229.265 140.344 229.696 139.789 230.007C139.234 230.307 138.596 230.458 137.875 230.458C137.203 230.458 136.605 230.332 136.079 230.08C135.562 229.827 135.158 229.474 134.866 229.018C134.574 228.552 134.428 228.014 134.428 227.403C134.428 226.783 134.579 226.234 134.881 225.76C135.183 225.285 135.597 224.922 136.122 224.669C136.658 224.407 137.257 224.276 137.919 224.276ZM138.036 229.571C138.552 229.571 139.005 229.474 139.395 229.28C139.794 229.085 140.106 228.82 140.33 228.48C140.554 228.14 140.666 227.762 140.666 227.345C140.666 226.958 140.559 226.598 140.344 226.269C140.14 225.94 139.833 225.672 139.424 225.469C139.015 225.265 138.528 225.163 137.963 225.163C137.223 225.163 136.619 225.367 136.152 225.774C135.694 226.172 135.465 226.705 135.465 227.374C135.465 228.043 135.694 228.576 136.152 228.974C136.619 229.372 137.247 229.571 138.036 229.571ZM144.426 228.422C144.211 228.422 144.026 228.343 143.871 228.189C143.724 228.034 143.651 227.845 143.651 227.622C143.651 227.398 143.724 227.214 143.871 227.069C144.026 226.914 144.211 226.836 144.426 226.836C144.64 226.836 144.825 226.914 144.981 227.069C145.137 227.214 145.215 227.398 145.215 227.622C145.215 227.845 145.137 228.034 144.981 228.189C144.825 228.343 144.64 228.422 144.426 228.422ZM144.426 234.618C144.211 234.618 144.026 234.54 143.871 234.385C143.724 234.231 143.651 234.042 143.651 233.818C143.651 233.594 143.724 233.411 143.871 233.265C144.026 233.111 144.211 233.032 144.426 233.032C144.64 233.032 144.825 233.111 144.981 233.265C145.137 233.411 145.215 233.594 145.215 233.818C145.215 234.042 145.137 234.231 144.981 234.385C144.825 234.54 144.64 234.618 144.426 234.618ZM150.808 234.632C150.02 234.632 149.313 234.423 148.69 234.007C148.077 233.591 147.594 232.994 147.244 232.218C146.903 231.432 146.733 230.511 146.733 229.454C146.733 228.398 146.903 227.482 147.244 226.705C147.594 225.92 148.077 225.318 148.69 224.902C149.313 224.485 150.02 224.276 150.808 224.276C151.597 224.276 152.298 224.485 152.912 224.902C153.535 225.318 154.022 225.92 154.373 226.705C154.724 227.482 154.899 228.398 154.899 229.454C154.899 230.511 154.724 231.432 154.373 232.218C154.022 232.994 153.535 233.591 152.912 234.007C152.298 234.423 151.597 234.632 150.808 234.632ZM150.808 233.672C151.402 233.672 151.924 233.507 152.372 233.178C152.829 232.849 153.185 232.369 153.438 231.738C153.691 231.107 153.818 230.347 153.818 229.454C153.818 228.562 153.691 227.802 153.438 227.171C153.185 226.54 152.829 226.06 152.372 225.731C151.924 225.402 151.402 225.236 150.808 225.236C150.214 225.236 149.688 225.402 149.231 225.731C148.783 226.06 148.432 226.54 148.179 227.171C147.926 227.802 147.799 228.562 147.799 229.454C147.799 230.347 147.926 231.107 148.179 231.738C148.432 232.369 148.783 232.849 149.231 233.178C149.688 233.507 150.214 233.672 150.808 233.672ZM160.481 234.632C159.692 234.632 158.986 234.423 158.363 234.007C157.749 233.591 157.267 232.994 156.916 232.218C156.576 231.432 156.405 230.511 156.405 229.454C156.405 228.398 156.576 227.482 156.916 226.705C157.267 225.92 157.749 225.318 158.363 224.902C158.986 224.485 159.692 224.276 160.481 224.276C161.27 224.276 161.971 224.485 162.585 224.902C163.208 225.318 163.695 225.92 164.045 226.705C164.396 227.482 164.571 228.398 164.571 229.454C164.571 230.511 164.396 231.432 164.045 232.218C163.695 232.994 163.208 233.591 162.585 234.007C161.971 234.423 161.27 234.632 160.481 234.632ZM160.481 233.672C161.075 233.672 161.596 233.507 162.044 233.178C162.502 232.849 162.857 232.369 163.111 231.738C163.364 231.107 163.49 230.347 163.49 229.454C163.49 228.562 163.364 227.802 163.111 227.171C162.857 226.54 162.502 226.06 162.044 225.731C161.596 225.402 161.075 225.236 160.481 225.236C159.887 225.236 159.361 225.402 158.903 225.731C158.455 226.06 158.105 226.54 157.851 227.171C157.598 227.802 157.472 228.562 157.472 229.454C157.472 230.347 157.598 231.107 157.851 231.738C158.105 232.369 158.455 232.849 158.903 233.178C159.361 233.507 159.887 233.672 160.481 233.672ZM174.634 224.363C175.939 224.363 176.962 224.674 177.702 225.294C178.442 225.914 178.812 226.769 178.812 227.854C178.812 228.94 178.442 229.794 177.702 230.414C176.962 231.025 175.939 231.331 174.634 231.331H171.888V234.545H170.807V224.363H174.634ZM174.605 230.385C175.618 230.385 176.392 230.167 176.928 229.731C177.463 229.285 177.731 228.66 177.731 227.854C177.731 227.031 177.463 226.4 176.928 225.963C176.392 225.518 175.618 225.294 174.605 225.294H171.888V230.385H174.605ZM191.77 224.363V234.545H190.733V226.4L186.716 233.251H186.204L182.187 226.443V234.545H181.15V224.363H182.041L186.482 231.912L190.879 224.363H191.77Z" fill="black"/>
<g filter="url(#filter702436)">
<path d="M242.87 205.455H180.783C178.766 205.455 177.13 207.083 177.13 209.091V236.364C177.13 238.372 178.766 240 180.783 240H242.87C244.887 240 246.522 238.372 246.522 236.364V209.091C246.522 207.083 244.887 205.455 242.87 205.455Z" fill="white"/>
</g>
<path d="M58.3568 220.087C57.7724 220.087 57.2319 219.962 56.7352 219.709C56.2385 219.456 55.8344 219.098 55.5227 218.632L56.1654 217.905C56.7303 218.74 57.4656 219.156 58.3714 219.156C59.6374 219.156 60.2705 218.409 60.2705 216.916V210.749H56.5307V209.818H61.3369V216.872C61.3369 217.94 61.0836 218.743 60.5773 219.287C60.0806 219.82 59.3405 220.087 58.3568 220.087ZM71.2851 212.349V220H70.2917V218.603C70.0191 219.069 69.6442 219.432 69.1668 219.694C68.6897 219.947 68.1442 220.072 67.5306 220.072C66.5276 220.072 65.7338 219.796 65.1494 219.243C64.5749 218.682 64.2875 217.862 64.2875 216.785V212.349H65.3247V216.683C65.3247 217.489 65.5245 218.1 65.9237 218.516C66.3231 218.932 66.8928 219.142 67.6329 219.142C68.4413 219.142 69.0792 218.9 69.5466 218.414C70.0141 217.92 70.2479 217.236 70.2479 216.363V212.349H71.2851ZM74.19 209.207H75.2272V220H74.19V209.207ZM84.0841 209.818V220H83.0323V210.749H80.6219V209.818H84.0841ZM89.3628 209.818V220H88.311V210.749H85.9005V209.818H89.3628ZM92.6107 218.487C92.8346 218.487 93.0197 218.565 93.1658 218.72C93.3119 218.865 93.3849 219.049 93.3849 219.272C93.3849 219.389 93.3654 219.514 93.3265 219.651C93.2973 219.787 93.2485 219.942 93.1804 220.116L92.5668 222.123H91.8656L92.3623 220.014C92.2064 219.965 92.0798 219.878 91.9825 219.752C91.885 219.616 91.8364 219.456 91.8364 219.272C91.8364 219.049 91.9095 218.865 92.0555 218.72C92.2016 218.565 92.3866 218.487 92.6107 218.487ZM45.5373 234.632C44.7484 234.632 44.0422 234.423 43.419 234.007C42.8054 233.591 42.3233 232.994 41.9727 232.218C41.6318 231.432 41.4614 230.511 41.4614 229.454C41.4614 228.398 41.6318 227.482 41.9727 226.705C42.3233 225.92 42.8054 225.318 43.419 224.902C44.0422 224.485 44.7484 224.276 45.5373 224.276C46.3261 224.276 47.0273 224.485 47.6409 224.902C48.2641 225.318 48.7512 225.92 49.1018 226.705C49.4524 227.482 49.6277 228.398 49.6277 229.454C49.6277 230.511 49.4524 231.432 49.1018 232.218C48.7512 232.994 48.2641 233.591 47.6409 234.007C47.0273 234.423 46.3261 234.632 45.5373 234.632ZM45.5373 233.672C46.1313 233.672 46.6523 233.507 47.1004 233.178C47.558 232.849 47.9135 232.369 48.1668 231.738C48.4199 231.107 48.5466 230.347 48.5466 229.454C48.5466 228.562 48.4199 227.802 48.1668 227.171C47.9135 226.54 47.558 226.06 47.1004 225.731C46.6523 225.402 46.1313 225.236 45.5373 225.236C44.943 225.236 44.4171 225.402 43.9595 225.731C43.5114 226.06 43.1608 226.54 42.9077 227.171C42.6544 227.802 42.5279 228.562 42.5279 229.454C42.5279 230.347 42.6544 231.107 42.9077 231.738C43.1608 232.369 43.5114 232.849 43.9595 233.178C44.4171 233.507 44.943 233.672 45.5373 233.672ZM54.4681 228.727C55.5395 228.785 56.3526 229.076 56.9077 229.6C57.4726 230.114 57.7551 230.787 57.7551 231.622C57.7551 232.203 57.6139 232.722 57.3314 233.178C57.0489 233.623 56.6302 233.978 56.0751 234.24C55.5199 234.502 54.843 234.632 54.0444 234.632C53.3043 234.632 52.6031 234.516 51.9408 234.283C51.2883 234.042 50.7624 233.722 50.3631 233.323L50.8744 232.494C51.2153 232.843 51.6682 233.129 52.233 233.352C52.7978 233.565 53.4017 233.672 54.0444 233.672C54.8821 233.672 55.5296 233.492 55.9874 233.134C56.4452 232.765 56.674 232.262 56.674 231.622C56.674 230.991 56.4452 230.496 55.9874 230.138C55.5296 229.78 54.8382 229.6 53.913 229.6H53.1825V228.829L56.0166 225.294H50.7867V224.363H57.3606V225.105L54.4681 228.727ZM60.026 228.422C59.8118 228.422 59.6268 228.343 59.4708 228.189C59.3248 228.034 59.2517 227.845 59.2517 227.622C59.2517 227.398 59.3248 227.214 59.4708 227.069C59.6268 226.914 59.8118 226.836 60.026 226.836C60.2404 226.836 60.4253 226.914 60.5811 227.069C60.7371 227.214 60.8148 227.398 60.8148 227.622C60.8148 227.845 60.7371 228.034 60.5811 228.189C60.4253 228.343 60.2404 228.422 60.026 228.422ZM60.026 234.618C59.8118 234.618 59.6268 234.54 59.4708 234.385C59.3248 234.231 59.2517 234.042 59.2517 233.818C59.2517 233.594 59.3248 233.411 59.4708 233.265C59.6268 233.111 59.8118 233.032 60.026 233.032C60.2404 233.032 60.4253 233.111 60.5811 233.265C60.7371 233.411 60.8148 233.594 60.8148 233.818C60.8148 234.042 60.7371 234.231 60.5811 234.385C60.4253 234.54 60.2404 234.618 60.026 234.618ZM66.4089 234.632C65.62 234.632 64.9139 234.423 64.2906 234.007C63.6771 233.591 63.195 232.994 62.8444 232.218C62.5034 231.432 62.3331 230.511 62.3331 229.454C62.3331 228.398 62.5034 227.482 62.8444 226.705C63.195 225.92 63.6771 225.318 64.2906 224.902C64.9139 224.485 65.62 224.276 66.4089 224.276C67.1977 224.276 67.899 224.485 68.5125 224.902C69.1358 225.318 69.6228 225.92 69.9734 226.705C70.324 227.482 70.4993 228.398 70.4993 229.454C70.4993 230.511 70.324 231.432 69.9734 232.218C69.6228 232.994 69.1358 233.591 68.5125 234.007C67.899 234.423 67.1977 234.632 66.4089 234.632ZM66.4089 233.672C67.0029 233.672 67.5239 233.507 67.972 233.178C68.4296 232.849 68.7852 232.369 69.0384 231.738C69.2915 231.107 69.4183 230.347 69.4183 229.454C69.4183 228.562 69.2915 227.802 69.0384 227.171C68.7852 226.54 68.4296 226.06 67.972 225.731C67.5239 225.402 67.0029 225.236 66.4089 225.236C65.8147 225.236 65.2888 225.402 64.8311 225.731C64.383 226.06 64.0324 226.54 63.7793 227.171C63.526 227.802 63.3995 228.562 63.3995 229.454C63.3995 230.347 63.526 231.107 63.7793 231.738C64.0324 232.369 64.383 232.849 64.8311 233.178C65.2888 233.507 65.8147 233.672 66.4089 233.672ZM76.0813 234.632C75.2924 234.632 74.5865 234.423 73.963 234.007C73.3495 233.591 72.8674 232.994 72.5168 232.218C72.176 231.432 72.0055 230.511 72.0055 229.454C72.0055 228.398 72.176 227.482 72.5168 226.705C72.8674 225.92 73.3495 225.318 73.963 224.902C74.5865 224.485 75.2924 224.276 76.0813 224.276C76.8702 224.276 77.5714 224.485 78.185 224.902C78.8084 225.318 79.2952 225.92 79.6458 226.705C79.9964 227.482 80.1717 228.398 80.1717 229.454C80.1717 230.511 79.9964 231.432 79.6458 232.218C79.2952 232.994 78.8084 233.591 78.185 234.007C77.5714 234.423 76.8702 234.632 76.0813 234.632ZM76.0813 233.672C76.6755 233.672 77.1965 233.507 77.6444 233.178C78.1022 232.849 78.4578 232.369 78.7109 231.738C78.9641 231.107 79.0907 230.347 79.0907 229.454C79.0907 228.562 78.9641 227.802 78.7109 227.171C78.4578 226.54 78.1022 226.06 77.6444 225.731C77.1965 225.402 76.6755 225.236 76.0813 225.236C75.4873 225.236 74.9614 225.402 74.5036 225.731C74.0556 226.06 73.705 226.54 73.4517 227.171C73.1986 227.802 73.0719 228.562 73.0719 229.454C73.0719 230.347 73.1986 231.107 73.4517 231.738C73.705 232.369 74.0556 232.849 74.5036 233.178C74.9614 233.507 75.4873 233.672 76.0813 233.672ZM90.2347 224.363C91.5397 224.363 92.5623 224.674 93.3026 225.294C94.0427 225.914 94.4128 226.769 94.4128 227.854C94.4128 228.94 94.0427 229.794 93.3026 230.414C92.5623 231.025 91.5397 231.331 90.2347 231.331H87.4883V234.545H86.4073V224.363H90.2347ZM90.2055 230.385C91.2183 230.385 91.9925 230.167 92.5283 229.731C93.0639 229.285 93.3316 228.66 93.3316 227.854C93.3316 227.031 93.0639 226.4 92.5283 225.963C91.9925 225.518 91.2183 225.294 90.2055 225.294H87.4883V230.385H90.2055ZM107.371 224.363V234.545H106.334V226.4L102.316 233.251H101.805L97.7874 226.443V234.545H96.7502V224.363H97.6414L102.082 231.912L106.48 224.363H107.371Z" fill="black"/>
<path d="M194.643 220.087C194.058 220.087 193.518 219.962 193.021 219.709C192.524 219.456 192.121 219.098 191.809 218.632L192.451 217.905C193.016 218.74 193.752 219.156 194.657 219.156C195.923 219.156 196.556 218.409 196.556 216.916V210.749H192.817V209.818H197.623V216.872C197.623 217.94 197.369 218.743 196.863 219.287C196.367 219.82 195.627 220.087 194.643 220.087ZM207.571 212.349V220H206.578V218.603C206.306 219.069 205.93 219.432 205.453 219.694C204.977 219.947 204.431 220.072 203.817 220.072C202.814 220.072 202.02 219.796 201.436 219.243C200.861 218.682 200.574 217.862 200.574 216.785V212.349H201.611V216.683C201.611 217.489 201.81 218.1 202.21 218.516C202.61 218.932 203.18 219.142 203.919 219.142C204.728 219.142 205.365 218.9 205.833 218.414C206.3 217.92 206.534 217.236 206.534 216.363V212.349H207.571ZM210.477 209.207H211.514V220H210.477V209.207ZM220.37 209.818V220H219.319V210.749H216.908V209.818H220.37ZM229.799 219.069V220H222.626V219.258L226.877 215.112C227.412 214.589 227.772 214.138 227.958 213.76C228.151 213.372 228.25 212.983 228.25 212.596C228.25 211.994 228.04 211.529 227.622 211.2C227.213 210.86 226.623 210.691 225.854 210.691C224.656 210.691 223.725 211.069 223.064 211.825L222.319 211.185C222.717 210.72 223.225 210.362 223.838 210.109C224.461 209.856 225.162 209.731 225.942 209.731C226.983 209.731 227.806 209.978 228.411 210.472C229.024 210.958 229.331 211.627 229.331 212.48C229.331 213.003 229.214 213.507 228.98 213.992C228.747 214.478 228.303 215.034 227.651 215.665L224.174 219.069H229.799ZM232.065 218.487C232.287 218.487 232.474 218.565 232.62 218.72C232.766 218.865 232.839 219.049 232.839 219.272C232.839 219.389 232.819 219.514 232.781 219.651C232.751 219.787 232.702 219.942 232.634 220.116L232.021 222.123H231.32L231.816 220.014C231.659 219.965 231.533 219.878 231.437 219.752C231.338 219.616 231.29 219.456 231.29 219.272C231.29 219.049 231.363 218.865 231.51 218.72C231.656 218.565 231.84 218.487 232.065 218.487ZM187.108 224.363V234.545H186.056V225.294H183.646V224.363H187.108ZM196.536 233.614V234.545H189.363V233.803L193.615 229.658C194.15 229.134 194.509 228.683 194.696 228.305C194.889 227.918 194.988 227.529 194.988 227.142C194.988 226.54 194.778 226.074 194.36 225.745C193.951 225.405 193.361 225.236 192.592 225.236C191.394 225.236 190.463 225.614 189.802 226.371L189.057 225.731C189.455 225.265 189.962 224.907 190.576 224.654C191.199 224.402 191.9 224.276 192.68 224.276C193.721 224.276 194.544 224.523 195.149 225.018C195.762 225.503 196.069 226.172 196.069 227.025C196.069 227.549 195.952 228.052 195.718 228.538C195.485 229.023 195.041 229.58 194.389 230.211L190.912 233.614H196.536ZM198.645 228.422C198.43 228.422 198.246 228.343 198.09 228.189C197.944 228.034 197.871 227.845 197.871 227.622C197.871 227.398 197.944 227.214 198.09 227.069C198.246 226.914 198.43 226.836 198.645 226.836C198.859 226.836 199.044 226.914 199.201 227.069C199.356 227.214 199.434 227.398 199.434 227.622C199.434 227.845 199.356 228.034 199.201 228.189C199.044 228.343 198.859 228.422 198.645 228.422ZM198.645 234.618C198.43 234.618 198.246 234.54 198.09 234.385C197.944 234.231 197.871 234.042 197.871 233.818C197.871 233.594 197.944 233.411 198.09 233.265C198.246 233.111 198.43 233.032 198.645 233.032C198.859 233.032 199.044 233.111 199.201 233.265C199.356 233.411 199.434 233.594 199.434 233.818C199.434 234.042 199.356 234.231 199.201 234.385C199.044 234.54 198.859 234.618 198.645 234.618ZM203.786 224.363V234.545H202.734V225.294H200.324V224.363H203.786ZM209.708 228.727C210.778 228.785 211.592 229.076 212.148 229.6C212.712 230.114 212.995 230.787 212.995 231.622C212.995 232.203 212.852 232.722 212.571 233.178C212.288 233.623 211.87 233.978 211.315 234.24C210.76 234.502 210.082 234.632 209.284 234.632C208.543 234.632 207.842 234.516 207.181 234.283C206.527 234.042 206.001 233.722 205.603 233.323L206.114 232.494C206.454 232.843 206.907 233.129 207.473 233.352C208.037 233.565 208.641 233.672 209.284 233.672C210.121 233.672 210.769 233.492 211.227 233.134C211.684 232.765 211.914 232.262 211.914 231.622C211.914 230.991 211.684 230.496 211.227 230.138C210.769 229.78 210.077 229.6 209.153 229.6H208.422V228.829L211.256 225.294H206.027V224.363H212.6V225.105L209.708 228.727ZM225.619 231.825H219.921L218.694 234.545H217.569L222.244 224.363H223.31L227.985 234.545H226.846L225.619 231.825ZM225.224 230.952L222.77 225.483L220.316 230.952H225.224ZM240.297 224.363V234.545H239.259V226.4L235.242 233.251H234.731L230.713 226.443V234.545H229.676V224.363H230.567L235.008 231.912L239.406 224.363H240.297Z" fill="black"/>
<path d="M12.7827 197.273H343.304" stroke="#EEEEEE"/>
<path d="M12.7827 142.727H343.304" stroke="#EEEEEE" stroke-dasharray="2.2 2.2"/>
<path d="M12.7827 160.909H343.304" stroke="#EEEEEE" stroke-dasharray="2.2 2.2"/>
<path d="M12.7827 88.1816H343.304" stroke="#EEEEEE" stroke-dasharray="2.2 2.2"/>
<path d="M12.7827 179.091H343.304" stroke="#EEEEEE" stroke-dasharray="2.2 2.2"/>
<path d="M12.7827 106.364H343.304" stroke="#EEEEEE" stroke-dasharray="2.2 2.2"/>
<path d="M12.7827 124.545H343.304" stroke="#EEEEEE" stroke-dasharray="2.2 2.2"/>
<path d="M210.913 201.818V81.8184" stroke="#C2FFD3"/>
<path d="M58.4346 142.727L71.2172 109.091L82.1737 94.5454L93.1302 120L105.913 134.545L117.782 125.455L128.739 136.364L140.608 130L152.478 132.727L165.261 113.636L177.13 136.364L189 139.091L199.956 136.364L210.913 147.273H224.608L236.478 128.182L241.043 132.727L246.522 142.727L261.13 149.091L269.348 139.091L281.217 134.545L294.913 132.727L306.782 142.727L317.739 113.636L330.522 110.909L342.391 122.727" stroke="#FFDCF9"/>
<defs>
<filter id="filter702436" x="177.13" y="205.455" width="69.3911" height="37.5454" filterUnits="userSpaceOnUse" color-interpolation-filters="sRGB">
<feFlood flood-opacity="0" result="BackgroundImageFix"/>
<feBlend mode="normal" in="SourceGraphic" in2="BackgroundImageFix" result="shape"/>
<feColorMatrix in="SourceAlpha" type="matrix" values="0 0 0 0 0 0 0 0 0 0 0 0 0 0 0 0 0 0 127 0" result="hardAlpha"/>
<feOffset dy="3"/>
<feGaussianBlur stdDeviation="15"/>
<feComposite in2="hardAlpha" operator="arithmetic" k2="-1" k3="1"/>
<feColorMatrix type="matrix" values="0 0 0 0 0 0 0 0 0 0.111667 0 0 0 0 0.279167 0 0 0 0.1 0"/>
<feBlend mode="normal" in2="shape" result="effect1_innerShadow_702:436"/>
</filter>
</defs>
</svg>
