<svg width="785" height="324" viewBox="0 0 785 324" fill="none" xmlns="http://www.w3.org/2000/svg">
<rect width="785" height="324" rx="10" fill="white" fill-opacity="0.6"/>
<rect x="0.5" y="0.5" width="784" height="323" rx="9.5" stroke="white"/>
<circle cx="29" cy="278" r="5" fill="#FFCDCD"/>
<path d="M42.133 273.58H42.783L39.483 283H38.833L42.133 273.58ZM44.889 282.05C44.3824 282.05 43.9257 281.937 43.519 281.71C43.1124 281.477 42.7924 281.157 42.559 280.75C42.3257 280.343 42.209 279.883 42.209 279.37C42.209 278.857 42.3257 278.397 42.559 277.99C42.7924 277.583 43.1124 277.267 43.519 277.04C43.9257 276.813 44.3824 276.7 44.889 276.7C45.3957 276.7 45.8524 276.813 46.259 277.04C46.6657 277.267 46.9824 277.583 47.209 277.99C47.4424 278.397 47.559 278.857 47.559 279.37C47.559 279.883 47.4424 280.343 47.209 280.75C46.9824 281.157 46.6657 281.477 46.259 281.71C45.8524 281.937 45.3957 282.05 44.889 282.05ZM44.889 281.42C45.2624 281.42 45.5957 281.337 45.889 281.17C46.189 280.997 46.4224 280.753 46.589 280.44C46.7557 280.127 46.839 279.77 46.839 279.37C46.839 278.97 46.7557 278.613 46.589 278.3C46.4224 277.987 46.189 277.747 45.889 277.58C45.5957 277.407 45.2624 277.32 44.889 277.32C44.5157 277.32 44.179 277.407 43.879 277.58C43.5857 277.747 43.3524 277.987 43.179 278.3C43.0124 278.613 42.929 278.97 42.929 279.37C42.929 279.77 43.0124 280.127 43.179 280.44C43.3524 280.753 43.5857 280.997 43.879 281.17C44.179 281.337 44.5157 281.42 44.889 281.42ZM51.7786 281.68C51.6452 281.8 51.4786 281.893 51.2786 281.96C51.0852 282.02 50.8819 282.05 50.6686 282.05C50.1752 282.05 49.7952 281.917 49.5286 281.65C49.2619 281.383 49.1286 281.007 49.1286 280.52V277.34H48.1886V276.74H49.1286V275.59H49.8386V276.74H51.4386V277.34H49.8386V280.48C49.8386 280.793 49.9152 281.033 50.0686 281.2C50.2286 281.36 50.4552 281.44 50.7486 281.44C50.8952 281.44 51.0352 281.417 51.1686 281.37C51.3086 281.323 51.4286 281.257 51.5286 281.17L51.7786 281.68ZM55.7511 276.7C56.4111 276.7 56.9344 276.893 57.3211 277.28C57.7144 277.66 57.9111 278.217 57.9111 278.95V282H57.2011V279.02C57.2011 278.473 57.0644 278.057 56.7911 277.77C56.5177 277.483 56.1277 277.34 55.6211 277.34C55.0544 277.34 54.6044 277.51 54.2711 277.85C53.9444 278.183 53.7811 278.647 53.7811 279.24V282H53.0711V274.58H53.7811V277.66C53.9744 277.353 54.2411 277.117 54.5811 276.95C54.9211 276.783 55.3111 276.7 55.7511 276.7ZM64.4382 279.59H60.0382C60.0782 280.137 60.2882 280.58 60.6682 280.92C61.0482 281.253 61.5282 281.42 62.1082 281.42C62.4348 281.42 62.7348 281.363 63.0082 281.25C63.2815 281.13 63.5182 280.957 63.7182 280.73L64.1182 281.19C63.8848 281.47 63.5915 281.683 63.2382 281.83C62.8915 281.977 62.5082 282.05 62.0882 282.05C61.5482 282.05 61.0682 281.937 60.6482 281.71C60.2348 281.477 59.9115 281.157 59.6782 280.75C59.4448 280.343 59.3282 279.883 59.3282 279.37C59.3282 278.857 59.4382 278.397 59.6582 277.99C59.8848 277.583 60.1915 277.267 60.5782 277.04C60.9715 276.813 61.4115 276.7 61.8982 276.7C62.3848 276.7 62.8215 276.813 63.2082 277.04C63.5948 277.267 63.8982 277.583 64.1182 277.99C64.3382 278.39 64.4482 278.85 64.4482 279.37L64.4382 279.59ZM61.8982 277.31C61.3915 277.31 60.9648 277.473 60.6182 277.8C60.2782 278.12 60.0848 278.54 60.0382 279.06H63.7682C63.7215 278.54 63.5248 278.12 63.1782 277.8C62.8382 277.473 62.4115 277.31 61.8982 277.31ZM66.5733 277.77C66.74 277.417 66.9867 277.15 67.3133 276.97C67.6467 276.79 68.0567 276.7 68.5433 276.7V277.39L68.3733 277.38C67.82 277.38 67.3867 277.55 67.0733 277.89C66.76 278.23 66.6033 278.707 66.6033 279.32V282H65.8933V276.74H66.5733V277.77Z" fill="black"/>
<circle cx="90" cy="278" r="5" fill="#C4C4C4"/>
<path d="M105.92 282L104.32 279.75C104.14 279.77 103.953 279.78 103.76 279.78H101.88V282H101.14V275H103.76C104.653 275 105.353 275.213 105.86 275.64C106.367 276.067 106.62 276.653 106.62 277.4C106.62 277.947 106.48 278.41 106.2 278.79C105.927 279.163 105.533 279.433 105.02 279.6L106.73 282H105.92ZM103.74 279.15C104.433 279.15 104.963 278.997 105.33 278.69C105.697 278.383 105.88 277.953 105.88 277.4C105.88 276.833 105.697 276.4 105.33 276.1C104.963 275.793 104.433 275.64 103.74 275.64H101.88V279.15H103.74ZM112.797 279.59H108.397C108.437 280.137 108.647 280.58 109.027 280.92C109.407 281.253 109.887 281.42 110.467 281.42C110.793 281.42 111.093 281.363 111.367 281.25C111.64 281.13 111.877 280.957 112.077 280.73L112.477 281.19C112.243 281.47 111.95 281.683 111.597 281.83C111.25 281.977 110.867 282.05 110.447 282.05C109.907 282.05 109.427 281.937 109.007 281.71C108.593 281.477 108.27 281.157 108.037 280.75C107.803 280.343 107.687 279.883 107.687 279.37C107.687 278.857 107.797 278.397 108.017 277.99C108.243 277.583 108.55 277.267 108.937 277.04C109.33 276.813 109.77 276.7 110.257 276.7C110.743 276.7 111.18 276.813 111.567 277.04C111.953 277.267 112.257 277.583 112.477 277.99C112.697 278.39 112.807 278.85 112.807 279.37L112.797 279.59ZM110.257 277.31C109.75 277.31 109.323 277.473 108.977 277.8C108.637 278.12 108.443 278.54 108.397 279.06H112.127C112.08 278.54 111.883 278.12 111.537 277.8C111.197 277.473 110.77 277.31 110.257 277.31ZM115.662 282.05C115.235 282.05 114.825 281.99 114.432 281.87C114.045 281.743 113.742 281.587 113.522 281.4L113.842 280.84C114.062 281.013 114.338 281.157 114.672 281.27C115.005 281.377 115.352 281.43 115.712 281.43C116.192 281.43 116.545 281.357 116.772 281.21C117.005 281.057 117.122 280.843 117.122 280.57C117.122 280.377 117.058 280.227 116.932 280.12C116.805 280.007 116.645 279.923 116.452 279.87C116.258 279.81 116.002 279.753 115.682 279.7C115.255 279.62 114.912 279.54 114.652 279.46C114.392 279.373 114.168 279.23 113.982 279.03C113.802 278.83 113.712 278.553 113.712 278.2C113.712 277.76 113.895 277.4 114.262 277.12C114.628 276.84 115.138 276.7 115.792 276.7C116.132 276.7 116.472 276.747 116.812 276.84C117.152 276.927 117.432 277.043 117.652 277.19L117.342 277.76C116.908 277.46 116.392 277.31 115.792 277.31C115.338 277.31 114.995 277.39 114.762 277.55C114.535 277.71 114.422 277.92 114.422 278.18C114.422 278.38 114.485 278.54 114.612 278.66C114.745 278.78 114.908 278.87 115.102 278.93C115.295 278.983 115.562 279.04 115.902 279.1C116.322 279.18 116.658 279.26 116.912 279.34C117.165 279.42 117.382 279.557 117.562 279.75C117.742 279.943 117.832 280.21 117.832 280.55C117.832 281.01 117.638 281.377 117.252 281.65C116.872 281.917 116.342 282.05 115.662 282.05ZM121.854 276.7C122.348 276.7 122.794 276.813 123.194 277.04C123.594 277.26 123.908 277.573 124.134 277.98C124.361 278.387 124.474 278.85 124.474 279.37C124.474 279.897 124.361 280.363 124.134 280.77C123.908 281.177 123.594 281.493 123.194 281.72C122.801 281.94 122.354 282.05 121.854 282.05C121.428 282.05 121.041 281.963 120.694 281.79C120.354 281.61 120.074 281.35 119.854 281.01V283.94H119.144V276.74H119.824V277.78C120.038 277.433 120.318 277.167 120.664 276.98C121.018 276.793 121.414 276.7 121.854 276.7ZM121.804 281.42C122.171 281.42 122.504 281.337 122.804 281.17C123.104 280.997 123.338 280.753 123.504 280.44C123.678 280.127 123.764 279.77 123.764 279.37C123.764 278.97 123.678 278.617 123.504 278.31C123.338 277.997 123.104 277.753 122.804 277.58C122.504 277.407 122.171 277.32 121.804 277.32C121.431 277.32 121.094 277.407 120.794 277.58C120.501 277.753 120.268 277.997 120.094 278.31C119.928 278.617 119.844 278.97 119.844 279.37C119.844 279.77 119.928 280.127 120.094 280.44C120.268 280.753 120.501 280.997 120.794 281.17C121.094 281.337 121.431 281.42 121.804 281.42ZM128.072 282.05C127.565 282.05 127.108 281.937 126.702 281.71C126.295 281.477 125.975 281.157 125.742 280.75C125.508 280.343 125.392 279.883 125.392 279.37C125.392 278.857 125.508 278.397 125.742 277.99C125.975 277.583 126.295 277.267 126.702 277.04C127.108 276.813 127.565 276.7 128.072 276.7C128.578 276.7 129.035 276.813 129.442 277.04C129.848 277.267 130.165 277.583 130.392 277.99C130.625 278.397 130.742 278.857 130.742 279.37C130.742 279.883 130.625 280.343 130.392 280.75C130.165 281.157 129.848 281.477 129.442 281.71C129.035 281.937 128.578 282.05 128.072 282.05ZM128.072 281.42C128.445 281.42 128.778 281.337 129.072 281.17C129.372 280.997 129.605 280.753 129.772 280.44C129.938 280.127 130.022 279.77 130.022 279.37C130.022 278.97 129.938 278.613 129.772 278.3C129.605 277.987 129.372 277.747 129.072 277.58C128.778 277.407 128.445 277.32 128.072 277.32C127.698 277.32 127.362 277.407 127.062 277.58C126.768 277.747 126.535 277.987 126.362 278.3C126.195 278.613 126.112 278.97 126.112 279.37C126.112 279.77 126.195 280.127 126.362 280.44C126.535 280.753 126.768 280.997 127.062 281.17C127.362 281.337 127.698 281.42 128.072 281.42ZM134.871 276.7C135.531 276.7 136.055 276.893 136.441 277.28C136.835 277.66 137.031 278.217 137.031 278.95V282H136.321V279.02C136.321 278.473 136.185 278.057 135.911 277.77C135.638 277.483 135.248 277.34 134.741 277.34C134.175 277.34 133.725 277.51 133.391 277.85C133.065 278.183 132.901 278.647 132.901 279.24V282H132.191V276.74H132.871V277.71C133.065 277.39 133.331 277.143 133.671 276.97C134.018 276.79 134.418 276.7 134.871 276.7ZM140.369 282.05C139.942 282.05 139.532 281.99 139.139 281.87C138.752 281.743 138.449 281.587 138.229 281.4L138.549 280.84C138.769 281.013 139.045 281.157 139.379 281.27C139.712 281.377 140.059 281.43 140.419 281.43C140.899 281.43 141.252 281.357 141.479 281.21C141.712 281.057 141.829 280.843 141.829 280.57C141.829 280.377 141.765 280.227 141.639 280.12C141.512 280.007 141.352 279.923 141.159 279.87C140.965 279.81 140.709 279.753 140.389 279.7C139.962 279.62 139.619 279.54 139.359 279.46C139.099 279.373 138.875 279.23 138.689 279.03C138.509 278.83 138.419 278.553 138.419 278.2C138.419 277.76 138.602 277.4 138.969 277.12C139.335 276.84 139.845 276.7 140.499 276.7C140.839 276.7 141.179 276.747 141.519 276.84C141.859 276.927 142.139 277.043 142.359 277.19L142.049 277.76C141.615 277.46 141.099 277.31 140.499 277.31C140.045 277.31 139.702 277.39 139.469 277.55C139.242 277.71 139.129 277.92 139.129 278.18C139.129 278.38 139.192 278.54 139.319 278.66C139.452 278.78 139.615 278.87 139.809 278.93C140.002 278.983 140.269 279.04 140.609 279.1C141.029 279.18 141.365 279.26 141.619 279.34C141.872 279.42 142.089 279.557 142.269 279.75C142.449 279.943 142.539 280.21 142.539 280.55C142.539 281.01 142.345 281.377 141.959 281.65C141.579 281.917 141.049 282.05 140.369 282.05ZM148.431 279.59H144.031C144.071 280.137 144.281 280.58 144.661 280.92C145.041 281.253 145.521 281.42 146.101 281.42C146.428 281.42 146.728 281.363 147.001 281.25C147.275 281.13 147.511 280.957 147.711 280.73L148.111 281.19C147.878 281.47 147.585 281.683 147.231 281.83C146.885 281.977 146.501 282.05 146.081 282.05C145.541 282.05 145.061 281.937 144.641 281.71C144.228 281.477 143.905 281.157 143.671 280.75C143.438 280.343 143.321 279.883 143.321 279.37C143.321 278.857 143.431 278.397 143.651 277.99C143.878 277.583 144.185 277.267 144.571 277.04C144.965 276.813 145.405 276.7 145.891 276.7C146.378 276.7 146.815 276.813 147.201 277.04C147.588 277.267 147.891 277.583 148.111 277.99C148.331 278.39 148.441 278.85 148.441 279.37L148.431 279.59ZM145.891 277.31C145.385 277.31 144.958 277.473 144.611 277.8C144.271 278.12 144.078 278.54 144.031 279.06H147.761C147.715 278.54 147.518 278.12 147.171 277.8C146.831 277.473 146.405 277.31 145.891 277.31ZM155.274 281.68C155.14 281.8 154.974 281.893 154.774 281.96C154.58 282.02 154.377 282.05 154.164 282.05C153.67 282.05 153.29 281.917 153.024 281.65C152.757 281.383 152.624 281.007 152.624 280.52V277.34H151.684V276.74H152.624V275.59H153.334V276.74H154.934V277.34H153.334V280.48C153.334 280.793 153.41 281.033 153.564 281.2C153.724 281.36 153.95 281.44 154.244 281.44C154.39 281.44 154.53 281.417 154.664 281.37C154.804 281.323 154.924 281.257 155.024 281.17L155.274 281.68ZM156.566 276.74H157.276V282H156.566V276.74ZM156.926 275.59C156.78 275.59 156.656 275.54 156.556 275.44C156.456 275.34 156.406 275.22 156.406 275.08C156.406 274.947 156.456 274.83 156.556 274.73C156.656 274.63 156.78 274.58 156.926 274.58C157.073 274.58 157.196 274.63 157.296 274.73C157.396 274.823 157.446 274.937 157.446 275.07C157.446 275.217 157.396 275.34 157.296 275.44C157.196 275.54 157.073 275.59 156.926 275.59ZM165.812 276.7C166.472 276.7 166.988 276.89 167.362 277.27C167.742 277.65 167.932 278.21 167.932 278.95V282H167.222V279.02C167.222 278.473 167.088 278.057 166.822 277.77C166.562 277.483 166.192 277.34 165.712 277.34C165.165 277.34 164.735 277.51 164.422 277.85C164.108 278.183 163.952 278.647 163.952 279.24V282H163.242V279.02C163.242 278.473 163.108 278.057 162.842 277.77C162.582 277.483 162.208 277.34 161.722 277.34C161.182 277.34 160.752 277.51 160.432 277.85C160.118 278.183 159.962 278.647 159.962 279.24V282H159.252V276.74H159.932V277.7C160.118 277.38 160.378 277.133 160.712 276.96C161.045 276.787 161.428 276.7 161.862 276.7C162.302 276.7 162.682 276.793 163.002 276.98C163.328 277.167 163.572 277.443 163.732 277.81C163.925 277.463 164.202 277.193 164.562 277C164.928 276.8 165.345 276.7 165.812 276.7ZM174.457 279.59H170.057C170.097 280.137 170.307 280.58 170.687 280.92C171.067 281.253 171.547 281.42 172.127 281.42C172.453 281.42 172.753 281.363 173.027 281.25C173.3 281.13 173.537 280.957 173.737 280.73L174.137 281.19C173.903 281.47 173.61 281.683 173.257 281.83C172.91 281.977 172.527 282.05 172.107 282.05C171.567 282.05 171.087 281.937 170.667 281.71C170.253 281.477 169.93 281.157 169.697 280.75C169.463 280.343 169.347 279.883 169.347 279.37C169.347 278.857 169.457 278.397 169.677 277.99C169.903 277.583 170.21 277.267 170.597 277.04C170.99 276.813 171.43 276.7 171.917 276.7C172.403 276.7 172.84 276.813 173.227 277.04C173.613 277.267 173.917 277.583 174.137 277.99C174.357 278.39 174.467 278.85 174.467 279.37L174.457 279.59ZM171.917 277.31C171.41 277.31 170.983 277.473 170.637 277.8C170.297 278.12 170.103 278.54 170.057 279.06H173.787C173.74 278.54 173.543 278.12 173.197 277.8C172.857 277.473 172.43 277.31 171.917 277.31Z" fill="black"/>
<circle cx="196" cy="278" r="5" fill="#C2FFD3"/>
<path d="M214.41 275V282H213.7V276.4L210.95 281.11H210.6L207.85 276.43V282H207.14V275H207.75L210.79 280.19L213.8 275H214.41ZM220.961 276.74L218.331 282.63C218.117 283.123 217.871 283.473 217.591 283.68C217.311 283.887 216.974 283.99 216.581 283.99C216.327 283.99 216.091 283.95 215.871 283.87C215.651 283.79 215.461 283.67 215.301 283.51L215.631 282.98C215.897 283.247 216.217 283.38 216.591 283.38C216.831 283.38 217.034 283.313 217.201 283.18C217.374 283.047 217.534 282.82 217.681 282.5L217.911 281.99L215.561 276.74H216.301L218.281 281.21L220.261 276.74H220.961ZM223.963 282.06C223.443 282.06 222.943 281.977 222.463 281.81C221.989 281.643 221.623 281.423 221.363 281.15L221.653 280.58C221.906 280.833 222.243 281.04 222.663 281.2C223.083 281.353 223.516 281.43 223.963 281.43C224.589 281.43 225.059 281.317 225.373 281.09C225.686 280.857 225.843 280.557 225.843 280.19C225.843 279.91 225.756 279.687 225.583 279.52C225.416 279.353 225.209 279.227 224.963 279.14C224.716 279.047 224.373 278.947 223.933 278.84C223.406 278.707 222.986 278.58 222.673 278.46C222.359 278.333 222.089 278.143 221.863 277.89C221.643 277.637 221.533 277.293 221.533 276.86C221.533 276.507 221.626 276.187 221.813 275.9C221.999 275.607 222.286 275.373 222.673 275.2C223.059 275.027 223.539 274.94 224.113 274.94C224.513 274.94 224.903 274.997 225.283 275.11C225.669 275.217 226.003 275.367 226.283 275.56L226.033 276.15C225.739 275.957 225.426 275.813 225.093 275.72C224.759 275.62 224.433 275.57 224.113 275.57C223.499 275.57 223.036 275.69 222.723 275.93C222.416 276.163 222.263 276.467 222.263 276.84C222.263 277.12 222.346 277.347 222.513 277.52C222.686 277.687 222.899 277.817 223.153 277.91C223.413 277.997 223.759 278.093 224.193 278.2C224.706 278.327 225.119 278.453 225.433 278.58C225.753 278.7 226.023 278.887 226.243 279.14C226.463 279.387 226.573 279.723 226.573 280.15C226.573 280.503 226.476 280.827 226.283 281.12C226.096 281.407 225.806 281.637 225.413 281.81C225.019 281.977 224.536 282.06 223.963 282.06ZM235.235 282.59C235.022 282.85 234.768 283.047 234.475 283.18C234.188 283.32 233.875 283.39 233.535 283.39C233.122 283.39 232.728 283.287 232.355 283.08C231.988 282.88 231.575 282.54 231.115 282.06C230.442 282.04 229.835 281.873 229.295 281.56C228.755 281.247 228.332 280.823 228.025 280.29C227.718 279.757 227.565 279.16 227.565 278.5C227.565 277.827 227.722 277.22 228.035 276.68C228.355 276.14 228.795 275.717 229.355 275.41C229.922 275.097 230.552 274.94 231.245 274.94C231.938 274.94 232.562 275.093 233.115 275.4C233.675 275.707 234.115 276.133 234.435 276.68C234.755 277.22 234.915 277.827 234.915 278.5C234.915 279.087 234.792 279.627 234.545 280.12C234.305 280.607 233.965 281.013 233.525 281.34C233.092 281.667 232.592 281.883 232.025 281.99C232.538 282.53 233.045 282.8 233.545 282.8C234.065 282.8 234.508 282.587 234.875 282.16L235.235 282.59ZM228.295 278.5C228.295 279.047 228.422 279.54 228.675 279.98C228.935 280.42 229.288 280.767 229.735 281.02C230.188 281.273 230.692 281.4 231.245 281.4C231.798 281.4 232.298 281.273 232.745 281.02C233.192 280.767 233.542 280.42 233.795 279.98C234.048 279.54 234.175 279.047 234.175 278.5C234.175 277.953 234.048 277.46 233.795 277.02C233.542 276.58 233.192 276.233 232.745 275.98C232.298 275.727 231.798 275.6 231.245 275.6C230.692 275.6 230.188 275.727 229.735 275.98C229.288 276.233 228.935 276.58 228.675 277.02C228.422 277.46 228.295 277.953 228.295 278.5ZM236.574 275H237.314V281.36H241.234V282H236.574V275ZM247.079 282.05C246.573 282.05 246.116 281.937 245.709 281.71C245.303 281.477 244.983 281.157 244.749 280.75C244.516 280.343 244.399 279.883 244.399 279.37C244.399 278.857 244.516 278.397 244.749 277.99C244.983 277.583 245.303 277.267 245.709 277.04C246.116 276.813 246.573 276.7 247.079 276.7C247.586 276.7 248.043 276.813 248.449 277.04C248.856 277.267 249.173 277.583 249.399 277.99C249.633 278.397 249.749 278.857 249.749 279.37C249.749 279.883 249.633 280.343 249.399 280.75C249.173 281.157 248.856 281.477 248.449 281.71C248.043 281.937 247.586 282.05 247.079 282.05ZM247.079 281.42C247.453 281.42 247.786 281.337 248.079 281.17C248.379 280.997 248.613 280.753 248.779 280.44C248.946 280.127 249.029 279.77 249.029 279.37C249.029 278.97 248.946 278.613 248.779 278.3C248.613 277.987 248.379 277.747 248.079 277.58C247.786 277.407 247.453 277.32 247.079 277.32C246.706 277.32 246.369 277.407 246.069 277.58C245.776 277.747 245.543 277.987 245.369 278.3C245.203 278.613 245.119 278.97 245.119 279.37C245.119 279.77 245.203 280.127 245.369 280.44C245.543 280.753 245.776 280.997 246.069 281.17C246.369 281.337 246.706 281.42 247.079 281.42ZM253.969 281.68C253.836 281.8 253.669 281.893 253.469 281.96C253.276 282.02 253.072 282.05 252.859 282.05C252.366 282.05 251.986 281.917 251.719 281.65C251.452 281.383 251.319 281.007 251.319 280.52V277.34H250.379V276.74H251.319V275.59H252.029V276.74H253.629V277.34H252.029V280.48C252.029 280.793 252.106 281.033 252.259 281.2C252.419 281.36 252.646 281.44 252.939 281.44C253.086 281.44 253.226 281.417 253.359 281.37C253.499 281.323 253.619 281.257 253.719 281.17L253.969 281.68ZM257.941 276.7C258.601 276.7 259.125 276.893 259.511 277.28C259.905 277.66 260.101 278.217 260.101 278.95V282H259.391V279.02C259.391 278.473 259.255 278.057 258.981 277.77C258.708 277.483 258.318 277.34 257.811 277.34C257.245 277.34 256.795 277.51 256.461 277.85C256.135 278.183 255.971 278.647 255.971 279.24V282H255.261V274.58H255.971V277.66C256.165 277.353 256.431 277.117 256.771 276.95C257.111 276.783 257.501 276.7 257.941 276.7ZM266.629 279.59H262.229C262.269 280.137 262.479 280.58 262.859 280.92C263.239 281.253 263.719 281.42 264.299 281.42C264.625 281.42 264.925 281.363 265.199 281.25C265.472 281.13 265.709 280.957 265.909 280.73L266.309 281.19C266.075 281.47 265.782 281.683 265.429 281.83C265.082 281.977 264.699 282.05 264.279 282.05C263.739 282.05 263.259 281.937 262.839 281.71C262.425 281.477 262.102 281.157 261.869 280.75C261.635 280.343 261.519 279.883 261.519 279.37C261.519 278.857 261.629 278.397 261.849 277.99C262.075 277.583 262.382 277.267 262.769 277.04C263.162 276.813 263.602 276.7 264.089 276.7C264.575 276.7 265.012 276.813 265.399 277.04C265.785 277.267 266.089 277.583 266.309 277.99C266.529 278.39 266.639 278.85 266.639 279.37L266.629 279.59ZM264.089 277.31C263.582 277.31 263.155 277.473 262.809 277.8C262.469 278.12 262.275 278.54 262.229 279.06H265.959C265.912 278.54 265.715 278.12 265.369 277.8C265.029 277.473 264.602 277.31 264.089 277.31ZM268.764 277.77C268.93 277.417 269.177 277.15 269.504 276.97C269.837 276.79 270.247 276.7 270.734 276.7V277.39L270.564 277.38C270.01 277.38 269.577 277.55 269.264 277.89C268.95 278.23 268.794 278.707 268.794 279.32V282H268.084V276.74H268.764V277.77Z" fill="black"/>
<line x1="24" y1="129" x2="752.999" y2="129" stroke="#EEEEEE" stroke-dasharray="2.2 2.2"/>
<line x1="24" y1="149" x2="752.999" y2="149" stroke="#EEEEEE" stroke-dasharray="2.2 2.2"/>
<line x1="24" y1="189" x2="752.999" y2="189" stroke="#EEEEEE" stroke-dasharray="2.2 2.2"/>
<line x1="24" y1="89" x2="752.999" y2="89" stroke="#EEEEEE" stroke-dasharray="2.2 2.2"/>
<line x1="24" y1="69" x2="752.999" y2="69" stroke="#EEEEEE" stroke-dasharray="2.2 2.2"/>
<line x1="24" y1="169" x2="752.999" y2="169" stroke="#EEEEEE" stroke-dasharray="2.2 2.2"/>
<line x1="24" y1="209" x2="752.999" y2="209" stroke="#EEEEEE" stroke-dasharray="2.2 2.2"/>
<line x1="24" y1="229" x2="752.999" y2="229" stroke="#EEEEEE"/>
<line x1="24" y1="109" x2="752.999" y2="109" stroke="#EEEEEE" stroke-dasharray="2.2 2.2"/>
<path d="M29.3 200.11V200.75H24.39V200.24L27.3 197.39C27.6667 197.03 27.9133 196.72 28.04 196.46C28.1733 196.193 28.24 195.927 28.24 195.66C28.24 195.247 28.0967 194.927 27.81 194.7C27.53 194.467 27.1267 194.35 26.6 194.35C25.78 194.35 25.1433 194.61 24.69 195.13L24.18 194.69C24.4533 194.37 24.8 194.123 25.22 193.95C25.6467 193.777 26.1267 193.69 26.66 193.69C27.3733 193.69 27.9367 193.86 28.35 194.2C28.77 194.533 28.98 194.993 28.98 195.58C28.98 195.94 28.9 196.287 28.74 196.62C28.58 196.953 28.2767 197.337 27.83 197.77L25.45 200.11H29.3ZM32.9545 200.81C32.4145 200.81 31.9312 200.667 31.5045 200.38C31.0845 200.093 30.7545 199.683 30.5145 199.15C30.2812 198.61 30.1645 197.977 30.1645 197.25C30.1645 196.523 30.2812 195.893 30.5145 195.36C30.7545 194.82 31.0845 194.407 31.5045 194.12C31.9312 193.833 32.4145 193.69 32.9545 193.69C33.4945 193.69 33.9745 193.833 34.3945 194.12C34.8212 194.407 35.1545 194.82 35.3945 195.36C35.6345 195.893 35.7545 196.523 35.7545 197.25C35.7545 197.977 35.6345 198.61 35.3945 199.15C35.1545 199.683 34.8212 200.093 34.3945 200.38C33.9745 200.667 33.4945 200.81 32.9545 200.81ZM32.9545 200.15C33.3612 200.15 33.7179 200.037 34.0245 199.81C34.3379 199.583 34.5812 199.253 34.7545 198.82C34.9279 198.387 35.0145 197.863 35.0145 197.25C35.0145 196.637 34.9279 196.113 34.7545 195.68C34.5812 195.247 34.3379 194.917 34.0245 194.69C33.7179 194.463 33.3612 194.35 32.9545 194.35C32.5479 194.35 32.1879 194.463 31.8745 194.69C31.5679 194.917 31.3279 195.247 31.1545 195.68C30.9812 196.113 30.8945 196.637 30.8945 197.25C30.8945 197.863 30.9812 198.387 31.1545 198.82C31.3279 199.253 31.5679 199.583 31.8745 199.81C32.1879 200.037 32.5479 200.15 32.9545 200.15ZM39.5756 200.81C39.0356 200.81 38.5523 200.667 38.1256 200.38C37.7056 200.093 37.3756 199.683 37.1356 199.15C36.9023 198.61 36.7856 197.977 36.7856 197.25C36.7856 196.523 36.9023 195.893 37.1356 195.36C37.3756 194.82 37.7056 194.407 38.1256 194.12C38.5523 193.833 39.0356 193.69 39.5756 193.69C40.1156 193.69 40.5956 193.833 41.0156 194.12C41.4423 194.407 41.7756 194.82 42.0156 195.36C42.2556 195.893 42.3756 196.523 42.3756 197.25C42.3756 197.977 42.2556 198.61 42.0156 199.15C41.7756 199.683 41.4423 200.093 41.0156 200.38C40.5956 200.667 40.1156 200.81 39.5756 200.81ZM39.5756 200.15C39.9823 200.15 40.339 200.037 40.6456 199.81C40.959 199.583 41.2023 199.253 41.3756 198.82C41.549 198.387 41.6356 197.863 41.6356 197.25C41.6356 196.637 41.549 196.113 41.3756 195.68C41.2023 195.247 40.959 194.917 40.6456 194.69C40.339 194.463 39.9823 194.35 39.5756 194.35C39.169 194.35 38.809 194.463 38.4956 194.69C38.189 194.917 37.949 195.247 37.7756 195.68C37.6023 196.113 37.5156 196.637 37.5156 197.25C37.5156 197.863 37.6023 198.387 37.7756 198.82C37.949 199.253 38.189 199.583 38.4956 199.81C38.809 200.037 39.169 200.15 39.5756 200.15ZM50.4367 195.45C51.0967 195.45 51.6134 195.64 51.9867 196.02C52.3667 196.4 52.5567 196.96 52.5567 197.7V200.75H51.8467V197.77C51.8467 197.223 51.7134 196.807 51.4467 196.52C51.1867 196.233 50.8167 196.09 50.3367 196.09C49.7901 196.09 49.3601 196.26 49.0467 196.6C48.7334 196.933 48.5767 197.397 48.5767 197.99V200.75H47.8667V197.77C47.8667 197.223 47.7334 196.807 47.4667 196.52C47.2067 196.233 46.8334 196.09 46.3467 196.09C45.8067 196.09 45.3767 196.26 45.0567 196.6C44.7434 196.933 44.5867 197.397 44.5867 197.99V200.75H43.8767V195.49H44.5567V196.45C44.7434 196.13 45.0034 195.883 45.3367 195.71C45.6701 195.537 46.0534 195.45 46.4867 195.45C46.9267 195.45 47.3067 195.543 47.6267 195.73C47.9534 195.917 48.1967 196.193 48.3567 196.56C48.5501 196.213 48.8267 195.943 49.1867 195.75C49.5534 195.55 49.9701 195.45 50.4367 195.45ZM55.8922 200.8C55.4655 200.8 55.0555 200.74 54.6622 200.62C54.2755 200.493 53.9722 200.337 53.7522 200.15L54.0722 199.59C54.2922 199.763 54.5689 199.907 54.9022 200.02C55.2355 200.127 55.5822 200.18 55.9422 200.18C56.4222 200.18 56.7755 200.107 57.0022 199.96C57.2355 199.807 57.3522 199.593 57.3522 199.32C57.3522 199.127 57.2889 198.977 57.1622 198.87C57.0355 198.757 56.8755 198.673 56.6822 198.62C56.4889 198.56 56.2322 198.503 55.9122 198.45C55.4855 198.37 55.1422 198.29 54.8822 198.21C54.6222 198.123 54.3989 197.98 54.2122 197.78C54.0322 197.58 53.9422 197.303 53.9422 196.95C53.9422 196.51 54.1255 196.15 54.4922 195.87C54.8589 195.59 55.3689 195.45 56.0222 195.45C56.3622 195.45 56.7022 195.497 57.0422 195.59C57.3822 195.677 57.6622 195.793 57.8822 195.94L57.5722 196.51C57.1389 196.21 56.6222 196.06 56.0222 196.06C55.5689 196.06 55.2255 196.14 54.9922 196.3C54.7655 196.46 54.6522 196.67 54.6522 196.93C54.6522 197.13 54.7155 197.29 54.8422 197.41C54.9755 197.53 55.1389 197.62 55.3322 197.68C55.5255 197.733 55.7922 197.79 56.1322 197.85C56.5522 197.93 56.8889 198.01 57.1422 198.09C57.3955 198.17 57.6122 198.307 57.7922 198.5C57.9722 198.693 58.0622 198.96 58.0622 199.3C58.0622 199.76 57.8689 200.127 57.4822 200.4C57.1022 200.667 56.5722 200.8 55.8922 200.8Z" fill="#717171"/>
<path d="M27.31 223.31C26.77 223.31 26.2867 223.167 25.86 222.88C25.44 222.593 25.11 222.183 24.87 221.65C24.6367 221.11 24.52 220.477 24.52 219.75C24.52 219.023 24.6367 218.393 24.87 217.86C25.11 217.32 25.44 216.907 25.86 216.62C26.2867 216.333 26.77 216.19 27.31 216.19C27.85 216.19 28.33 216.333 28.75 216.62C29.1767 216.907 29.51 217.32 29.75 217.86C29.99 218.393 30.11 219.023 30.11 219.75C30.11 220.477 29.99 221.11 29.75 221.65C29.51 222.183 29.1767 222.593 28.75 222.88C28.33 223.167 27.85 223.31 27.31 223.31ZM27.31 222.65C27.7167 222.65 28.0733 222.537 28.38 222.31C28.6933 222.083 28.9367 221.753 29.11 221.32C29.2833 220.887 29.37 220.363 29.37 219.75C29.37 219.137 29.2833 218.613 29.11 218.18C28.9367 217.747 28.6933 217.417 28.38 217.19C28.0733 216.963 27.7167 216.85 27.31 216.85C26.9033 216.85 26.5433 216.963 26.23 217.19C25.9233 217.417 25.6833 217.747 25.51 218.18C25.3367 218.613 25.25 219.137 25.25 219.75C25.25 220.363 25.3367 220.887 25.51 221.32C25.6833 221.753 25.9233 222.083 26.23 222.31C26.5433 222.537 26.9033 222.65 27.31 222.65ZM38.1711 217.95C38.8311 217.95 39.3478 218.14 39.7211 218.52C40.1011 218.9 40.2911 219.46 40.2911 220.2V223.25H39.5811V220.27C39.5811 219.723 39.4478 219.307 39.1811 219.02C38.9211 218.733 38.5511 218.59 38.0711 218.59C37.5244 218.59 37.0944 218.76 36.7811 219.1C36.4678 219.433 36.3111 219.897 36.3111 220.49V223.25H35.6011V220.27C35.6011 219.723 35.4678 219.307 35.2011 219.02C34.9411 218.733 34.5678 218.59 34.0811 218.59C33.5411 218.59 33.1111 218.76 32.7911 219.1C32.4778 219.433 32.3211 219.897 32.3211 220.49V223.25H31.6111V217.99H32.2911V218.95C32.4778 218.63 32.7378 218.383 33.0711 218.21C33.4044 218.037 33.7878 217.95 34.2211 217.95C34.6611 217.95 35.0411 218.043 35.3611 218.23C35.6878 218.417 35.9311 218.693 36.0911 219.06C36.2844 218.713 36.5611 218.443 36.9211 218.25C37.2878 218.05 37.7044 217.95 38.1711 217.95ZM43.6266 223.3C43.1999 223.3 42.7899 223.24 42.3966 223.12C42.0099 222.993 41.7066 222.837 41.4866 222.65L41.8066 222.09C42.0266 222.263 42.3032 222.407 42.6366 222.52C42.9699 222.627 43.3166 222.68 43.6766 222.68C44.1566 222.68 44.5099 222.607 44.7366 222.46C44.9699 222.307 45.0866 222.093 45.0866 221.82C45.0866 221.627 45.0232 221.477 44.8966 221.37C44.7699 221.257 44.6099 221.173 44.4166 221.12C44.2232 221.06 43.9666 221.003 43.6466 220.95C43.2199 220.87 42.8766 220.79 42.6166 220.71C42.3566 220.623 42.1332 220.48 41.9466 220.28C41.7666 220.08 41.6766 219.803 41.6766 219.45C41.6766 219.01 41.8599 218.65 42.2266 218.37C42.5932 218.09 43.1032 217.95 43.7566 217.95C44.0966 217.95 44.4366 217.997 44.7766 218.09C45.1166 218.177 45.3966 218.293 45.6166 218.44L45.3066 219.01C44.8732 218.71 44.3566 218.56 43.7566 218.56C43.3032 218.56 42.9599 218.64 42.7266 218.8C42.4999 218.96 42.3866 219.17 42.3866 219.43C42.3866 219.63 42.4499 219.79 42.5766 219.91C42.7099 220.03 42.8732 220.12 43.0666 220.18C43.2599 220.233 43.5266 220.29 43.8666 220.35C44.2866 220.43 44.6232 220.51 44.8766 220.59C45.1299 220.67 45.3466 220.807 45.5266 221C45.7066 221.193 45.7966 221.46 45.7966 221.8C45.7966 222.26 45.6032 222.627 45.2166 222.9C44.8366 223.167 44.3066 223.3 43.6266 223.3Z" fill="#717171"/>
<path d="M30.47 178.91H29.07V180.75H28.35V178.91H24.4V178.39L28.11 173.75H28.91L25.33 178.27H28.37V176.65H29.07V178.27H30.47V178.91ZM33.9213 180.81C33.3813 180.81 32.898 180.667 32.4713 180.38C32.0513 180.093 31.7213 179.683 31.4813 179.15C31.248 178.61 31.1313 177.977 31.1313 177.25C31.1313 176.523 31.248 175.893 31.4813 175.36C31.7213 174.82 32.0513 174.407 32.4713 174.12C32.898 173.833 33.3813 173.69 33.9213 173.69C34.4613 173.69 34.9413 173.833 35.3613 174.12C35.788 174.407 36.1213 174.82 36.3613 175.36C36.6013 175.893 36.7213 176.523 36.7213 177.25C36.7213 177.977 36.6013 178.61 36.3613 179.15C36.1213 179.683 35.788 180.093 35.3613 180.38C34.9413 180.667 34.4613 180.81 33.9213 180.81ZM33.9213 180.15C34.328 180.15 34.6847 180.037 34.9913 179.81C35.3047 179.583 35.548 179.253 35.7213 178.82C35.8947 178.387 35.9813 177.863 35.9813 177.25C35.9813 176.637 35.8947 176.113 35.7213 175.68C35.548 175.247 35.3047 174.917 34.9913 174.69C34.6847 174.463 34.328 174.35 33.9213 174.35C33.5147 174.35 33.1547 174.463 32.8413 174.69C32.5347 174.917 32.2947 175.247 32.1213 175.68C31.948 176.113 31.8613 176.637 31.8613 177.25C31.8613 177.863 31.948 178.387 32.1213 178.82C32.2947 179.253 32.5347 179.583 32.8413 179.81C33.1547 180.037 33.5147 180.15 33.9213 180.15ZM40.5424 180.81C40.0024 180.81 39.5191 180.667 39.0924 180.38C38.6724 180.093 38.3424 179.683 38.1024 179.15C37.8691 178.61 37.7524 177.977 37.7524 177.25C37.7524 176.523 37.8691 175.893 38.1024 175.36C38.3424 174.82 38.6724 174.407 39.0924 174.12C39.5191 173.833 40.0024 173.69 40.5424 173.69C41.0824 173.69 41.5624 173.833 41.9824 174.12C42.4091 174.407 42.7424 174.82 42.9824 175.36C43.2224 175.893 43.3424 176.523 43.3424 177.25C43.3424 177.977 43.2224 178.61 42.9824 179.15C42.7424 179.683 42.4091 180.093 41.9824 180.38C41.5624 180.667 41.0824 180.81 40.5424 180.81ZM40.5424 180.15C40.9491 180.15 41.3058 180.037 41.6124 179.81C41.9258 179.583 42.1691 179.253 42.3424 178.82C42.5158 178.387 42.6024 177.863 42.6024 177.25C42.6024 176.637 42.5158 176.113 42.3424 175.68C42.1691 175.247 41.9258 174.917 41.6124 174.69C41.3058 174.463 40.9491 174.35 40.5424 174.35C40.1358 174.35 39.7758 174.463 39.4624 174.69C39.1558 174.917 38.9158 175.247 38.7424 175.68C38.5691 176.113 38.4824 176.637 38.4824 177.25C38.4824 177.863 38.5691 178.387 38.7424 178.82C38.9158 179.253 39.1558 179.583 39.4624 179.81C39.7758 180.037 40.1358 180.15 40.5424 180.15ZM51.4035 175.45C52.0635 175.45 52.5802 175.64 52.9535 176.02C53.3335 176.4 53.5235 176.96 53.5235 177.7V180.75H52.8135V177.77C52.8135 177.223 52.6802 176.807 52.4135 176.52C52.1535 176.233 51.7835 176.09 51.3035 176.09C50.7568 176.09 50.3268 176.26 50.0135 176.6C49.7002 176.933 49.5435 177.397 49.5435 177.99V180.75H48.8335V177.77C48.8335 177.223 48.7002 176.807 48.4335 176.52C48.1735 176.233 47.8002 176.09 47.3135 176.09C46.7735 176.09 46.3435 176.26 46.0235 176.6C45.7102 176.933 45.5535 177.397 45.5535 177.99V180.75H44.8435V175.49H45.5235V176.45C45.7102 176.13 45.9702 175.883 46.3035 175.71C46.6368 175.537 47.0202 175.45 47.4535 175.45C47.8935 175.45 48.2735 175.543 48.5935 175.73C48.9202 175.917 49.1635 176.193 49.3235 176.56C49.5168 176.213 49.7935 175.943 50.1535 175.75C50.5202 175.55 50.9368 175.45 51.4035 175.45ZM56.859 180.8C56.4323 180.8 56.0223 180.74 55.629 180.62C55.2423 180.493 54.939 180.337 54.719 180.15L55.039 179.59C55.259 179.763 55.5357 179.907 55.869 180.02C56.2023 180.127 56.549 180.18 56.909 180.18C57.389 180.18 57.7423 180.107 57.969 179.96C58.2023 179.807 58.319 179.593 58.319 179.32C58.319 179.127 58.2557 178.977 58.129 178.87C58.0023 178.757 57.8423 178.673 57.649 178.62C57.4557 178.56 57.199 178.503 56.879 178.45C56.4523 178.37 56.109 178.29 55.849 178.21C55.589 178.123 55.3657 177.98 55.179 177.78C54.999 177.58 54.909 177.303 54.909 176.95C54.909 176.51 55.0923 176.15 55.459 175.87C55.8257 175.59 56.3357 175.45 56.989 175.45C57.329 175.45 57.669 175.497 58.009 175.59C58.349 175.677 58.629 175.793 58.849 175.94L58.539 176.51C58.1057 176.21 57.589 176.06 56.989 176.06C56.5357 176.06 56.1923 176.14 55.959 176.3C55.7323 176.46 55.619 176.67 55.619 176.93C55.619 177.13 55.6823 177.29 55.809 177.41C55.9423 177.53 56.1057 177.62 56.299 177.68C56.4923 177.733 56.759 177.79 57.099 177.85C57.519 177.93 57.8557 178.01 58.109 178.09C58.3623 178.17 58.579 178.307 58.759 178.5C58.939 178.693 59.029 178.96 59.029 179.3C59.029 179.76 58.8357 180.127 58.449 180.4C58.069 180.667 57.539 180.8 56.859 180.8Z" fill="#717171"/>
<path d="M27.42 156.56C27.88 156.56 28.2867 156.647 28.64 156.82C29 156.993 29.28 157.24 29.48 157.56C29.68 157.873 29.78 158.24 29.78 158.66C29.78 159.087 29.6767 159.463 29.47 159.79C29.2633 160.117 28.9767 160.37 28.61 160.55C28.25 160.723 27.8433 160.81 27.39 160.81C26.4633 160.81 25.7533 160.507 25.26 159.9C24.7667 159.287 24.52 158.423 24.52 157.31C24.52 156.53 24.6533 155.87 24.92 155.33C25.1867 154.79 25.56 154.383 26.04 154.11C26.52 153.83 27.08 153.69 27.72 153.69C28.4133 153.69 28.9667 153.817 29.38 154.07L29.09 154.65C28.7567 154.43 28.3033 154.32 27.73 154.32C26.9567 154.32 26.35 154.567 25.91 155.06C25.47 155.547 25.25 156.257 25.25 157.19C25.25 157.357 25.26 157.547 25.28 157.76C25.4533 157.38 25.73 157.087 26.11 156.88C26.49 156.667 26.9267 156.56 27.42 156.56ZM27.36 160.2C27.8667 160.2 28.2767 160.063 28.59 159.79C28.91 159.51 29.07 159.14 29.07 158.68C29.07 158.22 28.91 157.853 28.59 157.58C28.2767 157.307 27.85 157.17 27.31 157.17C26.9567 157.17 26.6433 157.237 26.37 157.37C26.1033 157.503 25.8933 157.687 25.74 157.92C25.5867 158.153 25.51 158.413 25.51 158.7C25.51 158.967 25.58 159.213 25.72 159.44C25.8667 159.667 26.08 159.85 26.36 159.99C26.64 160.13 26.9733 160.2 27.36 160.2ZM33.4038 160.81C32.8638 160.81 32.3804 160.667 31.9538 160.38C31.5338 160.093 31.2038 159.683 30.9638 159.15C30.7304 158.61 30.6138 157.977 30.6138 157.25C30.6138 156.523 30.7304 155.893 30.9638 155.36C31.2038 154.82 31.5338 154.407 31.9538 154.12C32.3804 153.833 32.8638 153.69 33.4038 153.69C33.9438 153.69 34.4238 153.833 34.8438 154.12C35.2704 154.407 35.6038 154.82 35.8438 155.36C36.0838 155.893 36.2038 156.523 36.2038 157.25C36.2038 157.977 36.0838 158.61 35.8438 159.15C35.6038 159.683 35.2704 160.093 34.8438 160.38C34.4238 160.667 33.9438 160.81 33.4038 160.81ZM33.4038 160.15C33.8104 160.15 34.1671 160.037 34.4738 159.81C34.7871 159.583 35.0304 159.253 35.2038 158.82C35.3771 158.387 35.4638 157.863 35.4638 157.25C35.4638 156.637 35.3771 156.113 35.2038 155.68C35.0304 155.247 34.7871 154.917 34.4738 154.69C34.1671 154.463 33.8104 154.35 33.4038 154.35C32.9971 154.35 32.6371 154.463 32.3238 154.69C32.0171 154.917 31.7771 155.247 31.6038 155.68C31.4304 156.113 31.3438 156.637 31.3438 157.25C31.3438 157.863 31.4304 158.387 31.6038 158.82C31.7771 159.253 32.0171 159.583 32.3238 159.81C32.6371 160.037 32.9971 160.15 33.4038 160.15ZM40.0248 160.81C39.4848 160.81 39.0015 160.667 38.5748 160.38C38.1548 160.093 37.8248 159.683 37.5848 159.15C37.3515 158.61 37.2348 157.977 37.2348 157.25C37.2348 156.523 37.3515 155.893 37.5848 155.36C37.8248 154.82 38.1548 154.407 38.5748 154.12C39.0015 153.833 39.4848 153.69 40.0248 153.69C40.5648 153.69 41.0448 153.833 41.4648 154.12C41.8915 154.407 42.2248 154.82 42.4648 155.36C42.7048 155.893 42.8248 156.523 42.8248 157.25C42.8248 157.977 42.7048 158.61 42.4648 159.15C42.2248 159.683 41.8915 160.093 41.4648 160.38C41.0448 160.667 40.5648 160.81 40.0248 160.81ZM40.0248 160.15C40.4315 160.15 40.7882 160.037 41.0948 159.81C41.4082 159.583 41.6515 159.253 41.8248 158.82C41.9982 158.387 42.0848 157.863 42.0848 157.25C42.0848 156.637 41.9982 156.113 41.8248 155.68C41.6515 155.247 41.4082 154.917 41.0948 154.69C40.7882 154.463 40.4315 154.35 40.0248 154.35C39.6182 154.35 39.2582 154.463 38.9448 154.69C38.6382 154.917 38.3982 155.247 38.2248 155.68C38.0515 156.113 37.9648 156.637 37.9648 157.25C37.9648 157.863 38.0515 158.387 38.2248 158.82C38.3982 159.253 38.6382 159.583 38.9448 159.81C39.2582 160.037 39.6182 160.15 40.0248 160.15ZM50.8859 155.45C51.5459 155.45 52.0626 155.64 52.4359 156.02C52.8159 156.4 53.0059 156.96 53.0059 157.7V160.75H52.2959V157.77C52.2959 157.223 52.1626 156.807 51.8959 156.52C51.6359 156.233 51.2659 156.09 50.7859 156.09C50.2393 156.09 49.8093 156.26 49.4959 156.6C49.1826 156.933 49.0259 157.397 49.0259 157.99V160.75H48.3159V157.77C48.3159 157.223 48.1826 156.807 47.9159 156.52C47.6559 156.233 47.2826 156.09 46.7959 156.09C46.2559 156.09 45.8259 156.26 45.5059 156.6C45.1926 156.933 45.0359 157.397 45.0359 157.99V160.75H44.3259V155.49H45.0059V156.45C45.1926 156.13 45.4526 155.883 45.7859 155.71C46.1193 155.537 46.5026 155.45 46.9359 155.45C47.3759 155.45 47.7559 155.543 48.0759 155.73C48.4026 155.917 48.6459 156.193 48.8059 156.56C48.9993 156.213 49.2759 155.943 49.6359 155.75C50.0026 155.55 50.4193 155.45 50.8859 155.45ZM56.3414 160.8C55.9147 160.8 55.5047 160.74 55.1114 160.62C54.7247 160.493 54.4214 160.337 54.2014 160.15L54.5214 159.59C54.7414 159.763 55.0181 159.907 55.3514 160.02C55.6847 160.127 56.0314 160.18 56.3914 160.18C56.8714 160.18 57.2247 160.107 57.4514 159.96C57.6847 159.807 57.8014 159.593 57.8014 159.32C57.8014 159.127 57.7381 158.977 57.6114 158.87C57.4847 158.757 57.3247 158.673 57.1314 158.62C56.9381 158.56 56.6814 158.503 56.3614 158.45C55.9347 158.37 55.5914 158.29 55.3314 158.21C55.0714 158.123 54.8481 157.98 54.6614 157.78C54.4814 157.58 54.3914 157.303 54.3914 156.95C54.3914 156.51 54.5747 156.15 54.9414 155.87C55.3081 155.59 55.8181 155.45 56.4714 155.45C56.8114 155.45 57.1514 155.497 57.4914 155.59C57.8314 155.677 58.1114 155.793 58.3314 155.94L58.0214 156.51C57.5881 156.21 57.0714 156.06 56.4714 156.06C56.0181 156.06 55.6747 156.14 55.4414 156.3C55.2147 156.46 55.1014 156.67 55.1014 156.93C55.1014 157.13 55.1647 157.29 55.2914 157.41C55.4247 157.53 55.5881 157.62 55.7814 157.68C55.9747 157.733 56.2414 157.79 56.5814 157.85C57.0014 157.93 57.3381 158.01 57.5914 158.09C57.8447 158.17 58.0614 158.307 58.2414 158.5C58.4214 158.693 58.5114 158.96 58.5114 159.3C58.5114 159.76 58.3181 160.127 57.9314 160.4C57.5514 160.667 57.0214 160.8 56.3414 160.8Z" fill="#717171"/>
<path d="M28.53 138.33C28.97 138.477 29.3067 138.697 29.54 138.99C29.78 139.283 29.9 139.637 29.9 140.05C29.9 140.457 29.79 140.813 29.57 141.12C29.35 141.42 29.0333 141.653 28.62 141.82C28.2133 141.98 27.7333 142.06 27.18 142.06C26.34 142.06 25.68 141.88 25.2 141.52C24.72 141.16 24.48 140.67 24.48 140.05C24.48 139.63 24.5933 139.277 24.82 138.99C25.0533 138.697 25.39 138.477 25.83 138.33C25.47 138.19 25.1967 137.99 25.01 137.73C24.8233 137.463 24.73 137.15 24.73 136.79C24.73 136.223 24.95 135.773 25.39 135.44C25.8367 135.107 26.4333 134.94 27.18 134.94C27.6733 134.94 28.1033 135.017 28.47 135.17C28.8433 135.317 29.1333 135.53 29.34 135.81C29.5467 136.09 29.65 136.417 29.65 136.79C29.65 137.15 29.5533 137.463 29.36 137.73C29.1667 137.99 28.89 138.19 28.53 138.33ZM25.45 136.81C25.45 137.197 25.6033 137.503 25.91 137.73C26.2167 137.957 26.64 138.07 27.18 138.07C27.72 138.07 28.1433 137.957 28.45 137.73C28.7633 137.503 28.92 137.2 28.92 136.82C28.92 136.427 28.76 136.117 28.44 135.89C28.1267 135.663 27.7067 135.55 27.18 135.55C26.6467 135.55 26.2233 135.663 25.91 135.89C25.6033 136.117 25.45 136.423 25.45 136.81ZM27.18 141.45C27.8 141.45 28.2833 141.323 28.63 141.07C28.9833 140.817 29.16 140.473 29.16 140.04C29.16 139.607 28.9833 139.267 28.63 139.02C28.2833 138.767 27.8 138.64 27.18 138.64C26.5667 138.64 26.0833 138.767 25.73 139.02C25.3833 139.267 25.21 139.607 25.21 140.04C25.21 140.48 25.3833 140.827 25.73 141.08C26.0767 141.327 26.56 141.45 27.18 141.45ZM33.687 142.06C33.147 142.06 32.6636 141.917 32.237 141.63C31.817 141.343 31.487 140.933 31.247 140.4C31.0136 139.86 30.897 139.227 30.897 138.5C30.897 137.773 31.0136 137.143 31.247 136.61C31.487 136.07 31.817 135.657 32.237 135.37C32.6636 135.083 33.147 134.94 33.687 134.94C34.227 134.94 34.707 135.083 35.127 135.37C35.5536 135.657 35.887 136.07 36.127 136.61C36.367 137.143 36.487 137.773 36.487 138.5C36.487 139.227 36.367 139.86 36.127 140.4C35.887 140.933 35.5536 141.343 35.127 141.63C34.707 141.917 34.227 142.06 33.687 142.06ZM33.687 141.4C34.0936 141.4 34.4503 141.287 34.757 141.06C35.0703 140.833 35.3136 140.503 35.487 140.07C35.6603 139.637 35.747 139.113 35.747 138.5C35.747 137.887 35.6603 137.363 35.487 136.93C35.3136 136.497 35.0703 136.167 34.757 135.94C34.4503 135.713 34.0936 135.6 33.687 135.6C33.2803 135.6 32.9203 135.713 32.607 135.94C32.3003 136.167 32.0603 136.497 31.887 136.93C31.7136 137.363 31.627 137.887 31.627 138.5C31.627 139.113 31.7136 139.637 31.887 140.07C32.0603 140.503 32.3003 140.833 32.607 141.06C32.9203 141.287 33.2803 141.4 33.687 141.4ZM40.308 142.06C39.768 142.06 39.2847 141.917 38.858 141.63C38.438 141.343 38.108 140.933 37.868 140.4C37.6347 139.86 37.518 139.227 37.518 138.5C37.518 137.773 37.6347 137.143 37.868 136.61C38.108 136.07 38.438 135.657 38.858 135.37C39.2847 135.083 39.768 134.94 40.308 134.94C40.848 134.94 41.328 135.083 41.748 135.37C42.1747 135.657 42.508 136.07 42.748 136.61C42.988 137.143 43.108 137.773 43.108 138.5C43.108 139.227 42.988 139.86 42.748 140.4C42.508 140.933 42.1747 141.343 41.748 141.63C41.328 141.917 40.848 142.06 40.308 142.06ZM40.308 141.4C40.7147 141.4 41.0714 141.287 41.378 141.06C41.6914 140.833 41.9347 140.503 42.108 140.07C42.2814 139.637 42.368 139.113 42.368 138.5C42.368 137.887 42.2814 137.363 42.108 136.93C41.9347 136.497 41.6914 136.167 41.378 135.94C41.0714 135.713 40.7147 135.6 40.308 135.6C39.9014 135.6 39.5414 135.713 39.228 135.94C38.9214 136.167 38.6814 136.497 38.508 136.93C38.3347 137.363 38.248 137.887 38.248 138.5C38.248 139.113 38.3347 139.637 38.508 140.07C38.6814 140.503 38.9214 140.833 39.228 141.06C39.5414 141.287 39.9014 141.4 40.308 141.4ZM51.1691 136.7C51.8291 136.7 52.3458 136.89 52.7191 137.27C53.0991 137.65 53.2891 138.21 53.2891 138.95V142H52.5791V139.02C52.5791 138.473 52.4458 138.057 52.1791 137.77C51.9191 137.483 51.5491 137.34 51.0691 137.34C50.5225 137.34 50.0925 137.51 49.7791 137.85C49.4658 138.183 49.3091 138.647 49.3091 139.24V142H48.5991V139.02C48.5991 138.473 48.4658 138.057 48.1991 137.77C47.9391 137.483 47.5658 137.34 47.0791 137.34C46.5391 137.34 46.1091 137.51 45.7891 137.85C45.4758 138.183 45.3191 138.647 45.3191 139.24V142H44.6091V136.74H45.2891V137.7C45.4758 137.38 45.7358 137.133 46.0691 136.96C46.4025 136.787 46.7858 136.7 47.2191 136.7C47.6591 136.7 48.0391 136.793 48.3591 136.98C48.6858 137.167 48.9291 137.443 49.0891 137.81C49.2825 137.463 49.5591 137.193 49.9191 137C50.2858 136.8 50.7025 136.7 51.1691 136.7ZM56.6246 142.05C56.1979 142.05 55.7879 141.99 55.3946 141.87C55.0079 141.743 54.7046 141.587 54.4846 141.4L54.8046 140.84C55.0246 141.013 55.3013 141.157 55.6346 141.27C55.9679 141.377 56.3146 141.43 56.6746 141.43C57.1546 141.43 57.5079 141.357 57.7346 141.21C57.9679 141.057 58.0846 140.843 58.0846 140.57C58.0846 140.377 58.0213 140.227 57.8946 140.12C57.7679 140.007 57.6079 139.923 57.4146 139.87C57.2213 139.81 56.9646 139.753 56.6446 139.7C56.2179 139.62 55.8746 139.54 55.6146 139.46C55.3546 139.373 55.1313 139.23 54.9446 139.03C54.7646 138.83 54.6746 138.553 54.6746 138.2C54.6746 137.76 54.8579 137.4 55.2246 137.12C55.5913 136.84 56.1013 136.7 56.7546 136.7C57.0946 136.7 57.4346 136.747 57.7746 136.84C58.1146 136.927 58.3946 137.043 58.6146 137.19L58.3046 137.76C57.8713 137.46 57.3546 137.31 56.7546 137.31C56.3013 137.31 55.9579 137.39 55.7246 137.55C55.4979 137.71 55.3846 137.92 55.3846 138.18C55.3846 138.38 55.4479 138.54 55.5746 138.66C55.7079 138.78 55.8713 138.87 56.0646 138.93C56.2579 138.983 56.5246 139.04 56.8646 139.1C57.2846 139.18 57.6213 139.26 57.8746 139.34C58.1279 139.42 58.3446 139.557 58.5246 139.75C58.7046 139.943 58.7946 140.21 58.7946 140.55C58.7946 141.01 58.6013 141.377 58.2146 141.65C57.8346 141.917 57.3046 142.05 56.6246 142.05Z" fill="#717171"/>
<path d="M26.46 115V122H25.74V115.64H24.09V115H26.46ZM30.9233 122.06C30.3833 122.06 29.8999 121.917 29.4733 121.63C29.0533 121.343 28.7233 120.933 28.4833 120.4C28.2499 119.86 28.1333 119.227 28.1333 118.5C28.1333 117.773 28.2499 117.143 28.4833 116.61C28.7233 116.07 29.0533 115.657 29.4733 115.37C29.8999 115.083 30.3833 114.94 30.9233 114.94C31.4633 114.94 31.9433 115.083 32.3633 115.37C32.7899 115.657 33.1233 116.07 33.3633 116.61C33.6033 117.143 33.7233 117.773 33.7233 118.5C33.7233 119.227 33.6033 119.86 33.3633 120.4C33.1233 120.933 32.7899 121.343 32.3633 121.63C31.9433 121.917 31.4633 122.06 30.9233 122.06ZM30.9233 121.4C31.3299 121.4 31.6866 121.287 31.9933 121.06C32.3066 120.833 32.5499 120.503 32.7233 120.07C32.8966 119.637 32.9833 119.113 32.9833 118.5C32.9833 117.887 32.8966 117.363 32.7233 116.93C32.5499 116.497 32.3066 116.167 31.9933 115.94C31.6866 115.713 31.3299 115.6 30.9233 115.6C30.5166 115.6 30.1566 115.713 29.8433 115.94C29.5366 116.167 29.2966 116.497 29.1233 116.93C28.9499 117.363 28.8633 117.887 28.8633 118.5C28.8633 119.113 28.9499 119.637 29.1233 120.07C29.2966 120.503 29.5366 120.833 29.8433 121.06C30.1566 121.287 30.5166 121.4 30.9233 121.4ZM37.5444 122.06C37.0044 122.06 36.521 121.917 36.0944 121.63C35.6744 121.343 35.3444 120.933 35.1044 120.4C34.871 119.86 34.7544 119.227 34.7544 118.5C34.7544 117.773 34.871 117.143 35.1044 116.61C35.3444 116.07 35.6744 115.657 36.0944 115.37C36.521 115.083 37.0044 114.94 37.5444 114.94C38.0844 114.94 38.5644 115.083 38.9844 115.37C39.411 115.657 39.7444 116.07 39.9844 116.61C40.2244 117.143 40.3444 117.773 40.3444 118.5C40.3444 119.227 40.2244 119.86 39.9844 120.4C39.7444 120.933 39.411 121.343 38.9844 121.63C38.5644 121.917 38.0844 122.06 37.5444 122.06ZM37.5444 121.4C37.951 121.4 38.3077 121.287 38.6144 121.06C38.9277 120.833 39.171 120.503 39.3444 120.07C39.5177 119.637 39.6044 119.113 39.6044 118.5C39.6044 117.887 39.5177 117.363 39.3444 116.93C39.171 116.497 38.9277 116.167 38.6144 115.94C38.3077 115.713 37.951 115.6 37.5444 115.6C37.1377 115.6 36.7777 115.713 36.4644 115.94C36.1577 116.167 35.9177 116.497 35.7444 116.93C35.571 117.363 35.4844 117.887 35.4844 118.5C35.4844 119.113 35.571 119.637 35.7444 120.07C35.9177 120.503 36.1577 120.833 36.4644 121.06C36.7777 121.287 37.1377 121.4 37.5444 121.4ZM44.1655 122.06C43.6255 122.06 43.1421 121.917 42.7155 121.63C42.2955 121.343 41.9655 120.933 41.7255 120.4C41.4921 119.86 41.3755 119.227 41.3755 118.5C41.3755 117.773 41.4921 117.143 41.7255 116.61C41.9655 116.07 42.2955 115.657 42.7155 115.37C43.1421 115.083 43.6255 114.94 44.1655 114.94C44.7055 114.94 45.1855 115.083 45.6055 115.37C46.0321 115.657 46.3655 116.07 46.6055 116.61C46.8455 117.143 46.9655 117.773 46.9655 118.5C46.9655 119.227 46.8455 119.86 46.6055 120.4C46.3655 120.933 46.0321 121.343 45.6055 121.63C45.1855 121.917 44.7055 122.06 44.1655 122.06ZM44.1655 121.4C44.5721 121.4 44.9288 121.287 45.2355 121.06C45.5488 120.833 45.7921 120.503 45.9655 120.07C46.1388 119.637 46.2255 119.113 46.2255 118.5C46.2255 117.887 46.1388 117.363 45.9655 116.93C45.7921 116.497 45.5488 116.167 45.2355 115.94C44.9288 115.713 44.5721 115.6 44.1655 115.6C43.7588 115.6 43.3988 115.713 43.0855 115.94C42.7788 116.167 42.5388 116.497 42.3655 116.93C42.1921 117.363 42.1055 117.887 42.1055 118.5C42.1055 119.113 42.1921 119.637 42.3655 120.07C42.5388 120.503 42.7788 120.833 43.0855 121.06C43.3988 121.287 43.7588 121.4 44.1655 121.4ZM55.0266 116.7C55.6866 116.7 56.2032 116.89 56.5766 117.27C56.9566 117.65 57.1466 118.21 57.1466 118.95V122H56.4366V119.02C56.4366 118.473 56.3032 118.057 56.0366 117.77C55.7766 117.483 55.4066 117.34 54.9266 117.34C54.3799 117.34 53.9499 117.51 53.6366 117.85C53.3232 118.183 53.1666 118.647 53.1666 119.24V122H52.4566V119.02C52.4566 118.473 52.3232 118.057 52.0566 117.77C51.7966 117.483 51.4232 117.34 50.9366 117.34C50.3966 117.34 49.9666 117.51 49.6466 117.85C49.3332 118.183 49.1766 118.647 49.1766 119.24V122H48.4666V116.74H49.1466V117.7C49.3332 117.38 49.5932 117.133 49.9266 116.96C50.2599 116.787 50.6432 116.7 51.0766 116.7C51.5166 116.7 51.8966 116.793 52.2166 116.98C52.5432 117.167 52.7866 117.443 52.9466 117.81C53.1399 117.463 53.4166 117.193 53.7766 117C54.1432 116.8 54.5599 116.7 55.0266 116.7ZM60.482 122.05C60.0554 122.05 59.6454 121.99 59.252 121.87C58.8654 121.743 58.562 121.587 58.342 121.4L58.662 120.84C58.882 121.013 59.1587 121.157 59.492 121.27C59.8254 121.377 60.172 121.43 60.532 121.43C61.012 121.43 61.3654 121.357 61.592 121.21C61.8254 121.057 61.942 120.843 61.942 120.57C61.942 120.377 61.8787 120.227 61.752 120.12C61.6254 120.007 61.4654 119.923 61.272 119.87C61.0787 119.81 60.822 119.753 60.502 119.7C60.0754 119.62 59.732 119.54 59.472 119.46C59.212 119.373 58.9887 119.23 58.802 119.03C58.622 118.83 58.532 118.553 58.532 118.2C58.532 117.76 58.7154 117.4 59.082 117.12C59.4487 116.84 59.9587 116.7 60.612 116.7C60.952 116.7 61.292 116.747 61.632 116.84C61.972 116.927 62.252 117.043 62.472 117.19L62.162 117.76C61.7287 117.46 61.212 117.31 60.612 117.31C60.1587 117.31 59.8154 117.39 59.582 117.55C59.3554 117.71 59.242 117.92 59.242 118.18C59.242 118.38 59.3054 118.54 59.432 118.66C59.5654 118.78 59.7287 118.87 59.922 118.93C60.1154 118.983 60.382 119.04 60.722 119.1C61.142 119.18 61.4787 119.26 61.732 119.34C61.9854 119.42 62.202 119.557 62.382 119.75C62.562 119.943 62.652 120.21 62.652 120.55C62.652 121.01 62.4587 121.377 62.072 121.65C61.692 121.917 61.162 122.05 60.482 122.05Z" fill="#717171"/>
<path d="M26.46 93.75V100.75H25.74V94.39H24.09V93.75H26.46ZM32.9133 100.11V100.75H28.0033V100.24L30.9133 97.39C31.2799 97.03 31.5266 96.72 31.6533 96.46C31.7866 96.1933 31.8533 95.9267 31.8533 95.66C31.8533 95.2467 31.7099 94.9267 31.4233 94.7C31.1433 94.4667 30.7399 94.35 30.2133 94.35C29.3933 94.35 28.7566 94.61 28.3033 95.13L27.7933 94.69C28.0666 94.37 28.4133 94.1233 28.8333 93.95C29.2599 93.7767 29.7399 93.69 30.2733 93.69C30.9866 93.69 31.5499 93.86 31.9633 94.2C32.3833 94.5333 32.5933 94.9933 32.5933 95.58C32.5933 95.94 32.5133 96.2867 32.3533 96.62C32.1933 96.9533 31.8899 97.3367 31.4433 97.77L29.0633 100.11H32.9133ZM36.5678 100.81C36.0278 100.81 35.5445 100.667 35.1178 100.38C34.6978 100.093 34.3678 99.6833 34.1278 99.15C33.8945 98.61 33.7778 97.9767 33.7778 97.25C33.7778 96.5233 33.8945 95.8933 34.1278 95.36C34.3678 94.82 34.6978 94.4067 35.1178 94.12C35.5445 93.8333 36.0278 93.69 36.5678 93.69C37.1078 93.69 37.5878 93.8333 38.0078 94.12C38.4345 94.4067 38.7678 94.82 39.0078 95.36C39.2478 95.8933 39.3678 96.5233 39.3678 97.25C39.3678 97.9767 39.2478 98.61 39.0078 99.15C38.7678 99.6833 38.4345 100.093 38.0078 100.38C37.5878 100.667 37.1078 100.81 36.5678 100.81ZM36.5678 100.15C36.9745 100.15 37.3311 100.037 37.6378 99.81C37.9511 99.5833 38.1945 99.2533 38.3678 98.82C38.5411 98.3867 38.6278 97.8633 38.6278 97.25C38.6278 96.6367 38.5411 96.1133 38.3678 95.68C38.1945 95.2467 37.9511 94.9167 37.6378 94.69C37.3311 94.4633 36.9745 94.35 36.5678 94.35C36.1611 94.35 35.8011 94.4633 35.4878 94.69C35.1811 94.9167 34.9411 95.2467 34.7678 95.68C34.5945 96.1133 34.5078 96.6367 34.5078 97.25C34.5078 97.8633 34.5945 98.3867 34.7678 98.82C34.9411 99.2533 35.1811 99.5833 35.4878 99.81C35.8011 100.037 36.1611 100.15 36.5678 100.15ZM43.1889 100.81C42.6489 100.81 42.1656 100.667 41.7389 100.38C41.3189 100.093 40.9889 99.6833 40.7489 99.15C40.5156 98.61 40.3989 97.9767 40.3989 97.25C40.3989 96.5233 40.5156 95.8933 40.7489 95.36C40.9889 94.82 41.3189 94.4067 41.7389 94.12C42.1656 93.8333 42.6489 93.69 43.1889 93.69C43.7289 93.69 44.2089 93.8333 44.6289 94.12C45.0556 94.4067 45.3889 94.82 45.6289 95.36C45.8689 95.8933 45.9889 96.5233 45.9889 97.25C45.9889 97.9767 45.8689 98.61 45.6289 99.15C45.3889 99.6833 45.0556 100.093 44.6289 100.38C44.2089 100.667 43.7289 100.81 43.1889 100.81ZM43.1889 100.15C43.5956 100.15 43.9522 100.037 44.2589 99.81C44.5722 99.5833 44.8156 99.2533 44.9889 98.82C45.1622 98.3867 45.2489 97.8633 45.2489 97.25C45.2489 96.6367 45.1622 96.1133 44.9889 95.68C44.8156 95.2467 44.5722 94.9167 44.2589 94.69C43.9522 94.4633 43.5956 94.35 43.1889 94.35C42.7822 94.35 42.4222 94.4633 42.1089 94.69C41.8022 94.9167 41.5622 95.2467 41.3889 95.68C41.2156 96.1133 41.1289 96.6367 41.1289 97.25C41.1289 97.8633 41.2156 98.3867 41.3889 98.82C41.5622 99.2533 41.8022 99.5833 42.1089 99.81C42.4222 100.037 42.7822 100.15 43.1889 100.15ZM54.05 95.45C54.71 95.45 55.2267 95.64 55.6 96.02C55.98 96.4 56.17 96.96 56.17 97.7V100.75H55.46V97.77C55.46 97.2233 55.3267 96.8067 55.06 96.52C54.8 96.2333 54.43 96.09 53.95 96.09C53.4033 96.09 52.9733 96.26 52.66 96.6C52.3467 96.9333 52.19 97.3967 52.19 97.99V100.75H51.48V97.77C51.48 97.2233 51.3467 96.8067 51.08 96.52C50.82 96.2333 50.4467 96.09 49.96 96.09C49.42 96.09 48.99 96.26 48.67 96.6C48.3567 96.9333 48.2 97.3967 48.2 97.99V100.75H47.49V95.49H48.17V96.45C48.3567 96.13 48.6167 95.8833 48.95 95.71C49.2833 95.5367 49.6667 95.45 50.1 95.45C50.54 95.45 50.92 95.5433 51.24 95.73C51.5667 95.9167 51.81 96.1933 51.97 96.56C52.1633 96.2133 52.44 95.9433 52.8 95.75C53.1667 95.55 53.5833 95.45 54.05 95.45ZM59.5055 100.8C59.0788 100.8 58.6688 100.74 58.2755 100.62C57.8888 100.493 57.5855 100.337 57.3655 100.15L57.6855 99.59C57.9055 99.7633 58.1821 99.9067 58.5155 100.02C58.8488 100.127 59.1955 100.18 59.5555 100.18C60.0355 100.18 60.3888 100.107 60.6155 99.96C60.8488 99.8067 60.9655 99.5933 60.9655 99.32C60.9655 99.1267 60.9021 98.9767 60.7755 98.87C60.6488 98.7567 60.4888 98.6733 60.2955 98.62C60.1021 98.56 59.8455 98.5033 59.5255 98.45C59.0988 98.37 58.7555 98.29 58.4955 98.21C58.2355 98.1233 58.0121 97.98 57.8255 97.78C57.6455 97.58 57.5555 97.3033 57.5555 96.95C57.5555 96.51 57.7388 96.15 58.1055 95.87C58.4721 95.59 58.9821 95.45 59.6355 95.45C59.9755 95.45 60.3155 95.4967 60.6555 95.59C60.9955 95.6767 61.2755 95.7933 61.4955 95.94L61.1855 96.51C60.7521 96.21 60.2355 96.06 59.6355 96.06C59.1821 96.06 58.8388 96.14 58.6055 96.3C58.3788 96.46 58.2655 96.67 58.2655 96.93C58.2655 97.13 58.3288 97.29 58.4555 97.41C58.5888 97.53 58.7521 97.62 58.9455 97.68C59.1388 97.7333 59.4055 97.79 59.7455 97.85C60.1655 97.93 60.5021 98.01 60.7555 98.09C61.0088 98.17 61.2255 98.3067 61.4055 98.5C61.5855 98.6933 61.6755 98.96 61.6755 99.3C61.6755 99.76 61.4821 100.127 61.0955 100.4C60.7155 100.667 60.1855 100.8 59.5055 100.8Z" fill="#717171"/>
<path d="M26.46 75V82H25.74V75.64H24.09V75H26.46ZM34.0833 80.16H32.6833V82H31.9633V80.16H28.0133V79.64L31.7233 75H32.5233L28.9433 79.52H31.9833V77.9H32.6833V79.52H34.0833V80.16ZM37.5346 82.06C36.9946 82.06 36.5113 81.9167 36.0846 81.63C35.6646 81.3433 35.3346 80.9333 35.0946 80.4C34.8613 79.86 34.7446 79.2267 34.7446 78.5C34.7446 77.7733 34.8613 77.1433 35.0946 76.61C35.3346 76.07 35.6646 75.6567 36.0846 75.37C36.5113 75.0833 36.9946 74.94 37.5346 74.94C38.0746 74.94 38.5546 75.0833 38.9746 75.37C39.4013 75.6567 39.7346 76.07 39.9746 76.61C40.2146 77.1433 40.3346 77.7733 40.3346 78.5C40.3346 79.2267 40.2146 79.86 39.9746 80.4C39.7346 80.9333 39.4013 81.3433 38.9746 81.63C38.5546 81.9167 38.0746 82.06 37.5346 82.06ZM37.5346 81.4C37.9413 81.4 38.2979 81.2867 38.6046 81.06C38.9179 80.8333 39.1613 80.5033 39.3346 80.07C39.5079 79.6367 39.5946 79.1133 39.5946 78.5C39.5946 77.8867 39.5079 77.3633 39.3346 76.93C39.1613 76.4967 38.9179 76.1667 38.6046 75.94C38.2979 75.7133 37.9413 75.6 37.5346 75.6C37.1279 75.6 36.7679 75.7133 36.4546 75.94C36.1479 76.1667 35.9079 76.4967 35.7346 76.93C35.5613 77.3633 35.4746 77.8867 35.4746 78.5C35.4746 79.1133 35.5613 79.6367 35.7346 80.07C35.9079 80.5033 36.1479 80.8333 36.4546 81.06C36.7679 81.2867 37.1279 81.4 37.5346 81.4ZM44.1557 82.06C43.6157 82.06 43.1324 81.9167 42.7057 81.63C42.2857 81.3433 41.9557 80.9333 41.7157 80.4C41.4824 79.86 41.3657 79.2267 41.3657 78.5C41.3657 77.7733 41.4824 77.1433 41.7157 76.61C41.9557 76.07 42.2857 75.6567 42.7057 75.37C43.1324 75.0833 43.6157 74.94 44.1557 74.94C44.6957 74.94 45.1757 75.0833 45.5957 75.37C46.0224 75.6567 46.3557 76.07 46.5957 76.61C46.8357 77.1433 46.9557 77.7733 46.9557 78.5C46.9557 79.2267 46.8357 79.86 46.5957 80.4C46.3557 80.9333 46.0224 81.3433 45.5957 81.63C45.1757 81.9167 44.6957 82.06 44.1557 82.06ZM44.1557 81.4C44.5624 81.4 44.919 81.2867 45.2257 81.06C45.539 80.8333 45.7824 80.5033 45.9557 80.07C46.129 79.6367 46.2157 79.1133 46.2157 78.5C46.2157 77.8867 46.129 77.3633 45.9557 76.93C45.7824 76.4967 45.539 76.1667 45.2257 75.94C44.919 75.7133 44.5624 75.6 44.1557 75.6C43.749 75.6 43.389 75.7133 43.0757 75.94C42.769 76.1667 42.529 76.4967 42.3557 76.93C42.1824 77.3633 42.0957 77.8867 42.0957 78.5C42.0957 79.1133 42.1824 79.6367 42.3557 80.07C42.529 80.5033 42.769 80.8333 43.0757 81.06C43.389 81.2867 43.749 81.4 44.1557 81.4ZM55.0168 76.7C55.6768 76.7 56.1935 76.89 56.5668 77.27C56.9468 77.65 57.1368 78.21 57.1368 78.95V82H56.4268V79.02C56.4268 78.4733 56.2935 78.0567 56.0268 77.77C55.7668 77.4833 55.3968 77.34 54.9168 77.34C54.3701 77.34 53.9401 77.51 53.6268 77.85C53.3135 78.1833 53.1568 78.6467 53.1568 79.24V82H52.4468V79.02C52.4468 78.4733 52.3135 78.0567 52.0468 77.77C51.7868 77.4833 51.4135 77.34 50.9268 77.34C50.3868 77.34 49.9568 77.51 49.6368 77.85C49.3235 78.1833 49.1668 78.6467 49.1668 79.24V82H48.4568V76.74H49.1368V77.7C49.3235 77.38 49.5835 77.1333 49.9168 76.96C50.2501 76.7867 50.6335 76.7 51.0668 76.7C51.5068 76.7 51.8868 76.7933 52.2068 76.98C52.5335 77.1667 52.7768 77.4433 52.9368 77.81C53.1301 77.4633 53.4068 77.1933 53.7668 77C54.1335 76.8 54.5501 76.7 55.0168 76.7ZM60.4723 82.05C60.0456 82.05 59.6356 81.99 59.2423 81.87C58.8556 81.7433 58.5523 81.5867 58.3323 81.4L58.6523 80.84C58.8723 81.0133 59.1489 81.1567 59.4823 81.27C59.8156 81.3767 60.1623 81.43 60.5223 81.43C61.0023 81.43 61.3556 81.3567 61.5823 81.21C61.8156 81.0567 61.9323 80.8433 61.9323 80.57C61.9323 80.3767 61.8689 80.2267 61.7423 80.12C61.6156 80.0067 61.4556 79.9233 61.2623 79.87C61.0689 79.81 60.8123 79.7533 60.4923 79.7C60.0656 79.62 59.7223 79.54 59.4623 79.46C59.2023 79.3733 58.9789 79.23 58.7923 79.03C58.6123 78.83 58.5223 78.5533 58.5223 78.2C58.5223 77.76 58.7056 77.4 59.0723 77.12C59.4389 76.84 59.9489 76.7 60.6023 76.7C60.9423 76.7 61.2823 76.7467 61.6223 76.84C61.9623 76.9267 62.2423 77.0433 62.4623 77.19L62.1523 77.76C61.7189 77.46 61.2023 77.31 60.6023 77.31C60.1489 77.31 59.8056 77.39 59.5723 77.55C59.3456 77.71 59.2323 77.92 59.2323 78.18C59.2323 78.38 59.2956 78.54 59.4223 78.66C59.5556 78.78 59.7189 78.87 59.9123 78.93C60.1056 78.9833 60.3723 79.04 60.7123 79.1C61.1323 79.18 61.4689 79.26 61.7223 79.34C61.9756 79.42 62.1923 79.5567 62.3723 79.75C62.5523 79.9433 62.6423 80.21 62.6423 80.55C62.6423 81.01 62.4489 81.3767 62.0623 81.65C61.6823 81.9167 61.1523 82.05 60.4723 82.05Z" fill="#717171"/>
<path d="M26.46 55V62H25.74V55.64H24.09V55H26.46ZM31.0333 57.81C31.4933 57.81 31.8999 57.8967 32.2533 58.07C32.6133 58.2433 32.8933 58.49 33.0933 58.81C33.2933 59.1233 33.3933 59.49 33.3933 59.91C33.3933 60.3367 33.2899 60.7133 33.0833 61.04C32.8766 61.3667 32.5899 61.62 32.2233 61.8C31.8633 61.9733 31.4566 62.06 31.0033 62.06C30.0766 62.06 29.3666 61.7567 28.8733 61.15C28.3799 60.5367 28.1333 59.6733 28.1333 58.56C28.1333 57.78 28.2666 57.12 28.5333 56.58C28.7999 56.04 29.1733 55.6333 29.6533 55.36C30.1333 55.08 30.6933 54.94 31.3333 54.94C32.0266 54.94 32.5799 55.0667 32.9933 55.32L32.7033 55.9C32.3699 55.68 31.9166 55.57 31.3433 55.57C30.5699 55.57 29.9633 55.8167 29.5233 56.31C29.0833 56.7967 28.8633 57.5067 28.8633 58.44C28.8633 58.6067 28.8733 58.7967 28.8933 59.01C29.0666 58.63 29.3433 58.3367 29.7233 58.13C30.1033 57.9167 30.5399 57.81 31.0333 57.81ZM30.9733 61.45C31.4799 61.45 31.8899 61.3133 32.2033 61.04C32.5233 60.76 32.6833 60.39 32.6833 59.93C32.6833 59.47 32.5233 59.1033 32.2033 58.83C31.8899 58.5567 31.4633 58.42 30.9233 58.42C30.5699 58.42 30.2566 58.4867 29.9833 58.62C29.7166 58.7533 29.5066 58.9367 29.3533 59.17C29.1999 59.4033 29.1233 59.6633 29.1233 59.95C29.1233 60.2167 29.1933 60.4633 29.3333 60.69C29.4799 60.9167 29.6933 61.1 29.9733 61.24C30.2533 61.38 30.5866 61.45 30.9733 61.45ZM37.017 62.06C36.477 62.06 35.9937 61.9167 35.567 61.63C35.147 61.3433 34.817 60.9333 34.577 60.4C34.3437 59.86 34.227 59.2267 34.227 58.5C34.227 57.7733 34.3437 57.1433 34.577 56.61C34.817 56.07 35.147 55.6567 35.567 55.37C35.9937 55.0833 36.477 54.94 37.017 54.94C37.557 54.94 38.037 55.0833 38.457 55.37C38.8837 55.6567 39.217 56.07 39.457 56.61C39.697 57.1433 39.817 57.7733 39.817 58.5C39.817 59.2267 39.697 59.86 39.457 60.4C39.217 60.9333 38.8837 61.3433 38.457 61.63C38.037 61.9167 37.557 62.06 37.017 62.06ZM37.017 61.4C37.4237 61.4 37.7804 61.2867 38.087 61.06C38.4004 60.8333 38.6437 60.5033 38.817 60.07C38.9904 59.6367 39.077 59.1133 39.077 58.5C39.077 57.8867 38.9904 57.3633 38.817 56.93C38.6437 56.4967 38.4004 56.1667 38.087 55.94C37.7804 55.7133 37.4237 55.6 37.017 55.6C36.6104 55.6 36.2504 55.7133 35.937 55.94C35.6304 56.1667 35.3904 56.4967 35.217 56.93C35.0437 57.3633 34.957 57.8867 34.957 58.5C34.957 59.1133 35.0437 59.6367 35.217 60.07C35.3904 60.5033 35.6304 60.8333 35.937 61.06C36.2504 61.2867 36.6104 61.4 37.017 61.4ZM43.6381 62.06C43.0981 62.06 42.6148 61.9167 42.1881 61.63C41.7681 61.3433 41.4381 60.9333 41.1981 60.4C40.9648 59.86 40.8481 59.2267 40.8481 58.5C40.8481 57.7733 40.9648 57.1433 41.1981 56.61C41.4381 56.07 41.7681 55.6567 42.1881 55.37C42.6148 55.0833 43.0981 54.94 43.6381 54.94C44.1781 54.94 44.6581 55.0833 45.0781 55.37C45.5048 55.6567 45.8381 56.07 46.0781 56.61C46.3181 57.1433 46.4381 57.7733 46.4381 58.5C46.4381 59.2267 46.3181 59.86 46.0781 60.4C45.8381 60.9333 45.5048 61.3433 45.0781 61.63C44.6581 61.9167 44.1781 62.06 43.6381 62.06ZM43.6381 61.4C44.0448 61.4 44.4015 61.2867 44.7081 61.06C45.0215 60.8333 45.2648 60.5033 45.4381 60.07C45.6115 59.6367 45.6981 59.1133 45.6981 58.5C45.6981 57.8867 45.6115 57.3633 45.4381 56.93C45.2648 56.4967 45.0215 56.1667 44.7081 55.94C44.4015 55.7133 44.0448 55.6 43.6381 55.6C43.2315 55.6 42.8715 55.7133 42.5581 55.94C42.2515 56.1667 42.0115 56.4967 41.8381 56.93C41.6648 57.3633 41.5781 57.8867 41.5781 58.5C41.5781 59.1133 41.6648 59.6367 41.8381 60.07C42.0115 60.5033 42.2515 60.8333 42.5581 61.06C42.8715 61.2867 43.2315 61.4 43.6381 61.4ZM54.4992 56.7C55.1592 56.7 55.6759 56.89 56.0492 57.27C56.4292 57.65 56.6192 58.21 56.6192 58.95V62H55.9092V59.02C55.9092 58.4733 55.7759 58.0567 55.5092 57.77C55.2492 57.4833 54.8792 57.34 54.3992 57.34C53.8526 57.34 53.4226 57.51 53.1092 57.85C52.7959 58.1833 52.6392 58.6467 52.6392 59.24V62H51.9292V59.02C51.9292 58.4733 51.7959 58.0567 51.5292 57.77C51.2692 57.4833 50.8959 57.34 50.4092 57.34C49.8692 57.34 49.4392 57.51 49.1192 57.85C48.8059 58.1833 48.6492 58.6467 48.6492 59.24V62H47.9392V56.74H48.6192V57.7C48.8059 57.38 49.0659 57.1333 49.3992 56.96C49.7326 56.7867 50.1159 56.7 50.5492 56.7C50.9892 56.7 51.3692 56.7933 51.6892 56.98C52.0159 57.1667 52.2592 57.4433 52.4192 57.81C52.6126 57.4633 52.8892 57.1933 53.2492 57C53.6159 56.8 54.0326 56.7 54.4992 56.7ZM59.9547 62.05C59.528 62.05 59.118 61.99 58.7247 61.87C58.338 61.7433 58.0347 61.5867 57.8147 61.4L58.1347 60.84C58.3547 61.0133 58.6314 61.1567 58.9647 61.27C59.298 61.3767 59.6447 61.43 60.0047 61.43C60.4847 61.43 60.838 61.3567 61.0647 61.21C61.298 61.0567 61.4147 60.8433 61.4147 60.57C61.4147 60.3767 61.3514 60.2267 61.2247 60.12C61.098 60.0067 60.938 59.9233 60.7447 59.87C60.5514 59.81 60.2947 59.7533 59.9747 59.7C59.548 59.62 59.2047 59.54 58.9447 59.46C58.6847 59.3733 58.4614 59.23 58.2747 59.03C58.0947 58.83 58.0047 58.5533 58.0047 58.2C58.0047 57.76 58.188 57.4 58.5547 57.12C58.9214 56.84 59.4314 56.7 60.0847 56.7C60.4247 56.7 60.7647 56.7467 61.1047 56.84C61.4447 56.9267 61.7247 57.0433 61.9447 57.19L61.6347 57.76C61.2014 57.46 60.6847 57.31 60.0847 57.31C59.6314 57.31 59.288 57.39 59.0547 57.55C58.828 57.71 58.7147 57.92 58.7147 58.18C58.7147 58.38 58.778 58.54 58.9047 58.66C59.038 58.78 59.2014 58.87 59.3947 58.93C59.588 58.9833 59.8547 59.04 60.1947 59.1C60.6147 59.18 60.9514 59.26 61.2047 59.34C61.458 59.42 61.6747 59.5567 61.8547 59.75C62.0347 59.9433 62.1247 60.21 62.1247 60.55C62.1247 61.01 61.9314 61.3767 61.5447 61.65C61.1647 61.9167 60.6347 62.05 59.9547 62.05Z" fill="#717171"/>
<path d="M403.864 248.56C403.324 248.56 402.841 248.417 402.414 248.13C401.994 247.843 401.664 247.433 401.424 246.9C401.191 246.36 401.074 245.727 401.074 245C401.074 244.273 401.191 243.643 401.424 243.11C401.664 242.57 401.994 242.157 402.414 241.87C402.841 241.583 403.324 241.44 403.864 241.44C404.404 241.44 404.884 241.583 405.304 241.87C405.731 242.157 406.064 242.57 406.304 243.11C406.544 243.643 406.664 244.273 406.664 245C406.664 245.727 406.544 246.36 406.304 246.9C406.064 247.433 405.731 247.843 405.304 248.13C404.884 248.417 404.404 248.56 403.864 248.56ZM403.864 247.9C404.271 247.9 404.627 247.787 404.934 247.56C405.247 247.333 405.491 247.003 405.664 246.57C405.837 246.137 405.924 245.613 405.924 245C405.924 244.387 405.837 243.863 405.664 243.43C405.491 242.997 405.247 242.667 404.934 242.44C404.627 242.213 404.271 242.1 403.864 242.1C403.457 242.1 403.097 242.213 402.784 242.44C402.477 242.667 402.237 242.997 402.064 243.43C401.891 243.863 401.804 244.387 401.804 245C401.804 245.613 401.891 246.137 402.064 246.57C402.237 247.003 402.477 247.333 402.784 247.56C403.097 247.787 403.457 247.9 403.864 247.9ZM409.616 241.5V248.5H408.896V242.14H407.246V241.5H409.616ZM411.829 244.29C411.682 244.29 411.556 244.237 411.449 244.13C411.349 244.023 411.299 243.893 411.299 243.74C411.299 243.587 411.349 243.46 411.449 243.36C411.556 243.253 411.682 243.2 411.829 243.2C411.976 243.2 412.102 243.253 412.209 243.36C412.316 243.46 412.369 243.587 412.369 243.74C412.369 243.893 412.316 244.023 412.209 244.13C412.102 244.237 411.976 244.29 411.829 244.29ZM411.829 248.55C411.682 248.55 411.556 248.497 411.449 248.39C411.349 248.283 411.299 248.153 411.299 248C411.299 247.847 411.349 247.72 411.449 247.62C411.556 247.513 411.682 247.46 411.829 247.46C411.976 247.46 412.102 247.513 412.209 247.62C412.316 247.72 412.369 247.847 412.369 248C412.369 248.153 412.316 248.283 412.209 248.39C412.102 248.497 411.976 248.55 411.829 248.55ZM415.248 244.37C416.261 244.37 416.998 244.553 417.458 244.92C417.925 245.28 418.158 245.787 418.158 246.44C418.158 246.847 418.061 247.21 417.868 247.53C417.681 247.85 417.398 248.103 417.018 248.29C416.638 248.47 416.171 248.56 415.618 248.56C415.118 248.56 414.641 248.48 414.188 248.32C413.741 248.153 413.381 247.933 413.108 247.66L413.458 247.09C413.691 247.33 413.998 247.527 414.378 247.68C414.758 247.827 415.168 247.9 415.608 247.9C416.188 247.9 416.635 247.77 416.948 247.51C417.268 247.25 417.428 246.903 417.428 246.47C417.428 245.99 417.248 245.627 416.888 245.38C416.535 245.133 415.935 245.01 415.088 245.01H413.598L413.958 241.5H417.788V242.14H414.588L414.348 244.37H415.248ZM423.082 244.83C423.522 244.977 423.859 245.197 424.092 245.49C424.332 245.783 424.452 246.137 424.452 246.55C424.452 246.957 424.342 247.313 424.122 247.62C423.902 247.92 423.585 248.153 423.172 248.32C422.765 248.48 422.285 248.56 421.732 248.56C420.892 248.56 420.232 248.38 419.752 248.02C419.272 247.66 419.032 247.17 419.032 246.55C419.032 246.13 419.145 245.777 419.372 245.49C419.605 245.197 419.942 244.977 420.382 244.83C420.022 244.69 419.749 244.49 419.562 244.23C419.375 243.963 419.282 243.65 419.282 243.29C419.282 242.723 419.502 242.273 419.942 241.94C420.389 241.607 420.985 241.44 421.732 241.44C422.225 241.44 422.655 241.517 423.022 241.67C423.395 241.817 423.685 242.03 423.892 242.31C424.099 242.59 424.202 242.917 424.202 243.29C424.202 243.65 424.105 243.963 423.912 244.23C423.719 244.49 423.442 244.69 423.082 244.83ZM420.002 243.31C420.002 243.697 420.155 244.003 420.462 244.23C420.769 244.457 421.192 244.57 421.732 244.57C422.272 244.57 422.695 244.457 423.002 244.23C423.315 244.003 423.472 243.7 423.472 243.32C423.472 242.927 423.312 242.617 422.992 242.39C422.679 242.163 422.259 242.05 421.732 242.05C421.199 242.05 420.775 242.163 420.462 242.39C420.155 242.617 420.002 242.923 420.002 243.31ZM421.732 247.95C422.352 247.95 422.835 247.823 423.182 247.57C423.535 247.317 423.712 246.973 423.712 246.54C423.712 246.107 423.535 245.767 423.182 245.52C422.835 245.267 422.352 245.14 421.732 245.14C421.119 245.14 420.635 245.267 420.282 245.52C419.935 245.767 419.762 246.107 419.762 246.54C419.762 246.98 419.935 247.327 420.282 247.58C420.629 247.827 421.112 247.95 421.732 247.95ZM430.41 246.63H426.51L425.67 248.5H424.9L428.1 241.5H428.83L432.03 248.5H431.25L430.41 246.63ZM430.14 246.03L428.46 242.27L426.78 246.03H430.14ZM440.458 241.5V248.5H439.748V242.9L436.998 247.61H436.648L433.898 242.93V248.5H433.188V241.5H433.798L436.838 246.69L439.848 241.5H440.458ZM441.599 245.53H446.599V246.04H441.599V245.53ZM452.526 248.56C451.986 248.56 451.503 248.417 451.076 248.13C450.656 247.843 450.326 247.433 450.086 246.9C449.853 246.36 449.736 245.727 449.736 245C449.736 244.273 449.853 243.643 450.086 243.11C450.326 242.57 450.656 242.157 451.076 241.87C451.503 241.583 451.986 241.44 452.526 241.44C453.066 241.44 453.546 241.583 453.966 241.87C454.393 242.157 454.726 242.57 454.966 243.11C455.206 243.643 455.326 244.273 455.326 245C455.326 245.727 455.206 246.36 454.966 246.9C454.726 247.433 454.393 247.843 453.966 248.13C453.546 248.417 453.066 248.56 452.526 248.56ZM452.526 247.9C452.933 247.9 453.29 247.787 453.596 247.56C453.91 247.333 454.153 247.003 454.326 246.57C454.5 246.137 454.586 245.613 454.586 245C454.586 244.387 454.5 243.863 454.326 243.43C454.153 242.997 453.91 242.667 453.596 242.44C453.29 242.213 452.933 242.1 452.526 242.1C452.12 242.1 451.76 242.213 451.446 242.44C451.14 242.667 450.9 242.997 450.726 243.43C450.553 243.863 450.466 244.387 450.466 245C450.466 245.613 450.553 246.137 450.726 246.57C450.9 247.003 451.14 247.333 451.446 247.56C451.76 247.787 452.12 247.9 452.526 247.9ZM458.278 241.5V248.5H457.558V242.14H455.908V241.5H458.278ZM460.491 244.29C460.344 244.29 460.218 244.237 460.111 244.13C460.011 244.023 459.961 243.893 459.961 243.74C459.961 243.587 460.011 243.46 460.111 243.36C460.218 243.253 460.344 243.2 460.491 243.2C460.638 243.2 460.764 243.253 460.871 243.36C460.978 243.46 461.031 243.587 461.031 243.74C461.031 243.893 460.978 244.023 460.871 244.13C460.764 244.237 460.638 244.29 460.491 244.29ZM460.491 248.55C460.344 248.55 460.218 248.497 460.111 248.39C460.011 248.283 459.961 248.153 459.961 248C459.961 247.847 460.011 247.72 460.111 247.62C460.218 247.513 460.344 247.46 460.491 247.46C460.638 247.46 460.764 247.513 460.871 247.62C460.978 247.72 461.031 247.847 461.031 248C461.031 248.153 460.978 248.283 460.871 248.39C460.764 248.497 460.638 248.55 460.491 248.55ZM463.91 244.37C464.924 244.37 465.66 244.553 466.12 244.92C466.587 245.28 466.82 245.787 466.82 246.44C466.82 246.847 466.724 247.21 466.53 247.53C466.344 247.85 466.06 248.103 465.68 248.29C465.3 248.47 464.834 248.56 464.28 248.56C463.78 248.56 463.304 248.48 462.85 248.32C462.404 248.153 462.044 247.933 461.77 247.66L462.12 247.09C462.354 247.33 462.66 247.527 463.04 247.68C463.42 247.827 463.83 247.9 464.27 247.9C464.85 247.9 465.297 247.77 465.61 247.51C465.93 247.25 466.09 246.903 466.09 246.47C466.09 245.99 465.91 245.627 465.55 245.38C465.197 245.133 464.597 245.01 463.75 245.01H462.26L462.62 241.5H466.45V242.14H463.25L463.01 244.37H463.91ZM469.914 241.44C470.841 241.44 471.551 241.747 472.044 242.36C472.538 242.967 472.784 243.827 472.784 244.94C472.784 245.72 472.651 246.38 472.384 246.92C472.118 247.46 471.744 247.87 471.264 248.15C470.784 248.423 470.224 248.56 469.584 248.56C468.891 248.56 468.338 248.433 467.924 248.18L468.214 247.6C468.548 247.82 469.001 247.93 469.574 247.93C470.348 247.93 470.954 247.687 471.394 247.2C471.834 246.707 472.054 245.993 472.054 245.06C472.054 244.887 472.044 244.697 472.024 244.49C471.851 244.87 471.574 245.167 471.194 245.38C470.814 245.587 470.378 245.69 469.884 245.69C469.424 245.69 469.014 245.603 468.654 245.43C468.301 245.257 468.024 245.013 467.824 244.7C467.624 244.38 467.524 244.01 467.524 243.59C467.524 243.163 467.628 242.787 467.834 242.46C468.041 242.133 468.324 241.883 468.684 241.71C469.051 241.53 469.461 241.44 469.914 241.44ZM469.994 245.08C470.348 245.08 470.658 245.013 470.924 244.88C471.198 244.747 471.411 244.563 471.564 244.33C471.718 244.097 471.794 243.837 471.794 243.55C471.794 243.283 471.721 243.037 471.574 242.81C471.434 242.583 471.224 242.4 470.944 242.26C470.664 242.12 470.331 242.05 469.944 242.05C469.438 242.05 469.024 242.19 468.704 242.47C468.391 242.743 468.234 243.11 468.234 243.57C468.234 244.03 468.391 244.397 468.704 244.67C469.024 244.943 469.454 245.08 469.994 245.08ZM478.77 246.63H474.87L474.03 248.5H473.26L476.46 241.5H477.19L480.39 248.5H479.61L478.77 246.63ZM478.5 246.03L476.82 242.27L475.14 246.03H478.5ZM488.818 241.5V248.5H488.108V242.9L485.358 247.61H485.008L482.258 242.93V248.5H481.548V241.5H482.158L485.198 246.69L488.208 241.5H488.818Z" fill="black"/>
<path d="M116.309 248.56C115.769 248.56 115.285 248.417 114.859 248.13C114.439 247.843 114.109 247.433 113.869 246.9C113.635 246.36 113.519 245.727 113.519 245C113.519 244.273 113.635 243.643 113.869 243.11C114.109 242.57 114.439 242.157 114.859 241.87C115.285 241.583 115.769 241.44 116.309 241.44C116.849 241.44 117.329 241.583 117.749 241.87C118.175 242.157 118.509 242.57 118.749 243.11C118.989 243.643 119.109 244.273 119.109 245C119.109 245.727 118.989 246.36 118.749 246.9C118.509 247.433 118.175 247.843 117.749 248.13C117.329 248.417 116.849 248.56 116.309 248.56ZM116.309 247.9C116.715 247.9 117.072 247.787 117.379 247.56C117.692 247.333 117.935 247.003 118.109 246.57C118.282 246.137 118.369 245.613 118.369 245C118.369 244.387 118.282 243.863 118.109 243.43C117.935 242.997 117.692 242.667 117.379 242.44C117.072 242.213 116.715 242.1 116.309 242.1C115.902 242.1 115.542 242.213 115.229 242.44C114.922 242.667 114.682 242.997 114.509 243.43C114.335 243.863 114.249 244.387 114.249 245C114.249 245.613 114.335 246.137 114.509 246.57C114.682 247.003 114.922 247.333 115.229 247.56C115.542 247.787 115.902 247.9 116.309 247.9ZM122.06 241.5V248.5H121.34V242.14H119.69V241.5H122.06ZM124.274 244.29C124.127 244.29 124 244.237 123.894 244.13C123.794 244.023 123.744 243.893 123.744 243.74C123.744 243.587 123.794 243.46 123.894 243.36C124 243.253 124.127 243.2 124.274 243.2C124.42 243.2 124.547 243.253 124.654 243.36C124.76 243.46 124.814 243.587 124.814 243.74C124.814 243.893 124.76 244.023 124.654 244.13C124.547 244.237 124.42 244.29 124.274 244.29ZM124.274 248.55C124.127 248.55 124 248.497 123.894 248.39C123.794 248.283 123.744 248.153 123.744 248C123.744 247.847 123.794 247.72 123.894 247.62C124 247.513 124.127 247.46 124.274 247.46C124.42 247.46 124.547 247.513 124.654 247.62C124.76 247.72 124.814 247.847 124.814 248C124.814 248.153 124.76 248.283 124.654 248.39C124.547 248.497 124.42 248.55 124.274 248.55ZM127.693 244.37C128.706 244.37 129.443 244.553 129.903 244.92C130.369 245.28 130.603 245.787 130.603 246.44C130.603 246.847 130.506 247.21 130.313 247.53C130.126 247.85 129.843 248.103 129.463 248.29C129.083 248.47 128.616 248.56 128.063 248.56C127.563 248.56 127.086 248.48 126.633 248.32C126.186 248.153 125.826 247.933 125.553 247.66L125.903 247.09C126.136 247.33 126.443 247.527 126.823 247.68C127.203 247.827 127.613 247.9 128.053 247.9C128.633 247.9 129.079 247.77 129.393 247.51C129.713 247.25 129.873 246.903 129.873 246.47C129.873 245.99 129.693 245.627 129.333 245.38C128.979 245.133 128.379 245.01 127.533 245.01H126.043L126.403 241.5H130.233V242.14H127.033L126.793 244.37H127.693ZM134.307 248.56C133.767 248.56 133.284 248.417 132.857 248.13C132.437 247.843 132.107 247.433 131.867 246.9C131.634 246.36 131.517 245.727 131.517 245C131.517 244.273 131.634 243.643 131.867 243.11C132.107 242.57 132.437 242.157 132.857 241.87C133.284 241.583 133.767 241.44 134.307 241.44C134.847 241.44 135.327 241.583 135.747 241.87C136.174 242.157 136.507 242.57 136.747 243.11C136.987 243.643 137.107 244.273 137.107 245C137.107 245.727 136.987 246.36 136.747 246.9C136.507 247.433 136.174 247.843 135.747 248.13C135.327 248.417 134.847 248.56 134.307 248.56ZM134.307 247.9C134.714 247.9 135.07 247.787 135.377 247.56C135.69 247.333 135.934 247.003 136.107 246.57C136.28 246.137 136.367 245.613 136.367 245C136.367 244.387 136.28 243.863 136.107 243.43C135.934 242.997 135.69 242.667 135.377 242.44C135.07 242.213 134.714 242.1 134.307 242.1C133.9 242.1 133.54 242.213 133.227 242.44C132.92 242.667 132.68 242.997 132.507 243.43C132.334 243.863 132.247 244.387 132.247 245C132.247 245.613 132.334 246.137 132.507 246.57C132.68 247.003 132.92 247.333 133.227 247.56C133.54 247.787 133.9 247.9 134.307 247.9ZM143.08 246.63H139.18L138.34 248.5H137.57L140.77 241.5H141.5L144.7 248.5H143.92L143.08 246.63ZM142.81 246.03L141.13 242.27L139.45 246.03H142.81ZM153.128 241.5V248.5H152.418V242.9L149.668 247.61H149.318L146.568 242.93V248.5H145.858V241.5H146.468L149.508 246.69L152.518 241.5H153.128Z" fill="black"/>
<path d="M241.252 248.56C240.712 248.56 240.228 248.417 239.802 248.13C239.382 247.843 239.052 247.433 238.812 246.9C238.578 246.36 238.462 245.727 238.462 245C238.462 244.273 238.578 243.643 238.812 243.11C239.052 242.57 239.382 242.157 239.802 241.87C240.228 241.583 240.712 241.44 241.252 241.44C241.792 241.44 242.272 241.583 242.692 241.87C243.118 242.157 243.452 242.57 243.692 243.11C243.932 243.643 244.052 244.273 244.052 245C244.052 245.727 243.932 246.36 243.692 246.9C243.452 247.433 243.118 247.843 242.692 248.13C242.272 248.417 241.792 248.56 241.252 248.56ZM241.252 247.9C241.658 247.9 242.015 247.787 242.322 247.56C242.635 247.333 242.878 247.003 243.052 246.57C243.225 246.137 243.312 245.613 243.312 245C243.312 244.387 243.225 243.863 243.052 243.43C242.878 242.997 242.635 242.667 242.322 242.44C242.015 242.213 241.658 242.1 241.252 242.1C240.845 242.1 240.485 242.213 240.172 242.44C239.865 242.667 239.625 242.997 239.452 243.43C239.278 243.863 239.192 244.387 239.192 245C239.192 245.613 239.278 246.137 239.452 246.57C239.625 247.003 239.865 247.333 240.172 247.56C240.485 247.787 240.845 247.9 241.252 247.9ZM247.003 241.5V248.5H246.283V242.14H244.633V241.5H247.003ZM249.216 244.29C249.07 244.29 248.943 244.237 248.836 244.13C248.736 244.023 248.686 243.893 248.686 243.74C248.686 243.587 248.736 243.46 248.836 243.36C248.943 243.253 249.07 243.2 249.216 243.2C249.363 243.2 249.49 243.253 249.596 243.36C249.703 243.46 249.756 243.587 249.756 243.74C249.756 243.893 249.703 244.023 249.596 244.13C249.49 244.237 249.363 244.29 249.216 244.29ZM249.216 248.55C249.07 248.55 248.943 248.497 248.836 248.39C248.736 248.283 248.686 248.153 248.686 248C248.686 247.847 248.736 247.72 248.836 247.62C248.943 247.513 249.07 247.46 249.216 247.46C249.363 247.46 249.49 247.513 249.596 247.62C249.703 247.72 249.756 247.847 249.756 248C249.756 248.153 249.703 248.283 249.596 248.39C249.49 248.497 249.363 248.55 249.216 248.55ZM252.636 244.37C253.649 244.37 254.386 244.553 254.846 244.92C255.312 245.28 255.546 245.787 255.546 246.44C255.546 246.847 255.449 247.21 255.256 247.53C255.069 247.85 254.786 248.103 254.406 248.29C254.026 248.47 253.559 248.56 253.006 248.56C252.506 248.56 252.029 248.48 251.576 248.32C251.129 248.153 250.769 247.933 250.496 247.66L250.846 247.09C251.079 247.33 251.386 247.527 251.766 247.68C252.146 247.827 252.556 247.9 252.996 247.9C253.576 247.9 254.022 247.77 254.336 247.51C254.656 247.25 254.816 246.903 254.816 246.47C254.816 245.99 254.636 245.627 254.276 245.38C253.922 245.133 253.322 245.01 252.476 245.01H250.986L251.346 241.5H255.176V242.14H251.976L251.736 244.37H252.636ZM258.251 244.37C259.264 244.37 260.001 244.553 260.461 244.92C260.927 245.28 261.161 245.787 261.161 246.44C261.161 246.847 261.064 247.21 260.871 247.53C260.684 247.85 260.401 248.103 260.021 248.29C259.641 248.47 259.174 248.56 258.621 248.56C258.121 248.56 257.644 248.48 257.191 248.32C256.744 248.153 256.384 247.933 256.111 247.66L256.461 247.09C256.694 247.33 257.001 247.527 257.381 247.68C257.761 247.827 258.171 247.9 258.611 247.9C259.191 247.9 259.637 247.77 259.951 247.51C260.271 247.25 260.431 246.903 260.431 246.47C260.431 245.99 260.251 245.627 259.891 245.38C259.537 245.133 258.937 245.01 258.091 245.01H256.601L256.961 241.5H260.791V242.14H257.591L257.351 244.37H258.251ZM267.085 246.63H263.185L262.345 248.5H261.575L264.775 241.5H265.505L268.705 248.5H267.925L267.085 246.63ZM266.815 246.03L265.135 242.27L263.455 246.03H266.815ZM277.133 241.5V248.5H276.423V242.9L273.673 247.61H273.323L270.573 242.93V248.5H269.863V241.5H270.473L273.513 246.69L276.523 241.5H277.133Z" fill="black"/>
<path d="M572.978 248.56C572.438 248.56 571.954 248.417 571.528 248.13C571.108 247.843 570.778 247.433 570.538 246.9C570.304 246.36 570.188 245.727 570.188 245C570.188 244.273 570.304 243.643 570.538 243.11C570.778 242.57 571.108 242.157 571.528 241.87C571.954 241.583 572.438 241.44 572.978 241.44C573.518 241.44 573.998 241.583 574.418 241.87C574.844 242.157 575.178 242.57 575.418 243.11C575.658 243.643 575.778 244.273 575.778 245C575.778 245.727 575.658 246.36 575.418 246.9C575.178 247.433 574.844 247.843 574.418 248.13C573.998 248.417 573.518 248.56 572.978 248.56ZM572.978 247.9C573.384 247.9 573.741 247.787 574.048 247.56C574.361 247.333 574.604 247.003 574.778 246.57C574.951 246.137 575.038 245.613 575.038 245C575.038 244.387 574.951 243.863 574.778 243.43C574.604 242.997 574.361 242.667 574.048 242.44C573.741 242.213 573.384 242.1 572.978 242.1C572.571 242.1 572.211 242.213 571.898 242.44C571.591 242.667 571.351 242.997 571.178 243.43C571.004 243.863 570.918 244.387 570.918 245C570.918 245.613 571.004 246.137 571.178 246.57C571.351 247.003 571.591 247.333 571.898 247.56C572.211 247.787 572.571 247.9 572.978 247.9ZM581.569 247.86V248.5H576.659V247.99L579.569 245.14C579.936 244.78 580.183 244.47 580.309 244.21C580.443 243.943 580.509 243.677 580.509 243.41C580.509 242.997 580.366 242.677 580.079 242.45C579.799 242.217 579.396 242.1 578.869 242.1C578.049 242.1 577.413 242.36 576.959 242.88L576.449 242.44C576.723 242.12 577.069 241.873 577.489 241.7C577.916 241.527 578.396 241.44 578.929 241.44C579.643 241.44 580.206 241.61 580.619 241.95C581.039 242.283 581.249 242.743 581.249 243.33C581.249 243.69 581.169 244.037 581.009 244.37C580.849 244.703 580.546 245.087 580.099 245.52L577.719 247.86H581.569ZM583.013 244.29C582.866 244.29 582.74 244.237 582.633 244.13C582.533 244.023 582.483 243.893 582.483 243.74C582.483 243.587 582.533 243.46 582.633 243.36C582.74 243.253 582.866 243.2 583.013 243.2C583.16 243.2 583.286 243.253 583.393 243.36C583.5 243.46 583.553 243.587 583.553 243.74C583.553 243.893 583.5 244.023 583.393 244.13C583.286 244.237 583.16 244.29 583.013 244.29ZM583.013 248.55C582.866 248.55 582.74 248.497 582.633 248.39C582.533 248.283 582.483 248.153 582.483 248C582.483 247.847 582.533 247.72 582.633 247.62C582.74 247.513 582.866 247.46 583.013 247.46C583.16 247.46 583.286 247.513 583.393 247.62C583.5 247.72 583.553 247.847 583.553 248C583.553 248.153 583.5 248.283 583.393 248.39C583.286 248.497 583.16 248.55 583.013 248.55ZM587.382 248.56C586.842 248.56 586.359 248.417 585.932 248.13C585.512 247.843 585.182 247.433 584.942 246.9C584.709 246.36 584.592 245.727 584.592 245C584.592 244.273 584.709 243.643 584.942 243.11C585.182 242.57 585.512 242.157 585.932 241.87C586.359 241.583 586.842 241.44 587.382 241.44C587.922 241.44 588.402 241.583 588.822 241.87C589.249 242.157 589.582 242.57 589.822 243.11C590.062 243.643 590.182 244.273 590.182 245C590.182 245.727 590.062 246.36 589.822 246.9C589.582 247.433 589.249 247.843 588.822 248.13C588.402 248.417 587.922 248.56 587.382 248.56ZM587.382 247.9C587.789 247.9 588.145 247.787 588.452 247.56C588.765 247.333 589.009 247.003 589.182 246.57C589.355 246.137 589.442 245.613 589.442 245C589.442 244.387 589.355 243.863 589.182 243.43C589.009 242.997 588.765 242.667 588.452 242.44C588.145 242.213 587.789 242.1 587.382 242.1C586.975 242.1 586.615 242.213 586.302 242.44C585.995 242.667 585.755 242.997 585.582 243.43C585.409 243.863 585.322 244.387 585.322 245C585.322 245.613 585.409 246.137 585.582 246.57C585.755 247.003 585.995 247.333 586.302 247.56C586.615 247.787 586.975 247.9 587.382 247.9ZM594.003 248.56C593.463 248.56 592.98 248.417 592.553 248.13C592.133 247.843 591.803 247.433 591.563 246.9C591.33 246.36 591.213 245.727 591.213 245C591.213 244.273 591.33 243.643 591.563 243.11C591.803 242.57 592.133 242.157 592.553 241.87C592.98 241.583 593.463 241.44 594.003 241.44C594.543 241.44 595.023 241.583 595.443 241.87C595.87 242.157 596.203 242.57 596.443 243.11C596.683 243.643 596.803 244.273 596.803 245C596.803 245.727 596.683 246.36 596.443 246.9C596.203 247.433 595.87 247.843 595.443 248.13C595.023 248.417 594.543 248.56 594.003 248.56ZM594.003 247.9C594.41 247.9 594.766 247.787 595.073 247.56C595.386 247.333 595.63 247.003 595.803 246.57C595.976 246.137 596.063 245.613 596.063 245C596.063 244.387 595.976 243.863 595.803 243.43C595.63 242.997 595.386 242.667 595.073 242.44C594.766 242.213 594.41 242.1 594.003 242.1C593.596 242.1 593.236 242.213 592.923 242.44C592.616 242.667 592.376 242.997 592.203 243.43C592.03 243.863 591.943 244.387 591.943 245C591.943 245.613 592.03 246.137 592.203 246.57C592.376 247.003 592.616 247.333 592.923 247.56C593.236 247.787 593.596 247.9 594.003 247.9ZM602.776 246.63H598.876L598.036 248.5H597.266L600.466 241.5H601.196L604.396 248.5H603.616L602.776 246.63ZM602.506 246.03L600.826 242.27L599.146 246.03H602.506ZM612.824 241.5V248.5H612.114V242.9L609.364 247.61H609.014L606.264 242.93V248.5H605.554V241.5H606.164L609.204 246.69L612.214 241.5H612.824Z" fill="black"/>
<path d="M697.871 248.56C697.331 248.56 696.847 248.417 696.421 248.13C696.001 247.843 695.671 247.433 695.431 246.9C695.197 246.36 695.081 245.727 695.081 245C695.081 244.273 695.197 243.643 695.431 243.11C695.671 242.57 696.001 242.157 696.421 241.87C696.847 241.583 697.331 241.44 697.871 241.44C698.411 241.44 698.891 241.583 699.311 241.87C699.737 242.157 700.071 242.57 700.311 243.11C700.551 243.643 700.671 244.273 700.671 245C700.671 245.727 700.551 246.36 700.311 246.9C700.071 247.433 699.737 247.843 699.311 248.13C698.891 248.417 698.411 248.56 697.871 248.56ZM697.871 247.9C698.277 247.9 698.634 247.787 698.941 247.56C699.254 247.333 699.497 247.003 699.671 246.57C699.844 246.137 699.931 245.613 699.931 245C699.931 244.387 699.844 243.863 699.671 243.43C699.497 242.997 699.254 242.667 698.941 242.44C698.634 242.213 698.277 242.1 697.871 242.1C697.464 242.1 697.104 242.213 696.791 242.44C696.484 242.667 696.244 242.997 696.071 243.43C695.897 243.863 695.811 244.387 695.811 245C695.811 245.613 695.897 246.137 696.071 246.57C696.244 247.003 696.484 247.333 696.791 247.56C697.104 247.787 697.464 247.9 697.871 247.9ZM706.462 247.86V248.5H701.552V247.99L704.462 245.14C704.829 244.78 705.076 244.47 705.202 244.21C705.336 243.943 705.402 243.677 705.402 243.41C705.402 242.997 705.259 242.677 704.972 242.45C704.692 242.217 704.289 242.1 703.762 242.1C702.942 242.1 702.306 242.36 701.852 242.88L701.342 242.44C701.616 242.12 701.962 241.873 702.382 241.7C702.809 241.527 703.289 241.44 703.822 241.44C704.536 241.44 705.099 241.61 705.512 241.95C705.932 242.283 706.142 242.743 706.142 243.33C706.142 243.69 706.062 244.037 705.902 244.37C705.742 244.703 705.439 245.087 704.992 245.52L702.612 247.86H706.462ZM707.906 244.29C707.759 244.29 707.632 244.237 707.526 244.13C707.426 244.023 707.376 243.893 707.376 243.74C707.376 243.587 707.426 243.46 707.526 243.36C707.632 243.253 707.759 243.2 707.906 243.2C708.052 243.2 708.179 243.253 708.286 243.36C708.392 243.46 708.446 243.587 708.446 243.74C708.446 243.893 708.392 244.023 708.286 244.13C708.179 244.237 708.052 244.29 707.906 244.29ZM707.906 248.55C707.759 248.55 707.632 248.497 707.526 248.39C707.426 248.283 707.376 248.153 707.376 248C707.376 247.847 707.426 247.72 707.526 247.62C707.632 247.513 707.759 247.46 707.906 247.46C708.052 247.46 708.179 247.513 708.286 247.62C708.392 247.72 708.446 247.847 708.446 248C708.446 248.153 708.392 248.283 708.286 248.39C708.179 248.497 708.052 248.55 707.906 248.55ZM712.275 248.56C711.735 248.56 711.252 248.417 710.825 248.13C710.405 247.843 710.075 247.433 709.835 246.9C709.602 246.36 709.485 245.727 709.485 245C709.485 244.273 709.602 243.643 709.835 243.11C710.075 242.57 710.405 242.157 710.825 241.87C711.252 241.583 711.735 241.44 712.275 241.44C712.815 241.44 713.295 241.583 713.715 241.87C714.142 242.157 714.475 242.57 714.715 243.11C714.955 243.643 715.075 244.273 715.075 245C715.075 245.727 714.955 246.36 714.715 246.9C714.475 247.433 714.142 247.843 713.715 248.13C713.295 248.417 712.815 248.56 712.275 248.56ZM712.275 247.9C712.682 247.9 713.038 247.787 713.345 247.56C713.658 247.333 713.902 247.003 714.075 246.57C714.248 246.137 714.335 245.613 714.335 245C714.335 244.387 714.248 243.863 714.075 243.43C713.902 242.997 713.658 242.667 713.345 242.44C713.038 242.213 712.682 242.1 712.275 242.1C711.868 242.1 711.508 242.213 711.195 242.44C710.888 242.667 710.648 242.997 710.475 243.43C710.302 243.863 710.215 244.387 710.215 245C710.215 245.613 710.302 246.137 710.475 246.57C710.648 247.003 710.888 247.333 711.195 247.56C711.508 247.787 711.868 247.9 712.275 247.9ZM717.946 244.37C718.959 244.37 719.696 244.553 720.156 244.92C720.623 245.28 720.856 245.787 720.856 246.44C720.856 246.847 720.759 247.21 720.566 247.53C720.379 247.85 720.096 248.103 719.716 248.29C719.336 248.47 718.869 248.56 718.316 248.56C717.816 248.56 717.339 248.48 716.886 248.32C716.439 248.153 716.079 247.933 715.806 247.66L716.156 247.09C716.389 247.33 716.696 247.527 717.076 247.68C717.456 247.827 717.866 247.9 718.306 247.9C718.886 247.9 719.333 247.77 719.646 247.51C719.966 247.25 720.126 246.903 720.126 246.47C720.126 245.99 719.946 245.627 719.586 245.38C719.233 245.133 718.633 245.01 717.786 245.01H716.296L716.656 241.5H720.486V242.14H717.286L717.046 244.37H717.946ZM726.78 246.63H722.88L722.04 248.5H721.27L724.47 241.5H725.2L728.4 248.5H727.62L726.78 246.63ZM726.51 246.03L724.83 242.27L723.15 246.03H726.51ZM736.828 241.5V248.5H736.118V242.9L733.368 247.61H733.018L730.268 242.93V248.5H729.558V241.5H730.168L733.208 246.69L736.218 241.5H736.828Z" fill="black"/>
<path d="M115.993 147.202L76.6094 140.401V229.5H753.001V128.838L714.242 147.202L634.226 148.562L596.718 137L553.584 130.199L514.201 107.074L474.817 123.397L435.434 110.474L394.801 90.75L353.542 98.2316L276.651 121.357L235.393 146.522L156.001 136.32L115.993 147.202Z" fill="#E0EBFF"/>
<path d="M76.5 140L115.5 148L155 136.5L235 146.5L274.15 122.717L352.291 99.5919L394.8 90.75L436.684 113.195L473.567 122.717L514.2 106.393L552.333 129.518L593.592 137L635.476 149.243H713.617L753 129.518" stroke="#C4C4C4"/>
<path d="M114.74 165.012L76.6074 160.759V212.496H752.999V155.798L714.241 167.847L632.974 166.429L593.59 160.051L554.832 157.924L515.449 137.371L474.19 150.837L394.174 128.158L355.416 135.954L315.407 139.498L276.649 145.876L234.765 164.303L157.874 157.924L114.74 165.012Z" fill="#FFCDCD"/>
<path d="M114.74 173.048L76.6074 168.967V218.618H752.999V164.206L714.24 175.768L632.974 174.408L593.59 168.287L554.832 166.246L515.449 146.522L474.19 159.445L394.174 137.68L355.416 145.162L315.407 148.563L276.649 154.684L234.765 172.368L157.874 166.246L114.74 173.048Z" fill="#FFE6D3"/>
<path d="M114.74 182.57L76.6074 178.489V228.14H752.999V173.728L714.24 185.29L632.974 183.93L593.59 177.809L554.832 175.768L515.449 156.044L474.19 168.967L394.174 147.202L355.416 154.684L315.407 158.084L276.649 164.206L234.765 181.89L157.874 175.768L114.74 182.57Z" fill="#FFDCF9"/>
<path d="M116.653 187.331H76.6074V228.82H752.999V192.772H724.842H592.191L553.397 187.331L515.855 168.967L475.184 178.489L395.093 161.485L355.048 171.688H315.002L279.337 176.449L236.789 187.331L155.447 180.529L116.653 187.331Z" fill="#C2FFD3"/>
<path d="M116.542 198.213H76.6074V229.5H752.999V202.974H685.609L597.004 204.334L553.95 201.614L515.887 183.93L474.705 192.092L396.084 177.128L356.149 189.371L316.215 185.29L234.474 198.213L155.229 190.731L116.542 198.213Z" fill="#D8E7FF"/>
<line x1="430.588" y1="229.5" x2="430.588" y2="89.5" stroke="#C4C4C4"/>
<defs>
<filter id="filter614" x="-10" y="-10" width="805" height="344" filterUnits="userSpaceOnUse" color-interpolation-filters="sRGB">
<feFlood flood-opacity="0" result="BackgroundImageFix"/>
<feGaussianBlur in="BackgroundImage" stdDeviation="5"/>
<feComposite in2="SourceAlpha" operator="in" result="effect1_backgroundBlur_614:431"/>
<feBlend mode="normal" in="SourceGraphic" in2="effect1_backgroundBlur_614:431" result="shape"/>
</filter>
</defs>
</svg>
