<svg width="378" height="300" viewBox="0 0 378 300" fill="none" xmlns="http://www.w3.org/2000/svg">
<path d="M359.739 0H18.2609C8.17567 0 0 8.18991 0 18.2927V281.707C0 291.81 8.17567 300 18.2609 300H359.739C369.824 300 378 291.81 378 281.707V18.2927C378 8.18991 369.824 0 359.739 0Z" fill="#F8FBFF"/>
<path d="M276.47 33.0366C275.484 33.0366 274.602 32.7745 273.822 32.25C273.055 31.7256 272.452 30.9756 272.014 30C271.589 29.0122 271.375 27.8537 271.375 26.5244C271.375 25.1951 271.589 24.0426 272.014 23.0671C272.452 22.0793 273.055 21.3232 273.822 20.7988C274.602 20.2743 275.484 20.0122 276.47 20.0122C277.456 20.0122 278.332 20.2743 279.099 20.7988C279.879 21.3232 280.487 22.0793 280.925 23.0671C281.364 24.0426 281.583 25.1951 281.583 26.5244C281.583 27.8537 281.364 29.0122 280.925 30C280.487 30.9756 279.879 31.7256 279.099 32.25C278.332 32.7745 277.456 33.0366 276.47 33.0366ZM276.47 31.8293C277.213 31.8293 277.863 31.622 278.424 31.2073C278.995 30.7926 279.441 30.189 279.757 29.3964C280.073 28.6037 280.232 27.6463 280.232 26.5244C280.232 25.4025 280.073 24.4451 279.757 23.6525C279.441 22.8598 278.995 22.2562 278.424 21.8415C277.863 21.4268 277.213 21.2195 276.47 21.2195C275.727 21.2195 275.069 21.4268 274.498 21.8415C273.937 22.2562 273.499 22.8598 273.183 23.6525C272.867 24.4451 272.708 25.4025 272.708 26.5244C272.708 27.6463 272.867 28.6037 273.183 29.3964C273.499 30.189 273.937 30.7926 274.498 31.2073C275.069 31.622 275.727 31.8293 276.47 31.8293ZM284.256 33.0183C283.988 33.0183 283.756 32.9208 283.562 32.7256C283.38 32.5304 283.288 32.2926 283.288 32.0122C283.288 31.7318 283.38 31.5 283.562 31.3171C283.756 31.1219 283.988 31.0244 284.256 31.0244C284.523 31.0244 284.755 31.1219 284.95 31.3171C285.144 31.5 285.242 31.7318 285.242 32.0122C285.242 32.2926 285.144 32.5304 284.95 32.7256C284.755 32.9208 284.523 33.0183 284.256 33.0183ZM291.121 20.0122C292.811 20.0122 294.108 20.5732 295.01 21.6951C295.91 22.805 296.361 24.3781 296.361 26.4146C296.361 27.8415 296.117 29.0488 295.631 30.0366C295.143 31.0244 294.462 31.7744 293.586 32.2866C292.709 32.7865 291.687 33.0366 290.518 33.0366C289.251 33.0366 288.241 32.8048 287.487 32.3415L288.016 31.2805C288.624 31.6829 289.451 31.8842 290.5 31.8842C291.911 31.8842 293.02 31.4391 293.823 30.5488C294.627 29.6464 295.028 28.3414 295.028 26.6342C295.028 26.3171 295.01 25.9696 294.974 25.5915C294.656 26.2866 294.152 26.8293 293.458 27.2195C292.764 27.5976 291.966 27.7866 291.066 27.7866C290.226 27.7866 289.477 27.628 288.82 27.311C288.173 26.994 287.669 26.5487 287.304 25.9756C286.939 25.3903 286.756 24.7134 286.756 23.9451C286.756 23.1646 286.944 22.4757 287.322 21.8781C287.698 21.2804 288.217 20.8231 288.874 20.5061C289.543 20.1768 290.291 20.0122 291.121 20.0122ZM291.267 26.6707C291.911 26.6707 292.477 26.5487 292.965 26.3049C293.463 26.061 293.852 25.7256 294.134 25.2988C294.413 24.872 294.554 24.3964 294.554 23.872C294.554 23.3841 294.418 22.933 294.152 22.5183C293.896 22.1036 293.513 21.7683 293.001 21.5122C292.49 21.2561 291.88 21.1281 291.175 21.1281C290.249 21.1281 289.495 21.3842 288.911 21.8964C288.338 22.3963 288.053 23.0671 288.053 23.9085C288.053 24.75 288.338 25.4208 288.911 25.9207C289.495 26.4207 290.281 26.6707 291.267 26.6707ZM302.247 20.0122C303.94 20.0122 305.236 20.5732 306.136 21.6951C307.039 22.805 307.488 24.3781 307.488 26.4146C307.488 27.8415 307.245 29.0488 306.757 30.0366C306.272 31.0244 305.589 31.7744 304.712 32.2866C303.836 32.7865 302.813 33.0366 301.644 33.0366C300.379 33.0366 299.369 32.8048 298.613 32.3415L299.143 31.2805C299.752 31.6829 300.58 31.8842 301.626 31.8842C303.039 31.8842 304.146 31.4391 304.949 30.5488C305.753 29.6464 306.155 28.3414 306.155 26.6342C306.155 26.3171 306.136 25.9696 306.1 25.5915C305.784 26.2866 305.278 26.8293 304.584 27.2195C303.89 27.5976 303.094 27.7866 302.192 27.7866C301.352 27.7866 300.603 27.628 299.946 27.311C299.301 26.994 298.796 26.5487 298.43 25.9756C298.065 25.3903 297.883 24.7134 297.883 23.9451C297.883 23.1646 298.072 22.4757 298.449 21.8781C298.827 21.2804 299.343 20.8231 300.001 20.5061C300.671 20.1768 301.42 20.0122 302.247 20.0122ZM302.393 26.6707C303.039 26.6707 303.605 26.5487 304.091 26.3049C304.592 26.061 304.981 25.7256 305.26 25.2988C305.541 24.872 305.68 24.3964 305.68 23.872C305.68 23.3841 305.547 22.933 305.278 22.5183C305.023 22.1036 304.639 21.7683 304.128 21.5122C303.616 21.2561 303.008 21.1281 302.302 21.1281C301.378 21.1281 300.622 21.3842 300.037 21.8964C299.466 22.3963 299.179 23.0671 299.179 23.9085C299.179 24.75 299.466 25.4208 300.037 25.9207C300.622 26.4207 301.407 26.6707 302.393 26.6707Z" fill="black"/>
<path d="M314.354 22.0684H317.027V22.9318H315.391V34.9025H317.027V35.7659H314.354V22.0684ZM322.175 33.0147C321.386 33.0147 320.681 32.8049 320.057 32.3854C319.443 31.966 318.961 31.366 318.611 30.5854C318.271 29.7952 318.099 28.8683 318.099 27.8049C318.099 26.7416 318.271 25.8196 318.611 25.0391C318.961 24.2488 319.443 23.6439 320.057 23.2245C320.681 22.805 321.386 22.5952 322.175 22.5952C322.964 22.5952 323.665 22.805 324.279 23.2245C324.903 23.6439 325.389 24.2488 325.74 25.0391C326.09 25.8196 326.266 26.7416 326.266 27.8049C326.266 28.8683 326.09 29.7952 325.74 30.5854C325.389 31.366 324.903 31.966 324.279 32.3854C323.665 32.8049 322.964 33.0147 322.175 33.0147ZM322.175 32.0488C322.77 32.0488 323.291 31.8829 323.738 31.5513C324.197 31.2196 324.553 30.7367 324.805 30.1025C325.059 29.4683 325.185 28.7026 325.185 27.8049C325.185 26.9073 325.059 26.1416 324.805 25.5074C324.553 24.8732 324.197 24.3902 323.738 24.0586C323.291 23.727 322.77 23.561 322.175 23.561C321.582 23.561 321.056 23.727 320.597 24.0586C320.15 24.3902 319.799 24.8732 319.546 25.5074C319.294 26.1416 319.166 26.9073 319.166 27.8049C319.166 28.7026 319.294 29.4683 319.546 30.1025C319.799 30.7367 320.15 31.2196 320.597 31.5513C321.056 31.8829 321.582 32.0488 322.175 32.0488ZM328.404 33.0001C328.19 33.0001 328.006 32.922 327.849 32.7659C327.703 32.6099 327.63 32.4196 327.63 32.1952C327.63 31.9707 327.703 31.7854 327.849 31.6391C328.006 31.4831 328.19 31.4049 328.404 31.4049C328.619 31.4049 328.804 31.4831 328.959 31.6391C329.116 31.7854 329.193 31.9707 329.193 32.1952C329.193 32.4196 329.116 32.6099 328.959 32.7659C328.804 32.922 328.619 33.0001 328.404 33.0001ZM333.4 26.883C334.879 26.883 335.957 27.1513 336.629 27.6879C337.31 28.2147 337.651 28.9561 337.651 29.9123C337.651 30.5073 337.509 31.0391 337.228 31.5074C336.954 31.9757 336.541 32.3465 335.986 32.6196C335.431 32.883 334.748 33.0147 333.941 33.0147C333.21 33.0147 332.513 32.8976 331.852 32.6635C331.198 32.4196 330.672 32.0977 330.274 31.6976L330.785 30.8635C331.125 31.2147 331.574 31.5024 332.129 31.7269C332.684 31.9415 333.283 32.0488 333.926 32.0488C334.773 32.0488 335.425 31.8586 335.884 31.4781C336.351 31.0976 336.585 30.5904 336.585 29.9562C336.585 29.2537 336.322 28.722 335.796 28.361C335.279 28.0001 334.403 27.8196 333.166 27.8196H330.99L331.516 22.683H337.111V23.6196H332.436L332.085 26.883H333.4ZM338.533 35.7659V34.9025H340.169V22.9318H338.533V22.0684H341.207V35.7659H338.533Z" fill="black"/>
<path d="M22.8446 29.7255H16.0516L14.6455 32.9267H12.7646L18.5533 20.1218H20.3612L26.1681 32.9267H24.2507L22.8446 29.7255ZM22.2055 28.2621L19.4481 21.9877L16.6907 28.2621H22.2055ZM32.9506 23.1401C33.8881 23.1401 34.7281 23.3474 35.4706 23.7621C36.2132 24.1767 36.7916 24.7559 37.2054 25.4999C37.6316 26.2438 37.8445 27.1036 37.8445 28.0791C37.8445 29.0547 37.6316 29.9207 37.2054 30.6767C36.7916 31.4207 36.2132 31.9998 35.4706 32.4145C34.7281 32.8292 33.8881 33.0364 32.9506 33.0364C32.2567 33.0364 31.6175 32.9024 31.0332 32.634C30.4611 32.3657 29.9741 31.9755 29.5723 31.4633V36.4755H27.8193V23.2316H29.4993V24.7682C29.889 24.2316 30.382 23.8292 30.9784 23.5608C31.575 23.2804 32.2324 23.1401 32.9506 23.1401ZM32.8045 31.4999C33.4254 31.4999 33.9794 31.3596 34.4662 31.0791C34.9655 30.7864 35.355 30.384 35.6349 29.8718C35.9271 29.3474 36.0732 28.7499 36.0732 28.0791C36.0732 27.4083 35.9271 26.8169 35.6349 26.3047C35.355 25.7803 34.9655 25.3778 34.4662 25.0974C33.9794 24.817 33.4254 24.6767 32.8045 24.6767C32.1959 24.6767 31.642 24.823 31.1428 25.1157C30.6559 25.3961 30.2662 25.7925 29.9741 26.3047C29.6941 26.8169 29.5541 27.4083 29.5541 28.0791C29.5541 28.7499 29.6941 29.3474 29.9741 29.8718C30.2542 30.384 30.6437 30.7864 31.1428 31.0791C31.642 31.3596 32.1959 31.4999 32.8045 31.4999ZM49.397 19.3535V32.9267H47.717V31.3901C47.3275 31.9266 46.8345 32.3353 46.2379 32.6157C45.6415 32.8961 44.9841 33.0364 44.2657 33.0364C43.3284 33.0364 42.4884 32.8292 41.7457 32.4145C41.0033 31.9998 40.4189 31.4207 39.9927 30.6767C39.5789 29.9207 39.3718 29.0547 39.3718 28.0791C39.3718 27.1036 39.5789 26.2438 39.9927 25.4999C40.4189 24.7559 41.0033 24.1767 41.7457 23.7621C42.4884 23.3474 43.3284 23.1401 44.2657 23.1401C44.9597 23.1401 45.5988 23.2742 46.1831 23.5425C46.7675 23.7986 47.2545 24.1828 47.644 24.695V19.3535H49.397ZM44.4118 31.4999C45.0206 31.4999 45.5745 31.3596 46.0736 31.0791C46.5728 30.7864 46.9623 30.384 47.2423 29.8718C47.5224 29.3474 47.6623 28.7499 47.6623 28.0791C47.6623 27.4083 47.5224 26.8169 47.2423 26.3047C46.9623 25.7803 46.5728 25.3778 46.0736 25.0974C45.5745 24.817 45.0206 24.6767 44.4118 24.6767C43.791 24.6767 43.2311 24.817 42.7318 25.0974C42.245 25.3778 41.8553 25.7803 41.5631 26.3047C41.2832 26.8169 41.1431 27.4083 41.1431 28.0791C41.1431 28.7499 41.2832 29.3474 41.5631 29.8718C41.8553 30.384 42.245 30.7864 42.7318 31.0791C43.2311 31.3596 43.791 31.4999 44.4118 31.4999ZM61.4609 28.134C61.4609 28.2681 61.4489 28.445 61.4244 28.6645H53.5722C53.6818 29.5182 54.0532 30.2071 54.6861 30.7316C55.3315 31.2438 56.1287 31.4999 57.0783 31.4999C58.2349 31.4999 59.1662 31.1097 59.8722 30.3291L60.84 31.4633C60.4018 31.9755 59.854 32.3657 59.1966 32.634C58.5514 32.9024 57.827 33.0364 57.0235 33.0364C56.0009 33.0364 55.0941 32.8292 54.3026 32.4145C53.5114 31.9877 52.8966 31.3961 52.4583 30.6401C52.0323 29.8841 51.8192 29.0303 51.8192 28.0791C51.8192 27.1402 52.0262 26.2925 52.44 25.5364C52.8662 24.7804 53.4444 24.195 54.1748 23.7803C54.9175 23.3536 55.7515 23.1401 56.6766 23.1401C57.6018 23.1401 58.4236 23.3536 59.1418 23.7803C59.8722 24.195 60.4383 24.7804 60.84 25.5364C61.254 26.2925 61.4609 27.1585 61.4609 28.134ZM56.6766 24.6218C55.8366 24.6218 55.1306 24.8779 54.5583 25.3901C53.9984 25.9023 53.6697 26.5731 53.5722 27.4023H59.7809C59.6836 26.5852 59.3489 25.9206 58.7766 25.4084C58.2167 24.8839 57.5166 24.6218 56.6766 24.6218ZM69.7999 32.9267L67.006 29.2133L64.1756 32.9267H62.2217L66.0382 27.9694L62.4043 23.2316H64.3582L67.0243 26.7255L69.6721 23.2316H71.5895L67.9373 27.9694L71.7904 32.9267H69.7999ZM81.383 33.0364C80.5917 33.0364 79.8308 32.9327 79.1004 32.7255C78.3699 32.506 77.7978 32.2316 77.3838 31.9023L78.1143 30.5121C78.5405 30.817 79.0578 31.0608 79.6665 31.2438C80.2753 31.4267 80.8899 31.5182 81.5108 31.5182C83.0447 31.5182 83.8117 31.0791 83.8117 30.2011C83.8117 29.9084 83.7083 29.6766 83.5012 29.506C83.2943 29.3353 83.0327 29.2133 82.716 29.1401C82.4118 29.0547 81.9735 28.9632 81.4012 28.8657C80.6222 28.7437 79.9831 28.6036 79.4838 28.445C78.997 28.2864 78.577 28.0182 78.2238 27.6401C77.8709 27.262 77.6943 26.7315 77.6943 26.0486C77.6943 25.1706 78.0595 24.4694 78.7899 23.945C79.5204 23.4085 80.5004 23.1401 81.7299 23.1401C82.3753 23.1401 83.0204 23.2193 83.6656 23.3779C84.3109 23.5365 84.8405 23.7498 85.2543 24.0182L84.5056 25.4084C83.7143 24.8962 82.783 24.6401 81.7117 24.6401C80.9692 24.6401 80.4031 24.7621 80.0134 25.006C79.6239 25.2498 79.4291 25.573 79.4291 25.9755C79.4291 26.2925 79.5386 26.5425 79.7578 26.7255C79.9769 26.9084 80.2448 27.0425 80.5612 27.1279C80.8899 27.2133 81.3465 27.3108 81.9308 27.4206C82.71 27.5547 83.3369 27.701 83.8117 27.8596C84.2987 28.006 84.7127 28.2621 85.0534 28.6279C85.3943 28.9938 85.5647 29.506 85.5647 30.1645C85.5647 31.0425 85.1874 31.7437 84.4325 32.2682C83.69 32.7803 82.6735 33.0364 81.383 33.0364ZM91.9739 33.0364C90.9878 33.0364 90.1053 32.823 89.3261 32.3962C88.5591 31.9694 87.9565 31.3841 87.5183 30.6401C87.08 29.8841 86.8609 29.0303 86.8609 28.0791C86.8609 27.1279 87.08 26.2804 87.5183 25.5364C87.9565 24.7804 88.5591 24.195 89.3261 23.7803C90.1053 23.3536 90.9878 23.1401 91.9739 23.1401C92.8504 23.1401 93.6296 23.317 94.3113 23.6706C95.0052 24.0242 95.5408 24.5364 95.9183 25.2072L94.5852 26.0669C94.2808 25.6036 93.9035 25.256 93.453 25.0242C93.0025 24.7925 92.5035 24.6767 91.9557 24.6767C91.3225 24.6767 90.7504 24.817 90.2391 25.0974C89.7401 25.3778 89.3443 25.7803 89.0522 26.3047C88.7722 26.8169 88.6322 27.4083 88.6322 28.0791C88.6322 28.762 88.7722 29.3657 89.0522 29.8901C89.3443 30.4023 89.7401 30.7987 90.2391 31.0791C90.7504 31.3596 91.3225 31.4999 91.9557 31.4999C92.5035 31.4999 93.0025 31.3841 93.453 31.1523C93.9035 30.9205 94.2808 30.573 94.5852 30.1096L95.9183 30.9511C95.5408 31.6219 95.0052 32.1401 94.3113 32.506C93.6296 32.8596 92.8504 33.0364 91.9739 33.0364ZM102.19 33.0364C101.229 33.0364 100.364 32.823 99.5975 32.3962C98.8305 31.9694 98.2279 31.3841 97.7896 30.6401C97.3634 29.8841 97.1505 29.0303 97.1505 28.0791C97.1505 27.1279 97.3634 26.2804 97.7896 25.5364C98.2279 24.7804 98.8305 24.195 99.5975 23.7803C100.364 23.3536 101.229 23.1401 102.19 23.1401C103.152 23.1401 104.01 23.3536 104.765 23.7803C105.532 24.195 106.129 24.7804 106.555 25.5364C106.993 26.2804 107.212 27.1279 107.212 28.0791C107.212 29.0303 106.993 29.8841 106.555 30.6401C106.129 31.3841 105.532 31.9694 104.765 32.3962C104.01 32.823 103.152 33.0364 102.19 33.0364ZM102.19 31.4999C102.811 31.4999 103.365 31.3596 103.852 31.0791C104.351 30.7864 104.741 30.384 105.021 29.8718C105.301 29.3474 105.441 28.7499 105.441 28.0791C105.441 27.4083 105.301 26.8169 105.021 26.3047C104.741 25.7803 104.351 25.3778 103.852 25.0974C103.365 24.817 102.811 24.6767 102.19 24.6767C101.57 24.6767 101.01 24.817 100.51 25.0974C100.023 25.3778 99.634 25.7803 99.3418 26.3047C99.0617 26.8169 98.9218 27.4083 98.9218 28.0791C98.9218 28.7499 99.0617 29.3474 99.3418 29.8718C99.634 30.384 100.023 30.7864 100.51 31.0791C101.01 31.3596 101.57 31.4999 102.19 31.4999ZM111.317 24.8596C111.621 24.2986 112.071 23.8718 112.668 23.5791C113.264 23.2864 113.989 23.1401 114.841 23.1401V24.8413C114.744 24.8291 114.61 24.823 114.439 24.823C113.49 24.823 112.741 25.1097 112.193 25.6828C111.657 26.2438 111.39 27.0487 111.39 28.0974V32.9267H109.637V23.2316H111.317V24.8596ZM125.659 28.134C125.659 28.2681 125.647 28.445 125.623 28.6645H117.771C117.88 29.5182 118.251 30.2071 118.885 30.7316C119.53 31.2438 120.327 31.4999 121.277 31.4999C122.433 31.4999 123.365 31.1097 124.071 30.3291L125.038 31.4633C124.6 31.9755 124.052 32.3657 123.395 32.634C122.75 32.9024 122.025 33.0364 121.222 33.0364C120.199 33.0364 119.292 32.8292 118.501 32.4145C117.71 31.9877 117.095 31.3961 116.657 30.6401C116.231 29.8841 116.018 29.0303 116.018 28.0791C116.018 27.1402 116.225 26.2925 116.638 25.5364C117.065 24.7804 117.643 24.195 118.373 23.7803C119.116 23.3536 119.95 23.1401 120.875 23.1401C121.8 23.1401 122.622 23.3536 123.34 23.7803C124.071 24.195 124.637 24.7804 125.038 25.5364C125.452 26.2925 125.659 27.1585 125.659 28.134ZM120.875 24.6218C120.035 24.6218 119.329 24.8779 118.757 25.3901C118.197 25.9023 117.868 26.5731 117.771 27.4023H123.979C123.882 26.5852 123.547 25.9206 122.975 25.4084C122.415 24.8839 121.715 24.6218 120.875 24.6218Z" fill="black"/>
<path d="M256.527 50.3124H250.83L249.602 53.049H248.478L253.152 42.8051H254.219L258.894 53.049H257.754L256.527 50.3124ZM256.132 49.4344L253.678 43.9319L251.224 49.4344H256.132ZM264.412 42.8051C265.718 42.8051 266.74 43.1173 267.48 43.7417C268.219 44.366 268.59 45.2247 268.59 46.3173C268.59 47.4099 268.219 48.2686 267.48 48.8929C266.74 49.5075 265.718 49.8148 264.412 49.8148H261.666V53.049H260.585V42.8051H264.412ZM264.383 48.8636C265.396 48.8636 266.17 48.6441 266.706 48.2051C267.241 47.7564 267.509 47.1271 267.509 46.3173C267.509 45.4881 267.241 44.8539 266.706 44.4148C266.17 43.9661 265.396 43.7417 264.383 43.7417H261.666V48.8636H264.383ZM274.755 42.8051C276.061 42.8051 277.083 43.1173 277.823 43.7417C278.562 44.366 278.933 45.2247 278.933 46.3173C278.933 47.4099 278.562 48.2686 277.823 48.8929C277.083 49.5075 276.061 49.8148 274.755 49.8148H272.009V53.049H270.927V42.8051H274.755ZM274.726 48.8636C275.739 48.8636 276.513 48.6441 277.048 48.2051C277.584 47.7564 277.852 47.1271 277.852 46.3173C277.852 45.4881 277.584 44.8539 277.048 44.4148C276.513 43.9661 275.739 43.7417 274.726 43.7417H272.009V48.8636H274.726ZM288.056 53.1368C287.296 53.1368 286.566 53.0148 285.865 52.7709C285.173 52.5271 284.638 52.2052 284.258 51.8051L284.682 50.9709C285.052 51.3417 285.543 51.6441 286.157 51.8783C286.771 52.1027 287.404 52.2148 288.056 52.2148C288.971 52.2148 289.658 52.0489 290.116 51.7173C290.574 51.3758 290.803 50.9367 290.803 50.4002C290.803 49.9905 290.677 49.6636 290.423 49.4197C290.18 49.1759 289.877 48.9904 289.517 48.8636C289.157 48.727 288.655 48.5806 288.012 48.4246C287.244 48.2294 286.63 48.0441 286.172 47.8685C285.713 47.6832 285.319 47.4052 284.988 47.0344C284.667 46.6636 284.506 46.1613 284.506 45.527C284.506 45.0099 284.643 44.5416 284.915 44.1222C285.187 43.6928 285.607 43.3515 286.172 43.0978C286.736 42.8441 287.437 42.7173 288.275 42.7173C288.86 42.7173 289.429 42.8002 289.984 42.9661C290.549 43.1221 291.036 43.3416 291.445 43.6246L291.08 44.488C290.651 44.205 290.195 43.9954 289.707 43.8587C289.219 43.7124 288.743 43.6392 288.275 43.6392C287.379 43.6392 286.703 43.8148 286.245 44.1661C285.797 44.5076 285.573 44.9514 285.573 45.4978C285.573 45.9075 285.695 46.2392 285.938 46.4929C286.192 46.7367 286.502 46.927 286.873 47.0636C287.253 47.1904 287.759 47.332 288.392 47.488C289.143 47.6733 289.745 47.8588 290.204 48.0441C290.671 48.2197 291.066 48.4928 291.387 48.8636C291.708 49.2245 291.869 49.7173 291.869 50.3417C291.869 50.8588 291.728 51.3319 291.445 51.7612C291.173 52.1806 290.75 52.5172 290.174 52.7709C289.599 53.0148 288.894 53.1368 288.056 53.1368ZM301.456 52.1124V53.049H294.225V42.8051H301.237V43.7417H295.306V47.3856H300.594V48.3075H295.306V52.1124H301.456ZM310.981 53.049L308.643 49.7563C308.38 49.7856 308.107 49.8002 307.825 49.8002H305.079V53.049H303.998V42.8051H307.825C309.129 42.8051 310.152 43.1173 310.893 43.7417C311.633 44.366 312.003 45.2247 312.003 46.3173C312.003 47.1172 311.799 47.7953 311.39 48.3514C310.99 48.8978 310.415 49.293 309.666 49.5368L312.164 53.049H310.981ZM307.796 48.8783C308.808 48.8783 309.582 48.6538 310.119 48.2051C310.654 47.7564 310.921 47.1271 310.921 46.3173C310.921 45.4881 310.654 44.8539 310.119 44.4148C309.582 43.9661 308.808 43.7417 307.796 43.7417H305.079V48.8783H307.796ZM323.057 42.8051L318.528 53.049H317.462L312.933 42.8051H314.102L318.017 51.7027L321.961 42.8051H323.057ZM331.773 52.1124V53.049H324.541V42.8051H331.554V43.7417H325.622V47.3856H330.911V48.3075H325.622V52.1124H331.773ZM341.296 53.049L338.958 49.7563C338.695 49.7856 338.423 49.8002 338.14 49.8002H335.394V53.049H334.313V42.8051H338.14C339.446 42.8051 340.469 43.1173 341.208 43.7417C341.948 44.366 342.318 45.2247 342.318 46.3173C342.318 47.1172 342.114 47.7953 341.705 48.3514C341.305 48.8978 340.731 49.293 339.981 49.5368L342.479 53.049H341.296ZM338.111 48.8783C339.125 48.8783 339.899 48.6538 340.434 48.2051C340.969 47.7564 341.237 47.1271 341.237 46.3173C341.237 45.4881 340.969 44.8539 340.434 44.4148C339.899 43.9661 339.125 43.7417 338.111 43.7417H335.394V48.8783H338.111Z" fill="black"/>
<path d="M20.0871 276.22C24.1211 276.22 27.3914 272.944 27.3914 268.903C27.3914 264.861 24.1211 261.585 20.0871 261.585C16.053 261.585 12.7827 264.861 12.7827 268.903C12.7827 272.944 16.053 276.22 20.0871 276.22Z" fill="#C2FFD3"/>
<path d="M46.8479 272.799H39.7261L38.1922 276.219H36.7861L42.6296 263.415H43.9627L49.8061 276.219H48.3818L46.8479 272.799ZM46.3548 271.701L43.287 264.823L40.2192 271.701H46.3548ZM56.5955 266.524C57.4963 266.524 58.312 266.731 59.0425 267.146C59.7729 267.549 60.345 268.121 60.759 268.866C61.1728 269.61 61.3799 270.457 61.3799 271.408C61.3799 272.372 61.1728 273.225 60.759 273.969C60.345 274.714 59.7729 275.292 59.0425 275.707C58.3241 276.11 57.5086 276.311 56.5955 276.311C55.8163 276.311 55.1102 276.152 54.4773 275.835C53.8564 275.506 53.3451 275.03 52.9434 274.408V279.768H51.6468V266.597H52.8886V268.5C53.2781 267.865 53.7894 267.379 54.4225 267.036C55.0676 266.694 55.792 266.524 56.5955 266.524ZM56.5042 275.158C57.1737 275.158 57.7825 275.007 58.3303 274.701C58.8781 274.385 59.3042 273.938 59.6086 273.366C59.925 272.793 60.0834 272.14 60.0834 271.408C60.0834 270.677 59.925 270.031 59.6086 269.469C59.3042 268.897 58.8781 268.451 58.3303 268.134C57.7825 267.818 57.1737 267.658 56.5042 267.658C55.8224 267.658 55.2077 267.818 54.6599 268.134C54.1241 268.451 53.6981 268.897 53.3816 269.469C53.0772 270.031 52.9251 270.677 52.9251 271.408C52.9251 272.14 53.0772 272.793 53.3816 273.366C53.6981 273.938 54.1241 274.385 54.6599 274.701C55.2077 275.007 55.8224 275.158 56.5042 275.158ZM68.9715 266.524C69.8723 266.524 70.688 266.731 71.4184 267.146C72.1489 267.549 72.721 268.121 73.1349 268.866C73.5489 269.61 73.7558 270.457 73.7558 271.408C73.7558 272.372 73.5489 273.225 73.1349 273.969C72.721 274.714 72.1489 275.292 71.4184 275.707C70.7002 276.11 69.8845 276.311 68.9715 276.311C68.1923 276.311 67.4863 276.152 66.8532 275.835C66.2323 275.506 65.721 275.03 65.3193 274.408V279.768H64.0228V266.597H65.2645V268.5C65.654 267.865 66.1653 267.379 66.7984 267.036C67.4436 266.694 68.168 266.524 68.9715 266.524ZM68.8802 275.158C69.5498 275.158 70.1584 275.007 70.7062 274.701C71.2541 274.385 71.6801 273.938 71.9845 273.366C72.301 272.793 72.4593 272.14 72.4593 271.408C72.4593 270.677 72.301 270.031 71.9845 269.469C71.6801 268.897 71.2541 268.451 70.7062 268.134C70.1584 267.818 69.5498 267.658 68.8802 267.658C68.1985 267.658 67.5836 267.818 67.0358 268.134C66.5002 268.451 66.074 268.897 65.7576 269.469C65.4531 270.031 65.301 270.677 65.301 271.408C65.301 272.14 65.4531 272.793 65.7576 273.366C66.074 273.938 66.5002 274.385 67.0358 274.701C67.5836 275.007 68.1985 275.158 68.8802 275.158ZM83.7527 276.311C82.9737 276.311 82.225 276.201 81.5066 275.982C80.8007 275.749 80.2466 275.464 79.8449 275.122L80.4292 274.097C80.831 274.414 81.3363 274.677 81.9449 274.884C82.5537 275.08 83.1866 275.177 83.844 275.177C84.7206 275.177 85.3659 275.043 85.7797 274.774C86.2059 274.494 86.4188 274.103 86.4188 273.604C86.4188 273.251 86.3032 272.976 86.0719 272.78C85.8407 272.574 85.5485 272.42 85.1953 272.323C84.8424 272.213 84.3736 272.109 83.7892 272.012C83.0102 271.866 82.3832 271.719 81.9084 271.573C81.4336 271.414 81.0258 271.152 80.6849 270.786C80.3562 270.421 80.1919 269.914 80.1919 269.268C80.1919 268.463 80.5268 267.805 81.1962 267.293C81.8658 266.78 82.7971 266.524 83.9901 266.524C84.611 266.524 85.2319 266.61 85.8527 266.78C86.4736 266.94 86.9849 267.152 87.3866 267.421L86.8206 268.463C86.0293 267.915 85.0858 267.64 83.9901 267.64C83.1624 267.64 82.5355 267.787 82.1093 268.079C81.6955 268.372 81.4884 268.756 81.4884 269.232C81.4884 269.597 81.6042 269.89 81.8353 270.11C82.0789 270.329 82.3771 270.494 82.7301 270.604C83.0833 270.701 83.5701 270.805 84.191 270.915C84.9579 271.061 85.5728 271.207 86.0353 271.354C86.4981 271.5 86.8936 271.751 87.2223 272.104C87.551 272.457 87.7153 272.945 87.7153 273.567C87.7153 274.408 87.3624 275.08 86.6562 275.579C85.9623 276.068 84.9945 276.311 83.7527 276.311ZM98.4757 271.811H90.441C90.514 272.811 90.8975 273.622 91.5914 274.244C92.2853 274.853 93.1618 275.158 94.221 275.158C94.8175 275.158 95.3654 275.054 95.8644 274.847C96.3637 274.628 96.7957 274.311 97.161 273.896L97.8914 274.738C97.4654 275.25 96.9298 275.64 96.2844 275.908C95.6515 276.177 94.9514 276.311 94.1844 276.311C93.1983 276.311 92.3218 276.104 91.5549 275.689C90.8001 275.263 90.2098 274.677 89.7836 273.933C89.3575 273.188 89.1444 272.347 89.1444 271.408C89.1444 270.47 89.3453 269.629 89.747 268.884C90.161 268.14 90.7211 267.561 91.427 267.146C92.1454 266.731 92.9489 266.524 93.8375 266.524C94.7262 266.524 95.5237 266.731 96.2296 267.146C96.9358 267.561 97.4896 268.14 97.8914 268.884C98.2931 269.616 98.494 270.457 98.494 271.408L98.4757 271.811ZM93.8375 267.64C92.9124 267.64 92.1332 267.938 91.5001 268.536C90.8792 269.122 90.5262 269.89 90.441 270.841H97.2523C97.1672 269.89 96.808 269.122 96.1749 268.536C95.554 267.938 94.775 267.64 93.8375 267.64ZM102.375 268.482C102.679 267.836 103.13 267.347 103.726 267.018C104.335 266.689 105.083 266.524 105.972 266.524V267.786L105.662 267.768C104.651 267.768 103.86 268.079 103.288 268.701C102.716 269.323 102.43 270.196 102.43 271.317V276.219H101.133V266.597H102.375V268.482ZM116.801 266.597L112.528 276.219H111.195L106.94 266.597H108.292L111.889 274.793L115.523 266.597H116.801ZM126.723 271.811H118.688C118.761 272.811 119.145 273.622 119.839 274.244C120.533 274.853 121.409 275.158 122.468 275.158C123.065 275.158 123.613 275.054 124.112 274.847C124.611 274.628 125.043 274.311 125.408 273.896L126.139 274.738C125.713 275.25 125.177 275.64 124.532 275.908C123.899 276.177 123.199 276.311 122.432 276.311C121.446 276.311 120.569 276.104 119.802 275.689C119.047 275.263 118.457 274.677 118.031 273.933C117.605 273.188 117.392 272.347 117.392 271.408C117.392 270.47 117.593 269.629 117.994 268.884C118.408 268.14 118.968 267.561 119.674 267.146C120.393 266.731 121.196 266.524 122.085 266.524C122.973 266.524 123.771 266.731 124.477 267.146C125.183 267.561 125.737 268.14 126.139 268.884C126.541 269.616 126.741 270.457 126.741 271.408L126.723 271.811ZM122.085 267.64C121.16 267.64 120.38 267.938 119.747 268.536C119.127 269.122 118.773 269.89 118.688 270.841H125.5C125.414 269.89 125.055 269.122 124.422 268.536C123.801 267.938 123.022 267.64 122.085 267.64ZM130.622 268.482C130.926 267.836 131.377 267.347 131.973 267.018C132.582 266.689 133.331 266.524 134.219 266.524V267.786L133.909 267.768C132.899 267.768 132.107 268.079 131.535 268.701C130.963 269.323 130.677 270.196 130.677 271.317V276.219H129.38V266.597H130.622V268.482Z" fill="black"/>
<path d="M160.695 276.22C164.73 276.22 168 272.944 168 268.903C168 264.861 164.73 261.585 160.695 261.585C156.661 261.585 153.391 264.861 153.391 268.903C153.391 272.944 156.661 276.22 160.695 276.22Z" fill="#FA842E"/>
<path d="M188.669 275.049V276.22H179.631V263.415H188.395V264.586H180.982V269.14H187.592V270.293H180.982V275.049H188.669ZM196.466 266.525C197.672 266.525 198.627 266.878 199.333 267.585C200.051 268.281 200.411 269.3 200.411 270.64V276.22H199.114V270.768C199.114 269.768 198.864 269.007 198.366 268.482C197.867 267.957 197.155 267.695 196.229 267.695C195.194 267.695 194.372 268.006 193.764 268.628C193.167 269.237 192.869 270.086 192.869 271.171V276.22H191.573V266.598H192.814V268.372C193.167 267.787 193.654 267.335 194.275 267.018C194.909 266.689 195.639 266.525 196.466 266.525ZM212.731 262.646V276.22H211.49V274.317C211.101 274.963 210.582 275.457 209.938 275.799C209.304 276.141 208.586 276.311 207.783 276.311C206.882 276.311 206.066 276.104 205.336 275.689C204.605 275.274 204.034 274.696 203.619 273.951C203.205 273.207 202.998 272.36 202.998 271.409C202.998 270.457 203.205 269.61 203.619 268.866C204.034 268.121 204.605 267.549 205.336 267.146C206.066 266.731 206.882 266.525 207.783 266.525C208.562 266.525 209.262 266.689 209.883 267.018C210.516 267.335 211.033 267.805 211.435 268.427V262.646H212.731ZM207.892 275.159C208.562 275.159 209.165 275.007 209.7 274.701C210.248 274.385 210.673 273.939 210.978 273.366C211.294 272.793 211.453 272.14 211.453 271.409C211.453 270.677 211.294 270.024 210.978 269.451C210.673 268.879 210.248 268.44 209.7 268.134C209.165 267.818 208.562 267.659 207.892 267.659C207.211 267.659 206.596 267.818 206.048 268.134C205.513 268.44 205.086 268.879 204.77 269.451C204.465 270.024 204.313 270.677 204.313 271.409C204.313 272.14 204.465 272.793 204.77 273.366C205.086 273.939 205.513 274.385 206.048 274.701C206.596 275.007 207.211 275.159 207.892 275.159ZM229.778 266.598V276.22H228.536V274.464C228.195 275.049 227.725 275.506 227.13 275.835C226.533 276.152 225.852 276.311 225.085 276.311C223.83 276.311 222.839 275.964 222.108 275.268C221.389 274.56 221.031 273.531 221.031 272.177V266.598H222.328V272.049C222.328 273.06 222.576 273.829 223.076 274.354C223.575 274.879 224.287 275.14 225.213 275.14C226.223 275.14 227.021 274.835 227.605 274.226C228.189 273.604 228.481 272.744 228.481 271.646V266.598H229.778ZM235.983 276.311C235.203 276.311 234.455 276.201 233.737 275.982C233.03 275.749 232.477 275.464 232.075 275.122L232.66 274.098C233.061 274.414 233.567 274.678 234.175 274.884C234.783 275.08 235.417 275.177 236.074 275.177C236.951 275.177 237.595 275.043 238.01 274.775C238.435 274.495 238.649 274.103 238.649 273.604C238.649 273.251 238.534 272.976 238.302 272.781C238.07 272.574 237.778 272.42 237.426 272.323C237.073 272.214 236.604 272.109 236.02 272.012C235.24 271.866 234.613 271.72 234.139 271.573C233.664 271.414 233.257 271.153 232.915 270.787C232.586 270.421 232.422 269.914 232.422 269.268C232.422 268.464 232.756 267.805 233.426 267.293C234.097 266.781 235.028 266.525 236.22 266.525C236.841 266.525 237.462 266.61 238.083 266.781C238.704 266.94 239.215 267.152 239.617 267.421L239.051 268.464C238.26 267.915 237.316 267.64 236.22 267.64C235.393 267.64 234.765 267.787 234.34 268.079C233.925 268.372 233.719 268.756 233.719 269.232C233.719 269.598 233.834 269.89 234.066 270.11C234.308 270.329 234.608 270.494 234.96 270.604C235.313 270.701 235.8 270.805 236.421 270.915C237.188 271.061 237.804 271.207 238.266 271.354C238.728 271.5 239.124 271.751 239.453 272.104C239.781 272.457 239.946 272.945 239.946 273.567C239.946 274.409 239.593 275.08 238.886 275.579C238.193 276.068 237.225 276.311 235.983 276.311ZM250.707 271.811H242.672C242.745 272.812 243.128 273.622 243.822 274.244C244.516 274.853 245.393 275.159 246.452 275.159C247.047 275.159 247.595 275.054 248.095 274.848C248.594 274.628 249.027 274.312 249.392 273.896L250.122 274.738C249.695 275.25 249.16 275.64 248.515 275.909C247.882 276.178 247.182 276.311 246.415 276.311C245.429 276.311 244.553 276.104 243.786 275.689C243.03 275.263 242.44 274.678 242.015 273.933C241.587 273.189 241.375 272.347 241.375 271.409C241.375 270.47 241.576 269.629 241.978 268.884C242.391 268.14 242.951 267.562 243.658 267.146C244.376 266.731 245.179 266.525 246.068 266.525C246.956 266.525 247.754 266.731 248.461 267.146C249.166 267.562 249.721 268.14 250.122 268.884C250.524 269.616 250.725 270.457 250.725 271.409L250.707 271.811ZM246.068 267.64C245.143 267.64 244.363 267.939 243.731 268.537C243.11 269.122 242.756 269.89 242.672 270.842H249.483C249.397 269.89 249.038 269.122 248.406 268.537C247.785 267.939 247.005 267.64 246.068 267.64ZM254.605 268.482C254.91 267.836 255.36 267.348 255.957 267.018C256.565 266.689 257.314 266.525 258.203 266.525V267.787L257.892 267.768C256.883 267.768 256.09 268.079 255.518 268.701C254.947 269.323 254.66 270.196 254.66 271.317V276.22H253.364V266.598H254.605V268.482Z" fill="black"/>
<path d="M17.6183 192.161C16.8294 192.161 16.1233 191.951 15.5 191.532C14.8865 191.113 14.4044 190.513 14.0538 189.732C13.7129 188.942 13.5425 188.014 13.5425 186.951C13.5425 185.889 13.7129 184.967 14.0538 184.186C14.4044 183.395 14.8865 182.79 15.5 182.371C16.1233 181.952 16.8294 181.742 17.6183 181.742C18.4072 181.742 19.1084 181.952 19.722 182.371C20.3452 182.79 20.8322 183.395 21.1828 184.186C21.5334 184.967 21.7087 185.889 21.7087 186.951C21.7087 188.014 21.5334 188.942 21.1828 189.732C20.8322 190.513 20.3452 191.113 19.722 191.532C19.1084 191.951 18.4072 192.161 17.6183 192.161ZM17.6183 191.195C18.2124 191.195 18.7335 191.029 19.1814 190.698C19.6392 190.367 19.9946 189.884 20.2479 189.249C20.5012 188.614 20.6277 187.85 20.6277 186.951C20.6277 186.053 20.5012 185.289 20.2479 184.654C19.9946 184.019 19.6392 183.536 19.1814 183.205C18.7335 182.873 18.2124 182.708 17.6183 182.708C17.0242 182.708 16.4983 182.873 16.0406 183.205C15.5926 183.536 15.242 184.019 14.9887 184.654C14.7355 185.289 14.6089 186.053 14.6089 186.951C14.6089 187.85 14.7355 188.614 14.9887 189.249C15.242 189.884 15.5926 190.367 16.0406 190.698C16.4983 191.029 17.0242 191.195 17.6183 191.195Z" fill="#717171"/>
<path d="M17.6183 173.868C16.8294 173.868 16.1233 173.658 15.5 173.239C14.8865 172.82 14.4044 172.22 14.0538 171.439C13.7129 170.649 13.5425 169.722 13.5425 168.658C13.5425 167.595 13.7129 166.673 14.0538 165.893C14.4044 165.102 14.8865 164.497 15.5 164.078C16.1233 163.659 16.8294 163.449 17.6183 163.449C18.4072 163.449 19.1084 163.659 19.722 164.078C20.3452 164.497 20.8322 165.102 21.1828 165.893C21.5334 166.673 21.7087 167.595 21.7087 168.658C21.7087 169.722 21.5334 170.649 21.1828 171.439C20.8322 172.22 20.3452 172.82 19.722 173.239C19.1084 173.658 18.4072 173.868 17.6183 173.868ZM17.6183 172.902C18.2124 172.902 18.7335 172.736 19.1814 172.405C19.6392 172.073 19.9946 171.59 20.2479 170.956C20.5012 170.322 20.6277 169.556 20.6277 168.658C20.6277 167.761 20.5012 166.995 20.2479 166.361C19.9946 165.727 19.6392 165.244 19.1814 164.912C18.7335 164.581 18.2124 164.415 17.6183 164.415C17.0242 164.415 16.4983 164.581 16.0406 164.912C15.5926 165.244 15.242 165.727 14.9887 166.361C14.7355 166.995 14.6089 167.761 14.6089 168.658C14.6089 169.556 14.7355 170.322 14.9887 170.956C15.242 171.59 15.5926 172.073 16.0406 172.405C16.4983 172.736 17.0242 172.902 17.6183 172.902ZM23.8469 173.854C23.6327 173.854 23.4477 173.776 23.2918 173.619C23.1457 173.463 23.0726 173.273 23.0726 173.049C23.0726 172.824 23.1457 172.639 23.2918 172.493C23.4477 172.337 23.6327 172.259 23.8469 172.259C24.0613 172.259 24.2463 172.337 24.402 172.493C24.558 172.639 24.6358 172.824 24.6358 173.049C24.6358 173.273 24.558 173.463 24.402 173.619C24.2463 173.776 24.0613 173.854 23.8469 173.854ZM33.2796 172.844V173.78H26.1067V173.034L30.3578 168.863C30.8934 168.337 31.2537 167.883 31.4389 167.502C31.6335 167.112 31.731 166.722 31.731 166.332C31.731 165.727 31.5216 165.258 31.1029 164.927C30.6938 164.585 30.1045 164.415 29.3352 164.415C28.1373 164.415 27.2071 164.795 26.545 165.556L25.7999 164.912C26.1991 164.444 26.7056 164.083 27.3192 163.829C27.9425 163.575 28.6437 163.449 29.4229 163.449C30.4648 163.449 31.2878 163.698 31.8917 164.195C32.5053 164.683 32.8121 165.356 32.8121 166.215C32.8121 166.741 32.6952 167.249 32.4615 167.737C32.2277 168.224 31.7845 168.785 31.1321 169.419L27.6552 172.844H33.2796Z" fill="#717171"/>
<path d="M17.6183 157.405C16.8294 157.405 16.1233 157.195 15.5 156.776C14.8865 156.356 14.4044 155.756 14.0538 154.976C13.7129 154.185 13.5425 153.258 13.5425 152.195C13.5425 151.132 13.7129 150.21 14.0538 149.429C14.4044 148.639 14.8865 148.034 15.5 147.615C16.1233 147.195 16.8294 146.985 17.6183 146.985C18.4072 146.985 19.1084 147.195 19.722 147.615C20.3452 148.034 20.8322 148.639 21.1828 149.429C21.5334 150.21 21.7087 151.132 21.7087 152.195C21.7087 153.258 21.5334 154.185 21.1828 154.976C20.8322 155.756 20.3452 156.356 19.722 156.776C19.1084 157.195 18.4072 157.405 17.6183 157.405ZM17.6183 156.439C18.2124 156.439 18.7335 156.273 19.1814 155.941C19.6392 155.61 19.9946 155.127 20.2479 154.493C20.5012 153.858 20.6277 153.093 20.6277 152.195C20.6277 151.297 20.5012 150.532 20.2479 149.898C19.9946 149.263 19.6392 148.78 19.1814 148.449C18.7335 148.117 18.2124 147.951 17.6183 147.951C17.0242 147.951 16.4983 148.117 16.0406 148.449C15.5926 148.78 15.242 149.263 14.9887 149.898C14.7355 150.532 14.6089 151.297 14.6089 152.195C14.6089 153.093 14.7355 153.858 14.9887 154.493C15.242 155.127 15.5926 155.61 16.0406 155.941C16.4983 156.273 17.0242 156.439 17.6183 156.439ZM31.9073 154.624H29.862V157.317H28.8102V154.624H23.0398V153.863L28.4596 147.073H29.6283L24.3984 153.688H28.8394V151.317H29.862V153.688H31.9073V154.624Z" fill="#717171"/>
<path d="M17.6183 139.112C16.8294 139.112 16.1233 138.903 15.5 138.483C14.8865 138.064 14.4044 137.464 14.0538 136.683C13.7129 135.893 13.5425 134.966 13.5425 133.903C13.5425 132.839 13.7129 131.917 14.0538 131.137C14.4044 130.347 14.8865 129.742 15.5 129.322C16.1233 128.903 16.8294 128.693 17.6183 128.693C18.4072 128.693 19.1084 128.903 19.722 129.322C20.3452 129.742 20.8322 130.347 21.1828 131.137C21.5334 131.917 21.7087 132.839 21.7087 133.903C21.7087 134.966 21.5334 135.893 21.1828 136.683C20.8322 137.464 20.3452 138.064 19.722 138.483C19.1084 138.903 18.4072 139.112 17.6183 139.112ZM17.6183 138.147C18.2124 138.147 18.7335 137.981 19.1814 137.649C19.6392 137.317 19.9946 136.834 20.2479 136.2C20.5012 135.566 20.6277 134.8 20.6277 133.903C20.6277 133.005 20.5012 132.239 20.2479 131.605C19.9946 130.971 19.6392 130.488 19.1814 130.156C18.7335 129.825 18.2124 129.659 17.6183 129.659C17.0242 129.659 16.4983 129.825 16.0406 130.156C15.5926 130.488 15.242 130.971 14.9887 131.605C14.7355 132.239 14.6089 133.005 14.6089 133.903C14.6089 134.8 14.7355 135.566 14.9887 136.2C15.242 136.834 15.5926 137.317 16.0406 137.649C16.4983 137.981 17.0242 138.147 17.6183 138.147ZM23.8469 139.098C23.6327 139.098 23.4477 139.02 23.2918 138.864C23.1457 138.708 23.0726 138.517 23.0726 138.293C23.0726 138.068 23.1457 137.883 23.2918 137.737C23.4477 137.581 23.6327 137.503 23.8469 137.503C24.0613 137.503 24.2463 137.581 24.402 137.737C24.558 137.883 24.6358 138.068 24.6358 138.293C24.6358 138.517 24.558 138.708 24.402 138.864C24.2463 139.02 24.0613 139.098 23.8469 139.098ZM30.2335 132.893C30.9055 132.893 31.4995 133.02 32.0157 133.273C32.5416 133.527 32.9507 133.888 33.2429 134.356C33.535 134.815 33.6811 135.351 33.6811 135.966C33.6811 136.59 33.5301 137.142 33.2283 137.62C32.9264 138.098 32.5075 138.468 31.9719 138.732C31.446 138.986 30.852 139.112 30.1896 139.112C28.836 139.112 27.7987 138.668 27.078 137.781C26.3572 136.883 25.9969 135.62 25.9969 133.99C25.9969 132.849 26.1918 131.883 26.5813 131.093C26.9708 130.303 27.5162 129.708 28.2175 129.308C28.9187 128.898 29.7368 128.693 30.6717 128.693C31.6847 128.693 32.4929 128.878 33.0968 129.249L32.6731 130.098C32.1861 129.776 31.524 129.615 30.6863 129.615C29.5565 129.615 28.6703 129.976 28.0276 130.698C27.3848 131.41 27.0634 132.449 27.0634 133.815C27.0634 134.059 27.078 134.337 27.1072 134.649C27.3605 134.093 27.7646 133.664 28.3197 133.361C28.8749 133.049 29.5127 132.893 30.2335 132.893ZM30.1458 138.22C30.8859 138.22 31.4849 138.02 31.9427 137.62C32.4102 137.21 32.6439 136.668 32.6439 135.995C32.6439 135.322 32.4102 134.786 31.9427 134.386C31.4849 133.985 30.8616 133.786 30.0728 133.786C29.5565 133.786 29.0989 133.883 28.6996 134.078C28.3101 134.273 28.0033 134.542 27.7792 134.883C27.5551 135.225 27.4432 135.605 27.4432 136.025C27.4432 136.415 27.5455 136.776 27.75 137.108C27.9642 137.439 28.2759 137.708 28.6849 137.912C29.094 138.117 29.581 138.22 30.1458 138.22Z" fill="#717171"/>
<path d="M17.6183 120.819C16.8294 120.819 16.1233 120.61 15.5 120.19C14.8865 119.771 14.4044 119.171 14.0538 118.39C13.7129 117.6 13.5425 116.673 13.5425 115.61C13.5425 114.546 13.7129 113.624 14.0538 112.844C14.4044 112.054 14.8865 111.449 15.5 111.029C16.1233 110.61 16.8294 110.4 17.6183 110.4C18.4072 110.4 19.1084 110.61 19.722 111.029C20.3452 111.449 20.8322 112.054 21.1828 112.844C21.5334 113.624 21.7087 114.546 21.7087 115.61C21.7087 116.673 21.5334 117.6 21.1828 118.39C20.8322 119.171 20.3452 119.771 19.722 120.19C19.1084 120.61 18.4072 120.819 17.6183 120.819ZM17.6183 119.854C18.2124 119.854 18.7335 119.688 19.1814 119.356C19.6392 119.024 19.9946 118.541 20.2479 117.907C20.5012 117.273 20.6277 116.507 20.6277 115.61C20.6277 114.712 20.5012 113.946 20.2479 113.312C19.9946 112.678 19.6392 112.195 19.1814 111.863C18.7335 111.532 18.2124 111.366 17.6183 111.366C17.0242 111.366 16.4983 111.532 16.0406 111.863C15.5926 112.195 15.242 112.678 14.9887 113.312C14.7355 113.946 14.6089 114.712 14.6089 115.61C14.6089 116.507 14.7355 117.273 14.9887 117.907C15.242 118.541 15.5926 119.024 16.0406 119.356C16.4983 119.688 17.0242 119.854 17.6183 119.854ZM29.0732 115.361C29.716 115.575 30.2077 115.897 30.5486 116.327C30.8993 116.756 31.0746 117.273 31.0746 117.878C31.0746 118.473 30.9139 118.995 30.5925 119.444C30.2711 119.883 29.8084 120.224 29.2046 120.468C28.6104 120.702 27.9092 120.819 27.101 120.819C25.8739 120.819 24.9097 120.556 24.2085 120.029C23.5073 119.502 23.1566 118.785 23.1566 117.878C23.1566 117.263 23.3221 116.746 23.6533 116.327C23.9941 115.897 24.486 115.575 25.1288 115.361C24.6029 115.156 24.2035 114.863 23.9309 114.483C23.6581 114.093 23.5219 113.634 23.5219 113.107C23.5219 112.278 23.8433 111.619 24.486 111.132C25.1385 110.644 26.0101 110.4 27.101 110.4C27.8216 110.4 28.4497 110.512 28.9855 110.736C29.5308 110.951 29.9544 111.263 30.2565 111.673C30.5583 112.083 30.7093 112.561 30.7093 113.107C30.7093 113.634 30.568 114.093 30.2857 114.483C30.0032 114.863 29.5991 115.156 29.0732 115.361ZM24.5737 113.136C24.5737 113.702 24.7976 114.151 25.2457 114.483C25.6936 114.814 26.3121 114.98 27.101 114.98C27.8899 114.98 28.5082 114.814 28.9563 114.483C29.4139 114.151 29.6429 113.707 29.6429 113.151C29.6429 112.575 29.4092 112.122 28.9417 111.79C28.4839 111.458 27.8703 111.293 27.101 111.293C26.3218 111.293 25.7033 111.458 25.2457 111.79C24.7976 112.122 24.5737 112.571 24.5737 113.136ZM27.101 119.927C28.0067 119.927 28.7127 119.741 29.2193 119.371C29.7353 119 29.9935 118.498 29.9935 117.863C29.9935 117.229 29.7353 116.732 29.2193 116.371C28.7127 116 28.0067 115.815 27.101 115.815C26.2049 115.815 25.4988 116 24.9827 116.371C24.4762 116.732 24.2231 117.229 24.2231 117.863C24.2231 118.507 24.4762 119.014 24.9827 119.385C25.4891 119.746 26.1953 119.927 27.101 119.927Z" fill="#717171"/>
<path d="M16.3768 92.1948V102.439H15.325V93.1314H12.9146V92.1948H16.3768Z" fill="#717171"/>
<path d="M232.077 219.6C231.493 219.6 230.952 219.474 230.456 219.22C229.959 218.965 229.556 218.605 229.243 218.137L229.886 217.405C230.45 218.245 231.186 218.664 232.092 218.664C233.357 218.664 233.991 217.912 233.991 216.41V210.205H230.251V209.268H235.058V216.366C235.058 217.44 234.804 218.248 234.298 218.795C233.801 219.331 233.062 219.6 232.077 219.6ZM245.006 211.815V219.512H244.013V218.107C243.741 218.576 243.364 218.942 242.888 219.205C242.411 219.459 241.865 219.586 241.252 219.586C240.249 219.586 239.455 219.307 238.87 218.751C238.295 218.186 238.008 217.361 238.008 216.278V211.815H239.046V216.176C239.046 216.986 239.245 217.601 239.645 218.02C240.045 218.439 240.614 218.649 241.354 218.649C242.163 218.649 242.8 218.406 243.268 217.917C243.735 217.42 243.969 216.732 243.969 215.854V211.815H245.006ZM247.911 208.654H248.949V219.512H247.911V208.654ZM257.805 209.268V219.512H256.753V210.205H254.343V209.268H257.805ZM267.233 218.576V219.512H260.06V218.766L264.311 214.595C264.846 214.068 265.206 213.615 265.392 213.234C265.586 212.845 265.685 212.453 265.685 212.064C265.685 211.458 265.475 210.99 265.056 210.659C264.647 210.317 264.058 210.146 263.289 210.146C262.091 210.146 261.16 210.527 260.499 211.288L259.754 210.644C260.152 210.176 260.659 209.815 261.273 209.561C261.896 209.307 262.597 209.181 263.376 209.181C264.417 209.181 265.241 209.429 265.845 209.927C266.459 210.415 266.766 211.089 266.766 211.946C266.766 212.473 266.649 212.98 266.415 213.468C266.181 213.957 265.738 214.517 265.086 215.151L261.609 218.576H267.233ZM269.499 217.99C269.722 217.99 269.908 218.069 270.054 218.225C270.201 218.371 270.274 218.556 270.274 218.781C270.274 218.898 270.254 219.024 270.215 219.161C270.186 219.298 270.137 219.454 270.069 219.629L269.456 221.649H268.754L269.251 219.527C269.094 219.478 268.968 219.39 268.871 219.264C268.773 219.126 268.725 218.965 268.725 218.781C268.725 218.556 268.798 218.371 268.944 218.225C269.09 218.069 269.275 217.99 269.499 217.99ZM220.378 234.234C219.589 234.234 218.882 234.024 218.259 233.605C217.646 233.186 217.164 232.586 216.813 231.805C216.472 231.015 216.302 230.087 216.302 229.025C216.302 227.962 216.472 227.04 216.813 226.259C217.164 225.468 217.646 224.863 218.259 224.444C218.882 224.025 219.589 223.815 220.378 223.815C221.166 223.815 221.868 224.025 222.481 224.444C223.104 224.863 223.592 225.468 223.942 226.259C224.293 227.04 224.468 227.962 224.468 229.025C224.468 230.087 224.293 231.015 223.942 231.805C223.592 232.586 223.104 233.186 222.481 233.605C221.868 234.024 221.166 234.234 220.378 234.234ZM220.378 233.268C220.971 233.268 221.493 233.102 221.941 232.771C222.399 232.44 222.753 231.957 223.007 231.322C223.261 230.687 223.387 229.923 223.387 229.025C223.387 228.126 223.261 227.362 223.007 226.727C222.753 226.092 222.399 225.609 221.941 225.278C221.493 224.947 220.971 224.781 220.378 224.781C219.784 224.781 219.258 224.947 218.8 225.278C218.352 225.609 218.002 226.092 217.748 226.727C217.494 227.362 217.368 228.126 217.368 229.025C217.368 229.923 217.494 230.687 217.748 231.322C218.002 231.957 218.352 232.44 218.8 232.771C219.258 233.102 219.784 233.268 220.378 233.268ZM230.211 228.015C230.883 228.015 231.477 228.141 231.993 228.395C232.519 228.65 232.928 229.01 233.22 229.478C233.513 229.937 233.659 230.473 233.659 231.088C233.659 231.712 233.507 232.264 233.206 232.742C232.905 233.219 232.485 233.59 231.949 233.854C231.424 234.108 230.83 234.234 230.167 234.234C228.814 234.234 227.777 233.79 227.056 232.903C226.334 232.004 225.975 230.742 225.975 229.112C225.975 227.971 226.17 227.005 226.559 226.215C226.948 225.425 227.494 224.83 228.195 224.429C228.896 224.02 229.714 223.815 230.649 223.815C231.663 223.815 232.47 224 233.074 224.371L232.651 225.22C232.163 224.898 231.502 224.737 230.664 224.737C229.534 224.737 228.648 225.097 228.005 225.82C227.362 226.531 227.041 227.57 227.041 228.937C227.041 229.18 227.056 229.458 227.085 229.771C227.339 229.215 227.742 228.785 228.297 228.483C228.852 228.17 229.49 228.015 230.211 228.015ZM230.123 233.342C230.863 233.342 231.462 233.142 231.92 232.742C232.388 232.332 232.622 231.79 232.622 231.117C232.622 230.444 232.388 229.908 231.92 229.507C231.462 229.107 230.839 228.907 230.05 228.907C229.534 228.907 229.077 229.004 228.677 229.2C228.288 229.396 227.981 229.663 227.757 230.005C227.532 230.347 227.421 230.728 227.421 231.146C227.421 231.536 227.523 231.898 227.728 232.229C227.941 232.561 228.254 232.829 228.663 233.034C229.072 233.239 229.559 233.342 230.123 233.342ZM235.666 227.986C235.452 227.986 235.266 227.907 235.11 227.751C234.964 227.596 234.891 227.406 234.891 227.181C234.891 226.956 234.964 226.771 235.11 226.625C235.266 226.469 235.452 226.39 235.666 226.39C235.879 226.39 236.065 226.469 236.221 226.625C236.376 226.771 236.454 226.956 236.454 227.181C236.454 227.406 236.376 227.596 236.221 227.751C236.065 227.907 235.879 227.986 235.666 227.986ZM235.666 234.22C235.452 234.22 235.266 234.141 235.11 233.986C234.964 233.83 234.891 233.64 234.891 233.415C234.891 233.19 234.964 233.005 235.11 232.859C235.266 232.703 235.452 232.625 235.666 232.625C235.879 232.625 236.065 232.703 236.221 232.859C236.376 233.005 236.454 233.19 236.454 233.415C236.454 233.64 236.376 233.83 236.221 233.986C236.065 234.141 235.879 234.22 235.666 234.22ZM242.048 234.234C241.259 234.234 240.554 234.024 239.929 233.605C239.316 233.186 238.834 232.586 238.483 231.805C238.144 231.015 237.972 230.087 237.972 229.025C237.972 227.962 238.144 227.04 238.483 226.259C238.834 225.468 239.316 224.863 239.929 224.444C240.554 224.025 241.259 223.815 242.048 223.815C242.837 223.815 243.538 224.025 244.151 224.444C244.776 224.863 245.262 225.468 245.612 226.259C245.963 227.04 246.138 227.962 246.138 229.025C246.138 230.087 245.963 231.015 245.612 231.805C245.262 232.586 244.776 233.186 244.151 233.605C243.538 234.024 242.837 234.234 242.048 234.234ZM242.048 233.268C242.643 233.268 243.164 233.102 243.611 232.771C244.069 232.44 244.425 231.957 244.677 231.322C244.931 230.687 245.057 229.923 245.057 229.025C245.057 228.126 244.931 227.362 244.677 226.727C244.425 226.092 244.069 225.609 243.611 225.278C243.164 224.947 242.643 224.781 242.048 224.781C241.454 224.781 240.928 224.947 240.47 225.278C240.023 225.609 239.672 226.092 239.418 226.727C239.166 227.362 239.038 228.126 239.038 229.025C239.038 229.923 239.166 230.687 239.418 231.322C239.672 231.957 240.023 232.44 240.47 232.771C240.928 233.102 241.454 233.268 242.048 233.268ZM251.721 234.234C250.932 234.234 250.227 234.024 249.602 233.605C248.989 233.186 248.507 232.586 248.156 231.805C247.816 231.015 247.645 230.087 247.645 229.025C247.645 227.962 247.816 227.04 248.156 226.259C248.507 225.468 248.989 224.863 249.602 224.444C250.227 224.025 250.932 223.815 251.721 223.815C252.509 223.815 253.211 224.025 253.824 224.444C254.449 224.863 254.934 225.468 255.285 226.259C255.636 227.04 255.811 227.962 255.811 229.025C255.811 230.087 255.636 231.015 255.285 231.805C254.934 232.586 254.449 233.186 253.824 233.605C253.211 234.024 252.509 234.234 251.721 234.234ZM251.721 233.268C252.316 233.268 252.836 233.102 253.284 232.771C253.742 232.44 254.098 231.957 254.35 231.322C254.604 230.687 254.73 229.923 254.73 229.025C254.73 228.126 254.604 227.362 254.35 226.727C254.098 226.092 253.742 225.609 253.284 225.278C252.836 224.947 252.316 224.781 251.721 224.781C251.127 224.781 250.601 224.947 250.143 225.278C249.695 225.609 249.345 226.092 249.091 226.727C248.839 227.362 248.711 228.126 248.711 229.025C248.711 229.923 248.839 230.687 249.091 231.322C249.345 231.957 249.695 232.44 250.143 232.771C250.601 233.102 251.127 233.268 251.721 233.268ZM268.46 231.41H262.763L261.536 234.146H260.411L265.086 223.903H266.152L270.827 234.146H269.687L268.46 231.41ZM268.066 230.532L265.612 225.029L263.157 230.532H268.066ZM283.138 223.903V234.146H282.101V225.951L278.084 232.844H277.572L273.555 225.995V234.146H272.518V223.903H273.409L277.85 231.498L282.247 223.903H283.138Z" fill="black"/>
<path d="M314.252 219.6C313.667 219.6 313.127 219.474 312.63 219.22C312.133 218.965 311.73 218.605 311.418 218.137L312.06 217.405C312.625 218.245 313.361 218.664 314.266 218.664C315.532 218.664 316.165 217.912 316.165 216.41V210.205H312.426V209.268H317.232V216.366C317.232 217.44 316.978 218.248 316.472 218.795C315.975 219.331 315.236 219.6 314.252 219.6ZM327.18 211.815V219.512H326.187V218.107C325.915 218.576 325.539 218.942 325.062 219.205C324.585 219.459 324.039 219.586 323.426 219.586C322.423 219.586 321.629 219.307 321.045 218.751C320.469 218.186 320.183 217.361 320.183 216.278V211.815H321.22V216.176C321.22 216.986 321.419 217.601 321.819 218.02C322.219 218.439 322.789 218.649 323.528 218.649C324.337 218.649 324.974 218.406 325.442 217.917C325.909 217.42 326.143 216.732 326.143 215.854V211.815H327.18ZM330.086 208.654H331.123V219.512H330.086V208.654ZM339.979 209.268V219.512H338.928V210.205H336.517V209.268H339.979ZM349.407 218.576V219.512H342.235V218.766L346.486 214.595C347.021 214.068 347.38 213.615 347.567 213.234C347.76 212.845 347.859 212.453 347.859 212.064C347.859 211.458 347.649 210.99 347.231 210.659C346.822 210.317 346.232 210.146 345.463 210.146C344.265 210.146 343.334 210.527 342.673 211.288L341.928 210.644C342.326 210.176 342.834 209.815 343.447 209.561C344.07 209.307 344.771 209.181 345.551 209.181C346.592 209.181 347.415 209.429 348.02 209.927C348.633 210.415 348.94 211.089 348.94 211.946C348.94 212.473 348.823 212.98 348.589 213.468C348.356 213.957 347.912 214.517 347.26 215.151L343.783 218.576H349.407ZM351.674 217.99C351.896 217.99 352.083 218.069 352.229 218.225C352.375 218.371 352.448 218.556 352.448 218.781C352.448 218.898 352.428 219.024 352.389 219.161C352.36 219.298 352.311 219.454 352.243 219.629L351.63 221.649H350.929L351.425 219.527C351.268 219.478 351.142 219.39 351.045 219.264C350.947 219.126 350.899 218.965 350.899 218.781C350.899 218.556 350.972 218.371 351.118 218.225C351.265 218.069 351.449 217.99 351.674 217.99ZM302.552 234.234C301.763 234.234 301.056 234.024 300.434 233.605C299.82 233.186 299.338 232.586 298.987 231.805C298.646 231.015 298.476 230.087 298.476 229.025C298.476 227.962 298.646 227.04 298.987 226.259C299.338 225.468 299.82 224.863 300.434 224.444C301.056 224.025 301.763 223.815 302.552 223.815C303.341 223.815 304.042 224.025 304.656 224.444C305.278 224.863 305.766 225.468 306.116 226.259C306.467 227.04 306.642 227.962 306.642 229.025C306.642 230.087 306.467 231.015 306.116 231.805C305.766 232.586 305.278 233.186 304.656 233.605C304.042 234.024 303.341 234.234 302.552 234.234ZM302.552 233.268C303.145 233.268 303.668 233.102 304.115 232.771C304.573 232.44 304.928 231.957 305.181 231.322C305.435 230.687 305.561 229.923 305.561 229.025C305.561 228.126 305.435 227.362 305.181 226.727C304.928 226.092 304.573 225.609 304.115 225.278C303.668 224.947 303.145 224.781 302.552 224.781C301.958 224.781 301.432 224.947 300.974 225.278C300.527 225.609 300.176 226.092 299.922 226.727C299.668 227.362 299.543 228.126 299.543 229.025C299.543 229.923 299.668 230.687 299.922 231.322C300.176 231.957 300.527 232.44 300.974 232.771C301.432 233.102 301.958 233.268 302.552 233.268ZM311.334 223.815C312.687 223.815 313.724 224.263 314.445 225.161C315.166 226.048 315.526 227.307 315.526 228.937C315.526 230.078 315.331 231.044 314.942 231.834C314.553 232.625 314.007 233.225 313.306 233.634C312.605 234.035 311.786 234.234 310.851 234.234C309.838 234.234 309.031 234.05 308.426 233.678L308.85 232.829C309.338 233.151 309.999 233.312 310.837 233.312C311.967 233.312 312.853 232.956 313.496 232.244C314.138 231.521 314.46 230.479 314.46 229.112C314.46 228.858 314.445 228.58 314.416 228.278C314.162 228.834 313.759 229.268 313.203 229.581C312.648 229.882 312.011 230.034 311.29 230.034C310.618 230.034 310.019 229.908 309.493 229.654C308.976 229.4 308.573 229.045 308.28 228.586C307.988 228.117 307.842 227.576 307.842 226.961C307.842 226.337 307.994 225.785 308.295 225.307C308.596 224.83 309.011 224.464 309.537 224.21C310.072 223.946 310.671 223.815 311.334 223.815ZM311.45 229.142C311.967 229.142 312.42 229.045 312.809 228.849C313.209 228.653 313.519 228.386 313.744 228.044C313.969 227.702 314.08 227.321 314.08 226.903C314.08 226.513 313.972 226.151 313.759 225.82C313.554 225.489 313.247 225.22 312.838 225.015C312.429 224.81 311.942 224.707 311.377 224.707C310.638 224.707 310.033 224.912 309.566 225.322C309.108 225.723 308.879 226.259 308.879 226.932C308.879 227.605 309.108 228.141 309.566 228.542C310.033 228.942 310.662 229.142 311.45 229.142ZM317.84 227.986C317.626 227.986 317.44 227.907 317.285 227.751C317.139 227.596 317.066 227.406 317.066 227.181C317.066 226.956 317.139 226.771 317.285 226.625C317.44 226.469 317.626 226.39 317.84 226.39C318.054 226.39 318.24 226.469 318.395 226.625C318.55 226.771 318.629 226.956 318.629 227.181C318.629 227.406 318.55 227.596 318.395 227.751C318.24 227.907 318.054 227.986 317.84 227.986ZM317.84 234.22C317.626 234.22 317.44 234.141 317.285 233.986C317.139 233.83 317.066 233.64 317.066 233.415C317.066 233.19 317.139 233.005 317.285 232.859C317.44 232.703 317.626 232.625 317.84 232.625C318.054 232.625 318.24 232.703 318.395 232.859C318.55 233.005 318.629 233.19 318.629 233.415C318.629 233.64 318.55 233.83 318.395 233.986C318.24 234.141 318.054 234.22 317.84 234.22ZM324.222 234.234C323.433 234.234 322.728 234.024 322.104 233.605C321.49 233.186 321.008 232.586 320.658 231.805C320.318 231.015 320.146 230.087 320.146 229.025C320.146 227.962 320.318 227.04 320.658 226.259C321.008 225.468 321.49 224.863 322.104 224.444C322.728 224.025 323.433 223.815 324.222 223.815C325.011 223.815 325.712 224.025 326.326 224.444C326.95 224.863 327.436 225.468 327.787 226.259C328.137 227.04 328.312 227.962 328.312 229.025C328.312 230.087 328.137 231.015 327.787 231.805C327.436 232.586 326.95 233.186 326.326 233.605C325.712 234.024 325.011 234.234 324.222 234.234ZM324.222 233.268C324.817 233.268 325.338 233.102 325.785 232.771C326.244 232.44 326.6 231.957 326.852 231.322C327.105 230.687 327.231 229.923 327.231 229.025C327.231 228.126 327.105 227.362 326.852 226.727C326.6 226.092 326.244 225.609 325.785 225.278C325.338 224.947 324.817 224.781 324.222 224.781C323.629 224.781 323.103 224.947 322.644 225.278C322.197 225.609 321.846 226.092 321.592 226.727C321.34 227.362 321.213 228.126 321.213 229.025C321.213 229.923 321.34 230.687 321.592 231.322C321.846 231.957 322.197 232.44 322.644 232.771C323.103 233.102 323.629 233.268 324.222 233.268ZM333.895 234.234C333.106 234.234 332.401 234.024 331.777 233.605C331.163 233.186 330.681 232.586 330.33 231.805C329.991 231.015 329.819 230.087 329.819 229.025C329.819 227.962 329.991 227.04 330.33 226.259C330.681 225.468 331.163 224.863 331.777 224.444C332.401 224.025 333.106 223.815 333.895 223.815C334.684 223.815 335.385 224.025 335.998 224.444C336.623 224.863 337.109 225.468 337.459 226.259C337.81 227.04 337.985 227.962 337.985 229.025C337.985 230.087 337.81 231.015 337.459 231.805C337.109 232.586 336.623 233.186 335.998 233.605C335.385 234.024 334.684 234.234 333.895 234.234ZM333.895 233.268C334.49 233.268 335.011 233.102 335.458 232.771C335.916 232.44 336.272 231.957 336.524 231.322C336.778 230.687 336.904 229.923 336.904 229.025C336.904 228.126 336.778 227.362 336.524 226.727C336.272 226.092 335.916 225.609 335.458 225.278C335.011 224.947 334.49 224.781 333.895 224.781C333.301 224.781 332.775 224.947 332.317 225.278C331.87 225.609 331.519 226.092 331.265 226.727C331.013 227.362 330.885 228.126 330.885 229.025C330.885 229.923 331.013 230.687 331.265 231.322C331.519 231.957 331.87 232.44 332.317 232.771C332.775 233.102 333.301 233.268 333.895 233.268ZM350.635 231.41H344.937L343.71 234.146H342.585L347.26 223.903H348.326L353.001 234.146H351.862L350.635 231.41ZM350.24 230.532L347.786 225.029L345.332 230.532H350.24ZM365.313 223.903V234.146H364.275V225.951L360.258 232.844H359.747L355.729 225.995V234.146H354.692V223.903H355.583L360.024 231.498L364.421 223.903H365.313Z" fill="black"/>
<path d="M142.357 219.6C141.773 219.6 141.232 219.474 140.735 219.22C140.239 218.965 139.835 218.605 139.523 218.137L140.166 217.405C140.73 218.245 141.466 218.664 142.372 218.664C143.638 218.664 144.271 217.912 144.271 216.41V210.205H140.531V209.268H145.337V216.366C145.337 217.44 145.084 218.248 144.577 218.795C144.081 219.331 143.341 219.6 142.357 219.6ZM155.285 211.815V219.512H154.292V218.107C154.019 218.576 153.644 218.942 153.167 219.205C152.69 219.459 152.144 219.586 151.531 219.586C150.528 219.586 149.734 219.307 149.15 218.751C148.575 218.186 148.288 217.361 148.288 216.278V211.815H149.325V216.176C149.325 216.986 149.525 217.601 149.924 218.02C150.323 218.439 150.893 218.649 151.633 218.649C152.441 218.649 153.079 218.406 153.547 217.917C154.014 217.42 154.248 216.732 154.248 215.854V211.815H155.285ZM158.19 208.654H159.227V219.512H158.19V208.654ZM168.084 209.268V219.512H167.032V210.205H164.622V209.268H168.084ZM173.363 209.268V219.512H172.311V210.205H169.901V209.268H173.363ZM176.611 217.99C176.835 217.99 177.02 218.069 177.166 218.225C177.312 218.371 177.385 218.556 177.385 218.781C177.385 218.898 177.366 219.024 177.327 219.161C177.297 219.298 177.249 219.454 177.181 219.629L176.567 221.649H175.866L176.362 219.527C176.207 219.478 176.08 219.39 175.983 219.264C175.885 219.126 175.837 218.965 175.837 218.781C175.837 218.556 175.91 218.371 176.056 218.225C176.202 218.069 176.387 217.99 176.611 217.99ZM129.138 234.234C128.349 234.234 127.643 234.024 127.02 233.605C126.406 233.186 125.924 232.586 125.573 231.805C125.232 231.015 125.062 230.087 125.062 229.025C125.062 227.962 125.232 227.04 125.573 226.259C125.924 225.468 126.406 224.863 127.02 224.444C127.643 224.025 128.349 223.815 129.138 223.815C129.927 223.815 130.628 224.025 131.241 224.444C131.865 224.863 132.352 225.468 132.702 226.259C133.053 227.04 133.228 227.962 133.228 229.025C133.228 230.087 133.053 231.015 132.702 231.805C132.352 232.586 131.865 233.186 131.241 233.605C130.628 234.024 129.927 234.234 129.138 234.234ZM129.138 233.268C129.732 233.268 130.253 233.102 130.701 232.771C131.159 232.44 131.514 231.957 131.767 231.322C132.021 230.687 132.147 229.923 132.147 229.025C132.147 228.126 132.021 227.362 131.767 226.727C131.514 226.092 131.159 225.609 130.701 225.278C130.253 224.947 129.732 224.781 129.138 224.781C128.544 224.781 128.018 224.947 127.56 225.278C127.112 225.609 126.762 226.092 126.508 226.727C126.255 227.362 126.128 228.126 126.128 229.025C126.128 229.923 126.255 230.687 126.508 231.322C126.762 231.957 127.112 232.44 127.56 232.771C128.018 233.102 128.544 233.268 129.138 233.268ZM137.919 223.815C139.273 223.815 140.31 224.263 141.031 225.161C141.752 226.048 142.112 227.307 142.112 228.937C142.112 230.078 141.917 231.044 141.528 231.834C141.138 232.625 140.593 233.225 139.891 233.634C139.19 234.035 138.372 234.234 137.437 234.234C136.424 234.234 135.616 234.05 135.012 233.678L135.436 232.829C135.923 233.151 136.585 233.312 137.423 233.312C138.552 233.312 139.439 232.956 140.081 232.244C140.724 231.521 141.046 230.479 141.046 229.112C141.046 228.858 141.031 228.58 141.002 228.278C140.748 228.834 140.344 229.268 139.789 229.581C139.234 229.882 138.596 230.034 137.875 230.034C137.203 230.034 136.605 229.908 136.079 229.654C135.562 229.4 135.158 229.045 134.866 228.586C134.574 228.117 134.428 227.576 134.428 226.961C134.428 226.337 134.579 225.785 134.881 225.307C135.183 224.83 135.597 224.464 136.122 224.21C136.658 223.946 137.257 223.815 137.919 223.815ZM138.036 229.142C138.552 229.142 139.005 229.045 139.395 228.849C139.794 228.653 140.106 228.386 140.33 228.044C140.554 227.702 140.666 227.321 140.666 226.903C140.666 226.513 140.559 226.151 140.344 225.82C140.14 225.489 139.833 225.22 139.424 225.015C139.015 224.81 138.528 224.707 137.963 224.707C137.223 224.707 136.619 224.912 136.152 225.322C135.694 225.723 135.465 226.259 135.465 226.932C135.465 227.605 135.694 228.141 136.152 228.542C136.619 228.942 137.247 229.142 138.036 229.142ZM144.426 227.986C144.211 227.986 144.026 227.907 143.871 227.751C143.724 227.596 143.651 227.406 143.651 227.181C143.651 226.956 143.724 226.771 143.871 226.625C144.026 226.469 144.211 226.39 144.426 226.39C144.64 226.39 144.825 226.469 144.981 226.625C145.137 226.771 145.215 226.956 145.215 227.181C145.215 227.406 145.137 227.596 144.981 227.751C144.825 227.907 144.64 227.986 144.426 227.986ZM144.426 234.22C144.211 234.22 144.026 234.141 143.871 233.986C143.724 233.83 143.651 233.64 143.651 233.415C143.651 233.19 143.724 233.005 143.871 232.859C144.026 232.703 144.211 232.625 144.426 232.625C144.64 232.625 144.825 232.703 144.981 232.859C145.137 233.005 145.215 233.19 145.215 233.415C145.215 233.64 145.137 233.83 144.981 233.986C144.825 234.141 144.64 234.22 144.426 234.22ZM150.808 234.234C150.02 234.234 149.313 234.024 148.69 233.605C148.077 233.186 147.594 232.586 147.244 231.805C146.903 231.015 146.733 230.087 146.733 229.025C146.733 227.962 146.903 227.04 147.244 226.259C147.594 225.468 148.077 224.863 148.69 224.444C149.313 224.025 150.02 223.815 150.808 223.815C151.597 223.815 152.298 224.025 152.912 224.444C153.535 224.863 154.022 225.468 154.373 226.259C154.724 227.04 154.899 227.962 154.899 229.025C154.899 230.087 154.724 231.015 154.373 231.805C154.022 232.586 153.535 233.186 152.912 233.605C152.298 234.024 151.597 234.234 150.808 234.234ZM150.808 233.268C151.402 233.268 151.924 233.102 152.372 232.771C152.829 232.44 153.185 231.957 153.438 231.322C153.691 230.687 153.818 229.923 153.818 229.025C153.818 228.126 153.691 227.362 153.438 226.727C153.185 226.092 152.829 225.609 152.372 225.278C151.924 224.947 151.402 224.781 150.808 224.781C150.214 224.781 149.688 224.947 149.231 225.278C148.783 225.609 148.432 226.092 148.179 226.727C147.926 227.362 147.799 228.126 147.799 229.025C147.799 229.923 147.926 230.687 148.179 231.322C148.432 231.957 148.783 232.44 149.231 232.771C149.688 233.102 150.214 233.268 150.808 233.268ZM160.481 234.234C159.692 234.234 158.986 234.024 158.363 233.605C157.749 233.186 157.267 232.586 156.916 231.805C156.576 231.015 156.405 230.087 156.405 229.025C156.405 227.962 156.576 227.04 156.916 226.259C157.267 225.468 157.749 224.863 158.363 224.444C158.986 224.025 159.692 223.815 160.481 223.815C161.27 223.815 161.971 224.025 162.585 224.444C163.208 224.863 163.695 225.468 164.046 226.259C164.396 227.04 164.571 227.962 164.571 229.025C164.571 230.087 164.396 231.015 164.046 231.805C163.695 232.586 163.208 233.186 162.585 233.605C161.971 234.024 161.27 234.234 160.481 234.234ZM160.481 233.268C161.075 233.268 161.596 233.102 162.044 232.771C162.502 232.44 162.857 231.957 163.111 231.322C163.364 230.687 163.49 229.923 163.49 229.025C163.49 228.126 163.364 227.362 163.111 226.727C162.857 226.092 162.502 225.609 162.044 225.278C161.596 224.947 161.075 224.781 160.481 224.781C159.887 224.781 159.361 224.947 158.903 225.278C158.455 225.609 158.105 226.092 157.851 226.727C157.598 227.362 157.472 228.126 157.472 229.025C157.472 229.923 157.598 230.687 157.851 231.322C158.105 231.957 158.455 232.44 158.903 232.771C159.361 233.102 159.887 233.268 160.481 233.268ZM174.634 223.903C175.939 223.903 176.962 224.215 177.702 224.839C178.442 225.463 178.812 226.323 178.812 227.415C178.812 228.507 178.442 229.367 177.702 229.99C176.962 230.605 175.939 230.912 174.634 230.912H171.888V234.146H170.807V223.903H174.634ZM174.605 229.961C175.618 229.961 176.392 229.742 176.928 229.303C177.463 228.854 177.731 228.225 177.731 227.415C177.731 226.586 177.463 225.951 176.928 225.512C176.392 225.064 175.618 224.839 174.605 224.839H171.888V229.961H174.605ZM191.77 223.903V234.146H190.733V225.951L186.716 232.844H186.204L182.187 225.995V234.146H181.15V223.903H182.041L186.482 231.498L190.879 223.903H191.77Z" fill="black"/>
<g filter="url(#filter702468)">
<path d="M242.87 204.878H180.783C178.766 204.878 177.13 206.516 177.13 208.536V235.976C177.13 237.996 178.766 239.634 180.783 239.634H242.87C244.887 239.634 246.522 237.996 246.522 235.976V208.536C246.522 206.516 244.887 204.878 242.87 204.878Z" fill="white"/>
</g>
<path d="M58.3568 219.6C57.7724 219.6 57.2319 219.474 56.7352 219.22C56.2385 218.965 55.8344 218.605 55.5227 218.137L56.1654 217.405C56.7303 218.245 57.4656 218.664 58.3714 218.664C59.6374 218.664 60.2705 217.912 60.2705 216.41V210.205H56.5307V209.268H61.3369V216.366C61.3369 217.44 61.0837 218.248 60.5773 218.795C60.0806 219.331 59.3405 219.6 58.3568 219.6ZM71.2851 211.815V219.512H70.2917V218.107C70.0191 218.576 69.6442 218.942 69.1668 219.205C68.6897 219.459 68.1442 219.586 67.5306 219.586C66.5276 219.586 65.7338 219.307 65.1494 218.751C64.5749 218.186 64.2875 217.361 64.2875 216.278V211.815H65.3247V216.176C65.3247 216.986 65.5245 217.601 65.9237 218.02C66.3231 218.439 66.8928 218.649 67.6329 218.649C68.4413 218.649 69.0792 218.406 69.5466 217.917C70.0141 217.42 70.2479 216.732 70.2479 215.854V211.815H71.2851ZM74.19 208.654H75.2272V219.512H74.19V208.654ZM84.0841 209.268V219.512H83.0323V210.205H80.6219V209.268H84.0841ZM89.3628 209.268V219.512H88.311V210.205H85.9005V209.268H89.3628ZM92.6107 217.99C92.8346 217.99 93.0197 218.069 93.1658 218.225C93.3119 218.371 93.3849 218.556 93.3849 218.781C93.3849 218.898 93.3654 219.024 93.3265 219.161C93.2973 219.298 93.2485 219.454 93.1804 219.629L92.5668 221.649H91.8656L92.3623 219.527C92.2064 219.478 92.0798 219.39 91.9825 219.264C91.885 219.126 91.8364 218.965 91.8364 218.781C91.8364 218.556 91.9095 218.371 92.0555 218.225C92.2016 218.069 92.3866 217.99 92.6107 217.99ZM45.5373 234.234C44.7484 234.234 44.0422 234.024 43.419 233.605C42.8054 233.186 42.3233 232.586 41.9727 231.805C41.6318 231.015 41.4614 230.087 41.4614 229.025C41.4614 227.962 41.6318 227.04 41.9727 226.259C42.3233 225.468 42.8054 224.863 43.419 224.444C44.0422 224.025 44.7484 223.815 45.5373 223.815C46.3261 223.815 47.0273 224.025 47.6409 224.444C48.2642 224.863 48.7512 225.468 49.1018 226.259C49.4524 227.04 49.6277 227.962 49.6277 229.025C49.6277 230.087 49.4524 231.015 49.1018 231.805C48.7512 232.586 48.2642 233.186 47.6409 233.605C47.0273 234.024 46.3261 234.234 45.5373 234.234ZM45.5373 233.268C46.1313 233.268 46.6523 233.102 47.1004 232.771C47.558 232.44 47.9135 231.957 48.1668 231.322C48.4199 230.687 48.5466 229.923 48.5466 229.025C48.5466 228.126 48.4199 227.362 48.1668 226.727C47.9135 226.092 47.558 225.609 47.1004 225.278C46.6523 224.947 46.1313 224.781 45.5373 224.781C44.943 224.781 44.4171 224.947 43.9595 225.278C43.5114 225.609 43.1608 226.092 42.9077 226.727C42.6544 227.362 42.5279 228.126 42.5279 229.025C42.5279 229.923 42.6544 230.687 42.9077 231.322C43.1608 231.957 43.5114 232.44 43.9595 232.771C44.4171 233.102 44.943 233.268 45.5373 233.268ZM54.4681 228.293C55.5395 228.351 56.3526 228.644 56.9078 229.171C57.4726 229.689 57.7551 230.365 57.7551 231.205C57.7551 231.79 57.6139 232.312 57.3314 232.771C57.0489 233.219 56.6302 233.576 56.0751 233.839C55.5199 234.103 54.843 234.234 54.0444 234.234C53.3043 234.234 52.6031 234.117 51.9408 233.883C51.2883 233.64 50.7624 233.318 50.3631 232.917L50.8744 232.083C51.2153 232.434 51.6682 232.721 52.233 232.946C52.7978 233.161 53.4017 233.268 54.0444 233.268C54.8821 233.268 55.5296 233.087 55.9874 232.727C56.4452 232.356 56.674 231.849 56.674 231.205C56.674 230.57 56.4452 230.073 55.9874 229.712C55.5296 229.352 54.8382 229.171 53.913 229.171H53.1825V228.395L56.0166 224.839H50.7867V223.903H57.3606V224.649L54.4681 228.293ZM60.026 227.986C59.8118 227.986 59.6268 227.907 59.4709 227.751C59.3248 227.596 59.2517 227.406 59.2517 227.181C59.2517 226.956 59.3248 226.771 59.4709 226.625C59.6268 226.469 59.8118 226.39 60.026 226.39C60.2404 226.39 60.4253 226.469 60.5811 226.625C60.7371 226.771 60.8148 226.956 60.8148 227.181C60.8148 227.406 60.7371 227.596 60.5811 227.751C60.4253 227.907 60.2404 227.986 60.026 227.986ZM60.026 234.22C59.8118 234.22 59.6268 234.141 59.4709 233.986C59.3248 233.83 59.2517 233.64 59.2517 233.415C59.2517 233.19 59.3248 233.005 59.4709 232.859C59.6268 232.703 59.8118 232.625 60.026 232.625C60.2404 232.625 60.4253 232.703 60.5811 232.859C60.7371 233.005 60.8148 233.19 60.8148 233.415C60.8148 233.64 60.7371 233.83 60.5811 233.986C60.4253 234.141 60.2404 234.22 60.026 234.22ZM66.4089 234.234C65.62 234.234 64.9139 234.024 64.2906 233.605C63.6771 233.186 63.195 232.586 62.8444 231.805C62.5034 231.015 62.3331 230.087 62.3331 229.025C62.3331 227.962 62.5034 227.04 62.8444 226.259C63.195 225.468 63.6771 224.863 64.2906 224.444C64.9139 224.025 65.62 223.815 66.4089 223.815C67.1978 223.815 67.899 224.025 68.5125 224.444C69.1358 224.863 69.6228 225.468 69.9734 226.259C70.324 227.04 70.4993 227.962 70.4993 229.025C70.4993 230.087 70.324 231.015 69.9734 231.805C69.6228 232.586 69.1358 233.186 68.5125 233.605C67.899 234.024 67.1978 234.234 66.4089 234.234ZM66.4089 233.268C67.0029 233.268 67.5239 233.102 67.972 232.771C68.4296 232.44 68.7852 231.957 69.0385 231.322C69.2915 230.687 69.4183 229.923 69.4183 229.025C69.4183 228.126 69.2915 227.362 69.0385 226.727C68.7852 226.092 68.4296 225.609 67.972 225.278C67.5239 224.947 67.0029 224.781 66.4089 224.781C65.8147 224.781 65.2888 224.947 64.8311 225.278C64.383 225.609 64.0324 226.092 63.7793 226.727C63.526 227.362 63.3995 228.126 63.3995 229.025C63.3995 229.923 63.526 230.687 63.7793 231.322C64.0324 231.957 64.383 232.44 64.8311 232.771C65.2888 233.102 65.8147 233.268 66.4089 233.268ZM76.0813 234.234C75.2924 234.234 74.5865 234.024 73.963 233.605C73.3495 233.186 72.8674 232.586 72.5168 231.805C72.176 231.015 72.0055 230.087 72.0055 229.025C72.0055 227.962 72.176 227.04 72.5168 226.259C72.8674 225.468 73.3495 224.863 73.963 224.444C74.5865 224.025 75.2924 223.815 76.0813 223.815C76.8702 223.815 77.5714 224.025 78.185 224.444C78.8084 224.863 79.2952 225.468 79.6458 226.259C79.9964 227.04 80.1717 227.962 80.1717 229.025C80.1717 230.087 79.9964 231.015 79.6458 231.805C79.2952 232.586 78.8084 233.186 78.185 233.605C77.5714 234.024 76.8702 234.234 76.0813 234.234ZM76.0813 233.268C76.6755 233.268 77.1965 233.102 77.6444 232.771C78.1022 232.44 78.4578 231.957 78.7109 231.322C78.9641 230.687 79.0907 229.923 79.0907 229.025C79.0907 228.126 78.9641 227.362 78.7109 226.727C78.4578 226.092 78.1022 225.609 77.6444 225.278C77.1965 224.947 76.6755 224.781 76.0813 224.781C75.4873 224.781 74.9614 224.947 74.5036 225.278C74.0556 225.609 73.705 226.092 73.4517 226.727C73.1986 227.362 73.0719 228.126 73.0719 229.025C73.0719 229.923 73.1986 230.687 73.4517 231.322C73.705 231.957 74.0556 232.44 74.5036 232.771C74.9614 233.102 75.4873 233.268 76.0813 233.268ZM90.2348 223.903C91.5397 223.903 92.5623 224.215 93.3026 224.839C94.0427 225.463 94.4128 226.323 94.4128 227.415C94.4128 228.507 94.0427 229.367 93.3026 229.99C92.5623 230.605 91.5397 230.912 90.2348 230.912H87.4883V234.146H86.4073V223.903H90.2348ZM90.2055 229.961C91.2183 229.961 91.9925 229.742 92.5283 229.303C93.0639 228.854 93.3316 228.225 93.3316 227.415C93.3316 226.586 93.0639 225.951 92.5283 225.512C91.9925 225.064 91.2183 224.839 90.2055 224.839H87.4883V229.961H90.2055ZM107.371 223.903V234.146H106.334V225.951L102.316 232.844H101.805L97.7875 225.995V234.146H96.7502V223.903H97.6414L102.082 231.498L106.48 223.903H107.371Z" fill="black"/>
<path d="M194.643 219.6C194.058 219.6 193.518 219.474 193.021 219.22C192.524 218.965 192.121 218.605 191.809 218.137L192.451 217.405C193.016 218.245 193.752 218.664 194.657 218.664C195.923 218.664 196.556 217.912 196.556 216.41V210.205H192.817V209.268H197.623V216.366C197.623 217.44 197.369 218.248 196.863 218.795C196.367 219.331 195.627 219.6 194.643 219.6ZM207.571 211.815V219.512H206.578V218.107C206.306 218.576 205.93 218.942 205.453 219.205C204.977 219.459 204.431 219.586 203.817 219.586C202.814 219.586 202.02 219.307 201.436 218.751C200.861 218.186 200.574 217.361 200.574 216.278V211.815H201.611V216.176C201.611 216.986 201.81 217.601 202.21 218.02C202.61 218.439 203.18 218.649 203.919 218.649C204.728 218.649 205.365 218.406 205.833 217.917C206.3 217.42 206.534 216.732 206.534 215.854V211.815H207.571ZM210.477 208.654H211.514V219.512H210.477V208.654ZM220.37 209.268V219.512H219.319V210.205H216.908V209.268H220.37ZM229.799 218.576V219.512H222.626V218.766L226.877 214.595C227.412 214.068 227.772 213.615 227.958 213.234C228.151 212.845 228.25 212.453 228.25 212.064C228.25 211.458 228.04 210.99 227.622 210.659C227.213 210.317 226.623 210.146 225.854 210.146C224.656 210.146 223.725 210.527 223.064 211.288L222.319 210.644C222.717 210.176 223.225 209.815 223.838 209.561C224.461 209.307 225.162 209.181 225.942 209.181C226.983 209.181 227.806 209.429 228.411 209.927C229.024 210.415 229.331 211.089 229.331 211.946C229.331 212.473 229.214 212.98 228.98 213.468C228.747 213.957 228.303 214.517 227.651 215.151L224.174 218.576H229.799ZM232.065 217.99C232.287 217.99 232.474 218.069 232.62 218.225C232.766 218.371 232.839 218.556 232.839 218.781C232.839 218.898 232.819 219.024 232.781 219.161C232.751 219.298 232.702 219.454 232.634 219.629L232.021 221.649H231.32L231.816 219.527C231.659 219.478 231.533 219.39 231.437 219.264C231.338 219.126 231.29 218.965 231.29 218.781C231.29 218.556 231.363 218.371 231.51 218.225C231.656 218.069 231.84 217.99 232.065 217.99ZM187.108 223.903V234.146H186.056V224.839H183.646V223.903H187.108ZM196.536 233.21V234.146H189.363V233.4L193.615 229.229C194.15 228.703 194.509 228.249 194.696 227.868C194.889 227.479 194.988 227.087 194.988 226.698C194.988 226.092 194.778 225.624 194.36 225.293C193.951 224.951 193.361 224.781 192.592 224.781C191.394 224.781 190.463 225.161 189.802 225.922L189.057 225.278C189.455 224.81 189.962 224.45 190.576 224.195C191.199 223.941 191.9 223.815 192.68 223.815C193.721 223.815 194.544 224.064 195.149 224.561C195.762 225.05 196.069 225.723 196.069 226.581C196.069 227.107 195.952 227.614 195.718 228.103C195.485 228.591 195.041 229.151 194.389 229.786L190.912 233.21H196.536ZM198.645 227.986C198.43 227.986 198.246 227.907 198.09 227.751C197.944 227.596 197.871 227.406 197.871 227.181C197.871 226.956 197.944 226.771 198.09 226.625C198.246 226.469 198.43 226.39 198.645 226.39C198.859 226.39 199.044 226.469 199.201 226.625C199.356 226.771 199.434 226.956 199.434 227.181C199.434 227.406 199.356 227.596 199.201 227.751C199.044 227.907 198.859 227.986 198.645 227.986ZM198.645 234.22C198.43 234.22 198.246 234.141 198.09 233.986C197.944 233.83 197.871 233.64 197.871 233.415C197.871 233.19 197.944 233.005 198.09 232.859C198.246 232.703 198.43 232.625 198.645 232.625C198.859 232.625 199.044 232.703 199.201 232.859C199.356 233.005 199.434 233.19 199.434 233.415C199.434 233.64 199.356 233.83 199.201 233.986C199.044 234.141 198.859 234.22 198.645 234.22ZM203.786 223.903V234.146H202.734V224.839H200.324V223.903H203.786ZM209.708 228.293C210.778 228.351 211.592 228.644 212.148 229.171C212.712 229.689 212.995 230.365 212.995 231.205C212.995 231.79 212.852 232.312 212.571 232.771C212.288 233.219 211.87 233.576 211.315 233.839C210.76 234.103 210.082 234.234 209.284 234.234C208.543 234.234 207.842 234.117 207.181 233.883C206.527 233.64 206.001 233.318 205.603 232.917L206.114 232.083C206.454 232.434 206.907 232.721 207.473 232.946C208.037 233.161 208.641 233.268 209.284 233.268C210.121 233.268 210.769 233.087 211.227 232.727C211.684 232.356 211.914 231.849 211.914 231.205C211.914 230.57 211.684 230.073 211.227 229.712C210.769 229.352 210.077 229.171 209.153 229.171H208.422V228.395L211.256 224.839H206.027V223.903H212.6V224.649L209.708 228.293ZM225.619 231.41H219.921L218.694 234.146H217.569L222.244 223.903H223.31L227.985 234.146H226.846L225.619 231.41ZM225.224 230.532L222.77 225.029L220.316 230.532H225.224ZM240.297 223.903V234.146H239.259V225.951L235.242 232.844H234.731L230.713 225.995V234.146H229.676V223.903H230.567L235.008 231.498L239.406 223.903H240.297Z" fill="black"/>
<path d="M12.7827 196.646H343.304" stroke="#FA842E"/>
<path d="M12.7827 141.768H343.304" stroke="#EEEEEE" stroke-dasharray="2.2 2.2"/>
<path d="M12.7827 160.061H343.304" stroke="#EEEEEE" stroke-dasharray="2.2 2.2"/>
<path d="M12.7827 178.354H343.304" stroke="#EEEEEE" stroke-dasharray="2.2 2.2"/>
<path d="M12.7827 105.183H343.304" stroke="#EEEEEE" stroke-dasharray="2.2 2.2"/>
<path d="M12.7827 123.476H343.304" stroke="#EEEEEE" stroke-dasharray="2.2 2.2"/>
<path d="M343.304 155.488H58.4346V195.732H343.304V155.488Z" fill="#D3D3D3"/>
<path d="M343.304 137.195H58.4346V157.317H343.304V137.195Z" fill="#D3C1C1"/>
<path d="M343.304 121.646H58.4346V138.11H343.304V121.646Z" fill="#CBB6A7"/>
<path d="M343.304 108.841H58.4346V121.646H343.304V108.841Z" fill="#BADAC1"/>
<path d="M210.913 201.219V80.4878" stroke="#EEEEEE"/>
<path d="M58.4346 106.098H141.522L145.174 107.927L200.869 106.098L211.826 107.927L220.956 106.098H231.913H341.478" stroke="#C2FFD3"/>
<defs>
<filter id="filter702468" x="177.13" y="204.878" width="69.3911" height="37.7563" filterUnits="userSpaceOnUse" color-interpolation-filters="sRGB">
<feFlood flood-opacity="0" result="BackgroundImageFix"/>
<feBlend mode="normal" in="SourceGraphic" in2="BackgroundImageFix" result="shape"/>
<feColorMatrix in="SourceAlpha" type="matrix" values="0 0 0 0 0 0 0 0 0 0 0 0 0 0 0 0 0 0 127 0" result="hardAlpha"/>
<feOffset dy="3"/>
<feGaussianBlur stdDeviation="15"/>
<feComposite in2="hardAlpha" operator="arithmetic" k2="-1" k3="1"/>
<feColorMatrix type="matrix" values="0 0 0 0 0 0 0 0 0 0.111667 0 0 0 0 0.279167 0 0 0 0.1 0"/>
<feBlend mode="normal" in2="shape" result="effect1_innerShadow_702:468"/>
</filter>
</defs>
</svg>
