<svg width="378" height="300" viewBox="0 0 378 300" fill="none" xmlns="http://www.w3.org/2000/svg">
<g clip-path="url(#clip0_702:409)">
<path d="M361.303 0H18.3403C8.21122 0 0 8.17567 0 18.2609V281.217C0 291.303 8.21122 299.478 18.3403 299.478H361.303C371.432 299.478 379.643 291.303 379.643 281.217V18.2609C379.643 8.17567 371.432 0 361.303 0Z" fill="#F8FBFF"/>
<path d="M266.189 20V32.7272H264.874V21.1636H261.861V20H266.189ZM272.787 20V32.7272H271.472V21.1636H268.459V20H272.787ZM276.828 32.8181C276.559 32.8181 276.329 32.7212 276.134 32.5272C275.951 32.3332 275.86 32.0969 275.86 31.8181C275.86 31.5394 275.951 31.3091 276.134 31.1272C276.329 30.9332 276.559 30.8363 276.828 30.8363C277.096 30.8363 277.326 30.9332 277.522 31.1272C277.717 31.3091 277.814 31.5394 277.814 31.8181C277.814 32.0969 277.717 32.3332 277.522 32.5272C277.326 32.7212 277.096 32.8181 276.828 32.8181ZM283.692 19.8909C285.385 19.8909 286.682 20.4485 287.582 21.5636C288.484 22.6667 288.933 24.2303 288.933 26.2545C288.933 27.6727 288.69 28.8727 288.203 29.8545C287.717 30.8363 287.034 31.5818 286.157 32.0909C285.281 32.5878 284.258 32.8363 283.09 32.8363C281.824 32.8363 280.814 32.606 280.058 32.1454L280.588 31.0909C281.198 31.4909 282.025 31.6909 283.071 31.6909C284.485 31.6909 285.591 31.2485 286.395 30.3636C287.198 29.4667 287.6 28.1696 287.6 26.4727C287.6 26.1576 287.582 25.8121 287.545 25.4363C287.229 26.1272 286.723 26.6667 286.03 27.0545C285.336 27.4303 284.54 27.6181 283.637 27.6181C282.797 27.6181 282.049 27.4605 281.391 27.1454C280.747 26.8303 280.241 26.3878 279.876 25.8181C279.51 25.2363 279.328 24.5636 279.328 23.8C279.328 23.0241 279.518 22.3394 279.894 21.7454C280.272 21.1514 280.789 20.6969 281.446 20.3818C282.116 20.0545 282.865 19.8909 283.692 19.8909ZM283.838 26.5091C284.485 26.5091 285.051 26.3878 285.537 26.1454C286.037 25.9031 286.426 25.5696 286.705 25.1454C286.986 24.7212 287.125 24.2485 287.125 23.7272C287.125 23.2423 286.992 22.794 286.724 22.3818C286.468 21.9696 286.084 21.6363 285.573 21.3818C285.062 21.1272 284.454 21 283.747 21C282.823 21 282.067 21.2545 281.483 21.7636C280.911 22.2605 280.624 22.9272 280.624 23.7636C280.624 24.6 280.911 25.2667 281.483 25.7636C282.067 26.2605 282.852 26.5091 283.838 26.5091ZM295.259 27.9272L292.994 30V32.7272H291.698V19.2363H292.994V28.3818L298.728 23.1636H300.335L296.226 27.0727L300.719 32.7272H299.13L295.259 27.9272ZM308.686 25.0363C308.991 24.394 309.44 23.9091 310.037 23.5818C310.645 23.2545 311.394 23.0909 312.283 23.0909V24.3454L311.973 24.3272C310.963 24.3272 310.17 24.6363 309.599 25.2545C309.027 25.8727 308.741 26.7394 308.741 27.8545V32.7272H307.444V23.1636H308.686V25.0363ZM319.58 23.0909C320.481 23.0909 321.297 23.2969 322.027 23.7091C322.758 24.1091 323.329 24.6787 323.744 25.4181C324.156 26.1576 324.365 27 324.365 27.9454C324.365 28.9031 324.156 29.7514 323.744 30.4909C323.329 31.2303 322.758 31.806 322.027 32.2181C321.308 32.6181 320.493 32.8181 319.58 32.8181C318.801 32.8181 318.094 32.6605 317.462 32.3454C316.841 32.0181 316.33 31.5454 315.928 30.9272V36.2545H314.632V23.1636H315.873V25.0545C316.262 24.4241 316.774 23.9394 317.407 23.6C318.052 23.2605 318.777 23.0909 319.58 23.0909ZM319.489 31.6727C320.157 31.6727 320.767 31.5212 321.315 31.2181C321.863 30.9031 322.288 30.4605 322.593 29.8909C322.909 29.3212 323.068 28.6727 323.068 27.9454C323.068 27.2181 322.909 26.5758 322.593 26.0181C322.288 25.4485 321.863 25.006 321.315 24.6909C320.767 24.3758 320.157 24.2181 319.489 24.2181C318.806 24.2181 318.192 24.3758 317.645 24.6909C317.108 25.006 316.682 25.4485 316.366 26.0181C316.061 26.5758 315.91 27.2181 315.91 27.9454C315.91 28.6727 316.061 29.3212 316.366 29.8909C316.682 30.4605 317.108 30.9031 317.645 31.2181C318.192 31.5212 318.806 31.6727 319.489 31.6727ZM338.986 23.0909C340.191 23.0909 341.135 23.4363 341.817 24.1272C342.51 24.8181 342.857 25.8363 342.857 27.1818V32.7272H341.561V27.3091C341.561 26.3151 341.318 25.5576 340.83 25.0363C340.356 24.5151 339.68 24.2545 338.804 24.2545C337.805 24.2545 337.019 24.5636 336.448 25.1818C335.876 25.7878 335.59 26.6303 335.59 27.7091V32.7272H334.293V27.3091C334.293 26.3151 334.05 25.5576 333.563 25.0363C333.088 24.5151 332.407 24.2545 331.517 24.2545C330.531 24.2545 329.746 24.5636 329.162 25.1818C328.59 25.7878 328.304 26.6303 328.304 27.7091V32.7272H327.007V23.1636H328.249V24.9091C328.59 24.3272 329.065 23.8787 329.673 23.5636C330.281 23.2485 330.982 23.0909 331.773 23.0909C332.577 23.0909 333.27 23.2605 333.855 23.6C334.452 23.9394 334.896 24.4423 335.188 25.1091C335.54 24.4787 336.046 23.9878 336.703 23.6363C337.374 23.2727 338.133 23.0909 338.986 23.0909Z" fill="black"/>
<path d="M24.5428 21.5818H20.1602V20H30.7332V21.5818H26.3506V32.7272H24.5428V21.5818ZM37.6342 23C38.8639 23 39.8377 23.3576 40.5559 24.0727C41.2863 24.7758 41.6516 25.8121 41.6516 27.1818V32.7272H39.8985V27.3818C39.8985 26.4485 39.6734 25.7454 39.2229 25.2727C38.7725 24.8 38.1272 24.5636 37.2872 24.5636C36.3376 24.5636 35.5889 24.8423 35.0411 25.4C34.4933 25.9454 34.2194 26.7332 34.2194 27.7636V32.7272H32.4663V19.2363H34.2194V24.4545C34.5846 23.994 35.0594 23.6363 35.6437 23.3818C36.2403 23.1272 36.9037 23 37.6342 23ZM46.576 24.7091C46.8802 24.1514 47.3307 23.7272 47.9273 23.4363C48.5237 23.1454 49.2481 23 50.1003 23V24.6909C50.0028 24.6787 49.8689 24.6727 49.6986 24.6727C48.749 24.6727 48.0003 24.9576 47.4525 25.5272C46.9167 26.0849 46.649 26.8849 46.649 27.9272V32.7272H44.896V23.0909H46.576V24.7091ZM56.317 32.8363C55.3552 32.8363 54.491 32.6241 53.724 32.2C52.957 31.7758 52.3544 31.194 51.9162 30.4545C51.49 29.7031 51.277 28.8545 51.277 27.9091C51.277 26.9636 51.49 26.1212 51.9162 25.3818C52.3544 24.6303 52.957 24.0485 53.724 23.6363C54.491 23.2121 55.3552 23 56.317 23C57.2787 23 58.1369 23.2121 58.8918 23.6363C59.6588 24.0485 60.2552 24.6303 60.6814 25.3818C61.1196 26.1212 61.3388 26.9636 61.3388 27.9091C61.3388 28.8545 61.1196 29.7031 60.6814 30.4545C60.2552 31.194 59.6588 31.7758 58.8918 32.2C58.1369 32.6241 57.2787 32.8363 56.317 32.8363ZM56.317 31.3091C56.9379 31.3091 57.4918 31.1696 57.9788 30.8909C58.4779 30.6 58.8674 30.2 59.1475 29.6909C59.4274 29.1696 59.5675 28.5758 59.5675 27.9091C59.5675 27.2423 59.4274 26.6545 59.1475 26.1454C58.8674 25.6241 58.4779 25.2241 57.9788 24.9454C57.4918 24.6667 56.9379 24.5272 56.317 24.5272C55.6962 24.5272 55.1361 24.6667 54.637 24.9454C54.15 25.2241 53.7605 25.6241 53.4683 26.1454C53.1882 26.6545 53.0483 27.2423 53.0483 27.9091C53.0483 28.5758 53.1882 29.1696 53.4683 29.6909C53.7605 30.2 54.15 30.6 54.637 30.8909C55.1361 31.1696 55.6962 31.3091 56.317 31.3091ZM72.784 23.0909V32.7272H71.1222V31.2727C70.7692 31.7696 70.3005 32.1576 69.7161 32.4363C69.144 32.7031 68.5169 32.8363 67.8353 32.8363C66.5448 32.8363 65.5284 32.4849 64.7857 31.7818C64.043 31.0667 63.6718 30.0181 63.6718 28.6363V23.0909H65.4248V28.4363C65.4248 29.3696 65.65 30.0787 66.1005 30.5636C66.551 31.0363 67.1961 31.2727 68.0361 31.2727C68.9614 31.2727 69.6918 30.994 70.2274 30.4363C70.763 29.8787 71.0309 29.0909 71.0309 28.0727V23.0909H72.784ZM85.3796 23.0909V31.4181C85.3796 33.1031 84.9596 34.3454 84.1196 35.1454C83.2796 35.9576 82.0256 36.3636 80.3578 36.3636C79.4448 36.3636 78.5743 36.2363 77.7465 35.9818C76.9188 35.7394 76.2491 35.3878 75.7378 34.9272L76.5778 33.5818C77.0283 33.9696 77.5822 34.2727 78.2396 34.4909C78.9092 34.7212 79.5969 34.8363 80.3031 34.8363C81.4352 34.8363 82.2692 34.5696 82.8048 34.0363C83.3526 33.5031 83.6265 32.6909 83.6265 31.6V30.8363C83.2126 31.3332 82.7012 31.7091 82.0926 31.9636C81.496 32.206 80.8449 32.3272 80.1387 32.3272C79.2134 32.3272 78.3734 32.1332 77.6187 31.7454C76.876 31.3454 76.2917 30.794 75.8657 30.0909C75.4396 29.3758 75.2265 28.5636 75.2265 27.6545C75.2265 26.7454 75.4396 25.9394 75.8657 25.2363C76.2917 24.5212 76.876 23.9696 77.6187 23.5818C78.3734 23.194 79.2134 23 80.1387 23C80.8691 23 81.5448 23.1332 82.1657 23.4C82.7988 23.6667 83.3161 24.0605 83.7178 24.5818V23.0909H85.3796ZM80.3396 30.8C80.9727 30.8 81.5388 30.6667 82.0378 30.4C82.5491 30.1332 82.9449 29.7636 83.2248 29.2909C83.517 28.806 83.6631 28.2605 83.6631 27.6545C83.6631 26.7212 83.3526 25.9696 82.7317 25.4C82.1109 24.8181 81.3134 24.5272 80.3396 24.5272C79.3535 24.5272 78.55 24.8181 77.9291 25.4C77.3083 25.9696 76.9978 26.7212 76.9978 27.6545C76.9978 28.2605 77.1379 28.806 77.4178 29.2909C77.71 29.7636 78.1057 30.1332 78.6048 30.4C79.1161 30.6667 79.6944 30.8 80.3396 30.8ZM93.897 23C95.1265 23 96.1005 23.3576 96.8187 24.0727C97.5492 24.7758 97.9144 25.8121 97.9144 27.1818V32.7272H96.1613V27.3818C96.1613 26.4485 95.9362 25.7454 95.4857 25.2727C95.0352 24.8 94.39 24.5636 93.55 24.5636C92.6005 24.5636 91.8518 24.8423 91.3039 25.4C90.7561 25.9454 90.4822 26.7332 90.4822 27.7636V32.7272H88.7292V19.2363H90.4822V24.4545C90.8474 23.994 91.3222 23.6363 91.9066 23.3818C92.5031 23.1272 93.1666 23 93.897 23ZM106.29 23C107.227 23 108.067 23.206 108.81 23.6181C109.553 24.0303 110.131 24.606 110.545 25.3454C110.971 26.0849 111.184 26.9394 111.184 27.9091C111.184 28.8787 110.971 29.7394 110.545 30.4909C110.131 31.2303 109.553 31.806 108.81 32.2181C108.067 32.6303 107.227 32.8363 106.29 32.8363C105.596 32.8363 104.957 32.7031 104.373 32.4363C103.8 32.1696 103.313 31.7818 102.912 31.2727V36.2545H101.159V23.0909H102.839V24.6181C103.228 24.0849 103.721 23.6849 104.318 23.4181C104.914 23.1394 105.572 23 106.29 23ZM106.144 31.3091C106.765 31.3091 107.319 31.1696 107.806 30.8909C108.305 30.6 108.694 30.2 108.974 29.6909C109.266 29.1696 109.413 28.5758 109.413 27.9091C109.413 27.2423 109.266 26.6545 108.974 26.1454C108.694 25.6241 108.305 25.2241 107.806 24.9454C107.319 24.6667 106.765 24.5272 106.144 24.5272C105.535 24.5272 104.981 24.6727 104.482 24.9636C103.995 25.2423 103.606 25.6363 103.313 26.1454C103.033 26.6545 102.893 27.2423 102.893 27.9091C102.893 28.5758 103.033 29.1696 103.313 29.6909C103.594 30.2 103.983 30.6 104.482 30.8909C104.981 31.1696 105.535 31.3091 106.144 31.3091ZM122.627 23.0909V32.7272H120.965V31.2727C120.612 31.7696 120.143 32.1576 119.559 32.4363C118.987 32.7031 118.36 32.8363 117.678 32.8363C116.388 32.8363 115.371 32.4849 114.629 31.7818C113.886 31.0667 113.515 30.0181 113.515 28.6363V23.0909H115.268V28.4363C115.268 29.3696 115.493 30.0787 115.943 30.5636C116.394 31.0363 117.039 31.2727 117.879 31.2727C118.804 31.2727 119.535 30.994 120.07 30.4363C120.606 29.8787 120.874 29.0909 120.874 28.0727V23.0909H122.627ZM131.406 32.1636C131.15 32.3818 130.834 32.5514 130.456 32.6727C130.079 32.7818 129.689 32.8363 129.288 32.8363C128.314 32.8363 127.559 32.5758 127.023 32.0545C126.488 31.5332 126.22 30.7878 126.22 29.8181V24.5272H124.576V23.0909H126.22V20.9818H127.973V23.0909H130.749V24.5272H127.973V29.7454C127.973 30.2667 128.101 30.6667 128.356 30.9454C128.624 31.2241 129.002 31.3636 129.489 31.3636C130.024 31.3636 130.481 31.2121 130.858 30.9091L131.406 32.1636Z" fill="black"/>
<path d="M280.857 50.0071H275.16L273.932 52.7271H272.808L277.482 42.5453H278.549L283.224 52.7271H282.084L280.857 50.0071ZM280.463 49.1344L278.008 43.6653L275.554 49.1344H280.463ZM292.889 42.5453L288.36 52.7271H287.294L282.765 42.5453H283.934L287.849 51.3889L291.793 42.5453H292.889ZM301.605 51.7962V52.7271H294.374V42.5453H301.386V43.4762H295.455V47.098H300.743V48.0144H295.455V51.7962H301.605ZM311.13 52.7271L308.792 49.4544C308.53 49.4835 308.256 49.498 307.974 49.498H305.228V52.7271H304.147V42.5453H307.974C309.278 42.5453 310.301 42.8556 311.042 43.4762C311.782 44.0967 312.152 44.9502 312.152 46.0362C312.152 46.8313 311.948 47.5053 311.539 48.058C311.139 48.6011 310.564 48.9938 309.815 49.2362L312.313 52.7271H311.13ZM307.945 48.5816C308.957 48.5816 309.731 48.3586 310.268 47.9126C310.803 47.4666 311.071 46.8411 311.071 46.0362C311.071 45.212 310.803 44.5816 310.268 44.1453C309.731 43.6993 308.957 43.4762 307.945 43.4762H305.228V48.5816H307.945ZM321.117 50.0071H315.419L314.192 52.7271H313.067L317.742 42.5453H318.809L323.483 52.7271H322.344L321.117 50.0071ZM320.722 49.1344L318.268 43.6653L315.814 49.1344H320.722ZM332.234 47.6362H333.271V51.5198C332.795 51.9367 332.229 52.2567 331.577 52.4798C330.925 52.7029 330.238 52.8144 329.517 52.8144C328.494 52.8144 327.574 52.5913 326.756 52.1453C325.938 51.6993 325.295 51.0835 324.827 50.298C324.36 49.5029 324.126 48.6156 324.126 47.6362C324.126 46.6567 324.36 45.7744 324.827 44.9889C325.295 44.1938 325.938 43.5731 326.756 43.1271C327.574 42.6811 328.5 42.458 329.531 42.458C330.311 42.458 331.027 42.584 331.679 42.8362C332.331 43.0786 332.882 43.4422 333.33 43.9271L332.658 44.6107C331.849 43.8156 330.822 43.418 329.575 43.418C328.748 43.418 327.997 43.6022 327.325 43.9707C326.663 44.3295 326.142 44.8338 325.762 45.4835C325.382 46.1235 325.193 46.8411 325.193 47.6362C325.193 48.4313 325.382 49.1489 325.762 49.7889C326.142 50.4289 326.663 50.9331 327.325 51.3016C327.988 51.6702 328.733 51.8544 329.561 51.8544C330.612 51.8544 331.504 51.5926 332.234 51.0689V47.6362ZM343.563 51.7962V52.7271H336.332V42.5453H343.344V43.4762H337.413V47.098H342.701V48.0144H337.413V51.7962H343.563Z" fill="black"/>
<path d="M27.3913 276.364C31.4253 276.364 34.6956 273.108 34.6956 269.091C34.6956 265.074 31.4253 261.818 27.3913 261.818C23.3572 261.818 20.0869 265.074 20.0869 269.091C20.0869 273.108 23.3572 276.364 27.3913 276.364Z" fill="#0066FF"/>
<path d="M63.5456 263.637L59.236 276.364H57.8117L54.0682 265.509L50.3065 276.364H48.9004L44.5908 263.637H45.9786L49.6673 274.582L53.4839 263.637H54.7439L58.5056 274.637L62.2491 263.637H63.5456ZM73.3816 271.982H65.3468C65.4199 272.977 65.8034 273.782 66.4973 274.4C67.1912 275.006 68.0677 275.309 69.1269 275.309C69.7234 275.309 70.2713 275.206 70.7703 275C71.2696 274.782 71.7016 274.468 72.0668 274.055L72.7973 274.891C72.3713 275.4 71.8357 275.788 71.1903 276.055C70.5574 276.322 69.8573 276.455 69.0903 276.455C68.1042 276.455 67.2277 276.249 66.4608 275.837C65.706 275.413 65.1157 274.831 64.6895 274.091C64.2634 273.351 64.0503 272.515 64.0503 271.582C64.0503 270.649 64.2512 269.813 64.6529 269.073C65.0669 268.333 65.627 267.758 66.3329 267.346C67.0513 266.933 67.8548 266.728 68.7434 266.728C69.6321 266.728 70.4296 266.933 71.1355 267.346C71.8417 267.758 72.3955 268.333 72.7973 269.073C73.199 269.8 73.3999 270.637 73.3999 271.582L73.3816 271.982ZM68.7434 267.837C67.8183 267.837 67.0391 268.133 66.406 268.728C65.7851 269.309 65.4321 270.073 65.3468 271.018H72.1582C72.0731 270.073 71.7139 269.309 71.0808 268.728C70.4599 268.133 69.6809 267.837 68.7434 267.837ZM80.9876 266.728C81.8885 266.728 82.7042 266.933 83.4346 267.346C84.165 267.746 84.7372 268.315 85.1511 269.055C85.5651 269.795 85.772 270.637 85.772 271.582C85.772 272.528 85.5651 273.369 85.1511 274.109C84.7372 274.849 84.165 275.424 83.4346 275.837C82.7042 276.249 81.8885 276.455 80.9876 276.455C80.1842 276.455 79.4598 276.286 78.8146 275.946C78.1815 275.606 77.6702 275.115 77.2807 274.473V276.364H76.039V262.873H77.3355V268.618C77.7372 268 78.2485 267.533 78.8694 267.218C79.5025 266.891 80.2085 266.728 80.9876 266.728ZM80.8963 275.309C81.566 275.309 82.1746 275.158 82.7224 274.855C83.2703 274.54 83.6963 274.097 84.0007 273.528C84.3172 272.958 84.4755 272.309 84.4755 271.582C84.4755 270.855 84.3172 270.206 84.0007 269.637C83.6963 269.068 83.2703 268.631 82.7224 268.328C82.1746 268.013 81.566 267.855 80.8963 267.855C80.2147 267.855 79.5998 268.013 79.052 268.328C78.5164 268.631 78.0902 269.068 77.7737 269.637C77.4693 270.206 77.3172 270.855 77.3172 271.582C77.3172 272.309 77.4693 272.958 77.7737 273.528C78.0902 274.097 78.5164 274.54 79.052 274.855C79.5998 275.158 80.2147 275.309 80.8963 275.309ZM98.2524 275.782C98.009 276 97.7046 276.169 97.3393 276.291C96.9864 276.4 96.6151 276.455 96.2254 276.455C95.3246 276.455 94.6307 276.213 94.1437 275.728C93.6569 275.242 93.4133 274.558 93.4133 273.673V267.891H91.6967V266.8H93.4133V264.709H94.7098V266.8H97.6315V267.891H94.7098V273.6C94.7098 274.169 94.8498 274.606 95.1298 274.909C95.422 275.2 95.8359 275.346 96.3715 275.346C96.6394 275.346 96.8951 275.304 97.1385 275.218C97.3941 275.133 97.6133 275.013 97.7959 274.855L98.2524 275.782ZM105.507 266.728C106.712 266.728 107.668 267.078 108.373 267.782C109.092 268.473 109.451 269.486 109.451 270.818V276.364H108.154V270.946C108.154 269.951 107.905 269.195 107.406 268.673C106.907 268.151 106.194 267.891 105.269 267.891C104.234 267.891 103.413 268.2 102.804 268.818C102.208 269.424 101.909 270.268 101.909 271.346V276.364H100.613V262.873H101.909V268.473C102.262 267.915 102.749 267.486 103.37 267.182C103.991 266.878 104.703 266.728 105.507 266.728ZM114.213 268.673C114.517 268.031 114.967 267.546 115.564 267.218C116.173 266.891 116.921 266.728 117.81 266.728V267.982L117.5 267.964C116.489 267.964 115.698 268.273 115.126 268.891C114.553 269.509 114.267 270.377 114.267 271.491V276.364H112.971V266.8H114.213V268.673ZM123.994 276.455C123.069 276.455 122.235 276.249 121.493 275.837C120.75 275.413 120.166 274.831 119.74 274.091C119.314 273.351 119.1 272.515 119.1 271.582C119.1 270.649 119.314 269.813 119.74 269.073C120.166 268.333 120.75 267.758 121.493 267.346C122.235 266.933 123.069 266.728 123.994 266.728C124.92 266.728 125.754 266.933 126.496 267.346C127.239 267.758 127.817 268.333 128.231 269.073C128.657 269.813 128.87 270.649 128.87 271.582C128.87 272.515 128.657 273.351 128.231 274.091C127.817 274.831 127.239 275.413 126.496 275.837C125.754 276.249 124.92 276.455 123.994 276.455ZM123.994 275.309C124.676 275.309 125.285 275.158 125.82 274.855C126.368 274.54 126.794 274.097 127.099 273.528C127.403 272.958 127.555 272.309 127.555 271.582C127.555 270.855 127.403 270.206 127.099 269.637C126.794 269.068 126.368 268.631 125.82 268.328C125.285 268.013 124.676 267.855 123.994 267.855C123.313 267.855 122.698 268.013 122.15 268.328C121.614 268.631 121.188 269.068 120.872 269.637C120.568 270.206 120.415 270.855 120.415 271.582C120.415 272.309 120.568 272.958 120.872 273.528C121.188 274.097 121.614 274.54 122.15 274.855C122.698 275.158 123.313 275.309 123.994 275.309ZM140.173 266.8V276.364H138.931V274.618C138.59 275.2 138.121 275.655 137.525 275.982C136.928 276.297 136.247 276.455 135.48 276.455C134.226 276.455 133.234 276.109 132.503 275.418C131.785 274.715 131.426 273.691 131.426 272.346V266.8H132.722V272.218C132.722 273.224 132.972 273.988 133.471 274.509C133.97 275.031 134.682 275.291 135.608 275.291C136.618 275.291 137.415 274.988 138 274.382C138.584 273.764 138.876 272.909 138.876 271.818V266.8H140.173ZM152.697 266.8V275.2C152.697 276.824 152.295 278.024 151.492 278.8C150.7 279.588 149.501 279.982 147.894 279.982C147.006 279.982 146.16 279.849 145.356 279.582C144.565 279.328 143.92 278.969 143.42 278.509L144.078 277.528C144.54 277.94 145.1 278.26 145.758 278.491C146.427 278.722 147.127 278.837 147.858 278.837C149.075 278.837 149.97 278.551 150.542 277.982C151.114 277.424 151.4 276.551 151.4 275.364V274.146C150.999 274.751 150.469 275.213 149.812 275.528C149.166 275.842 148.448 276 147.657 276C146.756 276 145.934 275.806 145.192 275.418C144.461 275.018 143.883 274.468 143.457 273.764C143.043 273.049 142.836 272.242 142.836 271.346C142.836 270.449 143.043 269.649 143.457 268.946C143.883 268.242 144.461 267.697 145.192 267.309C145.922 266.922 146.744 266.728 147.657 266.728C148.473 266.728 149.209 266.891 149.867 267.218C150.524 267.546 151.053 268.018 151.455 268.637V266.8H152.697ZM147.785 274.855C148.479 274.855 149.106 274.709 149.666 274.418C150.226 274.115 150.658 273.697 150.962 273.164C151.279 272.631 151.437 272.024 151.437 271.346C151.437 270.668 151.279 270.068 150.962 269.546C150.658 269.013 150.226 268.6 149.666 268.309C149.118 268.006 148.491 267.855 147.785 267.855C147.091 267.855 146.464 268 145.904 268.291C145.356 268.582 144.924 268.995 144.607 269.528C144.303 270.06 144.151 270.668 144.151 271.346C144.151 272.024 144.303 272.631 144.607 273.164C144.924 273.697 145.356 274.115 145.904 274.418C146.464 274.709 147.091 274.855 147.785 274.855ZM161.216 266.728C162.422 266.728 163.377 267.078 164.083 267.782C164.802 268.473 165.161 269.486 165.161 270.818V276.364H163.864V270.946C163.864 269.951 163.615 269.195 163.116 268.673C162.616 268.151 161.904 267.891 160.979 267.891C159.944 267.891 159.123 268.2 158.514 268.818C157.917 269.424 157.619 270.268 157.619 271.346V276.364H156.322V262.873H157.619V268.473C157.972 267.915 158.459 267.486 159.08 267.182C159.701 266.878 160.413 266.728 161.216 266.728ZM173.629 266.728C174.53 266.728 175.346 266.933 176.076 267.346C176.807 267.746 177.379 268.315 177.793 269.055C178.207 269.795 178.414 270.637 178.414 271.582C178.414 272.54 178.207 273.388 177.793 274.128C177.379 274.868 176.807 275.442 176.076 275.855C175.358 276.255 174.542 276.455 173.629 276.455C172.85 276.455 172.144 276.297 171.511 275.982C170.89 275.655 170.379 275.182 169.977 274.564V279.891H168.681V266.8H169.922V268.691C170.312 268.06 170.823 267.577 171.456 267.237C172.102 266.897 172.826 266.728 173.629 266.728ZM173.538 275.309C174.208 275.309 174.816 275.158 175.364 274.855C175.912 274.54 176.338 274.097 176.642 273.528C176.959 272.958 177.117 272.309 177.117 271.582C177.117 270.855 176.959 270.213 176.642 269.655C176.338 269.086 175.912 268.642 175.364 268.328C174.816 268.013 174.208 267.855 173.538 267.855C172.856 267.855 172.242 268.013 171.694 268.328C171.158 268.642 170.732 269.086 170.416 269.655C170.111 270.213 169.959 270.855 169.959 271.582C169.959 272.309 170.111 272.958 170.416 273.528C170.732 274.097 171.158 274.54 171.694 274.855C172.242 275.158 172.856 275.309 173.538 275.309ZM189.712 266.8V276.364H188.47V274.618C188.129 275.2 187.661 275.655 187.064 275.982C186.467 276.297 185.786 276.455 185.019 276.455C183.765 276.455 182.773 276.109 182.043 275.418C181.325 274.715 180.966 273.691 180.966 272.346V266.8H182.262V272.218C182.262 273.224 182.512 273.988 183.01 274.509C183.509 275.031 184.221 275.291 185.147 275.291C186.157 275.291 186.955 274.988 187.539 274.382C188.123 273.764 188.416 272.909 188.416 271.818V266.8H189.712ZM198.402 275.782C198.158 276 197.855 276.169 197.489 276.291C197.135 276.4 196.764 276.455 196.376 276.455C195.473 276.455 194.78 276.213 194.294 275.728C193.806 275.242 193.563 274.558 193.563 273.673V267.891H191.847V266.8H193.563V264.709H194.86V266.8H197.782V267.891H194.86V273.6C194.86 274.169 194.999 274.606 195.28 274.909C195.572 275.2 195.985 275.346 196.522 275.346C196.788 275.346 197.044 275.304 197.289 275.218C197.544 275.133 197.763 275.013 197.946 274.855L198.402 275.782Z" fill="black"/>
<path d="M26.1309 191.018C25.1448 191.018 24.2623 190.758 23.4831 190.237C22.7161 189.715 22.1135 188.969 21.6753 188C21.2492 187.018 21.0361 185.868 21.0361 184.546C21.0361 183.224 21.2492 182.078 21.6753 181.109C22.1135 180.128 22.7161 179.376 23.4831 178.855C24.2623 178.334 25.1448 178.073 26.1309 178.073C27.117 178.073 27.9935 178.334 28.7605 178.855C29.5397 179.376 30.1483 180.128 30.5866 181.109C31.0248 182.078 31.244 183.224 31.244 184.546C31.244 185.868 31.0248 187.018 30.5866 188C30.1483 188.969 29.5397 189.715 28.7605 190.237C27.9935 190.758 27.117 191.018 26.1309 191.018ZM26.1309 189.818C26.8736 189.818 27.5248 189.613 28.0848 189.2C28.6569 188.788 29.1014 188.188 29.4179 187.4C29.7343 186.613 29.8927 185.66 29.8927 184.546C29.8927 183.431 29.7343 182.478 29.4179 181.691C29.1014 180.903 28.6569 180.303 28.0848 179.891C27.5248 179.479 26.8736 179.273 26.1309 179.273C25.3882 179.273 24.7309 179.479 24.1587 179.891C23.5987 180.303 23.1604 180.903 22.844 181.691C22.5275 182.478 22.3692 183.431 22.3692 184.546C22.3692 185.66 22.5275 186.613 22.844 187.4C23.1604 188.188 23.5987 188.788 24.1587 189.2C24.7309 189.613 25.3882 189.818 26.1309 189.818ZM37.546 186.109L35.2816 188.182V190.909H33.9851V177.418H35.2816V186.564L41.0155 181.346H42.6225L38.5138 185.255L43.006 190.909H41.4173L37.546 186.109Z" fill="#717171"/>
<path d="M24.3961 154.309C26.2465 154.309 27.5918 154.642 28.4318 155.309C29.284 155.964 29.71 156.885 29.71 158.073C29.71 158.812 29.5334 159.473 29.1805 160.054C28.8395 160.636 28.3222 161.097 27.6283 161.436C26.9344 161.764 26.0821 161.927 25.0718 161.927C24.1587 161.927 23.2882 161.782 22.4605 161.491C21.6447 161.188 20.9874 160.788 20.4883 160.291L21.1274 159.254C21.5534 159.691 22.1135 160.048 22.8074 160.327C23.5013 160.594 24.25 160.727 25.0535 160.727C26.1126 160.727 26.9283 160.491 27.5005 160.018C28.0848 159.545 28.377 158.915 28.377 158.127C28.377 157.254 28.0483 156.594 27.3909 156.145C26.7457 155.697 25.6501 155.473 24.1039 155.473H21.3831L22.0405 149.091H29.0344V150.254H23.1909L22.7526 154.309H24.3961ZM35.7984 157.018L33.534 159.091V161.818H32.2375V148.327H33.534V157.473L39.2679 152.254H40.8749L36.7662 156.164L41.2584 161.818H39.6697L35.7984 157.018Z" fill="#717171"/>
<path d="M24.5788 120V132.727H23.264V121.164H20.251V120H24.5788ZM32.7292 132.836C31.7431 132.836 30.8604 132.576 30.0814 132.055C29.3144 131.533 28.7118 130.788 28.2735 129.818C27.8473 128.836 27.6344 127.685 27.6344 126.364C27.6344 125.042 27.8473 123.897 28.2735 122.927C28.7118 121.945 29.3144 121.194 30.0814 120.673C30.8604 120.151 31.7431 119.891 32.7292 119.891C33.7153 119.891 34.5918 120.151 35.3587 120.673C36.1378 121.194 36.7466 121.945 37.1848 122.927C37.6231 123.897 37.8422 125.042 37.8422 126.364C37.8422 127.685 37.6231 128.836 37.1848 129.818C36.7466 130.788 36.1378 131.533 35.3587 132.055C34.5918 132.576 33.7153 132.836 32.7292 132.836ZM32.7292 131.636C33.4717 131.636 34.123 131.43 34.6831 131.018C35.2552 130.606 35.6995 130.006 36.0161 129.218C36.3326 128.43 36.4909 127.479 36.4909 126.364C36.4909 125.249 36.3326 124.297 36.0161 123.509C35.6995 122.721 35.2552 122.121 34.6831 121.709C34.123 121.297 33.4717 121.091 32.7292 121.091C31.9865 121.091 31.3291 121.297 30.757 121.709C30.1969 122.121 29.7587 122.721 29.4422 123.509C29.1256 124.297 28.9674 125.249 28.9674 126.364C28.9674 127.479 29.1256 128.43 29.4422 129.218C29.7587 130.006 30.1969 130.606 30.757 131.018C31.3291 131.43 31.9865 131.636 32.7292 131.636ZM44.1442 127.927L41.8799 130V132.727H40.5834V119.236H41.8799V128.382L47.6138 123.164H49.2208L45.1121 127.073L49.6042 132.727H48.0155L44.1442 127.927Z" fill="#717171"/>
<path d="M24.5788 90.9091V103.636H23.264V92.0728H20.251V90.9091H24.5788ZM30.9944 96.1273C32.8448 96.1273 34.19 96.4606 35.03 97.1273C35.8821 97.7819 36.3083 98.7031 36.3083 99.891C36.3083 100.63 36.1317 101.291 35.7787 101.873C35.4378 102.455 34.9205 102.915 34.2266 103.255C33.5327 103.582 32.6804 103.746 31.67 103.746C30.757 103.746 29.8865 103.6 29.0587 103.309C28.243 103.006 27.5856 102.606 27.0866 102.109L27.7257 101.073C28.1517 101.509 28.7118 101.867 29.4057 102.146C30.0996 102.412 30.8483 102.546 31.6518 102.546C32.7109 102.546 33.5264 102.309 34.0987 101.836C34.6831 101.364 34.9753 100.733 34.9753 99.9455C34.9753 99.0728 34.6466 98.4122 33.9892 97.9637C33.3438 97.5151 32.2482 97.291 30.7022 97.291H27.9814L28.6387 90.9091H35.6327V92.0728H29.7892L29.3509 96.1273H30.9944ZM42.3965 98.8364L40.1321 100.909V103.636H38.8356V90.1455H40.1321V99.291L45.866 94.0728H47.473L43.3643 97.9819L47.8565 103.636H46.2678L42.3965 98.8364Z" fill="#717171"/>
<path d="M29.7651 73.382V74.5456H20.799V73.6183L26.1129 68.4365C26.7825 67.782 27.2329 67.2183 27.4642 66.7456C27.7076 66.2607 27.8294 65.776 27.8294 65.291C27.8294 64.5396 27.5678 63.9578 27.0442 63.5456C26.5329 63.1214 25.7965 62.9092 24.8347 62.9092C23.3373 62.9092 22.1746 63.382 21.3468 64.3274L20.4155 63.5274C20.9146 62.9456 21.5477 62.497 22.3147 62.182C23.0938 61.8669 23.9704 61.7092 24.9442 61.7092C26.2468 61.7092 27.2756 62.0183 28.0303 62.6365C28.7973 63.2425 29.1807 64.0789 29.1807 65.1456C29.1807 65.8001 29.0347 66.4305 28.7425 67.0365C28.4503 67.6425 27.8965 68.3396 27.0807 69.1274L22.7347 73.382H29.7651ZM36.4385 74.6547C35.4524 74.6547 34.5699 74.3941 33.7907 73.8729C33.0237 73.3516 32.4211 72.6061 31.9829 71.6365C31.5568 70.6547 31.3437 69.5032 31.3437 68.182C31.3437 66.8607 31.5568 65.7152 31.9829 64.7456C32.4211 63.7638 33.0237 63.0123 33.7907 62.491C34.5699 61.9698 35.4524 61.7092 36.4385 61.7092C37.4246 61.7092 38.3011 61.9698 39.0681 62.491C39.8473 63.0123 40.4559 63.7638 40.8942 64.7456C41.3324 65.7152 41.5516 66.8607 41.5516 68.182C41.5516 69.5032 41.3324 70.6547 40.8942 71.6365C40.4559 72.6061 39.8473 73.3516 39.0681 73.8729C38.3011 74.3941 37.4246 74.6547 36.4385 74.6547ZM36.4385 73.4547C37.1812 73.4547 37.8326 73.2487 38.3924 72.8365C38.9647 72.4243 39.409 71.8243 39.7255 71.0365C40.0421 70.2487 40.2003 69.297 40.2003 68.182C40.2003 67.0669 40.0421 66.1152 39.7255 65.3274C39.409 64.5396 38.9647 63.9396 38.3924 63.5274C37.8326 63.1152 37.1812 62.9092 36.4385 62.9092C35.696 62.9092 35.0386 63.1152 34.4664 63.5274C33.9065 63.9396 33.4682 64.5396 33.1516 65.3274C32.8351 66.1152 32.6768 67.0669 32.6768 68.182C32.6768 69.297 32.8351 70.2487 33.1516 71.0365C33.4682 71.8243 33.9065 72.4243 34.4664 72.8365C35.0386 73.2487 35.696 73.4547 36.4385 73.4547ZM47.8536 69.7456L45.5892 71.8183V74.5456H44.2927V61.0547H45.5892V70.2001L51.3231 64.982H52.9301L48.8214 68.891L53.3136 74.5456H51.7249L47.8536 69.7456Z" fill="#717171"/>
<path d="M215.643 220.087C215.058 220.087 214.518 219.962 214.021 219.709C213.525 219.456 213.121 219.098 212.809 218.632L213.451 217.905C214.016 218.74 214.752 219.156 215.657 219.156C216.923 219.156 217.557 218.409 217.557 216.916V210.749H213.817V209.818H218.623V216.872C218.623 217.94 218.369 218.743 217.863 219.287C217.367 219.82 216.627 220.087 215.643 220.087ZM228.571 212.349V220H227.578V218.603C227.306 219.069 226.93 219.432 226.453 219.694C225.977 219.947 225.431 220.072 224.817 220.072C223.815 220.072 223.02 219.796 222.436 219.243C221.861 218.682 221.574 217.862 221.574 216.785V212.349H222.611V216.683C222.611 217.489 222.81 218.1 223.21 218.516C223.61 218.932 224.18 219.142 224.919 219.142C225.728 219.142 226.366 218.9 226.833 218.414C227.301 217.92 227.534 217.236 227.534 216.363V212.349H228.571ZM231.477 209.207H232.514V220H231.477V209.207ZM241.371 209.818V220H240.319V210.749H237.908V209.818H241.371ZM250.799 219.069V220H243.626V219.258L247.877 215.112C248.412 214.589 248.772 214.138 248.958 213.76C249.151 213.372 249.25 212.983 249.25 212.596C249.25 211.994 249.04 211.529 248.622 211.2C248.213 210.86 247.623 210.691 246.854 210.691C245.656 210.691 244.725 211.069 244.064 211.825L243.319 211.185C243.717 210.72 244.225 210.362 244.838 210.109C245.461 209.856 246.162 209.731 246.942 209.731C247.983 209.731 248.806 209.978 249.411 210.472C250.024 210.958 250.331 211.627 250.331 212.48C250.331 213.003 250.214 213.507 249.981 213.992C249.747 214.478 249.303 215.034 248.651 215.665L245.174 219.069H250.799ZM253.065 218.487C253.288 218.487 253.474 218.565 253.62 218.72C253.766 218.865 253.839 219.049 253.839 219.272C253.839 219.389 253.819 219.514 253.781 219.651C253.751 219.787 253.702 219.942 253.635 220.116L253.021 222.123H252.32L252.816 220.014C252.659 219.965 252.533 219.878 252.437 219.752C252.338 219.616 252.291 219.456 252.291 219.272C252.291 219.049 252.364 218.865 252.51 218.72C252.656 218.565 252.84 218.487 253.065 218.487ZM203.943 234.632C203.154 234.632 202.447 234.423 201.825 234.007C201.211 233.591 200.729 232.994 200.379 232.218C200.037 231.432 199.867 230.511 199.867 229.454C199.867 228.398 200.037 227.482 200.379 226.705C200.729 225.92 201.211 225.318 201.825 224.902C202.447 224.485 203.154 224.276 203.943 224.276C204.732 224.276 205.433 224.485 206.047 224.902C206.669 225.318 207.157 225.92 207.508 226.705C207.858 227.482 208.033 228.398 208.033 229.454C208.033 230.511 207.858 231.432 207.508 232.218C207.157 232.994 206.669 233.591 206.047 234.007C205.433 234.423 204.732 234.632 203.943 234.632ZM203.943 233.672C204.536 233.672 205.059 233.507 205.506 233.178C205.965 232.849 206.319 232.369 206.573 231.738C206.826 231.107 206.952 230.347 206.952 229.454C206.952 228.562 206.826 227.802 206.573 227.171C206.319 226.54 205.965 226.06 205.506 225.731C205.059 225.402 204.536 225.236 203.943 225.236C203.35 225.236 202.824 225.402 202.365 225.731C201.918 226.06 201.567 226.54 201.313 227.171C201.06 227.802 200.934 228.562 200.934 229.454C200.934 230.347 201.06 231.107 201.313 231.738C201.567 232.369 201.918 232.849 202.365 233.178C202.824 233.507 203.35 233.672 203.943 233.672ZM213.777 228.451C214.449 228.451 215.042 228.576 215.559 228.829C216.085 229.082 216.494 229.44 216.786 229.905C217.078 230.362 217.224 230.894 217.224 231.505C217.224 232.125 217.073 232.674 216.771 233.149C216.47 233.623 216.05 233.992 215.515 234.254C214.989 234.507 214.396 234.632 213.733 234.632C212.38 234.632 211.342 234.191 210.621 233.309C209.9 232.416 209.54 231.162 209.54 229.542C209.54 228.407 209.735 227.447 210.124 226.662C210.513 225.876 211.059 225.285 211.76 224.887C212.462 224.48 213.28 224.276 214.215 224.276C215.228 224.276 216.035 224.46 216.64 224.829L216.216 225.672C215.729 225.352 215.068 225.192 214.229 225.192C213.099 225.192 212.213 225.551 211.571 226.269C210.928 226.976 210.606 228.009 210.606 229.367C210.606 229.609 210.621 229.885 210.65 230.196C210.904 229.643 211.308 229.216 211.863 228.916C212.418 228.605 213.055 228.451 213.777 228.451ZM213.689 233.745C214.428 233.745 215.027 233.547 215.486 233.149C215.953 232.742 216.187 232.203 216.187 231.534C216.187 230.865 215.953 230.332 215.486 229.934C215.027 229.536 214.405 229.338 213.616 229.338C213.099 229.338 212.642 229.434 212.243 229.629C211.854 229.823 211.547 230.089 211.322 230.429C211.098 230.769 210.986 231.147 210.986 231.563C210.986 231.951 211.089 232.311 211.293 232.64C211.507 232.969 211.819 233.236 212.228 233.44C212.637 233.643 213.125 233.745 213.689 233.745ZM219.231 228.422C219.017 228.422 218.831 228.343 218.676 228.189C218.53 228.034 218.457 227.845 218.457 227.622C218.457 227.398 218.53 227.214 218.676 227.069C218.831 226.914 219.017 226.836 219.231 226.836C219.445 226.836 219.631 226.914 219.786 227.069C219.941 227.214 220.02 227.398 220.02 227.622C220.02 227.845 219.941 228.034 219.786 228.189C219.631 228.343 219.445 228.422 219.231 228.422ZM219.231 234.618C219.017 234.618 218.831 234.54 218.676 234.385C218.53 234.231 218.457 234.042 218.457 233.818C218.457 233.594 218.53 233.411 218.676 233.265C218.831 233.111 219.017 233.032 219.231 233.032C219.445 233.032 219.631 233.111 219.786 233.265C219.941 233.411 220.02 233.594 220.02 233.818C220.02 234.042 219.941 234.231 219.786 234.385C219.631 234.54 219.445 234.618 219.231 234.618ZM225.613 234.632C224.824 234.632 224.119 234.423 223.495 234.007C222.881 233.591 222.399 232.994 222.049 232.218C221.709 231.432 221.537 230.511 221.537 229.454C221.537 228.398 221.709 227.482 222.049 226.705C222.399 225.92 222.881 225.318 223.495 224.902C224.119 224.485 224.824 224.276 225.613 224.276C226.402 224.276 227.103 224.485 227.717 224.902C228.341 225.318 228.827 225.92 229.178 226.705C229.528 227.482 229.704 228.398 229.704 229.454C229.704 230.511 229.528 231.432 229.178 232.218C228.827 232.994 228.341 233.591 227.717 234.007C227.103 234.423 226.402 234.632 225.613 234.632ZM225.613 233.672C226.209 233.672 226.729 233.507 227.176 233.178C227.635 232.849 227.991 232.369 228.243 231.738C228.497 231.107 228.623 230.347 228.623 229.454C228.623 228.562 228.497 227.802 228.243 227.171C227.991 226.54 227.635 226.06 227.176 225.731C226.729 225.402 226.209 225.236 225.613 225.236C225.02 225.236 224.494 225.402 224.035 225.731C223.588 226.06 223.237 226.54 222.984 227.171C222.732 227.802 222.604 228.562 222.604 229.454C222.604 230.347 222.732 231.107 222.984 231.738C223.237 232.369 223.588 232.849 224.035 233.178C224.494 233.507 225.02 233.672 225.613 233.672ZM235.286 234.632C234.497 234.632 233.792 234.423 233.168 234.007C232.554 233.591 232.072 232.994 231.721 232.218C231.382 231.432 231.21 230.511 231.21 229.454C231.21 228.398 231.382 227.482 231.721 226.705C232.072 225.92 232.554 225.318 233.168 224.902C233.792 224.485 234.497 224.276 235.286 224.276C236.075 224.276 236.776 224.485 237.39 224.902C238.014 225.318 238.5 225.92 238.851 226.705C239.201 227.482 239.376 228.398 239.376 229.454C239.376 230.511 239.201 231.432 238.851 232.218C238.5 232.994 238.014 233.591 237.39 234.007C236.776 234.423 236.075 234.632 235.286 234.632ZM235.286 233.672C235.881 233.672 236.402 233.507 236.849 233.178C237.307 232.849 237.664 232.369 237.916 231.738C238.169 231.107 238.295 230.347 238.295 229.454C238.295 228.562 238.169 227.802 237.916 227.171C237.664 226.54 237.307 226.06 236.849 225.731C236.402 225.402 235.881 225.236 235.286 225.236C234.693 225.236 234.167 225.402 233.708 225.731C233.261 226.06 232.91 226.54 232.656 227.171C232.404 227.802 232.277 228.562 232.277 229.454C232.277 230.347 232.404 231.107 232.656 231.738C232.91 232.369 233.261 232.849 233.708 233.178C234.167 233.507 234.693 233.672 235.286 233.672ZM252.026 231.825H246.328L245.101 234.545H243.976L248.651 224.363H249.718L254.392 234.545H253.253L252.026 231.825ZM251.631 230.952L249.177 225.483L246.723 230.952H251.631ZM266.704 224.363V234.545H265.667V226.4L261.649 233.251H261.138L257.121 226.443V234.545H256.083V224.363H256.974L261.415 231.912L265.813 224.363H266.704Z" fill="black"/>
<path d="M297.817 220.087C297.232 220.087 296.692 219.962 296.195 219.709C295.698 219.456 295.295 219.098 294.982 218.632L295.625 217.905C296.19 218.74 296.925 219.156 297.831 219.156C299.097 219.156 299.73 218.409 299.73 216.916V210.749H295.99V209.818H300.797V216.872C300.797 217.94 300.543 218.743 300.037 219.287C299.54 219.82 298.801 220.087 297.817 220.087ZM310.745 212.349V220H309.752V218.603C309.48 219.069 309.104 219.432 308.627 219.694C308.15 219.947 307.604 220.072 306.991 220.072C305.988 220.072 305.194 219.796 304.61 219.243C304.034 218.682 303.748 217.862 303.748 216.785V212.349H304.785V216.683C304.785 217.489 304.984 218.1 305.384 218.516C305.784 218.932 306.354 219.142 307.093 219.142C307.902 219.142 308.539 218.9 309.007 218.414C309.474 217.92 309.708 217.236 309.708 216.363V212.349H310.745ZM313.651 209.207H314.688V220H313.651V209.207ZM323.544 209.818V220H322.493V210.749H320.082V209.818H323.544ZM332.972 219.069V220H325.8V219.258L330.051 215.112C330.586 214.589 330.945 214.138 331.132 213.76C331.325 213.372 331.424 212.983 331.424 212.596C331.424 211.994 331.214 211.529 330.796 211.2C330.387 210.86 329.797 210.691 329.028 210.691C327.83 210.691 326.899 211.069 326.238 211.825L325.493 211.185C325.891 210.72 326.399 210.362 327.012 210.109C327.635 209.856 328.336 209.731 329.116 209.731C330.157 209.731 330.98 209.978 331.585 210.472C332.198 210.958 332.505 211.627 332.505 212.48C332.505 213.003 332.388 213.507 332.154 213.992C331.921 214.478 331.477 215.034 330.825 215.665L327.348 219.069H332.972ZM335.239 218.487C335.461 218.487 335.648 218.565 335.794 218.72C335.94 218.865 336.013 219.049 336.013 219.272C336.013 219.389 335.993 219.514 335.954 219.651C335.925 219.787 335.876 219.942 335.808 220.116L335.195 222.123H334.494L334.99 220.014C334.833 219.965 334.707 219.878 334.61 219.752C334.512 219.616 334.464 219.456 334.464 219.272C334.464 219.049 334.537 218.865 334.683 218.72C334.83 218.565 335.014 218.487 335.239 218.487ZM286.117 234.632C285.328 234.632 284.621 234.423 283.999 234.007C283.385 233.591 282.903 232.994 282.552 232.218C282.211 231.432 282.041 230.511 282.041 229.454C282.041 228.398 282.211 227.482 282.552 226.705C282.903 225.92 283.385 225.318 283.999 224.902C284.621 224.485 285.328 224.276 286.117 224.276C286.906 224.276 287.607 224.485 288.221 224.902C288.843 225.318 289.331 225.92 289.681 226.705C290.032 227.482 290.207 228.398 290.207 229.454C290.207 230.511 290.032 231.432 289.681 232.218C289.331 232.994 288.843 233.591 288.221 234.007C287.607 234.423 286.906 234.632 286.117 234.632ZM286.117 233.672C286.71 233.672 287.233 233.507 287.68 233.178C288.138 232.849 288.493 232.369 288.746 231.738C289 231.107 289.126 230.347 289.126 229.454C289.126 228.562 289 227.802 288.746 227.171C288.493 226.54 288.138 226.06 287.68 225.731C287.233 225.402 286.71 225.236 286.117 225.236C285.523 225.236 284.997 225.402 284.539 225.731C284.092 226.06 283.741 226.54 283.487 227.171C283.233 227.802 283.107 228.562 283.107 229.454C283.107 230.347 283.233 231.107 283.487 231.738C283.741 232.369 284.092 232.849 284.539 233.178C284.997 233.507 285.523 233.672 286.117 233.672ZM294.899 224.276C296.252 224.276 297.289 224.722 298.01 225.614C298.731 226.496 299.091 227.747 299.091 229.367C299.091 230.502 298.896 231.462 298.507 232.247C298.118 233.032 297.572 233.629 296.871 234.036C296.169 234.434 295.351 234.632 294.416 234.632C293.403 234.632 292.596 234.449 291.991 234.08L292.415 233.236C292.903 233.556 293.564 233.716 294.402 233.716C295.532 233.716 296.418 233.362 297.061 232.654C297.703 231.936 298.025 230.9 298.025 229.542C298.025 229.289 298.01 229.012 297.981 228.712C297.727 229.265 297.324 229.696 296.768 230.007C296.213 230.307 295.576 230.458 294.855 230.458C294.183 230.458 293.584 230.332 293.058 230.08C292.541 229.827 292.137 229.474 291.845 229.018C291.553 228.552 291.407 228.014 291.407 227.403C291.407 226.783 291.559 226.234 291.86 225.76C292.161 225.285 292.576 224.922 293.102 224.669C293.637 224.407 294.236 224.276 294.899 224.276ZM295.015 229.571C295.532 229.571 295.985 229.474 296.374 229.28C296.774 229.085 297.084 228.82 297.309 228.48C297.534 228.14 297.645 227.762 297.645 227.345C297.645 226.958 297.537 226.598 297.324 226.269C297.119 225.94 296.812 225.672 296.403 225.469C295.994 225.265 295.507 225.163 294.942 225.163C294.203 225.163 293.598 225.367 293.131 225.774C292.672 226.172 292.444 226.705 292.444 227.374C292.444 228.043 292.672 228.576 293.131 228.974C293.598 229.372 294.226 229.571 295.015 229.571ZM301.405 228.422C301.191 228.422 301.005 228.343 300.85 228.189C300.704 228.034 300.631 227.845 300.631 227.622C300.631 227.398 300.704 227.214 300.85 227.069C301.005 226.914 301.191 226.836 301.405 226.836C301.618 226.836 301.805 226.914 301.96 227.069C302.115 227.214 302.194 227.398 302.194 227.622C302.194 227.845 302.115 228.034 301.96 228.189C301.805 228.343 301.618 228.422 301.405 228.422ZM301.405 234.618C301.191 234.618 301.005 234.54 300.85 234.385C300.704 234.231 300.631 234.042 300.631 233.818C300.631 233.594 300.704 233.411 300.85 233.265C301.005 233.111 301.191 233.032 301.405 233.032C301.618 233.032 301.805 233.111 301.96 233.265C302.115 233.411 302.194 233.594 302.194 233.818C302.194 234.042 302.115 234.231 301.96 234.385C301.805 234.54 301.618 234.618 301.405 234.618ZM307.787 234.632C306.998 234.632 306.293 234.423 305.669 234.007C305.055 233.591 304.573 232.994 304.223 232.218C303.883 231.432 303.711 230.511 303.711 229.454C303.711 228.398 303.883 227.482 304.223 226.705C304.573 225.92 305.055 225.318 305.669 224.902C306.293 224.485 306.998 224.276 307.787 224.276C308.576 224.276 309.277 224.485 309.891 224.902C310.515 225.318 311.001 225.92 311.352 226.705C311.702 227.482 311.877 228.398 311.877 229.454C311.877 230.511 311.702 231.432 311.352 232.218C311.001 232.994 310.515 233.591 309.891 234.007C309.277 234.423 308.576 234.632 307.787 234.632ZM307.787 233.672C308.382 233.672 308.903 233.507 309.35 233.178C309.809 232.849 310.165 232.369 310.417 231.738C310.67 231.107 310.796 230.347 310.796 229.454C310.796 228.562 310.67 227.802 310.417 227.171C310.165 226.54 309.809 226.06 309.35 225.731C308.903 225.402 308.382 225.236 307.787 225.236C307.194 225.236 306.668 225.402 306.209 225.731C305.762 226.06 305.411 226.54 305.157 227.171C304.905 227.802 304.778 228.562 304.778 229.454C304.778 230.347 304.905 231.107 305.157 231.738C305.411 232.369 305.762 232.849 306.209 233.178C306.668 233.507 307.194 233.672 307.787 233.672ZM317.46 234.632C316.671 234.632 315.966 234.423 315.342 234.007C314.728 233.591 314.246 232.994 313.895 232.218C313.556 231.432 313.384 230.511 313.384 229.454C313.384 228.398 313.556 227.482 313.895 226.705C314.246 225.92 314.728 225.318 315.342 224.902C315.966 224.485 316.671 224.276 317.46 224.276C318.249 224.276 318.95 224.485 319.563 224.902C320.188 225.318 320.674 225.92 321.024 226.705C321.375 227.482 321.55 228.398 321.55 229.454C321.55 230.511 321.375 231.432 321.024 232.218C320.674 232.994 320.188 233.591 319.563 234.007C318.95 234.423 318.249 234.632 317.46 234.632ZM317.46 233.672C318.055 233.672 318.576 233.507 319.023 233.178C319.481 232.849 319.837 232.369 320.089 231.738C320.343 231.107 320.469 230.347 320.469 229.454C320.469 228.562 320.343 227.802 320.089 227.171C319.837 226.54 319.481 226.06 319.023 225.731C318.576 225.402 318.055 225.236 317.46 225.236C316.866 225.236 316.34 225.402 315.882 225.731C315.435 226.06 315.084 226.54 314.83 227.171C314.578 227.802 314.45 228.562 314.45 229.454C314.45 230.347 314.578 231.107 314.83 231.738C315.084 232.369 315.435 232.849 315.882 233.178C316.34 233.507 316.866 233.672 317.46 233.672ZM334.2 231.825H328.502L327.275 234.545H326.15L330.825 224.363H331.891L336.566 234.545H335.427L334.2 231.825ZM333.805 230.952L331.351 225.483L328.897 230.952H333.805ZM348.878 224.363V234.545H347.84V226.4L343.823 233.251H343.312L339.294 226.443V234.545H338.257V224.363H339.148L343.589 231.912L347.987 224.363H348.878Z" fill="black"/>
<path d="M144.183 220.087C143.599 220.087 143.058 219.962 142.561 219.709C142.065 219.456 141.661 219.098 141.349 218.632L141.992 217.905C142.557 218.74 143.292 219.156 144.198 219.156C145.464 219.156 146.097 218.409 146.097 216.916V210.749H142.357V209.818H147.163V216.872C147.163 217.94 146.91 218.743 146.404 219.287C145.907 219.82 145.167 220.087 144.183 220.087ZM157.111 212.349V220H156.118V218.603C155.845 219.069 155.47 219.432 154.993 219.694C154.516 219.947 153.971 220.072 153.357 220.072C152.354 220.072 151.56 219.796 150.976 219.243C150.401 218.682 150.114 217.862 150.114 216.785V212.349H151.151V216.683C151.151 217.489 151.351 218.1 151.75 218.516C152.149 218.932 152.719 219.142 153.459 219.142C154.268 219.142 154.905 218.9 155.373 218.414C155.84 217.92 156.074 217.236 156.074 216.363V212.349H157.111ZM160.016 209.207H161.054V220H160.016V209.207ZM169.91 209.818V220H168.859V210.749H166.448V209.818H169.91ZM175.189 209.818V220H174.137V210.749H171.727V209.818H175.189ZM178.437 218.487C178.661 218.487 178.846 218.565 178.992 218.72C179.138 218.865 179.211 219.049 179.211 219.272C179.211 219.389 179.192 219.514 179.153 219.651C179.124 219.787 179.075 219.942 179.007 220.116L178.393 222.123H177.692L178.189 220.014C178.033 219.965 177.906 219.878 177.809 219.752C177.711 219.616 177.663 219.456 177.663 219.272C177.663 219.049 177.736 218.865 177.882 218.72C178.028 218.565 178.213 218.487 178.437 218.487ZM130.964 234.632C130.175 234.632 129.469 234.423 128.846 234.007C128.232 233.591 127.75 232.994 127.399 232.218C127.059 231.432 126.888 230.511 126.888 229.454C126.888 228.398 127.059 227.482 127.399 226.705C127.75 225.92 128.232 225.318 128.846 224.902C129.469 224.485 130.175 224.276 130.964 224.276C131.753 224.276 132.454 224.485 133.068 224.902C133.691 225.318 134.178 225.92 134.529 226.705C134.879 227.482 135.054 228.398 135.054 229.454C135.054 230.511 134.879 231.432 134.529 232.218C134.178 232.994 133.691 233.591 133.068 234.007C132.454 234.423 131.753 234.632 130.964 234.632ZM130.964 233.672C131.558 233.672 132.079 233.507 132.527 233.178C132.985 232.849 133.34 232.369 133.594 231.738C133.847 231.107 133.973 230.347 133.973 229.454C133.973 228.562 133.847 227.802 133.594 227.171C133.34 226.54 132.985 226.06 132.527 225.731C132.079 225.402 131.558 225.236 130.964 225.236C130.37 225.236 129.844 225.402 129.386 225.731C128.938 226.06 128.588 226.54 128.334 227.171C128.081 227.802 127.955 228.562 127.955 229.454C127.955 230.347 128.081 231.107 128.334 231.738C128.588 232.369 128.938 232.849 129.386 233.178C129.844 233.507 130.37 233.672 130.964 233.672ZM139.745 224.276C141.099 224.276 142.136 224.722 142.857 225.614C143.578 226.496 143.938 227.747 143.938 229.367C143.938 230.502 143.743 231.462 143.354 232.247C142.964 233.032 142.419 233.629 141.718 234.036C141.016 234.434 140.198 234.632 139.263 234.632C138.25 234.632 137.442 234.449 136.838 234.08L137.262 233.236C137.749 233.556 138.411 233.716 139.249 233.716C140.379 233.716 141.265 233.362 141.908 232.654C142.55 231.936 142.872 230.9 142.872 229.542C142.872 229.289 142.857 229.012 142.828 228.712C142.575 229.265 142.171 229.696 141.615 230.007C141.06 230.307 140.422 230.458 139.702 230.458C139.03 230.458 138.431 230.332 137.905 230.08C137.389 229.827 136.984 229.474 136.692 229.018C136.4 228.552 136.254 228.014 136.254 227.403C136.254 226.783 136.405 226.234 136.707 225.76C137.009 225.285 137.423 224.922 137.949 224.669C138.484 224.407 139.083 224.276 139.745 224.276ZM139.862 229.571C140.379 229.571 140.831 229.474 141.221 229.28C141.62 229.085 141.932 228.82 142.156 228.48C142.38 228.14 142.492 227.762 142.492 227.345C142.492 226.958 142.385 226.598 142.171 226.269C141.966 225.94 141.659 225.672 141.25 225.469C140.841 225.265 140.354 225.163 139.789 225.163C139.049 225.163 138.445 225.367 137.978 225.774C137.52 226.172 137.291 226.705 137.291 227.374C137.291 228.043 137.52 228.576 137.978 228.974C138.445 229.372 139.073 229.571 139.862 229.571ZM146.252 228.422C146.038 228.422 145.852 228.343 145.697 228.189C145.551 228.034 145.478 227.845 145.478 227.622C145.478 227.398 145.551 227.214 145.697 227.069C145.852 226.914 146.038 226.836 146.252 226.836C146.466 226.836 146.651 226.914 146.807 227.069C146.963 227.214 147.041 227.398 147.041 227.622C147.041 227.845 146.963 228.034 146.807 228.189C146.651 228.343 146.466 228.422 146.252 228.422ZM146.252 234.618C146.038 234.618 145.852 234.54 145.697 234.385C145.551 234.231 145.478 234.042 145.478 233.818C145.478 233.594 145.551 233.411 145.697 233.265C145.852 233.111 146.038 233.032 146.252 233.032C146.466 233.032 146.651 233.111 146.807 233.265C146.963 233.411 147.041 233.594 147.041 233.818C147.041 234.042 146.963 234.231 146.807 234.385C146.651 234.54 146.466 234.618 146.252 234.618ZM152.635 234.632C151.846 234.632 151.14 234.423 150.516 234.007C149.903 233.591 149.421 232.994 149.07 232.218C148.729 231.432 148.559 230.511 148.559 229.454C148.559 228.398 148.729 227.482 149.07 226.705C149.421 225.92 149.903 225.318 150.516 224.902C151.14 224.485 151.846 224.276 152.635 224.276C153.423 224.276 154.125 224.485 154.738 224.902C155.361 225.318 155.848 225.92 156.199 226.705C156.55 227.482 156.725 228.398 156.725 229.454C156.725 230.511 156.55 231.432 156.199 232.218C155.848 232.994 155.361 233.591 154.738 234.007C154.125 234.423 153.423 234.632 152.635 234.632ZM152.635 233.672C153.229 233.672 153.75 233.507 154.198 233.178C154.655 232.849 155.011 232.369 155.264 231.738C155.517 231.107 155.644 230.347 155.644 229.454C155.644 228.562 155.517 227.802 155.264 227.171C155.011 226.54 154.655 226.06 154.198 225.731C153.75 225.402 153.229 225.236 152.635 225.236C152.041 225.236 151.515 225.402 151.057 225.731C150.609 226.06 150.258 226.54 150.005 227.171C149.752 227.802 149.625 228.562 149.625 229.454C149.625 230.347 149.752 231.107 150.005 231.738C150.258 232.369 150.609 232.849 151.057 233.178C151.515 233.507 152.041 233.672 152.635 233.672ZM162.307 234.632C161.518 234.632 160.812 234.423 160.189 234.007C159.575 233.591 159.093 232.994 158.743 232.218C158.402 231.432 158.231 230.511 158.231 229.454C158.231 228.398 158.402 227.482 158.743 226.705C159.093 225.92 159.575 225.318 160.189 224.902C160.812 224.485 161.518 224.276 162.307 224.276C163.096 224.276 163.797 224.485 164.411 224.902C165.034 225.318 165.521 225.92 165.872 226.705C166.222 227.482 166.398 228.398 166.398 229.454C166.398 230.511 166.222 231.432 165.872 232.218C165.521 232.994 165.034 233.591 164.411 234.007C163.797 234.423 163.096 234.632 162.307 234.632ZM162.307 233.672C162.901 233.672 163.422 233.507 163.87 233.178C164.328 232.849 164.683 232.369 164.937 231.738C165.19 231.107 165.317 230.347 165.317 229.454C165.317 228.562 165.19 227.802 164.937 227.171C164.683 226.54 164.328 226.06 163.87 225.731C163.422 225.402 162.901 225.236 162.307 225.236C161.713 225.236 161.187 225.402 160.729 225.731C160.281 226.06 159.931 226.54 159.678 227.171C159.424 227.802 159.298 228.562 159.298 229.454C159.298 230.347 159.424 231.107 159.678 231.738C159.931 232.369 160.281 232.849 160.729 233.178C161.187 233.507 161.713 233.672 162.307 233.672ZM176.46 224.363C177.766 224.363 178.788 224.674 179.528 225.294C180.268 225.914 180.638 226.769 180.638 227.854C180.638 228.94 180.268 229.794 179.528 230.414C178.788 231.025 177.766 231.331 176.46 231.331H173.714V234.545H172.633V224.363H176.46ZM176.431 230.385C177.444 230.385 178.218 230.167 178.754 229.731C179.29 229.285 179.557 228.66 179.557 227.854C179.557 227.031 179.29 226.4 178.754 225.963C178.218 225.518 177.444 225.294 176.431 225.294H173.714V230.385H176.431ZM193.596 224.363V234.545H192.559V226.4L188.542 233.251H188.031L184.013 226.443V234.545H182.976V224.363H183.867L188.308 231.912L192.705 224.363H193.596Z" fill="black"/>
<g filter="url(#filter702409)">
<path d="M226.435 205.455H164.348C162.331 205.455 160.696 207.083 160.696 209.091V236.364C160.696 238.372 162.331 240 164.348 240H226.435C228.452 240 230.087 238.372 230.087 236.364V209.091C230.087 207.083 228.452 205.455 226.435 205.455Z" fill="white"/>
</g>
<path d="M60.1829 220.087C59.5986 220.087 59.0581 219.962 58.5614 219.709C58.0647 219.456 57.6605 219.098 57.3488 218.632L57.9916 217.905C58.5564 218.74 59.2918 219.156 60.1975 219.156C61.4636 219.156 62.0967 218.409 62.0967 216.916V210.749H58.3568V209.818H63.1631V216.872C63.1631 217.94 62.9098 218.743 62.4034 219.287C61.9067 219.82 61.1666 220.087 60.1829 220.087ZM73.1113 212.349V220H72.1179V218.603C71.8452 219.069 71.4703 219.432 70.993 219.694C70.5158 219.947 69.9704 220.072 69.3568 220.072C68.3537 220.072 67.5599 219.796 66.9756 219.243C66.4011 218.682 66.1137 217.862 66.1137 216.785V212.349H67.1509V216.683C67.1509 217.489 67.3507 218.1 67.7499 218.516C68.1492 218.932 68.719 219.142 69.4591 219.142C70.2675 219.142 70.9053 218.9 71.3728 218.414C71.8403 217.92 72.074 217.236 72.074 216.363V212.349H73.1113ZM76.0162 209.207H77.0534V220H76.0162V209.207ZM85.9103 209.818V220H84.8585V210.749H82.448V209.818H85.9103ZM91.189 209.818V220H90.1371V210.749H87.7267V209.818H91.189ZM94.4368 218.487C94.6607 218.487 94.8459 218.565 94.992 218.72C95.1381 218.865 95.2111 219.049 95.2111 219.272C95.2111 219.389 95.1916 219.514 95.1527 219.651C95.1234 219.787 95.0747 219.942 95.0066 220.116L94.393 222.123H93.6918L94.1885 220.014C94.0325 219.965 93.906 219.878 93.8087 219.752C93.7111 219.616 93.6626 219.456 93.6626 219.272C93.6626 219.049 93.7356 218.865 93.8817 218.72C94.0278 218.565 94.2128 218.487 94.4368 218.487ZM47.3634 234.632C46.5746 234.632 45.8684 234.423 45.2452 234.007C44.6316 233.591 44.1495 232.994 43.7989 232.218C43.458 231.432 43.2876 230.511 43.2876 229.454C43.2876 228.398 43.458 227.482 43.7989 226.705C44.1495 225.92 44.6316 225.318 45.2452 224.902C45.8684 224.485 46.5746 224.276 47.3634 224.276C48.1523 224.276 48.8535 224.485 49.4671 224.902C50.0903 225.318 50.5773 225.92 50.9279 226.705C51.2786 227.482 51.4539 228.398 51.4539 229.454C51.4539 230.511 51.2786 231.432 50.9279 232.218C50.5773 232.994 50.0903 233.591 49.4671 234.007C48.8535 234.423 48.1523 234.632 47.3634 234.632ZM47.3634 233.672C47.9574 233.672 48.4784 233.507 48.9266 233.178C49.3842 232.849 49.7397 232.369 49.993 231.738C50.2461 231.107 50.3728 230.347 50.3728 229.454C50.3728 228.562 50.2461 227.802 49.993 227.171C49.7397 226.54 49.3842 226.06 48.9266 225.731C48.4784 225.402 47.9574 225.236 47.3634 225.236C46.7692 225.236 46.2433 225.402 45.7857 225.731C45.3376 226.06 44.987 226.54 44.7339 227.171C44.4806 227.802 44.354 228.562 44.354 229.454C44.354 230.347 44.4806 231.107 44.7339 231.738C44.987 232.369 45.3376 232.849 45.7857 233.178C46.2433 233.507 46.7692 233.672 47.3634 233.672ZM56.2943 228.727C57.3656 228.785 58.1788 229.076 58.7339 229.6C59.2987 230.114 59.5812 230.787 59.5812 231.622C59.5812 232.203 59.4401 232.722 59.1576 233.178C58.8751 233.623 58.4564 233.978 57.9012 234.24C57.3461 234.502 56.6692 234.632 55.8706 234.632C55.1305 234.632 54.4293 234.516 53.767 234.283C53.1145 234.042 52.5886 233.722 52.1892 233.323L52.7005 232.494C53.0415 232.843 53.4943 233.129 54.0591 233.352C54.6239 233.565 55.2278 233.672 55.8706 233.672C56.7082 233.672 57.3558 233.492 57.8136 233.134C58.2714 232.765 58.5002 232.262 58.5002 231.622C58.5002 230.991 58.2714 230.496 57.8136 230.138C57.3558 229.78 56.6644 229.6 55.7391 229.6H55.0087V228.829L57.8428 225.294H52.6129V224.363H59.1868V225.105L56.2943 228.727ZM61.8521 228.422C61.6379 228.422 61.453 228.343 61.297 228.189C61.1509 228.034 61.0779 227.845 61.0779 227.622C61.0779 227.398 61.1509 227.214 61.297 227.069C61.453 226.914 61.6379 226.836 61.8521 226.836C62.0665 226.836 62.2515 226.914 62.4073 227.069C62.5632 227.214 62.641 227.398 62.641 227.622C62.641 227.845 62.5632 228.034 62.4073 228.189C62.2515 228.343 62.0665 228.422 61.8521 228.422ZM61.8521 234.618C61.6379 234.618 61.453 234.54 61.297 234.385C61.1509 234.231 61.0779 234.042 61.0779 233.818C61.0779 233.594 61.1509 233.411 61.297 233.265C61.453 233.111 61.6379 233.032 61.8521 233.032C62.0665 233.032 62.2515 233.111 62.4073 233.265C62.5632 233.411 62.641 233.594 62.641 233.818C62.641 234.042 62.5632 234.231 62.4073 234.385C62.2515 234.54 62.0665 234.618 61.8521 234.618ZM68.235 234.632C67.4462 234.632 66.74 234.423 66.1168 234.007C65.5032 233.591 65.0211 232.994 64.6705 232.218C64.3296 231.432 64.1592 230.511 64.1592 229.454C64.1592 228.398 64.3296 227.482 64.6705 226.705C65.0211 225.92 65.5032 225.318 66.1168 224.902C66.74 224.485 67.4462 224.276 68.235 224.276C69.0239 224.276 69.7251 224.485 70.3387 224.902C70.9619 225.318 71.449 225.92 71.7996 226.705C72.1502 227.482 72.3255 228.398 72.3255 229.454C72.3255 230.511 72.1502 231.432 71.7996 232.218C71.449 232.994 70.9619 233.591 70.3387 234.007C69.7251 234.423 69.0239 234.632 68.235 234.632ZM68.235 233.672C68.8291 233.672 69.3501 233.507 69.7982 233.178C70.2558 232.849 70.6113 232.369 70.8646 231.738C71.1177 231.107 71.2444 230.347 71.2444 229.454C71.2444 228.562 71.1177 227.802 70.8646 227.171C70.6113 226.54 70.2558 226.06 69.7982 225.731C69.3501 225.402 68.8291 225.236 68.235 225.236C67.6408 225.236 67.1149 225.402 66.6573 225.731C66.2092 226.06 65.8586 226.54 65.6055 227.171C65.3522 227.802 65.2257 228.562 65.2257 229.454C65.2257 230.347 65.3522 231.107 65.6055 231.738C65.8586 232.369 66.2092 232.849 66.6573 233.178C67.1149 233.507 67.6408 233.672 68.235 233.672ZM77.9075 234.632C77.1186 234.632 76.4126 234.423 75.7892 234.007C75.1756 233.591 74.6936 232.994 74.3429 232.218C74.0022 231.432 73.8316 230.511 73.8316 229.454C73.8316 228.398 74.0022 227.482 74.3429 226.705C74.6936 225.92 75.1756 225.318 75.7892 224.902C76.4126 224.485 77.1186 224.276 77.9075 224.276C78.6963 224.276 79.3976 224.485 80.0111 224.902C80.6345 225.318 81.1214 225.92 81.472 226.705C81.8226 227.482 81.9979 228.398 81.9979 229.454C81.9979 230.511 81.8226 231.432 81.472 232.218C81.1214 232.994 80.6345 233.591 80.0111 234.007C79.3976 234.423 78.6963 234.632 77.9075 234.632ZM77.9075 233.672C78.5017 233.672 79.0227 233.507 79.4706 233.178C79.9284 232.849 80.2839 232.369 80.537 231.738C80.7903 231.107 80.9169 230.347 80.9169 229.454C80.9169 228.562 80.7903 227.802 80.537 227.171C80.2839 226.54 79.9284 226.06 79.4706 225.731C79.0227 225.402 78.5017 225.236 77.9075 225.236C77.3134 225.236 76.7875 225.402 76.3297 225.731C75.8818 226.06 75.5312 226.54 75.2779 227.171C75.0248 227.802 74.8981 228.562 74.8981 229.454C74.8981 230.347 75.0248 231.107 75.2779 231.738C75.5312 232.369 75.8818 232.849 76.3297 233.178C76.7875 233.507 77.3134 233.672 77.9075 233.672ZM92.0609 224.363C93.3658 224.363 94.3884 224.674 95.1287 225.294C95.8689 225.914 96.239 226.769 96.239 227.854C96.239 228.94 95.8689 229.794 95.1287 230.414C94.3884 231.025 93.3658 231.331 92.0609 231.331H89.3145V234.545H88.2334V224.363H92.0609ZM92.0317 230.385C93.0444 230.385 93.8187 230.167 94.3545 229.731C94.8901 229.285 95.1578 228.66 95.1578 227.854C95.1578 227.031 94.8901 226.4 94.3545 225.963C93.8187 225.518 93.0444 225.294 92.0317 225.294H89.3145V230.385H92.0317ZM109.197 224.363V234.545H108.16V226.4L104.142 233.251H103.631L99.6136 226.443V234.545H98.5764V224.363H99.4675L103.909 231.912L108.306 224.363H109.197Z" fill="black"/>
<path d="M178.208 220.087C177.624 220.087 177.083 219.962 176.587 219.709C176.09 219.456 175.686 219.098 175.374 218.632L176.017 217.905C176.582 218.74 177.317 219.156 178.223 219.156C179.489 219.156 180.122 218.409 180.122 216.916V210.749H176.382V209.818H181.188V216.872C181.188 217.94 180.935 218.743 180.429 219.287C179.932 219.82 179.192 220.087 178.208 220.087ZM191.137 212.349V220H190.143V218.603C189.871 219.069 189.495 219.432 189.018 219.694C188.542 219.947 187.996 220.072 187.382 220.072C186.38 220.072 185.585 219.796 185.001 219.243C184.426 218.682 184.139 217.862 184.139 216.785V212.349H185.176V216.683C185.176 217.489 185.375 218.1 185.775 218.516C186.175 218.932 186.745 219.142 187.484 219.142C188.293 219.142 188.931 218.9 189.398 218.414C189.866 217.92 190.099 217.236 190.099 216.363V212.349H191.137ZM194.042 209.207H195.079V220H194.042V209.207ZM203.936 209.818V220H202.884V210.749H200.473V209.818H203.936ZM213.364 219.069V220H206.191V219.258L210.442 215.112C210.977 214.589 211.337 214.138 211.523 213.76C211.717 213.372 211.815 212.983 211.815 212.596C211.815 211.994 211.605 211.529 211.187 211.2C210.778 210.86 210.188 210.691 209.419 210.691C208.221 210.691 207.29 211.069 206.629 211.825L205.884 211.185C206.282 210.72 206.79 210.362 207.403 210.109C208.026 209.856 208.727 209.731 209.507 209.731C210.548 209.731 211.372 209.978 211.976 210.472C212.59 210.958 212.896 211.627 212.896 212.48C212.896 213.003 212.779 213.507 212.546 213.992C212.312 214.478 211.868 215.034 211.216 215.665L207.739 219.069H213.364ZM215.63 218.487C215.853 218.487 216.039 218.565 216.185 218.72C216.331 218.865 216.404 219.049 216.404 219.272C216.404 219.389 216.384 219.514 216.346 219.651C216.317 219.787 216.267 219.942 216.2 220.116L215.586 222.123H214.885L215.382 220.014C215.225 219.965 215.099 219.878 215.002 219.752C214.903 219.616 214.856 219.456 214.856 219.272C214.856 219.049 214.929 218.865 215.075 218.72C215.221 218.565 215.405 218.487 215.63 218.487ZM170.674 224.363V234.545H169.622V225.294H167.211V224.363H170.674ZM180.101 233.614V234.545H172.928V233.803L177.179 229.658C177.715 229.134 178.075 228.683 178.26 228.305C178.455 227.918 178.553 227.529 178.553 227.142C178.553 226.54 178.343 226.074 177.924 225.745C177.515 225.405 176.926 225.236 176.157 225.236C174.959 225.236 174.029 225.614 173.366 226.371L172.621 225.731C173.021 225.265 173.527 224.907 174.141 224.654C174.764 224.402 175.465 224.276 176.244 224.276C177.286 224.276 178.11 224.523 178.713 225.018C179.327 225.503 179.634 226.172 179.634 227.025C179.634 227.549 179.517 228.052 179.283 228.538C179.049 229.023 178.606 229.58 177.954 230.211L174.477 233.614H180.101ZM182.21 228.422C181.996 228.422 181.811 228.343 181.655 228.189C181.509 228.034 181.436 227.845 181.436 227.622C181.436 227.398 181.509 227.214 181.655 227.069C181.811 226.914 181.996 226.836 182.21 226.836C182.424 226.836 182.609 226.914 182.766 227.069C182.921 227.214 183 227.398 183 227.622C183 227.845 182.921 228.034 182.766 228.189C182.609 228.343 182.424 228.422 182.21 228.422ZM182.21 234.618C181.996 234.618 181.811 234.54 181.655 234.385C181.509 234.231 181.436 234.042 181.436 233.818C181.436 233.594 181.509 233.411 181.655 233.265C181.811 233.111 181.996 233.032 182.21 233.032C182.424 233.032 182.609 233.111 182.766 233.265C182.921 233.411 183 233.594 183 233.818C183 234.042 182.921 234.231 182.766 234.385C182.609 234.54 182.424 234.618 182.21 234.618ZM187.351 224.363V234.545H186.299V225.294H183.889V224.363H187.351ZM193.273 228.727C194.343 228.785 195.158 229.076 195.713 229.6C196.277 230.114 196.56 230.787 196.56 231.622C196.56 232.203 196.418 232.722 196.136 233.178C195.853 233.623 195.435 233.978 194.88 234.24C194.325 234.502 193.648 234.632 192.85 234.632C192.108 234.632 191.407 234.516 190.746 234.283C190.092 234.042 189.566 233.722 189.168 233.323L189.679 232.494C190.019 232.843 190.472 233.129 191.038 233.352C191.602 233.565 192.207 233.672 192.85 233.672C193.686 233.672 194.334 233.492 194.792 233.134C195.249 232.765 195.479 232.262 195.479 231.622C195.479 230.991 195.249 230.496 194.792 230.138C194.334 229.78 193.642 229.6 192.718 229.6H191.988V228.829L194.822 225.294H189.592V224.363H196.166V225.105L193.273 228.727ZM209.184 231.825H203.486L202.259 234.545H201.134L205.809 224.363H206.876L211.55 234.545H210.411L209.184 231.825ZM208.789 230.952L206.335 225.483L203.881 230.952H208.789ZM223.862 224.363V234.545H222.825V226.4L218.807 233.251H218.296L214.279 226.443V234.545H213.241V224.363H214.133L218.574 231.912L222.971 224.363H223.862Z" fill="black"/>
<path d="M20.0869 110H345.13" stroke="#EEEEEE" stroke-dasharray="2.2 2.2"/>
<path d="M20.0869 139.091H345.13" stroke="#EEEEEE" stroke-dasharray="2.2 2.2"/>
<path d="M20.0869 197.273H345.13" stroke="#EEEEEE"/>
<path d="M20.0869 168.182H345.13" stroke="#EEEEEE" stroke-dasharray="2.2 2.2"/>
<path d="M20.0869 80.9092H345.13" stroke="#EEEEEE" stroke-dasharray="2.2 2.2"/>
<path d="M196.304 201.818V81.8184" stroke="#C4C4C4"/>
<path d="M60.2607 154.693L94.9564 150.27H116.869L166.174 139.656L179.869 129.927L189.913 135.234L201.782 139.656L215.478 127.273L226.435 129.927L239.217 156.462L251.087 160H276.652L309.522 154.693H336L345.13 152.039" stroke="#0066FF"/>
<path d="M214.565 131.818C216.582 131.818 218.217 130.19 218.217 128.182C218.217 126.173 216.582 124.545 214.565 124.545C212.548 124.545 210.913 126.173 210.913 128.182C210.913 130.19 212.548 131.818 214.565 131.818Z" fill="#169BFC" stroke="white"/>
</g>
<defs>
<filter id="filter702409" x="160.696" y="205.455" width="69.3911" height="37.5454" filterUnits="userSpaceOnUse" color-interpolation-filters="sRGB">
<feFlood flood-opacity="0" result="BackgroundImageFix"/>
<feBlend mode="normal" in="SourceGraphic" in2="BackgroundImageFix" result="shape"/>
<feColorMatrix in="SourceAlpha" type="matrix" values="0 0 0 0 0 0 0 0 0 0 0 0 0 0 0 0 0 0 127 0" result="hardAlpha"/>
<feOffset dy="3"/>
<feGaussianBlur stdDeviation="15"/>
<feComposite in2="hardAlpha" operator="arithmetic" k2="-1" k3="1"/>
<feColorMatrix type="matrix" values="0 0 0 0 0 0 0 0 0 0.111667 0 0 0 0 0.279167 0 0 0 0.1 0"/>
<feBlend mode="normal" in2="shape" result="effect1_innerShadow_702:409"/>
</filter>
<clipPath id="clip0_702:409">
<rect width="378" height="300" fill="white"/>
</clipPath>
</defs>
</svg>
