<svg width="466" height="466" viewBox="0 0 466 466" fill="none" xmlns="http://www.w3.org/2000/svg">
<path d="M173.527 409.356L173.445 409.182L173.267 409.108L150.723 399.758L150.545 399.684L150.363 399.749L91.86 420.658L45.3421 374.14L66.251 315.637L66.3159 315.455L66.242 315.277L56.8915 292.733L56.8177 292.555L56.6437 292.473L0.5 265.886L0.5 200.114L56.6437 173.527L56.8177 173.445L56.8915 173.267L66.242 150.723L66.3159 150.545L66.251 150.363L45.3421 91.86L91.86 45.3421L150.395 66.2652L150.577 66.3301L150.755 66.2563L173.253 56.9343L173.431 56.8605L173.513 56.6863L200.114 0.5L265.886 0.5L292.487 56.6863L292.569 56.8605L292.747 56.9343L315.245 66.2563L315.423 66.3301L315.605 66.2652L374.14 45.3421L420.658 91.86L399.749 150.363L399.684 150.545L399.758 150.723L409.108 173.267L409.182 173.445L409.356 173.527L465.5 200.114V265.886L409.356 292.473L409.182 292.555L409.108 292.733L399.758 315.277L399.684 315.455L399.749 315.637L420.658 374.14L374.14 420.658L315.637 399.749L315.455 399.684L315.277 399.758L292.733 409.108L292.555 409.182L292.473 409.356L265.886 465.5H200.114L173.527 409.356Z" fill="url(#radial_104)" fill-opacity="0.5" stroke="white"/>
<defs>
<radialGradient id="radial_104" cx="0" cy="0" r="1" gradientUnits="userSpaceOnUse" gradientTransform="translate(63.373 84.6238) rotate(42.7628) scale(460.541)">
<stop stop-color="#1694FC" stop-opacity="0.13"/>
<stop offset="0.0666667" stop-color="#1895FC" stop-opacity="0.134324"/>
<stop offset="0.133333" stop-color="#1E98FC" stop-opacity="0.147755"/>
<stop offset="0.2" stop-color="#299DFC" stop-opacity="0.17083"/>
<stop offset="0.266667" stop-color="#38A4FC" stop-opacity="0.203706"/>
<stop offset="0.333333" stop-color="#4CADFD" stop-opacity="0.245887"/>
<stop offset="0.4" stop-color="#63B8FD" stop-opacity="0.295942"/>
<stop offset="0.466667" stop-color="#7DC4FD" stop-opacity="0.351346"/>
<stop offset="0.533333" stop-color="#98D0FE" stop-opacity="0.408654"/>
<stop offset="0.6" stop-color="#B2DCFE" stop-opacity="0.464058"/>
<stop offset="0.666667" stop-color="#C9E6FE" stop-opacity="0.514113"/>
<stop offset="0.733333" stop-color="#DDEFFF" stop-opacity="0.556294"/>
<stop offset="0.8" stop-color="#ECF6FF" stop-opacity="0.58917"/>
<stop offset="0.866667" stop-color="#F7FBFF" stop-opacity="0.612245"/>
<stop offset="0.933333" stop-color="#FDFEFF" stop-opacity="0.625676"/>
<stop offset="1" stop-color="white" stop-opacity="0.63"/>
</radialGradient>
</defs>
</svg>
