<svg width="285" height="40" viewBox="0 0 285 40" fill="none" xmlns="http://www.w3.org/2000/svg">
<g clip-path="url(#clip0_692:748)">
<path d="M284.731 25.8983C284.731 17.6496 279.105 12.8429 271.691 12.8429C269.906 12.7784 268.127 13.0841 266.466 13.7409C264.806 14.3976 263.299 15.3912 262.041 16.6589C260.784 17.9267 259.802 19.4412 259.158 21.107C258.515 22.7728 258.223 24.5539 258.302 26.338C258.224 28.1289 258.516 29.9166 259.158 31.5902C259.8 33.2638 260.779 34.7876 262.034 36.0672C263.29 37.3467 264.795 38.3547 266.456 39.0286C268.117 39.7025 269.898 40.0279 271.691 39.9847C274.421 40.0216 277.114 39.342 279.499 38.0135C280.725 37.3139 281.799 36.377 282.658 35.2574C283.517 34.1379 284.145 32.8583 284.503 31.4934H279.06C277.725 33.8892 275.345 35.0567 271.979 35.0567C267.43 35.0567 264.048 31.4934 264.048 28.0969H284.67C284.731 27.1265 284.731 26.52 284.731 25.8983ZM263.988 23.3054C264.357 21.6257 265.316 20.1337 266.689 19.0992C268.063 18.0646 269.762 17.5558 271.478 17.6648C275.375 17.6648 278.575 19.9999 279.06 23.3054H264.064H263.988Z" fill="#717171"/>
<path d="M20.6674 29.7497C19.9077 31.3692 18.6161 32.6795 17.0076 33.4622C15.3992 34.245 13.5711 34.4529 11.8279 34.0515C10.0847 33.65 8.53176 32.6633 7.42774 31.2559C6.32373 29.8484 5.73533 28.1051 5.76058 26.3165C5.78583 24.5279 6.42321 22.8019 7.56651 21.4262C8.70982 20.0504 10.29 19.108 12.0438 18.7559C13.7976 18.4038 15.6191 18.6633 17.2048 19.4911C18.7906 20.319 20.0447 21.6652 20.7584 23.3055H26.8236C26.0354 20.0615 24.0854 17.219 21.3427 15.3158C18.6 13.4126 15.2548 12.5808 11.9401 12.9777C8.62547 13.3746 5.57127 14.9728 3.35548 17.4697C1.13969 19.9667 -0.0839844 23.1892 -0.0839844 26.5276C-0.0839844 29.8659 1.13969 33.0885 3.35548 35.5855C5.57127 38.0824 8.62547 39.6806 11.9401 40.0775C15.2548 40.4744 18.6 39.6426 21.3427 37.7394C24.0854 35.8362 26.0354 32.9937 26.8236 29.7497H20.7584H20.6674Z" fill="#717171"/>
<path d="M48.431 13.9955C46.7246 13.1956 44.8564 12.8012 42.9723 12.8431C41.0187 12.8639 39.1127 13.4483 37.4833 14.5262V13.768H31.9033V39.0751H37.5136V26.9447C37.4284 25.294 37.5455 23.639 37.8624 22.0167V21.8954C38.027 21.3562 38.2967 20.8549 38.6558 20.4204C39.0149 19.9858 39.4564 19.6265 39.9549 19.3632C40.8609 18.7855 41.913 18.4786 42.9875 18.4786C44.062 18.4786 45.1141 18.7855 46.0201 19.3632L48.431 13.9955Z" fill="#717171"/>
<path d="M69.613 13.7681V25.8985C69.6982 27.5492 69.5811 29.2042 69.2642 30.8264V30.9477C68.9354 32.0257 68.1943 32.9303 67.2021 33.4648C66.2961 34.0425 65.244 34.3494 64.1695 34.3494C63.095 34.3494 62.0429 34.0425 61.1369 33.4648C60.1446 32.9303 59.4035 32.0257 59.0747 30.9477V30.8264C58.7578 29.2042 58.6407 27.5492 58.726 25.8985V13.7681H53.1308V27.5664C52.9999 29.8268 53.3247 32.0906 54.0861 34.223C54.9539 36.2726 56.5853 37.904 58.635 38.7719C60.3414 39.5717 62.2096 39.9661 64.0937 39.9242C66.0472 39.9035 67.9532 39.3191 69.5827 38.2412V39.0751H75.1172V13.7681H69.613Z" fill="#717171"/>
<path d="M87.6273 39.0752V26.9448C87.5508 25.2878 87.6781 23.6276 88.0064 22.0017V21.8804C88.3352 20.8024 89.0763 19.8978 90.0686 19.3633C90.9745 18.7856 92.0267 18.4787 93.1012 18.4787C94.1756 18.4787 95.2278 18.7856 96.1338 19.3633C97.126 19.8978 97.8671 20.8024 98.1959 21.8804V22.0017C98.5039 23.6302 98.6108 25.2903 98.5144 26.9448V39.0752H104.079V25.2769C104.225 23.0195 103.915 20.7559 103.169 18.6203C102.302 16.5707 100.67 14.9392 98.6205 14.0714C96.9141 13.2716 95.0459 12.8772 93.1618 12.919C91.2082 12.9398 89.3022 13.5242 87.6728 14.6021V13.844H82.0625V39.0752H87.6273Z" fill="#717171"/>
<path d="M129.901 29.7497C129.141 31.3692 127.849 32.6795 126.241 33.4622C124.633 34.245 122.804 34.4529 121.061 34.0515C119.318 33.65 117.765 32.6633 116.661 31.2559C115.557 29.8484 114.969 28.1051 114.994 26.3165C115.019 24.5279 115.657 22.8019 116.8 21.4262C117.943 20.0504 119.523 19.108 121.277 18.7559C123.031 18.4038 124.853 18.6633 126.438 19.4911C128.024 20.319 129.278 21.6652 129.992 23.3055H136.057C135.269 20.0615 133.319 17.219 130.576 15.3158C127.833 13.4126 124.488 12.5808 121.174 12.9777C117.859 13.3746 114.805 14.9728 112.589 17.4697C110.373 19.9667 109.149 23.1892 109.149 26.5276C109.149 29.8659 110.373 33.0885 112.589 35.5855C114.805 38.0824 117.859 39.6806 121.174 40.0775C124.488 40.4744 127.833 39.6426 130.576 37.7394C133.319 35.8362 135.269 32.9937 136.057 29.7497H129.992H129.901Z" fill="#717171"/>
<path d="M146.748 39.0751V26.9447C146.663 25.2939 146.78 23.639 147.097 22.0167V21.8954C147.262 21.3562 147.531 20.8549 147.891 20.4203C148.25 19.9857 148.691 19.6265 149.19 19.3632C150.096 18.7855 151.148 18.4786 152.222 18.4786C153.297 18.4786 154.349 18.7855 155.255 19.3632C156.247 19.8976 156.988 20.8022 157.317 21.8802V22.0015C157.634 23.6238 157.751 25.2788 157.666 26.9295V39.0599H163.231V25.2616C163.362 23.0011 163.037 20.7374 162.275 18.605C161.408 16.5554 159.776 14.9239 157.726 14.0561C156.02 13.2562 154.152 12.8618 152.268 12.9037C150.314 12.9245 148.408 13.5089 146.779 14.5868V0H141.184V39.0751H146.748Z" fill="#717171"/>
<path d="M183.29 12.8431H182.289C179.896 13.0179 177.592 13.8293 175.618 15.1933V0H170.083V39.0751H175.648V37.6497C177.409 38.8889 179.439 39.6935 181.571 39.9979C183.703 40.3023 185.877 40.0977 187.915 39.4009C189.953 38.7042 191.797 37.535 193.296 35.989C194.795 34.443 195.907 32.5641 196.542 30.5059C197.176 28.4477 197.314 26.2687 196.944 24.147C196.575 22.0253 195.708 20.0211 194.416 18.2984C193.123 16.5757 191.441 15.1833 189.508 14.2352C187.574 13.287 185.443 12.81 183.29 12.8431ZM191.114 27.4602V27.7028C191.064 28.0254 190.993 28.3444 190.902 28.6581C190.798 28.9948 190.671 29.3241 190.523 29.6437V29.765C190 30.8518 189.235 31.8041 188.286 32.5481C187.337 33.2921 186.229 33.8081 185.049 34.0561L184.306 34.1774H184.139C183.856 34.193 183.573 34.193 183.29 34.1774C182.935 34.1763 182.58 34.1509 182.229 34.1016H181.986C181.3 33.9895 180.632 33.7855 180 33.4951H179.848C179.211 33.1821 178.619 32.7843 178.089 32.3124C177.556 31.827 177.092 31.2709 176.709 30.6596C176.52 30.3482 176.353 30.0239 176.209 29.6892C175.763 28.6709 175.54 27.5688 175.556 26.4572C175.571 25.3455 175.825 24.2501 176.3 23.2449C176.876 22.0274 177.757 20.979 178.856 20.2008C179.956 19.4226 181.237 18.9409 182.577 18.8021C182.845 18.7882 183.113 18.7882 183.381 18.8021C185.403 18.8287 187.336 19.6354 188.777 21.0539C190.218 22.4723 191.056 24.3927 191.114 26.4139C191.137 26.7623 191.137 27.1118 191.114 27.4602Z" fill="#717171"/>
<path d="M253.798 21.3341V21.2128C253.798 17.0885 250.629 12.8883 243.563 12.8125C236.497 12.7367 233.434 16.9672 233.343 21.0309V21.3341C233.494 23.7147 234.859 26.7473 240.136 27.9907L244.836 29.0521C246.049 29.325 248.112 30.0074 248.278 31.554C248.278 33.692 245.534 34.814 243.563 34.814C241.288 34.814 238.847 33.5555 238.847 31.5388V31.4175H233.343V31.4933C233.343 35.6177 236.512 39.8178 243.578 39.8937C250.644 39.9695 253.813 35.6328 253.813 31.4933V31.4175C253.692 29.0066 252.388 25.9285 247.02 24.6852L242.319 23.6237C241.288 23.3963 238.877 22.6988 238.877 21.1673C238.877 18.7716 241.319 17.9225 243.593 17.9225C245.867 17.9225 248.309 19.181 248.309 21.1977V21.3341H253.813H253.798Z" fill="#717171"/>
<path d="M201.425 26.414C201.448 28.8745 202.135 31.2831 203.415 33.3848C204.694 35.4865 206.518 37.2032 208.694 38.353C210.869 39.5029 213.315 40.0432 215.772 39.9167C218.23 39.7902 220.607 39.0017 222.653 37.6346V39.0751H228.218V13.768H222.683V15.2843C220.709 13.9203 218.405 13.1089 216.012 12.9341H215.011C211.431 12.9497 208 14.3716 205.459 16.8932C202.917 19.4148 201.469 22.8341 201.425 26.414ZM207.172 26.414C207.176 24.3401 208.001 22.3524 209.468 20.8859C210.934 19.4195 212.922 18.5939 214.996 18.5899C215.263 18.576 215.532 18.576 215.799 18.5899C217.139 18.7287 218.421 19.2104 219.52 19.9886C220.62 20.7668 221.5 21.8152 222.077 23.0326C222.552 24.0379 222.805 25.1333 222.821 26.2449C222.837 27.3566 222.614 28.4586 222.168 29.4769C222.024 29.8117 221.857 30.1359 221.667 30.4473C221.285 31.0587 220.821 31.6147 220.288 32.1001C219.757 32.572 219.166 32.9699 218.529 33.2828H218.377C217.745 33.5732 217.077 33.7772 216.391 33.8894H216.148C215.796 33.9387 215.442 33.964 215.087 33.9652C214.804 33.9808 214.52 33.9808 214.238 33.9652H214.131L213.388 33.8439C212.233 33.5823 211.152 33.0633 210.225 32.3255C209.298 31.5878 208.55 30.6503 208.036 29.5831V29.4618C207.887 29.1422 207.761 28.8129 207.657 28.4762C207.566 28.1625 207.495 27.8435 207.445 27.5209V27.2783C207.337 26.9957 207.246 26.7071 207.172 26.414Z" fill="#717171"/>
</g>
<defs>
<clipPath id="clip0_692:748">
<rect width="284.731" height="40" fill="white"/>
</clipPath>
</defs>
</svg>
