<svg width="90" height="90" viewBox="0 0 90 90" fill="none" xmlns="http://www.w3.org/2000/svg">
<path d="M30.7304 21.958V28.6943H6.03995V34.3052H28.4876V41.0376H6.03995V46.6485H30.7304V53.3848H-0.692383V21.958H30.7304Z" fill="#9E9FA0"/>
<path d="M67.2234 21.958V28.6943H42.529V34.3052H64.9767V41.0376H42.529V53.3848H35.8164V21.958H67.2234Z" fill="#636466"/>
<path d="M60.4871 78.5057V58.5771H67.2234V90H62.4614L42.529 70.0675V90H35.8164V58.5771H40.5547L60.4871 78.5057Z" fill="#9E9FA0"/>
<path d="M0.179794 69.0016C-0.0227659 69.0736 -0.199169 69.2045 -0.326752 69.3775C-0.454334 69.5506 -0.527268 69.7578 -0.536182 69.9726C-0.545096 70.1874 -0.489584 70.3999 -0.376777 70.5829C-0.263971 70.7659 -0.099023 70.911 0.0968733 70.9996L12.3967 76.4841C12.6371 76.5923 12.8295 76.7847 12.9377 77.0251L18.5012 89.2657C18.5606 89.3982 18.6467 89.5171 18.754 89.6149C18.8613 89.7127 18.9876 89.7874 19.1251 89.8343C19.2586 89.8817 19.4001 89.9023 19.5416 89.8948C19.6831 89.8873 19.8217 89.8519 19.9494 89.7906C20.0771 89.7293 20.1914 89.6433 20.2858 89.5377C20.3802 89.432 20.4527 89.3087 20.4992 89.1749L30.8247 59.8488C30.9057 59.6147 30.9057 59.3602 30.8247 59.1262C30.7284 58.8571 30.529 58.6372 30.2706 58.515C30.0122 58.3929 29.7158 58.3783 29.4467 58.4747L0.179794 69.0016ZM3.25574 70.119L28.1318 61.2031L14.1933 75.2166C13.9208 74.9451 13.601 74.7257 13.2496 74.5691L3.25574 70.119Z" fill="#636466"/>
<path d="M33.2651 17.9818C33.1081 17.9818 32.9574 17.9194 32.8463 17.8083C32.7353 17.6972 32.6729 17.5466 32.6729 17.3895V10.7756C32.6729 10.6186 32.7353 10.4679 32.8463 10.3568C32.9574 10.2458 33.1081 10.1833 33.2651 10.1833C33.4222 10.1833 33.5729 10.2458 33.6839 10.3568C33.795 10.4679 33.8574 10.6186 33.8574 10.7756V17.3737C33.8595 17.4528 33.8458 17.5315 33.817 17.6052C33.7881 17.6789 33.7448 17.7461 33.6896 17.8028C33.6344 17.8595 33.5684 17.9045 33.4955 17.9352C33.4226 17.966 33.3443 17.9818 33.2651 17.9818Z" fill="#636466"/>
<path d="M77.5372 56.6621H70.9233C70.7663 56.6621 70.6156 56.5997 70.5045 56.4886C70.3935 56.3776 70.3311 56.2269 70.3311 56.0698C70.3311 55.9127 70.3935 55.7621 70.5045 55.651C70.6156 55.5399 70.7663 55.4775 70.9233 55.4775H77.5372C77.6943 55.4775 77.845 55.5399 77.956 55.651C78.0671 55.7621 78.1295 55.9127 78.1295 56.0698C78.1295 56.2269 78.0671 56.3776 77.956 56.4886C77.845 56.5997 77.6943 56.6621 77.5372 56.6621Z" fill="#636466"/>
<path d="M45.2451 0.0829081C51.1001 -0.276573 56.9631 0.645117 62.4254 2.78374C65.1734 3.8487 67.8029 5.19719 70.2712 6.80734C75.2329 10.0425 79.4662 14.2758 82.7014 19.2375C84.3136 21.7053 85.6634 24.3348 86.7289 27.0833C88.8683 32.5453 89.7887 38.4088 89.4258 44.2636C89.07 38.5301 87.7109 32.9036 85.4101 27.6401C84.2591 25.0415 82.8698 22.5551 81.2601 20.2128C78.0487 15.5233 73.9962 11.4694 69.3078 8.25647C66.9654 6.64802 64.479 5.26009 61.8805 4.11046C56.6152 1.8006 50.9839 0.437216 45.2451 0.0829081Z" fill="#636466"/>
</svg>
