<svg width="130" height="130" viewBox="0 0 130 130" fill="none" xmlns="http://www.w3.org/2000/svg">
<path d="M44.3885 31.7173V41.4475H8.72447V49.5521H41.1489V59.2766H8.72447V67.3813H44.3885V77.1115H-1V31.7173H44.3885Z" fill="#9E9FA0"/>
<path d="M97.1001 31.7173V41.4475H61.4303V49.5521H93.8548V59.2766H61.4303V77.1115H51.7344V31.7173H97.1001Z" fill="#636466"/>
<path d="M87.3699 113.397V84.6116H97.1001V130H90.2216L61.4303 101.209V130H51.7344V84.6116H58.5786L87.3699 113.397Z" fill="#9E9FA0"/>
<path d="M0.260136 99.6689C-0.03245 99.7729 -0.287255 99.962 -0.47154 100.212C-0.655826 100.462 -0.761175 100.761 -0.774051 101.071C-0.786927 101.382 -0.706743 101.689 -0.5438 101.953C-0.380857 102.217 -0.142599 102.427 0.140362 102.555L17.9068 110.477C18.254 110.633 18.532 110.911 18.6882 111.258L26.7244 128.939C26.8102 129.131 26.9345 129.302 27.0895 129.444C27.2446 129.585 27.427 129.693 27.6256 129.761C27.8184 129.829 28.0228 129.859 28.2272 129.848C28.4315 129.837 28.6317 129.786 28.8162 129.697C29.0007 129.609 29.1658 129.485 29.3021 129.332C29.4384 129.18 29.5432 129.001 29.6104 128.808L44.525 86.4482C44.6419 86.1101 44.6419 85.7425 44.525 85.4044C44.3858 85.0157 44.0979 84.6982 43.7247 84.5217C43.3514 84.3452 42.9233 84.3242 42.5345 84.4634L0.260136 99.6689ZM4.70317 101.283L40.6353 88.4045L20.5019 108.646C20.1082 108.254 19.6463 107.937 19.1387 107.711L4.70317 101.283Z" fill="#636466"/>
<path d="M48.0499 25.9739C47.823 25.9739 47.6054 25.8838 47.4449 25.7233C47.2845 25.5629 47.1943 25.3453 47.1943 25.1184V15.565C47.1943 15.3381 47.2845 15.1205 47.4449 14.96C47.6054 14.7996 47.823 14.7095 48.0499 14.7095C48.2768 14.7095 48.4944 14.7996 48.6548 14.96C48.8152 15.1205 48.9054 15.3381 48.9054 15.565V25.0956C48.9084 25.2098 48.8886 25.3235 48.8469 25.43C48.8053 25.5364 48.7428 25.6334 48.663 25.7153C48.5833 25.7972 48.4879 25.8622 48.3826 25.9067C48.2773 25.9511 48.1642 25.9739 48.0499 25.9739Z" fill="#636466"/>
<path d="M111.998 81.8453H102.444C102.217 81.8453 102 81.7552 101.839 81.5948C101.679 81.4343 101.589 81.2167 101.589 80.9898C101.589 80.7629 101.679 80.5453 101.839 80.3849C102 80.2244 102.217 80.1343 102.444 80.1343H111.998C112.225 80.1343 112.442 80.2244 112.603 80.3849C112.763 80.5453 112.853 80.7629 112.853 80.9898C112.853 81.2167 112.763 81.4343 112.603 81.5948C112.442 81.7552 112.225 81.8453 111.998 81.8453Z" fill="#636466"/>
<path d="M65.3545 0.119783C73.8117 -0.399468 82.2805 0.931862 90.1704 4.02098C94.1397 5.55926 97.9379 7.50707 101.503 9.83285C108.67 14.5059 114.785 20.6206 119.458 27.7875C121.787 31.3521 123.736 35.1504 125.276 39.1203C128.366 47.0099 129.695 55.4793 129.171 63.9363C128.657 55.6547 126.694 47.5275 123.371 39.9245C121.708 36.171 119.701 32.5796 117.376 29.1963C112.737 22.4225 106.884 16.567 100.112 11.926C96.7282 9.60273 93.1368 7.59793 89.3834 5.93736C81.7779 2.6009 73.6438 0.631561 65.3545 0.119783Z" fill="#636466"/>
</svg>
