<svg width="187" height="60" viewBox="0 0 187 60" fill="none" xmlns="http://www.w3.org/2000/svg">
<path d="M79.7432 13.3858C79.7432 13.1912 79.8205 13.0045 79.9581 12.8668C80.0958 12.7292 80.2825 12.6519 80.4772 12.6519C80.6718 12.6519 80.8585 12.7292 80.9962 12.8668C81.1338 13.0045 81.2111 13.1912 81.2111 13.3858V18.5113H88.6754V13.3858C88.6754 13.1912 88.7527 13.0045 88.8903 12.8668C89.028 12.7292 89.2147 12.6519 89.4093 12.6519C89.604 12.6519 89.7907 12.7292 89.9283 12.8668C90.066 13.0045 90.1433 13.1912 90.1433 13.3858V25.0798C90.1433 25.2745 90.066 25.4612 89.9283 25.5988C89.7907 25.7365 89.604 25.8138 89.4093 25.8138C89.2147 25.8138 89.028 25.7365 88.8903 25.5988C88.7527 25.4612 88.6754 25.2745 88.6754 25.0798V19.9046H81.2111V25.1047C81.2111 25.2993 81.1338 25.486 80.9962 25.6237C80.8585 25.7613 80.6718 25.8387 80.4772 25.8387C80.2825 25.8387 80.0958 25.7613 79.9581 25.6237C79.8205 25.486 79.7432 25.2993 79.7432 25.1047V13.3858Z" fill="#717171"/>
<path d="M89.4458 25.8512C89.2412 25.8512 89.045 25.7699 88.9004 25.6253C88.7557 25.4806 88.6744 25.2844 88.6744 25.0799V19.9047H81.2102V25.0799C81.2241 25.1885 81.2147 25.2989 81.1826 25.4036C81.1505 25.5084 81.0964 25.6051 81.0241 25.6873C80.9517 25.7695 80.8626 25.8354 80.7628 25.8805C80.663 25.9256 80.5547 25.9489 80.4451 25.9489C80.3356 25.9489 80.2273 25.9256 80.1275 25.8805C80.0277 25.8354 79.9386 25.7695 79.8662 25.6873C79.7938 25.6051 79.7398 25.5084 79.7077 25.4036C79.6756 25.2989 79.6662 25.1885 79.68 25.0799V13.3859C79.6662 13.2772 79.6756 13.1669 79.7077 13.0621C79.7398 12.9574 79.7938 12.8607 79.8662 12.7785C79.9386 12.6963 80.0277 12.6304 80.1275 12.5853C80.2273 12.5402 80.3356 12.5168 80.4451 12.5168C80.5547 12.5168 80.663 12.5402 80.7628 12.5853C80.8626 12.6304 80.9517 12.6963 81.0241 12.7785C81.0964 12.8607 81.1505 12.9574 81.1826 13.0621C81.2147 13.1669 81.2241 13.2772 81.2102 13.3859V18.474H88.6744V13.3859C88.6744 13.1813 88.7557 12.9852 88.9004 12.8405C89.045 12.6959 89.2412 12.6146 89.4458 12.6146C89.5454 12.6162 89.6438 12.6375 89.7352 12.6771C89.8267 12.7167 89.9094 12.774 89.9787 12.8456C90.048 12.9173 90.1026 13.0018 90.1392 13.0945C90.1758 13.1872 90.1938 13.2862 90.1922 13.3859V25.0799C90.1923 25.2802 90.1144 25.4727 89.9751 25.6167C89.8358 25.7606 89.646 25.8447 89.4458 25.8512ZM81.1729 19.9047H88.7366V25.1296C88.7233 25.2298 88.7315 25.3316 88.7607 25.4284C88.7899 25.5251 88.8395 25.6144 88.906 25.6905C88.9726 25.7665 89.0546 25.8274 89.1466 25.8691C89.2386 25.9109 89.3385 25.9325 89.4395 25.9325C89.5406 25.9325 89.6404 25.9109 89.7324 25.8691C89.8245 25.8274 89.9065 25.7665 89.973 25.6905C90.0396 25.6144 90.0891 25.5251 90.1184 25.4284C90.1476 25.3316 90.1558 25.2298 90.1424 25.1296V13.4357C90.1424 13.2497 90.0694 13.0712 89.9391 12.9386C89.8088 12.806 89.6317 12.7298 89.4458 12.7266C89.3522 12.7249 89.2592 12.7421 89.1724 12.7771C89.0856 12.8121 89.0068 12.8643 88.9406 12.9305C88.8744 12.9967 88.8222 13.0755 88.7872 13.1623C88.7522 13.2491 88.735 13.3421 88.7366 13.4357V18.5362H81.1729V13.3859C81.1746 13.2923 81.1574 13.1994 81.1224 13.1126C81.0873 13.0258 81.0351 12.9469 80.969 12.8807C80.9028 12.8146 80.8239 12.7624 80.7371 12.7273C80.6503 12.6923 80.5574 12.6751 80.4638 12.6768C80.2779 12.6801 80.1007 12.7562 79.9704 12.8888C79.8401 13.0215 79.7671 13.2 79.7671 13.3859V25.0799C79.7538 25.18 79.762 25.2819 79.7912 25.3786C79.8204 25.4753 79.8699 25.5647 79.9365 25.6407C80.003 25.7167 80.0851 25.7776 80.1771 25.8194C80.2691 25.8611 80.369 25.8827 80.47 25.8827C80.571 25.8827 80.6709 25.8611 80.7629 25.8194C80.8549 25.7776 80.937 25.7167 81.0035 25.6407C81.0701 25.5647 81.1196 25.4753 81.1488 25.3786C81.178 25.2819 81.1862 25.18 81.1729 25.0799V19.9047Z" fill="#717171"/>
<path d="M95.4925 19.2704C95.4742 18.3895 95.6329 17.5138 95.9593 16.6954C96.2857 15.877 96.7732 15.1324 97.3927 14.5059C98.0123 13.8794 98.7513 13.3837 99.5661 13.0481C100.381 12.7126 101.255 12.5441 102.136 12.5526C103.013 12.5406 103.883 12.7058 104.695 13.0382C105.507 13.3707 106.243 13.8635 106.86 14.4873C107.477 15.111 107.961 15.8529 108.285 16.6683C108.608 17.4838 108.763 18.3562 108.742 19.2331C108.78 20.1272 108.638 21.0199 108.322 21.8574C108.007 22.6949 107.525 23.4599 106.906 24.1062C106.287 24.7526 105.544 25.267 104.721 25.6184C103.898 25.9698 103.012 26.151 102.117 26.151C101.222 26.151 100.336 25.9698 99.5134 25.6184C98.6903 25.267 97.9469 24.7526 97.328 24.1062C96.709 23.4599 96.2273 22.6949 95.9119 21.8574C95.5964 21.0199 95.4538 20.1272 95.4925 19.2331V19.2704ZM107.224 19.2331C107.251 18.5417 107.138 17.852 106.893 17.2049C106.648 16.5579 106.275 15.9667 105.797 15.4665C105.319 14.9663 104.745 14.5674 104.11 14.2933C103.474 14.0193 102.79 13.8758 102.098 13.8713C101.412 13.8756 100.734 14.0183 100.105 14.2908C99.4754 14.5632 98.9073 14.9598 98.4346 15.4569C97.9619 15.954 97.5943 16.5413 97.3539 17.1837C97.1134 17.8262 97.005 18.5105 97.0352 19.1958C97.0085 19.8862 97.1207 20.5749 97.365 21.2211C97.6094 21.8673 97.981 22.4579 98.4578 22.9579C98.9346 23.4579 99.5069 23.8571 100.141 24.1319C100.775 24.4067 101.457 24.5514 102.148 24.5576C102.836 24.5566 103.517 24.4164 104.149 24.1454C104.782 23.8744 105.353 23.4783 105.828 22.9809C106.304 22.4835 106.673 21.895 106.915 21.2509C107.157 20.6069 107.266 19.9205 107.236 19.2331" fill="#717171"/>
<path d="M102.098 25.9758C101.203 25.9895 100.315 25.8188 99.4885 25.4742C98.6623 25.1296 97.916 24.6186 97.296 23.9729C96.103 22.6997 95.4478 21.015 95.4672 19.2704C95.455 17.5174 96.1138 15.8261 97.3084 14.5431C97.9398 13.907 98.6908 13.4022 99.5181 13.0577C100.345 12.7132 101.233 12.5359 102.129 12.5359C103.025 12.5359 103.913 12.7132 104.74 13.0577C105.567 13.4022 106.318 13.907 106.95 14.5431C108.137 15.8197 108.791 17.5021 108.778 19.2455C108.805 20.9846 108.164 22.6677 106.987 23.948C106.365 24.5995 105.615 25.1158 104.785 25.4646C103.954 25.8135 103.061 25.9875 102.16 25.9758H102.098ZM102.16 12.5402C101.268 12.5277 100.383 12.7004 99.5604 13.0473C98.7382 13.3941 97.9968 13.9077 97.383 14.5555C96.1927 15.8203 95.5375 17.4964 95.5543 19.2331C95.534 20.9621 96.1799 22.6327 97.3582 23.8983C97.9812 24.5332 98.7246 25.0375 99.5448 25.3818C100.365 25.7261 101.246 25.9035 102.135 25.9035C103.025 25.9035 103.905 25.7261 104.726 25.3818C105.546 25.0375 106.289 24.5332 106.912 23.8983C108.1 22.632 108.755 20.9569 108.741 19.2207C108.758 17.4899 108.108 15.8192 106.925 14.5555C106.31 13.9138 105.57 13.4057 104.75 13.0632C103.93 12.7207 103.049 12.5511 102.16 12.5651V12.5402ZM102.16 24.6447C101.462 24.6579 100.769 24.5241 100.126 24.2519C99.483 23.9797 98.9045 23.5752 98.428 23.0647C97.4952 22.01 96.9973 20.6407 97.0347 19.2331C97.0045 18.5425 97.1143 17.8529 97.3576 17.2058C97.6008 16.5587 97.9724 15.9675 98.4501 15.4677C98.9277 14.968 99.5016 14.57 100.137 14.2978C100.772 14.0256 101.456 13.8848 102.148 13.8837C102.846 13.8705 103.539 14.0043 104.182 14.2765C104.825 14.5487 105.403 14.9532 105.88 15.4637C106.836 16.4986 107.357 17.8617 107.335 19.2704C107.367 19.9615 107.259 20.6519 107.016 21.2998C106.774 21.9476 106.402 22.5395 105.924 23.0397C105.446 23.5398 104.871 23.9377 104.235 24.2093C103.599 24.4809 102.914 24.6205 102.222 24.6198L102.16 24.6447ZM102.222 13.8962C101.527 13.8783 100.835 14.004 100.19 14.2655C99.545 14.527 98.9609 14.9186 98.4741 15.4159C97.9873 15.9132 97.6082 16.5055 97.3606 17.1559C97.1129 17.8062 97.002 18.5007 97.0347 19.1958C97.0263 20.5776 97.5419 21.9112 98.4778 22.9279C98.9454 23.4252 99.5103 23.821 100.137 24.0907C100.764 24.3603 101.44 24.4981 102.123 24.4954C102.808 24.4944 103.485 24.3548 104.114 24.0851C104.744 23.8154 105.312 23.4211 105.785 22.926C106.258 22.4309 106.626 21.8451 106.867 21.2041C107.108 20.563 107.216 19.8799 107.186 19.1958C107.195 17.814 106.679 16.4803 105.743 15.4637C105.274 14.9648 104.707 14.5681 104.078 14.2984C103.448 14.0287 102.77 13.8918 102.086 13.8962" fill="#717171"/>
<path d="M114.066 13.3858C114.066 13.1912 114.144 13.0045 114.281 12.8668C114.419 12.7292 114.606 12.6519 114.8 12.6519C114.995 12.6519 115.182 12.7292 115.319 12.8668C115.457 13.0045 115.534 13.1912 115.534 13.3858V24.3707H122.277C122.456 24.374 122.627 24.4475 122.753 24.5754C122.878 24.7034 122.949 24.8756 122.949 25.0549C122.949 25.1431 122.931 25.2305 122.898 25.312C122.864 25.3935 122.814 25.4676 122.752 25.5299C122.69 25.5923 122.616 25.6418 122.534 25.6756C122.453 25.7093 122.365 25.7267 122.277 25.7267H114.813C114.617 25.7234 114.43 25.6434 114.293 25.5037C114.156 25.3641 114.079 25.1761 114.079 24.9803L114.066 13.3858Z" fill="#717171"/>
<path d="M122.276 25.7517H114.812C114.61 25.7484 114.417 25.6657 114.275 25.5214C114.133 25.3771 114.053 25.1828 114.053 24.9804V13.3859C114.039 13.2772 114.049 13.1669 114.081 13.0621C114.113 12.9574 114.167 12.8607 114.239 12.7785C114.312 12.6963 114.401 12.6304 114.501 12.5853C114.6 12.5402 114.709 12.5168 114.818 12.5168C114.928 12.5168 115.036 12.5402 115.136 12.5853C115.236 12.6304 115.325 12.6963 115.397 12.7785C115.469 12.8607 115.524 12.9574 115.556 13.0621C115.588 13.1669 115.597 13.2772 115.583 13.3859V24.3459H122.289C122.475 24.3492 122.652 24.4253 122.782 24.5579C122.912 24.6906 122.985 24.8691 122.985 25.055C122.985 25.2398 122.912 25.417 122.781 25.5476C122.651 25.6783 122.473 25.7517 122.289 25.7517H122.276ZM114.824 12.6768C114.639 12.6801 114.461 12.7562 114.331 12.8888C114.201 13.0215 114.128 13.2 114.128 13.3859V24.9804C114.128 25.1675 114.2 25.3473 114.33 25.482C114.46 25.6166 114.637 25.6954 114.824 25.7019H122.289C122.373 25.7019 122.457 25.6851 122.534 25.6524C122.612 25.6198 122.683 25.5719 122.742 25.5117C122.801 25.4515 122.847 25.38 122.878 25.3016C122.91 25.2232 122.925 25.1394 122.923 25.055C122.925 24.97 122.91 24.8856 122.879 24.8065C122.848 24.7274 122.801 24.6551 122.742 24.5939C122.684 24.5327 122.613 24.4836 122.535 24.4496C122.457 24.4156 122.374 24.3973 122.289 24.3957H115.509V13.3859C115.509 13.1978 115.434 13.0175 115.301 12.8845C115.168 12.7515 114.988 12.6768 114.8 12.6768" fill="#717171"/>
<path d="M127.787 13.3858C127.787 13.1912 127.864 13.0045 128.002 12.8668C128.14 12.7292 128.326 12.6519 128.521 12.6519C128.716 12.6519 128.902 12.7292 129.04 12.8668C129.178 13.0045 129.255 13.1912 129.255 13.3858V24.3707H135.985C136.165 24.374 136.335 24.4475 136.461 24.5754C136.587 24.7034 136.657 24.8756 136.657 25.0549C136.657 25.1431 136.64 25.2305 136.606 25.312C136.572 25.3935 136.523 25.4676 136.46 25.5299C136.398 25.5923 136.324 25.6418 136.242 25.6756C136.161 25.7093 136.074 25.7267 135.985 25.7267H128.521C128.327 25.7202 128.144 25.6388 128.009 25.4995C127.875 25.3602 127.799 25.174 127.8 24.9803L127.787 13.3858Z" fill="#717171"/>
<path d="M135.986 25.7516H128.522C128.422 25.7499 128.324 25.7287 128.232 25.6891C128.141 25.6494 128.058 25.5921 127.989 25.5205C127.92 25.4489 127.865 25.3643 127.828 25.2716C127.792 25.1789 127.774 25.0799 127.775 24.9803V13.3858C127.774 13.2861 127.792 13.1871 127.828 13.0944C127.865 13.0017 127.92 12.9172 127.989 12.8455C128.058 12.7739 128.141 12.7166 128.232 12.677C128.324 12.6374 128.422 12.6161 128.522 12.6145C128.726 12.6145 128.923 12.6958 129.067 12.8404C129.212 12.9851 129.293 13.1812 129.293 13.3858V24.3458H135.999C136.184 24.3491 136.362 24.4252 136.492 24.5578C136.622 24.6905 136.695 24.869 136.695 25.0549C136.695 25.2397 136.622 25.4169 136.491 25.5475C136.361 25.6782 136.183 25.7516 135.999 25.7516H135.986ZM128.534 12.6767C128.348 12.68 128.171 12.7561 128.041 12.8887C127.911 13.0214 127.838 13.1999 127.838 13.3858V24.9803C127.838 25.1674 127.91 25.3472 128.04 25.4819C128.17 25.6165 128.347 25.6953 128.534 25.7018H135.999C136.17 25.7018 136.335 25.6336 136.456 25.5123C136.577 25.391 136.645 25.2265 136.645 25.0549C136.647 24.9689 136.632 24.8834 136.6 24.8035C136.568 24.7236 136.521 24.6508 136.46 24.5894C136.4 24.528 136.328 24.4792 136.249 24.446C136.17 24.4127 136.085 24.3955 135.999 24.3956H129.231V13.3858C129.233 13.2922 129.216 13.1993 129.18 13.1125C129.145 13.0257 129.093 12.9468 129.027 12.8806C128.961 12.8145 128.882 12.7623 128.795 12.7272C128.708 12.6922 128.615 12.675 128.522 12.6767" fill="#717171"/>
<path d="M140.701 24.7565L145.976 13.2367C146.04 13.0445 146.163 12.8779 146.329 12.7614C146.495 12.645 146.694 12.5848 146.896 12.5898H146.971C147.172 12.5835 147.37 12.6433 147.534 12.7601C147.698 12.877 147.819 13.0444 147.879 13.2367L153.154 24.7441C153.214 24.8596 153.248 24.9871 153.253 25.1173C153.25 25.3044 153.174 25.4829 153.042 25.6152C152.91 25.7475 152.731 25.8232 152.544 25.8264C152.383 25.8176 152.228 25.7607 152.1 25.6632C151.971 25.5656 151.875 25.4318 151.823 25.279L150.529 22.2933H143.4L142.044 25.3163C141.997 25.4661 141.902 25.5965 141.774 25.6883C141.646 25.7802 141.493 25.8286 141.335 25.8264C141.159 25.8231 140.992 25.7509 140.868 25.6253C140.745 25.4997 140.676 25.3306 140.676 25.1546C140.673 25.0168 140.703 24.8803 140.763 24.7565H140.701ZM149.957 21.0244L146.958 14.3812L143.973 21.0244H149.957Z" fill="#717171"/>
<path d="M152.544 25.8511C152.377 25.8464 152.215 25.79 152.082 25.6897C151.948 25.5895 151.849 25.4503 151.797 25.2913L150.441 22.3181H143.35L142.007 25.3286C141.955 25.4817 141.856 25.6144 141.724 25.7082C141.592 25.802 141.434 25.852 141.273 25.8511C141.088 25.8511 140.911 25.7777 140.78 25.6471C140.65 25.5164 140.576 25.3392 140.576 25.1545C140.578 25.0119 140.612 24.8715 140.676 24.7439L145.95 13.2241C146.017 13.0276 146.144 12.8575 146.315 12.7389C146.485 12.6202 146.689 12.5592 146.896 12.5648H146.971C147.178 12.5592 147.382 12.6202 147.552 12.7389C147.722 12.8575 147.85 13.0276 147.916 13.2241L153.178 24.7315C153.236 24.8524 153.27 24.9834 153.278 25.1172C153.275 25.3108 153.196 25.4957 153.059 25.6326C152.922 25.7696 152.738 25.8479 152.544 25.8511ZM143.313 22.2683H150.528L151.884 25.254C151.934 25.4011 152.028 25.5297 152.152 25.623C152.276 25.7162 152.426 25.7697 152.581 25.7765C152.759 25.7765 152.93 25.7057 153.056 25.5797C153.182 25.4538 153.253 25.2829 153.253 25.1047C153.25 24.9797 153.22 24.8567 153.166 24.7439L147.891 13.2366C147.836 13.0475 147.719 12.8823 147.559 12.7673C147.399 12.6523 147.205 12.5942 147.008 12.6021H146.933C146.736 12.5997 146.543 12.6597 146.382 12.7737C146.221 12.8877 146.101 13.0497 146.038 13.2366L140.763 24.7564C140.703 24.8761 140.673 25.0084 140.676 25.142C140.676 25.2254 140.692 25.3079 140.724 25.3848C140.756 25.4618 140.803 25.5318 140.862 25.5907C140.92 25.6496 140.99 25.6963 141.067 25.7282C141.144 25.7601 141.227 25.7765 141.31 25.7765C141.461 25.7809 141.61 25.736 141.733 25.6484C141.857 25.5609 141.949 25.4355 141.994 25.2913L143.313 22.2683ZM149.931 21.0243H143.873L146.883 14.3189L149.931 21.0243ZM143.96 20.9621H149.844L146.896 14.4184L143.96 20.9621Z" fill="#717171"/>
<path d="M158.279 13.3983C158.282 13.208 158.36 13.0263 158.494 12.8917C158.629 12.757 158.81 12.68 159.001 12.6768H159.237C159.388 12.6805 159.536 12.7224 159.666 12.7985C159.797 12.8747 159.906 12.9826 159.984 13.1122L167.871 23.164V13.361C167.857 13.2592 167.866 13.1556 167.896 13.0573C167.925 12.9589 167.976 12.8681 168.044 12.7909C168.111 12.7136 168.195 12.6517 168.288 12.6093C168.382 12.5669 168.483 12.5449 168.586 12.5449C168.689 12.5449 168.79 12.5669 168.884 12.6093C168.978 12.6517 169.061 12.7136 169.129 12.7909C169.196 12.8681 169.247 12.9589 169.277 13.0573C169.306 13.1556 169.315 13.2592 169.301 13.361V25.0923C169.307 25.183 169.293 25.2738 169.261 25.359C169.23 25.4442 169.181 25.522 169.118 25.5874C169.055 25.6528 168.979 25.7045 168.895 25.7392C168.811 25.7739 168.721 25.7908 168.63 25.789H168.555C168.403 25.7767 168.256 25.73 168.124 25.6524C167.993 25.5748 167.88 25.4684 167.796 25.3411L159.747 15.0405V25.0923C159.747 25.287 159.67 25.4736 159.532 25.6113C159.395 25.7489 159.208 25.8263 159.013 25.8263C158.824 25.8198 158.645 25.7392 158.515 25.6019C158.384 25.4646 158.313 25.2816 158.317 25.0923L158.279 13.3983Z" fill="#717171"/>
<path d="M158.976 25.8511C158.78 25.8416 158.595 25.7578 158.459 25.6169C158.323 25.4759 158.245 25.2883 158.242 25.0922V13.3982C158.249 13.2001 158.331 13.0121 158.472 12.8731C158.614 12.7341 158.803 12.6549 159.001 12.6518H159.237C159.392 12.6559 159.543 12.6977 159.677 12.7736C159.812 12.8495 159.925 12.9572 160.009 13.0872L167.846 23.0395V13.3609C167.832 13.2556 167.841 13.1487 167.872 13.0471C167.903 12.9456 167.956 12.8518 168.026 12.7721C168.096 12.6924 168.182 12.6285 168.279 12.5847C168.375 12.5409 168.48 12.5183 168.586 12.5183C168.693 12.5183 168.797 12.5409 168.894 12.5847C168.991 12.6285 169.077 12.6924 169.147 12.7721C169.217 12.8518 169.269 12.9456 169.3 13.0471C169.331 13.1487 169.34 13.2556 169.327 13.3609V25.0922C169.33 25.1857 169.314 25.279 169.281 25.3664C169.247 25.4538 169.197 25.5336 169.132 25.601C169.067 25.6683 168.989 25.7219 168.902 25.7584C168.816 25.795 168.724 25.8138 168.63 25.8137H168.555C168.399 25.7984 168.248 25.7493 168.113 25.6698C167.977 25.5904 167.861 25.4824 167.772 25.3534L159.772 15.115V25.0673C159.772 25.2686 159.692 25.4616 159.55 25.6039C159.408 25.7462 159.215 25.8262 159.013 25.8262L158.976 25.8511ZM159.013 12.6891C158.831 12.6891 158.656 12.7608 158.525 12.8887C158.395 13.0167 158.32 13.1907 158.317 13.3733V25.0673C158.317 25.2488 158.389 25.4228 158.517 25.5511C158.646 25.6794 158.82 25.7515 159.001 25.7515C159.183 25.7515 159.357 25.6794 159.485 25.5511C159.613 25.4228 159.685 25.2488 159.685 25.0673V14.9284L167.796 25.2912C167.877 25.4149 167.986 25.5185 168.113 25.594C168.24 25.6694 168.383 25.7148 168.53 25.7266H168.605C168.692 25.7284 168.777 25.7125 168.858 25.6798C168.938 25.6471 169.01 25.5984 169.071 25.5367C169.131 25.4749 169.179 25.4014 169.21 25.3207C169.241 25.24 169.255 25.1538 169.252 25.0673V13.3609C169.229 13.1937 169.147 13.0404 169.02 12.9294C168.893 12.8183 168.73 12.7571 168.561 12.7571C168.393 12.7571 168.23 12.8183 168.103 12.9294C167.976 13.0404 167.894 13.1937 167.871 13.3609V23.3132V23.251L159.984 13.1867C159.908 13.0629 159.802 12.9602 159.676 12.8884C159.55 12.8166 159.407 12.778 159.262 12.7762L159.013 12.6891Z" fill="#717171"/>
<path d="M175.16 13.473C175.163 13.2815 175.24 13.0984 175.374 12.9618C175.508 12.8252 175.69 12.7454 175.882 12.7391H179.676C180.562 12.6758 181.452 12.7959 182.29 13.0918C183.128 13.3877 183.896 13.853 184.546 14.4588C185.196 15.0646 185.715 15.7978 186.069 16.6128C186.423 17.4278 186.606 18.307 186.605 19.1956C186.605 20.0835 186.424 20.9621 186.071 21.7771C185.719 22.5921 185.203 23.3264 184.557 23.9348C183.91 24.5431 183.145 25.0126 182.31 25.3144C181.475 25.6162 180.587 25.7438 179.701 25.6895H175.907C175.713 25.683 175.529 25.6016 175.395 25.4623C175.26 25.323 175.185 25.1368 175.185 24.9431L175.16 13.473ZM179.676 24.3708C180.373 24.427 181.074 24.3358 181.733 24.1031C182.392 23.8703 182.995 23.5014 183.502 23.0201C184.009 22.5389 184.409 21.9563 184.675 21.3102C184.942 20.6641 185.07 19.969 185.05 19.2703C185.064 18.5716 184.932 17.8777 184.664 17.2325C184.395 16.5873 183.996 16.0048 183.491 15.5219C182.986 15.039 182.386 14.6662 181.729 14.427C181.072 14.1878 180.373 14.0875 179.676 14.1324H176.653V24.4081L179.676 24.3708Z" fill="#717171"/>
<path d="M179.676 25.7516H175.882C175.682 25.7452 175.492 25.6611 175.353 25.5171C175.213 25.3732 175.136 25.1807 175.136 24.9803V13.473C175.139 13.2748 175.218 13.0854 175.357 12.9441C175.496 12.8029 175.684 12.7205 175.882 12.7141H179.676C183.695 12.7141 186.606 15.4386 186.606 19.1956C186.616 20.0593 186.45 20.9162 186.119 21.7139C185.787 22.5116 185.297 23.2335 184.678 23.8358C183.323 25.0794 181.54 25.7523 179.701 25.7143L179.676 25.7516ZM175.907 12.7266C175.723 12.733 175.549 12.8105 175.422 12.9428C175.294 13.0751 175.223 13.2518 175.223 13.4357V24.943C175.219 25.129 175.289 25.3088 175.417 25.4438C175.545 25.5788 175.721 25.6581 175.907 25.6646H179.701C181.538 25.7047 183.32 25.0365 184.678 23.7985C185.289 23.1998 185.774 22.4832 186.101 21.692C186.428 20.9009 186.591 20.0516 186.581 19.1956C186.583 18.313 186.403 17.4395 186.053 16.6294C185.703 15.8192 185.19 15.0898 184.546 14.4865C183.902 13.8832 183.14 13.419 182.309 13.1226C181.478 12.8262 180.594 12.7041 179.714 12.7639L175.907 12.7266ZM179.701 24.3583H176.653V14.0577H179.726C180.451 14.0351 181.172 14.1565 181.849 14.4149C182.526 14.6733 183.145 15.0635 183.67 15.563C184.154 16.0536 184.534 16.6372 184.786 17.2787C185.038 17.9201 185.158 18.6061 185.138 19.2951C185.152 19.9966 185.019 20.6934 184.748 21.3407C184.478 21.988 184.075 22.5716 183.565 23.0541C183.056 23.5366 182.451 23.9074 181.79 24.1427C181.129 24.378 180.426 24.4726 179.726 24.4205L179.701 24.3583ZM176.703 24.4205H179.726C180.419 24.4728 181.115 24.3795 181.769 24.1466C182.424 23.9137 183.022 23.5464 183.526 23.0683C184.03 22.5902 184.428 22.0119 184.695 21.3706C184.962 20.7293 185.091 20.0393 185.076 19.3448C185.091 18.6724 184.97 18.0038 184.72 17.3795C184.47 16.7551 184.096 16.1879 183.62 15.7122C183.102 15.2188 182.491 14.8336 181.822 14.5794C181.154 14.3252 180.441 14.207 179.726 14.2318H176.653L176.703 24.4205Z" fill="#717171"/>
<path d="M79.7432 33.1038C79.7431 32.9101 79.8183 32.7239 79.9529 32.5846C80.0876 32.4454 80.2711 32.3639 80.4647 32.3574H88.5012C88.6794 32.3574 88.8502 32.4282 88.9762 32.5542C89.1022 32.6802 89.173 32.851 89.173 33.0292C89.173 33.2085 89.1026 33.3807 88.977 33.5087C88.8513 33.6366 88.6805 33.7102 88.5012 33.7134H81.2111V38.3537H87.6677C87.7553 38.3537 87.8421 38.3711 87.9229 38.405C88.0037 38.439 88.077 38.4886 88.1384 38.5512C88.1998 38.6137 88.2481 38.6879 88.2804 38.7693C88.3128 38.8508 88.3287 38.9378 88.327 39.0255C88.3287 39.1125 88.3128 39.199 88.2803 39.2798C88.2477 39.3605 88.1992 39.4339 88.1377 39.4955C88.0761 39.557 88.0027 39.6055 87.922 39.6381C87.8412 39.6706 87.7547 39.6865 87.6677 39.6848H81.2111V44.661C81.2111 44.8556 81.1338 45.0423 80.9962 45.18C80.8585 45.3176 80.6718 45.395 80.4772 45.395C80.2825 45.395 80.0958 45.3176 79.9581 45.18C79.8205 45.0423 79.7432 44.8556 79.7432 44.661V33.1038Z" fill="#717171"/>
<path d="M80.4649 45.4696C80.2625 45.4663 80.0695 45.3836 79.9276 45.2393C79.7856 45.095 79.706 44.9007 79.7061 44.6983V33.1038C79.706 32.9014 79.7856 32.7071 79.9276 32.5628C80.0695 32.4185 80.2625 32.3358 80.4649 32.3325H88.5014C88.6717 32.3552 88.828 32.439 88.9412 32.5683C89.0544 32.6976 89.1168 32.8636 89.1168 33.0354C89.1168 33.2072 89.0544 33.3732 88.9412 33.5025C88.828 33.6318 88.6717 33.7156 88.5014 33.7383H81.2362V38.3288H87.6679C87.8527 38.3288 88.0299 38.4022 88.1605 38.5328C88.2912 38.6635 88.3646 38.8407 88.3646 39.0255C88.3646 39.2102 88.2912 39.3874 88.1605 39.5181C88.0299 39.6487 87.8527 39.7221 87.6679 39.7221H81.2362V44.6983C81.2362 44.9028 81.155 45.099 81.0103 45.2437C80.8657 45.3883 80.6695 45.4696 80.4649 45.4696ZM80.4649 32.3947C80.279 32.398 80.1018 32.4741 79.9715 32.6068C79.8412 32.7394 79.7682 32.9179 79.7683 33.1038V44.6983C79.7681 44.8854 79.8407 45.0653 79.9707 45.1999C80.1007 45.3345 80.2779 45.4134 80.4649 45.4198C80.5591 45.4198 80.6523 45.4011 80.7392 45.3647C80.826 45.3283 80.9048 45.2749 80.9708 45.2077C81.0368 45.1406 81.0888 45.0609 81.1237 44.9735C81.1586 44.886 81.1757 44.7924 81.174 44.6983V39.6599H87.6679C87.8031 39.6213 87.922 39.5397 88.0067 39.4275C88.0913 39.3152 88.1371 39.1785 88.1371 39.0379C88.1371 38.8973 88.0913 38.7605 88.0067 38.6483C87.922 38.5361 87.8031 38.4545 87.6679 38.4159H81.174V33.6885H88.5014C88.5864 33.6869 88.6702 33.6686 88.748 33.6346C88.8259 33.6005 88.8963 33.5515 88.9552 33.4903C89.0142 33.4291 89.0604 33.3568 89.0914 33.2777C89.1224 33.1986 89.1375 33.1141 89.1359 33.0292C89.1359 32.8609 89.069 32.6995 88.95 32.5805C88.8311 32.4616 88.6697 32.3947 88.5014 32.3947H80.4649Z" fill="#717171"/>
<path d="M94.2734 33.0045C94.2734 32.8098 94.3508 32.6231 94.4884 32.4855C94.6261 32.3478 94.8128 32.2705 95.0074 32.2705C95.2021 32.2705 95.3888 32.3478 95.5264 32.4855C95.6641 32.6231 95.7414 32.8098 95.7414 33.0045V44.6985C95.7414 44.8931 95.6641 45.0798 95.5264 45.2175C95.3888 45.3551 95.2021 45.4324 95.0074 45.4324C94.8128 45.4324 94.6261 45.3551 94.4884 45.2175C94.3508 45.0798 94.2734 44.8931 94.2734 44.6985V33.0045Z" fill="#717171"/>
<path d="M94.9946 45.4696C94.7922 45.4663 94.5992 45.3836 94.4572 45.2393C94.3152 45.095 94.2357 44.9007 94.2357 44.6983V33.0043C94.2218 32.8957 94.2313 32.7853 94.2634 32.6806C94.2954 32.5758 94.3495 32.4791 94.4219 32.3969C94.4943 32.3147 94.5833 32.2488 94.6831 32.2037C94.783 32.1586 94.8912 32.1353 95.0008 32.1353C95.1103 32.1353 95.2186 32.1586 95.3184 32.2037C95.4183 32.2488 95.5073 32.3147 95.5797 32.3969C95.6521 32.4791 95.7061 32.5758 95.7382 32.6806C95.7703 32.7853 95.7798 32.8957 95.7659 33.0043V44.6983C95.7659 44.9028 95.6846 45.099 95.54 45.2437C95.3953 45.3883 95.1991 45.4696 94.9946 45.4696ZM94.9946 32.2952C94.8087 32.2985 94.6315 32.3746 94.5012 32.5073C94.3709 32.6399 94.2979 32.8184 94.2979 33.0043V44.6983C94.2978 44.8854 94.3704 45.0653 94.5004 45.1999C94.6304 45.3345 94.8076 45.4134 94.9946 45.4198C95.0887 45.4198 95.182 45.4011 95.2688 45.3647C95.3557 45.3283 95.4344 45.2749 95.5004 45.2078C95.5664 45.1406 95.6184 45.0609 95.6533 44.9735C95.6882 44.886 95.7053 44.7924 95.7037 44.6983V33.0043C95.7037 32.9112 95.6853 32.819 95.6497 32.733C95.6141 32.6469 95.5618 32.5688 95.496 32.5029C95.4301 32.4371 95.352 32.3848 95.2659 32.3492C95.1799 32.3136 95.0877 32.2952 94.9946 32.2952Z" fill="#717171"/>
<path d="M101.763 33.0292C101.769 32.8377 101.849 32.656 101.985 32.5217C102.122 32.3874 102.305 32.3107 102.497 32.3076H102.696C102.845 32.3112 102.992 32.3516 103.122 32.4254C103.252 32.4992 103.362 32.6041 103.442 32.7306L111.329 42.7949V32.9919C111.316 32.89 111.324 32.7865 111.354 32.6881C111.384 32.5898 111.434 32.499 111.502 32.4217C111.57 32.3445 111.653 32.2825 111.747 32.2401C111.84 32.1977 111.942 32.1758 112.045 32.1758C112.147 32.1758 112.249 32.1977 112.343 32.2401C112.436 32.2825 112.52 32.3445 112.587 32.4217C112.655 32.499 112.705 32.5898 112.735 32.6881C112.765 32.7865 112.773 32.89 112.76 32.9919V44.7853C112.763 44.8751 112.748 44.9645 112.716 45.0483C112.684 45.132 112.635 45.2082 112.572 45.2723C112.509 45.3363 112.433 45.3869 112.35 45.4208C112.267 45.4547 112.178 45.4713 112.088 45.4696H111.964C111.812 45.4573 111.664 45.4106 111.533 45.333C111.401 45.2554 111.289 45.149 111.205 45.0217L103.256 34.6589V44.7853C103.269 44.8872 103.261 44.9908 103.231 45.0891C103.201 45.1874 103.151 45.2782 103.083 45.3555C103.015 45.4328 102.932 45.4947 102.838 45.5371C102.745 45.5795 102.643 45.6014 102.54 45.6014C102.437 45.6014 102.336 45.5795 102.242 45.5371C102.149 45.4947 102.065 45.4328 101.998 45.3555C101.93 45.2782 101.879 45.1874 101.85 45.0891C101.82 44.9908 101.811 44.8872 101.825 44.7853L101.763 33.0292Z" fill="#717171"/>
<path d="M102.472 45.4695C102.276 45.4662 102.09 45.3861 101.952 45.2465C101.815 45.1069 101.738 44.9189 101.738 44.7231V33.0291C101.741 32.8288 101.822 32.6377 101.964 32.496C102.106 32.3544 102.297 32.2734 102.497 32.2702H102.696C102.85 32.2755 103 32.3192 103.133 32.3975C103.265 32.4757 103.376 32.5859 103.455 32.7181L111.292 42.6704V32.9918C111.296 32.7915 111.377 32.6003 111.518 32.4587C111.66 32.3171 111.851 32.2361 112.051 32.2329C112.248 32.2394 112.435 32.3222 112.572 32.4638C112.709 32.6054 112.785 32.7947 112.785 32.9918V44.7853C112.789 44.8782 112.773 44.9709 112.739 45.0577C112.706 45.1444 112.655 45.2234 112.59 45.2898C112.524 45.3562 112.446 45.4085 112.36 45.4437C112.274 45.4789 112.182 45.4961 112.089 45.4944H111.964C111.808 45.4849 111.656 45.4395 111.52 45.3618C111.384 45.2842 111.268 45.1763 111.181 45.0465L103.256 34.7459V44.6982C103.253 44.8973 103.171 45.0871 103.029 45.2268C102.887 45.3664 102.696 45.4446 102.497 45.4446L102.472 45.4695ZM102.497 32.3076C102.313 32.3107 102.138 32.3852 102.008 32.5151C101.878 32.6451 101.804 32.8204 101.8 33.0042V44.7853C101.8 44.8751 101.818 44.9641 101.853 45.0471C101.887 45.1301 101.937 45.2055 102.001 45.2691C102.064 45.3326 102.14 45.383 102.223 45.4174C102.306 45.4518 102.395 45.4695 102.485 45.4695C102.575 45.4695 102.664 45.4518 102.747 45.4174C102.83 45.383 102.905 45.3326 102.969 45.2691C103.032 45.2055 103.082 45.1301 103.117 45.0471C103.151 44.9641 103.169 44.8751 103.169 44.7853V34.5841L111.28 44.947C111.361 45.0707 111.469 45.1743 111.597 45.2497C111.724 45.3252 111.867 45.3706 112.014 45.3824H112.089C112.175 45.3843 112.26 45.3683 112.34 45.3355C112.419 45.3027 112.491 45.2538 112.55 45.1918C112.61 45.1299 112.656 45.0562 112.686 44.9755C112.716 44.8949 112.728 44.8089 112.723 44.7231V32.9918C112.723 32.8103 112.651 32.6363 112.523 32.508C112.394 32.3796 112.22 32.3076 112.039 32.3076C111.857 32.3076 111.683 32.3796 111.555 32.508C111.427 32.6363 111.355 32.8103 111.355 32.9918V42.8694V42.8072L103.467 32.743C103.39 32.6206 103.284 32.5192 103.158 32.4477C103.032 32.3761 102.891 32.3365 102.746 32.3324L102.497 32.3076Z" fill="#717171"/>
<path d="M122.09 33.7134H118.358C118.179 33.7135 118.007 33.6431 117.879 33.5174C117.751 33.3918 117.677 33.2209 117.674 33.0416C117.677 32.8612 117.75 32.689 117.878 32.5614C118.005 32.4337 118.178 32.3606 118.358 32.3574H127.377C127.558 32.3606 127.73 32.4337 127.858 32.5614C127.985 32.689 128.058 32.8612 128.062 33.0416C128.058 33.2209 127.985 33.3918 127.857 33.5174C127.729 33.6431 127.557 33.7135 127.377 33.7134H123.645V44.6983C123.659 44.8036 123.65 44.9105 123.619 45.012C123.588 45.1136 123.536 45.2073 123.466 45.2871C123.396 45.3668 123.309 45.4307 123.213 45.4745C123.116 45.5182 123.011 45.5409 122.905 45.5409C122.799 45.5409 122.694 45.5182 122.597 45.4745C122.501 45.4307 122.414 45.3668 122.344 45.2871C122.274 45.2073 122.222 45.1136 122.191 45.012C122.16 44.9105 122.151 44.8036 122.165 44.6983L122.09 33.7134Z" fill="#717171"/>
<path d="M122.837 45.4696C122.632 45.4696 122.436 45.3883 122.291 45.2437C122.147 45.099 122.065 44.9028 122.065 44.6983V33.7383H118.333C118.241 33.7399 118.149 33.7231 118.063 33.6889C117.977 33.6546 117.898 33.6035 117.832 33.5387C117.766 33.4738 117.714 33.3965 117.678 33.3111C117.642 33.2258 117.624 33.1342 117.624 33.0416C117.627 32.8546 117.703 32.676 117.835 32.5437C117.968 32.4115 118.146 32.3357 118.333 32.3325H127.352C127.541 32.3356 127.721 32.4109 127.855 32.5429C127.989 32.6749 128.068 32.8534 128.074 33.0416C128.072 33.1347 128.052 33.2266 128.015 33.3121C127.978 33.3975 127.925 33.4747 127.858 33.5394C127.79 33.6041 127.711 33.655 127.625 33.6891C127.538 33.7232 127.446 33.7399 127.352 33.7383H123.62V44.6983C123.62 44.9028 123.539 45.099 123.394 45.2437C123.25 45.3883 123.054 45.4696 122.849 45.4696H122.837ZM118.321 32.345C118.148 32.3449 117.982 32.4127 117.859 32.5337C117.736 32.6546 117.665 32.8192 117.661 32.9919C117.661 33.0779 117.678 33.163 117.712 33.2423C117.745 33.3216 117.794 33.3935 117.855 33.4537C117.917 33.514 117.989 33.5614 118.069 33.5931C118.149 33.6249 118.235 33.6404 118.321 33.6388H122.053V44.6485C122.039 44.7504 122.048 44.8539 122.078 44.9522C122.107 45.0506 122.158 45.1414 122.226 45.2187C122.293 45.2959 122.377 45.3578 122.47 45.4002C122.564 45.4426 122.665 45.4646 122.768 45.4646C122.871 45.4646 122.972 45.4426 123.066 45.4002C123.16 45.3578 123.243 45.2959 123.311 45.2187C123.378 45.1414 123.429 45.0506 123.459 44.9522C123.488 44.8539 123.497 44.7504 123.483 44.6485V33.6885H127.216C127.302 33.6902 127.387 33.6747 127.467 33.6429C127.547 33.6111 127.62 33.5637 127.681 33.5035C127.742 33.4433 127.791 33.3714 127.825 33.2921C127.858 33.2128 127.875 33.1276 127.875 33.0416C127.872 32.8689 127.801 32.7044 127.677 32.5834C127.554 32.4624 127.388 32.3947 127.216 32.3947L118.321 32.345Z" fill="#717171"/>
<path d="M132.913 44.6112V33.1038C132.912 33.0075 132.929 32.9117 132.964 32.822C133 32.7323 133.052 32.6505 133.119 32.5812C133.186 32.5119 133.266 32.4564 133.355 32.418C133.443 32.3796 133.538 32.359 133.635 32.3574H141.709C141.887 32.3574 142.058 32.4282 142.184 32.5542C142.31 32.6802 142.38 32.851 142.38 33.0292C142.38 33.2074 142.31 33.3782 142.184 33.5042C142.058 33.6302 141.887 33.701 141.709 33.701H134.356V38.1298H140.863C141.038 38.1361 141.203 38.2093 141.326 38.3343C141.449 38.4592 141.519 38.6265 141.522 38.8015C141.522 38.9776 141.453 39.1466 141.33 39.2722C141.206 39.3979 141.039 39.4701 140.863 39.4733H134.356V44.0141H141.821C141.999 44.0141 142.17 44.0848 142.296 44.2108C142.422 44.3368 142.492 44.5077 142.492 44.6858C142.492 44.7735 142.475 44.8603 142.441 44.9411C142.407 45.0219 142.357 45.0951 142.295 45.1565C142.232 45.2179 142.158 45.2662 142.077 45.2986C141.995 45.331 141.908 45.3468 141.821 45.3452H133.66C133.564 45.3452 133.469 45.3261 133.381 45.2891C133.292 45.2521 133.212 45.1978 133.145 45.1295C133.078 45.0612 133.025 44.9801 132.989 44.8912C132.954 44.8022 132.936 44.707 132.938 44.6112" fill="#717171"/>
<path d="M141.82 45.3825H133.659C133.458 45.3761 133.267 45.2924 133.125 45.1488C132.984 45.0052 132.903 44.8126 132.9 44.6112V33.1038C132.9 32.9014 132.98 32.7071 133.122 32.5628C133.264 32.4185 133.457 32.3358 133.659 32.3325H141.733C141.918 32.3325 142.095 32.4059 142.226 32.5366C142.356 32.6672 142.43 32.8444 142.43 33.0292C142.43 33.2139 142.356 33.3911 142.226 33.5218C142.095 33.6524 141.918 33.7258 141.733 33.7258H134.356V38.1049H140.825C141.009 38.1081 141.184 38.1825 141.314 38.3124C141.444 38.4424 141.518 38.6178 141.522 38.8015C141.518 38.9853 141.444 39.1606 141.314 39.2906C141.184 39.4206 141.009 39.495 140.825 39.4982H134.356V43.9892H141.82C142.005 43.9892 142.182 44.0626 142.313 44.1932C142.443 44.3239 142.517 44.5011 142.517 44.6858C142.517 44.8706 142.443 45.0478 142.313 45.1784C142.182 45.3091 142.005 45.3825 141.82 45.3825ZM133.634 32.345C133.448 32.3482 133.271 32.4244 133.141 32.557C133.011 32.6896 132.938 32.8681 132.938 33.0541V44.5614C132.938 44.7474 133.011 44.9259 133.141 45.0585C133.271 45.1911 133.448 45.2673 133.634 45.2705H141.82C141.916 45.298 142.018 45.3028 142.116 45.2845C142.215 45.2662 142.307 45.2252 142.387 45.1649C142.467 45.1047 142.532 45.0266 142.577 44.937C142.621 44.8474 142.645 44.7486 142.645 44.6485C142.645 44.5484 142.621 44.4496 142.577 44.36C142.532 44.2704 142.467 44.1924 142.387 44.1321C142.307 44.0718 142.215 44.0308 142.116 44.0125C142.018 43.9942 141.916 43.999 141.82 44.0265H134.356V39.436H140.887C140.97 39.436 141.053 39.4196 141.13 39.3877C141.207 39.3558 141.277 39.3091 141.336 39.2502C141.395 39.1912 141.441 39.1213 141.473 39.0443C141.505 38.9673 141.522 38.8848 141.522 38.8015C141.519 38.633 141.451 38.4721 141.333 38.3518C141.215 38.2315 141.056 38.161 140.887 38.1546H134.356V33.6636H141.721C141.813 33.6821 141.908 33.68 141.999 33.6573C142.09 33.6346 142.175 33.592 142.248 33.5325C142.32 33.473 142.379 33.3981 142.419 33.3132C142.459 33.2283 142.48 33.1355 142.48 33.0416C142.48 32.9477 142.459 32.855 142.419 32.7701C142.379 32.6852 142.32 32.6103 142.248 32.5508C142.175 32.4913 142.09 32.4486 141.999 32.4259C141.908 32.4033 141.813 32.4011 141.721 32.4196L133.634 32.345Z" fill="#717171"/>
<path d="M146.996 38.8887C146.972 38.0127 147.125 37.141 147.445 36.3252C147.765 35.5094 148.246 34.7662 148.858 34.1397C149.471 33.5131 150.203 33.016 151.011 32.6778C151.82 32.3396 152.688 32.1672 153.564 32.1709C155.269 32.1301 156.926 32.7344 158.204 33.8628C158.293 33.9358 158.366 34.0268 158.417 34.1296C158.469 34.2325 158.498 34.345 158.503 34.4599C158.494 34.6525 158.411 34.8343 158.273 34.9683C158.134 35.1023 157.949 35.1785 157.757 35.1815C157.583 35.1758 157.414 35.1196 157.271 35.0197C156.273 34.049 154.932 33.5124 153.539 33.5269C152.86 33.5411 152.191 33.6911 151.571 33.9681C150.951 34.2451 150.392 34.6435 149.928 35.1397C149.465 35.6359 149.105 36.22 148.87 36.8575C148.636 37.4949 148.531 38.1729 148.563 38.8514C148.531 39.5323 148.636 40.2127 148.87 40.853C149.103 41.4933 149.462 42.0806 149.925 42.5808C150.389 43.081 150.947 43.484 151.567 43.7664C152.188 44.0488 152.858 44.2049 153.539 44.2256C154.257 44.2354 154.97 44.1005 155.634 43.8291C156.299 43.5577 156.902 43.1552 157.408 42.6457C157.528 42.5178 157.693 42.4419 157.869 42.4342C158.055 42.4404 158.231 42.5171 158.363 42.6488C158.495 42.7804 158.571 42.9572 158.578 43.1433C158.577 43.2433 158.554 43.3419 158.511 43.4321C158.468 43.5224 158.406 43.6022 158.329 43.6658C157.693 44.2907 156.938 44.7812 156.109 45.1082C155.28 45.4352 154.393 45.592 153.502 45.5692C152.631 45.5747 151.768 45.4043 150.965 45.0683C150.162 44.7323 149.434 44.2376 148.827 43.6138C148.219 42.99 147.744 42.2499 147.429 41.438C147.115 40.6261 146.967 39.759 146.996 38.8887Z" fill="#717171"/>
<path d="M153.502 45.6065C152.63 45.6155 151.766 45.4469 150.962 45.1111C150.158 44.7754 149.431 44.2793 148.824 43.6533C147.608 42.3669 146.939 40.6587 146.958 38.8886C146.946 37.1236 147.615 35.4218 148.824 34.1364C149.437 33.4989 150.173 32.9935 150.988 32.6512C151.804 32.3089 152.68 32.1369 153.564 32.146C155.273 32.102 156.935 32.7065 158.217 33.8379C158.31 33.913 158.387 34.0075 158.44 34.1149C158.494 34.2222 158.524 34.3399 158.528 34.4599C158.518 34.6591 158.433 34.8472 158.29 34.9858C158.147 35.1245 157.956 35.2034 157.756 35.2063C157.577 35.1987 157.404 35.1381 157.259 35.0321C156.256 34.0694 154.917 33.5379 153.527 33.5517C152.857 33.5487 152.195 33.6841 151.58 33.9496C150.966 34.2151 150.413 34.6048 149.956 35.0943C149.024 36.1122 148.513 37.4461 148.526 38.8264C148.505 40.229 149.021 41.5863 149.969 42.6208C150.422 43.1111 150.973 43.5016 151.585 43.7672C152.198 44.0328 152.859 44.1677 153.527 44.1634C154.24 44.1764 154.949 44.0442 155.61 43.7747C156.271 43.5052 156.87 43.1042 157.371 42.5959C157.498 42.4643 157.673 42.3883 157.856 42.3844C158.049 42.3906 158.232 42.4699 158.368 42.6063C158.504 42.7426 158.584 42.9257 158.59 43.1184C158.589 43.22 158.566 43.3202 158.523 43.4124C158.48 43.5046 158.418 43.5867 158.341 43.6533C157.705 44.2857 156.947 44.7826 156.113 45.114C155.279 45.4455 154.386 45.6045 153.489 45.5816L153.502 45.6065ZM153.489 32.146C152.613 32.1366 151.744 32.3061 150.936 32.6441C150.127 32.9821 149.396 33.4814 148.787 34.1115C147.591 35.3887 146.932 37.0768 146.946 38.8264C146.925 40.5811 147.585 42.2757 148.787 43.5538C149.39 44.1725 150.112 44.6624 150.909 44.9938C151.707 45.3253 152.564 45.4914 153.427 45.4821C154.316 45.5039 155.201 45.3466 156.028 45.0196C156.855 44.6926 157.608 44.2026 158.242 43.5787C158.311 43.5155 158.367 43.4388 158.405 43.3532C158.444 43.2675 158.464 43.1749 158.466 43.0811C158.457 42.9058 158.383 42.7401 158.259 42.616C158.135 42.492 157.969 42.4183 157.794 42.4093C157.626 42.4097 157.465 42.4768 157.346 42.5959C156.841 43.1115 156.237 43.5187 155.57 43.7925C154.902 44.0663 154.186 44.201 153.465 44.1883C152.788 44.1903 152.117 44.0521 151.497 43.7823C150.876 43.5125 150.317 43.117 149.857 42.6208C148.908 41.5722 148.392 40.203 148.414 38.7891C148.393 37.3866 148.909 36.0292 149.857 34.9948C150.317 34.4984 150.875 34.1036 151.496 33.8358C152.118 33.568 152.788 33.4331 153.465 33.4398C154.856 33.432 156.195 33.9676 157.197 34.9326C157.332 35.0293 157.491 35.0854 157.657 35.0943C157.843 35.0944 158.021 35.0214 158.154 34.8911C158.287 34.7608 158.363 34.5836 158.366 34.3977C158.364 34.287 158.337 34.1783 158.287 34.0793C158.238 33.9804 158.167 33.8936 158.08 33.8254C156.811 32.6988 155.161 32.0982 153.465 32.146" fill="#717171"/>
<path d="M163.491 33.0045C163.491 32.8098 163.569 32.6231 163.706 32.4855C163.844 32.3478 164.031 32.2705 164.225 32.2705C164.42 32.2705 164.607 32.3478 164.744 32.4855C164.882 32.6231 164.959 32.8098 164.959 33.0045V38.1299H172.423V33.0045C172.423 32.8098 172.501 32.6231 172.638 32.4855C172.776 32.3478 172.963 32.2705 173.157 32.2705C173.352 32.2705 173.539 32.3478 173.676 32.4855C173.814 32.6231 173.891 32.8098 173.891 33.0045V44.6985C173.891 44.8931 173.814 45.0798 173.676 45.2175C173.539 45.3551 173.352 45.4324 173.157 45.4324C172.963 45.4324 172.776 45.3551 172.638 45.2175C172.501 45.0798 172.423 44.8931 172.423 44.6985V39.5108H164.959V44.6985C164.959 44.8931 164.882 45.0798 164.744 45.2175C164.607 45.3551 164.42 45.4324 164.225 45.4324C164.031 45.4324 163.844 45.3551 163.706 45.2175C163.569 45.0798 163.491 44.8931 163.491 44.6985V33.0045Z" fill="#717171"/>
<path d="M173.195 45.4696C172.99 45.4696 172.794 45.3883 172.649 45.2437C172.505 45.099 172.423 44.9028 172.423 44.6983V39.5355H164.959V44.6983C164.959 44.9028 164.878 45.099 164.733 45.2437C164.589 45.3883 164.392 45.4696 164.188 45.4696C164.088 45.468 163.99 45.4467 163.898 45.4071C163.807 45.3674 163.724 45.3102 163.655 45.2386C163.586 45.1669 163.531 45.0824 163.494 44.9897C163.458 44.897 163.44 44.7979 163.442 44.6983V33.0043C163.442 32.8031 163.521 32.61 163.664 32.4677C163.806 32.3254 163.999 32.2455 164.2 32.2455C164.402 32.2455 164.595 32.3254 164.737 32.4677C164.879 32.61 164.959 32.8031 164.959 33.0043V38.1049H172.423V33.0043C172.41 32.8957 172.419 32.7853 172.451 32.6806C172.483 32.5758 172.537 32.4791 172.61 32.3969C172.682 32.3147 172.771 32.2488 172.871 32.2037C172.971 32.1586 173.079 32.1353 173.189 32.1353C173.298 32.1353 173.406 32.1586 173.506 32.2037C173.606 32.2488 173.695 32.3147 173.768 32.3969C173.84 32.4791 173.894 32.5758 173.926 32.6806C173.958 32.7853 173.968 32.8957 173.954 33.0043V44.6983C173.954 44.9007 173.874 45.095 173.732 45.2393C173.59 45.3836 173.397 45.4663 173.195 45.4696ZM164.934 39.4733H172.486V44.6983C172.472 44.7984 172.481 44.9003 172.51 44.997C172.539 45.0937 172.589 45.1831 172.655 45.2591C172.722 45.3351 172.804 45.396 172.896 45.4378C172.988 45.4795 173.088 45.5011 173.189 45.5011C173.29 45.5011 173.389 45.4795 173.481 45.4378C173.574 45.396 173.656 45.3351 173.722 45.2591C173.789 45.1831 173.838 45.0937 173.867 44.997C173.897 44.9003 173.905 44.7984 173.891 44.6983V33.0043C173.905 32.9042 173.897 32.8023 173.867 32.7056C173.838 32.6089 173.789 32.5195 173.722 32.4435C173.656 32.3675 173.574 32.3066 173.481 32.2648C173.389 32.2231 173.29 32.2015 173.189 32.2015C173.088 32.2015 172.988 32.2231 172.896 32.2648C172.804 32.3066 172.722 32.3675 172.655 32.4435C172.589 32.5195 172.539 32.6089 172.51 32.7056C172.481 32.8023 172.472 32.9042 172.486 33.0043V38.1546H164.934V33.0043C164.934 32.9112 164.916 32.819 164.88 32.733C164.845 32.6469 164.793 32.5688 164.727 32.5029C164.661 32.4371 164.583 32.3848 164.497 32.3492C164.411 32.3136 164.318 32.2952 164.225 32.2952C164.132 32.2952 164.04 32.3136 163.954 32.3492C163.868 32.3848 163.79 32.4371 163.724 32.5029C163.658 32.5688 163.606 32.6469 163.57 32.733C163.534 32.819 163.516 32.9112 163.516 33.0043V44.6983C163.516 44.7914 163.534 44.8836 163.57 44.9696C163.606 45.0557 163.658 45.1338 163.724 45.1997C163.79 45.2655 163.868 45.3178 163.954 45.3534C164.04 45.389 164.132 45.4074 164.225 45.4074C164.318 45.4074 164.411 45.389 164.497 45.3534C164.583 45.3178 164.661 45.2655 164.727 45.1997C164.793 45.1338 164.845 45.0557 164.88 44.9696C164.916 44.8836 164.934 44.7914 164.934 44.6983V39.4733Z" fill="#717171"/>
<path d="M27.7049 49.8236C28.5765 49.8261 29.4291 49.5699 30.155 49.0875C30.8808 48.6051 31.4472 47.9182 31.7825 47.1137C32.1177 46.3092 32.2067 45.4233 32.0382 44.5682C31.8696 43.7132 31.4512 42.9273 30.8358 42.3102C30.2204 41.693 29.4357 41.2723 28.5811 41.1014C27.7265 40.9305 26.8404 41.017 26.035 41.3499C25.2295 41.6829 24.541 42.2473 24.0565 42.9718C23.5721 43.6963 23.3135 44.5482 23.3135 45.4197C23.3135 46.5856 23.7757 47.7039 24.5989 48.5294C25.4221 49.3549 26.5391 49.8204 27.7049 49.8236Z" fill="#717171"/>
<path d="M30.0063 6.47766e-06C24.9636 -0.00330725 20.0015 1.26481 15.5787 3.68713C11.1559 6.10944 7.41523 9.60774 4.70252 13.8586H13.473C13.6566 12.3852 14.3951 11.0372 15.538 10.0892C16.6809 9.14132 18.1422 8.66482 19.6242 8.75681C21.1062 8.8488 22.4974 9.50236 23.5143 10.5843C24.5312 11.6663 25.0973 13.0953 25.0973 14.5801C25.0973 16.065 24.5312 17.494 23.5143 18.5759C22.4974 19.6579 21.1062 20.3115 19.6242 20.4035C18.1422 20.4955 16.6809 20.019 15.538 19.071C14.3951 18.1231 13.6566 16.7751 13.473 15.3017H3.84413C2.28815 18.0564 1.18354 21.0426 0.57231 24.1468H26.5603C26.7424 22.6693 27.4813 21.3169 28.6262 20.3654C29.7711 19.4139 31.2358 18.9349 32.7217 19.0261C34.2076 19.1174 35.6027 19.7719 36.6226 20.8564C37.6425 21.9408 38.2103 23.3734 38.2103 24.8621C38.2103 26.3508 37.6425 27.7834 36.6226 28.8679C35.6027 29.9523 34.2076 30.6069 32.7217 30.6981C31.2358 30.7894 29.7711 30.3104 28.6262 29.3589C27.4813 28.4073 26.7424 27.0549 26.5603 25.5774H0.323502C-0.107834 28.51 -0.107834 31.49 0.323502 34.4226H40.1327C40.3164 32.9491 41.0549 31.6011 42.1978 30.6532C43.3407 29.7053 44.802 29.2288 46.284 29.3208C47.766 29.4128 49.1571 30.0663 50.174 31.1483C51.1909 32.2303 51.757 33.6593 51.757 35.1441C51.757 36.629 51.1909 38.0579 50.174 39.1399C49.1571 40.2219 47.766 40.8755 46.284 40.9674C44.802 41.0594 43.3407 40.5829 42.1978 39.635C41.0549 38.6871 40.3164 37.3391 40.1327 35.8657H0.57231C1.18744 38.9687 2.29182 41.9543 3.84413 44.7108H21.92C22.1021 43.2333 22.841 41.8809 23.9859 40.9294C25.1308 39.9778 26.5955 39.4989 28.0814 39.5901C29.5673 39.6813 30.9624 40.3359 31.9823 41.4203C33.0022 42.5048 33.5701 43.9374 33.5701 45.4261C33.5701 46.9148 33.0022 48.3474 31.9823 49.4318C30.9624 50.5163 29.5673 51.1708 28.0814 51.2621C26.5955 51.3533 25.1308 50.8743 23.9859 49.9228C22.841 48.9713 22.1021 47.6189 21.92 46.1414H4.70252C7.50454 50.5348 11.4024 54.1227 16.0123 56.552C20.6222 58.9814 25.7853 60.1683 30.9933 59.996C36.2013 59.8238 41.2746 58.2982 45.7139 55.5696C50.1533 52.841 53.8055 49.0033 56.311 44.4344C58.8166 39.8654 60.0892 34.7228 60.0035 29.5127C59.9178 24.3025 58.4767 19.2045 55.8222 14.7205C53.1677 10.2364 49.3912 6.52098 44.8646 3.93984C40.3379 1.3587 35.2171 0.000867468 30.0063 6.47766e-06Z" fill="#717171"/>
<path d="M32.3447 29.2599C33.2172 29.2624 34.0709 29.0056 34.7973 28.522C35.5237 28.0385 36.09 27.3501 36.4245 26.5442C36.759 25.7382 36.8465 24.8511 36.676 23.9953C36.5054 23.1396 36.0845 22.3538 35.4666 21.7376C34.8487 21.1215 34.0617 20.7028 33.2055 20.5347C32.3492 20.3665 31.4624 20.4566 30.6574 20.7934C29.8524 21.1301 29.1656 21.6985 28.6841 22.4262C28.2027 23.154 27.9483 24.0083 27.9532 24.8809C27.9598 26.0424 28.4249 27.1543 29.2474 27.9745C30.0699 28.7947 31.1831 29.2567 32.3447 29.2599Z" fill="#717171"/>
<path d="M45.9049 39.548C46.7759 39.548 47.6273 39.2897 48.3515 38.8058C49.0758 38.3219 49.6402 37.6341 49.9735 36.8294C50.3069 36.0247 50.3941 35.1392 50.2241 34.285C50.0542 33.4307 49.6348 32.646 49.0189 32.0301C48.403 31.4142 47.6183 30.9948 46.764 30.8249C45.9098 30.6549 45.0243 30.7421 44.2196 31.0755C43.4149 31.4088 42.7271 31.9732 42.2432 32.6975C41.7593 33.4217 41.501 34.2731 41.501 35.1441C41.5043 36.3111 41.9693 37.4294 42.7945 38.2545C43.6197 39.0797 44.7379 39.5447 45.9049 39.548Z" fill="#717171"/>
<path d="M19.2584 18.9838C20.1294 18.9838 20.9808 18.7255 21.7051 18.2416C22.4293 17.7577 22.9937 17.0699 23.3271 16.2652C23.6604 15.4605 23.7476 14.575 23.5777 13.7208C23.4077 12.8665 22.9883 12.0818 22.3724 11.4659C21.7565 10.85 20.9718 10.4306 20.1175 10.2606C19.2633 10.0907 18.3778 10.1779 17.5731 10.5113C16.7684 10.8446 16.0806 11.409 15.5967 12.1333C15.1128 12.8575 14.8545 13.7089 14.8545 14.5799C14.8545 15.7479 15.3185 16.8681 16.1444 17.694C16.9703 18.5198 18.0904 18.9838 19.2584 18.9838Z" fill="#717171"/>
</svg>
