<svg width="312" height="100" viewBox="0 0 312 100" fill="none" xmlns="http://www.w3.org/2000/svg">
<path d="M132.904 22.3097C132.904 21.9853 133.033 21.6741 133.263 21.4447C133.492 21.2153 133.803 21.0864 134.128 21.0864C134.452 21.0864 134.763 21.2153 134.993 21.4447C135.222 21.6741 135.351 21.9853 135.351 22.3097V30.8521H147.791V22.3097C147.791 21.9853 147.92 21.6741 148.15 21.4447C148.379 21.2153 148.69 21.0864 149.015 21.0864C149.339 21.0864 149.65 21.2153 149.88 21.4447C150.109 21.6741 150.238 21.9853 150.238 22.3097V41.7997C150.238 42.1241 150.109 42.4353 149.88 42.6647C149.65 42.8941 149.339 43.023 149.015 43.023C148.69 43.023 148.379 42.8941 148.15 42.6647C147.92 42.4353 147.791 42.1241 147.791 41.7997V33.1743H135.351V41.8411C135.351 42.1656 135.222 42.4767 134.993 42.7061C134.763 42.9356 134.452 43.0644 134.128 43.0644C133.803 43.0644 133.492 42.9356 133.263 42.7061C133.033 42.4767 132.904 42.1656 132.904 41.8411V22.3097Z" fill="#717171"/>
<path d="M149.077 43.0852C148.736 43.0852 148.409 42.9498 148.168 42.7087C147.927 42.4676 147.792 42.1406 147.792 41.7997V33.1744H135.351V41.7997C135.374 41.9808 135.359 42.1648 135.305 42.3393C135.252 42.5139 135.162 42.675 135.041 42.8121C134.92 42.9491 134.772 43.0589 134.605 43.1341C134.439 43.2093 134.259 43.2481 134.076 43.2481C133.893 43.2481 133.713 43.2093 133.547 43.1341C133.38 43.0589 133.232 42.9491 133.111 42.8121C132.991 42.675 132.9 42.5139 132.847 42.3393C132.793 42.1648 132.778 41.9808 132.801 41.7997V22.3098C132.778 22.1287 132.793 21.9447 132.847 21.7702C132.9 21.5956 132.991 21.4344 133.111 21.2974C133.232 21.1604 133.38 21.0506 133.547 20.9754C133.713 20.9002 133.893 20.8613 134.076 20.8613C134.259 20.8613 134.439 20.9002 134.605 20.9754C134.772 21.0506 134.92 21.1604 135.041 21.2974C135.162 21.4344 135.252 21.5956 135.305 21.7702C135.359 21.9447 135.374 22.1287 135.351 22.3098V30.79H147.792V22.3098C147.792 21.9688 147.927 21.6419 148.168 21.4008C148.409 21.1597 148.736 21.0243 149.077 21.0243C149.243 21.027 149.407 21.0624 149.56 21.1284C149.712 21.1945 149.85 21.2899 149.965 21.4093C150.081 21.5287 150.172 21.6697 150.233 21.8242C150.294 21.9787 150.324 22.1437 150.321 22.3098V41.7997C150.321 42.1336 150.192 42.4544 149.959 42.6943C149.727 42.9343 149.411 43.0744 149.077 43.0852V43.0852ZM135.289 33.1744H147.895V41.8826C147.873 42.0496 147.887 42.2193 147.935 42.3805C147.984 42.5417 148.067 42.6907 148.178 42.8173C148.288 42.944 148.425 43.0456 148.579 43.1151C148.732 43.1847 148.898 43.2207 149.067 43.2207C149.235 43.2207 149.402 43.1847 149.555 43.1151C149.708 43.0456 149.845 42.944 149.956 42.8173C150.067 42.6907 150.149 42.5417 150.198 42.3805C150.247 42.2193 150.26 42.0496 150.238 41.8826V22.3927C150.238 22.0828 150.117 21.7853 149.899 21.5643C149.682 21.3432 149.387 21.2163 149.077 21.2109C148.921 21.2081 148.766 21.2367 148.621 21.2951C148.477 21.3535 148.345 21.4404 148.235 21.5508C148.125 21.6611 148.038 21.7925 147.979 21.9371C147.921 22.0818 147.892 22.2367 147.895 22.3927V30.8936H135.289V22.3098C135.292 22.1538 135.263 21.9988 135.205 21.8542C135.146 21.7095 135.059 21.5781 134.949 21.4678C134.839 21.3575 134.707 21.2706 134.563 21.2122C134.418 21.1538 134.263 21.1251 134.107 21.1279C133.797 21.1334 133.502 21.2603 133.285 21.4813C133.068 21.7024 132.946 21.9999 132.946 22.3098V41.7997C132.924 41.9666 132.937 42.1364 132.986 42.2976C133.035 42.4588 133.117 42.6077 133.228 42.7344C133.339 42.8611 133.476 42.9626 133.629 43.0322C133.783 43.1018 133.949 43.1377 134.117 43.1377C134.286 43.1377 134.452 43.1018 134.606 43.0322C134.759 42.9626 134.896 42.8611 135.007 42.7344C135.118 42.6077 135.2 42.4588 135.249 42.2976C135.298 42.1364 135.311 41.9666 135.289 41.7997V33.1744Z" fill="#717171"/>
<path d="M159.154 32.117C159.123 30.6488 159.388 29.1894 159.932 27.8253C160.476 26.4613 161.288 25.2204 162.321 24.1762C163.353 23.132 164.585 22.3058 165.943 21.7465C167.301 21.1873 168.757 20.9065 170.226 20.9207C171.688 20.9007 173.139 21.176 174.492 21.73C175.845 22.2841 177.072 23.1055 178.1 24.1451C179.128 25.1847 179.935 26.4211 180.474 27.7802C181.013 29.1394 181.272 30.5933 181.236 32.0548V32.0548C181.3 33.545 181.062 35.0328 180.537 36.4286C180.011 37.8245 179.208 39.0994 178.177 40.1767C177.145 41.254 175.906 42.1113 174.534 42.697C173.162 43.2827 171.686 43.5846 170.195 43.5846C168.703 43.5846 167.227 43.2827 165.855 42.697C164.484 42.1113 163.245 41.254 162.213 40.1767C161.181 39.0994 160.379 37.8245 159.853 36.4286C159.327 35.0328 159.089 33.545 159.154 32.0548V32.117ZM178.706 32.0548C178.751 30.9025 178.563 29.7529 178.154 28.6745C177.746 27.5961 177.125 26.6108 176.328 25.7772C175.531 24.9436 174.575 24.2786 173.516 23.8219C172.457 23.3652 171.317 23.126 170.164 23.1185C169.02 23.1258 167.89 23.3635 166.841 23.8176C165.792 24.2717 164.845 24.9327 164.057 25.7612C163.27 26.5897 162.657 27.5685 162.256 28.6393C161.855 29.71 161.675 30.8505 161.725 31.9926V31.9926C161.68 33.1433 161.867 34.2911 162.275 35.3682C162.682 36.4452 163.301 37.4296 164.096 38.2629C164.891 39.0962 165.844 39.7616 166.901 40.2195C167.957 40.6775 169.095 40.9187 170.247 40.929C171.393 40.9273 172.528 40.6936 173.582 40.242C174.636 39.7904 175.588 39.1302 176.38 38.3012C177.172 37.4721 177.789 36.4913 178.192 35.4179C178.595 34.3444 178.777 33.2005 178.727 32.0548" fill="#717171"/>
<path d="M170.163 43.2927C168.672 43.3156 167.191 43.031 165.814 42.4567C164.437 41.8824 163.193 41.0306 162.16 39.9545C160.172 37.8326 159.08 35.0247 159.112 32.1171V32.1171C159.092 29.1953 160.19 26.3765 162.181 24.2381C163.233 23.1781 164.485 22.3367 165.864 21.7626C167.242 21.1884 168.721 20.8928 170.215 20.8928C171.709 20.8928 173.188 21.1884 174.567 21.7626C175.946 22.3367 177.197 23.1781 178.249 24.2381C180.229 26.3658 181.319 29.1698 181.297 32.0756V32.0756C181.342 34.974 180.274 37.7791 178.312 39.913C177.275 40.9988 176.025 41.8593 174.641 42.4407C173.257 43.0222 171.768 43.3122 170.267 43.2927H170.163ZM170.267 20.9C168.78 20.8792 167.304 21.167 165.934 21.7451C164.564 22.3232 163.328 23.1792 162.305 24.2589C160.321 26.3669 159.229 29.1603 159.257 32.0549V32.0549C159.223 34.9366 160.3 37.7208 162.264 39.8301C163.302 40.8883 164.541 41.7289 165.908 42.3028C167.275 42.8766 168.743 43.1721 170.225 43.1721C171.708 43.1721 173.176 42.8766 174.543 42.3028C175.91 41.7289 177.149 40.8883 178.187 39.8301C180.167 37.7197 181.259 34.9279 181.235 32.0341V32.0341C181.263 29.1495 180.179 26.365 178.208 24.2589C177.184 23.1893 175.95 22.3425 174.584 21.7717C173.217 21.2009 171.748 20.9182 170.267 20.9414V20.9ZM170.267 41.0741C169.103 41.0962 167.948 40.8731 166.877 40.4195C165.805 39.9658 164.841 39.2917 164.047 38.4409C162.492 36.683 161.662 34.4008 161.725 32.0549V32.0549C161.674 30.9038 161.857 29.7544 162.263 28.6759C162.668 27.5974 163.287 26.6121 164.083 25.7792C164.88 24.9463 165.836 24.2831 166.895 23.8294C167.954 23.3757 169.094 23.1409 170.246 23.1392C171.41 23.1172 172.565 23.3402 173.636 23.7939C174.708 24.2476 175.672 24.9217 176.466 25.7725C178.06 27.4974 178.928 29.7691 178.892 32.1171V32.1171C178.946 33.2688 178.765 34.4195 178.36 35.4993C177.956 36.5791 177.337 37.5656 176.54 38.3991C175.743 39.2326 174.786 39.8958 173.725 40.3485C172.665 40.8011 171.524 41.0339 170.371 41.0327L170.267 41.0741ZM170.371 23.16C169.211 23.1302 168.058 23.3397 166.983 23.7755C165.908 24.2113 164.935 24.864 164.123 25.6929C163.312 26.5217 162.68 27.5089 162.268 28.5928C161.855 29.6767 161.67 30.8341 161.725 31.9927V31.9927C161.71 34.2957 162.57 36.5184 164.13 38.2128C164.909 39.0417 165.85 39.7013 166.896 40.1508C167.941 40.6002 169.067 40.8298 170.205 40.8253C171.346 40.8236 172.475 40.591 173.524 40.1415C174.573 39.692 175.52 39.0349 176.309 38.2097C177.097 37.3845 177.71 36.4083 178.112 35.3398C178.513 34.2714 178.694 33.1328 178.643 31.9927C178.658 29.6896 177.798 27.4669 176.238 25.7725C175.457 24.9411 174.512 24.2799 173.463 23.8304C172.414 23.3809 171.284 23.1526 170.143 23.16" fill="#717171"/>
<path d="M190.11 22.3097C190.11 21.9853 190.239 21.6741 190.469 21.4447C190.698 21.2153 191.009 21.0864 191.334 21.0864C191.658 21.0864 191.969 21.2153 192.199 21.4447C192.428 21.6741 192.557 21.9853 192.557 22.3097V40.6178H203.795C204.094 40.6233 204.378 40.7458 204.588 40.9591C204.797 41.1724 204.914 41.4593 204.914 41.7582C204.914 41.9052 204.885 42.0508 204.829 42.1867C204.773 42.3225 204.69 42.4459 204.586 42.5499C204.482 42.6539 204.359 42.7363 204.223 42.7926C204.087 42.8489 203.942 42.8778 203.795 42.8778H191.354C191.028 42.8724 190.717 42.7389 190.488 42.5062C190.259 42.2735 190.131 41.9602 190.131 41.6338L190.11 22.3097Z" fill="#717171"/>
<path d="M203.794 42.9193H191.354C191.016 42.9139 190.695 42.7761 190.458 42.5356C190.222 42.2951 190.089 41.9712 190.089 41.6338V22.3098C190.066 22.1287 190.082 21.9447 190.135 21.7702C190.189 21.5956 190.279 21.4344 190.399 21.2974C190.52 21.1604 190.668 21.0506 190.835 20.9754C191.001 20.9002 191.182 20.8613 191.364 20.8613C191.547 20.8613 191.727 20.9002 191.894 20.9754C192.06 21.0506 192.208 21.1604 192.329 21.2974C192.45 21.4344 192.54 21.5956 192.593 21.7702C192.647 21.9447 192.662 22.1287 192.639 22.3098V40.5764H203.815C204.125 40.5818 204.42 40.7088 204.637 40.9298C204.854 41.1509 204.976 41.4484 204.976 41.7582C204.976 42.0662 204.854 42.3615 204.636 42.5793C204.418 42.797 204.123 42.9193 203.815 42.9193H203.794ZM191.374 21.1279C191.065 21.1334 190.769 21.2603 190.552 21.4813C190.335 21.7024 190.213 21.9999 190.213 22.3098V41.6338C190.213 41.9457 190.334 42.2455 190.551 42.4699C190.767 42.6942 191.063 42.8257 191.374 42.8364H203.815C203.956 42.8364 204.095 42.8084 204.224 42.754C204.354 42.6995 204.472 42.6198 204.57 42.5194C204.668 42.419 204.746 42.3 204.798 42.1693C204.85 42.0386 204.875 41.8988 204.872 41.7582C204.875 41.6166 204.85 41.4759 204.798 41.344C204.747 41.2122 204.669 41.0918 204.571 40.9897C204.473 40.8877 204.356 40.806 204.226 40.7493C204.096 40.6926 203.956 40.662 203.815 40.6593H192.515V22.3098C192.515 21.9963 192.39 21.6957 192.169 21.4741C191.947 21.2524 191.646 21.1279 191.333 21.1279" fill="#717171"/>
<path d="M212.979 22.3097C212.979 21.9853 213.108 21.6741 213.337 21.4447C213.567 21.2153 213.878 21.0864 214.202 21.0864C214.527 21.0864 214.838 21.2153 215.067 21.4447C215.297 21.6741 215.426 21.9853 215.426 22.3097V40.6178H226.643C226.942 40.6233 227.226 40.7458 227.436 40.9591C227.645 41.1724 227.762 41.4593 227.762 41.7582C227.762 41.9052 227.733 42.0508 227.677 42.1867C227.621 42.3225 227.538 42.4459 227.434 42.5499C227.33 42.6539 227.207 42.7363 227.071 42.7926C226.935 42.8489 226.79 42.8778 226.643 42.8778H214.202C213.88 42.8671 213.574 42.7313 213.349 42.4991C213.125 42.267 213 41.9567 213 41.6338L212.979 22.3097Z" fill="#717171"/>
<path d="M226.643 42.9193H214.203C214.037 42.9166 213.873 42.8812 213.72 42.8151C213.568 42.749 213.43 42.6536 213.314 42.5342C213.199 42.4148 213.108 42.2739 213.047 42.1194C212.986 41.9649 212.956 41.7999 212.959 41.6338V22.3097C212.956 22.1436 212.986 21.9786 213.047 21.8241C213.108 21.6696 213.199 21.5286 213.314 21.4092C213.43 21.2898 213.568 21.1944 213.72 21.1283C213.873 21.0623 214.037 21.0269 214.203 21.0242C214.544 21.0242 214.871 21.1596 215.112 21.4007C215.353 21.6418 215.488 21.9687 215.488 22.3097V40.5763H226.664C226.974 40.5818 227.269 40.7087 227.486 40.9297C227.703 41.1508 227.825 41.4483 227.825 41.7582C227.825 42.0661 227.703 42.3614 227.485 42.5792C227.267 42.7969 226.972 42.9193 226.664 42.9193H226.643ZM214.223 21.1278C213.914 21.1333 213.618 21.2602 213.401 21.4812C213.184 21.7023 213.062 21.9998 213.062 22.3097V41.6338C213.062 41.9456 213.183 42.2454 213.4 42.4698C213.616 42.6941 213.912 42.8256 214.223 42.8363H226.664C226.95 42.8363 227.224 42.7227 227.426 42.5205C227.628 42.3183 227.742 42.0441 227.742 41.7582C227.745 41.6148 227.719 41.4724 227.666 41.3392C227.613 41.206 227.534 41.0847 227.434 40.9823C227.333 40.88 227.213 40.7987 227.081 40.7433C226.949 40.6878 226.807 40.6592 226.664 40.6593H215.385V22.3097C215.387 22.1537 215.359 21.9988 215.3 21.8541C215.242 21.7094 215.155 21.578 215.045 21.4677C214.934 21.3574 214.803 21.2705 214.658 21.2121C214.514 21.1537 214.359 21.125 214.203 21.1278" fill="#717171"/>
<path d="M234.502 41.2605L243.293 22.0609C243.4 21.7405 243.606 21.4628 243.882 21.2687C244.159 21.0746 244.49 20.9743 244.827 20.9827H244.952C245.287 20.9721 245.617 21.0718 245.89 21.2666C246.164 21.4613 246.366 21.7403 246.465 22.0609L255.257 41.2398C255.357 41.4324 255.414 41.6448 255.422 41.8618C255.417 42.1736 255.291 42.4711 255.07 42.6916C254.85 42.9121 254.552 43.0383 254.241 43.0437C253.972 43.029 253.714 42.9342 253.5 42.7717C253.285 42.6091 253.125 42.3861 253.038 42.1314L250.882 37.1552H239.001L236.741 42.1936C236.661 42.4432 236.503 42.6605 236.29 42.8136C236.078 42.9666 235.821 43.0473 235.559 43.0437C235.266 43.0382 234.986 42.9179 234.781 42.7085C234.575 42.4991 234.46 42.2174 234.46 41.924C234.455 41.6944 234.505 41.4668 234.606 41.2605H234.502ZM249.928 35.0403L244.931 23.9684L239.955 35.0403H249.928Z" fill="#717171"/>
<path d="M254.24 43.0852C253.962 43.0772 253.693 42.9832 253.47 42.8162C253.247 42.6491 253.082 42.4171 252.996 42.1521L250.736 37.1967H238.918L236.678 42.2143C236.591 42.4694 236.427 42.6907 236.207 42.8469C235.988 43.0032 235.724 43.0865 235.455 43.0852C235.147 43.0852 234.852 42.9628 234.634 42.7451C234.416 42.5273 234.294 42.232 234.294 41.9241C234.297 41.6864 234.354 41.4525 234.46 41.2398L243.251 22.0402C243.362 21.7126 243.574 21.4292 243.858 21.2314C244.142 21.0336 244.481 20.9319 244.827 20.9413H244.951C245.297 20.9319 245.636 21.0336 245.92 21.2314C246.204 21.4292 246.416 21.7126 246.527 22.0402L255.297 41.2191C255.394 41.4206 255.45 41.6389 255.463 41.8619C255.458 42.1846 255.327 42.4927 255.099 42.721C254.871 42.9492 254.563 43.0798 254.24 43.0852V43.0852ZM238.855 37.1138H250.881L253.141 42.0899C253.224 42.3351 253.38 42.5495 253.587 42.7049C253.794 42.8603 254.044 42.9494 254.302 42.9608C254.599 42.9608 254.884 42.8428 255.094 42.6328C255.304 42.4228 255.422 42.1381 255.422 41.8411C255.417 41.6327 255.367 41.4277 255.277 41.2398L246.486 22.0609C246.393 21.7457 246.198 21.4704 245.931 21.2788C245.665 21.0871 245.342 20.9902 245.013 21.0035H244.889C244.56 20.9993 244.239 21.0995 243.971 21.2894C243.702 21.4794 243.501 21.7495 243.396 22.0609L234.605 41.2606C234.506 41.4601 234.456 41.6805 234.46 41.9033C234.46 42.0422 234.487 42.1797 234.54 42.308C234.593 42.4363 234.671 42.5528 234.77 42.651C234.868 42.7492 234.984 42.8271 235.113 42.8803C235.241 42.9334 235.378 42.9608 235.517 42.9608C235.769 42.9681 236.017 42.8932 236.223 42.7473C236.429 42.6014 236.581 42.3925 236.658 42.1521L238.855 37.1138ZM249.886 35.0404H239.788L244.806 23.8648L249.886 35.0404ZM239.934 34.9367H249.741L244.827 24.0306L239.934 34.9367Z" fill="#717171"/>
<path d="M263.799 22.3305C263.804 22.0133 263.933 21.7105 264.157 21.4861C264.381 21.2617 264.684 21.1333 265.001 21.128H265.395C265.647 21.1342 265.893 21.204 266.111 21.3309C266.328 21.4578 266.51 21.6376 266.639 21.8537L279.785 38.6067V22.2683C279.762 22.0986 279.776 21.926 279.826 21.7621C279.876 21.5982 279.96 21.4469 280.073 21.3181C280.185 21.1893 280.324 21.0861 280.48 21.0155C280.636 20.9448 280.806 20.9082 280.977 20.9082C281.148 20.9082 281.317 20.9448 281.473 21.0155C281.629 21.0861 281.768 21.1893 281.881 21.3181C281.994 21.4469 282.078 21.5982 282.128 21.7621C282.177 21.926 282.192 22.0986 282.169 22.2683V41.8205C282.178 41.9717 282.155 42.1231 282.102 42.2651C282.05 42.4071 281.968 42.5367 281.863 42.6457C281.758 42.7547 281.631 42.8409 281.491 42.8987C281.351 42.9565 281.201 42.9847 281.049 42.9816H280.925C280.672 42.9611 280.426 42.8833 280.207 42.7539C279.988 42.6246 279.801 42.4473 279.66 42.2352L266.245 25.0674V41.8205C266.245 42.1449 266.117 42.4561 265.887 42.6855C265.658 42.9149 265.347 43.0438 265.022 43.0438C264.707 43.033 264.408 42.8986 264.191 42.6698C263.974 42.441 263.855 42.1359 263.861 41.8205L263.799 22.3305Z" fill="#717171"/>
<path d="M264.96 43.0852C264.633 43.0695 264.325 42.9299 264.098 42.695C263.87 42.46 263.741 42.1473 263.736 41.8205V22.3305C263.747 22.0004 263.884 21.687 264.12 21.4554C264.355 21.2237 264.671 21.0916 265.001 21.0865H265.395C265.652 21.0933 265.904 21.163 266.128 21.2895C266.352 21.416 266.542 21.5954 266.681 21.8122L279.743 38.3994V22.2683C279.72 22.0929 279.735 21.9146 279.787 21.7454C279.838 21.5762 279.925 21.4199 280.042 21.287C280.159 21.1541 280.303 21.0476 280.464 20.9747C280.625 20.9017 280.8 20.864 280.977 20.864C281.154 20.864 281.328 20.9017 281.49 20.9747C281.651 21.0476 281.794 21.1541 281.911 21.287C282.028 21.4199 282.115 21.5762 282.167 21.7454C282.218 21.9146 282.233 22.0929 282.21 22.2683V41.8205C282.216 41.9764 282.19 42.1319 282.134 42.2776C282.078 42.4232 281.994 42.5562 281.885 42.6684C281.777 42.7807 281.647 42.8699 281.503 42.9309C281.36 42.9918 281.205 43.0231 281.049 43.023H280.925C280.664 42.9975 280.413 42.9157 280.187 42.7832C279.962 42.6508 279.768 42.4708 279.619 42.2559L266.287 25.1918V41.779C266.287 42.1144 266.153 42.4361 265.916 42.6733C265.679 42.9105 265.357 43.0438 265.022 43.0438L264.96 43.0852ZM265.022 21.1487C264.717 21.1486 264.425 21.2681 264.208 21.4814C263.991 21.6947 263.866 21.9847 263.861 22.2891V41.779C263.861 42.0814 263.981 42.3715 264.195 42.5854C264.409 42.7992 264.699 42.9194 265.001 42.9194C265.304 42.9194 265.594 42.7992 265.807 42.5854C266.021 42.3715 266.141 42.0814 266.141 41.779V24.8808L279.66 42.1522C279.795 42.3584 279.976 42.531 280.188 42.6568C280.4 42.7825 280.638 42.8582 280.883 42.8779H281.008C281.152 42.8808 281.295 42.8543 281.429 42.7998C281.562 42.7454 281.683 42.6642 281.784 42.5613C281.885 42.4583 281.964 42.3358 282.016 42.2013C282.068 42.0668 282.092 41.9231 282.086 41.779V22.2683C282.048 21.9897 281.911 21.7341 281.699 21.5491C281.488 21.364 281.216 21.262 280.935 21.262C280.654 21.262 280.382 21.364 280.171 21.5491C279.959 21.7341 279.822 21.9897 279.784 22.2683V38.8555V38.7518L266.639 21.978C266.513 21.7716 266.336 21.6006 266.126 21.4809C265.916 21.3612 265.678 21.2969 265.437 21.2938L265.022 21.1487Z" fill="#717171"/>
<path d="M291.934 22.455C291.939 22.1357 292.067 21.8306 292.291 21.6029C292.515 21.3752 292.818 21.2423 293.137 21.2317H299.461C300.938 21.1263 302.421 21.3264 303.818 21.8195C305.214 22.3127 306.494 23.0883 307.578 24.0979C308.661 25.1076 309.525 26.3296 310.116 27.6879C310.706 29.0462 311.01 30.5116 311.009 31.9926V31.9926C311.009 33.4725 310.706 34.9367 310.119 36.2951C309.532 37.6535 308.673 38.8773 307.595 39.8912C306.517 40.9051 305.243 41.6876 303.851 42.1906C302.459 42.6935 300.979 42.9063 299.502 42.8158H293.178C292.855 42.805 292.55 42.6692 292.325 42.437C292.101 42.2049 291.975 41.8946 291.976 41.5717L291.934 22.455ZM299.461 40.6179C300.622 40.7116 301.79 40.5596 302.888 40.1717C303.987 39.7838 304.992 39.1689 305.837 38.3668C306.682 37.5648 307.348 36.5937 307.793 35.5169C308.238 34.4401 308.451 33.2816 308.418 32.117C308.44 30.9525 308.221 29.7961 307.773 28.7207C307.326 27.6454 306.66 26.6746 305.818 25.8698C304.976 25.0649 303.977 24.4435 302.882 24.0449C301.788 23.6463 300.623 23.4791 299.461 23.5539H294.422V40.6802L299.461 40.6179Z" fill="#717171"/>
<path d="M299.461 42.9194H293.137C292.803 42.9086 292.487 42.7685 292.255 42.5285C292.023 42.2886 291.893 41.9678 291.893 41.6339V22.455C291.898 22.1247 292.03 21.8091 292.262 21.5736C292.494 21.3381 292.807 21.2008 293.137 21.1902H299.461C306.158 21.1902 311.01 25.7309 311.01 31.9926C311.027 33.4322 310.75 34.8603 310.198 36.1898C309.645 37.5193 308.828 38.7226 307.796 39.7264C305.538 41.7991 302.567 42.9205 299.502 42.8572L299.461 42.9194ZM293.179 21.2109C292.872 21.2217 292.582 21.3509 292.37 21.5714C292.157 21.7919 292.038 22.0864 292.038 22.3928V41.5717C292.033 41.8816 292.149 42.1814 292.362 42.4064C292.576 42.6313 292.869 42.7634 293.179 42.7743H299.502C302.564 42.8411 305.534 41.7275 307.796 39.6642C308.816 38.6663 309.623 37.472 310.168 36.1534C310.713 34.8348 310.986 33.4194 310.968 31.9926V31.9926C310.972 30.5217 310.672 29.0658 310.089 27.7156C309.505 26.3654 308.65 25.1497 307.577 24.1442C306.503 23.1387 305.234 22.3649 303.849 21.871C302.463 21.377 300.991 21.1735 299.523 21.2731L293.179 21.2109ZM299.502 40.5972H294.423V23.4295H299.544C300.751 23.3918 301.954 23.5941 303.082 24.0248C304.21 24.4555 305.242 25.1059 306.117 25.9383C306.924 26.756 307.556 27.7287 307.977 28.7978C308.397 29.8669 308.597 31.0101 308.563 32.1585C308.587 33.3277 308.366 34.489 307.914 35.5678C307.463 36.6467 306.791 37.6194 305.942 38.4235C305.093 39.2277 304.085 39.8457 302.983 40.2379C301.882 40.63 300.71 40.7877 299.544 40.7009L299.502 40.5972ZM294.506 40.7009H299.544C300.698 40.788 301.858 40.6325 302.949 40.2443C304.039 39.8562 305.037 39.244 305.877 38.4471C306.716 37.6503 307.38 36.6865 307.825 35.6177C308.27 34.5489 308.486 33.3988 308.46 32.2414C308.485 31.1207 308.284 30.0064 307.867 28.9658C307.45 27.9252 306.826 26.9799 306.034 26.1871C305.171 25.3646 304.152 24.7227 303.038 24.299C301.923 23.8753 300.735 23.6784 299.544 23.7197H294.423L294.506 40.7009Z" fill="#717171"/>
<path d="M132.904 55.1732C132.904 54.8504 133.029 54.5401 133.254 54.3079C133.478 54.0758 133.784 53.94 134.107 53.9292H147.501C147.798 53.9292 148.083 54.0472 148.293 54.2571C148.503 54.4671 148.621 54.7519 148.621 55.0488C148.621 55.3477 148.503 55.6347 148.294 55.848C148.085 56.0612 147.8 56.1838 147.501 56.1892H135.351V63.923H146.112C146.258 63.923 146.403 63.952 146.537 64.0086C146.672 64.0651 146.794 64.1479 146.896 64.2521C146.999 64.3564 147.079 64.48 147.133 64.6157C147.187 64.7514 147.213 64.8966 147.211 65.0426C147.214 65.1877 147.187 65.3319 147.133 65.4665C147.079 65.6011 146.998 65.7233 146.895 65.8259C146.793 65.9285 146.67 66.0094 146.536 66.0636C146.401 66.1178 146.257 66.1443 146.112 66.1415H135.351V74.4351C135.351 74.7596 135.222 75.0707 134.993 75.3001C134.763 75.5295 134.452 75.6584 134.128 75.6584C133.803 75.6584 133.492 75.5295 133.263 75.3001C133.033 75.0707 132.904 74.7596 132.904 74.4351V55.1732Z" fill="#717171"/>
<path d="M134.108 75.7828C133.77 75.7773 133.449 75.6395 133.212 75.399C132.975 75.1585 132.843 74.8347 132.843 74.4973V55.1732C132.843 54.8358 132.975 54.512 133.212 54.2715C133.449 54.031 133.77 53.8931 134.108 53.8877H147.502C147.786 53.9255 148.046 54.0652 148.235 54.2807C148.423 54.4961 148.527 54.7728 148.527 55.0592C148.527 55.3456 148.423 55.6222 148.235 55.8377C148.046 56.0531 147.786 56.1928 147.502 56.2306H135.393V63.8815H146.113C146.42 63.8815 146.716 64.0038 146.934 64.2216C147.151 64.4393 147.274 64.7346 147.274 65.0426C147.274 65.3505 147.151 65.6459 146.934 65.8636C146.716 66.0814 146.42 66.2037 146.113 66.2037H135.393V74.4973C135.393 74.8382 135.258 75.1652 135.017 75.4063C134.775 75.6473 134.448 75.7828 134.108 75.7828V75.7828ZM134.108 53.9914C133.798 53.9968 133.502 54.1237 133.285 54.3448C133.068 54.5658 132.946 54.8633 132.946 55.1732V74.4973C132.946 74.8092 133.067 75.1089 133.284 75.3333C133.501 75.5577 133.796 75.6891 134.108 75.6998C134.265 75.6999 134.42 75.6686 134.565 75.6079C134.709 75.5473 134.841 75.4583 134.951 75.3464C135.061 75.2344 135.147 75.1017 135.205 74.9559C135.264 74.8101 135.292 74.6542 135.289 74.4973V66.1H146.113C146.338 66.0357 146.536 65.8997 146.677 65.7126C146.818 65.5256 146.895 65.2976 146.895 65.0633C146.895 64.829 146.818 64.6011 146.677 64.414C146.536 64.227 146.338 64.091 146.113 64.0266H135.289V56.1477H147.502C147.643 56.145 147.783 56.1144 147.913 56.0577C148.043 56.0011 148.16 55.9194 148.258 55.8173C148.356 55.7153 148.433 55.5949 148.485 55.463C148.537 55.3311 148.562 55.1904 148.559 55.0488C148.559 54.7683 148.448 54.4994 148.249 54.3011C148.051 54.1028 147.782 53.9914 147.502 53.9914H134.108Z" fill="#717171"/>
<path d="M157.123 55.0072C157.123 54.6828 157.251 54.3716 157.481 54.1422C157.71 53.9128 158.021 53.7839 158.346 53.7839C158.67 53.7839 158.981 53.9128 159.211 54.1422C159.44 54.3716 159.569 54.6828 159.569 55.0072V74.4972C159.569 74.8216 159.44 75.1328 159.211 75.3622C158.981 75.5916 158.67 75.7205 158.346 75.7205C158.021 75.7205 157.71 75.5916 157.481 75.3622C157.251 75.1328 157.123 74.8216 157.123 74.4972V55.0072Z" fill="#717171"/>
<path d="M158.325 75.7825C157.988 75.777 157.666 75.6392 157.429 75.3987C157.193 75.1582 157.06 74.8343 157.06 74.497V55.007C157.037 54.8259 157.053 54.642 157.106 54.4674C157.16 54.2929 157.25 54.1317 157.37 53.9947C157.491 53.8576 157.64 53.7479 157.806 53.6727C157.972 53.5975 158.153 53.5586 158.335 53.5586C158.518 53.5586 158.698 53.5975 158.865 53.6727C159.031 53.7479 159.18 53.8576 159.3 53.9947C159.421 54.1317 159.511 54.2929 159.564 54.4674C159.618 54.642 159.634 54.8259 159.61 55.007V74.497C159.61 74.8379 159.475 75.1649 159.234 75.406C158.993 75.647 158.666 75.7825 158.325 75.7825ZM158.325 53.8252C158.015 53.8306 157.72 53.9575 157.503 54.1786C157.285 54.3996 157.164 54.6971 157.164 55.007V74.497C157.164 74.8089 157.285 75.1086 157.501 75.333C157.718 75.5574 158.013 75.6888 158.325 75.6995C158.482 75.6996 158.637 75.6683 158.782 75.6076C158.927 75.547 159.058 75.458 159.168 75.3461C159.278 75.2341 159.365 75.1014 159.423 74.9556C159.481 74.8098 159.51 74.6539 159.507 74.497V55.007C159.507 54.8518 159.476 54.6981 159.417 54.5548C159.357 54.4114 159.27 54.2811 159.161 54.1713C159.051 54.0616 158.921 53.9745 158.777 53.9152C158.634 53.8558 158.48 53.8252 158.325 53.8252Z" fill="#717171"/>
<path d="M169.604 55.0488C169.614 54.7297 169.747 54.4268 169.975 54.203C170.202 53.9791 170.508 53.8514 170.827 53.8462H171.159C171.408 53.8521 171.652 53.9196 171.869 54.0425C172.086 54.1655 172.269 54.3403 172.403 54.5512L185.548 71.325V54.9866C185.526 54.8168 185.54 54.6443 185.589 54.4804C185.639 54.3165 185.723 54.1651 185.836 54.0364C185.949 53.9076 186.088 53.8044 186.244 53.7337C186.4 53.663 186.569 53.6265 186.74 53.6265C186.911 53.6265 187.081 53.663 187.237 53.7337C187.393 53.8044 187.532 53.9076 187.644 54.0364C187.757 54.1651 187.841 54.3165 187.891 54.4804C187.941 54.6443 187.955 54.8168 187.932 54.9866V74.6424C187.938 74.7919 187.913 74.941 187.859 75.0806C187.805 75.2201 187.723 75.3472 187.618 75.454C187.514 75.5607 187.388 75.645 187.249 75.7015C187.111 75.7581 186.962 75.7857 186.813 75.7828H186.605C186.352 75.7623 186.106 75.6845 185.887 75.5551C185.668 75.4258 185.481 75.2484 185.341 75.0364L172.092 57.765V74.6424C172.114 74.8122 172.1 74.9848 172.05 75.1486C172.001 75.3125 171.917 75.4639 171.804 75.5927C171.691 75.7214 171.552 75.8246 171.396 75.8953C171.24 75.966 171.071 76.0025 170.899 76.0025C170.728 76.0025 170.559 75.966 170.403 75.8953C170.247 75.8246 170.108 75.7214 169.995 75.5927C169.882 75.4639 169.798 75.3125 169.748 75.1486C169.699 74.9848 169.685 74.8122 169.707 74.6424L169.604 55.0488Z" fill="#717171"/>
<path d="M170.786 75.7826C170.46 75.7772 170.149 75.6437 169.92 75.411C169.691 75.1783 169.563 74.865 169.563 74.5386V55.0487C169.568 54.7149 169.703 54.3963 169.939 54.1602C170.175 53.9242 170.494 53.7892 170.828 53.7839H171.16C171.416 53.7926 171.666 53.8655 171.887 53.9959C172.108 54.1263 172.293 54.3101 172.424 54.5303L185.487 71.1175V54.9865C185.492 54.6527 185.627 54.3341 185.863 54.098C186.099 53.862 186.418 53.727 186.751 53.7217C187.08 53.7324 187.391 53.8704 187.619 54.1065C187.847 54.3425 187.975 54.6581 187.975 54.9865V74.6423C187.98 74.7972 187.954 74.9517 187.898 75.0963C187.842 75.2409 187.757 75.3725 187.649 75.4831C187.54 75.5938 187.41 75.681 187.266 75.7397C187.123 75.7983 186.969 75.827 186.814 75.8241H186.606C186.346 75.8082 186.093 75.7327 185.866 75.6032C185.64 75.4738 185.446 75.294 185.3 75.0777L172.093 57.9099V74.4971C172.087 74.829 171.951 75.1454 171.715 75.3781C171.478 75.6108 171.16 75.7412 170.828 75.7412L170.786 75.7826ZM170.828 53.8461C170.521 53.8514 170.229 53.9755 170.013 54.1921C169.796 54.4087 169.672 54.7009 169.667 55.0072V74.6423C169.667 74.792 169.696 74.9403 169.753 75.0787C169.811 75.217 169.895 75.3427 170.001 75.4486C170.107 75.5545 170.232 75.6385 170.371 75.6958C170.509 75.7531 170.657 75.7826 170.807 75.7826C170.957 75.7826 171.105 75.7531 171.243 75.6958C171.382 75.6385 171.507 75.5545 171.613 75.4486C171.719 75.3427 171.803 75.217 171.861 75.0787C171.918 74.9403 171.947 74.792 171.947 74.6423V57.6404L185.466 74.9118C185.601 75.118 185.782 75.2906 185.994 75.4164C186.206 75.5421 186.444 75.6178 186.689 75.6375H186.814C186.957 75.6406 187.099 75.614 187.232 75.5593C187.364 75.5047 187.484 75.4231 187.583 75.3199C187.683 75.2166 187.76 75.0939 187.809 74.9594C187.859 74.8249 187.88 74.6816 187.871 74.5386V54.9865C187.871 54.684 187.751 54.394 187.537 54.1801C187.323 53.9662 187.033 53.8461 186.731 53.8461C186.428 53.8461 186.138 53.9662 185.924 54.1801C185.711 54.394 185.59 54.684 185.59 54.9865V71.4492V71.3456L172.445 54.5718C172.316 54.3679 172.139 54.1989 171.929 54.0796C171.719 53.9603 171.484 53.8943 171.242 53.8876L170.828 53.8461Z" fill="#717171"/>
<path d="M203.483 56.1892H197.263C196.964 56.1893 196.677 56.072 196.464 55.8626C196.251 55.6532 196.128 55.3684 196.123 55.0696C196.128 54.7688 196.25 54.4818 196.462 54.2691C196.675 54.0564 196.962 53.9345 197.263 53.9292H212.295C212.596 53.9345 212.883 54.0564 213.096 54.2691C213.308 54.4818 213.43 54.7688 213.435 55.0696C213.43 55.3684 213.307 55.6532 213.094 55.8626C212.881 56.072 212.594 56.1893 212.295 56.1892H206.075V74.4973C206.098 74.6727 206.083 74.851 206.031 75.0202C205.98 75.1895 205.893 75.3457 205.776 75.4786C205.659 75.6115 205.515 75.718 205.354 75.791C205.193 75.8639 205.018 75.9016 204.841 75.9016C204.664 75.9016 204.489 75.8639 204.328 75.791C204.167 75.718 204.023 75.6115 203.907 75.4786C203.79 75.3457 203.703 75.1895 203.651 75.0202C203.6 74.851 203.585 74.6727 203.608 74.4973L203.483 56.1892Z" fill="#717171"/>
<path d="M204.727 75.7828C204.386 75.7828 204.059 75.6473 203.818 75.4063C203.577 75.1652 203.442 74.8382 203.442 74.4973V56.2306H197.221C197.067 56.2334 196.914 56.2054 196.771 56.1483C196.627 56.0912 196.497 56.0061 196.387 55.898C196.277 55.7899 196.19 55.661 196.13 55.5187C196.07 55.3765 196.04 55.2238 196.04 55.0695C196.045 54.7578 196.171 54.4602 196.392 54.2397C196.612 54.0193 196.91 53.893 197.221 53.8877H212.254C212.567 53.8928 212.867 54.0184 213.091 54.2383C213.315 54.4583 213.445 54.7559 213.456 55.0695C213.453 55.2247 213.42 55.3779 213.358 55.5203C213.296 55.6626 213.207 55.7914 213.095 55.8992C212.984 56.007 212.852 56.0918 212.707 56.1487C212.563 56.2055 212.409 56.2334 212.254 56.2306H206.033V74.4973C206.033 74.8382 205.898 75.1652 205.657 75.4063C205.416 75.6473 205.089 75.7828 204.748 75.7828H204.727ZM197.201 53.9084C196.913 53.9084 196.636 54.0213 196.431 54.2229C196.225 54.4245 196.107 54.6988 196.102 54.9866C196.102 55.1299 196.13 55.2719 196.186 55.404C196.241 55.5362 196.323 55.656 196.425 55.7564C196.527 55.8568 196.648 55.9358 196.782 55.9887C196.915 56.0417 197.057 56.0675 197.201 56.0648H203.421V74.4143C203.398 74.5841 203.412 74.7567 203.462 74.9206C203.512 75.0844 203.596 75.2358 203.709 75.3646C203.822 75.4934 203.961 75.5965 204.117 75.6672C204.273 75.7379 204.442 75.7745 204.613 75.7745C204.784 75.7745 204.954 75.7379 205.109 75.6672C205.265 75.5965 205.405 75.4934 205.517 75.3646C205.63 75.2358 205.714 75.0844 205.764 74.9206C205.814 74.7567 205.828 74.5841 205.805 74.4143V56.1477H212.025C212.169 56.1505 212.311 56.1246 212.444 56.0717C212.578 56.0187 212.699 55.9397 212.801 55.8393C212.904 55.7389 212.985 55.6192 213.04 55.487C213.096 55.3548 213.124 55.2129 213.124 55.0695C213.119 54.7817 213.001 54.5075 212.795 54.3059C212.59 54.1042 212.313 53.9913 212.025 53.9914L197.201 53.9084Z" fill="#717171"/>
<path d="M221.522 74.3522V55.1732C221.519 55.0126 221.548 54.853 221.607 54.7035C221.666 54.554 221.754 54.4176 221.865 54.3021C221.977 54.1866 222.11 54.0942 222.258 54.0302C222.405 53.9662 222.564 53.9319 222.724 53.9292H236.181C236.478 53.9292 236.762 54.0472 236.972 54.2571C237.182 54.4671 237.3 54.7519 237.3 55.0488C237.3 55.3458 237.182 55.6306 236.972 55.8405C236.762 56.0505 236.478 56.1685 236.181 56.1685H223.927V63.5498H234.771C235.062 63.5603 235.339 63.6823 235.543 63.8906C235.748 64.0989 235.864 64.3776 235.87 64.6694C235.87 64.9628 235.755 65.2445 235.549 65.4539C235.344 65.6633 235.064 65.7836 234.771 65.789H223.927V73.3569H236.367C236.664 73.3569 236.949 73.4749 237.159 73.6849C237.369 73.8948 237.487 74.1796 237.487 74.4766C237.487 74.6226 237.458 74.7673 237.401 74.902C237.345 75.0366 237.262 75.1587 237.158 75.261C237.053 75.3634 236.93 75.4439 236.794 75.4979C236.658 75.5518 236.513 75.5782 236.367 75.5755H222.766C222.606 75.5755 222.448 75.5437 222.301 75.482C222.153 75.4203 222.02 75.3298 221.908 75.216C221.796 75.1021 221.708 74.9671 221.649 74.8187C221.589 74.6704 221.56 74.5118 221.563 74.3522" fill="#717171"/>
<path d="M236.367 75.6376H222.766C222.43 75.627 222.111 75.4875 221.876 75.2482C221.64 75.0088 221.506 74.6879 221.501 74.3521V55.1732C221.501 54.8358 221.634 54.512 221.87 54.2715C222.107 54.031 222.428 53.8931 222.766 53.8877H236.222C236.53 53.8877 236.825 54.01 237.043 54.2278C237.261 54.4455 237.383 54.7409 237.383 55.0488C237.383 55.3567 237.261 55.6521 237.043 55.8698C236.825 56.0876 236.53 56.2099 236.222 56.2099H223.927V63.5083H234.709C235.015 63.5136 235.307 63.6376 235.524 63.8542C235.74 64.0708 235.864 64.3631 235.87 64.6694C235.864 64.9756 235.74 65.2679 235.524 65.4845C235.307 65.7011 235.015 65.8251 234.709 65.8305H223.927V73.3154H236.367C236.675 73.3154 236.971 73.4378 237.188 73.6555C237.406 73.8733 237.528 74.1686 237.528 74.4765C237.528 74.7845 237.406 75.0798 237.188 75.2976C236.971 75.5153 236.675 75.6376 236.367 75.6376V75.6376ZM222.724 53.9084C222.414 53.9139 222.119 54.0408 221.902 54.2618C221.685 54.4829 221.563 54.7804 221.563 55.0903V74.2692C221.563 74.5791 221.685 74.8766 221.902 75.0976C222.119 75.3187 222.414 75.4456 222.724 75.451H236.367C236.528 75.4969 236.697 75.5048 236.861 75.4743C237.025 75.4438 237.179 75.3756 237.313 75.2751C237.446 75.1746 237.554 75.0445 237.628 74.8952C237.703 74.7458 237.742 74.5812 237.742 74.4143C237.742 74.2475 237.703 74.0829 237.628 73.9335C237.554 73.7841 237.446 73.6541 237.313 73.5536C237.179 73.4531 237.025 73.3849 236.861 73.3544C236.697 73.3238 236.528 73.3318 236.367 73.3776H223.927V65.7268H234.812C234.951 65.7268 235.089 65.6994 235.217 65.6463C235.345 65.5932 235.462 65.5153 235.56 65.4171C235.658 65.3189 235.736 65.2023 235.789 65.074C235.842 64.9457 235.87 64.8082 235.87 64.6694C235.865 64.3886 235.752 64.1204 235.555 63.9199C235.359 63.7194 235.093 63.6018 234.812 63.5912H223.927V56.1062H236.201C236.355 56.1371 236.513 56.1335 236.665 56.0957C236.817 56.0579 236.959 55.9868 237.08 55.8876C237.201 55.7884 237.298 55.6636 237.365 55.5221C237.432 55.3807 237.467 55.2261 237.467 55.0695C237.467 54.913 237.432 54.7584 237.365 54.6169C237.298 54.4755 237.201 54.3506 237.08 54.2515C236.959 54.1523 236.817 54.0812 236.665 54.0434C236.513 54.0056 236.355 54.002 236.201 54.0328L222.724 53.9084Z" fill="#717171"/>
<path d="M244.993 64.8143C244.954 63.3544 245.208 61.9015 245.742 60.5419C246.275 59.1822 247.076 57.9436 248.097 56.8993C249.118 55.8551 250.338 55.0266 251.686 54.4629C253.033 53.8992 254.48 53.6119 255.94 53.618C258.781 53.55 261.543 54.5571 263.674 56.4378C263.822 56.5596 263.943 56.7111 264.028 56.8825C264.114 57.054 264.163 57.2415 264.172 57.433C264.156 57.754 264.018 58.057 263.787 58.2803C263.556 58.5037 263.249 58.6307 262.927 58.6356C262.637 58.6262 262.356 58.5326 262.119 58.3661C260.455 56.7482 258.219 55.8538 255.899 55.878C254.767 55.9017 253.651 56.1517 252.618 56.6133C251.584 57.075 250.653 57.7389 249.88 58.566C249.107 59.3931 248.508 60.3665 248.117 61.429C247.726 62.4914 247.552 63.6213 247.605 64.7521V64.7521C247.552 65.887 247.726 67.0211 248.116 68.0882C248.505 69.1553 249.104 70.1342 249.876 70.9679C250.648 71.8015 251.578 72.4732 252.612 72.9439C253.646 73.4145 254.763 73.6747 255.899 73.7092C257.095 73.7255 258.283 73.5007 259.391 73.0483C260.498 72.596 261.504 71.9252 262.347 71.076C262.547 70.8629 262.822 70.7364 263.114 70.7235C263.424 70.7339 263.719 70.8617 263.938 71.0811C264.158 71.3006 264.286 71.5952 264.296 71.9053C264.295 72.072 264.257 72.2363 264.185 72.3868C264.114 72.5372 264.01 72.6701 263.881 72.7762C262.822 73.8176 261.563 74.6352 260.181 75.1802C258.799 75.7252 257.322 75.9865 255.836 75.9485C254.385 75.9576 252.947 75.6737 251.608 75.1137C250.269 74.5537 249.057 73.7291 248.045 72.6895C247.032 71.6498 246.24 70.4164 245.715 69.0632C245.191 67.71 244.945 66.2648 244.993 64.8143" fill="#717171"/>
<path d="M255.836 76.0109C254.384 76.0259 252.944 75.745 251.603 75.1853C250.263 74.6257 249.051 73.799 248.04 72.7556C246.014 70.6116 244.899 67.7646 244.93 64.8145V64.8145C244.911 61.8728 246.024 59.0364 248.04 56.8941C249.061 55.8316 250.289 54.9892 251.647 54.4187C253.006 53.8482 254.467 53.5617 255.94 53.5767C258.788 53.5035 261.559 54.5109 263.695 56.3965C263.85 56.5218 263.977 56.6793 264.067 56.8582C264.156 57.0371 264.206 57.2333 264.213 57.4332C264.197 57.7652 264.055 58.0787 263.816 58.3098C263.578 58.5409 263.26 58.6723 262.927 58.6772C262.628 58.6646 262.34 58.5636 262.098 58.387C260.427 56.7824 258.194 55.8967 255.878 55.9196C254.762 55.9145 253.658 56.1403 252.634 56.5827C251.609 57.0252 250.688 57.6748 249.927 58.4906C248.373 60.1871 247.521 62.4103 247.543 64.7108V64.7108C247.508 67.0484 248.369 69.3107 249.948 71.0347C250.703 71.852 251.621 72.5027 252.642 72.9454C253.663 73.3881 254.765 73.613 255.878 73.6057C257.067 73.6275 258.248 73.4071 259.35 72.9579C260.451 72.5088 261.45 71.8404 262.285 70.9932C262.497 70.7739 262.788 70.6473 263.093 70.6407C263.414 70.6511 263.72 70.7833 263.947 71.0105C264.174 71.2377 264.306 71.5429 264.317 71.8641C264.314 72.0335 264.276 72.2005 264.204 72.3542C264.133 72.5078 264.03 72.6446 263.902 72.7556C262.841 73.8096 261.577 74.6378 260.188 75.1902C258.798 75.7425 257.311 76.0076 255.816 75.9694L255.836 76.0109ZM255.816 53.5767C254.355 53.5611 252.907 53.8436 251.559 54.4069C250.212 54.9702 248.993 55.8024 247.978 56.8526C245.985 58.9812 244.886 61.7947 244.91 64.7108C244.874 67.6353 245.974 70.4595 247.978 72.5897C248.983 73.6209 250.186 74.4374 251.515 74.9898C252.845 75.5422 254.272 75.8191 255.712 75.8035C257.194 75.8399 258.668 75.5778 260.046 75.0328C261.425 74.4878 262.68 73.6711 263.736 72.6312C263.852 72.526 263.945 72.398 264.009 72.2553C264.073 72.1127 264.107 71.9583 264.109 71.8019C264.094 71.5098 263.971 71.2336 263.765 71.0268C263.558 70.82 263.282 70.6972 262.99 70.6822C262.709 70.6829 262.441 70.7948 262.243 70.9932C261.402 71.8526 260.395 72.5312 259.282 72.9876C258.17 73.4439 256.976 73.6684 255.774 73.6472C254.646 73.6506 253.529 73.4202 252.494 72.9706C251.459 72.5209 250.529 71.8618 249.761 71.0347C248.18 69.2872 247.321 67.005 247.356 64.6486V64.6486C247.322 62.3111 248.182 60.0488 249.761 58.3248C250.527 57.4974 251.458 56.8394 252.494 56.3931C253.529 55.9467 254.647 55.7219 255.774 55.733C258.093 55.72 260.324 56.6128 261.994 58.2211C262.219 58.3822 262.485 58.4757 262.761 58.4906C263.071 58.4907 263.369 58.369 263.59 58.1518C263.811 57.9347 263.938 57.6394 263.943 57.3295C263.939 57.1451 263.895 56.9639 263.812 56.799C263.73 56.634 263.612 56.4895 263.466 56.3758C261.352 54.498 258.601 53.497 255.774 53.5767" fill="#717171"/>
<path d="M272.486 55.0072C272.486 54.6828 272.615 54.3716 272.844 54.1422C273.074 53.9128 273.385 53.7839 273.709 53.7839C274.034 53.7839 274.345 53.9128 274.574 54.1422C274.804 54.3716 274.932 54.6828 274.932 55.0072V63.5496H287.373V55.0072C287.373 54.6828 287.502 54.3716 287.731 54.1422C287.961 53.9128 288.272 53.7839 288.596 53.7839C288.921 53.7839 289.232 53.9128 289.461 54.1422C289.691 54.3716 289.819 54.6828 289.819 55.0072V74.4972C289.819 74.8216 289.691 75.1328 289.461 75.3622C289.232 75.5916 288.921 75.7205 288.596 75.7205C288.272 75.7205 287.961 75.5916 287.731 75.3622C287.502 75.1328 287.373 74.8216 287.373 74.4972V65.8511H274.932V74.4972C274.932 74.8216 274.804 75.1328 274.574 75.3622C274.345 75.5916 274.034 75.7205 273.709 75.7205C273.385 75.7205 273.074 75.5916 272.844 75.3622C272.615 75.1328 272.486 74.8216 272.486 74.4972V55.0072Z" fill="#717171"/>
<path d="M288.658 75.7825C288.318 75.7825 287.991 75.647 287.749 75.406C287.508 75.1649 287.373 74.8379 287.373 74.497V65.8924H274.933V74.497C274.933 74.8379 274.797 75.1649 274.556 75.406C274.315 75.647 273.988 75.7825 273.647 75.7825C273.481 75.7798 273.317 75.7444 273.165 75.6783C273.012 75.6122 272.874 75.5168 272.759 75.3974C272.643 75.2781 272.552 75.1371 272.491 74.9826C272.43 74.8281 272.4 74.6631 272.403 74.497V55.007C272.403 54.6716 272.536 54.3499 272.773 54.1127C273.011 53.8755 273.332 53.7423 273.668 53.7423C274.003 53.7423 274.325 53.8755 274.562 54.1127C274.799 54.3499 274.933 54.6716 274.933 55.007V63.508H287.373V55.007C287.35 54.8259 287.366 54.642 287.419 54.4674C287.473 54.2929 287.563 54.1317 287.683 53.9947C287.804 53.8576 287.952 53.7479 288.119 53.6727C288.285 53.5975 288.466 53.5586 288.648 53.5586C288.831 53.5586 289.011 53.5975 289.178 53.6727C289.344 53.7479 289.492 53.8576 289.613 53.9947C289.734 54.1317 289.824 54.2929 289.877 54.4674C289.931 54.642 289.946 54.8259 289.923 55.007V74.497C289.923 74.8344 289.791 75.1582 289.554 75.3987C289.317 75.6392 288.996 75.777 288.658 75.7825V75.7825ZM274.891 65.7887H287.477V74.497C287.454 74.6639 287.468 74.8336 287.517 74.9948C287.565 75.156 287.648 75.305 287.759 75.4317C287.87 75.5584 288.007 75.6599 288.16 75.7295C288.313 75.799 288.48 75.835 288.648 75.835C288.816 75.835 288.983 75.799 289.136 75.7295C289.29 75.6599 289.426 75.5584 289.537 75.4317C289.648 75.305 289.731 75.156 289.779 74.9948C289.828 74.8336 289.842 74.6639 289.82 74.497V55.007C289.842 54.8401 289.828 54.6704 289.779 54.5092C289.731 54.348 289.648 54.199 289.537 54.0723C289.426 53.9456 289.29 53.8441 289.136 53.7745C288.983 53.705 288.816 53.669 288.648 53.669C288.48 53.669 288.313 53.705 288.16 53.7745C288.007 53.8441 287.87 53.9456 287.759 54.0723C287.648 54.199 287.565 54.348 287.517 54.5092C287.468 54.6704 287.454 54.8401 287.477 55.007V63.5909H274.891V55.007C274.891 54.8518 274.86 54.6981 274.801 54.5548C274.742 54.4114 274.655 54.2811 274.545 54.1713C274.435 54.0616 274.305 53.9745 274.162 53.9152C274.018 53.8558 273.864 53.8252 273.709 53.8252C273.554 53.8252 273.4 53.8558 273.257 53.9152C273.114 53.9745 272.983 54.0616 272.874 54.1713C272.764 54.2811 272.677 54.4114 272.617 54.5548C272.558 54.6981 272.527 54.8518 272.527 55.007V74.497C272.527 74.6522 272.558 74.8059 272.617 74.9492C272.677 75.0926 272.764 75.2229 272.874 75.3327C272.983 75.4424 273.114 75.5295 273.257 75.5889C273.4 75.6482 273.554 75.6788 273.709 75.6788C273.864 75.6788 274.018 75.6482 274.162 75.5889C274.305 75.5295 274.435 75.4424 274.545 75.3327C274.655 75.2229 274.742 75.0926 274.801 74.9492C274.86 74.8059 274.891 74.6522 274.891 74.497V65.7887Z" fill="#717171"/>
<path d="M46.1751 83.0395C47.6276 83.0436 49.0487 82.6166 50.2585 81.8126C51.4682 81.0086 52.4122 79.8637 52.9709 78.5229C53.5297 77.1821 53.678 75.7056 53.3971 74.2805C53.1162 72.8553 52.4188 71.5456 51.3932 70.517C50.3675 69.4884 49.0597 68.7873 47.6354 68.5024C46.211 68.2175 44.7342 68.3617 43.3918 68.9166C42.0494 69.4715 40.9018 70.4123 40.0944 71.6197C39.287 72.8272 38.856 74.2471 38.856 75.6997C38.8559 77.6427 39.6264 79.5065 40.9984 80.8824C42.3704 82.2583 44.232 83.034 46.1751 83.0395Z" fill="#717171"/>
<path d="M50.0105 1.07961e-05C41.606 -0.00551208 33.3358 2.10802 25.9645 6.14521C18.5932 10.1824 12.3587 16.0129 7.83753 23.0977H22.455C22.761 20.6419 23.9919 18.3953 25.8967 16.8154C27.8015 15.2355 30.237 14.4414 32.707 14.5947C35.177 14.748 37.4956 15.8373 39.1905 17.6406C40.8853 19.4439 41.8288 21.8255 41.8288 24.3002C41.8288 26.775 40.8853 29.1566 39.1905 30.9599C37.4956 32.7632 35.177 33.8525 32.707 34.0058C30.237 34.1591 27.8015 33.3649 25.8967 31.7851C23.9919 30.2052 22.761 27.9586 22.455 25.5028H6.40689C3.81358 30.094 1.97257 35.071 0.95385 40.2447H44.2671C44.5707 37.7822 45.8021 35.5282 47.7103 33.9423C49.6184 32.3565 52.0597 31.5582 54.5361 31.7102C57.0126 31.8623 59.3378 32.9532 61.0377 34.7606C62.7375 36.568 63.6839 38.9557 63.6839 41.4369C63.6839 43.918 62.7375 46.3057 61.0377 48.1131C59.3378 49.9205 57.0126 51.0115 54.5361 51.1635C52.0597 51.3156 49.6184 50.5173 47.7103 48.9314C45.8021 47.3456 44.5707 45.0916 44.2671 42.6291H0.53917C-0.179723 47.5167 -0.179723 52.4833 0.53917 57.3709H66.8879C67.194 54.9152 68.4248 52.6685 70.3296 51.0887C72.2344 49.5088 74.67 48.7146 77.1399 48.868C79.6099 49.0213 81.9285 50.1105 83.6234 51.9138C85.3182 53.7171 86.2617 56.0988 86.2617 58.5735C86.2617 61.0483 85.3182 63.4299 83.6234 65.2332C81.9285 67.0365 79.6099 68.1258 77.1399 68.2791C74.67 68.4324 72.2344 67.6382 70.3296 66.0584C68.4248 64.4785 67.194 62.2318 66.8879 59.7761H0.95385C1.97907 64.9479 3.81971 69.9239 6.40689 74.5179H36.5334C36.8369 72.0554 38.0683 69.8015 39.9765 68.2156C41.8847 66.6297 44.3259 65.8314 46.8024 65.9835C49.2788 66.1356 51.6041 67.2265 53.3039 69.0339C55.0037 70.8413 55.9501 73.229 55.9501 75.7101C55.9501 78.1913 55.0037 80.579 53.3039 82.3864C51.6041 84.1938 49.2788 85.2847 46.8024 85.4368C44.3259 85.5889 41.8847 84.7906 39.9765 83.2047C38.0683 81.6189 36.8369 79.3649 36.5334 76.9024H7.83753C12.5076 84.2246 19.0039 90.2045 26.6871 94.2534C34.3703 98.3023 42.9755 100.281 51.6555 99.9934C60.3355 99.7063 68.7911 97.1637 76.1899 92.616C83.5888 88.0683 89.6758 81.6721 93.8517 74.0573C98.0277 66.4424 100.149 57.8713 100.006 49.1878C99.8629 40.5042 97.4612 32.0075 93.037 24.5341C88.6128 17.0607 82.3187 10.8683 74.7743 6.5664C67.2299 2.2645 58.6952 0.00144578 50.0105 1.07961e-05" fill="#717171"/>
<path d="M53.9081 48.7663C55.3624 48.7704 56.7852 48.3423 57.9958 47.5365C59.2064 46.7306 60.1504 45.5833 60.7079 44.24C61.2653 42.8968 61.4112 41.4182 61.127 39.992C60.8427 38.5657 60.1412 37.256 59.1114 36.2291C58.0816 35.2022 56.7699 34.5044 55.3428 34.2242C53.9157 33.944 52.4376 34.0941 51.0959 34.6553C49.7543 35.2166 48.6096 36.1638 47.8072 37.3768C47.0048 38.5897 46.5808 40.0136 46.589 41.4679C46.5999 43.4038 47.3752 45.257 48.746 46.6239C50.1168 47.9908 51.9722 48.7609 53.9081 48.7663" fill="#717171"/>
<path d="M76.5088 65.9133C77.9605 65.9133 79.3795 65.4828 80.5866 64.6763C81.7936 63.8698 82.7343 62.7235 83.2899 61.3823C83.8454 60.0411 83.9908 58.5653 83.7076 57.1415C83.4244 55.7178 82.7253 54.4099 81.6988 53.3834C80.6723 52.3569 79.3645 51.6579 77.9407 51.3747C76.5169 51.0915 75.0411 51.2368 73.6999 51.7924C72.3588 52.3479 71.2124 53.2887 70.4059 54.4957C69.5994 55.7027 69.1689 57.1218 69.1689 58.5735C69.1744 60.5184 69.9495 62.3822 71.3248 63.7575C72.7001 65.1328 74.5638 65.9078 76.5088 65.9133" fill="#717171"/>
<path d="M32.0967 31.6399C33.5483 31.6399 34.9674 31.2094 36.1745 30.4029C37.3815 29.5964 38.3223 28.45 38.8778 27.1089C39.4333 25.7677 39.5787 24.2919 39.2955 22.8681C39.0123 21.4443 38.3132 20.1365 37.2867 19.11C36.2602 18.0835 34.9524 17.3845 33.5286 17.1012C32.1048 16.818 30.629 16.9634 29.2878 17.5189C27.9467 18.0745 26.8003 19.0152 25.9938 20.2222C25.1873 21.4293 24.7568 22.8484 24.7568 24.3C24.7568 26.2467 25.5301 28.1136 26.9066 29.4901C28.2831 30.8666 30.15 31.6399 32.0967 31.6399Z" fill="#717171"/>
</svg>
