<svg width="159" height="96" viewBox="0 0 159 96" fill="none" xmlns="http://www.w3.org/2000/svg">
<path d="M16.88 37.52V79H4.48V37.52H16.88ZM18.16 26.16C18.16 27.1467 17.96 28.08 17.56 28.96C17.16 29.8133 16.6133 30.5733 15.92 31.24C15.2267 31.88 14.4133 32.4 13.48 32.8C12.5733 33.1733 11.6 33.36 10.56 33.36C9.54667 33.36 8.6 33.1733 7.72 32.8C6.84 32.4 6.05333 31.88 5.36 31.24C4.69333 30.5733 4.16 29.8133 3.76 28.96C3.38667 28.08 3.2 27.1467 3.2 26.16C3.2 25.1467 3.38667 24.2 3.76 23.32C4.16 22.44 4.69333 21.6667 5.36 21C6.05333 20.3333 6.84 19.8133 7.72 19.44C8.6 19.0667 9.54667 18.88 10.56 18.88C11.6 18.88 12.5733 19.0667 13.48 19.44C14.4133 19.8133 15.2267 20.3333 15.92 21C16.6133 21.6667 17.16 22.44 17.56 23.32C17.96 24.2 18.16 25.1467 18.16 26.16ZM54.4213 48.8H75.1413V73.4C72.1546 75.5867 68.9679 77.1733 65.5813 78.16C62.2213 79.1467 58.7013 79.64 55.0213 79.64C50.2213 79.64 45.8479 78.8933 41.9012 77.4C37.9813 75.88 34.6213 73.8 31.8213 71.16C29.0213 68.4933 26.8613 65.3467 25.3413 61.72C23.8213 58.0667 23.0613 54.1067 23.0613 49.84C23.0613 45.4933 23.7813 41.5067 25.2213 37.88C26.6613 34.2267 28.7146 31.08 31.3813 28.44C34.0746 25.8 37.3146 23.7467 41.1013 22.28C44.9146 20.8133 49.1679 20.08 53.8613 20.08C56.2879 20.08 58.5679 20.28 60.7013 20.68C62.8346 21.08 64.7946 21.6267 66.5813 22.32C68.3946 23.0133 70.0479 23.84 71.5413 24.8C73.0346 25.76 74.3679 26.8 75.5413 27.92L71.6213 33.88C71.0079 34.8133 70.2079 35.3867 69.2213 35.6C68.2613 35.8133 67.2213 35.5733 66.1013 34.88C65.0346 34.24 64.0213 33.6933 63.0613 33.24C62.1279 32.76 61.1679 32.3733 60.1813 32.08C59.1946 31.7867 58.1546 31.5733 57.0613 31.44C55.9679 31.3067 54.7413 31.24 53.3813 31.24C50.8479 31.24 48.5679 31.6933 46.5413 32.6C44.5146 33.48 42.7813 34.7333 41.3412 36.36C39.9279 37.9867 38.8346 39.9467 38.0613 42.24C37.2879 44.5067 36.9013 47.04 36.9013 49.84C36.9013 52.9333 37.3279 55.68 38.1813 58.08C39.0346 60.48 40.2346 62.5067 41.7813 64.16C43.3546 65.8133 45.2213 67.08 47.3813 67.96C49.5679 68.8133 51.9813 69.24 54.6213 69.24C56.2479 69.24 57.7146 69.08 59.0213 68.76C60.3546 68.44 61.6479 68.0133 62.9013 67.48V58.64H57.1413C56.2879 58.64 55.6213 58.4133 55.1413 57.96C54.6613 57.5067 54.4213 56.9333 54.4213 56.24V48.8ZM107.274 68.8C109.06 68.8 110.514 68.5733 111.634 68.12C112.78 67.6667 113.674 67.08 114.314 66.36C114.954 65.64 115.394 64.8267 115.634 63.92C115.874 63.0133 115.994 62.0933 115.994 61.16C115.994 60.0933 115.847 59.1333 115.554 58.28C115.287 57.4267 114.807 56.7067 114.114 56.12C113.447 55.5333 112.554 55.08 111.434 54.76C110.314 54.44 108.9 54.28 107.194 54.28H97.7538V68.8H107.274ZM97.7538 30.84V45.24H104.794C106.287 45.24 107.634 45.1333 108.834 44.92C110.034 44.7067 111.047 44.3333 111.874 43.8C112.727 43.2667 113.367 42.5333 113.794 41.6C114.247 40.6667 114.474 39.4933 114.474 38.08C114.474 36.6933 114.3 35.5467 113.954 34.64C113.607 33.7067 113.074 32.96 112.354 32.4C111.634 31.84 110.714 31.44 109.594 31.2C108.5 30.96 107.194 30.84 105.674 30.84H97.7538ZM105.674 20.72C109.7 20.72 113.127 21.0933 115.954 21.84C118.78 22.5867 121.087 23.64 122.874 25C124.66 26.36 125.954 28.0133 126.754 29.96C127.58 31.9067 127.994 34.08 127.994 36.48C127.994 37.7867 127.807 39.0533 127.434 40.28C127.06 41.48 126.474 42.6133 125.674 43.68C124.874 44.72 123.847 45.68 122.594 46.56C121.34 47.44 119.834 48.2 118.074 48.84C121.914 49.7733 124.754 51.28 126.594 53.36C128.434 55.44 129.354 58.1333 129.354 61.44C129.354 63.92 128.874 66.2267 127.914 68.36C126.954 70.4933 125.54 72.36 123.674 73.96C121.834 75.5333 119.554 76.7733 116.834 77.68C114.114 78.56 111.007 79 107.514 79H84.2338V20.72H105.674Z" fill="black"/>
<circle cx="148" cy="22" r="11" fill="black"/>
<path d="M143.624 24.5547C143.624 23.9629 143.788 23.415 144.116 22.9111C144.45 22.4072 145.06 21.8477 145.944 21.2324C145.563 20.7227 145.265 20.2451 145.048 19.7998C144.831 19.3486 144.723 18.8799 144.723 18.3936C144.723 17.3975 145.036 16.5889 145.663 15.9678C146.296 15.3408 147.146 15.0273 148.212 15.0273C149.167 15.0273 149.949 15.3115 150.559 15.8799C151.174 16.4482 151.481 17.1572 151.481 18.0068C151.481 19.0264 150.966 19.9258 149.935 20.7051L148.95 21.417L151.156 23.9834C151.502 23.3037 151.675 22.5537 151.675 21.7334H153.837C153.837 23.3975 153.453 24.7451 152.686 25.7764L154.602 28H151.719L151.06 27.2441C150.116 27.8652 149.032 28.1758 147.808 28.1758C146.542 28.1758 145.528 27.8447 144.767 27.1826C144.005 26.5146 143.624 25.6387 143.624 24.5547ZM147.931 26.1367C148.54 26.1367 149.117 25.9668 149.662 25.627L147.14 22.709L146.955 22.8408C146.434 23.2861 146.173 23.8105 146.173 24.4141C146.173 24.9238 146.334 25.3398 146.656 25.6621C146.984 25.9785 147.409 26.1367 147.931 26.1367ZM146.999 18.3584C146.999 18.7979 147.257 19.3516 147.772 20.0195L148.449 19.5713C148.795 19.3486 149.032 19.1318 149.161 18.9209C149.296 18.71 149.363 18.458 149.363 18.165C149.363 17.8721 149.255 17.6172 149.038 17.4004C148.821 17.1836 148.543 17.0752 148.203 17.0752C147.84 17.0752 147.547 17.1924 147.324 17.4268C147.107 17.6611 146.999 17.9717 146.999 18.3584Z" fill="white"/>
</svg>
