<svg width="198" height="120" viewBox="0 0 198 120" fill="none" xmlns="http://www.w3.org/2000/svg">
<path d="M21.1 47.15V99H5.6V47.15H21.1ZM22.7 32.95C22.7 34.1833 22.45 35.35 21.95 36.45C21.45 37.5167 20.7667 38.4667 19.9 39.3C19.0333 40.1 18.0167 40.75 16.85 41.25C15.7167 41.7167 14.5 41.95 13.2 41.95C11.9333 41.95 10.75 41.7167 9.65 41.25C8.55 40.75 7.56667 40.1 6.7 39.3C5.86667 38.4667 5.2 37.5167 4.7 36.45C4.23333 35.35 4 34.1833 4 32.95C4 31.6833 4.23333 30.5 4.7 29.4C5.2 28.3 5.86667 27.3333 6.7 26.5C7.56667 25.6667 8.55 25.0167 9.65 24.55C10.75 24.0833 11.9333 23.85 13.2 23.85C14.5 23.85 15.7167 24.0833 16.85 24.55C18.0167 25.0167 19.0333 25.6667 19.9 26.5C20.7667 27.3333 21.45 28.3 21.95 29.4C22.45 30.5 22.7 31.6833 22.7 32.95ZM68.0266 61.25H93.9266V92C90.1932 94.7333 86.2099 96.7167 81.9766 97.95C77.7766 99.1833 73.3766 99.8 68.7766 99.8C62.7766 99.8 57.3099 98.8667 52.3766 97C47.4766 95.1 43.2766 92.5 39.7766 89.2C36.2766 85.8667 33.5766 81.9333 31.6766 77.4C29.7766 72.8333 28.8266 67.8833 28.8266 62.55C28.8266 57.1167 29.7266 52.1333 31.5266 47.6C33.3266 43.0333 35.8932 39.1 39.2266 35.8C42.5932 32.5 46.6432 29.9333 51.3766 28.1C56.1432 26.2667 61.4599 25.35 67.3266 25.35C70.3599 25.35 73.2099 25.6 75.8766 26.1C78.5432 26.6 80.9932 27.2833 83.2266 28.15C85.4932 29.0167 87.5599 30.05 89.4266 31.25C91.2932 32.45 92.9599 33.75 94.4266 35.15L89.5266 42.6C88.7599 43.7667 87.7599 44.4833 86.5266 44.75C85.3266 45.0167 84.0266 44.7167 82.6266 43.85C81.2932 43.05 80.0266 42.3667 78.8266 41.8C77.6599 41.2 76.4599 40.7167 75.2266 40.35C73.9932 39.9833 72.6932 39.7167 71.3266 39.55C69.9599 39.3833 68.4266 39.3 66.7266 39.3C63.5599 39.3 60.7099 39.8667 58.1766 41C55.6432 42.1 53.4766 43.6667 51.6766 45.7C49.9099 47.7333 48.5432 50.1833 47.5766 53.05C46.6099 55.8833 46.1266 59.05 46.1266 62.55C46.1266 66.4167 46.6599 69.85 47.7266 72.85C48.7932 75.85 50.2932 78.3833 52.2266 80.45C54.1932 82.5167 56.5266 84.1 59.2266 85.2C61.9599 86.2667 64.9766 86.8 68.2766 86.8C70.3099 86.8 72.1432 86.6 73.7766 86.2C75.4432 85.8 77.0599 85.2667 78.6266 84.6V73.55H71.4266C70.3599 73.55 69.5266 73.2667 68.9266 72.7C68.3266 72.1333 68.0266 71.4167 68.0266 70.55V61.25ZM134.092 86.25C136.326 86.25 138.142 85.9667 139.542 85.4C140.976 84.8333 142.092 84.1 142.892 83.2C143.692 82.3 144.242 81.2833 144.542 80.15C144.842 79.0167 144.992 77.8667 144.992 76.7C144.992 75.3667 144.809 74.1667 144.442 73.1C144.109 72.0333 143.509 71.1333 142.642 70.4C141.809 69.6667 140.692 69.1 139.292 68.7C137.892 68.3 136.126 68.1 133.992 68.1H122.192V86.25H134.092ZM122.192 38.8V56.8H130.992C132.859 56.8 134.542 56.6667 136.042 56.4C137.542 56.1333 138.809 55.6667 139.842 55C140.909 54.3333 141.709 53.4167 142.242 52.25C142.809 51.0833 143.092 49.6167 143.092 47.85C143.092 46.1167 142.876 44.6833 142.442 43.55C142.009 42.3833 141.342 41.45 140.442 40.75C139.542 40.05 138.392 39.55 136.992 39.25C135.626 38.95 133.992 38.8 132.092 38.8H122.192ZM132.092 26.15C137.126 26.15 141.409 26.6167 144.942 27.55C148.476 28.4833 151.359 29.8 153.592 31.5C155.826 33.2 157.442 35.2667 158.442 37.7C159.476 40.1333 159.992 42.85 159.992 45.85C159.992 47.4833 159.759 49.0667 159.292 50.6C158.826 52.1 158.092 53.5167 157.092 54.85C156.092 56.15 154.809 57.35 153.242 58.45C151.676 59.55 149.792 60.5 147.592 61.3C152.392 62.4667 155.942 64.35 158.242 66.95C160.542 69.55 161.692 72.9167 161.692 77.05C161.692 80.15 161.092 83.0333 159.892 85.7C158.692 88.3667 156.926 90.7 154.592 92.7C152.292 94.6667 149.442 96.2167 146.042 97.35C142.642 98.45 138.759 99 134.392 99H105.292V26.15H132.092Z" fill="black"/>
<circle cx="184" cy="24" r="14" fill="black"/>
<path d="M178.763 26.7891C178.763 26.0658 178.963 25.3962 179.364 24.7803C179.772 24.1644 180.517 23.4805 181.599 22.7285C181.133 22.1055 180.768 21.5218 180.503 20.9775C180.238 20.4261 180.105 19.8532 180.105 19.2588C180.105 18.0413 180.489 17.0531 181.255 16.2939C182.028 15.5277 183.067 15.1445 184.37 15.1445C185.537 15.1445 186.493 15.4919 187.238 16.1865C187.99 16.8812 188.366 17.7477 188.366 18.7861C188.366 20.0322 187.736 21.1315 186.476 22.084L185.272 22.9541L187.969 26.0908C188.391 25.2601 188.603 24.3434 188.603 23.3408H191.245C191.245 25.3747 190.776 27.0218 189.838 28.2822L192.18 31H188.656L187.851 30.0762C186.698 30.8353 185.373 31.2148 183.876 31.2148C182.329 31.2148 181.09 30.8102 180.159 30.001C179.228 29.1846 178.763 28.1139 178.763 26.7891ZM184.026 28.7227C184.771 28.7227 185.477 28.515 186.143 28.0996L183.06 24.5332L182.834 24.6943C182.197 25.2386 181.878 25.8796 181.878 26.6172C181.878 27.2402 182.075 27.7487 182.469 28.1426C182.87 28.5293 183.389 28.7227 184.026 28.7227ZM182.888 19.2158C182.888 19.7529 183.203 20.4297 183.833 21.2461L184.66 20.6982C185.083 20.4261 185.373 20.1611 185.53 19.9033C185.695 19.6455 185.777 19.3376 185.777 18.9795C185.777 18.6214 185.645 18.3099 185.38 18.0449C185.115 17.7799 184.775 17.6475 184.359 17.6475C183.915 17.6475 183.557 17.7907 183.285 18.0771C183.02 18.3636 182.888 18.7432 182.888 19.2158Z" fill="white"/>
</svg>
