<svg width="151" height="59" viewBox="0 0 151 59" fill="none" xmlns="http://www.w3.org/2000/svg">
<path d="M31.6328 42.8828C31.6328 40.8776 30.9167 39.3151 29.4844 38.1953C28.0781 37.0755 25.5911 35.9167 22.0234 34.7188C18.4557 33.5208 15.5391 32.362 13.2734 31.2422C5.90365 27.6224 2.21875 22.6484 2.21875 16.3203C2.21875 13.1693 3.13021 10.3958 4.95312 8C6.80208 5.57812 9.40625 3.70312 12.7656 2.375C16.125 1.02083 19.901 0.34375 24.0938 0.34375C28.1823 0.34375 31.8411 1.07292 35.0703 2.53125C38.3255 3.98958 40.8516 6.07292 42.6484 8.78125C44.4453 11.4635 45.3438 14.5365 45.3438 18H31.6719C31.6719 15.6823 30.9557 13.8854 29.5234 12.6094C28.1172 11.3333 26.2031 10.6953 23.7812 10.6953C21.3333 10.6953 19.3932 11.2422 17.9609 12.3359C16.5547 13.4036 15.8516 14.7708 15.8516 16.4375C15.8516 17.8958 16.6328 19.224 18.1953 20.4219C19.7578 21.5938 22.5052 22.8177 26.4375 24.0938C30.3698 25.3438 33.599 26.6979 36.125 28.1562C42.2708 31.6979 45.3438 36.5807 45.3438 42.8047C45.3438 47.7786 43.4688 51.6849 39.7188 54.5234C35.9688 57.362 30.8255 58.7812 24.2891 58.7812C19.6797 58.7812 15.5 57.9609 11.75 56.3203C8.02604 54.6536 5.21354 52.388 3.3125 49.5234C1.4375 46.6328 0.5 43.3125 0.5 39.5625H14.25C14.25 42.6094 15.0312 44.862 16.5938 46.3203C18.1823 47.7526 20.7474 48.4688 24.2891 48.4688C26.5547 48.4688 28.3385 47.987 29.6406 47.0234C30.9688 46.0339 31.6328 44.6536 31.6328 42.8828ZM52.375 58V1.125H72.8047C80.1224 1.125 85.6823 2.46615 89.4844 5.14844C93.3125 7.83073 95.2266 11.724 95.2266 16.8281C95.2266 19.7708 94.5495 22.2839 93.1953 24.3672C91.8411 26.4505 89.849 27.987 87.2188 28.9766C90.1875 29.7578 92.4661 31.2161 94.0547 33.3516C95.6432 35.487 96.4375 38.0911 96.4375 41.1641C96.4375 46.737 94.6667 50.9297 91.125 53.7422C87.6094 56.5286 82.388 57.9479 75.4609 58H52.375ZM66.0859 33.8203V47.4531H75.0703C77.5443 47.4531 79.4453 46.8932 80.7734 45.7734C82.1016 44.6276 82.7656 43.026 82.7656 40.9688C82.7656 36.2292 80.4089 33.8464 75.6953 33.8203H66.0859ZM66.0859 24.8359H73.2344C76.2292 24.8099 78.3646 24.263 79.6406 23.1953C80.9167 22.1276 81.5547 20.5521 81.5547 18.4688C81.5547 16.0729 80.8646 14.3542 79.4844 13.3125C78.1042 12.2448 75.8776 11.7109 72.8047 11.7109H66.0859V24.8359ZM150.031 38.7422C149.849 42.7005 148.781 46.2031 146.828 49.25C144.875 52.2708 142.128 54.6146 138.586 56.2812C135.07 57.9479 131.047 58.7812 126.516 58.7812C119.042 58.7812 113.156 56.3464 108.859 51.4766C104.562 46.6068 102.414 39.7318 102.414 30.8516V28.0391C102.414 22.4661 103.378 17.5964 105.305 13.4297C107.258 9.23698 110.057 6.00781 113.703 3.74219C117.349 1.45052 121.568 0.304688 126.359 0.304688C133.26 0.304688 138.807 2.1276 143 5.77344C147.193 9.39323 149.576 14.3932 150.148 20.7734H136.477C136.372 17.3099 135.5 14.8229 133.859 13.3125C132.219 11.8021 129.719 11.0469 126.359 11.0469C122.948 11.0469 120.448 12.3229 118.859 14.875C117.271 17.4271 116.438 21.5026 116.359 27.1016V31.125C116.359 37.1927 117.115 41.5286 118.625 44.1328C120.161 46.737 122.792 48.0391 126.516 48.0391C129.667 48.0391 132.076 47.2969 133.742 45.8125C135.409 44.3281 136.294 41.9714 136.398 38.7422H150.031Z" fill="black"/>
</svg>
