<svg width="188" height="74" viewBox="0 0 188 74" fill="none" xmlns="http://www.w3.org/2000/svg">
<path d="M39.041 54.1035C39.041 51.597 38.1458 49.6439 36.3555 48.2441C34.5977 46.8444 31.4889 45.3958 27.0293 43.8984C22.5697 42.401 18.9238 40.9525 16.0918 39.5527C6.87956 35.028 2.27344 28.8105 2.27344 20.9004C2.27344 16.9616 3.41276 13.4948 5.69141 10.5C8.0026 7.47266 11.2578 5.12891 15.457 3.46875C19.6562 1.77604 24.3763 0.929688 29.6172 0.929688C34.7279 0.929688 39.3014 1.84115 43.3379 3.66406C47.4069 5.48698 50.5645 8.09115 52.8105 11.4766C55.0566 14.8294 56.1797 18.6706 56.1797 23H39.0898C39.0898 20.1029 38.1947 17.8568 36.4043 16.2617C34.6465 14.6667 32.2539 13.8691 29.2266 13.8691C26.1667 13.8691 23.7415 14.5527 21.9512 15.9199C20.1934 17.2546 19.3145 18.9635 19.3145 21.0469C19.3145 22.8698 20.291 24.5299 22.2441 26.0273C24.1973 27.4922 27.6315 29.0221 32.5469 30.6172C37.4622 32.1797 41.4987 33.8724 44.6562 35.6953C52.3385 40.1224 56.1797 46.2259 56.1797 54.0059C56.1797 60.2233 53.8359 65.1061 49.1484 68.6543C44.4609 72.2025 38.0319 73.9766 29.8613 73.9766C24.0996 73.9766 18.875 72.9512 14.1875 70.9004C9.53255 68.8171 6.01693 65.985 3.64062 62.4043C1.29688 58.791 0.125 54.6406 0.125 49.9531H17.3125C17.3125 53.7617 18.2891 56.5775 20.2422 58.4004C22.2279 60.1908 25.4342 61.0859 29.8613 61.0859C32.6934 61.0859 34.9232 60.4837 36.5508 59.2793C38.2109 58.0423 39.041 56.3171 39.041 54.1035ZM64.9688 73V1.90625H90.5059C99.653 1.90625 106.603 3.58268 111.355 6.93555C116.141 10.2884 118.533 15.1549 118.533 21.5352C118.533 25.2135 117.687 28.3548 115.994 30.959C114.301 33.5632 111.811 35.4837 108.523 36.7207C112.234 37.6973 115.083 39.5202 117.068 42.1895C119.054 44.8587 120.047 48.1139 120.047 51.9551C120.047 58.9212 117.833 64.1621 113.406 67.6777C109.012 71.1608 102.485 72.9349 93.8262 73H64.9688ZM82.1074 42.7754V59.8164H93.3379C96.4303 59.8164 98.8066 59.1165 100.467 57.7168C102.127 56.2845 102.957 54.2826 102.957 51.7109C102.957 45.7865 100.011 42.8079 94.1191 42.7754H82.1074ZM82.1074 31.5449H91.043C94.7865 31.5124 97.4557 30.8288 99.0508 29.4941C100.646 28.1595 101.443 26.1901 101.443 23.5859C101.443 20.5911 100.581 18.4427 98.8555 17.1406C97.1302 15.806 94.347 15.1387 90.5059 15.1387H82.1074V31.5449ZM187.039 48.9277C186.811 53.8757 185.477 58.2539 183.035 62.0625C180.594 65.8385 177.16 68.7682 172.732 70.8516C168.338 72.9349 163.309 73.9766 157.645 73.9766C148.302 73.9766 140.945 70.9329 135.574 64.8457C130.203 58.7585 127.518 50.1647 127.518 39.0645V35.5488C127.518 28.5827 128.722 22.4954 131.131 17.2871C133.572 12.0462 137.072 8.00977 141.629 5.17773C146.186 2.31315 151.46 0.880859 157.449 0.880859C166.076 0.880859 173.009 3.15951 178.25 7.7168C183.491 12.2415 186.469 18.4915 187.186 26.4668H170.096C169.965 22.1374 168.875 19.0286 166.824 17.1406C164.773 15.2526 161.648 14.3086 157.449 14.3086C153.185 14.3086 150.06 15.9036 148.074 19.0938C146.089 22.2839 145.047 27.3783 144.949 34.377V39.4062C144.949 46.9909 145.893 52.4108 147.781 55.666C149.702 58.9212 152.99 60.5488 157.645 60.5488C161.583 60.5488 164.594 59.6211 166.678 57.7656C168.761 55.9102 169.868 52.9642 169.998 48.9277H187.039Z" fill="black"/>
</svg>
