<svg width="283" height="59" viewBox="0 0 283 59" fill="none" xmlns="http://www.w3.org/2000/svg">
<path d="M243.012 48.684L282.904 48.6025V0.814209H215.577L235.441 35.6582L243.012 48.684Z" fill="#717171"/>
<path d="M70.0133 13.4329V0.814209H55.0337L62.6863 13.4329H70.0133Z" fill="#717171"/>
<path d="M77.1777 29.5523C77.1777 46.323 90.3663 58.9417 107.87 58.9417C115.929 58.9417 125.617 55.8481 131.805 51.4519V29.0638H119.186V43.962C115.767 45.6717 111.94 46.73 109.009 46.73C99.4844 46.73 92.1574 39.3216 92.1574 29.5523C92.1574 19.9458 99.403 12.5374 108.847 12.5374C114.22 12.5374 120 14.8983 124.233 18.806L132.456 8.87385C126.513 3.58213 117.476 0.325684 108.928 0.325684C90.7734 0.325684 77.1777 12.863 77.1777 29.5523Z" fill="black"/>
<path d="M55.0337 13.4329V58.3718L70.0133 58.4532V26.0516L62.6863 13.4329H55.0337Z" fill="black"/>
<path d="M47.2185 41.2754C47.2185 28.9824 37.9376 25.4817 28.7381 23.6092L27.924 23.4464C19.5387 21.7368 15.3053 20.9227 15.3053 16.6079C15.3053 12.9444 18.4803 10.9091 23.9349 10.9091C29.5522 10.9091 33.2972 13.1886 34.5997 17.422L34.6811 17.7476L46.8114 14.4912L46.73 14.1655C44.0434 4.88467 35.9023 0 23.1208 0C8.87381 0 1.05834 6.10583 1.05834 17.1777C1.05834 28.0054 8.54817 31.2619 16.6893 33.1343C18.3175 33.46 19.7829 33.7856 21.1669 34.1113C28.6567 35.6581 33.1343 36.5536 33.1343 41.6011C33.1343 46.73 28.4125 47.8697 24.4233 47.8697C16.6893 47.8697 13.27 43.8806 12.6187 40.0543L12.5373 39.7286L0 43.0665L0.0814111 43.3921C1.4654 50.3121 6.83853 58.616 24.4233 58.616C39.1588 58.616 47.2185 52.5102 47.2185 41.2754Z" fill="black"/>
<path d="M211.506 13.5142L204.179 0.895508H189.199L172.673 35.1696L156.472 0.895508H141.004V58.4532H154.111V21.0855L167.87 51.4518H177.395L191.235 21.0855L191.316 58.4532H204.179V13.5142H211.506Z" fill="black"/>
<path d="M274.437 58.4532L241.14 0.895508L233.894 13.5142L226.648 26.133H226.567L207.924 58.4532H222.496L241.14 26.0515L259.864 58.4532H274.437Z" fill="black"/>
</svg>
